<?xml version="1.0" encoding="utf-8"?>
<!-- Generator: Adobe Illustrator 23.0.1, SVG Export Plug-In . SVG Version: 6.00 Build 0)  -->
<svg version="1.1" id="Layer_1" xmlns="http://www.w3.org/2000/svg" xmlns:xlink="http://www.w3.org/1999/xlink" x="0px" y="0px"
	 viewBox="0 0 198.16 122.1" style="enable-background:new 0 0 198.16 122.1;" xml:space="preserve">
<style type="text/css">
	.st0{fill:#1B1C1C;}
	.st1{clip-path:url(#SVGID_2_);fill:#1B1C1C;}
	.st2{clip-path:url(#SVGID_4_);fill:#1B1C1C;}
	.st3{clip-path:url(#SVGID_6_);fill:#1B1C1C;}
	.st4{clip-path:url(#SVGID_6_);fill:#118DAB;}
	.st5{fill:#118DAB;}
	.st6{clip-path:url(#SVGID_8_);fill:#118DAB;}
	.st7{clip-path:url(#SVGID_10_);fill:#118DAB;}
	.st8{clip-path:url(#SVGID_12_);fill:#118DAB;}
	.st9{clip-path:url(#SVGID_14_);fill:#118DAB;}
	.st10{clip-path:url(#SVGID_16_);fill:#118DAB;}
	.st11{clip-path:url(#SVGID_18_);fill:#118DAB;}
	.st12{clip-path:url(#SVGID_20_);fill:#118DAB;}
	.st13{clip-path:url(#SVGID_22_);fill:#118DAB;}
	.st14{clip-path:url(#SVGID_22_);fill:#1B1C1C;}
</style>
<polygon class="st0" points="190.38,70.26 189.51,70.26 189.51,65.69 187.95,65.69 187.95,64.95 191.94,64.95 191.94,65.69 
	190.38,65.69 "/>
<g>
	<defs>
		<rect id="SVGID_1_" x="0" width="198.16" height="122.1"/>
	</defs>
	<clipPath id="SVGID_2_">
		<use xlink:href="#SVGID_1_"  style="overflow:visible;"/>
	</clipPath>
	<path class="st1" d="M194.99,70.26l-1.54-4.43h-0.03c0.04,0.66,0.06,1.28,0.06,1.85v2.58h-0.79v-5.31h1.22l1.47,4.22h0.02
		l1.52-4.22h1.23v5.31h-0.84v-2.62c0-0.26,0.01-0.61,0.02-1.03c0.01-0.42,0.02-0.68,0.03-0.77h-0.03l-1.59,4.42H194.99z"/>
	<path class="st1" d="M7.64,91.48c0,3.84,0.73,6.73,2.18,8.67c1.46,1.94,3.64,2.91,6.53,2.91c5.81,0,8.72-3.86,8.72-11.58
		c0-7.74-2.89-11.61-8.67-11.61c-2.9,0-5.08,0.97-6.56,2.93C8.37,84.75,7.64,87.64,7.64,91.48 M32.71,91.48
		c0,5.69-1.41,10.06-4.23,13.11s-6.86,4.58-12.13,4.58s-9.31-1.53-12.13-4.58S0,97.15,0,91.44c0-5.72,1.41-10.09,4.24-13.1
		c2.83-3.02,6.88-4.52,12.16-4.52c5.28,0,9.32,1.52,12.11,4.56C31.31,81.41,32.71,85.78,32.71,91.48"/>
	<path class="st1" d="M46.07,89.6h2.35c2.3,0,4-0.38,5.1-1.15c1.1-0.77,1.65-1.97,1.65-3.62c0-1.63-0.56-2.79-1.68-3.48
		c-1.12-0.69-2.85-1.03-5.2-1.03h-2.21V89.6z M46.07,95.52v13.18h-7.28V74.35H48.8c4.67,0,8.12,0.85,10.36,2.55
		c2.24,1.7,3.36,4.28,3.36,7.74c0,2.02-0.56,3.82-1.67,5.39c-1.11,1.57-2.69,2.81-4.72,3.7c5.17,7.72,8.54,12.71,10.1,14.97h-8.08
		l-8.2-13.18H46.07z"/>
</g>
<rect x="72.65" y="74.35" class="st0" width="7.29" height="34.36"/>
<polygon class="st0" points="103.93,108.71 96.64,108.71 96.64,80.41 87.31,80.41 87.31,74.35 113.25,74.35 113.25,80.41 
	103.93,80.41 "/>
<g>
	<defs>
		<rect id="SVGID_3_" x="0" width="198.16" height="122.1"/>
	</defs>
	<clipPath id="SVGID_4_">
		<use xlink:href="#SVGID_3_"  style="overflow:visible;"/>
	</clipPath>
	<path class="st2" d="M134.3,94.42c-2.3-7.41-3.6-11.6-3.89-12.57c-0.29-0.97-0.5-1.74-0.62-2.3c-0.52,2-2,6.96-4.44,14.88H134.3z
		 M138.53,108.71l-2.49-8.18h-12.52l-2.49,8.18h-7.85l12.12-34.5h8.91l12.17,34.5H138.53z"/>
</g>
<rect x="152.79" y="74.35" class="st0" width="7.29" height="34.36"/>
<g>
	<defs>
		<rect id="SVGID_5_" x="0" width="198.16" height="122.1"/>
	</defs>
	<clipPath id="SVGID_6_">
		<use xlink:href="#SVGID_5_"  style="overflow:visible;"/>
	</clipPath>
	<path class="st3" d="M198.16,108.71h-9.26l-14.95-25.99h-0.21c0.3,4.59,0.45,7.87,0.45,9.82v16.17h-6.51V74.35h9.19l14.92,25.73
		h0.16c-0.24-4.47-0.35-7.62-0.35-9.47V74.35h6.56V108.71z"/>
	<path class="st4" d="M8.62,117.8h0.42c0.4,0,0.69-0.08,0.89-0.23c0.2-0.16,0.29-0.38,0.29-0.68c0-0.3-0.08-0.52-0.25-0.67
		C9.82,116.07,9.56,116,9.21,116H8.62V117.8z M11.52,116.84c0,0.65-0.2,1.15-0.61,1.5c-0.41,0.35-0.99,0.52-1.74,0.52H8.62v2.15
		H7.34v-6.06h1.93c0.73,0,1.29,0.16,1.68,0.47C11.33,115.74,11.52,116.21,11.52,116.84"/>
	<path class="st4" d="M13.95,117.64h0.41c0.41,0,0.71-0.07,0.9-0.2c0.19-0.14,0.29-0.35,0.29-0.64c0-0.29-0.1-0.49-0.3-0.61
		c-0.2-0.12-0.5-0.18-0.92-0.18h-0.39V117.64z M13.95,118.68v2.32h-1.28v-6.06h1.77c0.82,0,1.43,0.15,1.83,0.45
		c0.4,0.3,0.59,0.76,0.59,1.37c0,0.36-0.1,0.67-0.29,0.95c-0.2,0.28-0.47,0.5-0.83,0.65c0.91,1.36,1.5,2.24,1.78,2.64h-1.42
		l-1.45-2.32H13.95z"/>
	<path class="st4" d="M19.35,117.97c0,0.68,0.13,1.19,0.39,1.53c0.26,0.34,0.64,0.51,1.15,0.51c1.02,0,1.54-0.68,1.54-2.04
		c0-1.36-0.51-2.05-1.53-2.05c-0.51,0-0.9,0.17-1.16,0.52C19.48,116.78,19.35,117.29,19.35,117.97 M23.77,117.97
		c0,1-0.25,1.77-0.75,2.31c-0.5,0.54-1.21,0.81-2.14,0.81s-1.64-0.27-2.14-0.81c-0.5-0.54-0.75-1.31-0.75-2.32
		c0-1.01,0.25-1.78,0.75-2.31c0.5-0.53,1.21-0.8,2.14-0.8c0.93,0,1.64,0.27,2.14,0.8S23.77,116.96,23.77,117.97"/>
	<path class="st4" d="M28.48,114.95h1.3l-2.06,6.06h-1.4l-2.06-6.06h1.3l1.14,3.6c0.06,0.21,0.13,0.46,0.2,0.74
		c0.07,0.28,0.11,0.48,0.13,0.59c0.03-0.25,0.13-0.7,0.31-1.33L28.48,114.95z"/>
</g>
<rect x="30.54" y="114.95" class="st5" width="1.28" height="6.06"/>
<g>
	<defs>
		<rect id="SVGID_7_" x="0" width="198.16" height="122.1"/>
	</defs>
	<clipPath id="SVGID_8_">
		<use xlink:href="#SVGID_7_"  style="overflow:visible;"/>
	</clipPath>
	<path class="st6" d="M38.72,121.01h-1.63l-2.64-4.58h-0.04c0.05,0.81,0.08,1.39,0.08,1.73v2.85h-1.15v-6.06h1.62l2.63,4.54h0.03
		c-0.04-0.79-0.06-1.34-0.06-1.67v-2.87h1.16V121.01z"/>
	<path class="st6" d="M42.55,117.6h2.4v3.14c-0.39,0.13-0.76,0.22-1.1,0.27c-0.34,0.05-0.7,0.08-1.06,0.08
		c-0.91,0-1.61-0.27-2.09-0.81c-0.48-0.54-0.72-1.31-0.72-2.32c0-0.98,0.28-1.74,0.84-2.29c0.56-0.55,1.34-0.82,2.33-0.82
		c0.62,0,1.22,0.12,1.8,0.37l-0.43,1.03c-0.44-0.22-0.9-0.33-1.38-0.33c-0.56,0-1,0.19-1.33,0.56c-0.33,0.37-0.5,0.88-0.5,1.5
		c0,0.66,0.13,1.16,0.4,1.51c0.27,0.35,0.66,0.52,1.17,0.52c0.27,0,0.54-0.03,0.82-0.08v-1.26h-1.15V117.6z"/>
	<path class="st6" d="M49.67,117.97c0,0.68,0.13,1.19,0.38,1.53c0.26,0.34,0.64,0.51,1.15,0.51c1.03,0,1.54-0.68,1.54-2.04
		c0-1.36-0.51-2.05-1.53-2.05c-0.51,0-0.9,0.17-1.16,0.52C49.8,116.78,49.67,117.29,49.67,117.97 M54.09,117.97
		c0,1-0.25,1.77-0.75,2.31c-0.5,0.54-1.21,0.81-2.14,0.81c-0.93,0-1.64-0.27-2.14-0.81c-0.5-0.54-0.75-1.31-0.75-2.32
		c0-1.01,0.25-1.78,0.75-2.31c0.5-0.53,1.21-0.8,2.14-0.8c0.93,0,1.64,0.27,2.14,0.8S54.09,116.96,54.09,117.97"/>
	<path class="st6" d="M56.63,117.64h0.41c0.41,0,0.71-0.07,0.9-0.2c0.19-0.14,0.29-0.35,0.29-0.64c0-0.29-0.1-0.49-0.3-0.61
		c-0.2-0.12-0.5-0.18-0.92-0.18h-0.39V117.64z M56.63,118.68v2.32h-1.28v-6.06h1.76c0.82,0,1.43,0.15,1.83,0.45
		c0.4,0.3,0.59,0.76,0.59,1.37c0,0.36-0.1,0.67-0.29,0.95c-0.2,0.28-0.47,0.5-0.83,0.65c0.91,1.36,1.51,2.24,1.78,2.64h-1.42
		l-1.45-2.32H56.63z"/>
</g>
<rect x="60.95" y="114.95" class="st5" width="1.28" height="6.06"/>
<g>
	<defs>
		<rect id="SVGID_9_" x="0" width="198.16" height="122.1"/>
	</defs>
	<clipPath id="SVGID_10_">
		<use xlink:href="#SVGID_9_"  style="overflow:visible;"/>
	</clipPath>
	<path class="st7" d="M66.06,117.6h2.4v3.14c-0.39,0.13-0.76,0.22-1.1,0.27c-0.34,0.05-0.7,0.08-1.05,0.08
		c-0.91,0-1.61-0.27-2.09-0.81c-0.48-0.54-0.72-1.31-0.72-2.32c0-0.98,0.28-1.74,0.84-2.29c0.56-0.55,1.33-0.82,2.33-0.82
		c0.62,0,1.22,0.12,1.8,0.37l-0.43,1.03c-0.44-0.22-0.9-0.33-1.38-0.33c-0.55,0-1,0.19-1.33,0.56c-0.33,0.37-0.5,0.88-0.5,1.5
		c0,0.66,0.13,1.16,0.4,1.51c0.27,0.35,0.66,0.52,1.17,0.52c0.27,0,0.54-0.03,0.82-0.08v-1.26h-1.15V117.6z"/>
</g>
<rect x="69.91" y="114.95" class="st5" width="1.28" height="6.06"/>
<g>
	<defs>
		<rect id="SVGID_11_" x="0" width="198.16" height="122.1"/>
	</defs>
	<clipPath id="SVGID_12_">
		<use xlink:href="#SVGID_11_"  style="overflow:visible;"/>
	</clipPath>
	<path class="st8" d="M78.09,121.01h-1.63l-2.64-4.58h-0.04c0.05,0.81,0.08,1.39,0.08,1.73v2.85h-1.15v-6.06h1.62l2.63,4.54h0.03
		c-0.04-0.79-0.06-1.34-0.06-1.67v-2.87h1.16V121.01z"/>
	<path class="st8" d="M80.75,120.12c-0.14,0.56-0.39,1.22-0.73,1.99h-0.91c0.18-0.74,0.32-1.43,0.42-2.08h1.16L80.75,120.12z"/>
	<path class="st8" d="M85.56,117.8h0.42c0.4,0,0.69-0.08,0.89-0.23c0.2-0.16,0.29-0.38,0.29-0.68c0-0.3-0.08-0.52-0.25-0.67
		c-0.16-0.14-0.42-0.21-0.77-0.21h-0.58V117.8z M88.46,116.84c0,0.65-0.2,1.15-0.61,1.5c-0.41,0.35-0.99,0.52-1.74,0.52h-0.55v2.15
		h-1.29v-6.06h1.93c0.74,0,1.29,0.16,1.68,0.47C88.27,115.74,88.46,116.21,88.46,116.84"/>
	<path class="st8" d="M90.89,117.64h0.41c0.41,0,0.71-0.07,0.9-0.2c0.19-0.14,0.29-0.35,0.29-0.64c0-0.29-0.1-0.49-0.3-0.61
		c-0.2-0.12-0.5-0.18-0.92-0.18h-0.39V117.64z M90.89,118.68v2.32h-1.28v-6.06h1.76c0.82,0,1.43,0.15,1.83,0.45
		c0.4,0.3,0.59,0.76,0.59,1.37c0,0.36-0.1,0.67-0.29,0.95c-0.2,0.28-0.47,0.5-0.83,0.65c0.91,1.36,1.51,2.24,1.78,2.64h-1.42
		l-1.45-2.32H90.89z"/>
	<path class="st8" d="M96.29,117.97c0,0.68,0.13,1.19,0.38,1.53c0.26,0.34,0.64,0.51,1.15,0.51c1.02,0,1.54-0.68,1.54-2.04
		c0-1.36-0.51-2.05-1.53-2.05c-0.51,0-0.9,0.17-1.16,0.52C96.42,116.78,96.29,117.29,96.29,117.97 M100.71,117.97
		c0,1-0.25,1.77-0.75,2.31c-0.5,0.54-1.21,0.81-2.14,0.81c-0.93,0-1.64-0.27-2.14-0.81c-0.5-0.54-0.75-1.31-0.75-2.32
		c0-1.01,0.25-1.78,0.75-2.31c0.5-0.53,1.21-0.8,2.14-0.8c0.93,0,1.64,0.27,2.14,0.8C100.46,116.19,100.71,116.96,100.71,117.97"/>
</g>
<polygon class="st5" points="104.3,121.01 103.02,121.01 103.02,116.02 101.37,116.02 101.37,114.95 105.94,114.95 105.94,116.02 
	104.3,116.02 "/>
<polygon class="st5" points="110.37,121.01 106.88,121.01 106.88,114.95 110.37,114.95 110.37,116 108.16,116 108.16,117.33 
	110.21,117.33 110.21,118.38 108.16,118.38 108.16,119.95 110.37,119.95 "/>
<g>
	<defs>
		<rect id="SVGID_13_" x="0" width="198.16" height="122.1"/>
	</defs>
	<clipPath id="SVGID_14_">
		<use xlink:href="#SVGID_13_"  style="overflow:visible;"/>
	</clipPath>
	<path class="st9" d="M114.2,115.93c-0.48,0-0.86,0.18-1.12,0.54c-0.26,0.36-0.4,0.87-0.4,1.52c0,1.35,0.51,2.03,1.52,2.03
		c0.43,0,0.94-0.11,1.55-0.32v1.08c-0.5,0.21-1.05,0.31-1.67,0.31c-0.88,0-1.55-0.27-2.02-0.8c-0.47-0.53-0.7-1.3-0.7-2.3
		c0-0.63,0.11-1.18,0.34-1.65c0.23-0.47,0.56-0.84,0.99-1.09c0.43-0.25,0.93-0.38,1.51-0.38c0.59,0,1.18,0.14,1.77,0.43l-0.41,1.04
		c-0.23-0.11-0.45-0.2-0.68-0.28C114.65,115.97,114.42,115.93,114.2,115.93"/>
</g>
<polygon class="st5" points="119.37,121.01 118.09,121.01 118.09,116.02 116.44,116.02 116.44,114.95 121.02,114.95 121.02,116.02 
	119.37,116.02 "/>
<rect x="121.95" y="114.95" class="st5" width="1.28" height="6.06"/>
<g>
	<defs>
		<rect id="SVGID_15_" x="0" width="198.16" height="122.1"/>
	</defs>
	<clipPath id="SVGID_16_">
		<use xlink:href="#SVGID_15_"  style="overflow:visible;"/>
	</clipPath>
	<path class="st10" d="M130.13,121.01h-1.63l-2.64-4.58h-0.04c0.05,0.81,0.08,1.39,0.08,1.73v2.85h-1.15v-6.06h1.62l2.63,4.54h0.03
		c-0.04-0.79-0.06-1.34-0.06-1.67v-2.87h1.16V121.01z"/>
	<path class="st10" d="M133.96,117.6h2.4v3.14c-0.39,0.13-0.76,0.22-1.1,0.27c-0.34,0.05-0.7,0.08-1.06,0.08
		c-0.91,0-1.61-0.27-2.09-0.81c-0.48-0.54-0.72-1.31-0.72-2.32c0-0.98,0.28-1.74,0.84-2.29c0.56-0.55,1.34-0.82,2.33-0.82
		c0.62,0,1.22,0.12,1.8,0.37l-0.43,1.03c-0.44-0.22-0.9-0.33-1.38-0.33c-0.56,0-1,0.19-1.33,0.56c-0.33,0.37-0.5,0.88-0.5,1.5
		c0,0.66,0.13,1.16,0.4,1.51c0.27,0.35,0.66,0.52,1.17,0.52c0.27,0,0.54-0.03,0.82-0.08v-1.26h-1.15V117.6z"/>
	<path class="st10" d="M141.29,117.64h0.41c0.41,0,0.71-0.07,0.9-0.2c0.19-0.14,0.29-0.35,0.29-0.64c0-0.29-0.1-0.49-0.3-0.61
		c-0.2-0.12-0.5-0.18-0.92-0.18h-0.39V117.64z M141.29,118.68v2.32h-1.28v-6.06h1.76c0.82,0,1.43,0.15,1.83,0.45
		c0.39,0.3,0.59,0.76,0.59,1.37c0,0.36-0.1,0.67-0.29,0.95c-0.2,0.28-0.47,0.5-0.83,0.65c0.91,1.36,1.51,2.24,1.78,2.64h-1.43
		l-1.45-2.32H141.29z"/>
</g>
<polygon class="st5" points="149.1,121.01 145.61,121.01 145.61,114.95 149.1,114.95 149.1,116 146.89,116 146.89,117.33 
	148.95,117.33 148.95,118.38 146.89,118.38 146.89,119.95 149.1,119.95 "/>
<g>
	<defs>
		<rect id="SVGID_17_" x="0" width="198.16" height="122.1"/>
	</defs>
	<clipPath id="SVGID_18_">
		<use xlink:href="#SVGID_17_"  style="overflow:visible;"/>
	</clipPath>
	<path class="st11" d="M151.65,117.8h0.42c0.4,0,0.69-0.08,0.89-0.23c0.2-0.16,0.29-0.38,0.29-0.68c0-0.3-0.08-0.52-0.25-0.67
		c-0.16-0.14-0.42-0.21-0.77-0.21h-0.58V117.8z M154.55,116.84c0,0.65-0.2,1.15-0.61,1.5c-0.41,0.35-0.99,0.52-1.74,0.52h-0.55v2.15
		h-1.29v-6.06h1.94c0.73,0,1.29,0.16,1.68,0.47S154.55,116.21,154.55,116.84"/>
	<path class="st11" d="M160.62,114.95v3.92c0,0.45-0.1,0.84-0.3,1.18c-0.2,0.34-0.49,0.6-0.87,0.78c-0.38,0.18-0.83,0.27-1.34,0.27
		c-0.78,0-1.38-0.2-1.82-0.6c-0.43-0.4-0.65-0.94-0.65-1.64v-3.9h1.28v3.71c0,0.47,0.09,0.81,0.28,1.03
		c0.19,0.22,0.5,0.33,0.93,0.33c0.42,0,0.73-0.11,0.91-0.33c0.19-0.22,0.28-0.56,0.28-1.03v-3.7H160.62z"/>
</g>
<polygon class="st5" points="164.44,121.01 163.16,121.01 163.16,116.02 161.51,116.02 161.51,114.95 166.09,114.95 166.09,116.02 
	164.44,116.02 "/>
<g>
	<defs>
		<rect id="SVGID_19_" x="0" width="198.16" height="122.1"/>
	</defs>
	<clipPath id="SVGID_20_">
		<use xlink:href="#SVGID_19_"  style="overflow:visible;"/>
	</clipPath>
	<path class="st12" d="M169.98,118.49c-0.41-1.31-0.63-2.05-0.69-2.22c-0.05-0.17-0.09-0.31-0.11-0.41
		c-0.09,0.35-0.35,1.23-0.78,2.62H169.98z M170.73,121.01l-0.44-1.44h-2.21l-0.44,1.44h-1.38l2.14-6.08h1.57l2.15,6.08H170.73z"/>
</g>
<polygon class="st5" points="175.21,121.01 173.93,121.01 173.93,116.02 172.28,116.02 172.28,114.95 176.85,114.95 176.85,116.02 
	175.21,116.02 "/>
<rect x="177.79" y="114.95" class="st5" width="1.28" height="6.06"/>
<g>
	<defs>
		<rect id="SVGID_21_" x="0" width="198.16" height="122.1"/>
	</defs>
	<clipPath id="SVGID_22_">
		<use xlink:href="#SVGID_21_"  style="overflow:visible;"/>
	</clipPath>
	<path class="st13" d="M181.67,117.97c0,0.68,0.13,1.19,0.38,1.53c0.26,0.34,0.64,0.51,1.15,0.51c1.02,0,1.54-0.68,1.54-2.04
		c0-1.36-0.51-2.05-1.53-2.05c-0.51,0-0.9,0.17-1.16,0.52C181.8,116.78,181.67,117.29,181.67,117.97 M186.09,117.97
		c0,1-0.25,1.77-0.75,2.31c-0.5,0.54-1.21,0.81-2.14,0.81c-0.93,0-1.64-0.27-2.14-0.81c-0.5-0.54-0.75-1.31-0.75-2.32
		c0-1.01,0.25-1.78,0.75-2.31c0.5-0.53,1.21-0.8,2.14-0.8c0.93,0,1.64,0.27,2.14,0.8S186.09,116.96,186.09,117.97"/>
	<path class="st13" d="M192.72,121.01h-1.63l-2.64-4.58h-0.04c0.05,0.81,0.08,1.39,0.08,1.73v2.85h-1.15v-6.06h1.62l2.63,4.54h0.03
		c-0.04-0.79-0.06-1.34-0.06-1.67v-2.87h1.16V121.01z"/>
	<path class="st13" d="M197.82,119.32c0,0.55-0.2,0.98-0.59,1.29c-0.39,0.32-0.94,0.47-1.64,0.47c-0.65,0-1.22-0.12-1.72-0.36v-1.19
		c0.41,0.18,0.76,0.31,1.04,0.39c0.28,0.07,0.54,0.11,0.78,0.11c0.28,0,0.5-0.05,0.65-0.16c0.15-0.11,0.23-0.27,0.23-0.48
		c0-0.12-0.03-0.22-0.1-0.32c-0.07-0.09-0.16-0.18-0.29-0.27c-0.13-0.09-0.39-0.22-0.79-0.41c-0.37-0.17-0.65-0.34-0.83-0.5
		c-0.18-0.16-0.33-0.35-0.44-0.56c-0.11-0.21-0.17-0.46-0.17-0.75c0-0.54,0.18-0.96,0.54-1.26c0.36-0.31,0.87-0.46,1.51-0.46
		c0.32,0,0.62,0.04,0.9,0.11c0.29,0.07,0.59,0.18,0.9,0.32l-0.41,1c-0.32-0.13-0.59-0.23-0.8-0.28c-0.21-0.05-0.42-0.08-0.62-0.08
		c-0.24,0-0.43,0.06-0.56,0.17c-0.13,0.11-0.19,0.26-0.19,0.44c0,0.11,0.03,0.21,0.08,0.3c0.05,0.08,0.14,0.17,0.25,0.24
		c0.11,0.08,0.39,0.22,0.81,0.43c0.57,0.27,0.95,0.54,1.16,0.81C197.72,118.6,197.82,118.93,197.82,119.32"/>
	<path class="st14" d="M94.83,30.92c1.14-2.94,3.47-4.17,5.81-4.17c4.13,0,8.33,3.82,6.34,8.91c-4.11,10.54-11.04,19.59-20.61,26.97
		c-1.45-0.68-2.86-1.44-4.19-2.32c9.72-7.1,16.72-15.9,20.75-26.23c0.44-1.12-0.12-2.38-1.24-2.82c-1.12-0.44-2.38,0.12-2.82,1.24
		c-3.83,9.81-10.91,18.34-20.33,25c-1.1-0.97-2.14-2.01-3.1-3.12C84.48,48.15,91.23,40.14,94.83,30.92"/>
	<path class="st13" d="M119.45,36.24c-6.73,0-12.21,5.48-12.21,12.21c0,6.08,4.33,13.38,10.33,23.47c0.61,1.03,1.24,2.08,1.88,3.17
		c0.64-1.09,1.27-2.14,1.88-3.17c6-10.1,10.33-17.39,10.33-23.47C131.66,41.72,126.18,36.24,119.45,36.24"/>
	<path class="st14" d="M117.23,22.4c2.18,3.18,3.28,6.83,3.31,10.56c1.33,0.09,2.62,0.35,3.84,0.76c0.02-0.47,0.03-0.95,0.03-1.42
		c0-13.01-8.96-20.84-17.83-22.83c-8.9-2-21.83,1.02-28.96,16.11c-2.7,5.71-5.78,9.74-9.71,12.82c0.27,1.57,0.62,3.11,1.11,4.6
		c6.4-4.63,11.14-10.36,13.66-16.82c3-7.7,9.89-12.48,17.97-12.48C107.2,13.7,113.56,17.04,117.23,22.4"/>
	<path class="st14" d="M107.32,60.44c-1.48,1.79-3.05,3.52-4.71,5.2c2.34-0.16,4.61-0.55,6.79-1.18
		C108.65,63.07,107.95,61.73,107.32,60.44"/>
	<path class="st14" d="M100.64,22.4c3.73,0,7.34,1.88,9.41,4.91c1.55,2.27,2.1,4.99,1.61,7.72c1.39-0.81,2.91-1.41,4.53-1.76
		c0.04-2.98-0.82-5.89-2.55-8.42c-2.87-4.2-7.85-6.8-13-6.8c-6.25,0-11.58,3.72-13.92,9.71C83.78,35.3,78.2,41.9,70.69,47.12
		c0.63,1.31,1.33,2.59,2.13,3.8c8.4-5.75,14.66-13.12,17.96-21.58C92.47,25,96.16,22.4,100.64,22.4"/>
	<path class="st14" d="M104.03,50.4c-3.56,5.14-7.89,9.82-12.98,14.03c1.76,0.51,3.57,0.89,5.44,1.1c3.31-2.98,6.27-6.19,8.9-9.59
		C104.7,54.01,104.24,52.18,104.03,50.4"/>
	<path class="st14" d="M128.76,32.31c0,1.2-0.06,2.4-0.16,3.6c1.49,1.09,2.79,2.44,3.81,3.99c0.5-2.26,0.76-4.61,0.76-7.02
		C133.16,14.72,118.44,0,100.28,0C82.13,0,67.4,14.72,67.4,32.88c0,0.07,0.01,0.14,0.01,0.21c2.45-2.44,4.41-5.44,6.26-9.36
		C81.91,6.32,97.06,2.88,107.53,5.23C120.22,8.08,128.76,18.96,128.76,32.31"/>
</g>
</svg>
