<?xml version="1.0" encoding="utf-8"?>
<!-- Generator: Adobe Illustrator 23.0.4, SVG Export Plug-In . SVG Version: 6.00 Build 0)  -->
<svg version="1.1" xmlns="http://www.w3.org/2000/svg" xmlns:xlink="http://www.w3.org/1999/xlink" x="0px" y="0px"
	 viewBox="0 0 216.4 216.4" style="enable-background:new 0 0 216.4 216.4;" xml:space="preserve">
<style type="text/css">
	.st0{display:none;}
	.st1{display:inline;}
	.st2{clip-path:url(#SVGID_2_);fill:#373535;}
	.st3{clip-path:url(#SVGID_4_);fill:#373535;}
	.st4{clip-path:url(#SVGID_6_);fill:#373535;}
	.st5{clip-path:url(#SVGID_8_);fill:#373535;}
	.st6{clip-path:url(#SVGID_10_);fill:#373535;}
	.st7{fill:#373535;}
	.st8{font-family:'Graphik-Bold';}
	.st9{font-size:23.1436px;}
	.st10{font-family:'Archer-Bold';}
	.st11{clip-path:url(#SVGID_12_);fill:#373535;}
	.st12{clip-path:url(#SVGID_14_);fill:#373535;}
	.st13{clip-path:url(#SVGID_16_);fill:#373535;}
	.st14{clip-path:url(#SVGID_18_);fill:#373535;}
	.st15{clip-path:url(#SVGID_20_);fill:#373535;}
	.st16{font-size:23.1015px;}
	.st17{font-size:19.2513px;}
	.st18{font-size:16.5563px;}
	.st19{fill:#1D1D1B;}
</style>
<g id="Layer_1" class="st0">
	<g id="Antibiotics">
		<path class="st1" d="M173,43.2c-17.9-17.9-41.3-26.8-64.8-26.8s-46.9,8.9-64.8,26.8C25.6,61.1,16.7,84.5,16.7,108
			s9,46.9,26.8,64.7c17.9,17.9,41.3,26.8,64.8,26.8s46.9-8.9,64.8-26.8s26.8-41.3,26.8-64.8C199.8,84.5,190.9,61.1,173,43.2z
			 M170.1,169.8c-17.1,17.1-39.5,25.6-61.9,25.6s-44.8-8.5-61.8-25.6c-17.1-17.1-25.6-39.5-25.6-61.9s8.5-44.8,25.6-61.8
			C63.5,29,85.9,20.5,108.3,20.5S153,29,170.1,46.1s25.6,39.5,25.6,61.8C195.7,130.4,187.2,152.7,170.1,169.8z M88.2,137.8
			l-31.5,31.5c-0.7,0.7-0.7,1.8,0,2.5s1.8,0.7,2.5,0l31.5-31.5c0.7-0.7,0.7-1.8,0-2.5S88.9,137.1,88.2,137.8 M57,46.9l32.4,32.4
			c0.7,0.7,1.8,0.7,2.5,0s0.7-1.8,0-2.5L59.4,44.5c-0.7-0.7-1.8-0.7-2.5,0S56.3,46.2,57,46.9 M126.4,140.8l30.5,30.5
			c0.7,0.7,1.8,0.7,2.5,0s0.7-1.8,0-2.5l-30.5-30.5c-0.7-0.7-1.8-0.7-2.5,0S125.7,140.1,126.4,140.8 M157.4,44.2l-33.3,33.3
			c-0.7,0.7-0.7,1.8,0,2.5s1.8,0.7,2.5,0l33.3-33.3c0.7-0.7,0.7-1.8,0-2.5S158.1,43.5,157.4,44.2 M73.4,101.2h1.2V86.8h1.9v-2h-6.2
			v2h2.1v9.5l-8.8-11.5h-3.9v2h2v12.3h-2v2H66v-2h-2.1V88.8L73.4,101.2z M92.1,93c0-3.6-2.5-6.4-6-6.4s-6,2.7-6,6.4
			c0,3.6,2.5,6.4,6,6.4C89.6,99.3,92.1,96.7,92.1,93 M77.8,93c0-4.8,3.5-8.4,8.3-8.4s8.2,3.7,8.2,8.4c0,4.8-3.5,8.4-8.3,8.4
			S77.8,97.7,77.8,93 M98.8,101.1h6.5v-2h-2.1V86.8h3.6v2.6h2.1v-4.5H95.1v4.5h2.1v-2.6h3.6v12.4h-2.1L98.8,101.1L98.8,101.1z
			 M114.6,101.1h6.4v-2h-2.2v-5h5.1v-2h-5.1v-5.3h5.4v2.3h2.2v-4.3h-11.8v2h2v12.3h-2V101.1L114.6,101.1z M127.7,101.1h12v-4.3h-2.1
			v2.3H132v-5.4h5.1v-1.9H132v-5.1h5.6V89h2.1v-4.3h-12v2h2V99h-2V101.1z M147.5,99.1c4.6,0,6.9-2.5,6.9-6.3s-2.8-6-7.1-6h-1.8v12.3
			H147.5z M141.3,99.1h2V86.8h-2v-2h6.1c5.8,0,9.4,3.1,9.4,8s-3.4,8.3-9.5,8.3h-6V99.1z M35.9,124.3h3.5l-1.7-6.4L35.9,124.3z
			 M34.4,113.3h7.3l5.5,17.7h-5.9l-0.8-2.9h-5.6L34,131h-5.2L34.4,113.3z M48.1,131h5v-10.6L59,131h5.4v-17.7h-4.9v9.4l-5-9.4h-6.3
			L48.1,131L48.1,131z M70.1,131h5.7v-13.4h4.5v-4.3H65.6v4.3h4.5V131z M81.5,131h5.7v-17.7h-5.7V131z M96.9,127.3
			c1.4,0,2.1-0.7,2.1-1.9v-0.1c0-1.2-0.7-1.8-2.2-1.8h-1.7v3.8H96.9z M96.8,120.2c1.4,0,1.9-0.5,1.9-1.6v-0.1c0-1.1-0.6-1.6-2-1.6
			H95v3.2L96.8,120.2L96.8,120.2z M89.6,113.3H98c4.4,0,6,2,6,4.6v0.1c0,2.1-1.1,3.3-3.1,3.8c2.1,0.4,3.5,1.7,3.5,4.1v0.1
			c0,3.1-2,4.9-6.6,4.9h-8.3L89.6,113.3L89.6,113.3z M105.9,131h5.7v-17.7h-5.7V131z M126.2,122.3v-0.2c0-3-1.4-4.6-3.7-4.6
			c-2.2,0-3.6,1.6-3.6,4.6v0.2c0,3,1.4,4.7,3.6,4.7C124.8,126.9,126.2,125.2,126.2,122.3 M113.1,122.3v-0.2c0-5.5,4.2-9,9.5-9
			c5.4,0,9.5,3.3,9.5,8.9v0.2c0,5.5-3.8,9.2-9.6,9.2C116.6,131.4,113.1,127.7,113.1,122.3 M136.2,131h5.6v-13.4h4.5v-4.3h-14.6v4.3
			h4.5V131z M147.6,131h5.7v-17.7h-5.7V131z M154.8,122.3c0,5.4,3,9.1,9.4,9.1c4.7,0,8.1-2.4,8.4-7.1H167c-0.2,1.8-1.3,2.6-2.9,2.6
			c-2.2,0-3.4-1.6-3.4-4.6v-0.2c0-3,1.2-4.6,3.3-4.6c1.6,0,2.4,0.9,2.6,2.6h5.8c-0.4-4.8-3.6-7-8.4-7c-5.2,0-9.2,3.6-9.2,9
			L154.8,122.3 M172.6,125.4c0.1,4,2.8,6,7.8,6c4.8,0,7.3-2.7,7.3-6c0-3.9-2.5-5.1-6.9-5.6c-2-0.2-2.5-0.7-2.5-1.5s0.6-1.3,1.8-1.3
			s1.8,0.6,1.9,1.7h5.2c-0.3-3.9-2.8-5.7-7.1-5.7c-4.4,0-7.1,2.4-7.1,5.7c0,3.6,1.7,5.1,6.8,5.7c1.9,0.3,2.5,0.6,2.5,1.5
			s-0.6,1.5-2,1.5c-1.8,0-2.4-0.9-2.5-2L172.6,125.4"/>
	</g>
	<g id="nld" class="st1">
		<g>
			<g>
				<defs>
					<rect id="SVGID_1_" x="6.2" width="202.5" height="213.8"/>
				</defs>
				<clipPath id="SVGID_2_">
					<use xlink:href="#SVGID_1_"  style="overflow:visible;"/>
				</clipPath>
				<path class="st2" d="M173.8,41.7c-18.1-18.2-42-27.2-65.7-27.2c-23.8,0-47.6,9.1-65.7,27.2C24.1,59.9,15,83.7,15,107.5
					s9.1,47.6,27.2,65.7c18.1,18.2,42,27.2,65.7,27.2c23.8,0,47.6-9.1,65.7-27.2c18.2-18.1,27.2-42,27.2-65.7
					C201,83.7,191.9,59.9,173.8,41.7 M170.8,170.3c-17.4,17.3-40.1,26-62.8,26s-45.5-8.7-62.8-26c-17.3-17.4-26-40.1-26-62.8
					s8.7-45.5,26-62.8c17.3-17.4,40.1-26,62.8-26s45.5,8.7,62.8,26s26,40.1,26,62.8S188.2,152.9,170.8,170.3"/>
			</g>
			<g>
				<defs>
					<rect id="SVGID_3_" x="6.2" width="202.5" height="213.8"/>
				</defs>
				<clipPath id="SVGID_4_">
					<use xlink:href="#SVGID_3_"  style="overflow:visible;"/>
				</clipPath>
				<path class="st3" d="M55.9,41.4L85,71.8c0.6,0.6,1.6,0.6,2.2,0s0.6-1.7,0-2.3L58.1,39.1c-0.6-0.6-1.6-0.6-2.2,0
					C55.3,39.8,55.3,40.8,55.9,41.4"/>
			</g>
			<g>
				<defs>
					<rect id="SVGID_5_" x="6.2" width="202.5" height="213.8"/>
				</defs>
				<clipPath id="SVGID_6_">
					<use xlink:href="#SVGID_5_"  style="overflow:visible;"/>
				</clipPath>
				<path class="st4" d="M158.3,38.8L129,69.5c-0.6,0.6-0.6,1.6,0,2.3c0.6,0.6,1.6,0.6,2.2,0L160.6,41c0.6-0.6,0.6-1.6,0-2.3
					C159.9,38.2,158.9,38.2,158.3,38.8"/>
			</g>
			<g>
				<defs>
					<rect id="SVGID_7_" x="6.2" width="202.5" height="213.8"/>
				</defs>
				<clipPath id="SVGID_8_">
					<use xlink:href="#SVGID_7_"  style="overflow:visible;"/>
				</clipPath>
				<path class="st5" d="M160.5,173.6l-29.1-30.4c-0.6-0.6-1.6-0.6-2.2,0c-0.6,0.6-0.6,1.7,0,2.3l29.1,30.4c0.6,0.6,1.6,0.6,2.2,0
					C161.1,175.3,161.1,174.3,160.5,173.6"/>
			</g>
			<g>
				<defs>
					<rect id="SVGID_9_" x="6.2" width="202.5" height="213.8"/>
				</defs>
				<clipPath id="SVGID_10_">
					<use xlink:href="#SVGID_9_"  style="overflow:visible;"/>
				</clipPath>
				<path class="st6" d="M58,176.3l29.4-30.8c0.6-0.6,0.6-1.6,0-2.3c-0.6-0.6-1.6-0.6-2.2,0L55.9,174c-0.6,0.6-0.6,1.6,0,2.3
					C56.5,176.9,57.5,176.9,58,176.3"/>
			</g>
		</g>
		<text transform="matrix(1 0 0 1 29.0801 131.7705)" class="st7 st8 st9">A</text>
		<text transform="matrix(1 0 0 1 46.4801 131.7705)" class="st7 st8 st9">N</text>
		<text transform="matrix(1 0 0 1 64.4801 131.7705)" class="st7 st8 st9">TIBI</text>
		<text transform="matrix(1 0 0 1 111.1801 131.7705)" class="st7 st8 st9">O</text>
		<text transform="matrix(1 0 0 1 129.6801 131.7705)" class="st7 st8 st9">TI</text>
		<text transform="matrix(1 0 0 1 152.2801 131.7705)" class="st7 st8 st9">C</text>
		<text transform="matrix(1 0 0 1 169.6801 131.7705)" class="st7 st8 st9">A</text>
		<text transform="matrix(1 0 0 1 33.8936 97.4482)" class="st7 st10 st9">B</text>
		<text transform="matrix(1 0 0 1 48.3936 97.4482)" class="st7 st10 st9">E</text>
		<text transform="matrix(1 0 0 1 62.1936 97.4482)" class="st7 st10 st9">V</text>
		<text transform="matrix(1 0 0 1 77.3936 97.4482)" class="st7 st10 st9">A</text>
		<text transform="matrix(1 0 0 1 93.0936 97.4482)" class="st7 st10 st9">T G</text>
		<text transform="matrix(1 0 0 1 131.3936 97.4482)" class="st7 st10 st9">EEN</text>
		<text transform="matrix(1 0 0 1 177.2936 97.4482)" class="st7 st10 st9"> </text>
	</g>
	<g id="deu" class="st1">
		<g>
			<g>
				<defs>
					<rect id="SVGID_11_" x="6.6" y="0.7" width="202.2" height="213.5"/>
				</defs>
				<clipPath id="SVGID_12_">
					<use xlink:href="#SVGID_11_"  style="overflow:visible;"/>
				</clipPath>
				<path class="st11" d="M173.8,42.4c-18.1-18.1-41.9-27.2-65.6-27.2s-47.5,9.1-65.6,27.2S15.4,84.2,15.4,108s9.1,47.5,27.2,65.6
					s41.9,27.2,65.6,27.2s47.5-9.1,65.6-27.2C192,155.5,201,131.7,201,108C201,84.2,192,60.5,173.8,42.4 M170.9,170.7
					c-17.3,17.3-40,26-62.7,26s-45.4-8.7-62.7-26s-26-40-26-62.7s8.7-45.4,26-62.7s40-26,62.7-26s45.4,8.6,62.7,26
					c17.3,17.3,26,40,26,62.7S188.2,153.4,170.9,170.7"/>
			</g>
			<g>
				<defs>
					<rect id="SVGID_13_" x="6.6" y="0.7" width="202.2" height="213.5"/>
				</defs>
				<clipPath id="SVGID_14_">
					<use xlink:href="#SVGID_13_"  style="overflow:visible;"/>
				</clipPath>
				<path class="st12" d="M56.2,42.1l29.1,30.3c0.6,0.6,1.6,0.6,2.2,0s0.6-1.7,0-2.3L58.4,39.8c-0.6-0.6-1.6-0.6-2.2,0
					S55.6,41.4,56.2,42.1"/>
			</g>
			<g>
				<defs>
					<rect id="SVGID_15_" x="6.6" y="0.7" width="202.2" height="213.5"/>
				</defs>
				<clipPath id="SVGID_16_">
					<use xlink:href="#SVGID_15_"  style="overflow:visible;"/>
				</clipPath>
				<path class="st13" d="M158.4,39.4l-29.3,30.7c-0.6,0.6-0.6,1.6,0,2.3c0.6,0.6,1.6,0.6,2.2,0l29.3-30.7c0.6-0.6,0.6-1.6,0-2.3
					C160,38.8,159,38.8,158.4,39.4"/>
			</g>
			<g>
				<defs>
					<rect id="SVGID_17_" x="6.6" y="0.7" width="202.2" height="213.5"/>
				</defs>
				<clipPath id="SVGID_18_">
					<use xlink:href="#SVGID_17_"  style="overflow:visible;"/>
				</clipPath>
				<path class="st14" d="M160.6,174l-29.1-30.3c-0.6-0.6-1.6-0.6-2.2,0c-0.6,0.6-0.6,1.7,0,2.3l29.1,30.3c0.6,0.6,1.6,0.6,2.2,0
					S161.2,174.6,160.6,174"/>
			</g>
			<g>
				<defs>
					<rect id="SVGID_19_" x="6.6" y="0.7" width="202.2" height="213.5"/>
				</defs>
				<clipPath id="SVGID_20_">
					<use xlink:href="#SVGID_19_"  style="overflow:visible;"/>
				</clipPath>
				<path class="st15" d="M58.3,176.7L87.6,146c0.6-0.6,0.6-1.6,0-2.3c-0.6-0.6-1.6-0.6-2.2,0l-29.3,30.7c-0.6,0.6-0.6,1.6,0,2.3
					C56.8,177.3,57.7,177.3,58.3,176.7"/>
			</g>
		</g>
		<text transform="matrix(1 0 0 1 29.6177 115.9307)" class="st7 st8 st16">A</text>
		<text transform="matrix(1 0 0 1 46.9177 115.9307)" class="st7 st8 st16">N</text>
		<text transform="matrix(1 0 0 1 65.0177 115.9307)" class="st7 st8 st16">TIBI</text>
		<text transform="matrix(1 0 0 1 111.6177 115.9307)" class="st7 st8 st16">O</text>
		<text transform="matrix(1 0 0 1 130.0177 115.9307)" class="st7 st8 st16">TIK</text>
		<text transform="matrix(1 0 0 1 169.5177 115.9307)" class="st7 st8 st16">A</text>
		<text transform="matrix(1 0 0 1 63.603 91.6279)" class="st7 st10 st17">KE</text>
		<text transform="matrix(1 0 0 1 88.903 91.6279)" class="st7 st10 st17">I</text>
		<text transform="matrix(1 0 0 1 96.203 91.6279)" class="st7 st10 st17">N</text>
		<text transform="matrix(1 0 0 1 111.103 91.6279)" class="st7 st10 st17"> </text>
		<text transform="matrix(1 0 0 1 115.903 91.6279)" class="st7 st10 st17">M</text>
		<text transform="matrix(1 0 0 1 133.003 91.6279)" class="st7 st10 st17">I</text>
		<text transform="matrix(1 0 0 1 140.303 91.6279)" class="st7 st10 st17">T</text>
		<text transform="matrix(1 0 0 1 25.146 134.0957)" class="st7 st10 st18">VE</text>
		<text transform="matrix(1 0 0 1 46.446 134.0957)" class="st7 st10 st18">R</text>
		<text transform="matrix(1 0 0 1 56.946 134.0957)" class="st7 st10 st18">S</text>
		<text transform="matrix(1 0 0 1 66.346 134.0957)" class="st7 st10 st18">E</text>
		<text transform="matrix(1 0 0 1 75.746 134.0957)" class="st7 st10 st18">T</text>
		<text transform="matrix(1 0 0 1 86.146 134.0957)" class="st7 st10 st18">Z</text>
		<text transform="matrix(1 0 0 1 96.446 134.0957)" class="st7 st10 st18">T</text>
		<text transform="matrix(1 0 0 1 106.846 134.0957)" class="st7 st10 st18">E</text>
		<text transform="matrix(1 0 0 1 116.346 134.0957)" class="st7 st10 st18">S </text>
		<text transform="matrix(1 0 0 1 129.546 134.0957)" class="st7 st10 st18">F</text>
		<text transform="matrix(1 0 0 1 138.746 134.0957)" class="st7 st10 st18">U</text>
		<text transform="matrix(1 0 0 1 150.246 134.0957)" class="st7 st10 st18">TT</text>
		<text transform="matrix(1 0 0 1 171.146 134.0957)" class="st7 st10 st18">E</text>
		<text transform="matrix(1 0 0 1 180.846 134.0957)" class="st7 st10 st18">R</text>
	</g>
</g>
<g id="Layer_2">
	<path d="M174.4,41.2C137.7,4.5,78,4.4,41.2,41.2s-36.8,96.4,0,133.2s96.4,36.8,133.2,0c17.7-17.7,27.6-41.6,27.6-66.6
		C202,82.9,192.1,58.9,174.4,41.2z M171.5,171.5c-35.1,35.1-92.1,35.2-127.3,0S9,79.4,44.2,44.2s92.1-35.2,127.3,0
		c16.9,16.9,26.4,39.8,26.4,63.6C197.8,131.7,188.3,154.6,171.5,171.5z"/>
	<path class="st19" d="M87.2,138.5l-32.4,32.4c-0.7,0.7-0.7,1.8,0,2.5c0.7,0.7,1.8,0.7,2.5,0c0,0,0,0,0,0l32.4-32.4
		c0.7-0.7,0.7-1.8,0-2.5C89,137.8,87.9,137.8,87.2,138.5L87.2,138.5"/>
	<path class="st19" d="M55.1,45l33.4,33.4c0.7,0.7,1.8,0.7,2.5,0c0.7-0.7,0.7-1.8,0-2.5L57.6,42.5c-0.7-0.7-1.8-0.7-2.5,0
		C54.4,43.2,54.4,44.4,55.1,45"/>
	<path class="st19" d="M126.5,141.6l31.4,31.4c0.7,0.7,1.8,0.8,2.5,0.2c0.7-0.7,0.8-1.8,0.2-2.5c-0.1-0.1-0.1-0.1-0.2-0.2L129,139.1
		c-0.7-0.7-1.8-0.7-2.5,0C125.8,139.7,125.8,140.9,126.5,141.6C126.5,141.6,126.5,141.6,126.5,141.6"/>
	<path class="st19" d="M158.4,42.2l-34.3,34.3c-0.8,0.6-0.9,1.8-0.2,2.5c0.6,0.8,1.8,0.9,2.5,0.2c0.1-0.1,0.2-0.2,0.2-0.2L161,44.7
		c0.7-0.7,0.6-1.9-0.2-2.5C160.1,41.6,159.1,41.6,158.4,42.2"/>
	<path class="st19" d="M79,87.9c-1.4,0-2.6,0-3.6,0c-1,0-2,0.1-2.8,0.1v-1.6l1.3,0.1h1.4c0.5,0,1.1,0,1.7,0h9.4c1.4,0,2.6,0,3.6,0
		c1,0,2-0.1,2.8-0.1V88C92,88,91,87.9,90,87.9c-1,0-2.3,0-3.6,0h-2.2l-0.5,0.9c-0.1,0.3-0.3,0.6-0.5,0.9V102c0,0.6,0,1.2,0,1.8
		c0,0.6,0.1,1.1,0.1,1.7h-1.8c0.1-0.6,0.1-1.2,0.2-1.7c0-0.5,0-1.1,0-1.8v-9.9c-0.5,0.7-1,1.3-1.5,1.9c-0.6,0.6-1.2,1.2-1.9,1.8
		c-0.7,0.6-1.5,1.2-2.3,1.8c-0.9,0.6-1.8,1.2-2.9,1.9c-0.1-0.3-0.3-0.6-0.5-0.8c-0.2-0.2-0.5-0.5-0.8-0.6c1.3-0.6,2.6-1.4,3.8-2.1
		c1-0.7,2-1.4,3-2.3c0.8-0.8,1.6-1.6,2.3-2.5c0.7-0.9,1.2-1.9,1.7-3L79,87.9z M91.3,99.6c-1-1.2-2-2.4-3-3.5
		c-1.1-1.2-2.4-2.3-3.6-3.3l1.1-1.1c1.5,1.3,2.8,2.4,3.9,3.5c1.1,1.1,2.1,2.1,2.9,3.2L91.3,99.6z"/>
	<path class="st19" d="M99.9,94.5c-0.3-0.3-0.6-0.5-1-0.7s-0.7-0.5-1.1-0.7c-0.3-0.2-0.7-0.4-1.1-0.6L95.9,92l0.7-1.3
		c0.3,0.2,0.7,0.4,1.1,0.6l1.1,0.7c0.4,0.2,0.7,0.4,1.1,0.7l0.9,0.6L99.9,94.5z M101.4,97.8c-0.2,0.4-0.5,0.9-0.7,1.5
		c-0.3,0.6-0.6,1.2-0.8,1.9c-0.3,0.7-0.6,1.4-0.9,2.1c-0.3,0.7-0.6,1.5-0.9,2.2l-1.6-0.8c0.4-0.5,0.7-1,1-1.5
		c0.4-0.6,0.7-1.3,1.1-2.1c0.4-0.7,0.7-1.5,1-2.3c0.3-0.7,0.5-1.4,0.6-2.1c0.2,0.2,0.4,0.5,0.6,0.6
		C100.9,97.5,101.1,97.7,101.4,97.8z M100.9,88.3c-0.2-0.2-0.5-0.4-0.8-0.6L99,87L98,86.2c-0.4-0.2-0.7-0.4-0.9-0.6l0.8-1.1
		c0.3,0.2,0.6,0.3,0.9,0.6l1.1,0.7l1.1,0.7c0.3,0.2,0.6,0.4,0.8,0.6L100.9,88.3z M107.9,86.9h-1.4h-1.1c-0.3,0-0.7,0-1,0l-1.1,0.1
		v-1.3l1.2,0.1h1.2h1.3h3.8h1.4h1.1c0.3,0,0.7,0,1.1-0.1V87l-1-0.1h-1.1h-1.4h-1.9c0,0.6-0.1,1.2-0.2,1.9c-0.1,0.6-0.3,1.1-0.5,1.6
		h5.4h1.1c0.3,0,0.6,0,0.9,0l0.8-0.1v1.4l-0.8-0.1c-0.3,0-0.6,0-0.9,0h-1.1h-1.4h-0.9c0.5,0.5,0.9,1.1,1.4,1.5
		c0.4,0.3,0.9,0.6,1.4,0.9c0.5,0.3,1,0.6,1.5,0.9c0.6,0.2,1.1,0.4,1.7,0.6c-0.2,0.2-0.3,0.5-0.4,0.7c-0.1,0.2-0.2,0.5-0.3,0.7
		c-1.4-0.6-2.6-1.4-3.8-2.4c-1-0.9-1.9-1.9-2.6-3.1H108c-0.6,1.2-1.5,2.2-2.5,3.1c-1.1,0.9-2.3,1.8-3.5,2.5
		c-0.1-0.2-0.3-0.4-0.5-0.6c-0.2-0.2-0.5-0.3-0.8-0.5c1.3-0.4,2.4-1,3.5-1.8c0.9-0.7,1.7-1.6,2.3-2.5h-0.9h-1.4h-1.1
		c-0.3,0-0.6,0-0.9,0l-0.8,0.1v-1.4l0.8,0.1c0.3,0,0.6,0,0.9,0h1.1h2.8C107.5,89.2,107.8,88.1,107.9,86.9z M106.1,98.7
		c-0.2,0.1-0.3,0.2-0.4,0.3c-0.2,0.2-0.3,0.4-0.5,0.6c-0.3,0.5-0.7,1.1-1.1,1.6s-0.9,1.3-1.5,2c-0.3-0.4-0.8-0.7-1.3-0.8
		c0.9-0.7,1.6-1.6,2.2-2.5c0.5-0.8,0.9-1.7,1.1-2.6c0.4,0.3,0.9,0.6,1.4,0.7c0.2,0.1,0.3,0.2,0.3,0.3S106.3,98.6,106.1,98.7z
		 M109.3,95c-0.2,0.1-0.3,0.2-0.3,0.4c-0.1,0.2-0.1,0.4-0.1,0.6v7.8c0,0.3,0,0.6-0.1,0.8c-0.1,0.3-0.3,0.5-0.5,0.6
		c-0.3,0.2-0.7,0.3-1.1,0.3c-0.6,0.1-1.2,0.1-1.8,0.1c0.1-0.3,0.1-0.6,0-0.9c-0.1-0.3-0.3-0.6-0.5-0.8c0.7,0.2,1.4,0.3,2.1,0.2
		c0.4-0.1,0.6-0.5,0.6-0.9v-5.1c0-0.8,0-1.5-0.1-2.1c0-0.5-0.1-1-0.2-1.5c0.3,0.1,0.6,0.1,0.9,0.1c0.3,0,0.5,0,0.8,0
		c0.2,0,0.4,0,0.4,0.1C109.5,94.8,109.4,94.9,109.3,95L109.3,95z M111.9,103.4c-0.2-0.9-0.5-1.8-0.8-2.7c-0.3-0.8-0.7-1.7-1.2-2.4
		l1.1-0.6c0.3,0.4,0.5,0.9,0.7,1.3s0.4,0.8,0.6,1.2c0.2,0.4,0.3,0.8,0.5,1.3c0.2,0.5,0.3,0.9,0.5,1.5L111.9,103.4z M115.4,103.1
		c-0.2-0.6-0.4-1.1-0.6-1.6c-0.2-0.5-0.4-0.9-0.6-1.4c-0.2-0.4-0.5-0.9-0.8-1.3s-0.6-0.9-1-1.4l1.1-0.7c0.7,0.9,1.3,1.9,1.8,2.9
		c0.5,1,1.1,2,1.5,3L115.4,103.1z"/>
	<path class="st19" d="M127.5,90.3c0,1.8-0.1,3.5-0.3,4.9c-0.1,1.4-0.4,2.7-0.8,4c-0.3,1.2-0.8,2.3-1.4,3.3c-0.6,1-1.3,1.9-2.2,2.7
		c-0.2-0.3-0.4-0.5-0.7-0.6c-0.3-0.1-0.6-0.2-0.9-0.3c0.9-0.6,1.6-1.3,2.3-2.1c0.7-0.9,1.2-1.9,1.5-2.9c0.4-1.3,0.7-2.6,0.8-3.9
		c0.2-1.7,0.3-3.5,0.3-5.2h-1.4h-1.1h-0.8l-0.7,0.1v-1.5l0.8,0.1h0.8h1.1h1.4c0-0.7,0-1.3,0-1.7c0-0.5,0-0.9-0.1-1.2
		c-0.1-0.3-0.1-0.6-0.1-0.9c0-0.2-0.1-0.4-0.1-0.6c0.6,0.2,1.3,0.2,1.9,0.2c0.2,0,0.3,0.1,0.4,0.2c0,0.1,0,0.3-0.2,0.5
		c-0.1,0.1-0.2,0.2-0.2,0.3c-0.1,0.2-0.1,0.4-0.1,0.6c0,0.4,0,0.7,0,1.1V89h1.5h1.2h1l0.9-0.1l-0.4,11.3c0,0.8-0.1,1.5-0.2,2.3
		c-0.1,0.5-0.3,0.9-0.6,1.3c-0.3,0.3-0.8,0.6-1.2,0.7c-0.7,0.2-1.4,0.3-2.1,0.3c0-0.2,0-0.3,0-0.5c0-0.1-0.1-0.3-0.1-0.4
		c-0.1-0.1-0.1-0.3-0.2-0.4c-0.1-0.2-0.2-0.3-0.4-0.5c0.6,0,1.2,0,1.9,0c0.4,0,0.8-0.2,1.1-0.4c0.3-0.3,0.4-0.6,0.4-1
		c0.1-0.6,0.1-1.2,0.1-1.8l0.3-9.5L127.5,90.3z M135.2,104.7h-1.5c0-0.4,0.1-0.7,0.1-1.1c0-0.3,0-0.6,0-0.8c0-0.2,0-0.5,0-0.7
		s0-0.5,0-0.8V89.8c0-0.5,0-0.8,0-1.1c0-0.3-0.1-0.6-0.1-0.9c0.7,0.1,1.4,0.1,1.9,0.1c0.6,0,1.2,0,1.8,0s1.2,0,1.8,0
		c0.6,0,1.2-0.1,1.9-0.1c-0.1,0.3-0.1,0.5-0.1,0.8c0,0.3,0,0.7,0,1.2V101c0,0.6,0,1.1,0,1.6s0.1,1.1,0.1,1.7h-1.5v-1.9h-4.4
		L135.2,104.7z M139.6,89.2h-4.4v12.1h4.4V89.2z"/>
	<path class="st19" d="M87.9,124.5l-0.7,1.5l-0.9,1.9c-0.3,0.7-0.6,1.4-0.9,2.1c-0.3,0.7-0.6,1.5-1,2.2l-1.6-0.8
		c0.3-0.4,0.6-0.9,1-1.5c0.4-0.6,0.8-1.3,1.1-2.1c0.3-0.8,0.7-1.5,1-2.2c0.3-0.6,0.5-1.3,0.7-2c0.2,0.2,0.4,0.4,0.6,0.6
		C87.4,124.3,87.6,124.4,87.9,124.5z M86.8,121.5c-0.3-0.3-0.6-0.5-0.8-0.7c-0.3-0.2-0.6-0.5-1-0.7c-0.3-0.2-0.7-0.5-1.1-0.7
		c-0.4-0.2-0.7-0.4-1.1-0.6l0.8-1.1l1.1,0.6l1.1,0.7l1,0.6c0.3,0.2,0.6,0.4,0.8,0.6L86.8,121.5z M87.8,116.2c-0.5-0.5-1-1-1.6-1.4
		c-0.6-0.5-1.2-0.9-1.9-1.3l0.8-1.1l1.1,0.7c0.3,0.2,0.6,0.4,0.9,0.6c0.3,0.2,0.6,0.4,0.8,0.6l0.8,0.7L87.8,116.2z M91.3,126.8
		c-0.1,0.6-0.2,1.1-0.3,1.7c-0.1,0.5-0.3,0.9-0.5,1.4c-0.2,0.5-0.4,0.9-0.7,1.3c-0.3,0.5-0.6,0.9-1,1.4c-0.3-0.4-0.8-0.7-1.2-0.8
		c0.4-0.5,0.9-1,1.2-1.5c0.3-0.5,0.6-1,0.8-1.6c0.2-0.6,0.3-1.3,0.4-1.9c0.1-0.7,0.1-1.6,0.1-2.7l-1.2,0.1l-1.1,0.1v-1.3
		c0.5,0.1,1.1,0.1,1.7,0.1c0.7,0,1.4,0,2.4,0l-0.5-0.7c-0.2-0.3-0.4-0.5-0.7-0.8L92,121c0.2,0.2,0.3,0.4,0.4,0.6l0.3,0.5
		c0.1,0.1,0.2,0.3,0.3,0.5s0.2,0.3,0.3,0.6c0.7,0,1.3,0,1.9-0.1c0.5-0.1,1.1-0.1,1.4-0.1v1.3c-0.5-0.1-1.1-0.1-1.6-0.1
		c-0.5,0-1,0-1.3,0h-2.2c0,0.6,0,1.2-0.1,1.7h2.5c0.4,0,0.7,0,1,0c0.3,0,0.6-0.1,0.9-0.2l-0.2,3.6c0,0.3-0.1,0.6-0.2,1
		c-0.1,0.3-0.3,0.5-0.5,0.6c-0.3,0.2-0.6,0.4-1,0.5c-0.4,0.1-1,0.2-1.6,0.4c0-0.3-0.1-0.5-0.2-0.8c-0.1-0.3-0.3-0.5-0.5-0.7
		c0.7,0.1,1.4,0.1,2.1-0.1c0.4-0.1,0.7-0.5,0.7-1l0.1-2.2L91.3,126.8z M90.9,114.8c0.4-0.9,0.8-1.8,0.9-2.7c0.2,0.1,0.5,0.2,0.8,0.3
		c0.3,0.1,0.5,0.1,0.8,0.2c0.2,0,0.3,0.1,0.3,0.2c0,0.1-0.1,0.2-0.3,0.3c-0.2,0.1-0.4,0.2-0.5,0.4c-0.3,0.4-0.6,0.9-0.8,1.3h1.1
		c0.6,0,1.2,0,1.6,0c0.3,0,0.6,0,0.9-0.1c0,0.4-0.1,0.7-0.1,1.1c0,0.4,0,0.7,0,1.1v2c0,0.4,0,0.9,0,1.3c0,0.4,0,0.7,0.1,1
		c-0.4-0.1-0.8-0.1-1.1-0.1h-2.1h-2.1c-0.4,0-0.8,0-1.1,0.1c0-0.2,0-0.6,0.1-0.9c0.1-0.4,0-0.8,0-1.3v-2c0-0.5,0-0.9,0-1.2
		s0-0.7-0.1-0.9c0.2,0,0.5,0.1,0.7,0.1L90.9,114.8z M94.3,115.8h-4.1v1.6h4L94.3,115.8z M94.3,118.4h-4.1v1.5h4L94.3,118.4z
		 M98.3,117.3l-0.7,1.7c-0.2,0.6-0.4,1.1-0.6,1.5c-0.2-0.1-0.4-0.3-0.6-0.3c-0.2-0.1-0.5-0.2-0.8-0.2c1.5-2.5,2.4-5.3,2.6-8.2
		c0.3,0.1,0.6,0.2,0.8,0.3c0.3,0.1,0.5,0.1,0.8,0.2c0.2,0,0.3,0,0.3,0.1c0,0.1-0.1,0.2-0.3,0.4c-0.2,0.1-0.3,0.3-0.3,0.5
		c-0.1,0.3-0.2,0.6-0.3,0.8c-0.1,0.3-0.2,0.6-0.3,1c-0.1,0.3-0.2,0.7-0.3,1.1h3.6h0.7h0.5c0.1,0,0.3,0,0.4-0.1v1.4
		c-0.2,0-0.4-0.1-0.7-0.1c-0.3,0-0.6,0-0.9,0c0,2.1-0.2,4.1-0.6,6.1c-0.2,1.4-0.7,2.8-1.3,4.1c0.5,0.9,1,1.7,1.7,2.4
		c0.6,0.6,1.4,1.2,2.2,1.6c-0.6,0.3-1,0.7-1.3,1.3c-0.7-0.5-1.3-1.1-1.8-1.8c-0.6-0.7-1.1-1.4-1.5-2.2c-0.5,0.7-1.1,1.4-1.8,2
		c-0.8,0.7-1.6,1.4-2.5,2c-0.1-0.2-0.3-0.4-0.5-0.6c-0.3-0.2-0.5-0.3-0.8-0.5c0.6-0.3,1.2-0.6,1.6-1c0.4-0.3,0.9-0.6,1.3-1
		c0.4-0.3,0.7-0.7,1.1-1.1c0.3-0.4,0.6-0.9,0.9-1.4c-0.4-0.9-0.8-1.9-1.1-2.8c-0.4-1.3-0.7-2.6-0.9-3.9l1.3-0.2
		c0,0.5,0.1,1.1,0.2,1.5c0.1,0.4,0.1,0.9,0.3,1.3c0.1,0.4,0.2,0.8,0.4,1.3s0.4,0.9,0.6,1.5c0.4-1.1,0.7-2.3,0.8-3.6
		c0.2-1.8,0.4-3.5,0.4-5.3L98.3,117.3z"/>
	<path class="st19" d="M119.3,115h-2.8h-2.1l-1.7,0.1c-0.5,0-1.1,0-1.5,0.1v-1.5c0.5,0,1,0.1,1.5,0.1l1.7,0.1c0.6,0,1.4,0,2.1,0h2.8
		c0-0.4,0-0.9-0.1-1.3c-0.1-0.4-0.1-0.8-0.1-1.1l0.8,0.1c0.3,0,0.6,0,0.9,0c0.2,0,0.3,0,0.3,0.1c0,0.1,0,0.2-0.1,0.3
		c-0.2,0.2-0.4,0.6-0.3,0.9v1.1h2.8c0.8,0,1.5,0,2.1,0l1.7-0.1c0.5,0,1-0.1,1.5-0.1v1.5c-0.5,0-1-0.1-1.5-0.1l-1.7-0.2h-2.1h-2.7
		v1.5c1.5,0,2.8,0,4,0s2.2-0.1,3-0.1v1.4c-0.8-0.1-1.8-0.1-3-0.1c-1.2,0-2.6,0-4,0v1.5h3.1h2.5l2-0.1c0.6,0,1.2-0.1,1.7-0.1v1.5
		l-1.8-0.1c-0.6,0-1.3,0-2.1-0.1c-0.8-0.1-1.7,0-2.8,0h-3.8c0.1,0.1,0.3,0.2,0.5,0.3c0.2,0.1,0.3,0.2,0.3,0.3c0,0.1-0.2,0.2-0.5,0.2
		h-0.2c-0.2,0.1-0.4,0.1-0.5,0.2c-0.3,0.1-0.6,0.3-1.1,0.5l-2,0.9l5.4-0.2c1-0.5,1.7-0.8,2.1-1.1c0.4-0.2,0.7-0.5,1-0.8
		c0.2,0.2,0.4,0.4,0.6,0.5l0.6,0.4c0.2,0.1,0.3,0.2,0.3,0.4c0,0.1-0.1,0.2-0.3,0.2c-0.3,0-0.6,0.1-0.8,0.2c-0.7,0.2-1.3,0.5-1.9,0.8
		c-0.7,0.3-1.7,0.8-2.8,1.3s-2.4,1.1-3.8,1.6l9.3-0.3c-0.2-0.2-0.4-0.5-0.7-0.7c-0.2-0.2-0.4-0.4-0.7-0.6l1.1-0.7l1,0.9l1.1,1.1
		l0.9,1.1l0.8,0.9l-1.2,0.9c-0.2-0.3-0.4-0.5-0.6-0.8c-0.2-0.3-0.5-0.6-0.8-0.9l-5.5,0.2v4.9c0,0.2,0,0.4-0.1,0.6
		c-0.1,0.2-0.3,0.3-0.5,0.4c-0.4,0.1-0.8,0.2-1.1,0.3c-0.5,0.1-1.2,0.1-2,0.2c0-0.3-0.1-0.6-0.2-0.9c-0.1-0.3-0.3-0.6-0.4-0.9
		c0.6,0.1,1.1,0.1,1.5,0.2c0.3,0,0.6,0,0.9,0c0.2,0,0.3-0.1,0.5-0.2c0.1-0.1,0.1-0.3,0.1-0.4V127l-1.6,0.1c-0.6,0-1.1,0-1.8,0.1
		s-1.2,0.1-1.8,0.2s-1.1,0.1-1.6,0.2c-0.4,0-0.7,0.1-1.1,0.2c0-0.3-0.1-0.5-0.1-0.8c0-0.2-0.1-0.5-0.2-0.8c1.1-0.1,2.1-0.3,3.1-0.7
		c1.6-0.5,3.2-1.2,4.7-1.9l-3.2,0.2c-0.9,0-1.5,0.1-2.1,0.2c-0.4,0.1-0.9,0.2-1.3,0.3c0-0.2,0-0.5-0.1-0.7c-0.1-0.2-0.1-0.5-0.2-0.7
		c0.4,0,0.8-0.1,1.1-0.2c0.5-0.1,1-0.3,1.5-0.5c0.6-0.2,1.1-0.5,1.6-0.8c0.6-0.3,1.1-0.7,1.7-1.1c-3.6,0-6.4,0.1-8.3,0.2V119
		c1.1,0.1,2.4,0.1,4,0.2s3.4,0.1,5.5,0.1v-1.5h-2.5h-1.9l-1.6,0.1l-1.3,0.1v-1.4l1.3,0.1c0.5,0,1,0,1.6,0.1h1.9h2.5L119.3,115z
		 M116.1,127.6c0.1,0.2,0.3,0.3,0.5,0.5c0.1,0.1,0.3,0.3,0.6,0.4c0.2,0.2,0.3,0.2,0.2,0.3c0,0.1-0.1,0.1-0.4,0.1
		c-0.1,0-0.3,0-0.4,0.1c-0.2,0.1-0.4,0.2-0.8,0.4l-1.6,1c-0.7,0.4-1.6,1-2.8,1.7c-0.1-0.2-0.3-0.5-0.5-0.7c-0.2-0.2-0.4-0.4-0.6-0.5
		c0.5-0.2,1.1-0.5,1.7-0.8c0.6-0.3,1.2-0.6,1.7-0.9c0.5-0.3,1.1-0.6,1.5-0.9C115.4,128.2,115.8,127.9,116.1,127.6L116.1,127.6z
		 M128,132.4c-0.4-0.4-0.8-0.7-1.2-1.1c-0.4-0.3-0.8-0.7-1.2-1c-0.4-0.3-0.8-0.6-1.3-0.9s-0.9-0.6-1.5-0.8l0.8-1.1
		c0.8,0.5,1.7,1.1,2.7,1.7c0.9,0.6,1.9,1.3,2.7,1.9L128,132.4z"/>
</g>
</svg>
