<?xml version="1.0" encoding="utf-8"?>
<!-- Generator: Adobe Illustrator 23.0.4, SVG Export Plug-In . SVG Version: 6.00 Build 0)  -->
<svg version="1.1" xmlns="http://www.w3.org/2000/svg" xmlns:xlink="http://www.w3.org/1999/xlink" x="0px" y="0px"
	 viewBox="0 0 216.4 216.4" style="enable-background:new 0 0 216.4 216.4;" xml:space="preserve">
<style type="text/css">
	.st0{display:none;}
	.st1{display:inline;}
	.st2{clip-path:url(#SVGID_2_);fill:#373535;}
	.st3{fill:#373535;}
	.st4{font-family:'Graphik-Bold';}
	.st5{font-size:23.1436px;}
	.st6{font-family:'Archer-Bold';}
</style>
<g id="Antibiotics" class="st0">
	<path class="st1" d="M173,43.2c-17.9-17.9-41.3-26.8-64.8-26.8s-46.9,8.9-64.8,26.8C25.6,61.1,16.7,84.5,16.7,108s9,46.9,26.8,64.7
		c17.9,17.9,41.3,26.8,64.8,26.8s46.9-8.9,64.8-26.8c17.9-17.9,26.8-41.3,26.8-64.8C199.8,84.5,190.9,61.1,173,43.2z M170.1,169.8
		c-17.1,17.1-39.5,25.6-61.9,25.6c-22.4,0-44.8-8.5-61.8-25.6c-17.1-17.1-25.6-39.5-25.6-61.9c0-22.4,8.5-44.8,25.6-61.8
		C63.5,29,85.9,20.5,108.3,20.5S153,29,170.1,46.1c17.1,17.1,25.6,39.5,25.6,61.8C195.7,130.4,187.2,152.7,170.1,169.8z M88.2,137.8
		l-31.5,31.5c-0.7,0.7-0.7,1.8,0,2.5c0.7,0.7,1.8,0.7,2.5,0l31.5-31.5c0.7-0.7,0.7-1.8,0-2.5C90,137.1,88.9,137.1,88.2,137.8
		 M57,46.9l32.4,32.4c0.7,0.7,1.8,0.7,2.5,0s0.7-1.8,0-2.5L59.4,44.5c-0.7-0.7-1.8-0.7-2.5,0S56.3,46.2,57,46.9 M126.4,140.8
		l30.5,30.5c0.7,0.7,1.8,0.7,2.5,0c0.7-0.7,0.7-1.8,0-2.5l-30.5-30.5c-0.7-0.7-1.8-0.7-2.5,0C125.7,139,125.7,140.1,126.4,140.8
		 M157.4,44.2l-33.3,33.3c-0.7,0.7-0.7,1.8,0,2.5s1.8,0.7,2.5,0l33.3-33.3c0.7-0.7,0.7-1.8,0-2.5S158.1,43.5,157.4,44.2 M73.4,101.2
		l1.2,0V86.8h1.9v-2h-6.2v2h2.1v9.5l-8.8-11.5h-3.9v2h2v12.3h-2v2H66v-2h-2.1V88.8L73.4,101.2z M92.1,93c0-3.6-2.5-6.4-6-6.4
		c-3.5,0-6,2.7-6,6.4c0,3.6,2.5,6.4,6,6.4C89.6,99.3,92.1,96.7,92.1,93 M77.8,93c0-4.8,3.5-8.4,8.3-8.4c4.8,0,8.2,3.7,8.2,8.4
		c0,4.8-3.5,8.4-8.3,8.4C81.2,101.4,77.8,97.7,77.8,93 M98.8,101.1h6.5v-2h-2.1V86.8h3.6v2.6h2.1v-4.5H95.1v4.5h2.1v-2.6h3.6v12.4
		h-2.1L98.8,101.1L98.8,101.1z M114.6,101.1h6.4v-2h-2.2v-5h5.1v-2h-5.1v-5.3h5.4v2.3h2.2v-4.3h-11.8v2h2v12.3h-2L114.6,101.1
		L114.6,101.1z M127.7,101.1h12v-4.3h-2.1v2.3h-5.6v-5.4h5.1v-1.9h-5.1v-5.1h5.6v2.3h2.1v-4.3h-12v2h2v12.3h-2V101.1z M147.5,99.1
		c4.6,0,6.9-2.5,6.9-6.3c0-3.8-2.8-6-7.1-6h-1.8v12.3H147.5z M141.3,99.1h2V86.8h-2v-2h6.1c5.8,0,9.4,3.1,9.4,8
		c0,4.9-3.4,8.3-9.5,8.3h-6V99.1z M35.9,124.3h3.5l-1.7-6.4L35.9,124.3z M34.4,113.3h7.3l5.5,17.7h-5.9l-0.8-2.9h-5.6L34,131h-5.2
		L34.4,113.3z M48.1,131h5v-10.6L59,131h5.4v-17.7h-4.9v9.4l-5-9.4h-6.3L48.1,131L48.1,131z M70.1,131h5.7v-13.4h4.5v-4.3H65.6v4.3
		h4.5V131z M81.5,131h5.7v-17.7h-5.7V131z M96.9,127.3c1.4,0,2.1-0.7,2.1-1.9v-0.1c0-1.2-0.7-1.8-2.2-1.8h-1.7v3.8H96.9z
		 M96.8,120.2c1.4,0,1.9-0.5,1.9-1.6v-0.1c0-1.1-0.6-1.6-2-1.6h-1.7v3.2H96.8z M89.6,113.3H98c4.4,0,6,2,6,4.6v0.1
		c0,2.1-1.1,3.3-3.1,3.8c2.1,0.4,3.5,1.7,3.5,4.1v0.1c0,3.1-2,4.9-6.6,4.9h-8.3L89.6,113.3L89.6,113.3z M105.9,131h5.7v-17.7h-5.7
		V131z M126.2,122.3v-0.2c0-3-1.4-4.6-3.7-4.6c-2.2,0-3.6,1.6-3.6,4.6v0.2c0,3,1.4,4.7,3.6,4.7C124.8,126.9,126.2,125.2,126.2,122.3
		 M113.1,122.3v-0.2c0-5.5,4.2-9,9.5-9c5.4,0,9.5,3.3,9.5,8.9v0.2c0,5.5-3.8,9.2-9.6,9.2C116.6,131.4,113.1,127.7,113.1,122.3
		 M136.2,131h5.6v-13.4h4.5v-4.3h-14.6v4.3h4.5V131z M147.6,131h5.7v-17.7h-5.7V131z M154.8,122.3c0,5.4,3,9.1,9.4,9.1
		c4.7,0,8.1-2.4,8.4-7.1H167c-0.2,1.8-1.3,2.6-2.9,2.6c-2.2,0-3.4-1.6-3.4-4.6v-0.2c0-3,1.2-4.6,3.3-4.6c1.6,0,2.4,0.9,2.6,2.6h5.8
		c-0.4-4.8-3.6-7-8.4-7c-5.2,0-9.2,3.6-9.2,9L154.8,122.3 M172.6,125.4c0.1,4,2.8,6,7.8,6c4.8,0,7.3-2.7,7.3-6
		c0-3.9-2.5-5.1-6.9-5.6c-2-0.2-2.5-0.7-2.5-1.5c0-0.8,0.6-1.3,1.8-1.3c1.2,0,1.8,0.6,1.9,1.7h5.2c-0.3-3.9-2.8-5.7-7.1-5.7
		c-4.4,0-7.1,2.4-7.1,5.7c0,3.6,1.7,5.1,6.8,5.7c1.9,0.3,2.5,0.6,2.5,1.5c0,0.9-0.6,1.5-2,1.5c-1.8,0-2.4-0.9-2.5-2L172.6,125.4"/>
</g>
<g id="deu">
	<g>
		<defs>
			<rect id="SVGID_1_" x="6.2" width="202.5" height="213.8"/>
		</defs>
		<clipPath id="SVGID_2_">
			<use xlink:href="#SVGID_1_"  style="overflow:visible;"/>
		</clipPath>
		<path class="st2" d="M173.8,41.7c-18.1-18.2-42-27.2-65.7-27.2c-23.8,0-47.6,9.1-65.7,27.2C24.1,59.9,15,83.7,15,107.5
			c0,23.8,9.1,47.6,27.2,65.7c18.1,18.2,42,27.2,65.7,27.2c23.8,0,47.6-9.1,65.7-27.2c18.2-18.1,27.2-42,27.2-65.7
			C201,83.7,191.9,59.9,173.8,41.7 M170.8,170.3c-17.4,17.3-40.1,26-62.8,26c-22.7,0-45.5-8.7-62.8-26c-17.3-17.4-26-40.1-26-62.8
			c0-22.7,8.7-45.5,26-62.8c17.3-17.4,40.1-26,62.8-26c22.7,0,45.5,8.7,62.8,26c17.3,17.3,26,40.1,26,62.8
			C196.8,130.2,188.2,152.9,170.8,170.3"/>
		<path class="st2" d="M55.9,41.4L85,71.8c0.6,0.6,1.6,0.6,2.2,0c0.6-0.6,0.6-1.7,0-2.3L58.1,39.1c-0.6-0.6-1.6-0.6-2.2,0
			C55.3,39.8,55.3,40.8,55.9,41.4"/>
		<path class="st2" d="M158.3,38.8L129,69.5c-0.6,0.6-0.6,1.6,0,2.3c0.6,0.6,1.6,0.6,2.2,0l29.4-30.8c0.6-0.6,0.6-1.6,0-2.3
			C159.9,38.2,158.9,38.2,158.3,38.8"/>
		<path class="st2" d="M160.5,173.6l-29.1-30.4c-0.6-0.6-1.6-0.6-2.2,0c-0.6,0.6-0.6,1.7,0,2.3l29.1,30.4c0.6,0.6,1.6,0.6,2.2,0
			C161.1,175.3,161.1,174.3,160.5,173.6"/>
		<path class="st2" d="M58,176.3l29.4-30.8c0.6-0.6,0.6-1.6,0-2.3c-0.6-0.6-1.6-0.6-2.2,0L55.9,174c-0.6,0.6-0.6,1.6,0,2.3
			C56.5,176.9,57.5,176.9,58,176.3"/>
	</g>
	<text transform="matrix(1 0 0 1 29.0801 131.7705)"><tspan x="0" y="0" class="st3 st4 st5">A</tspan><tspan x="17.4" y="0" class="st3 st4 st5">N</tspan><tspan x="35.4" y="0" class="st3 st4 st5">TIBI</tspan><tspan x="82.1" y="0" class="st3 st4 st5">O</tspan><tspan x="100.6" y="0" class="st3 st4 st5">TI</tspan><tspan x="123.2" y="0" class="st3 st4 st5">C</tspan><tspan x="140.6" y="0" class="st3 st4 st5">A</tspan></text>
	<text transform="matrix(1 0 0 1 33.8936 97.4482)"><tspan x="0" y="0" class="st3 st6 st5">B</tspan><tspan x="14.5" y="0" class="st3 st6 st5">E</tspan><tspan x="28.3" y="0" class="st3 st6 st5">V</tspan><tspan x="43.5" y="0" class="st3 st6 st5">A</tspan><tspan x="59.2" y="0" class="st3 st6 st5">T G</tspan><tspan x="97.5" y="0" class="st3 st6 st5">EEN</tspan><tspan x="143.4" y="0" class="st3 st6 st5"> </tspan></text>
</g>
</svg>
