<?xml version="1.0" encoding="UTF-8"?>
<svg width="364px" height="78px" viewBox="0 0 364 78" version="1.1" xmlns="http://www.w3.org/2000/svg" xmlns:xlink="http://www.w3.org/1999/xlink">
    <!-- Generator: Sketch 51.3 (57544) - http://www.bohemiancoding.com/sketch -->
    <title>Group 5</title>
    <desc>Created with Sketch.</desc>
    <defs>
        <polygon id="path-1" points="0 0.271427083 46.7486619 0.271427083 46.7486619 71 0 71"></polygon>
        <polygon id="path-3" points="0.468525 0.271575 47.999025 0.271575 47.999025 71 0.468525 71"></polygon>
    </defs>
    <g id="Page-1" stroke="none" stroke-width="1" fill="none" fill-rule="evenodd">
        <g id="Apple-TV" transform="translate(-202.000000, -6490.000000)">
            <g id="04-copy-2" transform="translate(-2.000000, 6294.000000)">
                <g id="Group-2">
                    <g id="Group-5" transform="translate(204.000000, 196.000000)">
                        <path d="M94.84,26.286 L89.672,26.286 L89.672,3.904 L104.264,3.904 L104.264,8.388 L94.84,8.388 L94.84,13.746 L103.086,13.746 L103.086,18.04 L94.84,18.04 L94.84,26.286 Z M115.398,22.828 C116.766,22.828 117.906,22.296 118.476,20.434 L122.808,21.916 C121.896,25.488 118.742,26.742 115.284,26.742 C110.268,26.742 106.81,23.436 106.81,17.774 C106.81,11.732 110.078,8.312 115.36,8.312 C120.338,8.312 122.77,11.58 122.77,16.102 C122.77,16.862 122.694,17.66 122.542,18.382 L111.712,18.382 C111.826,21.08 113.08,22.828 115.398,22.828 Z M111.864,15.57 L117.906,15.57 C117.944,15.342 117.944,15.19 117.944,14.962 C117.944,13.328 116.994,12.074 115.17,12.074 C113.27,12.074 112.054,13.518 111.864,15.57 Z M133.942,22.828 C135.31,22.828 136.45,22.296 137.02,20.434 L141.352,21.916 C140.44,25.488 137.286,26.742 133.828,26.742 C128.812,26.742 125.354,23.436 125.354,17.774 C125.354,11.732 128.622,8.312 133.904,8.312 C138.882,8.312 141.314,11.58 141.314,16.102 C141.314,16.862 141.238,17.66 141.086,18.382 L130.256,18.382 C130.37,21.08 131.624,22.828 133.942,22.828 Z M130.408,15.57 L136.45,15.57 C136.488,15.342 136.488,15.19 136.488,14.962 C136.488,13.328 135.538,12.074 133.714,12.074 C131.814,12.074 130.598,13.518 130.408,15.57 Z M152.752,21.916 L152.486,26.172 C151.498,26.438 150.548,26.628 149.56,26.628 C147.014,26.628 144.696,25.45 144.696,22.144 L144.696,0.902 L149.788,0.902 L149.788,20.662 C149.788,21.764 150.472,22.182 151.384,22.182 C151.84,22.182 152.296,22.106 152.752,21.916 Z M175.248,21.308 L176.122,25.602 C174.64,26.362 172.816,26.742 170.726,26.742 C167.23,26.742 164.95,25.108 164.95,21.08 L164.95,12.644 L162.404,12.644 L162.404,8.73 L164.988,8.73 L164.988,5.006 L170.08,4.398 L170.08,8.73 L175.286,8.73 L175.286,12.644 L170.042,12.644 L170.042,19.94 C170.042,21.802 170.764,22.41 172.17,22.41 C173.272,22.41 174.222,22.03 175.248,21.308 Z M184.178,0.902 L184.178,12.074 C185.09,9.49 186.952,8.312 189.65,8.312 C192.348,8.312 194.818,9.908 194.818,13.86 L194.818,26.286 L189.726,26.286 L189.726,15.76 C189.726,13.822 189.194,12.568 187.37,12.568 C185.736,12.568 184.178,13.48 184.178,16.596 L184.178,26.286 L179.086,26.286 L179.086,0.902 L184.178,0.902 Z M206.864,22.828 C208.232,22.828 209.372,22.296 209.942,20.434 L214.274,21.916 C213.362,25.488 210.208,26.742 206.75,26.742 C201.734,26.742 198.276,23.436 198.276,17.774 C198.276,11.732 201.544,8.312 206.826,8.312 C211.804,8.312 214.236,11.58 214.236,16.102 C214.236,16.862 214.16,17.66 214.008,18.382 L203.178,18.382 C203.292,21.08 204.546,22.828 206.864,22.828 Z M203.33,15.57 L209.372,15.57 C209.41,15.342 209.41,15.19 209.41,14.962 C209.41,13.328 208.46,12.074 206.636,12.074 C204.736,12.074 203.52,13.518 203.33,15.57 Z M233.806,22.828 C235.174,22.828 236.314,22.296 236.884,20.434 L241.216,21.916 C240.304,25.488 237.15,26.742 233.692,26.742 C228.676,26.742 225.218,23.436 225.218,17.774 C225.218,11.732 228.486,8.312 233.768,8.312 C238.746,8.312 241.178,11.58 241.178,16.102 C241.178,16.862 241.102,17.66 240.95,18.382 L230.12,18.382 C230.234,21.08 231.488,22.828 233.806,22.828 Z M230.272,15.57 L236.314,15.57 C236.352,15.342 236.352,15.19 236.352,14.962 C236.352,13.328 235.402,12.074 233.578,12.074 C231.678,12.074 230.462,13.518 230.272,15.57 Z M259.874,12.15 C260.824,9.528 262.952,8.312 265.574,8.312 C268.424,8.312 270.59,9.908 270.59,13.822 L270.59,26.286 L265.498,26.286 L265.498,15.76 C265.498,13.822 264.966,12.568 263.18,12.568 C261.622,12.568 260.292,13.556 260.292,16.596 L260.292,26.286 L255.2,26.286 L255.2,15.76 C255.2,13.822 254.706,12.568 252.882,12.568 C251.286,12.568 249.994,13.556 249.994,16.634 L249.994,26.286 L244.902,26.286 L244.902,8.73 L249.234,8.73 L249.842,12.112 C250.792,9.452 252.654,8.312 255.238,8.312 C257.48,8.312 259.418,9.224 259.874,12.15 Z M280.242,16.52 L280.242,19.104 C280.242,22.106 282.104,23.094 283.586,23.094 C285.752,23.094 287.576,21.27 287.576,17.546 C287.576,13.898 286.17,12.378 283.928,12.378 C282.066,12.378 280.242,13.86 280.242,16.52 Z M280.014,23.74 L278.76,26.286 L275.188,26.286 L275.188,0.902 L280.28,0.902 L280.28,11.998 C281.23,9.338 283.434,8.312 285.942,8.312 C290.236,8.312 292.706,11.504 292.706,17.09 C292.706,22.866 289.97,26.742 285.22,26.742 C282.218,26.742 280.546,25.412 280.014,23.74 Z M308.476,8.35 L307.906,13.974 C307.26,13.746 306.728,13.67 305.93,13.67 C303.916,13.67 301.446,14.658 301.446,18.268 L301.446,26.286 L296.354,26.286 L296.354,8.73 L300.762,8.73 L301.37,13.556 C302.13,10.516 303.84,8.084 308.476,8.35 Z M319.914,20.776 L319.914,18.99 C316.342,18.876 315.088,19.826 315.088,21.384 C315.088,22.41 315.81,23.132 317.026,23.132 C318.356,23.132 319.914,22.486 319.914,20.776 Z M324.93,14.126 L324.93,20.966 C324.93,22.144 325.424,22.562 326.222,22.562 C326.64,22.562 326.982,22.448 327.324,22.296 L327.324,25.982 C326.602,26.438 325.652,26.628 324.436,26.628 C322.194,26.628 320.826,25.754 320.256,23.854 C319.458,26.02 317.558,26.742 315.164,26.742 C312.048,26.742 309.996,24.918 309.996,21.916 C309.996,18.002 313.15,15.874 319.914,16.254 L319.914,14.582 C319.914,13.062 319.268,12.15 317.862,12.15 C316.456,12.15 315.734,13.1 315.658,14.734 L310.604,13.784 C310.87,10.06 314.024,8.312 318.052,8.312 C322.422,8.312 324.93,10.212 324.93,14.126 Z M340.624,20.13 L345.108,21.574 C344.462,25.108 341.422,26.742 337.698,26.742 C332.606,26.742 329.224,23.436 329.224,17.584 C329.224,11.732 332.606,8.312 337.736,8.312 C341.916,8.312 344.576,10.554 344.842,14.088 L340.548,15.266 C340.282,13.404 339.408,12.302 337.698,12.302 C335.418,12.302 334.164,14.316 334.164,17.508 C334.164,20.852 335.494,22.828 337.774,22.828 C339.142,22.828 340.168,22.144 340.624,20.13 Z M355.672,22.828 C357.04,22.828 358.18,22.296 358.75,20.434 L363.082,21.916 C362.17,25.488 359.016,26.742 355.558,26.742 C350.542,26.742 347.084,23.436 347.084,17.774 C347.084,11.732 350.352,8.312 355.634,8.312 C360.612,8.312 363.044,11.58 363.044,16.102 C363.044,16.862 362.968,17.66 362.816,18.382 L351.986,18.382 C352.1,21.08 353.354,22.828 355.672,22.828 Z M352.138,15.57 L358.18,15.57 C358.218,15.342 358.218,15.19 358.218,14.962 C358.218,13.328 357.268,12.074 355.444,12.074 C353.544,12.074 352.328,13.518 352.138,15.57 Z M96.512,70.742 C91.382,70.742 88,67.398 88,61.47 C88,55.504 91.382,52.312 96.512,52.312 C101.604,52.312 104.986,55.504 104.986,61.47 C104.986,67.398 101.604,70.742 96.512,70.742 Z M96.512,56.378 C94.156,56.378 93.016,58.012 93.016,61.47 C93.016,65.118 94.118,66.79 96.512,66.79 C98.868,66.79 99.97,65.118 99.97,61.47 C99.97,58.012 98.83,56.378 96.512,56.378 Z M109.242,56.644 L106.658,56.644 L106.658,52.73 L109.242,52.73 L109.242,51.438 C109.242,46.384 112.434,44.598 116.272,44.598 C117.982,44.598 119.312,44.864 120.528,45.434 L119.806,49.652 C118.932,49.158 118.02,48.892 116.804,48.892 C115.322,48.892 114.296,49.462 114.296,51.59 L114.296,52.73 L118.78,52.73 L118.78,56.644 L114.296,56.644 L114.296,70.286 L109.242,70.286 L109.242,56.644 Z M139.984,65.308 L140.858,69.602 C139.376,70.362 137.552,70.742 135.462,70.742 C131.966,70.742 129.686,69.108 129.686,65.08 L129.686,56.644 L127.14,56.644 L127.14,52.73 L129.724,52.73 L129.724,49.006 L134.816,48.398 L134.816,52.73 L140.022,52.73 L140.022,56.644 L134.778,56.644 L134.778,63.94 C134.778,65.802 135.5,66.41 136.906,66.41 C138.008,66.41 138.958,66.03 139.984,65.308 Z M148.914,44.902 L148.914,56.074 C149.826,53.49 151.688,52.312 154.386,52.312 C157.084,52.312 159.554,53.908 159.554,57.86 L159.554,70.286 L154.462,70.286 L154.462,59.76 C154.462,57.822 153.93,56.568 152.106,56.568 C150.472,56.568 148.914,57.48 148.914,60.596 L148.914,70.286 L143.822,70.286 L143.822,44.902 L148.914,44.902 Z M163.62,47.372 C163.62,45.434 164.988,44.408 166.698,44.408 C168.484,44.408 169.852,45.434 169.852,47.372 C169.852,49.234 168.484,50.26 166.698,50.26 C164.988,50.26 163.62,49.234 163.62,47.372 Z M164.152,52.73 L169.244,52.73 L169.244,70.286 L164.152,70.286 L164.152,52.73 Z M172.322,66.22 L176.502,64.548 C176.882,66.448 178.25,67.17 179.922,67.17 C181.328,67.17 182.316,66.676 182.316,65.65 C182.316,64.662 181.632,64.206 180.074,63.826 L177.49,63.218 C174.412,62.42 173.006,60.672 173.006,58.012 C173.006,53.566 176.54,52.312 180.15,52.312 C184.33,52.312 186.838,53.832 187.104,57.252 L182.354,57.936 C182.164,56.53 181.366,56.074 179.922,56.074 C178.744,56.074 177.946,56.606 177.946,57.518 C177.946,58.392 178.478,58.886 179.656,59.114 L182.126,59.646 C185.698,60.406 187.37,62.306 187.37,65.308 C187.37,69.222 184.14,70.742 179.846,70.742 C175.514,70.742 173.006,69.526 172.322,66.22 Z M204.394,60.672 L204.394,63.104 C204.394,66.106 206.256,67.094 207.738,67.094 C209.904,67.094 211.728,65.27 211.728,61.546 C211.728,57.898 210.322,56.378 208.08,56.378 C206.218,56.378 204.394,57.86 204.394,60.672 Z M204.432,67.968 L204.432,78 L199.34,78 L199.34,52.73 L203.672,52.73 L204.318,56.112 C205.382,53.3 207.662,52.312 210.094,52.312 C214.388,52.312 216.858,55.504 216.858,61.09 C216.858,66.866 214.084,70.742 209.334,70.742 C206.636,70.742 204.926,69.45 204.432,67.968 Z M228.22,65.916 L227.954,70.172 C226.966,70.438 226.016,70.628 225.028,70.628 C222.482,70.628 220.164,69.45 220.164,66.144 L220.164,44.902 L225.256,44.902 L225.256,64.662 C225.256,65.764 225.94,66.182 226.852,66.182 C227.308,66.182 227.764,66.106 228.22,65.916 Z M240.076,64.776 L240.076,62.99 C236.504,62.876 235.25,63.826 235.25,65.384 C235.25,66.41 235.972,67.132 237.188,67.132 C238.518,67.132 240.076,66.486 240.076,64.776 Z M245.092,58.126 L245.092,64.966 C245.092,66.144 245.586,66.562 246.384,66.562 C246.802,66.562 247.144,66.448 247.486,66.296 L247.486,69.982 C246.764,70.438 245.814,70.628 244.598,70.628 C242.356,70.628 240.988,69.754 240.418,67.854 C239.62,70.02 237.72,70.742 235.326,70.742 C232.21,70.742 230.158,68.918 230.158,65.916 C230.158,62.002 233.312,59.874 240.076,60.254 L240.076,58.582 C240.076,57.062 239.43,56.15 238.024,56.15 C236.618,56.15 235.896,57.1 235.82,58.734 L230.766,57.784 C231.032,54.06 234.186,52.312 238.214,52.312 C242.584,52.312 245.092,54.212 245.092,58.126 Z M260.786,64.13 L265.27,65.574 C264.624,69.108 261.584,70.742 257.86,70.742 C252.768,70.742 249.386,67.436 249.386,61.584 C249.386,55.732 252.768,52.312 257.898,52.312 C262.078,52.312 264.738,54.554 265.004,58.088 L260.71,59.266 C260.444,57.404 259.57,56.302 257.86,56.302 C255.58,56.302 254.326,58.316 254.326,61.508 C254.326,64.852 255.656,66.828 257.936,66.828 C259.304,66.828 260.33,66.144 260.786,64.13 Z M275.834,66.828 C277.202,66.828 278.342,66.296 278.912,64.434 L283.244,65.916 C282.332,69.488 279.178,70.742 275.72,70.742 C270.704,70.742 267.246,67.436 267.246,61.774 C267.246,55.732 270.514,52.312 275.796,52.312 C280.774,52.312 283.206,55.58 283.206,60.102 C283.206,60.862 283.13,61.66 282.978,62.382 L272.148,62.382 C272.262,65.08 273.516,66.828 275.834,66.828 Z M272.3,59.57 L278.342,59.57 C278.38,59.342 278.38,59.19 278.38,58.962 C278.38,57.328 277.43,56.074 275.606,56.074 C273.706,56.074 272.49,57.518 272.3,59.57 Z M286.816,67.284 C286.816,65.384 288.222,63.94 290.008,63.94 C291.946,63.94 293.352,65.384 293.352,67.284 C293.352,69.07 291.946,70.476 290.008,70.476 C288.222,70.476 286.816,69.07 286.816,67.284 Z" id="Feel-the-embrace-of" fill="#FFFFFF"></path>
                        <g id="Embrace" transform="translate(0.500000, 1.500000)">
                            <g id="Group-3">
                                <mask id="mask-2" fill="white">
                                    <use xlink:href="#path-1"></use>
                                </mask>
                                <g id="Clip-2"></g>
                                <path d="M46.7486619,43.6368958 C46.7486619,25.7064375 41.1012016,17.4726563 36.7234873,17.4726563 C34.0191222,17.4726563 33.7401063,22.6556563 34.2787413,22.6556563 C34.5420905,22.6556563 34.4309317,21.9693229 34.6741381,21.5026458 C34.9225667,21.0278333 35.3552651,20.9191146 35.5499794,20.9117188 C36.9070111,20.8688229 39.9799159,25.134 39.9799159,34.9046354 C39.9799159,46.8237604 35.9573127,60.9350104 28.5231063,60.9350104 C21.0769635,60.9350104 15.6316778,47.3740104 15.6316778,30.1897917 C15.6316778,18.859375 17.0454079,7.02308333 18.0077889,0.271427083 L-0.000671428571,0.271427083 L-0.000671428571,11.4346979 L4.66874127,14.2170104 L4.66874127,14.794625 L-0.000671428571,17.8587188 L-0.000671428571,21.9634063 L4.66874127,24.6029792 L4.66874127,25.3233333 L-0.000671428571,28.3874271 L-0.000671428571,32.3523333 L4.66874127,35.1331667 L4.66874127,35.7107813 L-0.000671428571,38.9161354 L-0.000671428571,71 L44.9678841,71 C45.8787889,64.2646146 46.7486619,54.8866979 46.7486619,43.6368958" id="Fill-1" fill="#FEFEFE" mask="url(#mask-2)"></path>
                            </g>
                            <g id="Group-6" transform="translate(19.000000, 0.000000)">
                                <mask id="mask-4" fill="white">
                                    <use xlink:href="#path-3"></use>
                                </mask>
                                <g id="Clip-5"></g>
                                <path d="M2.354025,0.271575 C1.472025,5.25784583 0.468525,13.8281375 0.468525,27.0252625 C0.468525,44.9557208 7.775775,50.5765542 10.022775,50.4560021 C12.809775,50.308825 12.993525,45.2737417 12.480525,45.2737417 C12.231525,45.2737417 12.319275,45.8210333 12.140775,46.2958458 C11.962275,46.7728771 11.660775,47.0975542 11.141025,46.9940125 C9.035025,46.5731896 6.713775,41.2970021 6.713775,32.0130125 C6.713775,20.0961063 10.757775,8.13556458 18.231525,8.13556458 C25.706025,8.13556458 32.077275,21.4635958 32.077275,43.9313979 C32.077275,54.8010542 31.124775,64.1937625 30.142275,71.0001479 L47.999025,71.0001479 L47.999025,0.271575 L2.354025,0.271575 Z" id="Fill-4" fill="#FEFEFE" mask="url(#mask-4)"></path>
                            </g>
                        </g>
                    </g>
                </g>
            </g>
        </g>
    </g>
</svg>