<?xml version="1.0" encoding="utf-8"?>
<!-- Generator: Adobe Illustrator 23.0.2, SVG Export Plug-In . SVG Version: 6.00 Build 0)  -->
<svg version="1.1" id="Layer_1" xmlns="http://www.w3.org/2000/svg" xmlns:xlink="http://www.w3.org/1999/xlink" x="0px" y="0px"
	 viewBox="0 0 321 113" style="enable-background:new 0 0 321 113;" xml:space="preserve">
<style type="text/css">
	.st0{fill-rule:evenodd;clip-rule:evenodd;fill:#FEFEFE;}
	.st1{fill-rule:evenodd;clip-rule:evenodd;fill:#111111;}
</style>
<title>Group</title>
<desc>Created with Sketch.</desc>
<g id="Page-1">
	<g id="Apple-TV" transform="translate(-199.000000, -798.000000)">
		<g transform="translate(-2.000000, -10.000000)">
			<g id="Group-2">
				<g id="Group" transform="translate(201.000000, 808.000000)">
					<polygon id="Fill-1" class="st0" points="0,0.5 0,16.7 8.6,21.7 0,26.6 0,35.6 8.6,40.5 0,45.4 0,54.4 8.6,59.3 0,64.3 
						0,111.2 320.9,111.2 321,0.5 					"/>
					<path id="New-Zealand-Tourism" class="st1" d="M41.2,31l3.8,5.4c0.6,0.8,1,1.7,1,1.7h0.1c0,0-0.1-1-0.1-2.3V31h1.8v10h-1.7
						l-3.8-5.4c-0.6-0.9-1.1-1.8-1.1-1.8h-0.1c0,0,0.1,1,0.1,2.3V41h-1.8V31H41.2z M59.2,39.4V41h-6.4V31h6.4v1.6h-4.5v2.6h4v1.5h-4
						v2.7H59.2z M70.6,31l1.5,6c0.4,1.5,0.5,2.8,0.5,2.8h0.1c0,0,0.1-1.3,0.5-2.7l1.4-6h1.8l-2.5,10h-2.6l-1.4-5.6
						c-0.4-1.5-0.4-2.7-0.4-2.7h-0.1c0,0-0.1,1.2-0.5,2.7L67.6,41H65l-2.5-10h1.9l1.4,6c0.4,1.5,0.5,2.8,0.5,2.8h0.1
						c0,0,0.1-1.3,0.5-2.8l1.5-6H70.6z M92.7,32.2l-4.1,6c-0.6,0.8-1,1.2-1,1.2v0.1c0,0,0.5-0.1,1.4-0.1h3.8V41h-7.5v-1.2l4.1-6
						c0.6-0.8,1-1.2,1-1.2v-0.1c0,0-0.4,0.1-1.4,0.1h-3.5V31h7.2V32.2z M103.2,39.4V41h-6.4V31h6.4v1.6h-4.5v2.6h4v1.5h-4v2.7H103.2
						z M114.2,41l-0.9-2.5h-4l-0.9,2.5h-1.9l3.6-10h2.3l3.6,10H114.2z M110.5,35.1l-0.7,1.9h2.9l-0.6-1.9c-0.6-1.6-0.8-2.7-0.8-2.7
						h-0.1C111.2,32.4,111,33.5,110.5,35.1z M119.9,31h1.8v8.4h4.3V41h-6.1V31z M136.5,41l-0.9-2.5h-4l-0.9,2.5h-1.9l3.6-10h2.3
						l3.6,10H136.5z M132.8,35.1l-0.7,1.9h2.9l-0.6-1.9c-0.6-1.6-0.8-2.7-0.8-2.7h-0.1C133.6,32.4,133.4,33.5,132.8,35.1z M144.1,31
						l3.8,5.4c0.6,0.8,1,1.7,1,1.7h0.1c0,0-0.1-1-0.1-2.3V31h1.8v10H149l-3.8-5.4c-0.6-0.9-1.1-1.8-1.1-1.8H144c0,0,0.1,1,0.1,2.3
						V41h-1.8V31H144.1z M157.6,39.5h1.2c1.9,0,3.2-1,3.2-3.5c0-2.7-1.3-3.5-3-3.5h-1.4V39.5z M159,41h-3.2V31h3.3
						c2.8,0,4.8,1.4,4.8,4.9C163.9,39.6,161.7,41,159,41z M177.8,41H176v-8.4h-2.9V31h7.5v1.6h-2.9V41z M188.1,41.2
						c-2.8,0-4.6-1.9-4.6-5.2c0-3.3,1.8-5.2,4.6-5.2c2.8,0,4.6,1.9,4.6,5.2C192.7,39.3,190.9,41.2,188.1,41.2z M188.1,32.4
						c-1.8,0-2.7,1.4-2.7,3.6c0,2.2,0.9,3.6,2.7,3.6c1.8,0,2.7-1.4,2.7-3.6C190.8,33.8,189.8,32.4,188.1,32.4z M202.8,31h1.8v6.7
						c0,2.6-1.9,3.5-4,3.5c-2,0-3.9-0.9-3.9-3.5V31h1.8v6.2c0,1.7,0.7,2.5,2.1,2.5c1.5,0,2.1-0.8,2.1-2.5V31z M216.9,41h-2
						c-0.3-0.3-0.4-0.6-0.5-1l-0.4-1.6c-0.3-1.1-0.8-1.3-1.7-1.3h-1.2V41h-1.8V31h3.6c2.3,0,3.5,0.9,3.5,2.9c0,1.6-1,2.4-2.3,2.5v0
						c0.9,0.1,1.4,0.5,1.7,1.6l0.5,1.9C216.5,40.3,216.7,40.7,216.9,41z M211.2,32.5v3.1h1.7c1.1,0,1.7-0.5,1.7-1.5
						c0-1-0.5-1.5-1.7-1.5H211.2z M221.1,31h1.8v10h-1.8V31z M227.1,38.7l1.7-0.6c0.2,1.2,1,1.7,2,1.7c1,0,1.6-0.4,1.6-1.3
						c0-0.8-0.4-1.2-1.9-1.7c-1.8-0.6-3-1.3-3-3.1c0-2.1,1.7-2.9,3.3-2.9c1.9,0,3.3,0.7,3.5,2.6l-1.8,0.4c-0.1-1-0.8-1.5-1.7-1.5
						c-0.9,0-1.5,0.4-1.5,1.3c0,0.9,0.7,1.2,2,1.7c1.7,0.6,2.9,1.2,2.9,3.1c0,2-1.6,2.9-3.6,2.9C228.7,41.2,227.4,40.5,227.1,38.7z
						 M243.9,38.6h-1.1l-1.7-3.1c-0.6-1-0.8-1.7-0.8-1.7h-0.1c0,0,0.1,0.6,0.1,1.8V41h-1.8V31h2l2.2,4.2c0.4,0.8,0.6,1.3,0.6,1.3
						h0.1c0,0,0.1-0.5,0.6-1.3l2.2-4.2h1.9v10h-1.8v-5.4c0-1.2,0.1-1.8,0.1-1.8h-0.1c0,0-0.2,0.7-0.7,1.7L243.9,38.6z M44.2,55.8
						L44.2,55.8c1.3,0.2,2.2,1,2.2,2.4c0,1.7-1.1,2.8-3.5,2.8h-3.5V51h3.6c2,0,3.1,0.9,3.1,2.5C46,54.8,45.3,55.6,44.2,55.8z
						 M41.2,55.3h1.5c1,0,1.6-0.4,1.6-1.4c0-1-0.6-1.4-1.6-1.4h-1.4V55.3z M41.2,56.7v2.8h1.7c1.1,0,1.7-0.4,1.7-1.5
						c0-0.8-0.5-1.3-1.7-1.3H41.2z M58.5,61h-2c-0.3-0.3-0.4-0.6-0.5-1l-0.4-1.6c-0.3-1.1-0.8-1.3-1.7-1.3h-1.2V61h-1.8V51h3.6
						c2.3,0,3.5,0.9,3.5,2.9c0,1.6-1,2.4-2.3,2.5v0c0.9,0.1,1.4,0.5,1.7,1.6l0.5,1.9C58,60.3,58.2,60.7,58.5,61z M52.7,52.5v3.1h1.7
						c1.1,0,1.7-0.5,1.7-1.5c0-1-0.5-1.5-1.7-1.5H52.7z M69.1,61l-0.9-2.5h-4L63.3,61h-1.9l3.6-10h2.3l3.6,10H69.1z M65.4,55.1
						L64.7,57h2.9L67,55.1c-0.6-1.6-0.8-2.7-0.8-2.7h-0.1C66.2,52.4,65.9,53.5,65.4,55.1z M76.7,51l3.8,5.4c0.6,0.8,1,1.7,1,1.7h0.1
						c0,0-0.1-1-0.1-2.3V51h1.8v10h-1.7l-3.8-5.4c-0.6-0.9-1.1-1.8-1.1-1.8h-0.1c0,0,0.1,1,0.1,2.3V61h-1.8V51H76.7z M90.2,59.5h1.2
						c1.9,0,3.2-1,3.2-3.5c0-2.7-1.3-3.5-3-3.5h-1.4V59.5z M91.6,61h-3.2V51h3.3c2.8,0,4.8,1.4,4.8,4.9C96.5,59.6,94.3,61,91.6,61z
						 M110.9,55.8h4.1V61h-1.3l-0.3-1.2c-0.4,1-1.6,1.4-2.8,1.4c-2.6,0-4.4-1.7-4.4-5.2c0-3.3,1.9-5.3,4.7-5.3
						c1.9,0,3.2,0.8,3.9,2.4l-1.7,0.9c-0.4-1.2-1.2-1.7-2.2-1.7c-1.5,0-2.8,1.2-2.8,3.7c0,2.1,0.8,3.7,2.7,3.7
						c1.3,0,2.3-0.6,2.3-1.8v-0.6h-2.3V55.8z M125.4,51h1.8v6.7c0,2.6-1.9,3.5-4,3.5c-2,0-3.9-0.9-3.9-3.5V51h1.8v6.2
						c0,1.7,0.7,2.5,2.1,2.5c1.5,0,2.1-0.8,2.1-2.5V51z M131.9,51h1.8v10h-1.8V51z M140.6,59.5h1.2c1.9,0,3.2-1,3.2-3.5
						c0-2.7-1.3-3.5-3-3.5h-1.4V59.5z M142,61h-3.2V51h3.3c2.8,0,4.8,1.4,4.8,4.9C146.9,59.6,144.7,61,142,61z M157.7,59.4V61h-6.4
						V51h6.4v1.6h-4.5v2.6h4v1.5h-4v2.7H157.7z M162.1,51h1.8v8.4h4.3V61h-6.1V51z M172.3,51h1.8v10h-1.8V51z M180.9,51l3.8,5.4
						c0.6,0.8,1,1.7,1,1.7h0.1c0,0-0.1-1-0.1-2.3V51h1.8v10h-1.7l-3.8-5.4c-0.6-0.9-1.1-1.8-1.1-1.8h-0.1c0,0,0.1,1,0.1,2.3V61h-1.8
						V51H180.9z M199,59.4V61h-6.4V51h6.4v1.6h-4.5v2.6h4v1.5h-4v2.7H199z M202.5,58.7l1.7-0.6c0.2,1.2,1,1.7,2,1.7
						c1,0,1.6-0.4,1.6-1.3c0-0.8-0.4-1.2-1.9-1.7c-1.8-0.6-3-1.3-3-3.1c0-2.1,1.7-2.9,3.3-2.9c1.9,0,3.3,0.7,3.5,2.6l-1.8,0.4
						c-0.1-1-0.8-1.5-1.7-1.5c-0.9,0-1.5,0.4-1.5,1.3c0,0.9,0.7,1.2,2,1.7c1.7,0.6,2.9,1.2,2.9,3.1c0,2-1.6,2.9-3.6,2.9
						C204.1,61.2,202.9,60.5,202.5,58.7z M213.9,59.8c0-0.7,0.5-1.3,1.2-1.3c0.7,0,1.3,0.5,1.3,1.3c0,0.7-0.5,1.3-1.3,1.3
						C214.4,61.1,213.9,60.5,213.9,59.8z"/>
				</g>
			</g>
		</g>
	</g>
</g>
</svg>
