<?xml version="1.0" encoding="utf-8"?>
<!-- Generator: Adobe Illustrator 22.1.0, SVG Export Plug-In . SVG Version: 6.00 Build 0)  -->
<svg version="1.1" id="Layer_1" xmlns="http://www.w3.org/2000/svg" xmlns:xlink="http://www.w3.org/1999/xlink" x="0px" y="0px"
	 width="321px" height="92px" viewBox="0 0 321 92" style="enable-background:new 0 0 321 92;" xml:space="preserve">
<style type="text/css">
	.st0{fill:#FEFEFE;}
</style>
<polygon id="Fill-1" class="st0" points="0,0.5 0,16.7 8.6,21.7 0,26.6 0,35.6 8.6,40.5 0,45.4 0,54.4 8.6,59.3 0,64.3 0,91.2 
	320.9,91.2 321,0.5 "/>
<title>Group</title>
<desc>Created with Sketch.</desc>
<g>
	<path d="M71.9,40.9V30.2h3.5c3,0,5.1,1.5,5.1,5.2c0,3.9-2.3,5.4-5.2,5.4L71.9,40.9L71.9,40.9z M75.2,39.2c2,0,3.4-1,3.4-3.7
		c0-2.8-1.4-3.7-3.2-3.7h-1.5v7.4H75.2z"/>
	<path d="M83.9,35.6c0-3.5,1.9-5.5,4.9-5.5s4.9,2,4.9,5.5s-1.9,5.5-4.9,5.5S83.9,39.1,83.9,35.6z M85.9,35.6c0,2.4,1,3.8,2.8,3.8
		c1.8,0,2.9-1.5,2.9-3.8c0-2.4-1-3.9-2.9-3.9C86.9,31.7,85.9,33.2,85.9,35.6z"/>
	<path d="M106.4,36.6c0.4,1.6,0.5,2.9,0.5,2.9h0.1c0,0,0.1-1.3,0.5-2.9l1.5-6.4h1.9l-2.6,10.6h-2.8l-1.5-5.9
		c-0.4-1.6-0.4-2.9-0.4-2.9h-0.1c0,0-0.1,1.3-0.5,2.9l-1.5,5.9h-2.7l-2.6-10.6h2l1.5,6.4c0.4,1.6,0.5,2.9,0.5,2.9h0.1
		c0,0,0.1-1.3,0.5-2.9l1.6-6.4h2.3L106.4,36.6z"/>
	<path d="M120.4,36c0.6,0.9,1.1,1.8,1.1,1.8h0.1c0,0-0.1-1.1-0.1-2.4v-5.2h1.9v10.6h-1.8l-4.1-5.7c-0.7-0.9-1.2-1.9-1.2-1.9h-0.1
		c0,0,0.1,1,0.1,2.5v5.1h-1.9V30.2h1.9L120.4,36z"/>
	<path d="M130,30.2v8.9h4.5v1.7H128V30.2H130z"/>
	<path d="M137.4,35.6c0-3.5,1.9-5.5,4.9-5.5s4.9,2,4.9,5.5s-1.9,5.5-4.9,5.5S137.4,39.1,137.4,35.6z M139.4,35.6
		c0,2.4,1,3.8,2.8,3.8s2.9-1.5,2.9-3.8c0-2.4-1-3.9-2.9-3.9C140.4,31.7,139.4,33.2,139.4,35.6z"/>
	<path d="M156.9,38.2h-4.2l-0.9,2.7h-2l3.9-10.6h2.5l3.9,10.6H158L156.9,38.2z M153.2,36.6h3.1l-0.7-2c-0.6-1.7-0.8-2.9-0.8-2.9
		h-0.1c0,0-0.3,1.2-0.8,2.8L153.2,36.6z"/>
	<path d="M163.3,40.9V30.2h3.5c3,0,5.1,1.5,5.1,5.2c0,3.9-2.3,5.4-5.2,5.4L163.3,40.9L163.3,40.9z M166.6,39.2c2,0,3.4-1,3.4-3.7
		c0-2.8-1.4-3.7-3.2-3.7h-1.5v7.4H166.6z"/>
	<path d="M183.5,40.9V32h-3v-1.7h8V32h-3.1v8.9H183.5z"/>
	<path d="M191.9,40.9V30.2h1.9v4.4h4.7v-4.4h1.9v10.6h-1.9v-4.6h-4.7v4.6L191.9,40.9L191.9,40.9z"/>
	<path d="M211.9,40.9h-6.7V30.2h6.7v1.7h-4.8v2.8h4.2v1.6h-4.2v2.8h4.8V40.9z"/>
	<path d="M221.8,40.9V30.2h3.4c2.6,0,3.8,1.2,3.8,3.4s-1.3,3.5-3.6,3.5h-1.7v3.7L221.8,40.9L221.8,40.9z M223.7,35.5h1.4
		c1.4,0,1.9-0.7,1.9-1.8c0-1.2-0.6-1.9-1.9-1.9h-1.4V35.5z"/>
	<path d="M232.7,40.9V30.2h3.5c3,0,5.1,1.5,5.1,5.2c0,3.9-2.3,5.4-5.2,5.4L232.7,40.9L232.7,40.9z M236,39.2c2,0,3.4-1,3.4-3.7
		c0-2.8-1.4-3.7-3.2-3.7h-1.5v7.4H236z"/>
	<path d="M245.4,40.9V30.2h6.5v1.7h-4.5v3h4v1.6h-4v4.3h-2V40.9z"/>
</g>
</svg>
