<svg xmlns="http://www.w3.org/2000/svg" viewBox="0 0 136.88 54.89"><defs><style>.cls-1{fill:#fff;}</style></defs><title>100%-Logo</title><g id="Layer_2" data-name="Layer 2"><g id="Logo"><polygon class="cls-1" points="64.39 7.75 64.62 6.79 63.89 6.1 62 7.15 60.72 6.7 59.98 4.54 59.06 4.63 59.15 5.69 58.92 5.92 58.28 4.95 58.46 4.08 58.05 2.52 56.58 1.24 55.52 1.28 54.7 0 53.92 0.5 55.02 1.7 55.02 2.16 58.05 6.7 57.91 8.26 57.45 9.86 56.21 10.82 56.26 11.51 58.1 12.38 58.56 13.21 57.5 15.27 57.73 15.78 58.46 15.73 58.79 16.14 59.71 15.64 61.13 13.3 61.96 11.42 61.68 11.01 62.09 10.04 62.97 10 63.06 10.5 63.75 10.13 63.66 9.13 64.21 8.8 64.39 7.75"/><path class="cls-1" d="M49,4.5c0-.6.23-1,.69-1s.69.37.69,1V8.21c0,.6-.23,1-.69,1s-.69-.36-.69-1ZM45.41,2.66V10l2.3,2.3h3.86l2.3-2.3V2.66L51.57.37H47.71Z"/><polygon class="cls-1" points="51.02 27.11 51.66 26.92 51.66 26.28 52.4 24.54 53.04 22.57 53.96 21.88 54.93 22.06 55.34 21.92 55.48 21.46 54.93 20.77 55.06 20.41 55.98 19.26 56.12 18.48 56.63 18.21 57.27 16.83 57.13 16.46 57.22 15.96 57.13 15.78 57.22 15.23 56.53 14.91 55.43 15.69 55.39 15.59 55.48 15.04 55.16 14.86 54.88 14.95 54.84 14.81 54.97 14.49 55.11 14.26 54.97 13.99 53.73 14.95 53.18 16.92 52.4 17.38 51.99 19.26 48.68 22.47 47.57 22.79 46.06 24.95 45.05 27.29 45.64 28.07 46.79 27.79 47.07 28.21 47.71 28.21 47.76 28.62 48.91 28.66 50.01 28.07 51.02 27.11"/><path class="cls-1" d="M63.38,24.22c0,.59-.23,1-.69,1s-.69-.37-.69-1V20.5c0-.6.23-1,.69-1s.69.36.69,1Zm3.54,1.83V18.67l-2.3-2.3H60.76l-2.3,2.3v7.38l2.3,2.29h3.86Z"/><polygon class="cls-1" points="47.11 28.8 46.63 28.93 46.78 29.57 46.05 30.56 46.31 30.71 47.87 30.31 48.12 29.67 47.93 29.47 47.11 28.8"/><polygon class="cls-1" points="2.71 28.36 8.95 28.36 8.95 0.37 5.69 0.37 3.58 2.48 0 2.48 0 7.99 2.71 7.99 2.71 28.36"/><path class="cls-1" d="M15.28.37,11.34,4.31V24.42l3.94,3.94h7l3.95-3.94V4.31L22.26.37ZM20,22.26a1,1,0,0,1-1,1.1h-.44a1,1,0,0,1-1-1.1V6.47a1,1,0,0,1,1-1.1H19a1,1,0,0,1,1,1.1Z"/><path class="cls-1" d="M39.52,28.36l3.94-3.94V4.31L39.52.37h-7L28.59,4.31V24.42l3.95,3.94ZM34.83,6.47a1,1,0,0,1,1-1.1h.44a1,1,0,0,1,1,1.1V22.26a1,1,0,0,1-1,1.1h-.44a1,1,0,0,1-1-1.1Z"/><path class="cls-1" d="M74.08.37v28h6.24V18.45H84.9l3.9-3.9V4.27L84.9.37Zm8.49,12.06a.94.94,0,0,1-1,1H80.32V5.37h1.27a.94.94,0,0,1,1,1Z"/><path class="cls-1" d="M90.76.37V24.42l3.94,3.94h7l3.95-3.94V.37H99.38V22.26a1,1,0,0,1-1,1.1H98a1,1,0,0,1-1-1.1V.37Z"/><path class="cls-1" d="M122.74,4.27,118.83.37H108v28h6.24V17.62h1.27a.93.93,0,0,1,1,1v7l.33,2.7h6.25l-.33-3.07V17.62L120,14.87l2.76-2.75Zm-6.24,7a.93.93,0,0,1-1,1h-1.28V5.37h1.28a.93.93,0,0,1,1,1Z"/><polygon class="cls-1" points="125.1 28.36 136.88 28.36 136.88 22.99 131.35 22.99 131.35 16.89 136.42 16.89 136.42 11.52 131.35 11.52 131.35 5.74 136.88 5.74 136.88 0.37 125.1 0.37 125.1 28.36"/><polygon class="cls-1" points="9.66 41.64 9.44 41.64 7.36 32.63 2.71 32.63 2.71 54.9 7.33 54.9 7.33 45.29 7.54 45.29 10.06 54.9 14.32 54.9 14.32 32.63 9.66 32.63 9.66 41.64"/><polygon class="cls-1" points="16.21 54.9 25.58 54.9 25.58 50.62 21.18 50.62 21.18 45.77 25.22 45.77 25.22 41.5 21.18 41.5 21.18 36.9 25.58 36.9 25.58 32.63 16.21 32.63 16.21 54.9"/><polygon class="cls-1" points="49.89 36.9 54.59 36.9 49.92 50.99 49.92 54.9 60.03 54.9 60.03 50.62 55.44 50.62 60.03 36.64 60.03 32.63 49.89 32.63 49.89 36.9"/><polygon class="cls-1" points="61.6 54.9 70.96 54.9 70.96 50.62 66.56 50.62 66.56 45.77 70.6 45.77 70.6 41.5 66.56 41.5 66.56 36.9 70.96 36.9 70.96 32.63 61.6 32.63 61.6 54.9"/><polygon class="cls-1" points="86.81 32.63 86.81 54.9 95.68 54.9 95.68 50.62 91.7 50.62 91.7 32.63 86.81 32.63"/><polygon class="cls-1" points="118.53 41.64 118.31 41.64 116.23 32.63 111.58 32.63 111.58 54.9 116.19 54.9 116.19 45.29 116.41 45.29 118.93 54.9 123.18 54.9 123.18 32.63 118.53 32.63 118.53 41.64"/><path class="cls-1" d="M125.08,54.89h8.63l3.13-3.13v-16l-3.13-3.14h-8.63Zm5-18.28h1.06a.74.74,0,0,1,.77.8v12.7a.75.75,0,0,1-.77.81h-1.06Z"/><polygon class="cls-1" points="38.85 42.91 38.63 42.91 37.58 32.63 33.99 32.63 32.93 42.91 32.71 42.91 31.57 32.63 26.89 32.63 29.72 54.9 34.22 54.9 35.51 45.26 35.73 45.26 36.97 54.9 41.5 54.9 44.31 32.63 39.96 32.63 38.85 42.91"/><path class="cls-1" d="M75.66,32.63,72.12,54.89h4.76l.43-3.58h3l.43,3.58h4.94L82.09,32.63ZM77.79,47.3,78.66,40h.22l.89,7.26Z"/><path class="cls-1" d="M100.36,32.63,96.82,54.89h4.75l.43-3.58h3l.44,3.58h4.93l-3.54-22.26Zm2.12,14.67.87-7.26h.22l.89,7.26Z"/></g></g></svg>