<?xml version="1.0" encoding="utf-8"?>
<!-- Generator: Adobe Illustrator 23.0.1, SVG Export Plug-In . SVG Version: 6.00 Build 0)  -->
<svg version="1.1" xmlns="http://www.w3.org/2000/svg" xmlns:xlink="http://www.w3.org/1999/xlink" x="0px" y="0px"
	 viewBox="0 0 357.5 357.5" style="enable-background:new 0 0 357.5 357.5;" xml:space="preserve">
<style type="text/css">
	.st0{opacity:0.41;fill:#FFFFFF;}
	.st1{opacity:0.65;}
	.st2{opacity:0.26;fill:#B5BF30;}
	.st3{fill:#CAD3BD;}
	.st4{fill:#B6CFD8;}
	.st5{fill:none;stroke:#000000;stroke-width:1.8958;stroke-miterlimit:10;}
	.st6{fill:none;stroke:#000000;stroke-width:2;stroke-miterlimit:10;}
	.st7{fill:#231F20;}
	.st8{fill:#FFF5EC;}
	.st9{clip-path:url(#SVGID_2_);fill:none;stroke:#FFF5EC;stroke-width:1.3171;stroke-miterlimit:10;}
	.st10{clip-path:url(#SVGID_4_);}
	.st11{clip-path:url(#SVGID_6_);fill:#1D1D1B;}
	.st12{clip-path:url(#SVGID_8_);fill:#1D1D1B;}
	.st13{clip-path:url(#SVGID_10_);fill:#1D1D1B;}
	.st14{clip-path:url(#SVGID_12_);}
	
		.st15{clip-path:url(#SVGID_14_);fill:none;stroke:#1D1D1B;stroke-width:0.3873;stroke-miterlimit:10;stroke-dasharray:3.9556,7.9112;}
	.st16{clip-path:url(#SVGID_14_);fill:#1D1D1B;}
	.st17{clip-path:url(#SVGID_14_);fill:none;stroke:#1D1D1B;stroke-width:0.3409;stroke-linejoin:bevel;stroke-miterlimit:10;}
	.st18{clip-path:url(#SVGID_14_);fill:none;stroke:#1D1D1B;stroke-width:0.1705;stroke-miterlimit:10;}
	.st19{clip-path:url(#SVGID_16_);}
	.st20{clip-path:url(#SVGID_18_);fill:none;stroke:#1D1D1B;stroke-width:0.4195;stroke-miterlimit:10;}
	.st21{clip-path:url(#SVGID_18_);fill:none;stroke:#1D1D1B;stroke-width:0.7385;stroke-miterlimit:10;}
	.st22{clip-path:url(#SVGID_20_);fill:none;stroke:#1D1D1B;stroke-width:0.3692;stroke-miterlimit:10;}
	.st23{clip-path:url(#SVGID_22_);fill:none;stroke:#1D1D1B;stroke-width:0.3692;stroke-miterlimit:10;}
	.st24{clip-path:url(#SVGID_24_);fill:#1D1D1B;}
	.st25{clip-path:url(#SVGID_26_);fill:none;stroke:#000000;stroke-miterlimit:10;}
	.st26{clip-path:url(#SVGID_28_);fill:none;stroke:#000000;stroke-miterlimit:10;}
	.st27{clip-path:url(#SVGID_30_);fill:none;stroke:#000000;stroke-miterlimit:10;}
	.st28{display:none;}
	.st29{display:inline;}
	.st30{fill:none;stroke:#FF00FF;stroke-width:0.2;stroke-miterlimit:10;}
	.st31{display:inline;fill:none;stroke:#FF00FF;stroke-width:0.2;stroke-miterlimit:10;}
</style>
<g id="Layer_1">
	<g>
		<circle class="st0" cx="178.7" cy="178.7" r="177.8"/>
		<g>
			<g class="st1">
				<path class="st2" d="M24.4,268l64.7-38.8c-28-49.9-9.3-112.8,39.4-140.1c21.3-11.9,50.3-13.5,50.3-13.5l0.9-74.6
					c0,0-42.7-2.6-87.9,22.8C6.3,71.8-24.1,181.6,24.4,268z"/>
				<path class="st3" d="M178.8,0.9l0,74.9c57.3,0,102.9,47.1,102.9,102.9c0,24.4-12.9,50.5-12.9,50.5l64.6,37.3
					c0,0,23.2-36,23.2-87.8C356.6,80.7,278,0.9,178.8,0.9z"/>
				<path class="st4" d="M333.6,267.1L269.1,229c-29,49.9-93.7,68.2-143.4,38.3c-21.1-12.7-37.5-37.6-37.5-37.6L24.4,268
					c0,0,18.4,37.3,63.6,63.5C173.5,381.2,282.5,354.6,333.6,267.1z"/>
			</g>
			<circle class="st5" cx="178.8" cy="178.7" r="177.8"/>
			<g>
				<g>
					<g>
						<path d="M50.1,124.6l0.9-1.9c1.1,0.4,2.2,0.3,3-1.4c0.5-1.2,0.3-2.3-0.7-2.7c-1-0.5-1.6-0.1-2.6,1.4c-1.5,2.4-2.8,3.2-4.8,2.3
							c-1.7-0.8-2.3-2.9-1.3-5.1c1.1-2.3,2.7-3.1,4.8-2.4l-0.8,1.8c-1.2-0.3-2,0.1-2.5,1.3c-0.6,1.2-0.3,2.1,0.5,2.5
							c0.9,0.4,1.4,0.2,2.6-1.5c1.5-2.3,2.8-3.3,4.9-2.3c1.8,0.9,2.5,3.1,1.5,5.4C54.1,124.9,52.2,125.4,50.1,124.6z"/>
						<path d="M56.4,107.4l-0.1-0.1c-2.9-1.8-3.6-5.3-1.8-8.1c1.9-2.9,5.2-3.6,8.1-1.7l0.1,0.1c2.9,1.8,3.7,5.2,1.8,8.1
							C62.6,108.7,59.2,109.2,56.4,107.4z M61.5,99.4l-0.1-0.1c-2-1.3-4.2-1.1-5.4,0.8c-1.2,1.9-0.6,3.9,1.5,5.3l0.1,0.1
							c2.1,1.4,4.3,1,5.5-0.8C64.2,102.9,63.6,100.8,61.5,99.4z"/>
						<path d="M68.4,90.1L68.4,90.1c-2.7-2.4-3-5.8-0.9-8.2c1.8-2,4.1-2.7,6.3-1.1l-1.4,1.7c-1.3-0.8-2.5-0.7-3.6,0.6
							c-1.3,1.5-1,3.6,0.9,5.3l0.1,0.1c2,1.7,4,1.8,5.4,0.2c1.1-1.2,1.2-2.6,0.1-3.9l1.4-1.6c1.9,2.1,1.6,4.5-0.2,6.6
							C74.2,92.4,71.1,92.4,68.4,90.1z"/>
						<path d="M78.5,70.9l1.6-1.5l7.8,8.6l-1.6,1.5L78.5,70.9z"/>
						<path d="M91.1,60.4l2.3-1.7l9.9,7.1l-1.8,1.3l-2.4-1.8L95.5,68l1,2.9l-1.6,1.2L91.1,60.4z M94.9,66.5l2.8-2l-4.6-3.4
							L94.9,66.5z"/>
						<path d="M105.3,51.1l1.9-1l4.8,8.7l4.3-2.4l0.8,1.5l-6.2,3.4L105.3,51.1z"/>
					</g>
				</g>
				<g>
					<g>
						<path d="M275.6,65.4l5.5,4.8l-1.1,1.3l-3.9-3.4l-2.1,2.4l3.1,2.7l-1.1,1.2l-3.1-2.7l-2.3,2.6l4.1,3.6l-1.1,1.3l-5.7-5
							L275.6,65.4z"/>
						<path d="M284.8,73.7l1.8,1.9l-2.8,9.4l6.1-5.8l1.4,1.4l-8.5,8l-1.5-1.6l2.9-10l-6.5,6.2l-1.4-1.4L284.8,73.7z"/>
						<path d="M294.3,84.1l1.4,1.8l-5.6,8.2l9.4-3.4l1.3,1.6l-11.7,4l-1.5-2L294.3,84.1z"/>
						<path d="M303.2,96.1l1.2,1.8l-9.7,6.5l-1.2-1.8L303.2,96.1z"/>
						<path d="M307.3,102.5l1.9,3.4c1.3,2.2,1.2,4.3-0.8,5.5l-0.1,0c-1.6,0.9-3,0.4-4-0.7l-2.8,5.4l-1.2-2.1l2.6-5l-0.7-1.2
							l-4.1,2.3l-1.1-1.9L307.3,102.5z M304.6,108.6c0.7,1.3,1.6,1.6,2.7,1l0.1,0c1.2-0.7,1.2-1.6,0.5-2.8l-0.9-1.5l-3.2,1.8
							L304.6,108.6z"/>
						<path d="M308.1,116.2l0.1-0.1c3.1-1.4,6.4-0.2,7.8,3c1.4,3.2,0.1,6.4-3,7.8L313,127c-3.1,1.4-6.4,0.3-7.9-3
							C303.7,120.7,305.1,117.5,308.1,116.2z M312,124.9l0.1-0.1c2.2-1,3.3-2.9,2.4-5c-0.9-2.1-3-2.7-5.3-1.6l-0.1,0.1
							c-2.3,1-3.2,3.1-2.4,5.1C307.6,125.3,309.7,125.9,312,124.9z"/>
						<path d="M320,129.2l0.8,2.5l-6.4,7.4l8-2.7l0.6,1.9l-11.1,3.8l-0.7-2.1l6.8-7.9l-8.5,2.9l-0.6-1.9L320,129.2z"/>
						<path d="M324.5,143.9l0.6,2.9l-7.2,4.6l8.4,1.3l0.6,2.8l-11.5,2.4l-0.4-2.1l8.7-1.8l-9.4-1.6l-0.1-0.7l7.9-5.3l-8.7,1.8
							l-0.4-1.9L324.5,143.9z"/>
						<path d="M327.7,161.1l0.8,7.3l-1.7,0.2l-0.5-5.1l-3.2,0.3l0.4,4.1l-1.6,0.2l-0.4-4.1l-3.4,0.4l0.6,5.4l-1.7,0.2l-0.8-7.5
							L327.7,161.1z"/>
						<path d="M328.7,173.5l0,2.6l-8.4,5l8.5-0.1l0,2l-11.7,0.1l0-2.3l8.9-5.4l-9,0.1l0-2L328.7,173.5z"/>
						<path d="M326.7,190.7l0.3-3.2l1.7,0.1l-0.7,8.7l-1.7-0.1l0.3-3.2l-9.9-0.8l0.2-2.2L326.7,190.7z"/>
						<path d="M327,202.6l-0.5,2.8l-12.2,1.9l0.4-2.2l3-0.4l0.7-4.4l-2.7-1.4l0.3-2L327,202.6z M320,201l-0.6,3.4l5.6-0.8L320,201z"
							/>
						<path d="M324.9,213.7l-0.5,2.1l-9.6-2.5l-1.2,4.8l-1.7-0.4l1.8-6.9L324.9,213.7z"/>
					</g>
				</g>
				<g>
					<g>
						<path d="M90,285l5.5,4.4l-1.1,1.3l-3.9-3.1l-2.1,2.7l3.1,2.4l-1,1.3l-3.1-2.4l-2.9,3.7l-1.7-1.3L90,285z"/>
						<path d="M102,294l1.8,1.2l-6.3,9.6l-1.8-1.2L102,294z"/>
						<path d="M111.2,299.7l2.3,1.2l0.5,9.6l3.8-7.4l1.7,0.9l-5.2,10.2l-2-1l-0.6-10.2l-4,7.8l-1.7-0.9L111.2,299.7z"/>
						<path d="M130,308.3l2.6,1l-0.4,12l-2.1-0.8l0.1-3l-4.1-1.5l-1.8,2.4l-1.9-0.7L130,308.3z M127.2,314.8l3.2,1.2l0.2-5.6
							L127.2,314.8z"/>
						<path d="M143.5,312.7l2.5,0.6l2.8,9.2l1.9-8l1.9,0.5l-2.7,11.1l-2.1-0.5l-3-9.7l-2,8.5l-1.9-0.5L143.5,312.7z"/>
						<path d="M159.7,321.9l0-0.1c0.3-3.4,2.9-5.6,6.1-5.2c2.6,0.3,4.5,1.8,4.5,4.5l-2.1-0.2c-0.1-1.5-0.9-2.4-2.5-2.6
							c-2-0.2-3.5,1.2-3.7,3.8l0,0.1c-0.3,2.6,0.8,4.2,2.9,4.4c1.6,0.2,2.8-0.5,3.2-2.1l2.1,0.2c-0.6,2.7-2.7,3.9-5.4,3.6
							C161.1,327.9,159.3,325.4,159.7,321.9z"/>
						<path d="M178.7,317.4l2.1,0l0,11.4l-2.1,0L178.7,317.4z"/>
						<path d="M192.4,316.7l2.8-0.3l4.9,11l-2.2,0.2l-1.2-2.7l-4.3,0.5l-0.6,2.9l-2,0.2L192.4,316.7z M192.7,323.8l3.4-0.3l-2.2-5.1
							L192.7,323.8z"/>
						<path d="M206.5,314.7l2.1-0.5l2.1,9.5l4.8-1.1l0.4,1.7l-6.8,1.5L206.5,314.7z"/>
					</g>
				</g>
			</g>
			<line class="st6" x1="178.8" y1="0.9" x2="178.8" y2="70.2"/>
			<line class="st6" x1="82.4" y1="234" x2="24.4" y2="268"/>
			<line class="st6" x1="273.8" y1="232" x2="333.4" y2="266.5"/>
			<g>
				<g>
					<path class="st7" d="M178.8,69c-61.2,0-110.8,49.6-110.8,110.8s49.6,110.8,110.8,110.8s110.8-49.6,110.8-110.8S240,69,178.8,69
						z M178.8,245.7c-36.4,0-66-29.5-66-66c0-36.4,29.5-66,66-66s66,29.5,66,66C244.8,216.2,215.3,245.7,178.8,245.7z"/>
				</g>
				<g>
					<g>
						<path class="st7" d="M196.1,178.4c0.3,0.6,0.6,1.6,0.6,2.9c-0.2-0.5-1-1.6-2-2.6c-1,0.3-1.9,0.5-3,0.8
							c-0.8,0.2-2.5,0.7-4.2,1.2c0.3,0.3,0.6,0.6,0.9,1c0.8,1,1.5,2.2,2.2,3.8c-0.5-0.6-3.2-2.8-6-3.9c-1.4,0.4-2.5,0.7-2.5,0.7
							c-1.4,0.4-2.9,0.9-4.4,1.4c1.3,0.8,2.6,1.8,3.9,3.1c1,1,1.9,2.1,2.9,3.5c-2.3-1.6-7.3-4.1-11.5-4.4c-1.7,1-3.4,2.3-5.2,3.7
							c2.7,0.8,5.7,2.5,9.2,5.9c0.6,0.6,1.2,1.2,1.8,1.9c-3.6-2.1-10-3.9-15.1-3.7c-1.5,1.7-3,3.7-4.3,6c3.5-0.2,7.9,0.6,13.7,4.1
							c0.8,0.5,1.6,1,2.4,1.6c-4.8-1.6-14.2-1.9-18.8,0.2c-0.2,0.8-0.9,3.5-0.9,6.5c9.2-1.8,14.6-0.1,20.3,1.4
							c3-23.8,17.7-26.8,32.8-39.8h0C206.4,175,202.1,176.6,196.1,178.4z"/>
						<path class="st7" d="M178.8,115.9c-35.2,0-63.8,28.6-63.8,63.8c0,35.2,28.6,63.8,63.8,63.8s63.8-28.6,63.8-63.8
							C242.6,144.5,214.1,115.9,178.8,115.9z M178.8,236c-1,0-2,0-3-0.1c-0.5-0.1-1.1-0.2-1.7-0.3c-14.5-2.2-20.3-11.3-21.6-19.2
							c-1.7-10.2,2.3-15.7,4.6-19.2c7.2-10.6,17.1-15.3,25.6-17.6c0,0,7.6-2.1,9.6-2.7c9.7-2.4,16-4.9,18.9-6.5
							c2.3-1.3,5.4-3.7,7.2-7.1c0,0,2.5-3.9,2-8.6c-0.6-5.7-4.8-8.7-8.6-8.9c-0.4,0-0.7,0-1.1,0c-1.4,0.1-2.9,0.6-4,1.3
							c-1.1,0.7-2,1.8-2.5,3.1c0,0-0.4,0.9-0.4,1.9v0c0,2.8,2.3,5,5.1,5c2.8,0,5-2.3,5-5c0-0.8-0.2-1.5-0.5-2.2
							c1.3,0.8,2.1,2.2,2.4,3.7c0.1,0.6,0.1,1.2,0.1,1.9c0,0.5-0.1,1.1-0.2,1.6c-0.5,1.8-1.6,3.5-4.6,4.5c-1.2,0.3-2.5,0.6-3.8,0.8
							c0,1.4-0.3,3.1-1.7,5c-0.2,0.3-0.5,0.6-0.8,0.8c0.7-1.7,0.6-3.7,0.3-5.5c-1.6,0.2-3.3,0.3-5.1,0.5c0.3,1.7,0.1,3.9-1.5,6.4
							c-0.2,0.4-0.5,0.7-0.8,1.1c0.7-2.4,0.2-5.2-0.6-7.3c-1.7,0.1-3.4,0.2-5.2,0.2c0.5,2,0.6,4.7-1.3,8c-0.2,0.4-0.6,0.8-0.9,1.3
							c0.8-3.1-0.1-6.7-1.4-9.1c-1.9,0.1-3.9,0.3-5.9,0.4c0.7,2.2,0.9,5.1-0.6,8.7c-0.2,0.5-0.5,1.1-0.9,1.6h0
							c0.4-3.5-0.9-7.2-2.6-9.9c-2.2,0.3-4.4,0.6-6.6,1.1c1.2,2.3,2.1,5.4,1.5,9.7c-0.1,0.6-0.3,1.3-0.5,2
							c-0.5-4.1-2.9-8.1-5.3-10.6c-2.4,0.6-4.7,1.4-7,2.4c1.9,2,3.7,5,4.2,9.6c0.1,0.7,0.1,1.4,0,2.2c-1.6-4.2-5.5-7.8-8.8-9.7
							c-2.2,1.1-4.3,2.4-6.2,3.8c2.5,1.5,5.2,4.1,6.9,8.9c0.2,0.6,0.6,2,0.7,2.9c-2.8-4-8-7.2-11.9-8.3c-2,1.8-3.8,3.6-5.3,5.4
							c3.8,2,8.8,6.2,10.9,11.5v0c-3.6-3.5-10.3-5.5-15.1-5.9c-2.4,3.6-3.5,6.3-3.7,6.7c7.2,1.9,10.7,4.3,12.4,6.3v0
							c1.5,1.5,1.1,3.3,1.1,3.3c-0.2,1.1-0.4,2.1-0.5,3.1c-1,6.9-0.5,12.2,1.1,16.5c-14.5-10.2-24-27.1-24-46.2
							c0-31.2,25.3-56.5,56.5-56.5c31.2,0,56.4,25.3,56.4,56.5C235.2,210.7,209.9,236,178.8,236z"/>
					</g>
					<g>
						<g>
							<path class="st8" d="M102.9,147.5c-0.8-0.4-1.2-1.2-0.8-1.9c0.4-0.8,1.2-1,1.8-0.7c0.3,0.1,0.5,0.3,0.6,0.5
								c0.5-0.3,1-0.9,1.4-1.6c0.6-1.3,0.4-2.4-0.6-2.9c-1-0.5-1.9,0.3-2.9,1.3c-1.9,1.8-3.3,3-5.5,2c-1.9-0.9-2.6-3.2-1.5-5.6
								c1.1-2.2,3-3.4,4.5-2.7c0.8,0.4,1.1,1.2,0.8,1.9c-0.4,0.8-1.2,1-1.8,0.7c-0.3-0.1-0.4-0.3-0.5-0.4c-0.4,0.2-0.8,0.7-1.1,1.4
								c-0.6,1.2-0.3,2.1,0.6,2.6c1,0.5,1.9-0.3,2.9-1.3c1.8-1.8,3.3-3,5.5-1.9c2.3,1.1,2.7,3.5,1.5,5.9
								C106.5,147,104.3,148.2,102.9,147.5z"/>
							<path class="st8" d="M108.7,137.8l0.9-1.4l-7.7-4.9l-0.9,1.4l-1.7-1.1l2.9-4.6l1.7,1.1l-0.9,1.4l7.7,4.9l0.9-1.4l1.7,1.1
								l-2.9,4.6L108.7,137.8z"/>
							<path class="st8" d="M112.5,131.7l0.9-1.2l-7.1-5.7l-0.9,1.2l-1.6-1.3l3.5-4.3l1.6,1.3l-1.1,1.4l7.1,5.7l2.3-2.8l-1.5-1.2
								l1.4-1.7l3,2.4l-6,7.5L112.5,131.7z"/>
							<path class="st8" d="M113,116.7l-0.9,0.8l-1.4-1.5l3.8-3.6l1.4,1.5l-1,0.9l7,3.3l-2.9-7.2l-1.1,1l-1.4-1.5l3.8-3.6l1.4,1.5
								l-0.9,0.8l4.2,11.5l-0.9,0.9L113,116.7z"/>
							<path class="st8" d="M129.1,114.5l1.2-0.8l-5.1-7.6l-1.2,0.8l-1.1-1.7l8.1-5.5l2.1,3.1l-1.8,1.2l-1-1.5l-3.2,2.2l2,2.9
								l3.3-2.2l1.1,1.6l-3.3,2.2l2.1,3.1l3.2-2.2l-1-1.5l1.8-1.2l2.1,3.1l-8.2,5.5L129.1,114.5z"/>
							<path class="st8" d="M138.9,108l1.4-0.6l-3.9-8.2l-1.4,0.6l-0.9-1.8l4.6-2.2c2.7-1.3,5.2-1.1,6.4,1.4
								c0.7,1.5,0.4,3.2-0.7,4.3l3.4,2.4l1.4-0.6l0.9,1.8l-2.7,1.3l-4.5-3.4c-0.2,0.1-0.5,0.3-0.7,0.4c-0.4,0.2-0.7,0.3-1,0.4
								l1.3,2.7l1.5-0.7l0.9,1.8l-4.9,2.3L138.9,108z M143,98.1c-0.6-1.2-1.9-1.3-3.6-0.6l-1.1,0.5l1.8,3.8c0.2-0.1,0.5-0.2,1.2-0.5
								C142.8,100.7,143.6,99.4,143,98.1z"/>
							<path class="st8" d="M154.8,101.1l1.5-0.4l-2.2-8.9l-1.5,0.4l-0.5-2l9.4-2.3l0.9,3.7l-2.1,0.5l-0.4-1.7l-3.7,0.9l0.9,3.7
								l3.8-0.9l0.5,1.9l-3.8,0.9l0.8,3.3l1.7-0.4l0.5,2l-5.3,1.3L154.8,101.1z"/>
							<path class="st8" d="M165.9,98.5l1.5-0.1l-0.9-9.1l-1.5,0.1l-0.2-2l9.8-0.9l0.4,3.7l-2.2,0.2l-0.2-1.8l-3.9,0.4l0.3,3.5
								l4-0.4l0.2,1.9l-4,0.4l0.4,3.7l3.9-0.4l-0.2-1.8l2.2-0.2l0.4,3.7l-9.8,0.9L165.9,98.5z"/>
							<path class="st8" d="M177.6,97.6l1.5,0.1l0.4-9.1l-1.5-0.1l0.1-2l5.1,0.2c3,0.1,5.1,1.5,5,4.2c-0.1,1.7-1.2,3-2.6,3.5
								l1.9,3.7l1.5,0.1l-0.1,2l-3-0.1l-2.4-5.1c-0.3,0-0.5,0-0.8,0c-0.4,0-0.8,0-1.1-0.1l-0.1,3l1.6,0.1l-0.1,2l-5.4-0.2
								L177.6,97.6z M185.8,90.8c0.1-1.4-1-2.1-2.9-2.2l-1.2-0.1l-0.2,4.2c0.2,0,0.6,0.1,1.3,0.1C184.5,93,185.8,92.2,185.8,90.8z"
								/>
							<path class="st8" d="M195.4,92.1l-1.6,6.9l1.6,0.4l-0.4,2l-5.2-1.2l0.4-2l1.5,0.3l2-8.9l-1.5-0.3l0.4-2l3.3,0.8l4.5,9.5
								l1.4-6.1l-1.6-0.4l0.4-2l5.2,1.2l-0.4,2L204,92l-2.5,10.9l-1.2-0.2L195.4,92.1z"/>
							<path class="st8" d="M209.3,103.4l1.4,0.6l3.9-8.2l-1.4-0.6l0.9-1.8l8.8,4.2l-1.6,3.4l-2-0.9l0.8-1.6l-3.4-1.6l-1.6,3.4
								l3.5,1.7l-0.8,1.8l-3.5-1.7l-1.5,3.1l1.6,0.8l-0.9,1.8l-5-2.4L209.3,103.4z"/>
							<path class="st8" d="M217.9,107.4l1,0.6l7.8-5.8l-1.2-0.8l1.1-1.7l6.2,4.1l-1.1,1.7l-1.2-0.8l-2.3,9.4l1,0.6l-1.1,1.7
								l-4.2-2.8l1.1-1.7l1.3,0.8l0.6-2.2l-4.1-2.7l-1.8,1.4l1.3,0.9l-1.1,1.7l-4.2-2.8L217.9,107.4z M227.3,108.8l1.3-5.3l-4.4,3.3
								L227.3,108.8z"/>
							<path class="st8" d="M230,115.7l1.1,1l6.2-6.7l-1.1-1l1.4-1.5l3.7,3.5c2.2,2.1,2.9,4.5,1.1,6.4c-1.2,1.2-2.8,1.5-4.3,0.9
								l-1,4l1.1,1l-1.4,1.5l-2.2-2.1l1.5-5.5c-0.2-0.2-0.4-0.3-0.6-0.5c-0.3-0.3-0.6-0.5-0.8-0.8l-2,2.2l1.2,1.1l-1.4,1.5l-4-3.7
								L230,115.7z M240.7,115.9c0.9-1,0.6-2.3-0.8-3.5l-0.9-0.8l-2.9,3.1c0.2,0.2,0.4,0.4,0.9,0.9
								C238.3,116.7,239.7,116.9,240.7,115.9z"/>
							<path class="st8" d="M239.2,124.1l0.9,1.3l7.6-5.1l-1-1.3l1.6-1.2l2.1,2.9l-3.5,7.6l8.3-1.1l2.1,2.9l-1.6,1.2l-1-1.3
								l-7.1,5.8l0.9,1.3l-1.6,1.2l-3.2-4.3l1.6-1.2l0.9,1.3l5.3-4.3l-7.5,0.9l-0.2-0.2l3.1-7l-5.6,3.8l0.9,1.3l-1.6,1.2l-3.2-4.3
								L239.2,124.1z"/>
							<path class="st8" d="M249.9,137.9c0.8-0.4,1.6-0.2,2,0.5c0.4,0.8,0.1,1.6-0.5,1.9c-0.3,0.1-0.5,0.2-0.8,0.2
								c-0.1,0.6,0,1.3,0.4,2.1c0.6,1.3,1.6,1.8,2.7,1.3c1-0.5,0.9-1.7,0.8-3.1c-0.3-2.6-0.4-4.5,1.8-5.6c1.9-0.9,4.1-0.2,5.3,2.2
								c1.1,2.2,0.8,4.5-0.6,5.2c-0.8,0.4-1.6,0.1-1.9-0.5c-0.4-0.8,0-1.6,0.6-1.9c0.3-0.1,0.4-0.2,0.6-0.2c0-0.4-0.1-1-0.4-1.7
								c-0.6-1.2-1.5-1.5-2.4-1.1c-1,0.5-0.9,1.7-0.7,3.1c0.3,2.5,0.4,4.4-1.8,5.5c-2.2,1.1-4.4,0-5.6-2.4
								C248.1,141.1,248.5,138.6,249.9,137.9z"/>
						</g>
					</g>
					<g>
						<g>
							<path class="st8" d="M91.2,188.9c2.7-0.4,5,1.1,5.5,3.9c0.5,2.7-1.3,5-3.9,5.4c-2.7,0.4-5-1.1-5.5-3.9
								C86.8,191.5,88.6,189.3,91.2,188.9z M92.5,196.6c1.9-0.3,3-1.8,2.7-3.6c-0.3-1.8-1.9-2.8-3.8-2.5c-1.9,0.3-3,1.8-2.7,3.6
								C89,195.8,90.6,196.9,92.5,196.6z"/>
							<path class="st8" d="M92.3,201.4l4.2-1.3l-0.3-1l1.4-0.4l1.1,3.5l-1.4,0.4l-0.3-1.1l-4.2,1.3c-1.4,0.4-1.9,1.3-1.5,2.4
								c0.3,1.1,1.2,1.6,2.6,1.2l4.2-1.3l-0.3-1.1l1.4-0.4l1.1,3.5l-1.4,0.4l-0.3-1l-4.2,1.3c-2.3,0.7-3.8-0.3-4.4-2.3
								C89.4,203.8,90.1,202.1,92.3,201.4z"/>
							<path class="st8" d="M93.6,211.6l0.4,1l5.9-2.5l-0.4-1l1.3-0.6l1.4,3.3c0.8,1.9,0.6,3.7-1.1,4.4c-1.1,0.5-2.2,0.2-3-0.6
								l-1.7,2.3l0.4,1l-1.3,0.6l-0.8-2l2.5-3.1c-0.1-0.2-0.2-0.3-0.2-0.5c-0.1-0.3-0.2-0.5-0.3-0.7l-1.9,0.8l0.5,1.1l-1.3,0.6
								l-1.5-3.5L93.6,211.6z M100.3,214.7c0.9-0.4,1-1.3,0.5-2.5l-0.3-0.8l-2.7,1.2c0.1,0.2,0.1,0.4,0.3,0.8
								C98.6,214.6,99.4,215.1,100.3,214.7z"/>
							<path class="st8" d="M100.1,223.9c0.6-0.3,1.1-0.2,1.4,0.2c0.3,0.5,0.1,1.1-0.2,1.3c-0.2,0.1-0.4,0.2-0.5,0.2
								c0,0.4,0.1,0.9,0.4,1.4c0.5,0.9,1.3,1.2,1.9,0.7c0.6-0.4,0.5-1.2,0.3-2.2c-0.4-1.8-0.6-3.1,0.9-4c1.2-0.8,2.9-0.4,3.8,1.2
								c0.9,1.5,0.9,3.1-0.1,3.6c-0.6,0.3-1.1,0.2-1.4-0.2c-0.3-0.5-0.1-1.1,0.3-1.4c0.2-0.1,0.3-0.1,0.4-0.1c0-0.3-0.1-0.7-0.4-1.2
								c-0.5-0.8-1.2-1-1.7-0.6c-0.6,0.4-0.5,1.2-0.3,2.2c0.4,1.7,0.5,3.1-0.9,4c-1.5,0.9-3,0.3-4-1.3
								C99,226.3,99.1,224.5,100.1,223.9z"/>
							<path class="st8" d="M106.4,231.2l3.5-2.7l-0.6-0.8l1.1-0.9l2.3,2.9l-1.1,0.9l-0.7-0.9l-3.4,2.7c-1.1,0.9-1.3,1.9-0.5,2.8
								c0.7,0.9,1.7,1.1,2.8,0.2l3.5-2.7l-0.7-0.9l1.1-0.9l2.3,2.9l-1.1,0.9l-0.6-0.8l-3.5,2.7c-1.9,1.5-3.7,1.1-4.9-0.5
								C104.5,234.5,104.6,232.7,106.4,231.2z"/>
							<path class="st8" d="M111.5,239.7c0.5-0.5,1.1-0.5,1.5-0.1c0.4,0.4,0.4,1,0.1,1.4c-0.2,0.2-0.3,0.2-0.5,0.3
								c0.1,0.4,0.3,0.9,0.7,1.3c0.7,0.7,1.5,0.9,2,0.3c0.5-0.5,0.3-1.3-0.1-2.2c-0.8-1.7-1.2-2.9,0-4.1c1.1-1,2.7-1,4,0.4
								c1.2,1.2,1.5,2.8,0.7,3.6c-0.5,0.5-1,0.4-1.4,0.1c-0.4-0.5-0.4-1.1,0-1.4c0.2-0.2,0.3-0.2,0.4-0.2c-0.1-0.3-0.2-0.7-0.6-1.1
								c-0.6-0.7-1.3-0.7-1.8-0.2c-0.5,0.5-0.2,1.3,0.2,2.2c0.7,1.6,1.2,2.9,0,4.1c-1.3,1.2-2.9,0.9-4.2-0.4
								C111,242.3,110.7,240.5,111.5,239.7z"/>
							<path class="st8" d="M118.7,247.5l0.9,0.7l4.1-4.9l-1.3-1.1l-0.9,1.1l-1.1-1l1.8-2.2l6.1,5.1l-1.8,2.2l-1.1-1l0.9-1.1
								l-1.3-1.1l-4.1,4.9l0.9,0.7l-0.9,1.1l-3-2.5L118.7,247.5z"/>
							<path class="st8" d="M124.1,252l0.7,0.4l5.5-4l-0.8-0.6l0.8-1.2l4.3,2.9l-0.8,1.2l-0.8-0.6l-1.7,6.6l0.7,0.4l-0.8,1.2l-2.9-2
								l0.8-1.2l0.9,0.6l0.4-1.5l-2.9-1.9l-1.3,1l0.9,0.6l-0.8,1.2l-2.9-2L124.1,252z M130.6,252.9l1-3.7l-3.1,2.3L130.6,252.9z"/>
							<path class="st8" d="M133.5,258.1l1,0.5l3.1-5.6l-1-0.5l0.7-1.2l3.4,1.8l-0.7,1.2l-1-0.5l-3.1,5.6l1,0.5l-0.7,1.2l-3.4-1.8
								L133.5,258.1z"/>
							<path class="st8" d="M143.2,257.4l-1.9,4.5l1.1,0.4l-0.6,1.3l-3.4-1.5l0.6-1.3l1,0.4l2.5-5.9l-1-0.4l0.6-1.3l2.2,0.9l1.9,7.1
								l1.7-4l-1.1-0.4l0.6-1.3l3.4,1.4l-0.6,1.3l-0.9-0.4l-3.1,7.2l-0.8-0.3L143.2,257.4z"/>
							<path class="st8" d="M149.4,265.3l0.8,0.2l4-5.5l-1-0.3l0.4-1.3l5,1.4l-0.4,1.3l-1-0.3l0.5,6.8l0.8,0.2l-0.4,1.4l-3.4-1
								l0.4-1.3l1,0.3l-0.1-1.6l-3.3-0.9l-0.9,1.3l1.1,0.3l-0.4,1.3l-3.4-1L149.4,265.3z M155.9,264.2l-0.3-3.8l-2.2,3.1
								L155.9,264.2z"/>
							<path class="st8" d="M160.4,268.2l1,0.2l1-6.3l-1-0.2l0.2-1.4l3.6,0.6c2.2,0.4,3.1,1.6,2.9,2.9c-0.2,1-0.9,1.6-1.9,1.8
								c1.1,0.5,1.6,1.3,1.5,2.4c-0.2,1.5-1.6,2.3-3.8,2l-3.8-0.6L160.4,268.2z M164.2,268.9c1.1,0.2,1.9-0.1,2-1
								c0.1-0.8-0.4-1.4-1.6-1.6l-1.2-0.2l-0.4,2.6L164.2,268.9z M164.6,265c1.1,0.2,1.8-0.2,1.9-1c0.1-0.8-0.4-1.3-1.5-1.5l-1-0.2
								l-0.4,2.5L164.6,265z"/>
							<path class="st8" d="M169.8,269.7l1,0.1l0.4-6.4l-1-0.1l0.1-1.4l3.8,0.2l-0.1,1.4l-1.2-0.1l-0.4,6.4l2.5,0.2l0.1-1.3l1.5,0.1
								l-0.2,2.7l-6.7-0.4L169.8,269.7z"/>
							<path class="st8" d="M178.7,270.1l1,0l-0.2-6.4l-1,0l-0.1-1.4l6.9-0.3l0.1,2.6l-1.5,0.1l0-1.2l-2.7,0.1l0.1,2.5l2.8-0.1
								l0,1.3l-2.8,0.1l0.1,2.6l2.7-0.1l0-1.2l1.5-0.1l0.1,2.6l-6.9,0.3L178.7,270.1z"/>
							<path class="st8" d="M191.5,266c-0.5-2.7,1.2-5.1,3.8-5.6c2.1-0.4,3.7,0.4,3.9,1.5c0.1,0.7-0.2,1.2-0.8,1.3
								c-0.6,0.1-1.1-0.2-1.2-0.8c0-0.2,0-0.4,0-0.5c-0.3-0.2-0.9-0.3-1.7-0.1c-1.8,0.3-2.8,2-2.5,3.8c0.4,1.8,1.9,3,3.8,2.6
								c1.1-0.2,1.8-0.8,2.4-1.7l1.2,0.9c-0.7,1.1-1.9,2-3.3,2.3C194.4,270.3,192.1,268.8,191.5,266z"/>
							<path class="st8" d="M203,266.9l1-0.3l-2-6.1l-1,0.3l-0.4-1.3l3.6-1.2l0.4,1.3l-1.1,0.4l0.8,2.3l4-1.3l-0.8-2.3l-1.1,0.4
								l-0.4-1.3l3.6-1.2l0.4,1.3l-1,0.3l2,6.1l1-0.3l0.4,1.3l-3.6,1.2l-0.4-1.3l1.1-0.4l-0.8-2.4l-4,1.3l0.8,2.4l1.1-0.4l0.4,1.3
								l-3.6,1.2L203,266.9z"/>
							<path class="st8" d="M213.9,263.2l0.7-0.3l-0.7-6.8l-0.9,0.4l-0.6-1.3l4.7-2.2l0.6,1.3l-0.9,0.4l4.8,4.8l0.7-0.3l0.6,1.3
								l-3.2,1.5l-0.6-1.3l1-0.5L219,259l-3.1,1.5l0.2,1.6l1-0.5l0.6,1.3l-3.2,1.5L213.9,263.2z M218,258l-2.7-2.7l0.4,3.8L218,258z
								"/>
							<path class="st8" d="M223.9,258.1l1-0.6l-3.3-5.5l-1,0.6l-0.7-1.2l3.3-2l0.7,1.2l-1,0.6l3.3,5.5l1-0.6l0.7,1.2l-3.3,2
								L223.9,258.1z"/>
							<path class="st8" d="M228.3,249.5l2.9,4l0.9-0.7l0.8,1.1l-3,2.2l-0.8-1.1l0.8-0.6l-3.8-5.1l-0.8,0.6l-0.8-1.1l1.9-1.4l7.1,2
								l-2.6-3.5l-0.9,0.7l-0.8-1.1l3-2.2l0.8,1.1l-0.8,0.6l4.6,6.3l-0.7,0.5L228.3,249.5z"/>
							<path class="st8" d="M239.3,242.9c-2-1.9-2.1-4.7-0.2-6.7c1.9-2,4.7-2,6.7-0.1c2,1.9,2.1,4.7,0.2,6.7
								C244.1,244.8,241.2,244.7,239.3,242.9z M244.7,237.2c-1.4-1.3-3.3-1.3-4.5,0c-1.2,1.3-1.1,3.2,0.3,4.5c1.4,1.3,3.3,1.3,4.5,0
								C246.2,240.4,246.1,238.6,244.7,237.2z"/>
							<path class="st8" d="M249.6,236.3l0.6-0.8l-5.1-3.8l-0.6,0.8l-1.1-0.9l4.1-5.4l2.1,1.6l-0.9,1.2l-1-0.7l-1.6,2.1l2.1,1.6
								l1.6-2.2l1.1,0.8l-1.6,2.2l1.9,1.4l0.7-1l1.1,0.9l-2.3,3.1L249.6,236.3z"/>
							<path class="st8" d="M254.4,224c-2.4-1.3-3.2-4.1-1.9-6.5c1-1.9,2.7-2.6,3.6-2.1c0.6,0.3,0.8,0.9,0.5,1.4
								c-0.3,0.6-0.8,0.8-1.4,0.5c-0.2-0.1-0.3-0.2-0.4-0.3c-0.3,0.1-0.7,0.5-1.1,1.2c-0.8,1.6-0.3,3.4,1.4,4.3
								c1.6,0.9,3.5,0.4,4.5-1.3c0.5-1,0.5-2,0.2-2.9l1.5-0.4c0.5,1.3,0.4,2.7-0.3,4C259.6,224.4,257,225.3,254.4,224z"/>
							<path class="st8" d="M262,216.4l0.3-0.7l-5.1-4.5l-0.4,0.9l-1.3-0.5l1.9-4.9l1.3,0.5l-0.4,0.9l6.8,0.2l0.3-0.7l1.3,0.5
								l-1.3,3.3l-1.3-0.5l0.4-1l-1.6-0.1l-1.3,3.2l1.2,1l0.4-1l1.3,0.5l-1.3,3.3L262,216.4z M261.6,209.8l-3.8-0.1l2.9,2.5
								L261.6,209.8z"/>
							<path class="st8" d="M266,205.7l0.3-1l-6.2-1.6l-0.3,1l-1.4-0.4l0.9-3.5c0.5-2,1.8-3.3,3.6-2.8c1.2,0.3,1.8,1.2,2,2.3
								l2.8-0.7l0.3-1l1.4,0.4l-0.5,2.1l-3.9,0.9c0,0.2-0.1,0.4-0.1,0.5c-0.1,0.3-0.1,0.5-0.2,0.7l2,0.5l0.3-1.1l1.4,0.4l-1,3.7
								L266,205.7z M262.6,199.1c-0.9-0.2-1.6,0.4-1.9,1.6l-0.2,0.8l2.9,0.7c0.1-0.2,0.1-0.4,0.3-0.9
								C263.9,200.3,263.6,199.3,262.6,199.1z"/>
							<path class="st8" d="M268.4,196.1l0.2-1l-6.3-1l-0.2,1l-1.4-0.2l1-6.8l2.6,0.4l-0.2,1.5l-1.2-0.2l-0.4,2.7l2.4,0.4l0.4-2.8
								l1.3,0.2l-0.4,2.8l2.6,0.4l0.4-2.7l-1.2-0.2l0.2-1.5l2.6,0.4l-1,6.8L268.4,196.1z"/>
						</g>
					</g>
					<g>
						<defs>
							<polygon id="SVGID_1_" points="271.3,179.1 176.3,162.3 81.5,181.7 81.5,149.7 178.3,187.7 271.3,150.8 							"/>
						</defs>
						<clipPath id="SVGID_2_">
							<use xlink:href="#SVGID_1_"  style="overflow:visible;"/>
						</clipPath>
						<circle class="st9" cx="178.7" cy="178.7" r="86.5"/>
					</g>
				</g>
			</g>
		</g>
		<g id="Artwork_18">
			<g>
				<defs>
					
						<rect id="SVGID_3_" x="15.2" y="137.8" transform="matrix(9.757598e-02 -0.9952 0.9952 9.757598e-02 -125.5104 182.0967)" width="45" height="45"/>
				</defs>
				<clipPath id="SVGID_4_">
					<use xlink:href="#SVGID_3_"  style="overflow:visible;"/>
				</clipPath>
				<g class="st10">
					<defs>
						
							<rect id="SVGID_5_" x="15.2" y="137.8" transform="matrix(9.757598e-02 -0.9952 0.9952 9.757598e-02 -125.5104 182.0967)" width="45" height="45"/>
					</defs>
					<clipPath id="SVGID_6_">
						<use xlink:href="#SVGID_5_"  style="overflow:visible;"/>
					</clipPath>
					<path class="st11" d="M35.1,138.4c1.5-0.2,3.1-0.2,4.7,0c12.1,1.2,21,12,19.8,24.1c-0.2,1.6-0.5,3.1-0.9,4.6l0.3,0.4
						c0.5-1.6,0.9-3.2,1.1-4.9c1.2-12.3-7.9-23.4-20.2-24.6c-1.7-0.2-3.4-0.1-5,0.1L35.1,138.4z"/>
					<path class="st11" d="M39.9,182.2c-1.4,0.1-2.9,0.2-4.4,0c-12.1-1.2-21-12-19.8-24.1c0.1-1.5,0.4-2.9,0.9-4.3l-0.3-0.4
						c-0.5,1.5-0.8,3-1,4.7c-1.2,12.3,7.9,23.4,20.2,24.6c1.6,0.2,3.2,0.1,4.8,0L39.9,182.2z"/>
					<path class="st11" d="M50.3,148.8c-0.2,0-5-0.5-5.3-0.5c-1.6-0.2-2.4,0.2-3,1.7c-0.2,0.4-0.4,0.9-0.6,1.4
						c-0.2,0.4-0.4,0.9-0.6,1.4c-0.3,0.6-0.5,1.1-0.8,1.5c-0.2,0.3-0.4,0.5-0.8,0.5c-0.4,0-0.6-0.3-0.9-0.5
						c-1.3-1.5-2.8-2.1-4.5-2.1c-1.6,0.1-3,1.4-3.1,2.8c-0.1,1.6,1,3.1,2.6,3.5c1.7,0.4,3.3,0,4.8-1.1c0.3-0.2,0.6-0.3,0.9-0.2
						c0.2,0,0.4,0.2,0.6,0.5c0.3,0.6,0.8,2.4,0.9,2.9l-0.8,0.2c-0.2-0.6-0.6-2.3-0.9-2.7c0-0.1-0.1-0.1-0.1-0.1c0,0-0.1,0-0.2,0.1
						c-1.7,1.3-3.6,1.7-5.4,1.3c-2-0.4-3.4-2.3-3.2-4.3c0,0,0,0,0,0c0.2-1.9,1.9-3.4,3.9-3.5c1.9-0.1,3.6,0.7,5.1,2.3
						c0.1,0.1,0.2,0.2,0.2,0.2c0,0,0.1-0.1,0.2-0.2c0.3-0.3,0.5-0.8,0.7-1.3c0.2-0.4,0.4-0.9,0.5-1.3c0.2-0.5,0.4-0.9,0.6-1.4
						c0.8-1.8,1.9-2.4,3.9-2.2c0.2,0,3.5,0.3,5.2,0.5L50.3,148.8z"/>
				</g>
				<g class="st10">
					<defs>
						<path id="SVGID_7_" d="M37.3,166.7c0.3,0.5,0.9,0.4,1.1,0.9c0.3,1.1,0.1,0.6,0.4,1.7c0.3,1,0.3,3.2,1.3,3.7
							c3.2,1.6,12.5,1.5,12.8,1.3l1.9-16.4c-0.4,0-10.6-1.1-10.9-1.2c-1.8-0.2-2.7,0.5-3.4,2.2c-0.4,0.9-0.4,1.4-0.8,2.3
							c-0.2,0.5-0.3,1.2-0.6,1.6c-0.2,0.2-0.6,0.4-0.6,0.9c0,0.1,0,0.5,0.7,0c0.3-0.3-0.2,0.6-0.8,1.5
							C37.8,165.9,37.4,166.5,37.3,166.7C37.3,166.7,37.3,166.7,37.3,166.7"/>
					</defs>
					<clipPath id="SVGID_8_">
						<use xlink:href="#SVGID_7_"  style="overflow:visible;"/>
					</clipPath>
					
						<rect x="30" y="172.5" transform="matrix(0.7727 -0.6347 0.6347 0.7727 -99.6078 67.1494)" class="st12" width="27.9" height="0.4"/>
					
						<rect x="31.1" y="173.8" transform="matrix(0.7727 -0.6347 0.6347 0.7727 -100.2156 68.1648)" class="st12" width="27.9" height="0.4"/>
					
						<rect x="28.4" y="170.6" transform="matrix(0.7727 -0.6347 0.6347 0.7727 -98.5406 66.439)" class="st12" width="30.2" height="0.4"/>
					
						<rect x="27" y="168.5" transform="matrix(0.7727 -0.6347 0.6347 0.7727 -97.261 65.8558)" class="st12" width="32.6" height="0.4"/>
					
						<rect x="25.8" y="166.7" transform="matrix(0.7727 -0.6347 0.6347 0.7727 -96.2167 65.1317)" class="st12" width="34.1" height="0.4"/>
					
						<rect x="24.9" y="166.1" transform="matrix(0.7727 -0.6347 0.6347 0.7727 -96.2362 63.7709)" class="st12" width="32.1" height="0.4"/>
					
						<rect x="24.1" y="166" transform="matrix(0.7727 -0.6347 0.6347 0.7727 -96.7477 62.1156)" class="st12" width="28.5" height="0.4"/>
					
						<rect x="23" y="164.7" transform="matrix(0.7727 -0.6347 0.6347 0.7727 -96.1758 61.1088)" class="st12" width="28.5" height="0.4"/>
					
						<rect x="22" y="163.4" transform="matrix(0.7727 -0.6347 0.6347 0.7727 -95.6038 60.102)" class="st12" width="28.3" height="0.4"/>
					
						<rect x="20.8" y="162.1" transform="matrix(0.7727 -0.6347 0.6347 0.7727 -95.0308 59.0938)" class="st12" width="28.3" height="0.4"/>
					
						<rect x="19.7" y="160.7" transform="matrix(0.7727 -0.6347 0.6347 0.7727 -94.4597 58.0884)" class="st12" width="28.3" height="0.4"/>
					
						<rect x="18.6" y="159.4" transform="matrix(0.7727 -0.6347 0.6347 0.7727 -93.8867 57.0804)" class="st12" width="28.3" height="0.4"/>
				</g>
				<g class="st10">
					<defs>
						
							<rect id="SVGID_9_" x="15.2" y="137.8" transform="matrix(9.757598e-02 -0.9952 0.9952 9.757598e-02 -125.5104 182.0967)" width="45" height="45"/>
					</defs>
					<clipPath id="SVGID_10_">
						<use xlink:href="#SVGID_9_"  style="overflow:visible;"/>
					</clipPath>
					<path class="st13" d="M55.3,157.9l-0.1,0.8l-1.5-0.1c-4.9-0.5-9.4-0.9-9.6-0.9c-1.6-0.2-2.4,0.2-3,1.7
						c-0.2,0.4-0.4,0.9-0.6,1.4c-0.2,0.4-0.4,0.9-0.6,1.4c-0.3,0.6-0.5,1.1-0.8,1.5c-0.2,0.3-0.4,0.5-0.8,0.5
						c-0.4,0-0.6-0.3-0.9-0.5c-1.3-1.5-2.8-2.1-4.5-2.1c-1.6,0.1-3,1.4-3.1,2.8c0,0,0,0,0,0c-0.1,1.6,1,3.1,2.6,3.5
						c1.7,0.4,3.3,0,4.8-1.1c0.3-0.2,0.6-0.3,0.9-0.2c0.2,0,0.4,0.2,0.6,0.5c0.3,0.6,0.5,1.2,0.7,1.8c0.1,0.5,0.2,1.1,0.3,1.6
						c0.1,0.6,0.2,1.2,0.4,1.8c0.2,0.7,0.7,1.1,1.8,1.2c0.6,0.1,6.2,0.6,6.2,0.6l-0.1,0.8c-0.2,0-5.7-0.5-6.2-0.6
						c-1-0.1-2.1-0.4-2.5-1.8c-0.2-0.6-0.3-1.3-0.4-1.9c-0.1-0.5-0.2-1.1-0.3-1.6c-0.1-0.5-0.3-1-0.6-1.6c0-0.1-0.1-0.1-0.1-0.1
						c0,0-0.1,0-0.2,0.1c-1.7,1.3-3.6,1.7-5.4,1.3c-2-0.4-3.4-2.3-3.2-4.3c0,0,0,0,0,0c0.2-1.9,1.9-3.4,3.9-3.5
						c1.9-0.1,3.6,0.7,5.1,2.3c0.1,0.1,0.2,0.2,0.2,0.2c0,0,0.1-0.1,0.2-0.2c0.3-0.3,0.5-0.8,0.7-1.3c0.2-0.4,0.4-0.9,0.5-1.3
						c0.2-0.5,0.4-0.9,0.6-1.4c0.8-1.8,1.9-2.4,3.9-2.2c0.2,0,6.8,0.7,9.6,0.9L55.3,157.9z"/>
					<path class="st13" d="M54.3,161.8c-0.5,5.5-3.7,10.1-8.1,12.7l1.8,0.2c4.1-2.9,6.9-7.5,7.4-12.8c0.1-1.3,0.1-2.7-0.1-4
						l-1.2-0.1C54.4,159,54.4,160.4,54.3,161.8"/>
					<path class="st13" d="M19.8,158.4c-1,9.8,6.2,18.6,16.1,19.6c3.7,0.4,7.2-0.4,10.3-2.1l-2.2-0.2c-2.4,1-5.1,1.4-7.9,1.2
						c-9.2-0.9-15.9-9.1-15-18.3s9.1-15.9,18.3-15c7.4,0.7,13.1,6.1,14.7,12.9l1.2,0.1c-1.5-7.5-7.8-13.4-15.8-14.2
						C29.5,141.3,20.8,148.6,19.8,158.4"/>
				</g>
			</g>
		</g>
		<g id="Artwork_20">
			<g>
				<defs>
					
						<rect id="SVGID_11_" x="227.1" y="279.7" transform="matrix(0.8396 -0.5432 0.5432 0.8396 -124.2205 184.2434)" width="45.5" height="45.5"/>
				</defs>
				<clipPath id="SVGID_12_">
					<use xlink:href="#SVGID_11_"  style="overflow:visible;"/>
				</clipPath>
				<g class="st14">
					<defs>
						
							<rect id="SVGID_13_" x="227.1" y="279.7" transform="matrix(0.8396 -0.5432 0.5432 0.8396 -124.2205 184.2434)" width="45.5" height="45.5"/>
					</defs>
					<clipPath id="SVGID_14_">
						<use xlink:href="#SVGID_13_"  style="overflow:visible;"/>
					</clipPath>
					<path class="st15" d="M267.8,288.7c7.6,9.8,5.8,24-4,31.6c-9.8,7.6-24,5.8-31.6-4c-7.6-9.8-5.8-24,4-31.6
						C246,277.1,260.2,278.9,267.8,288.7z"/>
					<path class="st16" d="M257.6,286.3l1.4,2.1c1.9,1.3,3.6,2.9,5,5c5.1,7.8,2.8,18.3-5,23.4c-7.8,5.1-18.3,2.8-23.4-5
						c-5.1-7.8-2.8-18.3,5-23.4c2.3-1.5,4.8-2.3,7.3-2.6l2-1.3c-3.4,0-6.8,0.9-9.9,2.9c-8.4,5.4-10.8,16.6-5.4,25
						c5.4,8.4,16.6,10.8,25,5.4c8.4-5.4,10.8-16.6,5.4-25C263,289.8,260.5,287.7,257.6,286.3"/>
					<line class="st17" x1="242.7" y1="315.9" x2="256.4" y2="318.8"/>
					<line class="st17" x1="242.9" y1="313.9" x2="259" y2="317.4"/>
					<line class="st17" x1="243.5" y1="311.7" x2="261.5" y2="315.6"/>
					<line class="st17" x1="243.9" y1="309.5" x2="263.4" y2="313.7"/>
					<line class="st17" x1="244.4" y1="307.5" x2="264.8" y2="311.9"/>
					<line class="st17" x1="244.6" y1="305.6" x2="266" y2="310.1"/>
					<line class="st17" x1="245.2" y1="303.4" x2="266.5" y2="307.9"/>
					<line class="st17" x1="245.6" y1="301.2" x2="266.7" y2="305.7"/>
					<line class="st17" x1="246.1" y1="299.2" x2="267.1" y2="303.7"/>
					<line class="st17" x1="250.9" y1="298.2" x2="267.3" y2="301.7"/>
					<line class="st17" x1="251.2" y1="295.9" x2="266.8" y2="299.3"/>
					<line class="st17" x1="251.7" y1="293.7" x2="266.4" y2="296.9"/>
					<line class="st17" x1="252.1" y1="291.7" x2="265.4" y2="294.6"/>
					<line class="st17" x1="252.3" y1="289.8" x2="263.9" y2="292.3"/>
					<polygon class="st16" points="256.3,289 257.4,289.2 253.9,283.9 248.6,287.3 249.7,287.6 253.2,285.3 250.1,299.4 
						245.6,298.5 241.7,318.6 242.5,318.8 246.3,299.4 250.7,300.4 254,285.5 					"/>
					<polygon class="st18" points="256.3,289 257.4,289.2 253.9,283.9 248.6,287.3 249.7,287.6 253.2,285.3 250.1,299.4 
						245.6,298.5 241.7,318.6 242.5,318.8 246.3,299.4 250.7,300.4 254,285.5 					"/>
				</g>
			</g>
		</g>
		<g id="Artwork_19">
			<g>
				<defs>
					
						<rect id="SVGID_15_" x="211.6" y="21.2" transform="matrix(0.4451 -0.8955 0.8955 0.4451 89.2574 240.3155)" width="53.8" height="53.8"/>
				</defs>
				<clipPath id="SVGID_16_">
					<use xlink:href="#SVGID_15_"  style="overflow:visible;"/>
				</clipPath>
				<g class="st19">
					<defs>
						
							<rect id="SVGID_17_" x="211.6" y="21.2" transform="matrix(0.4451 -0.8955 0.8955 0.4451 89.2574 240.3155)" width="53.8" height="53.8"/>
					</defs>
					<clipPath id="SVGID_18_">
						<use xlink:href="#SVGID_17_"  style="overflow:visible;"/>
					</clipPath>
					<polyline class="st20" points="244.4,26.4 250.4,24.3 252.4,30.3 					"/>
					<polyline class="st20" points="256.4,62 262.4,60 260.4,54 					"/>
					<polyline class="st20" points="220.8,34.3 214.8,36.3 216.8,42.3 					"/>
					<polyline class="st20" points="232.8,69.9 226.8,72 224.7,65.9 					"/>
					<path class="st21" d="M229.9,31.1c2.7,3.6,4.4,8.3,5.4,11.3c2.2,5.9,2.5,10.6,0.4,14.7l-3.4,6.9"/>
					<path class="st21" d="M235.9,49.8c-4.2-2.7-7-6.9-7.7-12.2c-0.5-3.7,0.8-6.4,2-6.8c2.4-0.8,6.2,2.4,8.1,5
						c3,4.3,3.8,10.4-1,14.2"/>
					<path class="st21" d="M235.9,49.8c-4.2-2.7-7-6.9-7.7-12.2c-0.5-3.7,0.8-6.4,2-6.8c2.4-0.8,6.2,2.4,8.1,5
						c3,4.3,3.8,10.4-1,14.2"/>
					<path class="st21" d="M253.1,51.3c-5.5-0.7-15.3,1.7-17.8,6.7"/>
					<path class="st21" d="M238.5,54.8c4.2,2,7.8,2.3,10.9,0.9c2.7-1.2,4.1-3.6,3.9-4.5c-0.5-1.7-4-3-6.3-3.2
						c-4.5-0.3-7.6,1.7-8.5,5.3"/>
				</g>
				<g class="st19">
					<defs>
						<path id="SVGID_19_" d="M238.7,54.5c7.5,4.7,13.9,0.3,14.6-3.2C247.2,50.7,241.2,52.8,238.7,54.5"/>
					</defs>
					<clipPath id="SVGID_20_">
						<use xlink:href="#SVGID_19_"  style="overflow:visible;"/>
					</clipPath>
					<line class="st22" x1="237.1" y1="49.4" x2="243.3" y2="67.7"/>
					<line class="st22" x1="238.2" y1="49" x2="244.3" y2="67.3"/>
					<line class="st22" x1="239.2" y1="48.7" x2="245.7" y2="68"/>
					<line class="st22" x1="240.3" y1="48.3" x2="246.8" y2="67.7"/>
					<line class="st22" x1="241.3" y1="48" x2="248" y2="67.7"/>
					<line class="st22" x1="242.4" y1="47.6" x2="249" y2="67.4"/>
					<line class="st22" x1="243.4" y1="47.3" x2="250" y2="66.9"/>
					<line class="st22" x1="244.5" y1="46.9" x2="251.1" y2="66.5"/>
					<line class="st22" x1="245.5" y1="46.6" x2="252.1" y2="66.1"/>
					<line class="st22" x1="246.6" y1="46.2" x2="253.2" y2="65.7"/>
					<line class="st22" x1="247.6" y1="45.9" x2="253.9" y2="64.6"/>
					<line class="st22" x1="249.4" y1="44.1" x2="256.1" y2="63.9"/>
					<line class="st22" x1="248.7" y1="45.5" x2="255" y2="64.3"/>
					<line class="st22" x1="250.2" y1="43" x2="256.5" y2="61.8"/>
					<line class="st22" x1="251.7" y1="44.1" x2="257.4" y2="61.1"/>
				</g>
				<g class="st19">
					<defs>
						<path id="SVGID_21_" d="M232.5,31c-0.9-0.4-2.7-0.2-2.7-0.2s1.8,3,4.3,7.8c2.4,4.8,3.1,11.5,3.1,11.5s1.3,0,2.7-3.3
							c1.4-3.3,0.8-6.1-0.5-9.2C238,34.6,233.5,31.5,232.5,31C232.5,31,232.5,31,232.5,31"/>
					</defs>
					<clipPath id="SVGID_22_">
						<use xlink:href="#SVGID_21_"  style="overflow:visible;"/>
					</clipPath>
					<line class="st23" x1="247.3" y1="42.8" x2="229" y2="49"/>
					<line class="st23" x1="246.9" y1="41.8" x2="228.6" y2="47.9"/>
					<line class="st23" x1="247.6" y1="43.9" x2="229.3" y2="50"/>
					<line class="st23" x1="248" y1="44.9" x2="229.7" y2="51.1"/>
					<line class="st23" x1="246.6" y1="40.7" x2="227.2" y2="47.2"/>
					<line class="st23" x1="246.2" y1="39.7" x2="226.9" y2="46.2"/>
					<line class="st23" x1="245.9" y1="38.6" x2="226.1" y2="45.2"/>
					<line class="st23" x1="245.5" y1="37.6" x2="225.8" y2="44.2"/>
					<line class="st23" x1="245.2" y1="36.5" x2="225.5" y2="43.1"/>
					<line class="st23" x1="244.8" y1="35.5" x2="225.2" y2="42"/>
					<line class="st23" x1="244.4" y1="34.4" x2="224.9" y2="41"/>
					<line class="st23" x1="244.1" y1="33.3" x2="224.6" y2="39.9"/>
					<line class="st23" x1="243.7" y1="32.3" x2="225" y2="38.6"/>
					<line class="st23" x1="244.1" y1="29.8" x2="224.3" y2="36.5"/>
					<line class="st23" x1="243.4" y1="31.2" x2="224.6" y2="37.5"/>
					<line class="st23" x1="244.5" y1="28.5" x2="225.7" y2="34.9"/>
					<line class="st23" x1="242.7" y1="28" x2="225.7" y2="33.7"/>
				</g>
				<g class="st19">
					<defs>
						
							<rect id="SVGID_23_" x="211.6" y="21.2" transform="matrix(0.4451 -0.8955 0.8955 0.4451 89.2574 240.3155)" width="53.8" height="53.8"/>
					</defs>
					<clipPath id="SVGID_24_">
						<use xlink:href="#SVGID_23_"  style="overflow:visible;"/>
					</clipPath>
					<path class="st24" d="M247.4,31.4c-4.1-2-8.5-2.4-12.6-1.4c0.4,0.3,0.8,0.6,1.2,0.9c3.6-0.7,7.4-0.3,10.9,1.5
						c8.5,4.2,12,14.6,7.7,23.1c-4.2,8.5-14.6,12-23.1,7.7c-8.5-4.2-12-14.6-7.7-23.1c0.6-1.2,1.3-2.2,2-3.2
						c-0.1-0.6-0.1-1.1-0.1-1.7c-1.2,1.3-2.2,2.7-3,4.3c-4.5,9.1-0.8,20.1,8.3,24.6s20.1,0.8,24.6-8.3
						C260.2,47,256.5,35.9,247.4,31.4"/>
				</g>
			</g>
		</g>
		<g>
			<g>
				<path d="M249,230.5c0.2-0.5,0.3-1,0.5-1.5c0.2-0.7-0.3-1.7-1-1.8c-0.8-0.2-1.6,0.2-1.8,1c-0.2,0.5-0.3,1-0.5,1.5
					c-0.2,0.7,0.3,1.7,1,1.8C247.9,231.7,248.7,231.3,249,230.5L249,230.5z"/>
			</g>
		</g>
		<g>
			<defs>
				<polygon id="SVGID_25_" points="200.4,58 157.4,58 150.4,20 206.4,20 				"/>
			</defs>
			<clipPath id="SVGID_26_">
				<use xlink:href="#SVGID_25_"  style="overflow:visible;"/>
			</clipPath>
			<circle class="st25" cx="178.4" cy="179" r="144"/>
		</g>
		<g>
			<defs>
				<polygon id="SVGID_27_" points="308.4,287 273.4,258 286.4,218 332.4,235 				"/>
			</defs>
			<clipPath id="SVGID_28_">
				<use xlink:href="#SVGID_27_"  style="overflow:visible;"/>
			</clipPath>
			<circle class="st26" cx="178.4" cy="179" r="144"/>
		</g>
		<g>
			<defs>
				<polygon id="SVGID_29_" points="85.4,258 48.4,288 26.4,234 62.4,221 				"/>
			</defs>
			<clipPath id="SVGID_30_">
				<use xlink:href="#SVGID_29_"  style="overflow:visible;"/>
			</clipPath>
			<circle class="st27" cx="178.4" cy="179" r="144"/>
		</g>
	</g>
</g>
<g id="Layer_2" class="st28">
	<g class="st29">
		<line class="st30" x1="178.7" y1="-0.3" x2="178.7" y2="357.7"/>
	</g>
	<g class="st29">
		<line class="st30" x1="194.3" y1="0.4" x2="163.1" y2="357.1"/>
	</g>
	<g class="st29">
		<line class="st30" x1="209.8" y1="2.5" x2="147.6" y2="355"/>
	</g>
	<g class="st29">
		<line class="st30" x1="225.1" y1="5.8" x2="132.4" y2="351.6"/>
	</g>
	<g class="st29">
		<line class="st30" x1="240" y1="10.5" x2="117.5" y2="346.9"/>
	</g>
	<g class="st29">
		<line class="st30" x1="254.4" y1="16.5" x2="103.1" y2="341"/>
	</g>
	<g class="st29">
		<line class="st30" x1="268.2" y1="23.7" x2="89.2" y2="333.8"/>
	</g>
	<g class="st29">
		<line class="st30" x1="281.4" y1="32.1" x2="76.1" y2="325.4"/>
	</g>
	<g class="st29">
		<line class="st30" x1="293.8" y1="41.6" x2="63.7" y2="315.9"/>
	</g>
	<g class="st29">
		<line class="st30" x1="305.3" y1="52.2" x2="52.2" y2="305.3"/>
	</g>
	<g class="st29">
		<line class="st30" x1="315.9" y1="63.7" x2="41.6" y2="293.8"/>
	</g>
	<g class="st29">
		<line class="st30" x1="325.4" y1="76.1" x2="32.1" y2="281.4"/>
	</g>
	<g class="st29">
		<line class="st30" x1="333.8" y1="89.2" x2="23.7" y2="268.2"/>
	</g>
	<g class="st29">
		<line class="st30" x1="341" y1="103.1" x2="16.5" y2="254.4"/>
	</g>
	<g class="st29">
		<line class="st30" x1="346.9" y1="117.5" x2="10.5" y2="240"/>
	</g>
	<g class="st29">
		<line class="st30" x1="351.6" y1="132.4" x2="5.8" y2="225.1"/>
	</g>
	<g class="st29">
		<line class="st30" x1="355" y1="147.6" x2="2.5" y2="209.8"/>
	</g>
	<g class="st29">
		<line class="st30" x1="357.1" y1="163.1" x2="0.4" y2="194.3"/>
	</g>
	<g class="st29">
		<line class="st30" x1="357.7" y1="178.7" x2="-0.3" y2="178.7"/>
	</g>
	<g class="st29">
		<line class="st30" x1="357.1" y1="194.3" x2="0.4" y2="163.1"/>
	</g>
	<g class="st29">
		<line class="st30" x1="355" y1="209.8" x2="2.5" y2="147.6"/>
	</g>
	<g class="st29">
		<line class="st30" x1="351.6" y1="225.1" x2="5.8" y2="132.4"/>
	</g>
	<g class="st29">
		<line class="st30" x1="346.9" y1="240" x2="10.5" y2="117.5"/>
	</g>
	<g class="st29">
		<line class="st30" x1="341" y1="254.4" x2="16.5" y2="103.1"/>
	</g>
	<g class="st29">
		<line class="st30" x1="333.8" y1="268.2" x2="23.7" y2="89.2"/>
	</g>
	<g class="st29">
		<line class="st30" x1="325.4" y1="281.4" x2="32.1" y2="76.1"/>
	</g>
	<g class="st29">
		<line class="st30" x1="315.9" y1="293.8" x2="41.6" y2="63.7"/>
	</g>
	<g class="st29">
		<line class="st30" x1="305.3" y1="305.3" x2="52.2" y2="52.2"/>
	</g>
	<g class="st29">
		<line class="st30" x1="293.8" y1="315.9" x2="63.7" y2="41.6"/>
	</g>
	<g class="st29">
		<line class="st30" x1="281.4" y1="325.4" x2="76.1" y2="32.1"/>
	</g>
	<g class="st29">
		<line class="st30" x1="268.2" y1="333.8" x2="89.2" y2="23.7"/>
	</g>
	<g class="st29">
		<line class="st30" x1="254.4" y1="341" x2="103.1" y2="16.5"/>
	</g>
	<g class="st29">
		<line class="st30" x1="240" y1="346.9" x2="117.5" y2="10.5"/>
	</g>
	<g class="st29">
		<line class="st30" x1="225.1" y1="351.6" x2="132.4" y2="5.8"/>
	</g>
	<g class="st29">
		<line class="st30" x1="209.8" y1="355" x2="147.6" y2="2.5"/>
	</g>
	<g class="st29">
		<line class="st30" x1="194.3" y1="357.1" x2="163.1" y2="0.4"/>
	</g>
	<g class="st29">
		<line class="st30" x1="178.7" y1="357.7" x2="178.7" y2="-0.3"/>
	</g>
	<g class="st29">
		<line class="st30" x1="-0.3" y1="178.7" x2="357.7" y2="178.7"/>
	</g>
	<g class="st29">
		<line class="st30" x1="52.2" y1="52.2" x2="305.3" y2="305.3"/>
	</g>
	<g class="st29">
		<line class="st30" x1="305.3" y1="52.2" x2="52.2" y2="305.3"/>
	</g>
	<g class="st29">
		<line class="st30" x1="-0.3" y1="178.7" x2="357.7" y2="178.7"/>
	</g>
	<circle class="st31" cx="179.4" cy="179" r="144"/>
</g>
</svg>
