<svg id="Layer_1" data-name="Layer 1" xmlns="http://www.w3.org/2000/svg" xmlns:xlink="http://www.w3.org/1999/xlink" viewBox="0 0 1024 765"><defs><style>.cls-1{fill:none;}.cls-2{clip-path:url(#clip-path);}.cls-3{fill:#da6c44;}</style><clipPath id="clip-path"><rect class="cls-1" y="326.22" width="1024" height="438.78"/></clipPath></defs><title>SFF1693_Foodservice Trade Presenter_Texture_BG</title><g class="cls-2"><path class="cls-3" d="M1024,336.45a14.06,14.06,0,0,0-8.82-.21c-3,1-6.29,1-9.47,2.19-2.54,1-6.15,0-9.3,0-3.57,0-55.54,8-58.1,7-1.21-.45-2.58,0-3.9.09-5.9.55-11.69-.52-17.43-1.79-1.8-.4-13.35-2.48-16.44-2.09s-6.53-.67-9.86-.83a11.83,11.83,0,0,0-5.75.71,13.38,13.38,0,0,1-11.24.13c-2.74-1.09-26-3.79-27.52-3.43C840,339.68,804.4,355.76,801.48,355c-3.7-.92-22.81-2-23.12-2.17-2.36-1.77-11.45-.92-13.06-1.2-2.37-.41-21.43-3.23-26.6-3-3.54.18-7.24.46-10.77-.95a8.61,8.61,0,0,0-4.21-.39c-5.15,1.08-10.38-.18-15.51.56-2-2-12.1-1.56-14.09.68-1.41,1.59-19.88-.43-25,1.17a16.86,16.86,0,0,1-3.13.78,81.26,81.26,0,0,1-9.51.69,32,32,0,0,0-8.2.75c-4.87.56-8.62,0-12.14-2.7-1.68-1.3-3-1.55-4.36-.15-1.1,1.11-1.86.8-3.35.55-2-.33-4.32-1.17-6.64.38-1.49,1-3.94.81-5.93.14a12.87,12.87,0,0,0-9.55.34,18.54,18.54,0,0,1-4.34-.36c-18.81-11.26-31.78-18.92-32.37-19-1-.15-2,0-2.73-.73-1.19-1.21-2.84-1.15-4.29-1.32-1.9-.22-41.61-2.28-43.44-1.94-1,.18-2.28.08-2.84.64-2.17,2.19-4.42,1.46-6.77.69-.44-.15-.88-.46-1.38-.19-2.75,1.43-5.25-.31-7.87-.45-.36,0-.87,0-1-.26-2.35-3.35-15.21.43-15.37.36s-5.81,2.26-8.68,2.16a17.67,17.67,0,0,0-6.34.95,11.38,11.38,0,0,1-4.25.72,17.73,17.73,0,0,0-7.49,1.27,9.63,9.63,0,0,1-7.35.12c-2.61-.92-5.58-1-8.41-1.3-1.71-.2-16.93-2-20.17.61-1.56,1.28-3.56,1.58-5.33,2.41-.59.28-17,2.1-19.55,2.18A22,22,0,0,0,385.91,340a8.17,8.17,0,0,1-5.56,1.33,6.5,6.5,0,0,0-2.86.3,10,10,0,0,1-7.43-1.2c-1.74-.9-3.81-.32-5.72-.19-2.12.15-15,0-16.57-1.35-.44-.37-1.35-.24-2-.48-2.13-.75-11.32-.44-14.93.92a6.65,6.65,0,0,1-3.88.59c-3.41-.86-6.53.32-9.71,1-1.9.43-13.18.58-16,1.71-4.85,2-15.71,1.4-18.19,1.78-1.68.26-10.54,3.72-13.2,1.53-1.43-1.18-3.36-1.67-4.69-3.1-.92-1-27,.93-30.1-.46-1.8-.81-9.15.58-10.95.53-3.05-.08-6.11.47-9.15-.14a2.91,2.91,0,0,0-2.1.38c-2.43,1.95-5.6,1.72-8.3,2.85a5.59,5.59,0,0,1-2.85.2c-1.37-.2-9.14-1.32-10.81-.87-2.19.59-11.64.63-13.25.15-3-.91-16,2.43-18,3.16-.69.25-12.7,1.53-15.75.88s-17.67-.2-21.33-1a3.36,3.36,0,0,0-2.49.16c-.55.31-16.31,3.34-20.39,3-1.6-.13-9.22,1.38-11.11,1.15l-1,.13a21.54,21.54,0,0,0-9.88,4.37,8.13,8.13,0,0,1-5.29,2.12,6.6,6.6,0,0,0-2.79.71c-2.6,1.1-5,.76-7.54-.1-1.87-.62-3.83.24-5.7.66-2.07.46-14.81,2.19-16.62,1.08-.49-.3-1.38,0-2.11-.18-2.22-.42-11.27,1.22-14.63,3.09a6.57,6.57,0,0,1-3.74,1.15c-3.51-.35-6.41,1.27-9.44,2.45-1.12.43-5.78,1.28-9.8,2.22V600.22l.61.17V765H1023.39V528.65h.61Z"/></g></svg>