<?xml version="1.0" encoding="utf-8"?>
<!-- Generator: Adobe Illustrator 22.1.0, SVG Export Plug-In . SVG Version: 6.00 Build 0)  -->
<svg version="1.1" id="Isolation_Mode" xmlns="http://www.w3.org/2000/svg" xmlns:xlink="http://www.w3.org/1999/xlink" x="0px"
	 y="0px" viewBox="0 0 136 17.1" style="enable-background:new 0 0 136 17.1;" xml:space="preserve">
<style type="text/css">
	.st0{fill:#FFFFFF;}
</style>
<g>
	<g>
		<path class="st0" d="M0.5,16c0.9-0.5,1.2-1.3,1.3-3c0.1-1.3,0.1-2.6,0.1-3.8l0.6-0.6L1.9,8c0-1.3,0-2.5-0.1-3.7
			c-0.1-1.7-0.4-2.6-1.3-3h4.2C4.6,3.7,4.5,6.2,4.5,8.7c0,1.5,0,2.9,0.1,4.4c0,1.1,0.4,1.8,0.8,2.3c0.2,0.3,0.5,0.5,0.9,0.7H0.5V16z
			 M7.5,10.5c-0.5,0-1.8,0-2.4,0c0-0.2,0-0.3,0-0.5c0.5,0,1.1,0,1.4,0c2.3,0,3.7-1.7,3.7-4.1S8.8,1.7,6.5,1.7H5.3c0-0.2,0-0.3,0-0.5
			c0.7,0,1.8,0,2.2,0c3.3,0,5.7,1.9,5.7,4.6C13.3,8.6,10.8,10.5,7.5,10.5z"/>
		<path class="st0" d="M24.1,16c1.1-0.6,1.3-1.9,1.3-3c0.1-1.3,0.1-2.6,0.1-3.8l0.6-0.6L25.5,8c0-1.2,0-2.5-0.1-3.7
			c0-1.1-0.2-2.5-1.3-3h4.2c-0.1,2.4-0.2,4.9-0.2,7.4c0,2.4,0.1,4.9,0.2,7.4h-4.2V16z M33.8,10.6c-0.9-2-3.3-1.7-5-1.7V8.4
			c1.7,0,4.2,0.3,5-1.7V10.6z M36,5.4c-0.8-2.4-2.7-3.6-5.1-3.6h-2V1.3h6.7L36,5.4z M36,16h-7.1v-0.5H31c2.5,0,4.5-1.3,5.3-3.7
			L36,16z"/>
		<path class="st0" d="M47.5,16c0.9-0.5,1.2-1.3,1.3-3c0.1-1.3,0.1-2.6,0.1-3.8l0.6-0.6L48.9,8c0-1.3,0-2.5-0.1-3.7
			c-0.1-1.7-0.4-2.6-1.3-3h4.2c-0.1,2.4-0.2,4.9-0.2,7.4c0,1.5,0,2.9,0.1,4.4c0,1.1,0.4,1.8,0.8,2.3c0.2,0.3,0.5,0.5,0.9,0.7h-5.8
			V16z M54.6,10.5c-0.5,0-1.8,0-2.4,0c0-0.2,0-0.3,0-0.5c0.5,0,1.1,0,1.4,0c2.3,0,3.7-1.7,3.7-4.1s-1.4-4.2-3.7-4.2h-1.2
			c0-0.2,0-0.3,0-0.5c0.7,0,1.8,0,2.2,0c3.3,0,5.7,1.9,5.7,4.6C60.3,8.6,57.9,10.5,54.6,10.5z"/>
		<path class="st0" d="M71.1,16c1.1-0.6,1.3-1.9,1.3-3c0.1-1.3,0.1-2.6,0.1-3.8l0.6-0.6L72.5,8c0-1.2,0-2.5-0.1-3.7
			c0-1.1-0.2-2.5-1.3-3h4.2c-0.1,2.4-0.2,4.9-0.2,7.4c0,2.4,0.1,4.9,0.2,7.4h-4.2V16z M80.8,10.6c-0.9-2-3.3-1.7-5-1.7V8.4
			c1.7,0,4.2,0.3,5-1.7V10.6z M83,5.4c-0.8-2.4-2.7-3.6-5.1-3.6h-2V1.3h6.7L83,5.4z M83,16h-7v-0.5h2.1c2.5,0,4.5-1.3,5.3-3.7L83,16
			z"/>
		<path class="st0" d="M101.9,8.8h-3.4c0,1.4,0,2.8,0.1,4.2c0.1,1.6,0.4,2.5,1.3,3h-5.3c0.9-0.5,1.2-1.3,1.3-3
			C96,11.7,96,10.5,96,9.2l0.6-0.6L96,8c0-1.2,0-2.5-0.1-3.7c0-1.7-0.4-2.6-1.3-3h5.3c-0.9,0.5-1.3,1.4-1.3,3c0,1.3-0.1,2.7-0.1,4
			h3.4V8.8z M104.6,16c0.9-0.5,1.2-1.3,1.3-3c0.1-1.4,0.1-2.8,0.1-4.2h-3.4V8.3h3.4c0-1.4,0-2.7-0.1-4c-0.1-1.7-0.4-2.6-1.3-3h5.3
			c-0.9,0.5-1.2,1.4-1.3,3c0,1.2-0.1,2.5-0.1,3.7l-0.6,0.6l0.6,0.6c0,1.3,0,2.6,0.1,3.8c0.1,1.7,0.4,2.5,1.3,3
			C109.9,16,104.6,16,104.6,16z"/>
		<path class="st0" d="M128.8,11.6h-5.2c-0.3,0.7-0.6,1.5-0.6,2.2c0,1,0.4,1.8,1.3,2.2h-4.7c1.1-0.6,2-1.9,2.6-3
			c1.4-2.5,2.6-5.2,3.7-7.9l0.3,0.7c-0.7,1.8-1.5,3.5-2.4,5.2h4.7L128.8,11.6z M129.9,16c0.5-0.3,0.8-0.8,0.8-1.4
			c0-0.4-0.1-0.8-0.3-1.2c-0.5-1-1-1.9-1.4-2.9c-1-2.1-1.9-4.2-2.7-6.4c0.4-1.1,0.8-2.2,1.2-3.4h0.5c1.2,3.5,5,13.2,7.5,15.2h-5.6
			V16z"/>
	</g>
</g>
</svg>
