<?xml version="1.0" standalone="no"?>
<!DOCTYPE svg PUBLIC "-//W3C//DTD SVG 20010904//EN"
 "http://www.w3.org/TR/2001/REC-SVG-20010904/DTD/svg10.dtd">
<svg version="1.0" xmlns="http://www.w3.org/2000/svg"
 width="222.000000pt" height="222.000000pt" viewBox="0 0 222.000000 222.000000"
 preserveAspectRatio="xMidYMid meet">
<metadata>
Created by potrace 1.11, written by Peter Selinger 2001-2013
</metadata>
<g transform="translate(0.000000,222.000000) scale(0.100000,-0.100000)"
fill="#000000" stroke="none">
<path d="M1077 1980 c-9 -11 -13 -20 -9 -21 4 0 -3 -4 -16 -10 -14 -5 -20 -13
-16 -20 4 -7 3 -9 -3 -6 -13 8 -66 -47 -56 -57 5 -4 1 -6 -7 -4 -8 2 -14 -3
-12 -10 1 -8 -1 -11 -6 -8 -5 3 -19 -6 -30 -19 -12 -14 -19 -25 -14 -26 4 0
-3 -4 -16 -10 -14 -5 -20 -13 -16 -20 4 -7 3 -9 -3 -6 -5 4 -20 -5 -31 -18
-12 -14 -19 -25 -14 -26 4 0 -3 -4 -16 -10 -15 -5 -21 -13 -16 -21 4 -7 3 -10
-1 -5 -11 10 -66 -43 -58 -56 3 -6 2 -8 -3 -4 -5 3 -76 -62 -158 -144 -82 -82
-154 -149 -159 -149 -6 0 -8 -2 -5 -5 5 -5 -125 -138 -152 -155 -8 -5 -11 -10
-6 -10 5 0 -3 -9 -18 -21 -26 -20 -35 -49 -16 -49 14 0 70 -57 62 -64 -3 -4 4
-9 16 -13 12 -3 20 -8 18 -12 -2 -3 6 -15 17 -26 11 -11 16 -14 12 -6 -5 9 -4
12 3 7 7 -4 12 -14 12 -22 0 -8 5 -12 10 -9 6 3 10 3 10 -2 1 -4 12 -21 26
-38 15 -16 23 -24 19 -16 -6 9 -4 12 3 7 7 -4 12 -14 12 -22 0 -8 4 -13 9 -10
4 3 13 -6 20 -20 6 -14 14 -23 19 -21 4 3 21 -12 37 -33 17 -21 42 -46 57 -56
15 -10 24 -22 21 -27 -3 -4 4 -11 16 -14 11 -3 19 -8 17 -12 -2 -3 6 -15 17
-26 11 -11 16 -14 12 -6 -5 9 -4 12 3 7 7 -4 12 -14 12 -22 0 -8 11 -19 25
-26 13 -6 22 -15 19 -19 -3 -5 2 -9 10 -9 8 0 18 -5 22 -12 5 -7 2 -9 -7 -3
-8 4 0 -4 16 -19 17 -14 34 -25 38 -26 5 0 5 -4 2 -10 -3 -5 1 -10 9 -10 8 0
18 -5 22 -12 5 -7 2 -8 -7 -3 -8 4 -5 -1 6 -12 11 -11 23 -19 26 -17 4 2 9 -6
12 -17 3 -12 10 -18 16 -14 6 3 11 3 11 -2 0 -4 16 -25 35 -46 19 -21 35 -35
35 -31 0 3 15 -12 33 -34 17 -23 38 -41 46 -41 8 -1 12 -4 8 -7 -3 -3 8 -18
24 -32 l30 -25 80 81 c43 44 79 78 79 76 0 -2 15 13 34 33 47 52 206 212 206
207 0 -2 17 14 37 37 61 68 123 128 123 121 0 -4 4 -1 9 6 15 25 153 162 162
162 5 0 9 3 9 8 1 4 12 21 26 37 15 17 23 23 18 15 -4 -8 13 7 39 35 26 27 47
53 47 58 0 4 5 5 10 2 6 -3 10 -1 10 5 0 15 -26 41 -34 33 -3 -4 -6 0 -6 7 0
19 -102 120 -113 113 -6 -3 -7 -2 -4 4 7 11 -28 45 -37 36 -3 -4 -6 0 -6 8 0
17 -73 89 -90 89 -7 0 -11 3 -7 6 9 9 -135 154 -152 154 -8 0 -12 3 -8 6 9 9
-25 44 -36 37 -6 -3 -7 -2 -4 4 7 11 -88 105 -97 96 -3 -4 -6 0 -6 7 0 17 -72
90 -89 90 -8 0 -12 3 -8 6 9 9 -25 44 -36 37 -6 -3 -7 -2 -4 3 5 8 -153 174
-165 174 -2 0 -11 -9 -21 -20z m-57 -74 c0 -2 -8 -10 -17 -17 -16 -13 -17 -12
-4 4 13 16 21 21 21 13z m215 -46 c10 -11 16 -20 13 -20 -3 0 -13 9 -23 20
-10 11 -16 20 -13 20 3 0 13 -9 23 -20z m-455 -194 c0 -2 -8 -10 -17 -17 -16
-13 -17 -12 -4 4 13 16 21 21 21 13z m1105 -456 c10 -11 16 -20 13 -20 -3 0
-13 9 -23 20 -10 11 -16 20 -13 20 3 0 13 -9 23 -20z"/>
</g>
</svg>
