<?xml version="1.0" encoding="utf-8"?>
<!-- Generator: Adobe Illustrator 23.0.4, SVG Export Plug-In . SVG Version: 6.00 Build 0)  -->
<svg version="1.1" xmlns="http://www.w3.org/2000/svg" xmlns:xlink="http://www.w3.org/1999/xlink" x="0px" y="0px"
	 viewBox="0 0 216.4 216.4" style="enable-background:new 0 0 216.4 216.4;" xml:space="preserve">
<style type="text/css">
	.st0{display:none;}
	.st1{display:inline;}
	.st2{clip-path:url(#SVGID_2_);fill:#373535;}
	.st3{clip-path:url(#SVGID_4_);fill:#373535;}
	.st4{clip-path:url(#SVGID_6_);fill:#373535;}
	.st5{clip-path:url(#SVGID_8_);fill:#373535;}
	.st6{clip-path:url(#SVGID_10_);fill:#373535;}
	.st7{clip-path:url(#SVGID_12_);fill:#373535;}
	.st8{clip-path:url(#SVGID_14_);fill:#373535;}
	.st9{clip-path:url(#SVGID_16_);fill:#373535;}
	.st10{clip-path:url(#SVGID_18_);fill:#373535;}
	.st11{clip-path:url(#SVGID_20_);fill:#373535;}
	.st12{clip-path:url(#SVGID_22_);fill:#373535;}
	.st13{clip-path:url(#SVGID_24_);fill:#373535;}
	.st14{clip-path:url(#SVGID_26_);fill:#373535;}
	.st15{clip-path:url(#SVGID_28_);fill:#373535;}
	.st16{clip-path:url(#SVGID_30_);fill:#373535;}
	.st17{clip-path:url(#SVGID_32_);fill:#373535;}
	.st18{clip-path:url(#SVGID_34_);fill:#373535;}
	.st19{clip-path:url(#SVGID_36_);fill:#373535;}
	.st20{clip-path:url(#SVGID_38_);fill:#373535;}
	.st21{clip-path:url(#SVGID_40_);fill:#373535;}
	.st22{clip-path:url(#SVGID_42_);fill:#373535;}
	.st23{clip-path:url(#SVGID_44_);fill:#373535;}
	.st24{clip-path:url(#SVGID_46_);fill:#373535;}
	.st25{clip-path:url(#SVGID_48_);fill:#373535;}
	.st26{clip-path:url(#SVGID_50_);fill:#373535;}
	.st27{clip-path:url(#SVGID_52_);fill:#373535;}
	.st28{clip-path:url(#SVGID_54_);fill:#373535;}
	.st29{clip-path:url(#SVGID_56_);}
	.st30{fill:#231F20;}
	.st31{font-family:'KozGoPr6N-Regular-83pv-RKSJ-H';}
	.st32{font-size:22.28px;}
	.st33{letter-spacing:2;}
	.st34{letter-spacing:3;}
</style>
<g id="Layer_1" class="st0">
	<g id="No_Hormones">
		<g class="st1">
			<g>
				<path d="M173.2,43.2c-17.9-17.9-41.4-26.9-64.9-26.9s-47,8.9-64.9,26.9c-17.9,17.9-26.9,41.4-26.9,64.9s9,47,26.9,64.9
					s41.4,26.9,64.9,26.9s47-8.9,64.9-26.9c17.9-17.9,26.9-41.4,26.9-64.9C200.1,84.6,191.1,61.1,173.2,43.2z M170.3,170.1
					c-17.1,17.1-39.6,25.7-62,25.7c-22.5,0-44.8-8.6-62-25.7c-17.1-17.1-25.7-39.6-25.7-62c0-22.5,8.6-44.9,25.7-62
					s39.5-25.7,62-25.7s44.8,8.6,62,25.7c17.1,17.1,25.7,39.6,25.7,62C195.9,130.5,187.4,153,170.3,170.1z"/>
			</g>
			<g>
				<g>
					<polygon points="51.1,89.6 51.1,99.8 53.1,99.8 53.1,101.8 46.9,101.8 46.9,99.8 48.9,99.8 48.9,87.6 46.9,87.6 46.9,85.7 
						50.8,85.7 59.6,97 59.6,87.6 57.5,87.6 57.5,85.7 63.6,85.7 63.6,87.6 61.7,87.6 61.7,101.9 60.5,101.9 					"/>
					<path d="M65.7,93.7c0-4.7,3.4-8.4,8.3-8.4c4.8,0,8.2,3.7,8.2,8.4c0,4.7-3.4,8.4-8.3,8.4C69.1,102.1,65.7,98.4,65.7,93.7z
						 M79.9,93.7c0-3.6-2.5-6.3-5.9-6.3c-3.5,0-5.9,2.7-5.9,6.3c0,3.6,2.5,6.3,5.9,6.3S79.9,97.4,79.9,93.7z"/>
					<path d="M89.3,99.8h1.5l4.5-12.2h-1.8v-2h8.1v2h-1.8l4.5,12.2h1.5v2H100v-2h1.9l-1.2-3.4h-6.4L93,99.8h2v2h-5.8L89.3,99.8
						L89.3,99.8z M100,94.6l-2.6-7l-2.6,7H100z"/>
					<path d="M107.2,99.8h1.9V87.6h-1.9v-2h6.1c5.8,0,9.3,3.1,9.3,7.9c0,4.9-3.3,8.2-9.4,8.2h-5.9L107.2,99.8L107.2,99.8z
						 M113.4,99.8c4.5,0,6.9-2.5,6.9-6.2s-2.7-5.9-7.1-5.9h-1.8v12.2L113.4,99.8L113.4,99.8z"/>
					<path d="M124.9,99.8h1.9V87.6h-1.9v-2h6.1c5.8,0,9.3,3.1,9.3,7.9c0,4.9-3.4,8.2-9.4,8.2H125C124.9,101.8,124.9,99.8,124.9,99.8
						z M131.1,99.8c4.5,0,6.9-2.5,6.9-6.2s-2.7-5.9-7.1-5.9h-1.8v12.2L131.1,99.8L131.1,99.8z"/>
					<polygon points="142.6,99.8 144.6,99.8 144.6,87.6 142.6,87.6 142.6,85.7 154.5,85.7 154.5,89.9 152.4,89.9 152.4,87.6 
						146.8,87.6 146.8,92.6 151.9,92.6 151.9,94.6 146.8,94.6 146.8,99.8 152.4,99.8 152.4,97.6 154.5,97.6 154.5,101.8 
						142.6,101.8 					"/>
					<path d="M156.9,99.8h1.9V87.6h-1.9v-2h6.1c5.8,0,9.3,3.1,9.3,7.9c0,4.9-3.4,8.2-9.4,8.2H157v-1.9H156.9z M163.2,99.8
						c4.5,0,6.9-2.5,6.9-6.2s-2.7-5.9-7.1-5.9h-1.8v12.2L163.2,99.8L163.2,99.8z"/>
					<polygon points="36.5,113.8 41.6,113.8 41.6,120.4 47.3,120.4 47.3,113.8 52.4,113.8 52.4,131.3 47.3,131.3 47.3,124.4 
						41.6,124.4 41.6,131.3 36.5,131.3 					"/>
					<path d="M54.8,122.6v-0.2c0-5.4,4-8.9,9.3-8.9c5.4,0,9.3,3.3,9.3,8.8v0.2c0,5.4-3.7,9.1-9.4,9.1S54.8,127.9,54.8,122.6z
						 M68.2,122.6v-0.2c0-3.1-1.6-4.9-4-4.9c-2.5,0-4,1.8-4,5v0.2c0,3.2,1.6,5,4,5C66.6,127.6,68.2,125.7,68.2,122.6z"/>
					<path d="M75.9,113.8h6.8c4.6,0,7.2,1.9,7.2,5.6v0.1c0,2.5-1.3,3.9-3.2,4.6l4.2,7.3h-5.3L82,125h-1.2v6.3h-5
						C75.9,131.3,75.9,113.8,75.9,113.8z M82.5,121.7c1.7,0,2.5-0.7,2.5-2.1v-0.1c0-1.4-0.9-2-2.5-2h-1.6v4.2H82.5L82.5,121.7z"/>
					<polygon points="93,113.8 99.5,113.8 102.9,123.1 106.3,113.8 112.7,113.8 112.7,131.3 107.7,131.3 107.7,120.4 103.4,131.3 
						101.8,131.3 97.5,120.4 97.5,131.3 93,131.3 					"/>
					<path d="M115.2,122.6v-0.2c0-5.4,4-8.9,9.3-8.9c5.4,0,9.3,3.3,9.3,8.8v0.2c0,5.4-3.7,9.1-9.4,9.1S115.2,127.9,115.2,122.6z
						 M128.5,122.6v-0.2c0-3.1-1.6-4.9-4-4.9c-2.5,0-4,1.8-4,5v0.2c0,3.2,1.6,5,4,5C127,127.6,128.5,125.7,128.5,122.6z"/>
					<polygon points="136.2,113.8 141.9,113.8 147.6,123.6 147.6,113.8 151.9,113.8 151.9,131.3 147.1,131.3 140.7,120.3 
						140.7,131.3 136.2,131.3 					"/>
					<polygon points="155.4,113.8 167.5,113.8 167.5,117.6 160.3,117.6 160.3,120.6 166,120.6 166,124.2 160.3,124.2 160.3,127.4 
						167.8,127.4 167.8,131.3 155.4,131.3 					"/>
					<path d="M169.4,125.7h4.8c0.1,1.3,0.7,2.3,2.8,2.3c1.4,0,2.2-0.7,2.2-1.8c0-1.1-0.6-1.4-2.8-1.7c-4.9-0.6-6.6-2.1-6.6-5.6
						c0-3.2,2.6-5.5,6.8-5.5s6.6,1.8,6.9,5.5h-4.7c-0.2-1.3-0.9-1.9-2.2-1.9s-2.1,0.6-2.1,1.5c0,1,0.5,1.4,2.7,1.7
						c4.4,0.5,6.7,1.6,6.7,5.4c0,3.2-2.6,5.8-7.1,5.8C172,131.6,169.5,129.5,169.4,125.7z"/>
					<path d="M88.2,138l-31.5,31.5c-0.7,0.7-0.7,1.8,0,2.5s1.8,0.7,2.5,0l31.5-31.5c0.7-0.7,0.7-1.8,0-2.5
						C89.9,137.3,88.8,137.3,88.2,138"/>
					<path d="M56.9,46.9l32.5,32.5c0.7,0.7,1.8,0.7,2.5,0s0.7-1.8,0-2.5L59.3,44.5c-0.7-0.7-1.8-0.7-2.5,0
						C56.2,45.1,56.2,46.2,56.9,46.9"/>
					<path d="M126.5,141l30.6,30.6c0.7,0.7,1.8,0.7,2.5,0s0.7-1.8,0-2.5L129,138.5c-0.7-0.7-1.8-0.7-2.5,0S125.8,140.3,126.5,141"/>
					<path d="M157.6,44.2l-33.4,33.4c-0.7,0.7-0.7,1.8,0,2.5s1.8,0.7,2.5,0L160,46.6c0.7-0.7,0.7-1.8,0-2.5
						C159.3,43.5,158.2,43.5,157.6,44.2"/>
				</g>
			</g>
		</g>
	</g>
	<g class="st1">
		<g>
			<g>
				<defs>
					<rect id="SVGID_1_" x="11.9" y="1" width="191.1" height="204.9"/>
				</defs>
				<clipPath id="SVGID_2_">
					<use xlink:href="#SVGID_1_"  style="overflow:visible;"/>
				</clipPath>
				<path class="st2" d="M174.6,43.2C156.5,25,132.6,16,108.9,16C85,15.9,61.2,25,43.1,43.2c-18.2,18.1-27.2,42-27.2,65.8
					s9.1,47.6,27.2,65.7c18.1,18.2,42,27.2,65.8,27.2s47.6-9.1,65.7-27.2c18.2-18.1,27.2-42,27.2-65.7S192.7,61.3,174.6,43.2
					 M171.6,171.7c-17.4,17.3-40.1,26-62.8,26s-45.5-8.7-62.8-26c-17.3-17.4-26-40.1-26-62.8s8.7-45.5,26-62.8
					c17.4-17.4,40.1-26,62.8-26s45.5,8.7,62.8,26s26,40.1,26,62.8S189,154.4,171.6,171.7"/>
			</g>
			<g>
				<defs>
					<rect id="SVGID_3_" x="11.9" y="1" width="191.1" height="204.9"/>
				</defs>
				<clipPath id="SVGID_4_">
					<use xlink:href="#SVGID_3_"  style="overflow:visible;"/>
				</clipPath>
				<path class="st3" d="M88.4,139.2l-32,32c-0.7,0.7-0.7,1.8,0,2.5s1.8,0.7,2.5,0l32-32c0.7-0.7,0.7-1.8,0-2.5
					C90.2,138.5,89.1,138.5,88.4,139.2"/>
			</g>
			<g>
				<defs>
					<rect id="SVGID_5_" x="11.9" y="1" width="191.1" height="204.9"/>
				</defs>
				<clipPath id="SVGID_6_">
					<use xlink:href="#SVGID_5_"  style="overflow:visible;"/>
				</clipPath>
				<path class="st4" d="M56.7,46.9l32.9,32.9c0.7,0.7,1.8,0.7,2.5,0s0.7-1.8,0-2.5L59.2,44.4c-0.7-0.7-1.8-0.7-2.5,0
					C56.1,45.1,56.1,46.2,56.7,46.9"/>
			</g>
			<g>
				<defs>
					<rect id="SVGID_7_" x="11.9" y="1" width="191.1" height="204.9"/>
				</defs>
				<clipPath id="SVGID_8_">
					<use xlink:href="#SVGID_7_"  style="overflow:visible;"/>
				</clipPath>
				<path class="st5" d="M127.2,142.2l31,31c0.7,0.7,1.8,0.7,2.5,0s0.7-1.8,0-2.5l-31-31c-0.7-0.7-1.8-0.7-2.5,0
					C126.6,140.4,126.6,141.5,127.2,142.2"/>
			</g>
			<g>
				<defs>
					<rect id="SVGID_9_" x="11.9" y="1" width="191.1" height="204.9"/>
				</defs>
				<clipPath id="SVGID_10_">
					<use xlink:href="#SVGID_9_"  style="overflow:visible;"/>
				</clipPath>
				<path class="st6" d="M158.7,44.1l-33.8,33.8c-0.7,0.7-0.7,1.8,0,2.5s1.8,0.7,2.5,0l33.8-33.8c0.7-0.7,0.7-1.8,0-2.5
					C160.5,43.4,159.4,43.4,158.7,44.1"/>
			</g>
			<g>
				<defs>
					<rect id="SVGID_11_" x="11.9" y="1" width="191.1" height="204.9"/>
				</defs>
				<clipPath id="SVGID_12_">
					<use xlink:href="#SVGID_11_"  style="overflow:visible;"/>
				</clipPath>
				<path class="st7" d="M86.1,93.4c0.6,1.1,0.9,1.9,1.2,2.9c0.4,1.3,1.3,1.5,2.7,1.5h0.2v1.9H90c-0.9,0-1.6-0.2-2.2-0.7l0,0
					c-0.1,1.5-0.5,2.9-0.9,3.5c-1,1.4-3.3,2.4-5.1,2.4c-2.8,0-4.6-1.9-4.6-4.6c0-1.9,0.6-3.3,1.3-4.4l0.6,0.3
					c-0.5,1-0.8,2.1-0.8,2.8c0,1.3,0.4,2.1,1,2.6c0.6,0.6,1.7,1,2.9,1c1.2,0,2.7-0.6,3.7-1.3c0.7-0.5,1.1-1,1.1-1.6
					s-0.1-1.2-0.5-2.5c-0.5-1.1-0.9-1.9-1.2-2.5c0.3-0.5,0.6-1.1,1-1.6h-0.2V93.4z M82.5,88.8c0.6,0.5,1.2,1,1.8,1.6
					c-0.3,0.5-0.7,1-1.3,1.5c-0.6-0.6-1.2-1-1.8-1.6C81.7,89.8,82.1,89.2,82.5,88.8"/>
			</g>
			<g>
				<defs>
					<rect id="SVGID_13_" x="11.9" y="1" width="191.1" height="204.9"/>
				</defs>
				<clipPath id="SVGID_14_">
					<use xlink:href="#SVGID_13_"  style="overflow:visible;"/>
				</clipPath>
				<path class="st8" d="M90.6,97.8c1.1,0,2-0.8,2.5-2.7c0.2-0.6,0.6-1.2,1.1-1.8c0.6-0.5,1.2-0.9,1.9-0.9c1.8,0,2.9,2.5,3.2,5.2
					c-0.3,1.4-0.9,1.9-1.6,1.9c-1.5,0-3-0.7-4.5-1.8h-0.1c-0.4,1.3-1.3,2-2.6,2h-0.3c-0.8,0-1.1-0.6-1.1-1s0.2-0.9,1.1-0.9
					C90.2,97.8,90.6,97.8,90.6,97.8z M95.9,97.2c0.6,0.2,1.2,0.4,1.8,0.4c0.2,0,0.4,0,0.5-0.2c-0.4-2.3-1.4-3.3-2.4-3.3
					c-0.9,0-1.6,0.5-2,1.5C94.2,96.4,95,96.8,95.9,97.2"/>
			</g>
			<g>
				<defs>
					<rect id="SVGID_15_" x="11.9" y="1" width="191.1" height="204.9"/>
				</defs>
				<clipPath id="SVGID_16_">
					<use xlink:href="#SVGID_15_"  style="overflow:visible;"/>
				</clipPath>
				<path class="st9" d="M111.2,98.3c-1.6,0-2.8-0.6-2.8-1.8c0-0.4,0.2-1,0.5-1.8c0.6-1.3,2.2-2.7,4.8-4.2l-0.1-1.1
					c0.4-0.4,0.8-0.9,1.2-1.2h0.2c0.1,2.3,0.1,4.7,0.1,7c0,1,0.1,1.7,0.6,2.1c0.4,0.3,0.9,0.4,1.6,0.4h0.4v1.9h-0.3
					c-1.5,0-2.6-0.4-3.1-2.1C113.3,98,112.3,98.3,111.2,98.3 M113.8,92.3c-2.7,1.4-4.1,2.5-4.1,3.3c0,0.6,0.9,0.8,1.9,0.8
					c0.6,0,1.3-0.1,2.2-0.4V92.3z M112.1,87c-0.6-0.6-1.2-1.1-1.8-1.6c0.4-0.6,0.8-1,1.2-1.4c0.6,0.5,1.1,1,1.7,1.6
					C112.8,86.2,112.5,86.6,112.1,87 M115,86.8c-0.6-0.6-1.2-1.1-1.8-1.6c0.4-0.5,0.8-1,1.2-1.4c0.6,0.5,1.1,1,1.7,1.6
					C115.7,86,115.4,86.4,115,86.8"/>
			</g>
			<g>
				<defs>
					<rect id="SVGID_17_" x="11.9" y="1" width="191.1" height="204.9"/>
				</defs>
				<clipPath id="SVGID_18_">
					<use xlink:href="#SVGID_17_"  style="overflow:visible;"/>
				</clipPath>
				<path class="st10" d="M117.9,97.8c1.2,0,2.4-0.5,2.6-1.3l0.4-1.6l1-0.8l0.1,0.1c-0.2,0.8-0.3,1.4-0.3,1.8c0,0.5,0.1,1,0.5,1.3
					c0.5,0.4,1.1,0.6,1.9,0.6h0.3v1.9h-0.3c-1.5,0-2.6-0.4-3.1-1.5h-0.1c-0.5,1-1.7,1.5-3,1.5h-0.3c-0.8,0-1.1-0.6-1.1-1
					s0.2-0.9,1.1-0.9L117.9,97.8L117.9,97.8z M119.7,105.8c-0.6-0.6-1.2-1.1-1.8-1.6c0.4-0.5,0.8-1,1.2-1.4c0.6,0.5,1.1,1,1.7,1.6
					C120.4,105,120.1,105.4,119.7,105.8 M122.6,105.6c-0.6-0.6-1.2-1.1-1.8-1.6c0.4-0.5,0.8-1,1.2-1.4c0.6,0.5,1.1,1,1.7,1.6
					C123.3,104.8,123,105.2,122.6,105.6"/>
			</g>
			<g>
				<defs>
					<rect id="SVGID_19_" x="11.9" y="1" width="191.1" height="204.9"/>
				</defs>
				<clipPath id="SVGID_20_">
					<use xlink:href="#SVGID_19_"  style="overflow:visible;"/>
				</clipPath>
				<path class="st11" d="M124.8,97.8c0.5,0,1-0.1,1.7-0.4c0.5-0.3,0.8-0.8,0.8-1.6c0-2.4-0.2-5.1-0.4-7.8c-0.1-0.7-0.2-1.3-0.2-1.9
					c0-0.3,0.2-0.7,0.5-1c0.2-0.3,0.5-0.6,0.8-0.8l0.1,0.1c0,1,0.4,2.2,1.2,3.5c-0.3,0.3-0.6,0.5-1,0.8c0.1,1.7,0.2,3.6,0.2,5.2
					s-0.2,2.9-0.6,3.8c-0.3,0.8-0.7,1.4-1.4,1.8c-0.6,0.3-1.3,0.4-1.9,0.4h-0.2c-0.8,0-1.1-0.6-1.1-1s0.2-0.9,1.1-0.9h0.4V97.8z"/>
			</g>
			<g>
				<defs>
					<rect id="SVGID_21_" x="11.9" y="1" width="191.1" height="204.9"/>
				</defs>
				<clipPath id="SVGID_22_">
					<use xlink:href="#SVGID_21_"  style="overflow:visible;"/>
				</clipPath>
				<path class="st12" d="M135.6,99.8h-0.2c-1.2,0-2-0.2-2.6-0.9c-0.9-0.9-0.9-2-0.9-4.2c0-2.9-0.2-5.9-0.4-9.1
					c0.5-0.6,1-1.1,1.4-1.4l0.1,0.1c0.2,3.3,0.2,7.2,0.2,10.9V96c0,1,0.5,1.4,1.1,1.6c0.4,0.1,0.8,0.2,1,0.2h0.2L135.6,99.8
					L135.6,99.8z"/>
			</g>
			<g>
				<defs>
					<rect id="SVGID_23_" x="11.9" y="1" width="191.1" height="204.9"/>
				</defs>
				<clipPath id="SVGID_24_">
					<use xlink:href="#SVGID_23_"  style="overflow:visible;"/>
				</clipPath>
				<path class="st13" d="M136.6,97.8c2.5,0,5-0.9,8.1-2.7V95c-1.8-0.7-3.4-1.1-4.7-1.1c-0.9,0-1.5,0.3-1.9,0.8l0.2,0.8l-0.5,1.4
					h-0.2l-0.7-2c0.1-1.7,1.5-2.7,3.3-2.7c1,0,2.6,0.4,5,1.3c0.7,0.3,1.6,0.5,2.6,0.5h1.2l0,0l-0.8,1.6c-1.3,0-2.1,0.2-2.6,0.6
					l-2.5,1.7c-2,1.3-4.2,2-6.5,2h-0.8c-0.8,0-1.1-0.6-1.1-1s0.2-0.9,1.1-0.9h0.8V97.8z M140.9,86.9c0.6,0.5,1.2,1,1.8,1.6
					c-0.3,0.5-0.7,1-1.3,1.5c-0.6-0.6-1.2-1-1.8-1.6C140.1,87.9,140.5,87.4,140.9,86.9"/>
			</g>
			<g>
				<defs>
					<rect id="SVGID_25_" x="11.9" y="1" width="191.1" height="204.9"/>
				</defs>
				<clipPath id="SVGID_26_">
					<use xlink:href="#SVGID_25_"  style="overflow:visible;"/>
				</clipPath>
				<path class="st14" d="M42,126.7c-1.6,0-2.8-0.6-2.8-1.8c0-0.4,0.2-1,0.5-1.8c0.6-1.3,2.2-2.7,4.8-4.2l-0.1-1.1
					c0.4-0.4,0.8-0.9,1.2-1.2h0.2c0.1,2.3,0.1,4.7,0.1,7c0,1,0.1,1.7,0.6,2.1c0.3,0.3,0.9,0.4,1.6,0.4h0.4v1.9h-0.3
					c-1.5,0-2.6-0.4-3.1-2.1C44.1,126.4,43.2,126.7,42,126.7 M44.7,120.7c-2.7,1.4-4.1,2.5-4.1,3.3c0,0.6,0.9,0.8,1.9,0.8
					c0.6,0,1.3-0.1,2.2-0.4L44.7,120.7z M42.9,115.3c-0.6-0.6-1.2-1.1-1.8-1.6c0.4-0.5,0.8-1,1.2-1.4c0.6,0.5,1.1,1,1.7,1.6
					C43.6,114.6,43.3,114.9,42.9,115.3 M45.8,115.1c-0.6-0.6-1.2-1.1-1.8-1.6c0.4-0.5,0.8-1,1.2-1.4c0.6,0.5,1.1,1,1.7,1.6
					C46.5,114.4,46.2,114.7,45.8,115.1"/>
			</g>
			<g>
				<defs>
					<rect id="SVGID_27_" x="11.9" y="1" width="191.1" height="204.9"/>
				</defs>
				<clipPath id="SVGID_28_">
					<use xlink:href="#SVGID_27_"  style="overflow:visible;"/>
				</clipPath>
				<path class="st15" d="M49.7,126.2c1.3,0,2.4,0,3.3-0.3c1-0.3,1.8-0.9,1.8-1.3c0-0.1,0-0.2,0-0.3c-0.5,0.1-1.2,0.1-1.7,0.1
					c-1.8,0-3.1-0.5-3.6-1.6c-0.1-0.3-0.2-0.7-0.2-1.1c0-1.1,0.4-2.2,1.1-3c0.6-0.6,1.3-1,1.9-1c1.2,0,2.2,1.2,2.9,3
					c0.4,1,0.6,2.2,0.6,3.6c0,1-0.2,1.8-0.7,2.4c-0.9,1.1-2.7,1.5-5.4,1.5h-1.2c-0.8,0-1.1-0.6-1.1-1s0.2-0.9,1.1-0.9L49.7,126.2
					L49.7,126.2z M52,119.6c-1,0-1.8,0.8-1.8,1.3c0,1.2,2,1.6,4.4,1.6C54.2,121.1,53.2,119.6,52,119.6 M51.7,112.9
					c0.6,0.5,1.2,1,1.8,1.6c-0.3,0.5-0.7,1-1.3,1.5c-0.6-0.6-1.2-1-1.8-1.6C50.8,113.9,51.2,113.3,51.7,112.9"/>
			</g>
			<g>
				<defs>
					<rect id="SVGID_29_" x="11.9" y="1" width="191.1" height="204.9"/>
				</defs>
				<clipPath id="SVGID_30_">
					<use xlink:href="#SVGID_29_"  style="overflow:visible;"/>
				</clipPath>
				<path class="st16" d="M62.6,128.1h-0.2c-1.2,0-2-0.2-2.6-0.9c-0.9-0.9-0.9-2-0.9-4.2c0-2.9-0.2-5.9-0.4-9.1
					c0.5-0.6,1-1.1,1.4-1.4l0.1,0.1c0.2,3.3,0.2,7.2,0.2,10.9v0.9c0,1,0.5,1.4,1.1,1.6c0.4,0.1,0.8,0.2,1,0.2h0.2v1.9H62.6z"/>
			</g>
			<g>
				<defs>
					<rect id="SVGID_31_" x="11.9" y="1" width="191.1" height="204.9"/>
				</defs>
				<clipPath id="SVGID_32_">
					<use xlink:href="#SVGID_31_"  style="overflow:visible;"/>
				</clipPath>
				<path class="st17" d="M62.9,126.2c1.3,0,2.3-0.4,2.5-1.3c0.1-0.6,0.2-1.2,0.4-1.7c0.3-0.3,0.7-0.6,1-0.8l0.1,0.1
					c-0.1,0.5-0.2,1-0.2,1.4c0,0.8,0.2,1.3,0.8,1.7c0.9-1.3,1.8-2.6,3.1-3.8c1-0.8,2-1.6,3.4-1.6c2.2,0,3.4,1.6,3.4,3.3
					c0,0.9-0.3,1.8-0.8,2.7h2v1.9h-0.4c-1.5,0-2.9-0.2-4.5-0.5c-0.9,0.3-2,0.5-3.5,0.5c-2,0-3.4-0.5-4.3-1.6l0,0
					c-0.8,1.3-2.1,1.6-3.1,1.6h-0.2c-0.8,0-1.1-0.6-1.1-1s0.2-0.9,1.1-0.9C62.6,126.2,62.9,126.2,62.9,126.2z M71.1,126.2
					c1.5,0,3.1-0.4,3.9-0.7c0.7-0.3,1.2-0.7,1.2-1.1c-0.2-1.3-1.5-2.3-2.8-2.3c-1.8,0-3.4,1.5-5.1,3.7
					C68.8,126.1,69.7,126.2,71.1,126.2 M71.7,115c0.6,0.5,1.2,1,1.8,1.6c-0.3,0.5-0.7,1-1.3,1.5c-0.6-0.6-1.2-1-1.8-1.6
					C70.9,116,71.3,115.4,71.7,115"/>
			</g>
			<g>
				<defs>
					<rect id="SVGID_33_" x="11.9" y="1" width="191.1" height="204.9"/>
				</defs>
				<clipPath id="SVGID_34_">
					<use xlink:href="#SVGID_33_"  style="overflow:visible;"/>
				</clipPath>
				<path class="st18" d="M82.3,126.8c-1.1,0.9-2,1.3-3.4,1.3h-0.2c-0.8,0-1.1-0.6-1.1-1s0.2-0.9,1.1-0.9h0.1c1.5,0,2.5-0.4,3.4-1.1
					c-0.3-2.9-0.3-6-0.3-8.3c0-0.6-0.1-1.6-0.1-2.3c0-0.5,0.1-0.9,0.5-1.3c0.2-0.3,0.5-0.5,0.8-0.8l0.2,0.1c0,0.3,0,0.5,0,0.6
					c0,1.1,0.5,2.1,1.2,3.1l-1.1,0.8c0,4.8,0.1,6,0.3,7.4h0.1c0.6-0.3,1.2-0.5,1.9-0.5c0.6,0,1.3,0.3,1.7,0.8
					c0.5,0.5,0.7,1.3,0.7,2.1c0,1.9-1.3,2.9-2.4,2.9C84.1,129.7,83,128.5,82.3,126.8L82.3,126.8z M86.2,128c0.3,0,0.5-0.1,0.7-0.3
					c0-0.5-0.2-1-0.6-1.4c-0.3-0.4-0.8-0.7-1.4-0.7c-0.4,0-0.9,0.1-1.2,0.3C84.1,127.1,85.2,128,86.2,128"/>
			</g>
			<g>
				<defs>
					<rect id="SVGID_35_" x="11.9" y="1" width="191.1" height="204.9"/>
				</defs>
				<clipPath id="SVGID_36_">
					<use xlink:href="#SVGID_35_"  style="overflow:visible;"/>
				</clipPath>
				<path class="st19" d="M90.7,128.4c0.2-0.9,0.2-2,0.2-3v-1.5c0-2.8-0.3-6.8-0.5-9.4c0.4-0.5,1-1.2,1.5-1.6H92
					c0.3,3.3,0.4,7.1,0.4,10.6c0,0.9,0,1.8-0.1,2.5c0,0.8-0.5,1.5-1.3,2.4H90.7z"/>
			</g>
			<g>
				<defs>
					<rect id="SVGID_37_" x="11.9" y="1" width="191.1" height="204.9"/>
				</defs>
				<clipPath id="SVGID_38_">
					<use xlink:href="#SVGID_37_"  style="overflow:visible;"/>
				</clipPath>
				<path class="st20" d="M117.8,129.6h-10.6c-1,0-1.7,0-2-0.1c-0.3,0-0.7-0.1-1.1-0.3c-0.7-0.2-1.3-0.7-1.7-1.4
					c-0.4-0.7-0.7-1.5-0.7-2.4c0-0.3,0-0.7,0-0.9c0-0.3,0.1-0.6,0.2-1c0.1-0.5,0.3-1,0.5-1.4s0.5-0.9,0.9-1.5l0.7,0.5
					c-0.4,0.7-0.6,1.2-0.7,1.6s-0.2,0.8-0.2,1.1c0,0.5,0.2,0.9,0.5,1.3s0.7,0.6,1.2,0.7c0.3,0.1,0.7,0.1,1.2,0.2
					c0.5,0,1,0.1,1.5,0.1h9.1c-0.2-0.6-0.4-1.1-0.6-1.4s-0.5-0.7-0.9-1.2l1.1-2.9c0.6,0.9,1,1.7,1.2,2.5c0.2,0.7,0.3,1.6,0.3,2.9
					L117.8,129.6L117.8,129.6z M113.3,117.7l-1.4,2.6l-1.8-1l-1,2l-2.3-1.3l1.3-2.4l1.9,0.9l1.1-2L113.3,117.7z"/>
			</g>
			<g>
				<defs>
					<rect id="SVGID_39_" x="11.9" y="1" width="191.1" height="204.9"/>
				</defs>
				<clipPath id="SVGID_40_">
					<use xlink:href="#SVGID_39_"  style="overflow:visible;"/>
				</clipPath>
				<path class="st21" d="M123.8,129.6H122c-1,0-1.7-0.4-2.1-1.2c-0.5-0.9-0.7-2.4-0.7-4.5v-3.6c0-0.8-0.1-1.5-0.3-1.9
					c-0.1-0.2-0.4-0.5-0.8-0.9l1.4-3.2c0.5,0.7,0.8,1.3,1,2c0.2,0.8,0.3,1.7,0.3,2.9v2.5c0,1.8,0.1,3,0.4,3.6
					c0.2,0.5,0.5,0.8,0.9,0.8h1.8v3.5H123.8z"/>
			</g>
			<g>
				<defs>
					<rect id="SVGID_41_" x="11.9" y="1" width="191.1" height="204.9"/>
				</defs>
				<clipPath id="SVGID_42_">
					<use xlink:href="#SVGID_41_"  style="overflow:visible;"/>
				</clipPath>
				<path class="st22" d="M130.8,129.6h-7.9v-3.4h6.6c-0.1-0.6-0.3-1.1-0.5-1.4c-0.1-0.2-0.4-0.6-0.9-1.1l1-3
					c0.6,0.7,1.1,1.5,1.3,2.2c0.2,0.8,0.3,1.9,0.3,3.5L130.8,129.6L130.8,129.6z M130.9,115.9l-1.5,2.8l-2.9-1.5l1.5-2.8
					L130.9,115.9z"/>
			</g>
			<g>
				<defs>
					<rect id="SVGID_43_" x="11.9" y="1" width="191.1" height="204.9"/>
				</defs>
				<clipPath id="SVGID_44_">
					<use xlink:href="#SVGID_43_"  style="overflow:visible;"/>
				</clipPath>
				<path class="st23" d="M142.4,128.7c0,1.4-0.6,2.9-1.8,4.3c-1.2,1.4-2.4,2.1-3.6,2.1c-0.7,0-1.5-0.2-2.3-0.7
					c-0.8-0.4-2.1-1.3-3.8-2.6l0.5-0.7c0.9,0.6,1.6,1,2.2,1.2c0.5,0.2,1,0.2,1.6,0.2c0.8,0,1.6-0.2,2.4-0.7c0.9-0.5,1.9-1.4,2.9-2.6
					c-0.4,0.1-0.6,0.1-0.9,0.1c-0.8,0-1.5-0.3-2-0.8s-0.7-1.3-0.7-2.2c0-1.3,0.3-2.5,0.9-3.6c0.6-1.3,1.3-1.9,2.2-1.9
					c0.7,0,1.2,0.5,1.7,1.4s0.7,2,0.7,3.3L142.4,128.7L142.4,128.7z M140.9,126.2c-0.2-1.4-0.7-2-1.4-2c-0.3,0-0.5,0.1-0.6,0.3
					s-0.2,0.4-0.2,0.7c0,0.3,0.2,0.6,0.5,0.7c0.3,0.2,0.8,0.3,1.3,0.3H140.9z"/>
			</g>
			<g>
				<defs>
					<rect id="SVGID_45_" x="11.9" y="1" width="191.1" height="204.9"/>
				</defs>
				<clipPath id="SVGID_46_">
					<use xlink:href="#SVGID_45_"  style="overflow:visible;"/>
				</clipPath>
				<path class="st24" d="M153.1,129.6c-0.9,0-1.9-0.2-3.1-0.5c-1-0.3-2-0.7-2.8-1.1c-0.5,0.7-1.1,1.2-1.8,1.4
					c-0.3,0.1-0.8,0.2-1.4,0.2h-2.5v-3.4h2.5c0.8,0,1.4-0.1,1.8-0.3c0.6-0.2,1-0.6,1.2-1.2c0.5-1.1,1.1-1.9,1.8-2.6
					c0.7-0.6,1.2-0.9,1.7-0.9c0.4,0,1,0.6,1.6,1.9c0.7,1.4,1,2.6,1,3.8V129.6z M150.8,125.8c0-0.2-0.2-0.5-0.5-1
					c-0.4-0.5-0.8-0.8-1-0.8c-0.3,0-0.6,0.4-0.8,1.1c0.4,0.2,0.8,0.3,1,0.4c0.7,0.3,1.1,0.4,1.1,0.4
					C150.7,126,150.8,125.9,150.8,125.8"/>
			</g>
			<g>
				<defs>
					<rect id="SVGID_47_" x="11.9" y="1" width="191.1" height="204.9"/>
				</defs>
				<clipPath id="SVGID_48_">
					<use xlink:href="#SVGID_47_"  style="overflow:visible;"/>
				</clipPath>
				<path class="st25" d="M164.3,129.9c0,0.5-0.3,1.2-0.9,2c-0.6,0.8-1.3,1.6-2.1,2.2c-0.9,0.7-1.6,1-2.2,1c-0.7,0-1.5-0.2-2.4-0.6
					c-0.7-0.4-1.9-1.1-3.5-2.2l0.5-0.8c0.8,0.5,1.4,0.8,1.8,1c0.5,0.2,1,0.3,1.5,0.3c0.6,0,1.2-0.2,1.7-0.5c0.6-0.3,1.4-0.9,2.4-1.8
					c1.4-1.2,2.1-2.2,2.1-2.9c0-0.3-0.1-0.8-0.4-1.3c-0.3-0.6-0.7-1.1-1.1-1.5l0.7-3.4c0.6,0.6,1,1.3,1.3,2c0.3,0.8,0.5,1.6,0.5,2.6
					L164.3,129.9L164.3,129.9z"/>
			</g>
			<g>
				<defs>
					<rect id="SVGID_49_" x="11.9" y="1" width="191.1" height="204.9"/>
				</defs>
				<clipPath id="SVGID_50_">
					<use xlink:href="#SVGID_49_"  style="overflow:visible;"/>
				</clipPath>
				<path class="st26" d="M175.9,129.6h-2.6c-0.2,0-0.4,0-0.6,0c-0.2,0-0.5,0-0.9,0.1c0.3,0.2,0.6,0.3,0.9,0.5
					c0.3,0.2,0.4,0.5,0.4,0.8s0,0.7-0.1,1c-0.1,0.2-0.2,0.6-0.4,1.1c-0.4,1-0.7,1.8-1,2.1c-0.3,0.4-0.7,0.6-1.2,0.6
					c-1.2,0-2.2-0.6-3-1.8s-1.3-2.7-1.3-4.4h-2.9v-3.4h1.1c0.5,0,0.9,0,1.4-0.1s0.9-0.2,1.1-0.2c0.9-2.5,1.8-4.4,2.5-5.5
					c0.6-1,1.2-1.5,1.7-1.5c0.4,0,0.8,0.4,1.1,1.3c0.3,0.7,0.4,1.4,0.4,2.1c0,1-0.2,1.8-0.6,2.5c-0.4,0.8-1,1.3-1.9,1.7
					c0.6-0.1,1.2-0.2,1.7-0.2s1,0,1.4,0h2.6v3.3H175.9z M171.3,132.3c0-0.5-0.3-0.9-0.8-1.3c-0.6-0.5-1.6-0.9-2.8-1.1
					c0.1,0.7,0.5,1.4,1.2,1.9c0.6,0.5,1.3,0.8,2.1,0.8C171.2,132.6,171.3,132.5,171.3,132.3 M170.8,123.9c0-0.2-0.1-0.5-0.2-0.8
					c-0.2-0.3-0.3-0.5-0.5-0.5s-0.5,0.2-0.8,0.7s-0.6,1.2-1.1,2.2c1-0.3,1.6-0.6,2-0.9C170.6,124.4,170.8,124.1,170.8,123.9"/>
			</g>
			<g>
				<defs>
					<rect id="SVGID_51_" x="11.9" y="1" width="191.1" height="204.9"/>
				</defs>
				<clipPath id="SVGID_52_">
					<use xlink:href="#SVGID_51_"  style="overflow:visible;"/>
				</clipPath>
				<path class="st27" d="M182,129.6h-6.9v-3.4h5.4l-1.5-8.6l-0.8-0.5c0-0.5,0.1-1,0.2-1.5c0.2-0.6,0.5-1.4,1-2.3l0.6,0.3
					c0,0.1,0,0.2-0.1,0.4c0,0.3,0.2,0.5,0.5,0.8c0.3,0.2,0.8,0.5,1.5,0.8c-0.1,0.5-0.2,1.1-0.3,1.6s-0.3,1-0.5,1.4l-0.5-0.2l1.4,7.8
					L182,129.6L182,129.6z"/>
			</g>
			<g>
				<defs>
					<rect id="SVGID_53_" x="11.9" y="1" width="191.1" height="204.9"/>
				</defs>
				<clipPath id="SVGID_54_">
					<use xlink:href="#SVGID_53_"  style="overflow:visible;"/>
				</clipPath>
				<path class="st28" d="M186.6,125.9c0,0.7-0.1,1.4-0.3,2s-0.5,1.4-1,2.5l-0.8-0.3c0.2-1.1,0.3-1.9,0.3-2.6c0-0.5,0-1.3-0.1-2.3
					s-0.2-2-0.3-2.9c-0.1-1-0.3-2.1-0.6-3.5c-0.1-0.5-0.2-0.8-0.2-1c0-0.3,0.1-0.7,0.4-1.3c0.3-0.6,0.6-1.4,1.1-2.3l0.8,4.5
					c0.3,1.7,0.5,3.2,0.6,4.4C186.6,124.1,186.6,125.1,186.6,125.9"/>
			</g>
		</g>
	</g>
</g>
<g id="Layer_2">
	<g>
		<defs>
			<rect id="SVGID_55_" x="15.2" y="5.6" width="183.9" height="197.2"/>
		</defs>
		<clipPath id="SVGID_56_">
			<use xlink:href="#SVGID_55_"  style="overflow:visible;"/>
		</clipPath>
		<g class="st29">
			<path class="st30" d="M171.8,46.2c-34.9-34.9-91.6-34.9-126.6,0s-34.9,91.6,0,126.6s91.6,34.9,126.6,0
				c16.8-16.8,26.2-39.5,26.2-63.3C198,85.8,188.6,63,171.8,46.2 M168.9,169.9C135.6,203.4,81.5,203.4,48,170S14.6,82.5,48,49.1
				s87.5-33.4,120.9-0.1c16,16,25.1,37.8,25.1,60.5C194,132.2,185,153.9,168.9,169.9"/>
			<path class="st30" d="M88.9,138.7l-30.7,30.8c-0.7,0.6-0.9,1.6-0.3,2.4c0.6,0.7,1.6,0.9,2.4,0.3c0.1-0.1,0.2-0.2,0.3-0.3
				l30.7-30.8c0.6-0.7,0.6-1.8-0.1-2.4C90.4,138.1,89.5,138.1,88.9,138.7"/>
			<path class="st30" d="M58.4,49.8l31.7,31.7c0.6,0.7,1.7,0.7,2.4,0c0,0,0,0,0,0c0.7-0.7,0.7-1.7,0-2.4L60.8,47.4
				c-0.6-0.7-1.7-0.8-2.4-0.1s-0.8,1.7-0.1,2.4C58.3,49.8,58.3,49.8,58.4,49.8"/>
			<path class="st30" d="M126.2,141.6l29.8,29.8c0.7,0.7,1.7,0.7,2.4,0c0.7-0.6,0.7-1.7,0-2.4c0,0,0,0,0,0l-29.8-29.8
				c-0.7-0.6-1.8-0.6-2.4,0.1C125.7,139.9,125.7,140.9,126.2,141.6"/>
			<path class="st30" d="M156.5,47.1L124,79.7c-0.7,0.7-0.7,1.7,0,2.4c0,0,0,0,0,0c0.7,0.7,1.7,0.7,2.4,0l32.5-32.6
				c0.6-0.7,0.6-1.8-0.1-2.4C158.2,46.6,157.2,46.6,156.5,47.1"/>
		</g>
	</g>
	<text transform="matrix(1 0 0 1 72.37 106.42)" class="st30 st31 st32 st33">不</text>
	<text transform="matrix(1 0 0 1 97.39 106.42)" class="st30 st31 st32 st33">喂</text>
	<text transform="matrix(1 0 0 1 122.36 106.42)" class="st30 st31 st32">食</text>
	<text transform="matrix(1 0 0 1 71.77 132.42)" class="st30 st31 st32 st34">抗</text>
	<text transform="matrix(1 0 0 1 97.36 132.42)" class="st30 st31 st32 st34">生</text>
	<text transform="matrix(1 0 0 1 122.92 132.42)" class="st30 st31 st32">素</text>
</g>
</svg>
