<?xml version="1.0" encoding="utf-8"?>
<!-- Generator: Adobe Illustrator 23.0.4, SVG Export Plug-In . SVG Version: 6.00 Build 0)  -->
<svg version="1.1" id="Layer_1" xmlns="http://www.w3.org/2000/svg" xmlns:xlink="http://www.w3.org/1999/xlink" x="0px" y="0px"
	 viewBox="0 0 216.4 216.4" style="enable-background:new 0 0 216.4 216.4;" xml:space="preserve">
<style type="text/css">
	.st0{display:none;}
	.st1{display:inline;}
	.st2{clip-path:url(#SVGID_2_);fill:#231F20;}
	.st3{clip-path:url(#SVGID_4_);fill:#231F20;}
	.st4{clip-path:url(#SVGID_6_);fill:#231F20;}
	.st5{clip-path:url(#SVGID_8_);fill:#231F20;}
	.st6{clip-path:url(#SVGID_10_);fill:#231F20;}
	.st7{fill:#231F20;}
	.st8{clip-path:url(#SVGID_12_);fill:#231F20;}
	.st9{clip-path:url(#SVGID_14_);fill:#231F20;}
	.st10{clip-path:url(#SVGID_16_);fill:#231F20;}
	.st11{clip-path:url(#SVGID_18_);fill:#231F20;}
	.st12{clip-path:url(#SVGID_20_);fill:#231F20;}
	.st13{font-family:'Graphik-Bold';}
	.st14{font-size:26.3079px;}
	.st15{letter-spacing:2;}
	.st16{letter-spacing:1;}
	.st17{font-family:'Archer-Bold';}
	.st18{font-size:18.7914px;}
</style>
<g id="Aged_21_days" class="st0">
	<g class="st1">
		<g>
			<path d="M55.2,81.6h1l2.9-8h-1.3v-1.8h6.5v1.8H63l2.9,8h1v1.8h-4.4v-1.7h1.3l-0.6-1.9h-4.3l-0.6,1.9h1.4v1.7h-4.4L55.2,81.6
				L55.2,81.6z M62.7,78.1L61,73.5L59.4,78L62.7,78.1L62.7,78.1z"/>
			<path d="M73.4,81.6h1.4v-8h-2.1v1.8h-1.9v-3.5h10v3.5H79v-1.8h-2.1v8h1.4v1.8h-4.8L73.4,81.6L73.4,81.6z"/>
			<path d="M94.1,81.6h1.3v-8h-1.3v-1.8h4.8v1.8h-1.5v8h3.2V80h1.9v3.4h-8.3L94.1,81.6L94.1,81.6z"/>
			<path d="M107.9,81.6h1.3v-8h-1.3v-1.8h8.6v3.3h-1.9v-1.5h-3.4v3.1h3.5v1.7h-3.5v3.2h3.4V80h1.9v3.3h-8.6V81.6z"/>
			<path d="M121.5,81.6h1l2.9-8h-1.3v-1.8h6.5v1.8h-1.3l2.9,8h1v1.8h-4.4v-1.7h1.3l-0.6-1.9h-4.3l-0.6,1.9h1.4v1.7h-4.4
				C121.5,83.3,121.5,81.6,121.5,81.6z M129,78.1l-1.6-4.5l-1.6,4.5H129z"/>
			<path d="M138,80.9c0-0.8,0.5-1.4,1.2-1.4c0.8,0,1.3,0.6,1.3,1.1c0,0.3-0.1,0.5-0.2,0.7c0.4,0.3,1.1,0.5,1.8,0.5
				c1.3,0,2.1-0.6,2.1-1.6c0-0.9-1-1.4-2.1-1.8c-2.1-0.8-3.6-1.4-3.6-3.6c0-1.8,1.5-3.3,3.8-3.3c2.1,0,3.8,1.1,3.8,2.5
				c0,0.8-0.5,1.3-1.2,1.3c-0.8,0-1.3-0.6-1.3-1.2c0-0.3,0.1-0.4,0.1-0.5c-0.3-0.2-0.8-0.3-1.5-0.3c-1.1,0-1.8,0.6-1.8,1.4
				c0,0.9,1,1.4,2.1,1.8c2.1,0.7,3.6,1.4,3.6,3.6s-1.7,3.4-4.1,3.4C139.8,83.5,138,82.2,138,80.9z"/>
			<path d="M153.9,81.6h1.4v-8h-2.1v1.8h-1.9v-3.5h10v3.5h-1.9v-1.8h-2.1v8h1.4v1.8h-4.8L153.9,81.6L153.9,81.6z"/>
		</g>
		<g>
			<circle cx="44" cy="108.1" r="3.9"/>
			<circle cx="172.5" cy="108.1" r="3.9"/>
		</g>
		<path d="M108.2,199.2c-50.3,0-91.1-40.9-91.1-91.2s41-91.2,91.2-91.2s91.2,40.9,91.1,91.2C199.4,158.4,158.5,199.2,108.2,199.2z
			 M108.3,20.7c-48.2,0-87.4,39.2-87.5,87.4c0,48.2,39.2,87.4,87.3,87.4s87.4-39.2,87.5-87.4C195.7,59.9,156.5,20.7,108.3,20.7z"/>
		<g>
			<path d="M105.5,139.8v7.3H67.8v-2.9l21.4-22.6c5.1-5.4,7.4-10,7.4-14.7c0-5.4-3.1-8.5-8.5-8.5c-5.9,0-9.3,3.6-10.2,10.9l-0.1,0.9
				h-8l0.1-1.1c0.8-11.1,7.9-18,18.3-18s17.1,6.3,17.1,16c0,6.3-3.6,12.8-11.1,20.1l-12.9,12.5L105.5,139.8L105.5,139.8z"/>
			<polygon points="141.1,91.8 141,147.1 132.5,147.1 132.5,101.2 120.6,109.8 120.6,101.2 133.6,91.8 			"/>
		</g>
		<g>
			<path d="M68.2,44.7l5.5-3.2L87,53.7l-4.5,2.6L80.2,54l-4.9,2.8L76,60l-4,2.3L68.2,44.7z M74.4,53.4l3.3-1.9l-4.9-4.8L74.4,53.4z"
				/>
			<path d="M89.3,44.1v-0.2c-0.8-5.2,2.4-9.2,7.5-10c4-0.6,7.8,0.6,8.9,5l-4.8,0.8c-0.5-1.5-1.6-2.2-3.4-1.9
				c-2.4,0.4-3.6,2.5-3.1,5.5v0.2c0.4,2.8,1.8,4.7,4.7,4.3c2.4-0.4,3.1-1.7,3-3.1L98.9,45l-0.5-3.4l8-1.2l0.3,2.1
				c0.7,4.3-1.6,8-7.1,8.9C93.8,52.3,90.1,49.2,89.3,44.1z"/>
			<path d="M116.1,33.4l11.7,2.1l-0.7,3.7l-6.8-1.2l-0.5,2.9l5.5,1l-0.6,3.5l-5.5-1l-0.6,3.1l7.2,1.3l-0.7,3.7l-12-2.2L116.1,33.4z"
				/>
			<path d="M139.4,39.6l5.4,3.1c5.3,3,6.4,7.2,3.8,11.9l-0.1,0.2c-2.7,4.6-7.1,5.8-12.3,2.8l-5.4-3.1L139.4,39.6z M138,54.2
				c2.5,1.5,4.4,0.8,6-2l0.1-0.2c1.6-2.8,1.2-4.7-1.4-6.2l-0.9-0.5l-4.8,8.3L138,54.2z"/>
		</g>
		<g>
			<path d="M77.3,162.2l4.8,2.2c4.7,2.1,6.1,5.6,4.2,9.7l-0.1,0.1c-1.9,4.1-5.4,5.6-10.1,3.4l-4.8-2.2L77.3,162.2z M77.3,174.7
				c2.3,1,3.8,0.3,4.9-2.2l0.1-0.1c1.1-2.5,0.6-4.1-1.7-5.1l-0.8-0.4l-3.3,7.4L77.3,174.7z"/>
			<path d="M98.8,169.5l5.4,0.6l3,15l-4.4-0.5l-0.5-2.8l-4.8-0.5l-1.1,2.6l-3.9-0.4L98.8,169.5z M98.6,178.5l3.2,0.4l-1-5.7
				L98.6,178.5z"/>
			<path d="M118.4,177.8l-6.1-7.4l4.5-0.8l3.3,4.4l1.6-5.3l3.9-0.7l-3,9l1.1,6.1l-4.1,0.7L118.4,177.8z"/>
			<path d="M134.7,175.4l3.6-1.8c0.6,0.9,1.4,1.4,2.9,0.7c1.1-0.5,1.4-1.4,1-2.1c-0.4-0.8-1-0.8-2.7-0.2c-3.9,1.4-5.7,0.9-7-1.7
				c-1.2-2.4-0.1-5,3-6.6s5.6-1.1,7.2,1.5l-3.5,1.7c-0.6-0.9-1.4-1.1-2.4-0.6s-1.3,1.2-1,1.9c0.4,0.7,0.9,0.9,2.7,0.3
				c3.5-1.3,5.6-1.3,7,1.6c1.2,2.4,0.3,5.3-3.1,6.9C138.8,178.7,136.2,178.1,134.7,175.4z"/>
		</g>
	</g>
</g>
<g id="de" class="st0">
	<g class="st1">
		<g>
			<defs>
				<rect id="SVGID_1_" x="-0.7" y="1.7" width="217.4" height="213.7"/>
			</defs>
			<clipPath id="SVGID_2_">
				<use xlink:href="#SVGID_1_"  style="overflow:visible;"/>
			</clipPath>
			<path class="st2" d="M48.2,89.1c0,2.1-1.7,3.9-3.9,3.9c-2.1,0-3.9-1.7-3.9-3.9c0-2.1,1.7-3.9,3.9-3.9S48.2,86.9,48.2,89.1"/>
		</g>
		<g>
			<defs>
				<rect id="SVGID_3_" x="-0.7" y="1.7" width="217.4" height="213.7"/>
			</defs>
			<clipPath id="SVGID_4_">
				<use xlink:href="#SVGID_3_"  style="overflow:visible;"/>
			</clipPath>
			<path class="st3" d="M176.3,89.1c0,2.1-1.7,3.9-3.9,3.9c-2.1,0-3.9-1.7-3.9-3.9c0-2.1,1.7-3.9,3.9-3.9S176.3,86.9,176.3,89.1"/>
		</g>
		<g>
			<defs>
				<rect id="SVGID_5_" x="-0.7" y="1.7" width="217.4" height="213.7"/>
			</defs>
			<clipPath id="SVGID_6_">
				<use xlink:href="#SVGID_5_"  style="overflow:visible;"/>
			</clipPath>
			<path class="st4" d="M108,198.6c-50.1,0-90.8-40.7-90.8-90.8S58,16.9,108.1,16.9s90.8,40.8,90.8,90.9
				C198.9,157.8,158.1,198.6,108,198.6 M108.2,20.6c-48,0-87.1,39.1-87.2,87.1c0,48,39,87.1,87,87.1s87.1-39.1,87.2-87.1
				C195.2,59.7,156.2,20.6,108.2,20.6"/>
		</g>
		<g>
			<defs>
				<rect id="SVGID_7_" x="-0.7" y="1.7" width="217.4" height="213.7"/>
			</defs>
			<clipPath id="SVGID_8_">
				<use xlink:href="#SVGID_7_"  style="overflow:visible;"/>
			</clipPath>
			<path class="st5" d="M105.7,120.7v7.3H68.1v-2.9l21.4-22.5c5.1-5.4,7.4-9.9,7.4-14.6c0-5.4-3.1-8.5-8.5-8.5
				c-5.9,0-9.3,3.6-10.2,10.9L78,91.2h-8l0.1-1.1c0.9-11,7.9-17.9,18.2-17.9s17.1,6.3,17.1,15.9c0,6.3-3.6,12.8-11,20l-12.9,12.5
				L105.7,120.7L105.7,120.7z"/>
		</g>
		<g>
			<defs>
				<rect id="SVGID_9_" x="-0.7" y="1.7" width="217.4" height="213.7"/>
			</defs>
			<clipPath id="SVGID_10_">
				<use xlink:href="#SVGID_9_"  style="overflow:visible;"/>
			</clipPath>
			<polygon class="st6" points="141,72.9 141,128 132.5,128 132.5,82.3 120.7,90.8 120.7,82.3 133.7,72.9 			"/>
		</g>
	</g>
	<g class="st1">
		<path class="st7" d="M50.4,54.1l3.7-1.9l4.3,3.8l-0.5-5.7l3.6-1.8l4.5,8.9l-2.8,1.4l-2.8-5.5l0.4,6.8l-0.9,0.5l-5.2-4.3l2.8,5.5
			L54.9,63L50.4,54.1z"/>
	</g>
	<g class="st1">
		<path class="st7" d="M65.4,47l3-1.1l3.5,9.3l-3,1.1L65.4,47z"/>
	</g>
	<g class="st1">
		<path class="st7" d="M72.1,44.5l3.4-0.9l4.9,4.5l-1.5-5.4l2.7-0.7l2.7,9.6l-2.9,0.8l-5.5-5l1.7,6l-2.7,0.7L72.1,44.5z"/>
	</g>
	<g class="st1">
		<path class="st7" d="M85.7,41l4-0.6c3.9-0.6,6.1,0.9,6.6,3.9v0.1c0.5,3.1-1.3,5.2-5.1,5.8l-3.9,0.6L85.7,41z M90.7,48.1
			c1.9-0.3,2.5-1.3,2.3-3.1v-0.1c-0.3-1.9-1.2-2.6-3.1-2.3l-0.7,0.1l0.8,5.5L90.7,48.1z"/>
	</g>
	<g class="st1">
		<path class="st7" d="M98.9,39.3l7.6-0.4l0.1,2.2l-4.5,0.2l0.1,1.7l3.5-0.2l0.1,2l-3.5,0.2l0.1,1.8l4.7-0.2l0.1,2.2l-7.8,0.4
			L98.9,39.3z"/>
	</g>
	<g class="st1">
		<path class="st7" d="M109.3,45.7l3,0.2c0,0.7,0.4,1.3,1.7,1.4c0.9,0,1.4-0.3,1.5-0.9c0-0.6-0.4-0.8-1.7-1c-3.1-0.5-4.1-1.4-4-3.4
			c0.1-1.8,1.8-3,4.4-2.9s4.1,1.2,4.2,3.3l-2.9-0.1c-0.1-0.7-0.5-1.1-1.4-1.1c-0.8,0-1.3,0.3-1.3,0.8c0,0.6,0.3,0.8,1.7,1.1
			c2.8,0.4,4.2,1.1,4.1,3.3c-0.1,1.8-1.8,3.2-4.6,3.1C110.8,49.1,109.2,47.9,109.3,45.7z"/>
	</g>
	<g class="st1">
		<path class="st7" d="M123.6,42.2l-2.8-0.4l0.3-2.2l8.8,1.3l-0.3,2.2l-2.8-0.4l-1.1,7.7l-3.1-0.5L123.6,42.2z"/>
	</g>
	<g class="st1">
		<path class="st7" d="M133.1,41.6l7.4,1.8l-0.5,2.1l-4.3-1.1l-0.4,1.7l3.4,0.9l-0.5,2l-3.4-0.9l-0.4,1.8L139,51l-0.5,2.1l-7.6-1.9
			L133.1,41.6z"/>
	</g>
	<g class="st1">
		<path class="st7" d="M144.1,44.5l3.3,1.2l1.3,6.5l2-5.3l2.6,1l-3.5,9.3l-2.9-1.1l-1.6-7.3l-2.2,5.9l-2.6-1L144.1,44.5z"/>
	</g>
	<g class="st1">
		<path class="st7" d="M153.4,55.4l2.7,1.4c-0.3,0.7-0.2,1.4,1,1.9c0.8,0.4,1.4,0.3,1.7-0.2s0-0.9-1.1-1.6c-2.6-1.7-3.2-2.9-2.2-4.7
			c0.8-1.6,2.9-2,5.2-0.8c2.4,1.2,3.2,2.8,2.4,4.7l-2.6-1.3c0.2-0.7,0-1.2-0.8-1.6c-0.8-0.4-1.3-0.3-1.5,0.2
			c-0.3,0.5-0.1,0.9,1.1,1.6c2.4,1.5,3.3,2.8,2.3,4.7c-0.8,1.6-2.9,2.2-5.5,0.9C153.3,59.1,152.5,57.4,153.4,55.4z"/>
	</g>
	<g class="st1">
		<path class="st7" d="M50.2,150.4h1.6v-9.1h-2.4v2.1h-2.1v-4h11.4v4h-2.1v-2.1h-2.4v9.1h1.6v2h-5.5L50.2,150.4L50.2,150.4z"/>
		<path class="st7" d="M59.9,150.4H61l3.3-9.1h-1.4v-2h7.4v2h-1.4l3.3,9.1h1.1v2h-5v-2h1.5l-0.7-2.2h-4.9l-0.7,2.2H65v2h-5
			L59.9,150.4L59.9,150.4z M68.4,146.3l-1.8-5.2l-1.8,5.2H68.4z"/>
		<path class="st7" d="M75.7,145.8c0-4,3.1-6.8,6.9-6.8c3,0,5.1,1.6,5.1,3.2c0,1-0.6,1.6-1.4,1.6c-0.9,0-1.5-0.6-1.5-1.4
			c0-0.3,0.1-0.5,0.1-0.7c-0.4-0.3-1.1-0.6-2.3-0.6c-2.6,0-4.5,1.9-4.5,4.7c0,2.9,2.1,4.7,4.3,4.7c1.4,0,2.3-0.3,3.2-0.8v-2.3h-3.3
			v-1.9h5.5v6.8h-2.2v-1c-0.9,0.7-2.1,1.2-3.6,1.2C78.7,152.6,75.7,150.1,75.7,145.8z"/>
		<path class="st7" d="M91.5,150.4H93v-9.1h-1.5v-2h9.8v3.7h-2.2v-1.8h-3.9v3.5h4v1.9h-4v3.7h3.9v-1.8h2.2v3.7h-9.8V150.4z"/>
		<path class="st7" d="M110.6,150.4h1.5v-9.1h-1.5v-2h5.5v2h-1.7v9.1h3.6v-1.9h2.2v3.8h-9.5L110.6,150.4L110.6,150.4z"/>
		<path class="st7" d="M122.6,150.4h1.1l3.3-9.1h-1.4v-2h7.4v2h-1.4l3.3,9.1h1.1v2h-5v-2h1.5l-0.7-2.2h-4.9l-0.7,2.2h1.6v2h-5v-2
			H122.6z M131.1,146.3l-1.8-5.2l-1.8,5.2H131.1z"/>
		<path class="st7" d="M142.3,143.3v7h1.6v2h-5.3v-2h1.5v-9.1h-1.5v-2h3.4l6.5,8.2v-6.2h-1.6v-2h5.3v2h-1.4v11.1h-1.2L142.3,143.3z"
			/>
		<path class="st7" d="M155.1,145.8c0-4,3.1-6.8,6.9-6.8c3,0,5.1,1.6,5.1,3.2c0,1-0.6,1.6-1.4,1.6c-0.9,0-1.5-0.6-1.5-1.4
			c0-0.3,0.1-0.5,0.1-0.7c-0.4-0.3-1.1-0.6-2.3-0.6c-2.6,0-4.5,1.9-4.5,4.7c0,2.9,2.1,4.7,4.3,4.7c1.4,0,2.3-0.3,3.2-0.8v-2.3h-3.3
			v-1.9h5.5v6.8H165v-1c-0.9,0.7-2.1,1.2-3.6,1.2C158.2,152.6,155.1,150.1,155.1,145.8z"/>
	</g>
	<g class="st1">
		<path class="st7" d="M70,171.9v-0.1c0.8-2.9,3.7-4.3,6.9-3.4c2.5,0.7,4.4,2.3,4,4.9l-3-0.8c0.1-0.9-0.4-1.6-1.5-1.9
			c-1.5-0.4-2.7,0.4-3.2,2.1v0.1c-0.4,1.6-0.1,2.9,1.7,3.5c1.5,0.4,2.2-0.1,2.5-0.9l-2-0.5l0.5-1.9l5,1.4l-0.3,1.2
			c-0.7,2.4-2.9,3.8-6.4,2.9C70.6,177.3,69.2,174.7,70,171.9z"/>
	</g>
	<g class="st1">
		<path class="st7" d="M84.9,170.5l7.5,1.3L92,174l-4.4-0.7l-0.3,1.7l3.5,0.6l-0.3,2L87,177l-0.3,1.8l4.6,0.8l-0.4,2.2l-7.7-1.3
			L84.9,170.5z"/>
	</g>
	<g class="st1">
		<path class="st7" d="M95.5,172.1l4.3,0.3c2.9,0.2,4.4,1.4,4.2,3.5v0.1c-0.1,1.4-1,2.2-2.2,2.5l2.3,4.3l-3.3-0.2l-2-3.7l-0.7-0.1
			l-0.3,3.6l-3.1-0.2L95.5,172.1z M99.3,176.9c1.1,0.1,1.6-0.3,1.7-1.1v-0.1c0.1-0.8-0.5-1.2-1.5-1.2l-1-0.1l-0.2,2.4L99.3,176.9z"
			/>
	</g>
	<g class="st1">
		<path class="st7" d="M107.5,172.8l7.6-0.2l0.1,2.2l-4.5,0.1v1.7l3.6-0.1v2l-3.6,0.1v1.8l4.7-0.1l0.1,2.2l-7.8,0.2L107.5,172.8z"/>
	</g>
	<g class="st1">
		<path class="st7" d="M118.3,172.3l3.2-0.3l1,9.9l-3.2,0.3L118.3,172.3z"/>
	</g>
	<g class="st1">
		<path class="st7" d="M124.9,171.6l7.3-1.2l0.4,2.2l-4.2,0.7l0.3,2.1l3.4-0.6l0.3,2.1l-3.4,0.6l0.6,3.5l-3.1,0.5L124.9,171.6z"/>
	</g>
	<g class="st1">
		<path class="st7" d="M137.7,171.3l-2.8,0.7l-0.6-2.1l8.6-2.2l0.6,2.1l-2.8,0.7l2,7.5l-3.1,0.8L137.7,171.3z"/>
	</g>
</g>
<g id="de_1_">
	<g>
		<g>
			<defs>
				<rect id="SVGID_11_" x="14.1" y="2.9" width="186.2" height="199.6"/>
			</defs>
			<clipPath id="SVGID_12_">
				<use xlink:href="#SVGID_11_"  style="overflow:visible;"/>
			</clipPath>
			<path class="st8" d="M172.5,43.5C154.8,25.8,131.6,17,108.4,17S62,25.8,44.3,43.5s-26.5,40.9-26.5,64.1s8.9,46.4,26.5,64.1
				c17.7,17.7,40.9,26.5,64.1,26.5s46.4-8.8,64.1-26.5s26.5-40.9,26.5-64.1S190.2,61.2,172.5,43.5 M169.7,168.7
				c-16.9,16.9-39,25.3-61.2,25.3s-44.3-8.4-61.2-25.3S22,129.7,22,107.5s8.4-44.3,25.3-61.2S86.3,21,108.5,21s44.3,8.4,61.2,25.3
				s25.3,39,25.3,61.2S186.6,151.8,169.7,168.7"/>
		</g>
		<g>
			<defs>
				<rect id="SVGID_13_" x="14.1" y="2.9" width="186.2" height="199.6"/>
			</defs>
			<clipPath id="SVGID_14_">
				<use xlink:href="#SVGID_13_"  style="overflow:visible;"/>
			</clipPath>
			<path class="st9" d="M57.7,43.2l28.4,29.6c0.6,0.6,1.6,0.6,2.1,0c0.6-0.6,0.6-1.6,0-2.2L59.8,40.9c-0.6-0.6-1.6-0.6-2.2,0
				C57.1,41.6,57.1,42.6,57.7,43.2"/>
		</g>
		<g>
			<defs>
				<rect id="SVGID_15_" x="14.1" y="2.9" width="186.2" height="199.6"/>
			</defs>
			<clipPath id="SVGID_16_">
				<use xlink:href="#SVGID_15_"  style="overflow:visible;"/>
			</clipPath>
			<path class="st10" d="M157.5,40.6l-28.6,30c-0.6,0.6-0.6,1.6,0,2.2s1.5,0.6,2.1,0l28.6-30c0.6-0.6,0.6-1.6,0-2.2
				C159,40,158.1,40,157.5,40.6"/>
		</g>
		<g>
			<defs>
				<rect id="SVGID_17_" x="14.1" y="2.9" width="186.2" height="199.6"/>
			</defs>
			<clipPath id="SVGID_18_">
				<use xlink:href="#SVGID_17_"  style="overflow:visible;"/>
			</clipPath>
			<path class="st11" d="M159.6,172l-28.4-29.6c-0.6-0.6-1.6-0.6-2.1,0c-0.6,0.6-0.6,1.6,0,2.2l28.4,29.6c0.6,0.6,1.6,0.6,2.2,0
				C160.2,173.6,160.2,172.6,159.6,172"/>
		</g>
		<g>
			<defs>
				<rect id="SVGID_19_" x="14.1" y="2.9" width="186.2" height="199.6"/>
			</defs>
			<clipPath id="SVGID_20_">
				<use xlink:href="#SVGID_19_"  style="overflow:visible;"/>
			</clipPath>
			<path class="st12" d="M59.8,174.6l28.6-30c0.6-0.6,0.6-1.6,0-2.2c-0.6-0.6-1.5-0.6-2.1,0l-28.6,30c-0.6,0.6-0.6,1.6,0,2.2
				C58.2,175.2,59.2,175.2,59.8,174.6"/>
		</g>
	</g>
	<text transform="matrix(1 0 0 1 31.2042 134.8462)" class="st7 st13 st14 st15">H</text>
	<text transform="matrix(1 0 0 1 54.0042 134.8462)" class="st7 st13 st14 st16">ORMONE</text>
	<text transform="matrix(1 0 0 1 79.8448 91.5572)" class="st7 st17 st18">K</text>
	<text transform="matrix(1 0 0 1 93.1448 91.5572)" class="st7 st17 st18">EIN</text>
	<text transform="matrix(1 0 0 1 126.2448 91.5572)" class="st7 st17 st18">E</text>
	<text transform="matrix(1 0 0 1 137.5448 91.5572)" class="st7 st17 st18"> </text>
	<text transform="matrix(1 0 0 1 28.3731 110.3492)" class="st7 st17 st18">Z</text>
	<text transform="matrix(1 0 0 1 40.2731 110.3492)" class="st7 st17 st18">U</text>
	<text transform="matrix(1 0 0 1 53.8731 110.3492)" class="st7 st17 st18">G</text>
	<text transform="matrix(1 0 0 1 68.0731 110.3492)" class="st7 st17 st18">E</text>
	<text transform="matrix(1 0 0 1 79.4731 110.3492)" class="st7 st17 st18">F</text>
	<text transform="matrix(1 0 0 1 90.1731 110.3492)" class="st7 st17 st18">Ü</text>
	<text transform="matrix(1 0 0 1 103.6731 110.3492)" class="st7 st17 st18">TT</text>
	<text transform="matrix(1 0 0 1 127.9731 110.3492)" class="st7 st17 st18">E</text>
	<text transform="matrix(1 0 0 1 139.3731 110.3492)" class="st7 st17 st18">R</text>
	<text transform="matrix(1 0 0 1 150.9731 110.3492)" class="st7 st17 st18">T</text>
	<text transform="matrix(1 0 0 1 163.1731 110.3492)" class="st7 st17 st18">E</text>
	<text transform="matrix(1 0 0 1 174.5731 110.3492)" class="st7 st17 st18">N</text>
	<text transform="matrix(1 0 0 1 189.0731 110.3492)" class="st7 st17 st18"> </text>
</g>
</svg>
