<?xml version="1.0" encoding="utf-8"?>
<!-- Generator: Adobe Illustrator 23.0.4, SVG Export Plug-In . SVG Version: 6.00 Build 0)  -->
<svg version="1.1" id="Layer_1" xmlns="http://www.w3.org/2000/svg" xmlns:xlink="http://www.w3.org/1999/xlink" x="0px" y="0px"
	 viewBox="0 0 216.4 216.4" style="enable-background:new 0 0 216.4 216.4;" xml:space="preserve">
<style type="text/css">
	.st0{display:none;}
	.st1{display:inline;}
	.st2{clip-path:url(#SVGID_2_);fill:#373535;}
	.st3{clip-path:url(#SVGID_4_);fill:#373535;}
	.st4{clip-path:url(#SVGID_6_);fill:#373535;}
	.st5{clip-path:url(#SVGID_8_);fill:#373535;}
	.st6{clip-path:url(#SVGID_10_);fill:#373535;}
	.st7{fill:#373535;}
	.st8{font-family:'Graphik-Bold';}
	.st9{font-size:22.4108px;}
	.st10{font-family:'Archer-Bold';}
	.st11{font-size:14.9403px;}
</style>
<g id="No_Hormones" class="st0">
	<g class="st1">
		<g>
			<path d="M173.2,43.2c-17.9-17.9-41.4-26.9-64.9-26.9s-47,8.9-64.9,26.9c-17.9,17.9-26.9,41.4-26.9,64.9s9,47,26.9,64.9
				s41.4,26.9,64.9,26.9s47-8.9,64.9-26.9c17.9-17.9,26.9-41.4,26.9-64.9C200.1,84.6,191.1,61.1,173.2,43.2z M170.3,170.1
				c-17.1,17.1-39.6,25.7-62,25.7c-22.5,0-44.8-8.6-62-25.7c-17.1-17.1-25.7-39.6-25.7-62c0-22.5,8.6-44.9,25.7-62
				s39.5-25.7,62-25.7s44.8,8.6,62,25.7c17.1,17.1,25.7,39.6,25.7,62C195.9,130.5,187.4,153,170.3,170.1z"/>
		</g>
		<g>
			<g>
				<polygon points="51.1,89.6 51.1,99.8 53.1,99.8 53.1,101.8 46.9,101.8 46.9,99.8 48.9,99.8 48.9,87.6 46.9,87.6 46.9,85.7 
					50.8,85.7 59.6,97 59.6,87.6 57.5,87.6 57.5,85.7 63.6,85.7 63.6,87.6 61.7,87.6 61.7,101.9 60.5,101.9 				"/>
				<path d="M65.7,93.7c0-4.7,3.4-8.4,8.3-8.4c4.8,0,8.2,3.7,8.2,8.4c0,4.7-3.4,8.4-8.3,8.4C69.1,102.1,65.7,98.4,65.7,93.7z
					 M79.9,93.7c0-3.6-2.5-6.3-5.9-6.3c-3.5,0-5.9,2.7-5.9,6.3c0,3.6,2.5,6.3,5.9,6.3S79.9,97.4,79.9,93.7z"/>
				<path d="M89.3,99.8h1.5l4.5-12.2h-1.8v-2h8.1v2h-1.8l4.5,12.2h1.5v2H100v-2h1.9l-1.2-3.4h-6.4L93,99.8h2v2h-5.8L89.3,99.8
					L89.3,99.8z M100,94.6l-2.6-7l-2.6,7H100z"/>
				<path d="M107.2,99.8h1.9V87.6h-1.9v-2h6.1c5.8,0,9.3,3.1,9.3,7.9c0,4.9-3.3,8.2-9.4,8.2h-5.9L107.2,99.8L107.2,99.8z
					 M113.4,99.8c4.5,0,6.9-2.5,6.9-6.2s-2.7-5.9-7.1-5.9h-1.8v12.2L113.4,99.8L113.4,99.8z"/>
				<path d="M124.9,99.8h1.9V87.6h-1.9v-2h6.1c5.8,0,9.3,3.1,9.3,7.9c0,4.9-3.4,8.2-9.4,8.2H125C124.9,101.8,124.9,99.8,124.9,99.8z
					 M131.1,99.8c4.5,0,6.9-2.5,6.9-6.2s-2.7-5.9-7.1-5.9h-1.8v12.2L131.1,99.8L131.1,99.8z"/>
				<polygon points="142.6,99.8 144.6,99.8 144.6,87.6 142.6,87.6 142.6,85.7 154.5,85.7 154.5,89.9 152.4,89.9 152.4,87.6 
					146.8,87.6 146.8,92.6 151.9,92.6 151.9,94.6 146.8,94.6 146.8,99.8 152.4,99.8 152.4,97.6 154.5,97.6 154.5,101.8 142.6,101.8 
									"/>
				<path d="M156.9,99.8h1.9V87.6h-1.9v-2h6.1c5.8,0,9.3,3.1,9.3,7.9c0,4.9-3.4,8.2-9.4,8.2H157v-1.9H156.9z M163.2,99.8
					c4.5,0,6.9-2.5,6.9-6.2s-2.7-5.9-7.1-5.9h-1.8v12.2L163.2,99.8L163.2,99.8z"/>
				<polygon points="36.5,113.8 41.6,113.8 41.6,120.4 47.3,120.4 47.3,113.8 52.4,113.8 52.4,131.3 47.3,131.3 47.3,124.4 
					41.6,124.4 41.6,131.3 36.5,131.3 				"/>
				<path d="M54.8,122.6v-0.2c0-5.4,4-8.9,9.3-8.9c5.4,0,9.3,3.3,9.3,8.8v0.2c0,5.4-3.7,9.1-9.4,9.1S54.8,127.9,54.8,122.6z
					 M68.2,122.6v-0.2c0-3.1-1.6-4.9-4-4.9c-2.5,0-4,1.8-4,5v0.2c0,3.2,1.6,5,4,5C66.6,127.6,68.2,125.7,68.2,122.6z"/>
				<path d="M75.9,113.8h6.8c4.6,0,7.2,1.9,7.2,5.6v0.1c0,2.5-1.3,3.9-3.2,4.6l4.2,7.3h-5.3L82,125h-1.2v6.3h-5
					C75.9,131.3,75.9,113.8,75.9,113.8z M82.5,121.7c1.7,0,2.5-0.7,2.5-2.1v-0.1c0-1.4-0.9-2-2.5-2h-1.6v4.2H82.5L82.5,121.7z"/>
				<polygon points="93,113.8 99.5,113.8 102.9,123.1 106.3,113.8 112.7,113.8 112.7,131.3 107.7,131.3 107.7,120.4 103.4,131.3 
					101.8,131.3 97.5,120.4 97.5,131.3 93,131.3 				"/>
				<path d="M115.2,122.6v-0.2c0-5.4,4-8.9,9.3-8.9c5.4,0,9.3,3.3,9.3,8.8v0.2c0,5.4-3.7,9.1-9.4,9.1S115.2,127.9,115.2,122.6z
					 M128.5,122.6v-0.2c0-3.1-1.6-4.9-4-4.9c-2.5,0-4,1.8-4,5v0.2c0,3.2,1.6,5,4,5C127,127.6,128.5,125.7,128.5,122.6z"/>
				<polygon points="136.2,113.8 141.9,113.8 147.6,123.6 147.6,113.8 151.9,113.8 151.9,131.3 147.1,131.3 140.7,120.3 
					140.7,131.3 136.2,131.3 				"/>
				<polygon points="155.4,113.8 167.5,113.8 167.5,117.6 160.3,117.6 160.3,120.6 166,120.6 166,124.2 160.3,124.2 160.3,127.4 
					167.8,127.4 167.8,131.3 155.4,131.3 				"/>
				<path d="M169.4,125.7h4.8c0.1,1.3,0.7,2.3,2.8,2.3c1.4,0,2.2-0.7,2.2-1.8c0-1.1-0.6-1.4-2.8-1.7c-4.9-0.6-6.6-2.1-6.6-5.6
					c0-3.2,2.6-5.5,6.8-5.5s6.6,1.8,6.9,5.5h-4.7c-0.2-1.3-0.9-1.9-2.2-1.9s-2.1,0.6-2.1,1.5c0,1,0.5,1.4,2.7,1.7
					c4.4,0.5,6.7,1.6,6.7,5.4c0,3.2-2.6,5.8-7.1,5.8C172,131.6,169.5,129.5,169.4,125.7z"/>
				<path d="M88.2,138l-31.5,31.5c-0.7,0.7-0.7,1.8,0,2.5s1.8,0.7,2.5,0l31.5-31.5c0.7-0.7,0.7-1.8,0-2.5
					C89.9,137.3,88.8,137.3,88.2,138"/>
				<path d="M56.9,46.9l32.5,32.5c0.7,0.7,1.8,0.7,2.5,0s0.7-1.8,0-2.5L59.3,44.5c-0.7-0.7-1.8-0.7-2.5,0
					C56.2,45.1,56.2,46.2,56.9,46.9"/>
				<path d="M126.5,141l30.6,30.6c0.7,0.7,1.8,0.7,2.5,0s0.7-1.8,0-2.5L129,138.5c-0.7-0.7-1.8-0.7-2.5,0S125.8,140.3,126.5,141"/>
				<path d="M157.6,44.2l-33.4,33.4c-0.7,0.7-0.7,1.8,0,2.5s1.8,0.7,2.5,0L160,46.6c0.7-0.7,0.7-1.8,0-2.5
					C159.3,43.5,158.2,43.5,157.6,44.2"/>
			</g>
		</g>
	</g>
</g>
<g id="deu">
	<g>
		<g>
			<defs>
				<rect id="SVGID_1_" x="15" y="3.3" width="185" height="198.4"/>
			</defs>
			<clipPath id="SVGID_2_">
				<use xlink:href="#SVGID_1_"  style="overflow:visible;"/>
			</clipPath>
			<path class="st2" d="M172.4,44.1c-17.6-17.6-40.6-26.4-63.7-26.4c-23,0-46.1,8.8-63.7,26.4s-26.4,40.6-26.4,63.7
				s8.8,46.1,26.4,63.7s40.6,26.4,63.7,26.4c23,0,46.1-8.8,63.7-26.4s26.4-40.6,26.4-63.7S190,61.6,172.4,44.1 M169.6,168.6
				c-16.8,16.8-38.8,25.2-60.8,25.2s-44-8.4-60.8-25.2s-25.2-38.8-25.2-60.8S31.2,63.8,48,47s38.8-25.2,60.8-25.2s44,8.4,60.8,25.2
				s25.2,38.8,25.2,60.8S186.4,151.8,169.6,168.6"/>
		</g>
		<g>
			<defs>
				<rect id="SVGID_3_" x="15" y="3.3" width="185" height="198.4"/>
			</defs>
			<clipPath id="SVGID_4_">
				<use xlink:href="#SVGID_3_"  style="overflow:visible;"/>
			</clipPath>
			<path class="st3" d="M58.3,43.8l28.2,29.4c0.6,0.6,1.5,0.6,2.1,0s0.6-1.6,0-2.2L60.4,41.6c-0.6-0.6-1.5-0.6-2.1,0
				C57.7,42.2,57.7,43.2,58.3,43.8"/>
		</g>
		<g>
			<defs>
				<rect id="SVGID_5_" x="15" y="3.3" width="185" height="198.4"/>
			</defs>
			<clipPath id="SVGID_6_">
				<use xlink:href="#SVGID_5_"  style="overflow:visible;"/>
			</clipPath>
			<path class="st4" d="M157.5,41.2L129.1,71c-0.6,0.6-0.6,1.6,0,2.2s1.5,0.6,2.1,0l28.4-29.8c0.6-0.6,0.6-1.6,0-2.2
				C159,40.6,158.1,40.6,157.5,41.2"/>
		</g>
		<g>
			<defs>
				<rect id="SVGID_7_" x="15" y="3.3" width="185" height="198.4"/>
			</defs>
			<clipPath id="SVGID_8_">
				<use xlink:href="#SVGID_7_"  style="overflow:visible;"/>
			</clipPath>
			<path class="st5" d="M159.6,171.8l-28.2-29.4c-0.6-0.6-1.5-0.6-2.1,0s-0.6,1.6,0,2.2l28.2,29.4c0.6,0.6,1.5,0.6,2.1,0
				S160.2,172.4,159.6,171.8"/>
		</g>
		<g>
			<defs>
				<rect id="SVGID_9_" x="15" y="3.3" width="185" height="198.4"/>
			</defs>
			<clipPath id="SVGID_10_">
				<use xlink:href="#SVGID_9_"  style="overflow:visible;"/>
			</clipPath>
			<path class="st6" d="M60.4,174.4l28.4-29.8c0.6-0.6,0.6-1.6,0-2.2c-0.6-0.6-1.5-0.6-2.1,0l-28.4,29.8c-0.6,0.6-0.6,1.6,0,2.2
				C58.9,175,59.8,175,60.4,174.4"/>
		</g>
	</g>
	<text transform="matrix(1 0 0 1 35.8667 134.8926)" class="st7 st8 st9">HORMONEN</text>
	<text transform="matrix(1 0 0 1 89.1646 88.1367)" class="st7 st10 st11">G</text>
	<text transform="matrix(1 0 0 1 100.1646 88.1367)" class="st7 st10 st11">EEN</text>
	<text transform="matrix(1 0 0 1 128.8646 88.1367)" class="st7 st10 st11"> </text>
	<text transform="matrix(1 0 0 1 27.5063 106.8105)" class="st7 st10 st11">G</text>
	<text transform="matrix(1 0 0 1 38.5063 106.8105)" class="st7 st10 st11">RO</text>
	<text transform="matrix(1 0 0 1 59.4063 106.8105)" class="st7 st10 st11">EI</text>
	<text transform="matrix(1 0 0 1 73.5063 106.8105)" class="st7 st10 st11">B</text>
	<text transform="matrix(1 0 0 1 82.5063 106.8105)" class="st7 st10 st11">E</text>
	<text transform="matrix(1 0 0 1 91.1063 106.8105)" class="st7 st10 st11">V</text>
	<text transform="matrix(1 0 0 1 101.1063 106.8105)" class="st7 st10 st11">O</text>
	<text transform="matrix(1 0 0 1 112.7063 106.8105)" class="st7 st10 st11">R</text>
	<text transform="matrix(1 0 0 1 122.1063 106.8105)" class="st7 st10 st11">DE</text>
	<text transform="matrix(1 0 0 1 141.6063 106.8105)" class="st7 st10 st11">R</text>
	<text transform="matrix(1 0 0 1 151.0063 106.8105)" class="st7 st10 st11">E</text>
	<text transform="matrix(1 0 0 1 159.7063 106.8105)" class="st7 st10 st11">N</text>
	<text transform="matrix(1 0 0 1 171.0063 106.8105)" class="st7 st10 st11">D</text>
	<text transform="matrix(1 0 0 1 181.7063 106.8105)" class="st7 st10 st11">E</text>
	<text transform="matrix(1 0 0 1 190.5063 106.8105)" class="st7 st10 st11"> </text>
</g>
</svg>
