<?xml version="1.0" encoding="utf-8"?>
<!-- Generator: Adobe Illustrator 23.0.1, SVG Export Plug-In . SVG Version: 6.00 Build 0)  -->
<svg version="1.1" id="Halal" xmlns="http://www.w3.org/2000/svg" xmlns:xlink="http://www.w3.org/1999/xlink" x="0px" y="0px"
	 viewBox="0 0 216.35 216.35" style="enable-background:new 0 0 216.35 216.35;" xml:space="preserve">
<style type="text/css">
	.st0{fill-rule:evenodd;clip-rule:evenodd;}
</style>
<g>
	<path d="M69.15,154.57v8.11h3.1v-18.09h-3.1v6.85h-5.78v-6.85h-3.1v18.09h3.1v-8.11H69.15z M77.8,158.95h5.47l0.95,3.73h3.37
		l-5.23-18.09h-3.58l-5.29,18.09h3.27L77.8,158.95z M80.53,148.68h0.04l1.84,7.15h-3.79L80.53,148.68z M92.06,144.59h-3.1v18.09
		h10.48v-3.28h-7.37L92.06,144.59L92.06,144.59z M104.1,158.95h5.47l0.95,3.73h3.37l-5.23-18.09h-3.58l-5.29,18.09h3.26
		L104.1,158.95z M106.83,148.68h0.04l1.84,7.15h-3.79L106.83,148.68z M118.36,144.59h-3.1v18.09h10.48v-3.28h-7.37L118.36,144.59
		L118.36,144.59z M141.42,157.2h-0.04l-5.89-12.59h-3.27v18.09h2.89V149.8h0.04l6.05,12.89h3.1V144.6h-2.89v12.59H141.42z
		 M157.2,159.48h-7.81l7.77-11.91v-2.98h-11.34v3.2h7.46l-7.66,11.68v3.2h11.59L157.2,159.48L157.2,159.48z M198.28,108.07
		c0,49.64-40.38,90.02-90.02,90.02s-90.02-40.38-90.02-90.02s40.38-90.02,90.02-90.02S198.28,58.44,198.28,108.07z M191.8,108.07
		c0-46.14-37.4-83.54-83.54-83.54s-83.54,37.4-83.54,83.54s37.4,83.54,83.54,83.54S191.8,154.21,191.8,108.07z"/>
	<g>
		<path class="st0" d="M121.36,47.64c0.28,11.41,0.49,25.1,0.49,37.19c0,8.34-1.01,16.37,4.7,19.22c3.21,1.62,8.24,1.37,13.25,1.37
			c4.68,0,9.8-0.36,12.12-2.36c-1.38-3.46-7.24-5.99-10.14-2.35c-2.9-2.44-6.38-4.28-10.78-5.2c2.87-4.51,6.45-8.55,13.24-8.55
			c7.05,0,12.11,4.35,16.72,8.17c5.4,4.5,10.79,8.47,20.55,7.94c0.08,0.65-0.62,0.99-0.98,1.5c-2.88,3.71-5.82,8.18-8.05,12.63
			c-3.77-2.78-7.72-6.22-14.87-5.82c-6.15,0.33-11.37,3.09-17.08,4.7c-4.57,1.3-9.66,1.52-13.98-0.12
			c-1.35-0.53-3.09-1.64-3.98-1.48c-1.04,0.15-1.46,2.08-1.99,3.09c-1.56,3.22-3.84,6.66-6.06,9.05c-2.94,3.2-7.44,6.27-13.36,6.7
			c-10.17,0.75-17.19-3.92-17.85-12.88c-0.36-5.03,0.86-9.4,2.24-13.02c1.36-3.62,3.06-7.07,5.56-9.3
			c-2.32,8.16-2.52,18.97,3.71,22.68c5.33,3.18,16.57,2.15,20.18-2.12c2.08-2.43,1.45-7.13,1.36-11.64
			c-0.27-14.38-1.12-29.08-1.12-43.63c0-2.54-0.54-5.38-0.12-7.32c0.27-1.24,1.95-2.76,2.97-4.09
			C119.41,50.34,120.53,48.93,121.36,47.64"/>
		<path class="st0" d="M75.79,49.9c2.34,3,5.48,5.23,9.65,6.43c-0.56,1.6-1.22,3.05-1.84,4.58c-0.6,1.48-1.63,3.1-1.86,4.6
			c-0.32,1.94-0.06,4.44-0.13,6.7c-0.37,11.09-0.06,22.57-0.36,33.47c-0.34,12.37-6.81,20.69-18.45,22.19
			c-9.96,1.26-23.86-0.85-23.02-12.65c0.44-6.19,3.91-10.95,6.56-14.75c-1.22,6.58,0.04,11.7,3.71,14.64
			c6.42,5.1,21.8,3.05,24.78-3.36c1.23-2.7,0.61-8.45,0.61-12.63V78.89c0-3.45,0.38-7.02,0-10.04c-0.43-3.51-2.81-5.8-4.44-8.18
			C72.56,57.06,74.5,53.77,75.79,49.9"/>
		<path class="st0" d="M112.07,101.94c-0.28-7.69-0.92-17.49-5.58-21.44c-2.22-1.89-10.19-4.71-9.28,1.85
			c-6.22-0.52-12.25-4.59-12.25-10.52c0-4.64,3.96-6.47,8.41-6.82c4.48-0.35,8.82,1.44,11.9,3.34c3.14,1.91,5.68,4.67,7.18,7.93
			C115.7,83.44,114.82,94.09,112.07,101.94"/>
	</g>
</g>
</svg>
