<?xml version="1.0" encoding="utf-8"?>
<!-- Generator: Adobe Illustrator 23.0.1, SVG Export Plug-In . SVG Version: 6.00 Build 0)  -->
<svg version="1.1" id="Aged_21_days" xmlns="http://www.w3.org/2000/svg" xmlns:xlink="http://www.w3.org/1999/xlink" x="0px"
	 y="0px" viewBox="0 0 216.35 216.35" style="enable-background:new 0 0 216.35 216.35;" xml:space="preserve">
<g>
	<g>
		<path d="M55.24,81.56h0.99l2.86-7.97h-1.26v-1.75h6.49v1.75h-1.26l2.86,7.97h0.99v1.76h-4.42v-1.74h1.33l-0.64-1.88h-4.29
			l-0.64,1.88h1.4v1.74h-4.41L55.24,81.56L55.24,81.56z M62.65,78.05l-1.61-4.52l-1.61,4.52H62.65z"/>
		<path d="M73.45,81.56h1.43v-8.01h-2.13v1.82h-1.87v-3.53h9.96v3.53h-1.87v-1.82h-2.13v8.01h1.43v1.76h-4.83v-1.76H73.45z"/>
		<path d="M94.12,81.56h1.31V73.6h-1.31v-1.76h4.8v1.76h-1.53v7.97h3.16v-1.62h1.9v3.37h-8.34L94.12,81.56L94.12,81.56z"/>
		<path d="M107.87,81.56h1.31V73.6h-1.31v-1.76h8.57v3.28h-1.88v-1.53h-3.4v3.07h3.47v1.68h-3.47v3.24h3.42v-1.53h1.88v3.28h-8.59
			V81.56z"/>
		<path d="M121.54,81.56h0.99l2.86-7.97h-1.26v-1.75h6.49v1.75h-1.26l2.86,7.97h0.99v1.76h-4.42v-1.74h1.33l-0.64-1.88h-4.29
			l-0.64,1.88h1.4v1.74h-4.41V81.56z M128.96,78.05l-1.61-4.52l-1.61,4.52H128.96z"/>
		<path d="M138,80.86c0-0.82,0.49-1.36,1.2-1.36c0.77,0,1.26,0.58,1.26,1.13c0,0.28-0.05,0.49-0.16,0.7
			c0.42,0.3,1.07,0.49,1.82,0.49c1.26,0,2.06-0.56,2.06-1.55c0-0.94-0.96-1.39-2.11-1.8c-2.13-0.77-3.63-1.45-3.63-3.58
			c0-1.83,1.48-3.26,3.8-3.26c2.15,0,3.8,1.1,3.8,2.48c0,0.82-0.51,1.29-1.17,1.29c-0.8,0-1.26-0.59-1.26-1.17
			c0-0.28,0.05-0.4,0.12-0.54c-0.32-0.19-0.8-0.35-1.52-0.35c-1.13,0-1.8,0.57-1.8,1.41c0,0.94,0.96,1.36,2.11,1.78
			c2.06,0.73,3.61,1.45,3.61,3.58c0,2.18-1.69,3.42-4.05,3.42C139.83,83.53,138,82.25,138,80.86z"/>
		<path d="M153.89,81.56h1.43v-8.01h-2.13v1.82h-1.87v-3.53h9.96v3.53h-1.87v-1.82h-2.13v8.01h1.43v1.76h-4.83v-1.76H153.89z"/>
	</g>
	<g>
		<circle cx="43.99" cy="108.07" r="3.89"/>
		<circle cx="172.54" cy="108.07" r="3.89"/>
	</g>
	<path d="M108.2,199.25c-50.26,0-91.14-40.89-91.11-91.15c0.02-50.29,40.95-91.2,91.23-91.2s91.16,40.91,91.11,91.19
		C199.39,158.36,158.47,199.25,108.2,199.25z M108.32,20.67c-48.2,0-87.44,39.22-87.46,87.42c-0.02,48.19,39.16,87.39,87.35,87.39
		s87.42-39.2,87.46-87.39C195.71,59.89,156.53,20.67,108.32,20.67z"/>
	<g>
		<path d="M105.54,139.78v7.33H67.8l0.03-2.92l21.45-22.59c5.1-5.42,7.39-9.96,7.39-14.7c0-5.42-3.09-8.51-8.51-8.51
			c-5.95,0-9.31,3.56-10.22,10.93l-0.12,0.91h-8.04l0.09-1.12c0.85-11.1,7.9-18,18.3-18s17.12,6.27,17.12,15.99
			c0,6.27-3.62,12.84-11.05,20.12l-12.9,12.55L105.54,139.78L105.54,139.78z"/>
		<polygon points="141.05,91.8 141.02,147.12 132.47,147.12 132.5,101.23 120.6,109.8 120.6,101.23 133.65,91.8 		"/>
	</g>
	<g>
		<path d="M68.25,44.72l5.52-3.18l13.3,12.16l-4.52,2.6l-2.39-2.31l-4.94,2.84l0.8,3.22l-3.98,2.29L68.25,44.72z M74.37,53.42
			l3.27-1.88l-4.92-4.79L74.37,53.42z"/>
		<path d="M89.3,44.1l-0.03-0.19c-0.81-5.17,2.43-9.25,7.53-10.05c4.01-0.63,7.85,0.63,8.87,4.99l-4.81,0.76
			c-0.49-1.55-1.64-2.22-3.44-1.93c-2.39,0.37-3.55,2.45-3.07,5.51l0.03,0.19c0.43,2.75,1.79,4.72,4.73,4.26
			c2.37-0.37,3.08-1.72,2.96-3.09l-3.18,0.5l-0.53-3.39l7.96-1.25l0.33,2.09c0.68,4.31-1.63,8-7.11,8.87
			C93.79,52.26,90.1,49.17,89.3,44.1z"/>
		<path d="M116.13,33.44l11.67,2.13l-0.68,3.73l-6.85-1.25l-0.53,2.9l5.46,0.99l-0.63,3.45l-5.46-0.99l-0.56,3.07l7.23,1.32
			l-0.68,3.73l-12.04-2.2L116.13,33.44z"/>
		<path d="M139.44,39.64l5.4,3.13c5.28,3.05,6.43,7.24,3.76,11.86l-0.1,0.16c-2.68,4.63-7.05,5.85-12.29,2.82l-5.38-3.12
			L139.44,39.64z M138,54.25c2.53,1.47,4.43,0.79,6.03-1.97l0.1-0.17c1.64-2.82,1.21-4.68-1.36-6.17l-0.94-0.54l-4.8,8.29L138,54.25
			z"/>
	</g>
	<g>
		<path d="M77.28,162.21l4.84,2.17c4.73,2.12,6.07,5.56,4.21,9.69l-0.07,0.15c-1.86,4.15-5.44,5.56-10.13,3.45l-4.82-2.16
			L77.28,162.21z M77.34,174.67c2.27,1.02,3.81,0.28,4.92-2.19l0.07-0.15c1.13-2.53,0.61-4.06-1.69-5.09l-0.84-0.37l-3.33,7.42
			L77.34,174.67z"/>
		<path d="M98.75,169.47l5.36,0.59l3.01,14.97l-4.39-0.48l-0.47-2.78l-4.8-0.53l-1.06,2.61l-3.87-0.42L98.75,169.47z M98.58,178.48
			l3.18,0.35l-0.97-5.74L98.58,178.48z"/>
		<path d="M118.45,177.76l-6.11-7.39l4.48-0.78l3.27,4.41l1.58-5.26l3.93-0.68l-3.02,8.98l1.07,6.14l-4.13,0.72L118.45,177.76z"/>
		<path d="M134.68,175.36l3.56-1.77c0.55,0.89,1.36,1.44,2.91,0.67c1.07-0.53,1.41-1.36,1.03-2.13c-0.4-0.8-1-0.78-2.69-0.24
			c-3.9,1.39-5.69,0.91-6.99-1.71c-1.17-2.35-0.09-5.03,3.03-6.58c3.14-1.56,5.56-1.12,7.17,1.51l-3.47,1.72
			c-0.59-0.87-1.35-1.08-2.38-0.57c-1,0.5-1.29,1.21-0.96,1.87c0.36,0.73,0.93,0.86,2.66,0.27c3.48-1.27,5.61-1.26,7.01,1.57
			c1.18,2.39,0.26,5.28-3.1,6.95C138.81,178.74,136.19,178.13,134.68,175.36z"/>
	</g>
</g>
</svg>
