<?xml version="1.0" encoding="utf-8"?>
<!-- Generator: Adobe Illustrator 23.0.3, SVG Export Plug-In . SVG Version: 6.00 Build 0)  -->
<svg version="1.1" id="Layer_1" xmlns="http://www.w3.org/2000/svg" xmlns:xlink="http://www.w3.org/1999/xlink" x="0px" y="0px"
	 viewBox="0 0 199.1 131.3" style="enable-background:new 0 0 199.1 131.3;" xml:space="preserve">
<style type="text/css">
	.st0{clip-path:url(#SVGID_2_);}
	.st1{fill:#FFFFFF;}
	.st2{clip-path:url(#SVGID_4_);}
</style>
<title>AUT_Logo-black</title>
<g id="Vector_Smart_Object">
	<g>
		<g>
			<defs>
				<rect id="SVGID_1_" x="-40.4" y="-129" width="279.6" height="277.8"/>
			</defs>
			<clipPath id="SVGID_2_">
				<use xlink:href="#SVGID_1_"  style="overflow:visible;"/>
			</clipPath>
			<g class="st0">
				<rect y="-0.4" width="199.1" height="131.7"/>
				<path class="st1" d="M34.3,53.6l1.3,6.8h-2.5L34.3,53.6z M41.3,65.2l-7-37.2h-0.2l-7,37.2H41.3z"/>
				<g>
					<g>
						<defs>
							<rect id="SVGID_3_" x="-40.4" y="-129" width="279.6" height="277.8"/>
						</defs>
						<clipPath id="SVGID_4_">
							<use xlink:href="#SVGID_3_"  style="overflow:visible;"/>
						</clipPath>
						<g class="st2">
							<path class="st1" d="M46.9,93.8L44,79H24.6l-2.8,14.9h-16L25.7,5.6h17.8l19.9,88.3H46.9z M48.2,4.5c-0.5-2.2-2.5-3.8-4.7-3.8
								H25.7c-2.2,0-4.2,1.5-4.7,3.8L1.1,92.8c-0.6,2.6,1,5.2,3.6,5.7c0.4,0.1,0.7,0.1,1.1,0.1h15.9c2.3,0,4.3-1.6,4.7-3.9l2.1-11
								H40l2.1,11c0.4,2.2,2.4,3.9,4.7,3.9h16.5c2.7,0,4.8-2.2,4.8-4.8c0-0.4-0.1-0.7-0.1-1.1L48.2,4.5z"/>
							<path class="st1" d="M127.4,80l-13.8,13.8H91.5L77.8,80V5.6h16.5V79h16.5V5.6h16.5V80z M127.4,0.7h-16.5
								c-2.7,0-4.8,2.1-4.8,4.8l0,0v68.6h-7V5.6c0-2.7-2.2-4.8-4.8-4.8H77.8c-1.3,0-2.5,0.5-3.4,1.4C73.5,3.1,73,4.3,73,5.6v74.5
								c0,1.3,0.5,2.5,1.4,3.4l13.8,13.8c0.9,0.9,2.1,1.4,3.4,1.4h22.1c1.3,0,2.5-0.5,3.4-1.5l13.8-13.8c0.9-0.9,1.4-2.1,1.4-3.4
								V5.6C132.2,2.9,130.1,0.7,127.4,0.7L127.4,0.7"/>
							<path class="st1" d="M193,20.4h-16.5v73.3h-16.5V20.4h-16.5V5.6H193V20.4z M196.4,2.2c-0.9-0.9-2.1-1.4-3.4-1.4h-49.7
								c-2.7,0-4.8,2.1-4.8,4.8l0,0v14.9c0,2.7,2.1,4.8,4.8,4.8l0,0H155v68.6c0,2.7,2.2,4.8,4.8,4.8h16.5c2.7,0,4.8-2.2,4.8-4.8
								V25.2H193c2.7,0,4.8-2.2,4.8-4.8V5.6C197.7,4.3,197.2,3,196.4,2.2"/>
						</g>
					</g>
				</g>
			</g>
		</g>
	</g>
</g>
</svg>
