<svg xmlns="http://www.w3.org/2000/svg" viewBox="0 0 267.63 45.5"><defs><style>.cls-1{fill:#fff;}</style></defs><title>DW-Logo</title><g id="Layer_2" data-name="Layer 2"><g id="Layer_1-2" data-name="Layer 1"><path class="cls-1" d="M11.92.42H0V34.2H11.92A16.71,16.71,0,0,0,28.37,17.29,16.68,16.68,0,0,0,11.92.42Zm-.05,28.42H5.51V5.78h6.36a11.23,11.23,0,0,1,11,11.51C22.83,23.66,18,28.84,11.87,28.84Z"/><path class="cls-1" d="M42.71,10.85c-6.27,0-11,5.09-11,11.84s4.95,11.83,11.51,11.83a11.89,11.89,0,0,0,9.32-4.1l.43-.48-4.19-2.88-.34.35a7,7,0,0,1-5.22,2.12,6,6,0,0,1-6.1-4.78H53.43l0-2.06C53.48,14.55,47.9,10.85,42.71,10.85Zm-5.53,9.49a5.57,5.57,0,0,1,11,0Z"/><path class="cls-1" d="M69.16,20.49c-1-.26-2.06-.48-2.77-.63-2.52-.56-3.79-1.08-3.79-2.33s1.48-2.16,3.38-2.16a5.85,5.85,0,0,1,4.7,2.4l4.13-2.87a10.5,10.5,0,0,0-8.73-4.19c-4.73,0-8.58,3.12-8.58,7s2.53,6.09,7.76,7.13c.78.16,2,.37,2.87.58,1.47.36,2.22,1.17,2.22,2.21,0,1.25-1.38,2.32-4,2.32A7,7,0,0,1,60.66,27l-4.14,2.82a12,12,0,0,0,9.81,4.8c5.26,0,9.07-3,9.07-7.22C75.4,23.66,73.07,21.49,69.16,20.49Z"/><rect class="cls-1" x="79.84" y="11.22" width="5.24" height="22.98"/><path class="cls-1" d="M82.46,0A3.74,3.74,0,1,0,86.2,3.74,3.75,3.75,0,0,0,82.46,0Z"/><path class="cls-1" d="M102.69,29.82H96.85c-1.22,0-2.08-.59-2.08-1.57a1.66,1.66,0,0,1,.86-1.47,10,10,0,0,0,4.32.91c5,0,9-3.6,9-8.21a6.55,6.55,0,0,0-1.24-4h3.07V11.23H100c-5,0-9,3.63-9,8.25a8,8,0,0,0,1.6,4.85A4.74,4.74,0,0,0,90,28.53a4.79,4.79,0,0,0,1.69,3.61,6.29,6.29,0,0,0-2.8,5.08c0,4.88,4.63,8.28,11.25,8.28s11.43-3.46,11.43-8.4C111.54,32.66,108,29.82,102.69,29.82ZM100,15.6a3.57,3.57,0,0,1,3.9,3.88,3.88,3.88,0,0,1-7.75,0A3.61,3.61,0,0,1,100,15.6Zm.16,25.18c-3.86,0-6.21-1.66-6.21-3.84A3,3,0,0,1,95.57,34a14.64,14.64,0,0,0,2.56.16h4.64c1.75,0,3.63.75,3.63,2.87C106.4,39.52,103.34,40.78,100.11,40.78Z"/><path class="cls-1" d="M126.41,10.85a7.56,7.56,0,0,0-6,3.14V11.22h-5.24v23h5.24V21.67c0-3.46,2-5.79,4.9-5.79s4.57,1.82,4.57,5V34.2h5.24V20.71C135.09,14.72,131.68,10.85,126.41,10.85Z"/><polygon class="cls-1" points="166.43 11.22 161.61 25.76 156.47 11.22 152.52 11.22 147.43 25.75 142.61 11.22 136.79 11.22 145.5 34.2 149.35 34.2 154.5 20.03 159.69 34.2 163.55 34.2 172.26 11.22 166.43 11.22"/><path class="cls-1" d="M184.52,10.85A11.72,11.72,0,0,0,173,22.69a11.58,11.58,0,1,0,11.56-11.84Zm0,18.59c-4,0-6.32-3.05-6.32-6.75s2.37-6.75,6.32-6.75,6.37,3,6.37,6.75S188.49,29.44,184.52,29.44Z"/><path class="cls-1" d="M212.09,10.85a8,8,0,0,0-6.88,3.52V11.22h-5.15v23h5.24V23.37c0-4.67,2.47-7.34,6.79-7.34a10.31,10.31,0,0,1,1.59.13V11S212.76,10.85,212.09,10.85Z"/><polygon class="cls-1" points="237.92 11.22 230.96 11.22 222.8 20.44 222.8 0.42 217.56 0.42 217.56 34.2 222.8 34.2 222.8 27.07 225.47 24.27 231.64 34.06 231.74 34.2 238.32 34.2 229.04 20.52 237.92 11.22"/><path class="cls-1" d="M264.14,27.58a3.5,3.5,0,1,0,3.49,3.49A3.5,3.5,0,0,0,264.14,27.58Z"/><path class="cls-1" d="M251.59,20.49c-1-.26-2.06-.48-2.76-.63-2.53-.56-3.8-1.08-3.8-2.33s1.49-2.16,3.38-2.16a5.86,5.86,0,0,1,4.71,2.4l4.13-2.87a10.52,10.52,0,0,0-8.74-4.19c-4.73,0-8.58,3.12-8.58,7s2.53,6.09,7.76,7.13c.78.16,2,.37,2.87.58,1.47.36,2.22,1.17,2.22,2.21,0,1.25-1.38,2.32-4,2.32A7,7,0,0,1,243.09,27L239,29.86a12,12,0,0,0,9.81,4.8c5.25,0,9.06-3,9.06-7.22C257.83,23.66,255.5,21.49,251.59,20.49Z"/></g></g></svg>