<?xml version="1.0" encoding="utf-8"?>
<!-- Generator: Adobe Illustrator 23.0.2, SVG Export Plug-In . SVG Version: 6.00 Build 0)  -->
<svg version="1.1" id="Layer_1" xmlns="http://www.w3.org/2000/svg" xmlns:xlink="http://www.w3.org/1999/xlink" x="0px" y="0px"
	 viewBox="0 0 3750 1334" style="enable-background:new 0 0 3750 1334;" xml:space="preserve">
<style type="text/css">
	.st0{fill:#FFFFFF;}
</style>
<g>
	<path d="M3882.5-0.4H-69.3l-0.3-0.1c-0.2,1.6-0.5,5.8-0.9,8.7C-138.4,307.9-251.4,995,39.2,1334.3l0.2,1.3h3735.4v-1.2
		C4067.4,992.7,3950.2,295.8,3882.5-0.4z"/>
</g>
<g>
	<title>Artboard 1</title>
	<title>03</title>
	<path class="st0" d="M2226.6,365.8c-30.7-78.8-86.9-155.5-167.2-228c-65.3-59-136.3-105.6-192.6-138.3h-18.2
		c57.8,32.6,134.7,81.7,205,145.1c79.2,71.5,134.6,147.1,164.7,224.5c37.5,96.5,35.7,196.5-5.5,297c-0.2,0.5-23,51.2-74.6,96.1
		c-47.5,41.3-129.9,86.2-252.8,65.1c-35.7-7.6-66.7-21-92-39.5c6.5,2.7,12.8,4.7,18.5,6.2c13.8,4.1,28.4,6.4,43.5,6.4
		c83.3,0,150.9-67.6,150.9-150.9c0-37.5-13.7-71.8-36.3-98.2c-0.8-1.2-1.7-2.4-2.6-3.6c-29.9-41.1-77.2-69.6-136.9-82.3
		c-131.7-24.9-216.5,21.7-264.4,65.2c-51.9,47.1-72.3,99.2-73.1,101.3c-42.1,102.9-43.9,205.1-5.3,303.9
		c30.8,78.8,87.2,155.4,167.8,227.8c94,84.5,199.5,143.6,256.9,172.5l20.7,0.6c-52.4-25.5-170.4-88.9-271.7-180
		c-79.4-71.4-135-146.9-165.3-224.3c-37.7-96.5-35.9-196.4,5.3-297.1c0.2-0.5,20.6-52.6,71-98.2c29.5-26.7,63.4-46,100.7-57.4
		c46.7-14.2,99.1-16,155.5-5.4c30.2,6.5,60.4,18.8,86.5,36.7c-18.4-7.9-38.6-12.3-59.8-12.3c-83.3,0-150.9,67.6-150.9,150.9
		c0,41.2,16.5,78.5,43.2,105.7c30,40.5,76.8,68.4,136,81.1c22.3,3.8,43.3,5.6,63.1,5.6c92.5,0,157.3-37.7,197.6-72.9
		c53-46.3,75.7-96.9,76.7-99.2C2263.2,566.9,2265.1,464.6,2226.6,365.8z"/>
</g>
</svg>
