<?xml version="1.0" encoding="utf-8"?>
<!-- Generator: Adobe Illustrator 23.0.4, SVG Export Plug-In . SVG Version: 6.00 Build 0)  -->
<svg version="1.1" xmlns="http://www.w3.org/2000/svg" xmlns:xlink="http://www.w3.org/1999/xlink" x="0px" y="0px"
	 viewBox="0 0 216.4 216.4" style="enable-background:new 0 0 216.4 216.4;" xml:space="preserve">
<style type="text/css">
	.st0{display:none;}
	.st1{display:inline;}
	.st2{fill-rule:evenodd;clip-rule:evenodd;}
	.st3{clip-path:url(#SVGID_2_);fill:#373535;}
	.st4{clip-path:url(#SVGID_4_);fill-rule:evenodd;clip-rule:evenodd;fill:#373535;}
	.st5{clip-path:url(#SVGID_6_);fill-rule:evenodd;clip-rule:evenodd;fill:#373535;}
	.st6{clip-path:url(#SVGID_8_);fill-rule:evenodd;clip-rule:evenodd;fill:#373535;}
	.st7{fill:#373535;}
	.st8{font-family:'ArialMT';}
	.st9{font-size:24.6995px;}
	.st10{fill:#231F20;}
	.st11{fill-rule:evenodd;clip-rule:evenodd;fill:#231F20;}
</style>
<g id="Layer_1" class="st0">
	<g id="Halal">
		<g class="st1">
			<path d="M69.2,154.6v8.1h3.1v-18.1h-3.1v6.9h-5.8v-6.9h-3.1v18.1h3.1v-8.1H69.2z M77.8,158.9h5.5l0.9,3.7h3.4l-5.2-18.1h-3.6
				l-5.3,18.1h3.3L77.8,158.9z M80.5,148.7L80.5,148.7l1.9,7.1h-3.8L80.5,148.7z M92.1,144.6H89v18.1h10.5v-3.3h-7.4V144.6
				L92.1,144.6z M104.1,158.9h5.5l0.9,3.7h3.4l-5.2-18.1h-3.6l-5.3,18.1h3.3L104.1,158.9z M106.8,148.7L106.8,148.7l1.9,7.1h-3.8
				L106.8,148.7z M118.4,144.6h-3.1v18.1h10.5v-3.3h-7.4V144.6L118.4,144.6z M141.4,157.2L141.4,157.2l-5.9-12.6h-3.3v18.1h2.9
				v-12.9l0,0l6.1,12.9h3.1v-18.1h-2.9L141.4,157.2L141.4,157.2L141.4,157.2z M157.2,159.5h-7.8l7.8-11.9v-3h-11.3v3.2h7.5
				l-7.7,11.7v3.2h11.6L157.2,159.5L157.2,159.5z M198.3,108.1c0,49.6-40.4,90-90,90s-90-40.4-90-90s40.4-90,90-90
				S198.3,58.4,198.3,108.1z M191.8,108.1c0-46.1-37.4-83.5-83.5-83.5S24.8,62,24.8,108.1s37.4,83.5,83.5,83.5
				S191.8,154.2,191.8,108.1z"/>
			<g>
				<path class="st2" d="M121.4,47.6c0.3,11.4,0.5,25.1,0.5,37.2c0,8.3-1,16.4,4.7,19.2c3.2,1.6,8.2,1.4,13.2,1.4
					c4.7,0,9.8-0.4,12.1-2.4c-1.4-3.5-7.2-6-10.1-2.3c-2.9-2.4-6.4-4.3-10.8-5.2c2.9-4.5,6.4-8.6,13.2-8.6c7.1,0,12.1,4.3,16.7,8.2
					c5.4,4.5,10.8,8.5,20.6,7.9c0.1,0.7-0.6,1-1,1.5c-2.9,3.7-5.8,8.2-8.1,12.6c-3.8-2.8-7.7-6.2-14.9-5.8
					c-6.1,0.3-11.4,3.1-17.1,4.7c-4.6,1.3-9.7,1.5-14-0.1c-1.3-0.5-3.1-1.6-4-1.5c-1,0.2-1.5,2.1-2,3.1c-1.6,3.2-3.8,6.7-6.1,9.1
					c-2.9,3.2-7.4,6.3-13.4,6.7c-10.2,0.8-17.2-3.9-17.8-12.9c-0.4-5,0.9-9.4,2.2-13c1.4-3.6,3.1-7.1,5.6-9.3
					c-2.3,8.2-2.5,19,3.7,22.7c5.3,3.2,16.6,2.2,20.2-2.1c2.1-2.4,1.4-7.1,1.4-11.6c-0.3-14.4-1.1-29.1-1.1-43.6
					c0-2.5-0.5-5.4-0.1-7.3c0.3-1.2,1.9-2.8,3-4.1C119.4,50.3,120.5,48.9,121.4,47.6"/>
				<path class="st2" d="M75.8,49.9c2.3,3,5.5,5.2,9.7,6.4c-0.6,1.6-1.2,3-1.8,4.6c-0.7,1.5-1.7,3.1-2,4.6c-0.3,1.9-0.1,4.4-0.1,6.7
					c-0.4,11.1-0.1,22.6-0.4,33.5c-0.3,12.4-6.8,20.7-18.5,22.2c-10,1.3-23.9-0.8-23-12.7c0.4-6.2,3.9-10.9,6.6-14.8
					c-1.2,6.6,0,11.7,3.7,14.6c6.4,5.1,21.8,3.1,24.8-3.4c1.2-2.7,0.6-8.4,0.6-12.6V78.9c0-3.4,0.4-7,0-10C75,65.3,72.6,63,71,60.7
					C72.6,57.1,74.5,53.8,75.8,49.9"/>
				<path class="st2" d="M112.1,101.9c-0.3-7.7-0.9-17.5-5.6-21.4c-2.2-1.9-10.2-4.7-9.3,1.8C91,81.8,85,77.8,85,71.8
					c0-4.6,4-6.5,8.4-6.8c4.5-0.3,8.8,1.4,11.9,3.3s5.7,4.7,7.2,7.9C115.7,83.4,114.8,94.1,112.1,101.9"/>
			</g>
		</g>
	</g>
	<g class="st1">
		<g>
			<g>
				<defs>
					<rect id="SVGID_1_" x="16.5" y="5.9" width="181.6" height="202.4"/>
				</defs>
				<clipPath id="SVGID_2_">
					<use xlink:href="#SVGID_1_"  style="overflow:visible;"/>
				</clipPath>
				<path class="st3" d="M197,107.9c0,48.8-39.7,88.5-88.5,88.5S20,156.7,20,107.9s39.7-88.5,88.5-88.5S197,59.1,197,107.9
					 M190.7,107.9c0-45.3-36.8-82.1-82.1-82.1s-82.1,36.8-82.1,82.1S63.3,190,108.6,190S190.7,153.2,190.7,107.9"/>
			</g>
			<g>
				<defs>
					<rect id="SVGID_3_" x="16.5" y="5.9" width="181.6" height="202.4"/>
				</defs>
				<clipPath id="SVGID_4_">
					<use xlink:href="#SVGID_3_"  style="overflow:visible;"/>
				</clipPath>
				<path class="st4" d="M123.8,83.6c0.3,11.2,0.5,24.7,0.5,36.5c0,8.2-1,16.1,4.6,18.9c3.2,1.6,8.1,1.3,13,1.3
					c4.6,0,9.6-0.4,11.9-2.3c-1.4-3.4-7.1-5.9-10-2.3c-2.9-2.4-6.3-4.2-10.6-5.1c2.8-4.4,6.3-8.4,13-8.4c6.9,0,11.9,4.3,16.4,8
					c5.3,4.4,10.6,8.3,20.2,7.8c0.1,0.6-0.6,1-1,1.5c-2.8,3.7-5.7,8-7.9,12.4c-3.7-2.7-7.6-6.1-14.6-5.7c-6,0.3-11.2,3-16.8,4.6
					c-4.5,1.3-9.5,1.5-13.7-0.1c-1.3-0.5-3-1.6-3.9-1.5c-1,0.1-1.4,2-2,3c-1.5,3.2-3.8,6.5-6,8.9c-2.9,3.1-7.3,6.2-13.1,6.6
					c-10,0.7-16.9-3.8-17.5-12.7c-0.4-4.9,0.8-9.2,2.2-12.8c1.3-3.6,3-6.9,5.5-9.1c-2.3,8-2.5,18.6,3.7,22.3
					c5.2,3.1,16.3,2.1,19.8-2.1c2-2.4,1.4-7,1.3-11.4c-0.3-14.1-1.1-28.6-1.1-42.9c0-2.5-0.5-5.3-0.1-7.2c0.3-1.2,1.9-2.7,2.9-4
					C121.9,86.2,123,84.8,123.8,83.6"/>
			</g>
			<g>
				<defs>
					<rect id="SVGID_5_" x="16.5" y="5.9" width="181.6" height="202.4"/>
				</defs>
				<clipPath id="SVGID_6_">
					<use xlink:href="#SVGID_5_"  style="overflow:visible;"/>
				</clipPath>
				<path class="st5" d="M79.1,85.8c2.3,2.9,5.4,5.1,9.5,6.3c-0.5,1.6-1.2,3-1.8,4.5c-0.6,1.5-1.6,3-1.8,4.5
					c-0.3,1.9-0.1,4.4-0.1,6.6c-0.4,10.9-0.1,22.2-0.4,32.9c-0.3,12.2-6.7,20.3-18.1,21.8c-9.8,1.2-23.5-0.8-22.6-12.4
					c0.4-6.1,3.8-10.8,6.4-14.5c-1.2,6.5,0,11.5,3.6,14.4c6.3,5,21.4,3,24.3-3.3c1.2-2.7,0.6-8.3,0.6-12.4v-19.9
					c0-3.4,0.4-6.9,0-9.9c-0.4-3.4-2.8-5.7-4.4-8C75.9,92.8,77.8,89.6,79.1,85.8"/>
			</g>
			<g>
				<defs>
					<rect id="SVGID_7_" x="16.5" y="5.9" width="181.6" height="202.4"/>
				</defs>
				<clipPath id="SVGID_8_">
					<use xlink:href="#SVGID_7_"  style="overflow:visible;"/>
				</clipPath>
				<path class="st6" d="M114.7,136.9c-0.3-7.6-0.9-17.2-5.5-21.1c-2.2-1.9-10-4.6-9.1,1.8c-6.1-0.5-12-4.5-12-10.3
					c0-4.6,3.9-6.4,8.3-6.7c4.4-0.3,8.7,1.4,11.7,3.3c3.1,1.9,5.6,4.6,7.1,7.8C118.3,118.7,117.4,129.2,114.7,136.9"/>
			</g>
		</g>
		<text transform="matrix(1 0 0 1 112.7977 49.7745)" class="st7 st8 st9"> مﺣﻟ</text>
		<text transform="matrix(1 0 0 1 137.5545 77.6613)" class="st7 st8 st9"> يدﻧﻠﯾزوﯾﻧ</text>
	</g>
</g>
<g id="Layer_2">
	<path class="st10" d="M195.5,107.3c0,48.7-39.5,88.2-88.3,88.2S19,156,19,107.2C19,58.5,58.5,19,107.2,19
		C156,19.1,195.5,58.5,195.5,107.3z M189.1,107.3c0-45.2-36.7-81.9-81.9-81.9S25.3,62,25.3,107.3s36.7,81.9,81.9,81.9
		S189.1,152.5,189.1,107.3L189.1,107.3z"/>
	<path class="st11" d="M120.1,48c0.3,11.2,0.5,24.6,0.5,36.5c0,8.2-1,16,4.6,18.8c3.2,1.6,8.1,1.3,13,1.3c4.6,0,9.6-0.4,11.9-2.3
		c-1.4-3.4-7.1-5.9-9.9-2.3c-3-2.6-6.7-4.3-10.6-5.1c2.8-4.4,6.3-8.4,13-8.4c6.9,0,11.9,4.3,16.4,8c5.3,4.4,10.6,8.3,20.1,7.8
		c0.1,0.6-0.6,1-1,1.5c-3,3.9-5.7,8-7.9,12.4c-3.7-2.7-7.6-6.1-14.6-5.7c-6,0.3-11.1,3-16.8,4.6c-4.5,1.3-9.5,1.5-13.7-0.1
		c-1.3-0.5-3-1.6-3.9-1.4s-1.4,2-1.9,3c-1.6,3.2-3.6,6.2-5.9,8.9c-3.4,3.8-8.1,6.1-13.1,6.6c-10,0.8-16.8-3.8-17.5-12.6
		c-0.2-4.4,0.5-8.7,2.2-12.8c1.3-3.5,3-6.9,5.4-9.1c-2.3,8-2.5,18.6,3.7,22.2c5.2,3.1,16.2,2.1,19.8-2.1c2-2.4,1.4-7,1.3-11.4
		c-0.3-14.1-1.1-28.5-1.1-42.8c0-2.5-0.5-5.3-0.1-7.2c0.3-1.2,1.9-2.7,2.9-4C118.2,50.6,119.3,49.2,120.1,48"/>
	<path class="st11" d="M75.4,50.2c2.4,3.1,5.7,5.3,9.5,6.3c-0.6,1.6-1.2,3-1.8,4.5s-1.6,3-1.8,4.5c-0.2,2.2-0.2,4.4-0.1,6.6
		c-0.4,10.9,0,22.1-0.4,32.8c-0.3,12.1-6.7,20.3-18.1,21.8c-9.8,1.2-23.4-0.8-22.6-12.4c0.4-6.1,3.8-10.7,6.4-14.5
		c-1.2,6.4,0,11.5,3.6,14.3c6.3,5,21.4,3,24.3-3.3c1.2-2.6,0.6-8.3,0.6-12.4V78.6c0-3.4,0.4-6.9,0-9.8c-0.4-3.4-2.8-5.7-4.3-8
		C72.2,57.3,74.1,54,75.4,50.2"/>
	<path class="st11" d="M111,101.2c-0.3-7.5-0.9-17.2-5.5-21c-2.2-1.9-10-4.6-9.1,1.8c-6.1-0.5-12-4.5-12-10.3c0-4.6,3.9-6.3,8.2-6.7
		s8.7,1.4,11.7,3.3c3.1,1.8,5.5,4.5,7,7.8C114.5,83.1,113.7,93.6,111,101.2"/>
	<path class="st10" d="M51,155.5c0.2,0,0.3,0.2,0.2,0.3c0,0.2-0.1,0.3-0.3,0.4c-0.1,0-0.2,0.1-0.4,0.4c-0.2,0.3-0.4,0.6-0.5,0.9
		l-0.3,0.6l-0.2,0.5l-0.2,0.5c-0.1,0.1-0.2,0.3-0.3,0.5c-0.1-0.2-0.3-0.3-0.4-0.5c-0.1-0.1-0.3-0.2-0.5-0.2c0.2-0.3,0.4-0.6,0.6-0.9
		c0.2-0.3,0.4-0.7,0.6-1s0.3-0.7,0.5-1c0.1-0.3,0.3-0.7,0.4-1c0.1,0.1,0.3,0.2,0.4,0.4C50.8,155.5,50.9,155.5,51,155.5z M53,150.1
		c0.3-0.6,0.6-1.1,0.8-1.7c0.2-0.6,0.4-1.2,0.6-1.7c0.2,0.1,0.3,0.2,0.5,0.3c0.2,0.1,0.3,0.2,0.5,0.2c0.2,0.1,0.3,0.2,0.3,0.3
		c0,0.1-0.1,0.2-0.2,0.3c-0.3,0.2-0.5,0.5-0.7,0.7c-0.4,0.5-0.7,1.1-1,1.7c0.7,0,1.2,0,1.8,0c0.5,0,1-0.1,1.3-0.1v1.2
		c-0.4,0-1-0.1-1.6-0.1c-0.6,0-1.4,0-2.2,0v2.4l2-0.1c0.5,0,1-0.1,1.5-0.1v1.3c-0.5-0.1-1-0.1-1.5-0.1c-0.6,0-1.3,0-2-0.1v5.5
		c0,0.2,0,0.5-0.1,0.7c-0.1,0.2-0.2,0.3-0.4,0.4c-0.2,0.1-0.5,0.2-0.8,0.2c-0.4,0-0.9,0.1-1.3,0.1c0.1-0.3,0-0.5-0.1-0.8
		c-0.1-0.3-0.3-0.5-0.5-0.7c0.3,0.1,0.7,0.1,1,0.2c0.2,0,0.4,0,0.6,0c0.1,0,0.2-0.1,0.3-0.2c0.1-0.1,0.1-0.2,0.1-0.4v-5
		c-0.7,0-1.4,0-2,0c-0.5,0-1,0.1-1.5,0.1v-1.4c0.5,0.1,1,0.1,1.5,0.1c0.6,0,1.3,0.1,2,0.1V151h-1.2h-1.1h-0.9l-0.8,0.1v-1.2L49,150
		h0.9h1.3L53,150.1z M56.8,146.4c-0.6-0.1-1.2-0.1-1.8-0.1c-0.7,0-1.5-0.1-2.4-0.1c-0.9,0-1.7,0-2.4,0.1c-0.6,0-1.2,0.1-1.8,0.1
		v-1.3c0.6,0.1,1.2,0.1,1.8,0.1c0.7,0,1.5,0,2.4,0h1.5c0.4,0,0.8,0,1.1,0s0.6,0,0.8-0.1l0.7-0.1V146.4z M51.4,149.9
		c-0.1-0.2-0.3-0.5-0.4-0.6c-0.1-0.2-0.3-0.4-0.4-0.5c-0.1-0.2-0.3-0.4-0.5-0.5c-0.2-0.2-0.4-0.4-0.6-0.6l0.7-0.7l0.5,0.5
		c0.2,0.2,0.3,0.3,0.4,0.5s0.3,0.3,0.4,0.5l0.4,0.6L51.4,149.9z M52.8,145.2l-0.5-0.5l-0.5-0.4c-0.2-0.1-0.3-0.3-0.5-0.4
		c-0.2-0.1-0.4-0.3-0.6-0.4l0.5-0.8c0.4,0.2,0.8,0.5,1.2,0.8c0.3,0.3,0.7,0.6,1,0.9L52.8,145.2z M55.5,158.6
		c-0.2-0.5-0.4-0.9-0.7-1.4c-0.3-0.4-0.6-0.8-0.9-1.2l0.7-0.7c0.3,0.4,0.7,0.8,1,1.2c0.3,0.4,0.5,0.8,0.7,1.2L55.5,158.6z M61,149.7
		h1.1H63c0.2,0,0.4,0,0.6-0.1l0.5-0.1v1.2c-0.4-0.1-0.7-0.1-1.1-0.1c-0.4,0-0.9,0-1.3,0v7.6c0,0.6,0,1.2,0,1.7c0,0.5,0.1,1,0.1,1.6
		h-1.2c0-0.3,0-0.6,0.1-0.8c0.1-0.2,0-0.5,0-0.7c0-0.2,0-0.5,0-0.8v-8.6h-2.1c0,1.5,0,2.8-0.1,3.8c-0.1,0.9-0.2,1.9-0.4,2.8
		c-0.2,0.8-0.4,1.5-0.8,2.2c-0.4,0.7-0.8,1.4-1.3,2.1c-0.2-0.1-0.4-0.2-0.6-0.3c-0.2-0.1-0.5-0.1-0.8-0.2c0.5-0.5,1-1,1.3-1.6
		c0.4-0.6,0.8-1.3,1-2.1c0.3-0.9,0.5-1.8,0.6-2.8c0.1-1.2,0.2-2.5,0.2-3.7c0-0.7,0-1.3,0-1.9c0-0.6,0-1.2-0.1-1.8
		c-0.1-0.6,0-1.1-0.1-1.5c0-0.4-0.1-0.8-0.1-1.1c1,0,1.9-0.1,2.8-0.4c0.9-0.3,1.7-0.8,2.4-1.4c0.1,0.2,0.2,0.4,0.3,0.6
		c0.1,0.2,0.2,0.3,0.3,0.4c0.1,0.1,0.2,0.3,0.1,0.4s-0.2,0.1-0.3,0c0,0-0.1,0-0.1,0h-0.2l-0.4,0.1l-0.7,0.2
		c-0.2,0.1-0.4,0.1-0.7,0.2l-0.8,0.2l-0.8,0.2l-0.8,0.2v4.2L61,149.7z"/>
	<path class="st10" d="M71,145.6c-1.1,0-2.1,0-2.9,0s-1.6,0.1-2.3,0.1v-1.5l1.2,0.1c0.4,0,0.9,0.1,1.5,0.1h2h2.7h2.9h2
		c0.5,0,1,0,1.4-0.1l1.2-0.1v1.5h-0.9c-0.3,0-0.7,0-1.1,0h-1.4h-1.8v3.5c0.8,0,1.7,0,2.4,0s1.3-0.1,1.8-0.1c0,0.3-0.1,0.6-0.1,1
		s0,0.8,0,1.4v4.7c0,0.5,0,1,0,1.5c0,0.5,0,1,0,1.4s0,0.9,0,1.3s0,0.8,0.1,1h-1.2v-1.7H68v1.7h-1.2c0-0.3,0-0.7,0.1-1.1s0-0.8,0-1.3
		c0-0.4,0-0.9,0-1.4c0-0.5,0-1,0-1.5v-4.9c0-0.2,0-0.4,0-0.6s0-0.4,0-0.7s0-0.4,0-0.6s0-0.4,0-0.5c0.4,0,1,0.1,1.8,0.1s1.6,0,2.4,0
		L71,145.6z M72,150.2c0,0.8-0.1,1.7-0.2,2.5c-0.1,0.6-0.2,1.2-0.5,1.8c-0.2,0.5-0.5,1-0.9,1.5c-0.4,0.5-0.9,1-1.4,1.4
		c-0.1-0.2-0.2-0.4-0.3-0.5c-0.2-0.2-0.5-0.3-0.7-0.4v2.1h10.4v-8.5h-2.9v4c0,0.2,0,0.4,0.1,0.6c0,0.2,0.2,0.3,0.3,0.4
		c0.3,0.1,0.6,0.1,0.8,0.1c0.5,0,1-0.1,1.5-0.2c-0.1,0.2-0.2,0.5-0.2,0.7c0,0.2,0,0.4,0,0.6h-0.6c-0.2,0-0.4,0-0.6,0h-0.6
		c-0.2,0-0.4,0-0.7,0c-0.3,0-0.7-0.1-0.9-0.4c-0.2-0.3-0.3-0.7-0.2-1.1v-4.7L72,150.2z M68,150.2v6.3c0.5-0.3,1-0.6,1.4-1
		c0.4-0.4,0.7-0.8,0.9-1.3c0.2-0.5,0.4-1.1,0.5-1.7c0.1-0.8,0.2-1.5,0.2-2.3L68,150.2z M74.3,145.6H72v3.5h2.3L74.3,145.6z"/>
	<path class="st10" d="M97.3,160.1c-0.9,0-2-0.1-3.2-0.1s-2.7,0-4.4,0h-2.4h-2h-1.7l-1.5,0.1v-1.4l1.5,0.1l1.7,0.1c0.6,0,1.3,0,2,0
		h2.4c1.7,0,3.2,0,4.4,0c1.2-0.1,2.3-0.1,3.2-0.2L97.3,160.1z M90.5,147.8c0.6-1,1.2-2,1.7-3c0.3-0.7,0.6-1.4,0.9-2.2
		c0.4,0.3,0.8,0.6,1.3,0.8c0.1,0,0.2,0.1,0.2,0.2c0,0.1-0.1,0.1-0.2,0.2c-0.2,0.1-0.3,0.2-0.4,0.3c-0.2,0.3-0.4,0.5-0.5,0.8l-0.6,1
		c-0.2,0.3-0.3,0.5-0.4,0.8l-0.4,0.6l-0.3,0.5c0.5,0,1,0,1.5,0h1.3l1.1-0.1c0.3,0,0.6,0,0.7-0.1v1.4c-0.4,0-1.1-0.1-2.3-0.1
		s-2.6,0-4.4,0H87c-0.7,0-1.3,0-1.8,0H84c-0.3,0-0.6,0-0.8,0.1v-1.4c0.6,0.1,1.2,0.1,1.8,0.1c0.8,0,1.7,0.1,2.7,0.1L90.5,147.8z
		 M94.7,153.9h-1h-1.1c-0.4,0-0.8,0-1.3,0H88h-1.3c-0.4,0-0.8,0-1.1,0.1l-1,0.1v-1.4c0.3,0,0.7,0.1,1,0.1l1.1,0c0.4,0,0.8,0,1.3,0
		h3.2c0.5,0,0.9,0,1.3,0h1.1c0.3,0,0.7,0,1-0.1L94.7,153.9z M87.8,147.4c-0.4-0.7-0.8-1.4-1.2-2c-0.4-0.6-0.9-1.2-1.4-1.7l0.7-0.8
		c0.6,0.6,1.1,1.2,1.5,1.8s0.9,1.2,1.4,2L87.8,147.4z"/>
	<path class="st10" d="M102,151.6c-0.4-0.5-0.8-0.9-1.2-1.3c-0.5-0.4-0.9-0.8-1.4-1.1l0.6-1c0.5,0.4,1,0.7,1.5,1.1
		c0.5,0.4,0.9,0.8,1.3,1.2L102,151.6z M103.6,154.4c-0.2,0.3-0.4,0.8-0.6,1.2s-0.5,1-0.7,1.6c-0.2,0.6-0.5,1.2-0.8,1.8
		c-0.3,0.6-0.6,1.3-0.8,1.9c-0.2-0.2-0.4-0.3-0.6-0.4c-0.2-0.1-0.4-0.3-0.6-0.4c0.7-1,1.3-2.2,1.9-3.3c0.5-1.1,0.9-2.3,1.2-3.5
		c0.1,0.2,0.3,0.4,0.5,0.5C103.3,154.1,103.4,154.2,103.6,154.4z M102.9,146.8c-0.4-0.5-0.8-0.9-1.3-1.4c-0.4-0.4-0.9-0.8-1.4-1.1
		l0.6-1c0.5,0.4,1,0.8,1.4,1.2c0.4,0.4,0.9,0.8,1.3,1.2L102.9,146.8z M108.7,145.6h-1.3h-1.1l-0.9,0l-0.8,0.1v-1.2l0.8,0.1
		c0.3,0,0.6,0,0.9,0h1h1.4c0-0.4,0-0.7,0-1.1c0-0.3,0-0.6-0.1-0.9l0.6,0.1c0.2,0,0.5,0,0.7,0c0.2,0,0.2,0,0.3,0.1s0,0.2-0.1,0.3
		c-0.2,0.2-0.3,0.5-0.2,0.8v0.7h1.3h1.1c0.3,0,0.6,0,0.9,0l0.8-0.1v1.2l-0.8-0.1l-0.9,0h-1.1h-1.4v1.5h1.1c0.3,0,0.6,0,0.9,0h0.8
		c0.2,0,0.5,0,0.8-0.1v1.1h-0.8h-0.8h-0.9h-1.1v1.5h1.7c0.5,0,0.9,0,1.3,0h1l1-0.1v1.2l-1.1-0.1h-1.1h-1.4h-3.8H106h-1.1l-1,0.1
		v-1.2l1,0.1h1c0.4,0,0.8,0,1.2,0h1.6v-1.5c-0.7,0-1.3,0-1.9,0l-1.6,0.1v-1.1l1.6,0.1c0.6,0,1.2,0,1.9,0L108.7,145.6z M106.3,161.4
		h-1.2c0.1-0.5,0.1-1.1,0.1-1.6c0-0.5,0-1,0-1.4V154c0-0.5,0-0.9,0-1.3s-0.1-0.7-0.1-1l0.8,0.1c0.3,0,0.6,0,0.9,0h1.1h1.3h1.3h1
		c0.3,0,0.6,0,0.8,0l0.8-0.1c0,0.4,0,0.9,0,1.3s0,0.8,0,1.1v5.4c0,0.3,0,0.6-0.1,0.9c0,0.2-0.2,0.4-0.3,0.6
		c-0.2,0.2-0.5,0.3-0.7,0.3c-0.4,0.1-0.8,0.1-1.2,0.1c0-0.2,0-0.5-0.1-0.7c-0.1-0.3-0.2-0.5-0.3-0.7c0.3,0.1,0.6,0.1,0.9,0.1
		c0.2,0,0.4,0,0.5-0.1c0.1-0.1,0.2-0.2,0.3-0.3c0-0.1,0.1-0.3,0.1-0.4v-1.4h-5.8L106.3,161.4z M112.1,152.8h-5.8v1.7h5.8V152.8z
		 M112.1,155.4h-5.8v1.6h5.8V155.4z"/>
	<path class="st10" d="M128.7,156.6h0.8h0.7l0.7,0l0.8-0.1v1.4l-1-0.1l-1.3-0.1c-0.6,0-1.3,0-2.1,0h-3.4h-2.4h-1.8h-1.3h-1l-0.7,0.1
		l-0.6,0.1v-1.4l0.8,0.1l0.7,0.1l0.7,0h0.7v-6.9c0-0.2,0-0.4,0-0.7c0-0.2,0-0.5,0-0.7c0-0.2,0-0.4-0.1-0.6s0-0.3,0-0.4l0.7,0.1h0.8
		h1h1.2c0.1-0.6,0.3-1.1,0.4-1.6c-1.3,0-2.3,0-3.3,0s-1.7,0.1-2.4,0.2v-1.3c0.7,0.1,1.6,0.1,2.5,0.2s2,0,3.3,0
		c0.1-0.4,0.2-0.9,0.2-1.3c0-0.3,0-0.7,0-1c0.2,0.1,0.5,0.1,0.7,0.2c0.2,0.1,0.4,0.1,0.7,0.1c0.1,0,0.2,0.1,0.2,0.1
		c0,0.1,0,0.1-0.2,0.2c0,0-0.1,0.1-0.1,0.1c0,0.1-0.1,0.2-0.1,0.2c0,0.1-0.1,0.3-0.1,0.5s-0.1,0.5-0.2,0.8c1.4,0,2.6,0,3.6,0
		c0.9,0,1.8-0.1,2.6-0.2v1.3c-0.8-0.1-1.7-0.1-2.7-0.2c-1,0-2.3,0-3.7,0c-0.1,0.2-0.1,0.5-0.2,0.7s-0.1,0.6-0.2,0.9
		c1.2,0,2.3,0,3.2,0s1.7,0,2.2-0.1c0,0.1,0,0.3,0,0.5c0,0.2,0,0.4,0,0.7c0,0.2,0,0.5,0,0.7s0,0.4,0,0.6L128.7,156.6z M121.9,158.9
		c-0.1,0-0.3,0.1-0.4,0.1c-0.2,0.1-0.3,0.2-0.5,0.3c-0.2,0.2-0.5,0.4-0.9,0.6s-0.7,0.5-1.1,0.7l-1.1,0.6c-0.4,0.2-0.7,0.4-1,0.5
		c-0.1-0.2-0.2-0.5-0.3-0.7c-0.1-0.2-0.3-0.4-0.5-0.6c0.5-0.1,1.1-0.3,1.6-0.6c0.5-0.2,1-0.5,1.5-0.8c0.4-0.3,0.8-0.5,1.2-0.9
		c0.3-0.2,0.6-0.5,0.8-0.8c0.1,0.2,0.2,0.4,0.4,0.5c0.1,0.2,0.3,0.3,0.4,0.5c0.1,0.1,0.1,0.2,0.1,0.3
		C122.1,158.9,122.1,158.9,121.9,158.9z M127.6,148.3h-7.8v1.4h7.8V148.3z M119.8,152h7.8v-1.5h-7.8V152z M127.6,152.8h-7.8v1.4h7.8
		V152.8z M127.6,156.6v-1.5h-7.8v1.5H127.6z M130.2,161.5c-0.8-0.5-1.6-1-2.4-1.4c-0.8-0.4-1.8-0.9-2.9-1.4l0.4-1
		c0.5,0.2,1.1,0.4,1.6,0.7c0.5,0.2,1,0.5,1.5,0.7s0.9,0.5,1.4,0.7l1.1,0.6L130.2,161.5z"/>
	<path class="st10" d="M136,157.3c0.2-0.2,0.4-0.4,0.6-0.6c0.2-0.2,0.4-0.5,0.6-0.7l0.6-0.8l0.5-0.7c0.1,0.2,0.2,0.4,0.3,0.6
		c0.1,0.2,0.2,0.3,0.3,0.5l-2.4,2.7c-0.3,0.4-0.6,0.7-0.9,1c-0.2,0.3-0.4,0.6-0.6,0.8c-0.1-0.2-0.2-0.4-0.4-0.5
		c-0.2-0.2-0.3-0.3-0.6-0.5c0.3-0.3,0.5-0.7,0.6-1.1c0.1-0.5,0.2-1.1,0.2-1.6v-6.7c-0.4,0-0.7,0-0.9,0h-0.7l-0.5,0.1
		c-0.2,0-0.3,0.1-0.4,0.1v-1.4l0.9,0.1c0.3,0,0.7,0,1.1,0s0.8,0,1.1,0s0.6,0,0.9-0.1c-0.1,0.3-0.2,0.7-0.2,1.1
		c-0.1,0.5-0.1,0.9-0.1,1.4L136,157.3z M136.9,147.3c-0.2-0.4-0.4-0.7-0.6-1c-0.2-0.3-0.4-0.5-0.6-0.8c-0.2-0.3-0.4-0.5-0.6-0.7
		c-0.2-0.2-0.5-0.5-0.8-0.8l0.8-0.9l0.8,0.8l0.6,0.7l0.6,0.8c0.2,0.3,0.5,0.6,0.7,1L136.9,147.3z M142.8,151.3
		c-0.1,0.9-0.3,1.8-0.6,2.7c-0.2,0.9-0.6,1.8-0.9,2.6c-0.4,0.9-0.8,1.7-1.4,2.5c-0.6,0.9-1.2,1.7-1.9,2.4c-0.1-0.2-0.2-0.4-0.4-0.6
		c-0.2-0.2-0.4-0.3-0.6-0.4c0.7-0.6,1.4-1.3,2-2c0.6-0.8,1.1-1.6,1.4-2.5c0.4-1,0.8-2,1-3.1c0.3-1.2,0.4-2.5,0.5-3.8
		c0.1-1,0.1-2,0.1-3c0-1-0.1-2-0.2-3c0.2,0.1,0.5,0.1,0.7,0.1c0.2,0,0.5,0,0.7,0c0.2,0,0.3,0,0.3,0.2c0,0.1-0.1,0.3-0.2,0.4
		c-0.1,0.1-0.2,0.2-0.2,0.3c0,0.3,0,0.5,0,0.8v1.2c0,0.3,0,0.6,0,0.9c0,0.3,0,0.6-0.1,0.9c-0.1,0.3-0.1,0.6-0.1,1
		c0.3,1.4,0.7,2.7,1.1,4c0.4,1.1,0.8,2.2,1.4,3.2c0.4,0.8,0.9,1.6,1.4,2.3c0.4,0.6,0.9,1.1,1.4,1.5c-0.2,0.1-0.4,0.3-0.6,0.5
		c-0.2,0.2-0.3,0.4-0.5,0.6c-0.5-0.6-1-1.3-1.5-2.1c-0.5-0.8-0.9-1.6-1.2-2.4c-0.4-0.9-0.7-1.8-1-2.6
		C143.2,153.1,143,152.2,142.8,151.3L142.8,151.3z"/>
	<path class="st10" d="M152.7,158.3c0.5-0.6,0.9-1.1,1.2-1.5c0.3-0.4,0.5-0.7,0.7-1.1c0.1,0.2,0.2,0.5,0.3,0.7
		c0.1,0.2,0.2,0.4,0.4,0.5l-2.2,2.6l-0.7,0.9c-0.2,0.3-0.4,0.6-0.6,0.9c-0.1-0.2-0.2-0.5-0.4-0.7c-0.1-0.2-0.3-0.4-0.5-0.5
		c0.6-0.5,0.9-1.2,0.8-2v-7.6h-0.9c-0.2,0-0.5,0-0.7,0.1c-0.2,0-0.4,0.1-0.6,0.1l-0.5,0.2v-1.5h0.4h0.4h0.5h0.7c0.4,0,0.8,0,1.1,0
		l0.9-0.1c-0.1,0.3-0.2,0.7-0.2,1c0,0.5-0.1,0.9-0.1,1.4L152.7,158.3z M153.1,147.1c-0.3-0.6-0.7-1.2-1.1-1.8
		c-0.5-0.6-1-1.1-1.5-1.5l0.8-0.9c0.5,0.5,1,1,1.5,1.5c0.4,0.5,0.9,1,1.3,1.6L153.1,147.1z M159.5,145.2c-0.9,0-1.8,0-2.6,0
		c-0.7,0-1.3,0.1-2,0.1V144c0.7,0.1,1.4,0.1,2.1,0.1c0.8,0,1.7,0,2.8,0s1.9,0,2.8,0c0.8,0,1.5-0.1,2.1-0.1v1.4
		c-0.5-0.1-1.1-0.1-1.7-0.1l-2.3-0.1v5.4c1,0,1.8,0,2.4,0c0.4,0,0.9-0.1,1.3-0.1v1.3c-0.4-0.1-0.9-0.1-1.3-0.1c-0.6,0-1.4,0-2.4,0
		v7.8h1.7c0.4,0,0.9,0,1.3,0s0.9-0.1,1.5-0.2v1.4l-1-0.1l-1.2-0.1h-1.5h-3.8h-1.5l-1.2,0.1c-0.3,0-0.7,0.1-1,0.1v-1.4
		c0.8,0.1,1.4,0.2,2,0.2v-7.7c0-0.5,0-0.9,0-1.3c0-0.3-0.1-0.7-0.1-1c0.3,0,0.5,0.1,0.8,0.1h0.7c0.2,0,0.3,0,0.3,0.1
		c0,0.1,0,0.1-0.2,0.2c-0.1,0.1-0.2,0.2-0.3,0.3c0,0.2-0.1,0.4-0.1,0.5v8.7h2.4L159.5,145.2z"/>
</g>
</svg>
