<?xml version="1.0" encoding="utf-8"?>
<!-- Generator: Adobe Illustrator 23.0.4, SVG Export Plug-In . SVG Version: 6.00 Build 0)  -->
<svg version="1.1" id="Halal" xmlns="http://www.w3.org/2000/svg" xmlns:xlink="http://www.w3.org/1999/xlink" x="0px" y="0px"
	 viewBox="0 0 216.4 216.4" style="enable-background:new 0 0 216.4 216.4;" xml:space="preserve">
<style type="text/css">
	.st0{fill-rule:evenodd;clip-rule:evenodd;}
</style>
<g>
	<path d="M69.2,154.6v8.1h3.1v-18.1h-3.1v6.9h-5.8v-6.9h-3.1v18.1h3.1v-8.1H69.2z M77.8,158.9h5.5l0.9,3.7h3.4l-5.2-18.1h-3.6
		l-5.3,18.1h3.3L77.8,158.9z M80.5,148.7L80.5,148.7l1.9,7.1h-3.8L80.5,148.7z M92.1,144.6H89v18.1h10.5v-3.3h-7.4L92.1,144.6
		L92.1,144.6z M104.1,158.9h5.5l0.9,3.7h3.4l-5.2-18.1h-3.6l-5.3,18.1h3.3L104.1,158.9z M106.8,148.7L106.8,148.7l1.9,7.1h-3.8
		L106.8,148.7z M118.4,144.6h-3.1v18.1h10.5v-3.3h-7.4L118.4,144.6L118.4,144.6z M141.4,157.2L141.4,157.2l-5.9-12.6h-3.3v18.1h2.9
		v-12.9h0l6.1,12.9h3.1v-18.1h-2.9L141.4,157.2L141.4,157.2L141.4,157.2z M157.2,159.5h-7.8l7.8-11.9v-3h-11.3v3.2h7.5l-7.7,11.7
		v3.2h11.6L157.2,159.5L157.2,159.5z M198.3,108.1c0,49.6-40.4,90-90,90s-90-40.4-90-90s40.4-90,90-90S198.3,58.4,198.3,108.1z
		 M191.8,108.1c0-46.1-37.4-83.5-83.5-83.5s-83.5,37.4-83.5,83.5s37.4,83.5,83.5,83.5S191.8,154.2,191.8,108.1z"/>
	<g>
		<path class="st0" d="M121.4,47.6c0.3,11.4,0.5,25.1,0.5,37.2c0,8.3-1,16.4,4.7,19.2c3.2,1.6,8.2,1.4,13.2,1.4
			c4.7,0,9.8-0.4,12.1-2.4c-1.4-3.5-7.2-6-10.1-2.3c-2.9-2.4-6.4-4.3-10.8-5.2c2.9-4.5,6.4-8.6,13.2-8.6c7.1,0,12.1,4.3,16.7,8.2
			c5.4,4.5,10.8,8.5,20.6,7.9c0.1,0.7-0.6,1-1,1.5c-2.9,3.7-5.8,8.2-8.1,12.6c-3.8-2.8-7.7-6.2-14.9-5.8c-6.1,0.3-11.4,3.1-17.1,4.7
			c-4.6,1.3-9.7,1.5-14-0.1c-1.3-0.5-3.1-1.6-4-1.5c-1,0.2-1.5,2.1-2,3.1c-1.6,3.2-3.8,6.7-6.1,9.1c-2.9,3.2-7.4,6.3-13.4,6.7
			c-10.2,0.8-17.2-3.9-17.8-12.9c-0.4-5,0.9-9.4,2.2-13c1.4-3.6,3.1-7.1,5.6-9.3c-2.3,8.2-2.5,19,3.7,22.7
			c5.3,3.2,16.6,2.2,20.2-2.1c2.1-2.4,1.4-7.1,1.4-11.6c-0.3-14.4-1.1-29.1-1.1-43.6c0-2.5-0.5-5.4-0.1-7.3c0.3-1.2,1.9-2.8,3-4.1
			C119.4,50.3,120.5,48.9,121.4,47.6"/>
		<path class="st0" d="M75.8,49.9c2.3,3,5.5,5.2,9.7,6.4c-0.6,1.6-1.2,3-1.8,4.6C83,62.4,82,64,81.7,65.5c-0.3,1.9-0.1,4.4-0.1,6.7
			c-0.4,11.1-0.1,22.6-0.4,33.5c-0.3,12.4-6.8,20.7-18.5,22.2c-10,1.3-23.9-0.8-23-12.7c0.4-6.2,3.9-10.9,6.6-14.8
			c-1.2,6.6,0,11.7,3.7,14.6c6.4,5.1,21.8,3.1,24.8-3.4c1.2-2.7,0.6-8.4,0.6-12.6V78.9c0-3.4,0.4-7,0-10C75,65.3,72.6,63,71,60.7
			C72.6,57.1,74.5,53.8,75.8,49.9"/>
		<path class="st0" d="M112.1,101.9c-0.3-7.7-0.9-17.5-5.6-21.4c-2.2-1.9-10.2-4.7-9.3,1.8C91,81.8,85,77.8,85,71.8
			c0-4.6,4-6.5,8.4-6.8c4.5-0.3,8.8,1.4,11.9,3.3c3.1,1.9,5.7,4.7,7.2,7.9C115.7,83.4,114.8,94.1,112.1,101.9"/>
	</g>
</g>
</svg>
