<?xml version="1.0" encoding="utf-8"?>
<!-- Generator: Adobe Illustrator 23.0.1, SVG Export Plug-In . SVG Version: 6.00 Build 0)  -->
<svg version="1.1" id="Layer_1" xmlns="http://www.w3.org/2000/svg" xmlns:xlink="http://www.w3.org/1999/xlink" x="0px" y="0px"
	 viewBox="0 0 204 141.83" style="enable-background:new 0 0 204 141.83;" xml:space="preserve">
<style type="text/css">
	.st0{clip-path:url(#SVGID_2_);fill:#808285;}
	.st1{clip-path:url(#SVGID_2_);}
	.st2{clip-path:url(#SVGID_4_);}
	.st3{clip-path:url(#SVGID_6_);}
	.st4{clip-path:url(#SVGID_8_);}
</style>
<g>
	<defs>
		<rect id="SVGID_1_" x="0" width="204" height="141.83"/>
	</defs>
	<clipPath id="SVGID_2_">
		<use xlink:href="#SVGID_1_"  style="overflow:visible;"/>
	</clipPath>
	<path class="st0" d="M177.51,56.25c-1.88-0.68-3.44-1.36-3.44-2.9c0-1.37,1.08-2.3,2.92-2.3c1.17,0,1.96,0.26,2.48,0.57
		c-0.12,0.23-0.2,0.42-0.2,0.88c0,0.93,0.74,1.9,2.05,1.9c1.08,0,1.9-0.77,1.9-2.11c0-2.25-2.7-4.04-6.2-4.04
		c-3.79,0-6.21,2.34-6.21,5.32c0,3.47,2.45,4.58,5.91,5.84c1.88,0.65,3.45,1.39,3.45,2.93c0,1.62-1.31,2.53-3.36,2.53
		c-1.23,0-2.28-0.31-2.96-0.8c0.17-0.34,0.26-0.68,0.26-1.14c0-0.92-0.8-1.86-2.05-1.86c-1.17,0-1.96,0.88-1.96,2.23
		c0,2.27,2.98,4.35,6.69,4.35c3.84,0,6.6-2.03,6.6-5.58C183.4,58.62,180.87,57.46,177.51,56.25 M137.73,57.54
		c-1.02,0-1.48-0.03-1.82-0.05v-6.01h1.74c2.59,0,4.21,0.94,4.21,2.9C141.85,56.34,140.15,57.54,137.73,57.54 M118.34,58.73
		l2.62-7.37l2.62,7.37H118.34z M166.79,51.48h2.33V48.6h-5.09l-5.74,10.42l-5.75-10.42h-5.12v2.88h2.33l-0.6,12.98h-4.61l-2.87-5.1
		c2.04-0.83,3.53-2.67,3.53-5.1c0-3.81-3.08-5.66-7.37-5.66h-7.26v2.88h2.13v12.98h-3.76l-4.67-13.01h2.06V48.6h-10.59v2.84h2.04
		l-4.67,13.01h-1.62v2.87h7.2v-2.85h-2.28l1.06-3.07h6.99l1.06,3.07h-2.16v2.85h14.89v-2.87h-2.33v-4.21
		c0.4,0.03,0.93,0.03,1.54,0.03c0.37,0,0.73-0.03,1.14-0.06l3.76,7.12h12.2v-2.87h-2.24l0.37-9.65l5.35,9.39h0.42l5.35-9.39
		l0.37,9.65h-2.25v2.87h7.68v-2.87h-2.23L166.79,51.48z M104.46,51.44h5.38v2.5h3.07V48.6h-13.8v2.88h2.13v12.98h-2.13v2.87h7.82
		v-2.87h-2.48v-4.89h5.52V56.8h-5.52V51.44z"/>
	<path class="st1" d="M136.53,35.4c-1.03,0-1.48-0.03-1.82-0.06v-6h1.73c2.59,0,4.21,0.93,4.21,2.9
		C140.65,34.2,138.95,35.4,136.53,35.4 M157.61,29.34h2.33v8.88l-9.22-11.76h-4.86v2.88h2.13v12.97h-4.66l-2.88-5.09
		c2.06-0.83,3.53-2.68,3.53-5.1c0-3.81-3.07-5.66-7.37-5.66h-7.25v2.88h2.13v12.97h-2.13v2.88h7.69v-2.88h-2.33V38.1
		c0.39,0.03,0.94,0.03,1.54,0.03c0.36,0,0.74-0.03,1.13-0.06l3.76,7.12h12.32v-2.88h-2.33V32.27l10.21,13.01l1.73-0.06V29.34h2.05
		v-2.88h-7.51V29.34z M125,42.34h-5.58v-5.29h5.67v-2.73h-5.67V29.3h5.55v2.51h3.08v-5.36h-13.97v2.88h2.13v12.97h-2.13v2.88h14
		v-5.36H125V42.34z M99.12,29.34h2.13v12.97h-2.13v2.88h7.82v-2.88h-2.48v-4.89h5.52v-2.77h-5.52V29.3h5.38v2.51h3.07v-5.36H99.12
		V29.34z M172.21,13.26c-1.02,0-1.47-0.02-1.81-0.05v-6h1.73c2.58,0,4.21,0.94,4.21,2.9C176.34,12.06,174.64,13.26,172.21,13.26
		 M167.18,20.18h-2.41V17.7h-3.07v2.51h-5.59v-5.3h5.67v-2.73h-5.67V7.17h5.56v2.51h3.07V7.2h2.45V20.18z M176.14,15.08
		c2.05-0.83,3.53-2.67,3.53-5.1c0-3.81-3.08-5.66-7.38-5.66h-27.88V7.2h2.08l-4.03,10.27L138.41,7.2h1.96V4.32h-7.4V7.2h1.71
		l6.8,16.05h1.82l6.8-16.05h2.79v12.98h-2.13v2.87h21.96v-2.87h-2.33v-4.21c0.4,0.03,0.94,0.03,1.54,0.03
		c0.36,0,0.74-0.03,1.14-0.05l3.76,7.11h4.32v-2.87h-2.13L176.14,15.08z M136.6,17.56h-3.1v2.65h-5.15V7.2h2.48V4.32H123V7.2h2.14
		v12.98H123v2.87h13.6V17.56z M121.53,20.18h-2.28V7.2h2.28V4.32h-7.77V7.2h2.28v12.98h-2.28v2.87h7.77V20.18z M105.89,23.4
		c3.84,0,6.59-2.02,6.59-5.58c0-3.47-2.53-4.64-5.88-5.83c-1.88-0.68-3.44-1.37-3.44-2.9c0-1.37,1.07-2.31,2.93-2.31
		c1.16,0,1.96,0.26,2.48,0.56c-0.11,0.24-0.19,0.43-0.19,0.89c0,0.94,0.73,1.91,2.04,1.91c1.08,0,1.9-0.77,1.9-2.11
		c0-2.25-2.7-4.04-6.2-4.04c-3.79,0-6.2,2.34-6.2,5.33c0,3.47,2.44,4.58,5.92,5.84c1.88,0.65,3.45,1.39,3.45,2.93
		c0,1.62-1.31,2.54-3.35,2.54c-1.23,0-2.28-0.32-2.96-0.81c0.17-0.34,0.26-0.68,0.26-1.13c0-0.91-0.8-1.85-2.05-1.85
		c-1.17,0-1.96,0.88-1.96,2.22C99.2,21.32,102.19,23.4,105.89,23.4"/>
	<path class="st1" d="M66.33,34.9c0.15,0.32,0.36,0.89,0.35,1.65c-0.11-0.27-0.54-0.88-1.1-1.44c-0.53,0.15-1.09,0.3-1.67,0.44
		c-0.45,0.11-1.39,0.37-2.36,0.65c0.17,0.16,0.35,0.34,0.51,0.55c0.44,0.54,0.86,1.23,1.21,2.1c-0.28-0.33-1.8-1.57-3.37-2.2
		c-0.8,0.23-1.38,0.39-1.38,0.39c-0.79,0.23-1.6,0.49-2.43,0.8c0.71,0.42,1.45,0.99,2.2,1.76c0.54,0.55,1.08,1.18,1.62,1.95
		c-1.31-0.88-4.06-2.27-6.43-2.45c-0.97,0.57-1.91,1.26-2.89,2.08c1.51,0.45,3.21,1.39,5.16,3.32c0.32,0.32,0.66,0.66,0.99,1.04
		c-2.03-1.2-5.6-2.17-8.44-2.05c-0.83,0.97-1.68,2.07-2.41,3.33c1.95-0.13,4.42,0.33,7.67,2.28c0.44,0.26,0.9,0.55,1.36,0.88
		c-2.68-0.89-7.97-1.07-10.52,0.1c-0.13,0.43-0.49,1.98-0.48,3.65c5.17-0.98,8.15-0.08,11.35,0.81
		c1.66-13.32,9.92-15.01,18.35-22.25h0C72.1,33,69.68,33.94,66.33,34.9"/>
	<path class="st1" d="M56.66,0c-19.7,0-35.67,15.97-35.67,35.68c0,19.71,15.97,35.68,35.67,35.68c19.7,0,35.67-15.98,35.67-35.68
		C92.33,15.97,76.36,0,56.66,0 M56.62,67.11c-0.57,0-1.12-0.02-1.68-0.05c-0.3-0.04-0.63-0.1-0.97-0.16
		c-8.12-1.24-11.35-6.33-12.08-10.71c-0.95-5.68,1.29-8.8,2.56-10.73c4.04-5.93,9.54-8.54,14.3-9.85c0,0,4.25-1.19,5.39-1.48
		c5.45-1.34,8.97-2.75,10.58-3.66c1.28-0.72,3-2.06,4.03-3.96c0,0,1.42-2.18,1.14-4.78c-0.34-3.2-2.67-4.85-4.79-5
		c-0.2,0-0.4-0.01-0.6,0c-0.81,0.04-1.6,0.31-2.25,0.73c-0.62,0.41-1.11,1.03-1.38,1.71c0,0-0.23,0.48-0.23,1.09v0.02
		c0,1.55,1.27,2.82,2.82,2.82c1.56,0,2.82-1.27,2.82-2.82c0-0.44-0.1-0.83-0.27-1.21c0.75,0.45,1.18,1.23,1.31,2.06
		c0.05,0.32,0.07,0.68,0.05,1.08c-0.02,0.29-0.06,0.6-0.13,0.89c-0.3,1.02-0.89,1.94-2.59,2.54c-0.67,0.19-1.39,0.36-2.14,0.47
		c0.01,0.79-0.19,1.75-0.97,2.78c-0.12,0.16-0.28,0.31-0.45,0.47c0.36-0.95,0.35-2.1,0.14-3.05c-0.91,0.11-1.85,0.19-2.85,0.25
		c0.15,0.96,0.08,2.19-0.81,3.58c-0.13,0.2-0.28,0.4-0.47,0.6c0.38-1.33,0.13-2.91-0.32-4.09c-0.94,0.04-1.9,0.09-2.88,0.14
		c0.27,1.11,0.35,2.66-0.7,4.48c-0.13,0.23-0.32,0.47-0.52,0.71c0.42-1.73-0.06-3.75-0.76-5.1c-1.07,0.06-2.17,0.14-3.28,0.24
		c0.38,1.24,0.51,2.86-0.32,4.87c-0.12,0.29-0.29,0.6-0.5,0.91h0c0.22-1.93-0.52-4.05-1.45-5.54c-1.21,0.16-2.44,0.35-3.68,0.61
		c0.68,1.27,1.2,3.02,0.85,5.42c-0.05,0.34-0.15,0.73-0.28,1.11c-0.26-2.27-1.62-4.53-2.97-5.95c-1.32,0.36-2.64,0.81-3.94,1.36
		c1.05,1.11,2.09,2.77,2.35,5.36c0.03,0.38,0.03,0.8-0.01,1.24c-0.91-2.36-3.07-4.38-4.92-5.43c-1.25,0.64-2.41,1.36-3.46,2.1
		c1.39,0.86,2.93,2.29,3.86,4.96c0.13,0.36,0.34,1.15,0.41,1.6c-1.55-2.25-4.46-4.03-6.63-4.66c-1.12,0.99-2.1,2.01-2.94,3.02
		c2.12,1.14,4.92,3.49,6.07,6.43v0.01c-2-1.94-5.74-3.09-8.42-3.3c-1.32,2.02-1.98,3.53-2.09,3.76c4,1.07,5.97,2.43,6.95,3.51v0.01
		c0.85,0.84,0.62,1.85,0.62,1.85c-0.12,0.6-0.22,1.17-0.31,1.74c-0.58,3.83-0.26,6.84,0.6,9.23c-8.1-5.71-13.4-15.14-13.4-25.81
		c0-17.44,14.14-31.57,31.57-31.57c17.43,0,31.56,14.14,31.56,31.57C88.18,52.96,74.05,67.11,56.62,67.11"/>
	<path class="st1" d="M166.13,28.81c0-1.4,1.1-2.49,2.48-2.49c1.38,0,2.48,1.08,2.48,2.49c0,1.39-1.1,2.47-2.48,2.47
		C167.24,31.28,166.13,30.2,166.13,28.81 M166.68,28.83c0,1.11,0.88,1.94,1.93,1.94s1.93-0.83,1.93-1.94c0-1.15-0.88-1.98-1.93-1.98
		S166.68,27.68,166.68,28.83 M167.69,29.49h0.23v-1.43h-0.23v-0.43h0.92c0.52,0,0.94,0.22,0.94,0.69c0,0.29-0.18,0.51-0.4,0.62
		l0.26,0.54h0.25v0.43h-0.59l-0.39-0.83h-0.27v0.4h0.23v0.43h-0.95V29.49z M168.6,28.67c0.27,0,0.41-0.11,0.41-0.3
		c0-0.21-0.15-0.31-0.43-0.31h-0.18v0.61H168.6z"/>
</g>
<polygon points="61.47,89.35 61.06,91.15 62.61,91.15 61.31,96.75 57.44,89.35 54.35,89.35 53.94,91.15 55.37,91.15 53.48,99.28 
	52.23,99.28 51.82,101.09 56.6,101.09 57.01,99.28 55.46,99.28 56.96,92.83 61.29,101.12 62.27,101.12 64.59,91.15 65.84,91.15 
	66.25,89.35 "/>
<g>
	<defs>
		<rect id="SVGID_3_" x="0" width="204" height="141.83"/>
	</defs>
	<clipPath id="SVGID_4_">
		<use xlink:href="#SVGID_3_"  style="overflow:visible;"/>
	</clipPath>
	<path class="st2" d="M66.91,97.84v0.12c0,0.87,0.71,1.64,2.19,1.64c0.79,0,1.61-0.18,2.59-0.69l-0.38,1.78
		c-0.82,0.39-1.5,0.54-2.66,0.54c-1.91,0-3.68-1.2-3.68-3.35c0-2.66,1.89-4.74,4.23-4.74c1.98,0,3.35,1.07,3.35,3.01
		c0,0.5-0.09,1.07-0.29,1.7H66.91z M67.13,96.48h3.5c0.05-0.2,0.07-0.38,0.07-0.54c0-0.77-0.5-1.21-1.44-1.21
		C68.27,94.73,67.5,95.41,67.13,96.48"/>
	<path class="st2" d="M74.72,94.91H73.3l0.43-1.64h2.71l0.27,5.67l2.48-4.87h1.3l0.93,4.94c0.95-1.44,1.73-2.78,1.86-3.62
		c-0.41-0.12-0.8-0.52-0.8-1.11c0-0.64,0.52-1.16,1.16-1.16c0.84,0,1.41,0.61,1.41,1.61c0,1.16-1,3.19-3.41,6.49h-1.32l-0.93-4.3
		l-2.44,4.3h-1.5L74.72,94.91z"/>
</g>
<polygon points="88.05,99.94 96.63,91.04 92.13,91.04 91.69,93 89.85,93 90.71,89.35 99.48,89.35 99.66,90.49 91.08,99.39 
	95.84,99.39 96.29,97.43 98.13,97.43 97.27,101.09 88.23,101.09 "/>
<g>
	<defs>
		<rect id="SVGID_5_" x="0" width="204" height="141.83"/>
	</defs>
	<clipPath id="SVGID_6_">
		<use xlink:href="#SVGID_5_"  style="overflow:visible;"/>
	</clipPath>
	<path class="st3" d="M101.16,97.84v0.12c0,0.87,0.71,1.64,2.19,1.64c0.79,0,1.61-0.18,2.59-0.69l-0.37,1.78
		c-0.82,0.39-1.5,0.54-2.66,0.54c-1.91,0-3.67-1.2-3.67-3.35c0-2.66,1.89-4.74,4.23-4.74c1.98,0,3.35,1.07,3.35,3.01
		c0,0.5-0.09,1.07-0.28,1.7H101.16z M101.37,96.48h3.5c0.05-0.2,0.07-0.38,0.07-0.54c0-0.77-0.5-1.21-1.44-1.21
		C102.52,94.73,101.75,95.41,101.37,96.48"/>
	<path class="st3" d="M107.74,98.19c0-2.69,1.8-5.07,4.07-5.07c1.03,0,1.87,0.86,2.19,1.75l0.53-1.6h1.82l-1.34,5.31
		c-0.09,0.34-0.14,0.64-0.14,0.84c0,0.32,0.12,0.48,0.39,0.48c0.23,0,0.61-0.2,1-1.28l0.78,0.3c-0.54,1.84-1.53,2.3-2.39,2.3
		c-1.02,0-1.61-0.7-1.61-1.77c-0.64,0.96-1.59,1.77-2.8,1.77C108.79,101.23,107.74,100.01,107.74,98.19 M113.66,96.52
		c0-1.02-0.5-1.66-1.53-1.66c-1.3,0-2.35,1.46-2.35,3.05c0,0.93,0.46,1.66,1.41,1.66C112.49,99.57,113.66,98.19,113.66,96.52"/>
	<path class="st3" d="M118.07,99.46c0-0.27,0.04-0.55,0.11-0.86l2.07-8.94h-1.46l0.43-1.64h3.39l-2.44,10.56
		c-0.07,0.32-0.12,0.57-0.12,0.77c0,0.39,0.12,0.55,0.41,0.55c0.32,0,0.66-0.2,1.05-1.28l0.79,0.3c-0.54,1.84-1.43,2.3-2.44,2.3
		C118.62,101.23,118.07,100.53,118.07,99.46"/>
	<path class="st3" d="M123.03,98.19c0-2.69,1.8-5.07,4.07-5.07c1.03,0,1.87,0.86,2.19,1.75l0.53-1.6h1.82l-1.34,5.31
		c-0.09,0.34-0.14,0.64-0.14,0.84c0,0.32,0.12,0.48,0.39,0.48c0.23,0,0.61-0.2,1-1.28l0.79,0.3c-0.54,1.84-1.53,2.3-2.39,2.3
		c-1.02,0-1.61-0.7-1.61-1.77c-0.64,0.96-1.59,1.77-2.8,1.77C124.08,101.23,123.03,100.01,123.03,98.19 M128.95,96.52
		c0-1.02-0.5-1.66-1.53-1.66c-1.3,0-2.35,1.46-2.35,3.05c0,0.93,0.46,1.66,1.41,1.66C127.77,99.57,128.95,98.19,128.95,96.52"/>
	<path class="st3" d="M138.3,99.5c0-0.28,0.04-0.59,0.12-0.89l0.59-2.1c0.07-0.23,0.09-0.45,0.09-0.64c0-0.68-0.41-1.09-1.07-1.09
		c-0.84,0-1.39,0.59-1.68,1.75l-1.14,4.57h-2l1.55-6.17h-1.43l0.43-1.64h3.05l-0.39,1.8c0.53-1,1.61-1.94,2.66-1.94
		c1.12,0,2.05,0.8,2.05,2.34c0,0.39-0.05,0.82-0.2,1.3l-0.57,2.05c-0.05,0.21-0.09,0.39-0.09,0.55c0,0.36,0.14,0.54,0.41,0.54
		c0.27,0,0.61-0.2,1-1.28l0.79,0.3c-0.46,1.62-1.3,2.3-2.35,2.3C138.89,101.23,138.3,100.5,138.3,99.5"/>
	<path class="st3" d="M146.93,93.13c1.05,0,1.84,0.86,2.16,1.68l1.19-5.14h-1.44l0.43-1.64h3.35l-2.46,10.56
		c-0.09,0.37-0.14,0.64-0.14,0.84c0,0.32,0.12,0.48,0.39,0.48c0.23,0,0.61-0.2,1-1.28l0.78,0.3c-0.53,1.84-1.55,2.3-2.41,2.3
		c-1.02,0-1.61-0.69-1.61-1.76c-0.64,0.96-1.59,1.76-2.8,1.76c-1.46,0-2.52-1.21-2.52-3.03C142.86,95.5,144.67,93.13,146.93,93.13
		 M148.79,96.52c0-1.02-0.5-1.66-1.53-1.66c-1.3,0-2.35,1.46-2.35,3.05c0,0.93,0.46,1.66,1.41,1.66
		C147.61,99.57,148.79,98.19,148.79,96.52"/>
</g>
<polygon points="23.73,108.24 15.06,135.11 6.44,108.24 0,108.24 11.17,141.37 18.3,141.37 29.52,108.24 "/>
<polygon points="34.38,108.24 34.38,141.37 55.88,141.37 55.88,136.5 40.54,136.5 40.54,126.82 52.22,126.82 52.22,122.18 
	40.54,122.18 40.54,113.1 55.09,113.1 55.09,108.24 "/>
<polygon points="82.75,108.24 82.75,132.19 68.8,108.24 61.44,108.24 61.44,141.37 67.04,141.37 67.04,115.97 81.96,141.37 
	88.36,141.37 88.36,108.24 "/>
<rect x="96.14" y="108.24" width="6.21" height="33.13"/>
<g>
	<defs>
		<rect id="SVGID_7_" x="0" width="204" height="141.83"/>
	</defs>
	<clipPath id="SVGID_8_">
		<use xlink:href="#SVGID_7_"  style="overflow:visible;"/>
	</clipPath>
	<path class="st4" d="M108.14,131.08h5.93c0.42,3.34,1.76,6.12,7.37,6.12c3.66,0,6.26-2.04,6.26-5.1c0-3.06-1.53-4.22-6.9-5.1
		c-7.92-1.07-11.68-3.47-11.68-9.68c0-5.42,4.63-9.5,11.54-9.5c7.14,0,11.4,3.24,12.05,9.59h-5.65c-0.6-3.48-2.6-4.96-6.4-4.96
		c-3.75,0-5.7,1.81-5.7,4.36c0,2.69,1.11,4.03,6.86,4.87c7.79,1.07,11.82,3.29,11.82,9.92c0,5.75-4.87,10.24-12.19,10.24
		C112.4,141.83,108.6,137.34,108.14,131.08"/>
	<path class="st4" d="M164.76,124.92v-0.37c0-6.81-3.8-11.86-10.29-11.86c-6.49,0-10.33,4.77-10.33,11.91v0.37
		c0,7.23,4.4,11.91,10.43,11.91C160.82,136.87,164.76,132.1,164.76,124.92 M137.69,125.01v-0.37c0-9.69,6.95-16.87,16.77-16.87
		c9.87,0,16.68,7,16.68,16.73v0.37c0,9.69-6.63,16.96-16.68,16.96C144.32,141.83,137.69,134.56,137.69,125.01"/>
</g>
<polygon points="198.39,108.24 198.39,132.19 184.44,108.24 177.08,108.24 177.08,141.37 182.68,141.37 182.68,115.97 197.6,141.37 
	204,141.37 204,108.24 "/>
</svg>
