<?xml version="1.0" encoding="utf-8"?>
<!-- Generator: Adobe Illustrator 23.0.1, SVG Export Plug-In . SVG Version: 6.00 Build 0)  -->
<svg version="1.1" id="Antibiotics" xmlns="http://www.w3.org/2000/svg" xmlns:xlink="http://www.w3.org/1999/xlink" x="0px"
	 y="0px" viewBox="0 0 216.35 216.35" style="enable-background:new 0 0 216.35 216.35;" xml:space="preserve">
<path d="M173.02,43.21c-17.87-17.88-41.32-26.82-64.75-26.82c-23.43,0-46.88,8.94-64.75,26.82c-17.88,17.87-26.82,41.32-26.82,64.75
	c0,23.43,8.95,46.88,26.82,64.75c17.87,17.88,41.32,26.82,64.75,26.82s46.88-8.95,64.75-26.82c17.88-17.87,26.82-41.32,26.82-64.75
	C199.84,84.54,190.9,61.09,173.02,43.21z M170.13,169.82c-17.09,17.08-39.46,25.62-61.86,25.62c-22.39,0-44.77-8.54-61.85-25.62
	c-17.08-17.09-25.62-39.46-25.62-61.86c0-22.39,8.54-44.77,25.62-61.85c17.09-17.08,39.46-25.62,61.85-25.62s44.77,8.54,61.86,25.62
	c17.08,17.08,25.62,39.46,25.62,61.85C195.74,130.36,187.21,152.74,170.13,169.82z M88.19,137.81l-31.47,31.47
	c-0.68,0.68-0.68,1.78,0,2.46c0.68,0.68,1.78,0.68,2.46,0l31.47-31.47c0.68-0.68,0.68-1.78,0-2.46
	C89.97,137.13,88.87,137.13,88.19,137.81 M56.98,46.93l32.43,32.43c0.68,0.68,1.78,0.68,2.46,0c0.68-0.68,0.68-1.78,0-2.46
	L59.44,44.47c-0.68-0.68-1.78-0.68-2.46,0C56.3,45.15,56.3,46.25,56.98,46.93 M126.41,140.78l30.52,30.52
	c0.68,0.68,1.78,0.68,2.46,0c0.68-0.68,0.68-1.78,0-2.46l-30.52-30.52c-0.68-0.68-1.78-0.68-2.46,0
	C125.74,139,125.74,140.1,126.41,140.78 M157.43,44.16l-33.31,33.3c-0.68,0.68-0.68,1.78,0,2.46c0.68,0.68,1.78,0.68,2.46,0
	l33.31-33.3c0.68-0.68,0.68-1.78,0-2.46C159.21,43.48,158.11,43.48,157.43,44.16 M73.45,101.21l1.24-0.02V86.85h1.91v-2.01h-6.17
	v2.01h2.08v9.49l-8.82-11.5h-3.92v2.01h1.98v12.29h-1.98v2.01h6.25v-2.01h-2.08V88.83L73.45,101.21z M92.08,92.99
	c0-3.64-2.5-6.37-5.97-6.37c-3.49,0-5.99,2.7-5.99,6.37c0,3.64,2.5,6.37,5.99,6.37C89.58,99.35,92.08,96.65,92.08,92.99
	 M77.82,92.99c0-4.78,3.47-8.44,8.35-8.44c4.81,0,8.22,3.69,8.22,8.44c0,4.78-3.47,8.45-8.35,8.45
	C81.23,101.43,77.82,97.74,77.82,92.99 M98.78,101.14h6.51v-2.01h-2.13V86.77h3.64v2.6h2.13v-4.53h-13.8v4.53h2.13v-2.6h3.64v12.36
	h-2.13V101.14z M114.62,101.14h6.44v-2.01h-2.2v-5h5.05v-1.96h-5.05v-5.35h5.42v2.28h2.15v-4.26h-11.82v2.01h1.98v12.29h-1.98
	V101.14z M127.71,101.14h11.99v-4.26h-2.15v2.28h-5.6V93.8h5.15v-1.93h-5.15v-5.05h5.6v2.28h2.13v-4.26h-11.97v2.01h1.98v12.29
	h-1.98V101.14z M147.54,99.13c4.58,0,6.94-2.53,6.94-6.32c0-3.76-2.77-5.97-7.13-5.97h-1.83v12.29H147.54z M141.27,99.13h1.98V86.85
	h-1.98v-2.01h6.12c5.8,0,9.39,3.12,9.39,8c0,4.93-3.4,8.3-9.54,8.3h-5.97V99.13z M35.89,124.27h3.49l-1.73-6.42L35.89,124.27z
	 M34.37,113.32h7.26l5.55,17.71h-5.94l-0.82-2.95h-5.6l-0.79,2.95H28.8L34.37,113.32z M48.13,131.03h4.96v-10.6l5.92,10.6h5.38
	v-17.71h-4.93v9.36l-5.03-9.36h-6.29V131.03z M70.09,131.03h5.65v-13.4h4.48v-4.31H65.63v4.31h4.46V131.03z M81.52,131.03h5.67
	v-17.71h-5.67V131.03z M96.89,127.34c1.44,0,2.1-0.66,2.1-1.86v-0.1c0-1.16-0.65-1.8-2.23-1.8H95.1v3.76H96.89z M96.81,120.23
	c1.39,0,1.93-0.47,1.93-1.56v-0.1c0-1.06-0.57-1.58-1.96-1.58H95.1v3.24H96.81z M89.63,113.32H98c4.36,0,6.04,2.01,6.04,4.63v0.1
	c0,2.06-1.09,3.35-3.07,3.82c2.08,0.37,3.54,1.66,3.54,4.14v0.09c0,3.15-2.01,4.93-6.57,4.93h-8.32V113.32z M105.91,131.03h5.67
	v-17.71h-5.67V131.03z M126.2,122.26v-0.2c0-3-1.44-4.63-3.67-4.63c-2.18,0-3.59,1.61-3.59,4.63v0.2c0,3.02,1.41,4.68,3.64,4.68
	C124.79,126.94,126.2,125.21,126.2,122.26 M113.08,122.29v-0.2c0-5.47,4.16-9.04,9.46-9.04c5.45,0,9.51,3.3,9.51,8.89v0.2
	c0,5.53-3.79,9.22-9.61,9.22C116.64,131.35,113.08,127.66,113.08,122.29 M136.17,131.03h5.65v-13.4h4.48v-4.31h-14.59v4.31h4.46
	V131.03z M147.6,131.03h5.67v-17.71h-5.67V131.03z M154.79,122.29c0,5.42,3.02,9.06,9.41,9.06c4.68,0,8.1-2.45,8.4-7.11h-5.6
	c-0.2,1.78-1.34,2.6-2.92,2.6c-2.18,0-3.37-1.63-3.37-4.58v-0.2c0-3,1.24-4.58,3.27-4.58c1.57,0,2.43,0.92,2.6,2.55h5.8
	c-0.42-4.81-3.64-6.99-8.42-6.99c-5.23,0-9.17,3.57-9.17,9.04V122.29 M172.62,125.36c0.13,3.99,2.8,5.99,7.8,5.99
	c4.76,0,7.33-2.72,7.33-6.02c0-3.94-2.48-5.08-6.94-5.55c-1.96-0.25-2.47-0.65-2.47-1.49c0-0.76,0.59-1.29,1.76-1.29
	c1.19,0,1.81,0.62,1.93,1.71h5.2c-0.3-3.86-2.75-5.65-7.13-5.65c-4.41,0-7.08,2.38-7.08,5.65c0,3.64,1.74,5.13,6.84,5.7
	c1.91,0.27,2.53,0.57,2.53,1.51c0,0.87-0.65,1.46-1.96,1.46c-1.83,0-2.38-0.92-2.48-2.03H172.62"/>
</svg>
