<?xml version="1.0" encoding="utf-8"?>
<!-- Generator: Adobe Illustrator 23.0.2, SVG Export Plug-In . SVG Version: 6.00 Build 0)  -->
<svg version="1.1" id="Layer_1" xmlns="http://www.w3.org/2000/svg" xmlns:xlink="http://www.w3.org/1999/xlink" x="0px" y="0px"
	 viewBox="0 0 768 2048" style="enable-background:new 0 0 768 2048;" xml:space="preserve">
<style type="text/css">
	.st0{fill:#646E4D;}
</style>
<path class="st0" d="M768,1024V685.6c-15.1-5.5-29-10.5-30.5-10.7c-1.7-0.3-3.8-1.1-5.1-0.7c-4.9,1.7-8.2-0.4-11.6-2.7
	c-0.6-0.4-1.2-1.1-2.2-1c-5.4,0.4-8.5-3.2-12.7-4.8c-0.6-0.2-1.4-0.5-1.5-0.9c-1.9-5.6-25.4-7.5-25.6-7.7
	c-0.2-0.2-10.9-0.2-15.6-1.8c-3.5-1.3-7.1-1.9-11-2.1c-2.4-0.1-4.8-0.4-7.4-1.3c-3.9-1.4-8.5-2.4-13.1-2.3c-4.5,0-8.4-1.2-12.2-3.7
	c-3.8-2.6-8.6-4.2-13.1-6.2c-2.7-1.2-26.8-11.6-33.7-9.9c-3.3,0.8-6.8,0.1-10.2,0.3c-1.1,0-29.4-6.3-33.6-7.5
	c-6.3-1.8-12.6-2.5-18.9-1.8c-3.5,0.4-6.9,0.3-10-1.2c-1.6-0.8-3.3-1-4.9-1.1c-4.9-0.5-8.3-2.6-11.6-5.5c-2.4-2.1-6.1-2.4-9.3-3.3
	c-3.6-0.9-24.7-7.9-26.6-10.5c-0.5-0.7-2.1-1-3.1-1.7c-3.1-2.1-18.4-6.6-25.2-6.7c-2.5-0.1-4.9-0.2-6.7-1.3c-5.1-2.9-11-3-16.6-3.8
	c-3.4-0.4-22.1-6.2-27.4-6.3c-9.1,0-26.8-6.5-31.1-7.3c-2.9-0.6-19.6-0.8-22.7-5c-1.7-2.3-4.6-3.9-5.9-6.5
	c-0.9-1.8-45.2-13.1-49.4-16.5c-2.5-2-15.4-4.1-18.4-5.1c-5-1.7-10.4-2.6-15-5c-1-0.5-2.6-0.9-3.7-0.6c-5.2,1.2-10.3-0.7-15.4-0.7
	c-1.6,0-3.4-0.6-4.8-1.3c-2.1-1-14.3-6.6-17.3-6.9c-4-0.4-19.6-5.4-22-6.8c-4.5-2.8-27.9-5.3-31.5-5.4c-1.3,0-21.9-4.8-26.5-7.2
	c-4.5-2.4-29-9.6-34.6-12.6c-1.3-0.7-2.6-1.3-4.2-1.1c-1.1,0.1-28.9-4.3-35.4-6.9c-2.6-1-16-3.1-19-4.4l-1.8-0.4
	c-3.3-0.6-6.6-0.8-9.8-0.8V1024L768,1024L768,1024z"/>
<rect x="-181.7" y="883.1" class="st0" width="1178.7" height="1375.4"/>
</svg>
