<?xml version="1.0" encoding="utf-8"?>
<!-- Generator: Adobe Illustrator 23.0.2, SVG Export Plug-In . SVG Version: 6.00 Build 0)  -->
<svg version="1.1" id="Layer_1" xmlns="http://www.w3.org/2000/svg" xmlns:xlink="http://www.w3.org/1999/xlink" x="0px" y="0px"
	 viewBox="0 0 768 1024" style="enable-background:new 0 0 768 1024;" xml:space="preserve">
<style type="text/css">
	.st0{fill:#9CA280;}
</style>
<path class="st0" d="M761.4,440.1c-2.2,0.1-3.9,0.8-5.4,1.9c-4.4,3.2-24.5,4.2-29.4,3.3c-5.6-1.1-11.6-2.3-17.3,1.3
	c-3.2,2-6.9,3-10.2,5.3c-2.6,1.8-7,1.8-10.6,2.7c-4.1,1-61.3,25.3-64.5,25c-1.5-0.2-3,0.7-4.4,1.2c-6.6,2.3-13.5,2.8-20.5,3
	c-2.2,0.1-16,1.1-19.4,2.4c-3.5,1.4-7.7,1.1-11.5,1.9c-2.4,0.5-4.6,1-6.4,2.5c-3.8,3.2-8.1,4-12.8,3.4c-3.5-0.4-30.8,3.2-32.5,4.1
	c-6.6,3.4-42.7,32.2-46.3,32.2c-4.5,0-26.7,4.4-27.1,4.2c-3.2-1.3-13.4,2.3-15.3,2.4c-2.8,0.2-25.5,2.5-31.3,4.3
	c-4,1.2-8.2,2.6-12.6,2c-1.4-0.2-3.7,0.1-4.9,0.8c-5.6,2.7-11.9,2.8-17.6,5.2c-2.9-1.7-14.3,1.7-15.9,4.9
	c-1.1,2.2-22.9,5.3-28.2,8.6c-1.1,0.7-2.2,1.4-3.4,1.8c-3,1.1-8,3-10.7,3.5c-3.9,0.8-5.1,1.5-9.2,3.2c-5.4,2.1-9.9,2.5-14.7,0.4
	c-2.3-1-3.9-0.9-5,1.1c-0.9,1.6-1.9,1.5-3.7,1.6c-2.4,0.2-5.3-0.1-7.5,2.4c-1.4,1.6-4.3,2.1-6.7,1.9c-4.1-0.3-7.6,0.7-10.8,3.2
	c-0.8,0.6-9.7,1.3-10.3,1.2c-4.3-1-19.9-3.1-22.6,0.6c-0.6,0.8-1.8,1.5-3.2,1c-5.5-1.8-3.4,1.8-9,1.6c-4.9-0.1-36.5-3.1-40.9-0.5
	c-2.6,1.5-5,2.6-8.4,1.5c-3.2-1-6.3,1.7-9.7,1.9l-114,10.3c-3-0.8-5.8-1.8-6.6-2.3C17.8,595.3,4,594.9,0,595v429h767.3V666.2
	l0.7-0.2V439.2C765.9,439.8,763.7,440,761.4,440.1z"/>
</svg>
