<?xml version="1.0" encoding="utf-8"?>
<!-- Generator: Adobe Illustrator 23.0.1, SVG Export Plug-In . SVG Version: 6.00 Build 0)  -->
<svg version="1.1" id="Layer_1" xmlns="http://www.w3.org/2000/svg" xmlns:xlink="http://www.w3.org/1999/xlink" x="0px" y="0px"
	 viewBox="0 0 226.66 38.19" style="enable-background:new 0 0 226.66 38.19;" xml:space="preserve">
<style type="text/css">
	.st0{fill:#FFFFFF;}
	.st1{clip-path:url(#SVGID_2_);fill:#FFFFFF;}
</style>
<polygon class="st0" points="12.25,22.53 13.98,22.53 13.98,15.87 12.37,16.28 12.08,15.19 14.62,14.53 15.23,14.53 15.23,22.53 
	16.94,22.53 16.94,23.63 12.25,23.63 "/>
<g>
	<defs>
		<rect id="SVGID_1_" width="226.66" height="38.19"/>
	</defs>
	<clipPath id="SVGID_2_">
		<use xlink:href="#SVGID_1_"  style="overflow:visible;"/>
	</clipPath>
	<path class="st1" d="M17.6,19.12c0-2.83,1.65-4.71,3.72-4.71c2.02,0,3.67,1.89,3.67,4.68c0,2.82-1.65,4.71-3.72,4.71
		C19.24,23.8,17.6,21.9,17.6,19.12 M23.71,19.12c0-2.08-0.95-3.55-2.42-3.55c-1.46,0-2.41,1.46-2.41,3.52
		c0,2.08,0.95,3.55,2.41,3.55C22.76,22.64,23.71,21.18,23.71,19.12"/>
	<path class="st1" d="M26.37,19.12c0-2.83,1.65-4.71,3.72-4.71c2.02,0,3.67,1.89,3.67,4.68c0,2.82-1.65,4.71-3.72,4.71
		C28,23.8,26.37,21.9,26.37,19.12 M32.48,19.12c0-2.08-0.95-3.55-2.42-3.55c-1.46,0-2.41,1.46-2.41,3.52c0,2.08,0.95,3.55,2.41,3.55
		C31.53,22.64,32.48,21.18,32.48,19.12"/>
	<path class="st1" d="M36.82,14.41c1.14,0,2.04,0.92,2.04,2.05c0,1.14-0.89,2.06-2.04,2.06c-1.14,0-2.05-0.92-2.05-2.06
		C34.77,15.33,35.68,14.41,36.82,14.41 M35.48,23.41c0.25-0.33,2.05-2.86,3.21-4.49c1.16-1.62,2.95-4.18,3.18-4.54l0.58,0.4
		c-0.28,0.36-2.07,2.88-3.24,4.51c-1.16,1.62-2.96,4.2-3.17,4.51L35.48,23.41z M36.82,17.77c0.66,0,1.17-0.59,1.17-1.31
		c0-0.7-0.51-1.29-1.17-1.29c-0.67,0-1.18,0.59-1.18,1.29C35.64,17.18,36.15,17.77,36.82,17.77 M41.08,19.68
		c1.14,0,2.05,0.92,2.05,2.06c0,1.13-0.91,2.05-2.05,2.05c-1.14,0-2.05-0.92-2.05-2.05C39.03,20.6,39.94,19.68,41.08,19.68
		 M41.08,23.04c0.66,0,1.17-0.59,1.17-1.29c0-0.72-0.51-1.31-1.17-1.31c-0.67,0-1.18,0.59-1.18,1.31
		C39.89,22.45,40.4,23.04,41.08,23.04"/>
	<polygon class="st1" points="47.06,22.52 48.19,22.52 48.51,15.69 47.32,15.69 47.32,14.58 49.65,14.58 52.54,20.26 55.43,14.58 
		57.73,14.58 57.73,15.69 56.56,15.69 56.86,22.52 58,22.52 58,23.63 54.51,23.63 54.51,22.52 55.62,22.52 55.42,16.89 52.64,22.26 
		52.4,22.26 49.62,16.89 49.42,22.52 50.53,22.52 50.53,23.63 47.06,23.63 	"/>
	<path class="st1" d="M59.47,22.52h0.83l2.52-6.84h-1.01v-1.1h4.54v1.1h-1.02l2.52,6.84h0.84v1.11h-3.22v-1.1h1.05l-0.67-1.91h-3.58
		l-0.67,1.91h1.1v1.1h-3.22V22.52z M65.49,19.57l-1.43-3.95l-1.43,3.95H65.49z"/>
	<path class="st1" d="M70.33,22.52h1.1v-6.83h-1.1v-1.11h3.4c3.22,0,5.22,1.73,5.22,4.45c0,2.74-1.89,4.61-5.3,4.61h-3.32V22.52z
		 M73.81,22.52c2.55,0,3.85-1.4,3.85-3.51c0-2.09-1.54-3.32-3.96-3.32h-1.02v6.83H73.81z"/>
	<polygon class="st1" points="79.91,22.52 81.01,22.52 81.01,15.69 79.91,15.69 79.91,14.58 86.55,14.58 86.55,16.94 85.37,16.94 
		85.37,15.68 82.26,15.68 82.26,18.48 85.12,18.48 85.12,19.56 82.26,19.56 82.26,22.53 85.37,22.53 85.37,21.26 86.57,21.26 
		86.57,23.63 79.91,23.63 	"/>
	<path class="st1" d="M90.52,19.1c0-2.66,1.93-4.69,4.64-4.69c2.67,0,4.57,2.05,4.57,4.69c0,2.66-1.93,4.69-4.64,4.69
		C92.42,23.8,90.52,21.75,90.52,19.1 M98.44,19.1c0-2.02-1.39-3.54-3.32-3.54c-1.94,0-3.33,1.5-3.33,3.54
		c0,2.02,1.39,3.54,3.33,3.54C97.05,22.64,98.44,21.14,98.44,19.1"/>
	<polygon class="st1" points="100.75,22.52 101.85,22.52 101.85,15.69 100.75,15.69 100.75,14.58 107.32,14.58 107.32,16.94 
		106.12,16.94 106.12,15.68 103.11,15.68 103.11,18.65 105.91,18.65 105.91,19.74 103.11,19.74 103.11,22.52 104.33,22.52 
		104.33,23.63 100.75,23.63 	"/>
	<polygon class="st1" points="114.53,16.79 114.53,22.52 115.68,22.52 115.68,23.63 112.22,23.63 112.22,22.52 113.32,22.52 
		113.32,15.69 112.22,15.69 112.22,14.58 114.39,14.58 119.29,20.96 119.29,15.69 118.13,15.69 118.13,14.58 121.56,14.58 
		121.56,15.69 120.5,15.69 120.5,23.66 119.81,23.67 	"/>
	<polygon class="st1" points="123.29,22.52 124.39,22.52 124.39,15.69 123.29,15.69 123.29,14.58 129.94,14.58 129.94,16.94 
		128.76,16.94 128.76,15.68 125.64,15.68 125.64,18.48 128.51,18.48 128.51,19.56 125.64,19.56 125.64,22.53 128.76,22.53 
		128.76,21.26 129.95,21.26 129.95,23.63 123.29,23.63 	"/>
	<polygon class="st1" points="132.51,15.69 131.51,15.69 131.51,14.58 135.02,14.58 135.02,15.69 133.86,15.69 135.58,21.36 
		137.84,15.57 138.51,15.57 140.77,21.36 142.42,15.69 141.22,15.69 141.22,14.58 144.73,14.58 144.73,15.69 143.71,15.69 
		141.22,23.75 140.52,23.75 138.15,17.79 135.76,23.75 135.04,23.75 	"/>
	<polygon class="st1" points="148.97,22.97 154.33,15.62 150.36,15.62 150.36,17.09 149.26,17.09 149.26,14.58 156.11,14.58 
		156.11,15.24 150.74,22.59 155.11,22.59 155.11,21.11 156.19,21.11 156.19,23.63 148.97,23.63 	"/>
	<polygon class="st1" points="158.09,22.52 159.19,22.52 159.19,15.69 158.09,15.69 158.09,14.58 164.74,14.58 164.74,16.94 
		163.55,16.94 163.55,15.68 160.44,15.68 160.44,18.48 163.31,18.48 163.31,19.56 160.44,19.56 160.44,22.53 163.55,22.53 
		163.55,21.26 164.75,21.26 164.75,23.63 158.09,23.63 	"/>
	<path class="st1" d="M166.29,22.52h0.83l2.52-6.84h-1v-1.1h4.54v1.1h-1.02l2.52,6.84h0.84v1.11h-3.22v-1.1h1.05l-0.67-1.91h-3.58
		l-0.68,1.91h1.1v1.1h-3.22V22.52z M172.31,19.57l-1.43-3.95l-1.43,3.95H172.31z"/>
	<polygon class="st1" points="176.87,22.52 177.97,22.52 177.97,15.69 176.87,15.69 176.87,14.58 180.45,14.58 180.45,15.69 
		179.23,15.69 179.23,22.53 182.09,22.53 182.09,21.2 183.29,21.2 183.29,23.63 176.87,23.63 	"/>
	<path class="st1" d="M184.79,22.52h0.83l2.52-6.84h-1v-1.1h4.54v1.1h-1.02l2.52,6.84h0.84v1.11h-3.22v-1.1h1.05l-0.67-1.91h-3.58
		l-0.68,1.91h1.1v1.1h-3.22V22.52z M190.8,19.57l-1.43-3.95l-1.43,3.95H190.8z"/>
	<polygon class="st1" points="197.68,16.79 197.68,22.52 198.83,22.52 198.83,23.63 195.37,23.63 195.37,22.52 196.47,22.52 
		196.47,15.69 195.37,15.69 195.37,14.58 197.54,14.58 202.44,20.96 202.44,15.69 201.28,15.69 201.28,14.58 204.71,14.58 
		204.71,15.69 203.65,15.69 203.65,23.66 202.96,23.67 	"/>
	<path class="st1" d="M205.96,22.52h1.1v-6.83h-1.1v-1.11h3.4c3.22,0,5.22,1.73,5.22,4.45c0,2.74-1.89,4.61-5.3,4.61h-3.32V22.52z
		 M209.44,22.52c2.55,0,3.85-1.4,3.85-3.51c0-2.09-1.54-3.32-3.96-3.32h-1.02v6.83H209.44z"/>
</g>
</svg>
