<?xml version="1.0" encoding="utf-8"?>
<!-- Generator: Adobe Illustrator 23.0.1, SVG Export Plug-In . SVG Version: 6.00 Build 0)  -->
<svg version="1.1" id="Layer_1" xmlns="http://www.w3.org/2000/svg" xmlns:xlink="http://www.w3.org/1999/xlink" x="0px" y="0px"
	 viewBox="0 0 148.72 66.67" style="enable-background:new 0 0 148.72 66.67;" xml:space="preserve">
<style type="text/css">
	.st0{clip-path:url(#SVGID_2_);fill:#808285;}
	.st1{clip-path:url(#SVGID_4_);}
	.st2{clip-path:url(#SVGID_6_);}
	.st3{clip-path:url(#SVGID_8_);}
	.st4{clip-path:url(#SVGID_10_);}
</style>
<g>
	<g>
		<defs>
			<rect id="SVGID_1_" x="1.43" y="1.52" width="145.38" height="63.84"/>
		</defs>
		<clipPath id="SVGID_2_">
			<use xlink:href="#SVGID_1_"  style="overflow:visible;"/>
		</clipPath>
		<path class="st0" d="M141.55,51.84c-1.68-0.61-3.08-1.22-3.08-2.6c0-1.22,0.96-2.06,2.62-2.06c1.04,0,1.76,0.23,2.22,0.51
			c-0.1,0.2-0.18,0.38-0.18,0.79c0,0.84,0.66,1.7,1.83,1.7c0.97,0,1.7-0.69,1.7-1.88c0-2.01-2.41-3.61-5.54-3.61
			c-3.39,0-5.55,2.09-5.55,4.76c0,3.11,2.19,4.1,5.29,5.22c1.68,0.58,3.09,1.24,3.09,2.62c0,1.45-1.18,2.27-3.01,2.27
			c-1.1,0-2.04-0.28-2.65-0.71c0.15-0.3,0.23-0.61,0.23-1.02c0-0.82-0.71-1.66-1.83-1.66c-1.04,0-1.76,0.79-1.76,1.99
			c0,2.03,2.67,3.89,5.98,3.89c3.43,0,5.9-1.81,5.9-4.99C146.81,53.96,144.55,52.91,141.55,51.84 M105.97,52.99
			c-0.91,0-1.33-0.02-1.63-0.05v-5.37h1.55c2.32,0,3.76,0.84,3.76,2.6C109.65,51.92,108.13,52.99,105.97,52.99 M88.62,54.05
			l2.34-6.59l2.34,6.59H88.62z M131.96,47.57h2.08V45h-4.56l-5.14,9.32L119.2,45h-4.58v2.57h2.09l-0.54,11.61h-4.12l-2.57-4.56
			c1.83-0.74,3.15-2.39,3.15-4.56c0-3.41-2.75-5.07-6.59-5.07h-6.49v2.57h1.91v11.61h-3.37l-4.17-11.64h1.84v-2.54h-9.47v2.54h1.83
			l-4.18,11.64h-1.45v2.57h6.44v-2.55h-2.04l0.94-2.74h6.26l0.95,2.74H93.1v2.55h13.33v-2.57h-2.09V55.4
			c0.36,0.02,0.84,0.02,1.38,0.02c0.33,0,0.66-0.02,1.02-0.05l3.36,6.37h10.92v-2.57h-2.01l0.33-8.63l4.79,8.4h0.38l4.78-8.4
			l0.33,8.63h-2.01v2.57h6.87v-2.57h-1.99L131.96,47.57z M76.21,47.54h4.81v2.24h2.75V45H71.42v2.57h1.91v11.61h-1.91v2.57h7v-2.57
			H76.2V54.8h4.94v-2.47H76.2v-4.79H76.21z"/>
	</g>
	<g>
		<defs>
			<rect id="SVGID_3_" x="1.43" y="1.52" width="145.38" height="63.84"/>
		</defs>
		<clipPath id="SVGID_4_">
			<use xlink:href="#SVGID_3_"  style="overflow:visible;"/>
		</clipPath>
		<path class="st1" d="M104.95,33.19c-0.92,0-1.32-0.03-1.63-0.06v-5.37h1.55c2.32,0,3.77,0.84,3.77,2.6
			C108.64,32.11,107.12,33.19,104.95,33.19 M123.81,27.76h2.09v7.95l-8.24-10.52h-4.35v2.58h1.9v11.61h-4.17l-2.58-4.56
			c1.84-0.74,3.16-2.39,3.16-4.56c0-3.41-2.75-5.06-6.6-5.06h-6.49v2.58h1.91v11.61h-1.91v2.58h6.88v-2.58h-2.09v-3.77
			c0.35,0.03,0.85,0.03,1.38,0.03c0.32,0,0.66-0.03,1.01-0.05l3.36,6.37h11.02v-2.58h-2.08V30.4l9.13,11.64l1.55-0.06v-14.2h1.83
			V25.2h-6.72v2.56H123.81z M94.64,39.39h-5v-4.74h5.08v-2.43h-5.08v-4.49h4.97v2.25h2.75v-4.79h-12.5v2.58h1.91v11.61h-1.91v2.58
			h12.53v-4.79h-2.75V39.39z M71.49,27.76h1.91v11.61h-1.91v2.58h7v-2.58h-2.21V35h4.94v-2.48h-4.94v-4.79h4.81v2.25h2.75v-4.79
			H71.49V27.76z M136.75,13.38c-0.92,0-1.32-0.02-1.62-0.05V7.96h1.55c2.31,0,3.77,0.84,3.77,2.59
			C140.45,12.31,138.92,13.38,136.75,13.38 M132.25,19.57h-2.16v-2.22h-2.75v2.24h-5v-4.74h5.07v-2.44h-5.07V7.93h4.97v2.24h2.75
			V7.96h2.19V19.57z M140.27,15.01c1.83-0.74,3.16-2.39,3.16-4.56c0-3.41-2.75-5.06-6.6-5.06h-24.94v2.57h1.86l-3.6,9.19l-3.62-9.19
			h1.76V5.39h-6.62v2.57h1.53l6.08,14.35h1.63l6.08-14.35h2.5v11.61h-1.91v2.57h19.64v-2.57h-2.08V15.8
			c0.35,0.03,0.84,0.03,1.37,0.03c0.32,0,0.66-0.03,1.02-0.05l3.36,6.36h3.87v-2.57h-1.91L140.27,15.01z M104.9,17.23h-2.77v2.37
			h-4.61V7.96h2.22V5.39h-7v2.57h1.91v11.61h-1.92v2.57h12.17V17.23z M91.42,19.57h-2.04V7.96h2.04V5.39h-6.95v2.57h2.04v11.61
			h-2.04v2.57h6.95V19.57z M77.43,22.45c3.43,0,5.9-1.81,5.9-5c0-3.1-2.27-4.15-5.26-5.22c-1.68-0.61-3.08-1.23-3.08-2.59
			c0-1.22,0.96-2.06,2.62-2.06c1.04,0,1.75,0.23,2.22,0.5c-0.1,0.21-0.18,0.39-0.18,0.79c0,0.84,0.65,1.71,1.83,1.71
			c0.96,0,1.7-0.69,1.7-1.89c0-2.01-2.42-3.62-5.55-3.62c-3.39,0-5.55,2.09-5.55,4.76c0,3.1,2.18,4.1,5.29,5.22
			c1.68,0.58,3.08,1.24,3.08,2.62c0,1.45-1.17,2.27-3,2.27c-1.1,0-2.04-0.29-2.65-0.72c0.16-0.3,0.23-0.61,0.23-1.01
			c0-0.82-0.71-1.66-1.83-1.66c-1.04,0-1.75,0.79-1.75,1.99C71.45,20.59,74.12,22.45,77.43,22.45"/>
	</g>
	<g>
		<defs>
			<rect id="SVGID_5_" x="1.43" y="1.52" width="145.38" height="63.84"/>
		</defs>
		<clipPath id="SVGID_6_">
			<use xlink:href="#SVGID_5_"  style="overflow:visible;"/>
		</clipPath>
		<path class="st2" d="M41.99,32.74c0.13,0.28,0.32,0.8,0.31,1.47c-0.1-0.24-0.48-0.78-0.98-1.29c-0.48,0.13-0.97,0.27-1.49,0.39
			c-0.4,0.1-1.25,0.33-2.11,0.58c0.15,0.14,0.31,0.3,0.46,0.49c0.39,0.49,0.77,1.1,1.09,1.88c-0.25-0.3-1.61-1.4-3.01-1.97
			c-0.71,0.21-1.24,0.35-1.24,0.35c-0.71,0.2-1.43,0.44-2.18,0.71c0.64,0.38,1.3,0.89,1.97,1.58c0.48,0.49,0.97,1.06,1.44,1.75
			c-1.17-0.79-3.63-2.03-5.75-2.19c-0.87,0.51-1.71,1.13-2.59,1.87c1.35,0.4,2.87,1.24,4.62,2.97c0.29,0.28,0.59,0.59,0.89,0.93
			c-1.82-1.07-5.01-1.94-7.55-1.83c-0.74,0.87-1.5,1.86-2.15,2.98c1.74-0.12,3.95,0.29,6.86,2.04c0.39,0.24,0.8,0.49,1.22,0.78
			c-2.4-0.8-7.13-0.96-9.41,0.09c-0.12,0.38-0.44,1.77-0.43,3.26c4.62-0.88,7.29-0.07,10.15,0.72c1.48-11.92,8.87-13.42,16.41-19.91
			l0,0C47.15,31.04,44.99,31.88,41.99,32.74"/>
	</g>
	<g>
		<defs>
			<rect id="SVGID_7_" x="1.43" y="1.52" width="145.38" height="63.84"/>
		</defs>
		<clipPath id="SVGID_8_">
			<use xlink:href="#SVGID_7_"  style="overflow:visible;"/>
		</clipPath>
		<path class="st3" d="M33.31,61.55c-0.51,0-1-0.02-1.5-0.05c-0.27-0.04-0.56-0.09-0.87-0.14c-7.26-1.11-10.16-5.66-10.81-9.58
			c-0.85-5.08,1.15-7.87,2.29-9.6c3.61-5.31,8.54-7.63,12.79-8.81c0,0,3.8-1.07,4.82-1.32c4.87-1.2,8.02-2.46,9.47-3.27
			c1.14-0.64,2.68-1.84,3.6-3.54c0,0,1.27-1.95,1.02-4.28c-0.31-2.86-2.39-4.34-4.29-4.47c-0.18,0-0.36-0.01-0.54,0
			c-0.72,0.03-1.43,0.27-2.01,0.65c-0.56,0.37-0.99,0.92-1.24,1.53c0,0-0.21,0.43-0.21,0.97v0.02c0,1.39,1.13,2.52,2.53,2.52
			s2.52-1.14,2.52-2.52c0-0.39-0.09-0.74-0.24-1.08c0.67,0.4,1.05,1.1,1.18,1.84c0.04,0.28,0.07,0.61,0.04,0.97
			c-0.01,0.26-0.05,0.53-0.12,0.8c-0.26,0.91-0.79,1.74-2.31,2.27c-0.6,0.17-1.24,0.32-1.91,0.42c0.01,0.71-0.17,1.56-0.87,2.48
			c-0.11,0.14-0.25,0.28-0.4,0.42c0.33-0.85,0.31-1.88,0.13-2.73c-0.81,0.09-1.66,0.17-2.55,0.23c0.13,0.85,0.07,1.96-0.73,3.21
			c-0.11,0.18-0.25,0.36-0.42,0.53c0.34-1.19,0.12-2.6-0.29-3.66c-0.84,0.04-1.7,0.08-2.58,0.12c0.24,1,0.32,2.38-0.63,4.01
			c-0.12,0.21-0.28,0.42-0.46,0.64c0.38-1.54-0.06-3.36-0.68-4.56c-0.96,0.06-1.94,0.13-2.93,0.21c0.34,1.1,0.46,2.56-0.29,4.36
			c-0.11,0.26-0.26,0.54-0.45,0.81l0,0c0.2-1.73-0.47-3.62-1.3-4.95c-1.08,0.14-2.18,0.31-3.29,0.55c0.6,1.14,1.07,2.7,0.76,4.85
			c-0.04,0.3-0.14,0.65-0.25,0.99c-0.24-2.03-1.45-4.05-2.66-5.32c-1.18,0.32-2.36,0.72-3.52,1.21c0.94,0.99,1.87,2.48,2.1,4.8
			c0.03,0.34,0.03,0.71-0.01,1.1c-0.82-2.11-2.75-3.92-4.4-4.85c-1.12,0.57-2.15,1.22-3.1,1.88c1.24,0.77,2.62,2.04,3.46,4.44
			c0.12,0.32,0.3,1.02,0.37,1.43c-1.38-2.02-3.99-3.61-5.93-4.16c-1,0.89-1.88,1.8-2.63,2.7c1.89,1.02,4.4,3.12,5.43,5.76v0.01
			c-1.79-1.73-5.13-2.77-7.53-2.96c-1.18,1.81-1.78,3.16-1.87,3.36c3.58,0.96,5.34,2.17,6.21,3.14v0.01
			c0.76,0.75,0.56,1.66,0.56,1.66c-0.11,0.53-0.2,1.05-0.27,1.56c-0.52,3.43-0.23,6.12,0.54,8.26C9.8,51.28,5.07,42.84,5.07,33.3
			c0-15.6,12.64-28.24,28.24-28.24c15.59,0,28.23,12.65,28.23,28.24S48.9,61.55,33.31,61.55 M33.34,1.52
			c-17.62,0-31.91,14.29-31.91,31.92s14.29,31.92,31.91,31.92s31.91-14.29,31.91-31.92S50.96,1.52,33.34,1.52"/>
	</g>
	<g>
		<defs>
			<rect id="SVGID_9_" x="1.43" y="1.52" width="145.38" height="63.84"/>
		</defs>
		<clipPath id="SVGID_10_">
			<use xlink:href="#SVGID_9_"  style="overflow:visible;"/>
		</clipPath>
		<path class="st4" d="M131.26,26.87c0-1.01,0.75-1.8,1.68-1.8s1.68,0.78,1.68,1.8c0,1-0.75,1.79-1.68,1.79
			C132.01,28.65,131.26,27.87,131.26,26.87 M131.64,26.88c0,0.8,0.6,1.4,1.31,1.4c0.71,0,1.31-0.6,1.31-1.4
			c0-0.83-0.6-1.43-1.31-1.43C132.24,25.44,131.64,26.04,131.64,26.88 M132.32,27.36h0.16v-1.04h-0.16v-0.31h0.63
			c0.35,0,0.63,0.16,0.63,0.5c0,0.21-0.12,0.37-0.27,0.45l0.18,0.39h0.17v0.31h-0.4l-0.26-0.6h-0.19v0.29h0.16v0.31h-0.65
			L132.32,27.36L132.32,27.36z M132.94,26.77c0.19,0,0.28-0.08,0.28-0.22c0-0.15-0.1-0.22-0.29-0.22h-0.12v0.44
			C132.81,26.77,132.94,26.77,132.94,26.77z"/>
	</g>
</g>
</svg>
