<svg id="Layer_1" data-name="Layer 1" xmlns="http://www.w3.org/2000/svg" xmlns:xlink="http://www.w3.org/1999/xlink" viewBox="0 0 1024 765"><defs><style>.cls-1{fill:none;}.cls-2{clip-path:url(#clip-path);}.cls-3{fill:#444344;}</style><clipPath id="clip-path"><rect class="cls-1" y="382.96" width="1024" height="382.04"/></clipPath></defs><title>SFF1693_Foodservice Trade Presenter_Texture_BG</title><g class="cls-2"><path class="cls-3" d="M1024,765V384.46c-3.37-1.19-14.7-1.35-16.73-.78-1.26.35-8-1.2-9.8-.56-2.8,1-17.75,2.46-19.58,2.33-4-.28-7.7.71-11.46,1.14-4.58.52-9.35,1.05-13.64,3-2.91,1.34-5.83,1.74-8.85.2-1.92-1-4.45-1.27-6.05-.39a7.74,7.74,0,0,1-5.72.69c-4.88-1.15-9.43.36-13.87,1.43-5,1.19-23.82.88-30.23,2.15-7.47,1.39-37.16.05-38.48,4a4.86,4.86,0,0,1-4.89,3.27c-4.55-.12-8.92,1.37-13.51,1-3.63-.3-18,3.69-21.84,3.91l-5,.62c-6.29-.39-12.46-.43-18.09-3.18-1.68-.82-2.94-.17-4.47,0-2.87.37-5.73,1.76-8.66.83-2.66-.84-5.2-2.37-6.33,1.78-.27,1-1.65.26-2.58.22-7.39-.34-14.37.14-20.39,5.38-2.14,1.86-5.83,3.8-9.24,2.76-2.76-.84-5,0-7.54.34-7.6,1.05-15.08,4.32-22.9,1.44a2.5,2.5,0,0,0-2.74.55c-1.18,1.14-2.55.81-3.91.44-3-.83-5.53.47-8.29,1.31-4.6,1.42-9.13,3.11-14.33,2.2-5.68-1-11.43-1.86-17.37.15-2.62.89-5.8,1.51-8.76.37-3.68-1.42-6.78-.51-9.91,1.76,0,0-3.68,1.89-6.33,3.18-4.21.56-8.29.84-12.46,2.11-4.45,1.36-9.67,1.75-13.78-.6-5-2.86-10.51-3.15-15.88-4.06-4.07-.69-17.63-4.61-20.29-4.35-8,.79-16.16-4.06-24.17.31-.24.13-.76-.25-1.14-.23-6,.33-12.15,0-17.92,1.24-5.1,1.08-10,2.3-15.3,2-1.14,0-18.71-.22-23.15.63-2,.39-18.24-2.76-21.1-4.72a28.76,28.76,0,0,0-16.83-4.58c-4.18.11-8.81-.1-12.73.85-4.39,1.06-10.08-1.57-13.37,3.37-.38.58-2.25.57-3.37.45-3-.32-5.7-1-7.9-3.24a6.5,6.5,0,0,0-6.75-2c-4,.9-8.47.46-12.73.68-4.74.25-9.6.08-13.69,2.55-3.29,2-6.85,2.24-10.35,2-13.37-1-26.75-1.87-40-3.75a3.86,3.86,0,0,0-2.3-.06c-4.85,2.49-10.35,2-15.51,3a10.27,10.27,0,0,1-6.7-.52,22.28,22.28,0,0,0-7.39-1.45c-4-.37-13.42-3.5-14.19-3.63-2.33-.4-12.24-.93-14.36,1-1.76,1.58-13.64,3.58-16.72,2.92-3.68-.8-7.33,1.1-10.94.34-4.23-.89-21.48,1.4-24.73,1.12-3.92-.33-7.73-2.25-11.54-1.47-3.63.75-7.2-.06-10.91.82L0,395.9V765Z"/></g></svg>