<svg id="Layer_1" data-name="Layer 1" xmlns="http://www.w3.org/2000/svg" xmlns:xlink="http://www.w3.org/1999/xlink" viewBox="0 0 1024 765"><defs><style>.cls-1{fill:none;}.cls-2{clip-path:url(#clip-path);}.cls-3{fill:#69b445;}</style><clipPath id="clip-path"><rect class="cls-1" y="231.26" width="1024" height="533.74"/></clipPath></defs><title>SFF1693_Foodservice Trade Presenter_Texture_BG</title><g class="cls-2"><path class="cls-3" d="M1024,231.26c-2.6,1.25-5.12,2.65-8,2.75a29.71,29.71,0,0,0-8.78,1.74c-3,1-47.42.16-52.79,1.33-2.27.49-4.53,1.14-6,2.51-3,2.92-6.77,3.42-10.55,3.57a8,8,0,0,0-4.61,1.63c-3.76,2.75-20.78,3.57-24.85,2.77-4.75-.94-9.78-2-14.67,1.06-2.7,1.67-5.86,2.5-8.64,4.45-2.23,1.55-6,1.51-9,2.29-3.46.88-51.87,21.39-54.57,21.11-1.29-.13-2.51.61-3.76,1-5.59,2-11.46,2.38-17.34,2.56-1.84.05-13.55.88-16.45,2s-6.5,1-9.76,1.62a11.71,11.71,0,0,0-5.4,2.11A13.35,13.35,0,0,1,758,288.71c-2.93-.38-26.09,2.73-27.51,3.46-5.59,2.89-36.18,27.25-39.19,27.27-3.81,0-22.59,3.73-22.94,3.58-2.73-1.13-11.33,1.93-13,2.06-2.39.19-21.56,2.15-26.51,3.67-3.39,1-6.91,2.23-10.67,1.73a8.54,8.54,0,0,0-4.18.66c-4.72,2.31-10.1,2.38-14.9,4.36-2.43-1.42-12.1,1.46-13.49,4.13-1,1.88-19.36,4.47-23.88,7.27a16.29,16.29,0,0,1-2.85,1.53,83.17,83.17,0,0,1-9,3,32.18,32.18,0,0,0-7.77,2.74c-4.58,1.74-8.35,2.13-12.43.37-2-.84-3.25-.77-4.26.94-.79,1.34-1.61,1.23-3.12,1.35-2,.17-4.47-.07-6.34,2-1.2,1.33-3.62,1.76-5.71,1.6a12.91,12.91,0,0,0-9.17,2.68c-.64.49-8.21,1.12-8.74,1-3.62-.81-16.86-2.65-19.13.5a2.47,2.47,0,0,1-2.74.88c-4.52-1.49-3,1.31-7.23,1.37-4.88-1.75-11.38-3.69-13.79-2.64-1.85.8-3.86.55-5.78.87-.65.11-17-2.6-19.42-3.21a21.87,21.87,0,0,0-10.84-.06,8.2,8.2,0,0,1-5.72-.23,6.62,6.62,0,0,0-2.83-.49c-2.84-.06-4.86-1.34-6.82-3.17-1.43-1.33-3.59-1.34-5.46-1.73-2.08-.43-14.41-4.06-15.58-5.8-.33-.48-1.24-.6-1.85-1-1.84-1.29-10.77-3.49-14.62-3.16a6.71,6.71,0,0,1-3.89-.49c-3-1.75-6.37-1.46-9.63-1.63-1.94-.1-12.84-3-15.86-2.7-5.19.56-15.49-2.92-18-3.22-1.69-.21-11.16.72-13.12-2.11-1.06-1.53-2.78-2.52-3.68-4.26-.61-1.19-26.28-6.45-28.84-8.61-1.51-1.27-9-1.93-10.68-2.46-2.91-.9-6-1.21-8.77-2.62a2.92,2.92,0,0,0-2.12-.21c-2.87,1.22-5.86.14-8.77.49a5.53,5.53,0,0,1-2.79-.58c-1.26-.56-8.44-3.75-10.17-3.77-2.27,0-11.38-2.55-12.8-3.46-2.66-1.69-16.08-2-18.15-1.83-.72.06-12.64-2-15.39-3.43s-17-5-20.27-6.71a3.4,3.4,0,0,0-2.45-.52c-.61.14-16.6-1.21-20.43-2.65-1.5-.56-9.25-1.17-11-1.91l-1-.16a21.81,21.81,0,0,0-10.7,1.52,8.12,8.12,0,0,1-5.67.61,6.51,6.51,0,0,0-2.87-.07c-2.81.35-5-.62-7.24-2.14-1.62-1.11-3.74-.81-5.66-.92-2.12-.12-14.85-1.91-16.28-3.46-.4-.43-1.32-.42-2-.75-2-1-11.18-1.89-14.92-1a6.55,6.55,0,0,1-3.91.09c-3.29-1.29-6.51-.51-9.75-.21-1.94.19-13.15-1.12-16.06-.35-5,1.32-15.75-.62-18.24-.57-1.17,0-5.82,1.12-9.42,1V525l.61.37V765H1023.39V415.49l.61-.15Z"/></g></svg>