<svg id="Layer_1" data-name="Layer 1" xmlns="http://www.w3.org/2000/svg" xmlns:xlink="http://www.w3.org/1999/xlink" viewBox="0 0 1024 765"><defs><style>.cls-1{fill:none;}.cls-2{clip-path:url(#clip-path);}.cls-3{fill:#47a148;}</style><clipPath id="clip-path"><rect class="cls-1" y="405.8" width="1024" height="359.2"/></clipPath></defs><title>SFF1693_Foodservice Trade Presenter_Texture_BG</title><g class="cls-2"><path class="cls-3" d="M1024,765V406.88a15.56,15.56,0,0,1-4.18.15c-2.56-.54-5.09.79-7.6.28-2.93-.6-14.9,1.05-17.15.87-2.73-.21-5.38-1.53-8-1s-5,0-7.57.61c-2.38.58-5.17.4-7.73.6-2.21.16-4,0-5.72-1.14s-13.51-1.43-15.46-.88c-1.12.32-7.1-1-8.71-.44-2.49.89-15.77,2.26-17.4,2.15-3.54-.23-6.84.67-10.17,1.07-4.07.49-8.31,1-12.12,2.74-2.58,1.21-5.17,1.58-7.86.22-1.71-.86-4-1.11-5.38-.32a6.91,6.91,0,0,1-5.09.64c-4.34-1-8.38.37-12.32,1.34-4.42,1.08-21.16.89-26.85,2-6.64,1.27-33,.22-34.19,3.7a4.32,4.32,0,0,1-4.34,2.92c-4-.08-7.92,1.26-12,1-3.23-.25-16,3.36-19.39,3.58l-4.43.57c-5.59-.32-11.08-.33-16.09-2.74-1.5-.73-2.61-.14-4,0-2.56.35-5.09,1.6-7.7.79-2.37-.74-4.63-2.09-5.62,1.61-.23.88-1.46.24-2.29.2-6.57-.27-12.77.19-18.1,4.88-1.89,1.67-5.16,3.41-8.2,2.5-2.46-.74-4.46,0-6.7.34-6.74,1-13.38,3.91-20.35,1.38a2.22,2.22,0,0,0-2.43.5c-1,1-2.27.74-3.47.41-2.67-.72-4.91.44-7.37,1.21-4.08,1.28-8.1,2.8-12.72,2-5-.86-10.18-1.59-15.45.22-2.32.8-5.14,1.37-7.78.37-3.28-1.24-6-.42-8.8,1.61,0,0-3.26,1.7-5.61,2.85-3.74.52-7.36.79-11.07,1.94-3.94,1.23-8.58,1.6-12.24-.47-4.44-2.51-9.36-2.75-14.14-3.53-3.63-.59-15.69-4-18.05-3.77-7.16.73-14.39-3.53-21.49.38-.22.12-.68-.22-1-.2-5.32.32-10.79.08-15.92,1.19-4.53,1-8.91,2.09-13.59,1.89-1,0-16.63-.11-20.57.67-1.79.35-16.23-2.37-18.78-4.1a25.56,25.56,0,0,0-15-4c-3.72.11-7.83-.05-11.32.81-3.89,1-9-1.34-11.86,3.07-.34.51-2,.51-3,.41-2.64-.27-5.06-.86-7-2.84a5.75,5.75,0,0,0-6-1.74c-3.57.81-7.53.45-11.31.66-4.22.25-8.54.11-12.16,2.34a15,15,0,0,1-9.19,1.8c-11.89-.8-23.79-1.54-35.58-3.15-.71-.09-1.4-.37-2,0-4.3,2.24-9.19,1.85-13.78,2.78a9.24,9.24,0,0,1-6-.43,19.82,19.82,0,0,0-6.57-1.26c-3.59-.31-11.95-3.05-12.63-3.16-2.08-.35-10.88-.77-12.76.93-1.56,1.41-12.11,3.24-14.85,2.67-3.28-.69-6.51,1-9.72.35-3.77-.77-19.09,1.34-22,1.12-3.49-.28-6.88-2-10.26-1.25-3.23.67-6.41,0-9.7.77L0,416.3V765Z"/></g></svg>