<svg id="Layer_10" data-name="Layer 10" xmlns="http://www.w3.org/2000/svg" xmlns:xlink="http://www.w3.org/1999/xlink" viewBox="0 0 175.14 175.14"><defs><style>.cls-1,.cls-3{fill:none;}.cls-2{fill:url(#linear-gradient);}.cls-3{stroke:#e5007e;stroke-miterlimit:10;stroke-width:0.53px;}.cls-4{fill:url(#linear-gradient-2);}.cls-5{fill:url(#linear-gradient-3);}.cls-6{fill:#1d1d1b;}.cls-7{clip-path:url(#clip-path);}</style><linearGradient id="linear-gradient" x1="58.77" y1="-7.56" x2="114.74" y2="177.29" gradientUnits="userSpaceOnUse"><stop offset="0" stop-color="#979297"/><stop offset="0.06" stop-color="#9e999e"/><stop offset="0.14" stop-color="#b0acb0"/><stop offset="0.24" stop-color="#ceccce"/><stop offset="0.34" stop-color="#f7f7f7"/><stop offset="0.55" stop-color="#fff"/><stop offset="0.74" stop-color="#d9d9d9"/><stop offset="0.79" stop-color="#d0cfd0"/><stop offset="0.88" stop-color="#b7b5b6"/><stop offset="0.99" stop-color="#8f8a8d"/><stop offset="1" stop-color="#8b8689"/></linearGradient><linearGradient id="linear-gradient-2" x1="82.6" y1="19.47" x2="132.68" y2="196.95" gradientUnits="userSpaceOnUse"><stop offset="0" stop-color="#6f6f6e"/><stop offset="0.06" stop-color="#797978"/><stop offset="0.17" stop-color="#939392"/><stop offset="0.3" stop-color="#bebebd"/><stop offset="0.32" stop-color="#c6c6c5"/><stop offset="0.54" stop-color="#ececec"/><stop offset="0.62" stop-color="#e2e2e2"/><stop offset="0.74" stop-color="#c9c9c8"/><stop offset="0.75" stop-color="#c6c6c5"/><stop offset="1" stop-color="#6f6f6e"/></linearGradient><linearGradient id="linear-gradient-3" x1="82.6" y1="19.47" x2="132.68" y2="196.95" xlink:href="#linear-gradient-2"/><clipPath id="clip-path" transform="translate(-19.91 -20.09)"><rect class="cls-1" x="32.8" y="27.14" width="145.24" height="158.83"/></clipPath></defs><title>ara</title><circle class="cls-2" cx="87.57" cy="87.57" r="85.19"/><circle class="cls-3" cx="87.57" cy="87.57" r="85.62"/><path class="cls-4" d="M193.1,107.66h-1.95A83.67,83.67,0,1,1,166.64,48.5a83.36,83.36,0,0,1,24.51,59.16h3.9a87.57,87.57,0,1,0-87.57,87.57,87.57,87.57,0,0,0,87.57-87.57Z" transform="translate(-19.91 -20.09)"/><path class="cls-5" d="M125.79,106.17a89.91,89.91,0,0,0,13.79-5h0c-16,13.72-31.61,16.91-34.74,42.13-6.06-1.68-11.71-3.38-21.49-1.53a26.56,26.56,0,0,1,.91-6.9c4.84-2.21,14.84-1.87,19.92-.18-.88-.63-1.74-1.16-2.58-1.66-6.14-3.7-10.82-4.57-14.51-4.32a43.43,43.43,0,0,1,4.56-6.3,32.75,32.75,0,0,1,16,3.88c-.63-.73-1.27-1.38-1.88-2-3.7-3.67-6.91-5.45-9.77-6.29a40.23,40.23,0,0,1,5.47-3.95c4.48.34,9.68,3,12.17,4.64a29.39,29.39,0,0,0-3.06-3.7,20.45,20.45,0,0,0-4.17-3.33c1.58-.58,3.11-1.08,4.61-1.51l2.62-.73a21.28,21.28,0,0,1,6.37,4.16,16,16,0,0,0-2.29-4,9,9,0,0,0-1-1c1.84-.53,3.62-1,4.47-1.23,1.1-.26,2.16-.55,3.16-.83a11.41,11.41,0,0,1,2.09,2.72,7.15,7.15,0,0,0-.66-3.12m-18.38,61A59.81,59.81,0,1,0,73,156.23c-1.64-4.51-2.24-10.22-1.14-17.47.15-1.08.34-2.17.58-3.3A4,4,0,0,0,71.25,132h0c-1.84-2.06-5.57-4.63-13.15-6.65a56,56,0,0,1,4-7.12c5.08.4,12.15,2.59,15.94,6.25h0c-2.18-5.58-7.48-10-11.49-12.18a54.93,54.93,0,0,1,5.57-5.71c4.11,1.18,9.63,4.54,12.56,8.81a21.77,21.77,0,0,0-.78-3,17.18,17.18,0,0,0-7.32-9.39,54,54,0,0,1,6.55-4c3.5,2,7.59,5.79,9.32,10.27a15.28,15.28,0,0,0,0-2.34A16.59,16.59,0,0,0,88,96.71a59.33,59.33,0,0,1,7.46-2.57,21.1,21.1,0,0,1,5.62,11.27,11.7,11.7,0,0,0,.54-2.11A16.07,16.07,0,0,0,100,93.05c2.34-.5,4.67-.87,7-1.16a17.22,17.22,0,0,1,2.75,10.48h0a11.1,11.1,0,0,0,1-1.73,13.25,13.25,0,0,0,.6-9.22c2.1-.18,4.18-.33,6.2-.45a14.84,14.84,0,0,1,1.44,9.66,9.34,9.34,0,0,0,1-1.35,10.94,10.94,0,0,0,1.32-8.47l5.46-.27a12.91,12.91,0,0,1,.61,7.75,6.56,6.56,0,0,0,.9-1.13,9.49,9.49,0,0,0,1.53-6.78c1.89-.13,3.68-.28,5.4-.49a10.45,10.45,0,0,1-.28,5.78,6.91,6.91,0,0,0,.85-.88,8.32,8.32,0,0,0,1.84-5.26,32.08,32.08,0,0,0,4.05-.9c3.22-1.13,4.34-2.88,4.89-4.81a8.32,8.32,0,0,0,.25-1.69,9.49,9.49,0,0,0-.09-2,5.43,5.43,0,0,0-2.49-3.9,5.48,5.48,0,0,1,.51,2.29,5.35,5.35,0,0,1-10.69,0v0a5.21,5.21,0,0,1,.44-2A7,7,0,0,1,137,73.15a8.71,8.71,0,0,1,4.25-1.38h1.14c4,.29,8.43,3.41,9.07,9.46a15.37,15.37,0,0,1-2.16,9.06,20,20,0,0,1-7.62,7.5c-3.06,1.73-9.73,4.38-20,6.92-2.16.55-10.21,2.81-10.21,2.81-9,2.48-19.41,7.41-27.06,18.64-2.4,3.66-6.64,9.56-4.84,20.31,1.38,8.3,7.5,17.94,22.87,20.28a43.16,43.16,0,0,0,5,.4m.07-123.08A63.6,63.6,0,1,1,43.9,107.66a63.58,63.58,0,0,1,63.58-63.59" transform="translate(-19.91 -20.09)"/><polygon class="cls-6" points="71.05 41 107.78 41 107.78 44.68 67.37 44.68 71.05 41"/><polygon class="cls-6" points="104.1 132.44 67.37 132.44 67.37 128.76 107.78 128.76 104.1 132.44"/><g class="cls-7"><path d="M50.84,57.89c-.11-.11-.31-.11-.59,0a2.6,2.6,0,0,0-.83.6,2.36,2.36,0,0,0-.51.92,12.29,12.29,0,0,0-.4,1.84c.48-.53.72-.79,1.2-1.3,1-1.11,1.42-1.78,1.13-2.07m2.23,1a65.8,65.8,0,0,0-4.8,5.17,2.29,2.29,0,0,1,.95,2.07,5.1,5.1,0,0,1-1.16,2.32,5,5,0,0,1-1.91,1.65,1.71,1.71,0,0,1-1.76-.17,3.84,3.84,0,0,1-1.11-1.13,9.64,9.64,0,0,1-.9-2.2l.46-.19A10.91,10.91,0,0,0,43.52,68a2.2,2.2,0,0,0,.65.74,1.21,1.21,0,0,0,1.3,0A4.24,4.24,0,0,0,47,67.43a4.64,4.64,0,0,0,.93-1.84,1.26,1.26,0,0,0-.28-1.3,2.07,2.07,0,0,0-.67-.37,8.74,8.74,0,0,0-1.32-.27c-.36-.61-.53-.91-.88-1.52.49.07.78.12.85.14a3.11,3.11,0,0,1,.71.24A3.64,3.64,0,0,1,47,63a1.73,1.73,0,0,0,.37-.74s0-.3.12-.8c.18-1.15.28-1.72.5-2.88a7.92,7.92,0,0,1,.24-1,2.07,2.07,0,0,1,.44-.71,1.56,1.56,0,0,1,1.2-.52,2.41,2.41,0,0,1,1.55.85l1.64,1.68" transform="translate(-19.91 -20.09)"/><path d="M58.68,51c-.11-.14-.32-.17-.64-.07a2.58,2.58,0,0,0-.77.43,2.3,2.3,0,0,0-.61.83,12.36,12.36,0,0,0-.61,1.74c.53-.45.79-.67,1.33-1.1,1.11-.91,1.56-1.5,1.3-1.83m2.11,1.28a62.78,62.78,0,0,0-5.26,4.32,1.17,1.17,0,0,1-.69.33,1.66,1.66,0,0,1-.82-.2,2.76,2.76,0,0,1-.08,1.09,1.92,1.92,0,0,1-.54.76l-.66.66L51.57,58l.68-.68a1.73,1.73,0,0,0,.6-1.07,2.3,2.3,0,0,0-.53-1.46l.38-.27.22.29.42.49a.72.72,0,0,0,.51.27.73.73,0,0,0,.51-.22,1.48,1.48,0,0,0,.37-.49A8.81,8.81,0,0,0,55,54c.31-1.1.48-1.65.83-2.74.1-.33.19-.56.25-.71a2,2,0,0,1,.58-.81A1.53,1.53,0,0,1,58,49.34a2.39,2.39,0,0,1,1.43,1l1.41,1.88" transform="translate(-19.91 -20.09)"/><path d="M60.66,44.38c0,.63,0,.95.08,1.59L59,46.26c0-.64-.07-1-.11-1.61.7-.12,1.06-.17,1.76-.27m5.73,4.06a63.61,63.61,0,0,0-6,4.09l-1-1.33c1.47-1.12,2.22-1.66,3.75-2.68a5.52,5.52,0,0,0-1.82-.08,2.41,2.41,0,0,0-1.13.43,1.81,1.81,0,0,0-.25.19l-.29.3a3.14,3.14,0,0,1,0-1.4,1.58,1.58,0,0,1,.63-.89,1.8,1.8,0,0,1,.81-.32,4.14,4.14,0,0,1,1.11,0c.35,0,.86.14,1.52.29a4.8,4.8,0,0,0,1,.16,2.78,2.78,0,0,0,.78-.19l.87,1.42" transform="translate(-19.91 -20.09)"/><path d="M65.59,40.68a.48.48,0,0,0-.27-.21.4.4,0,0,0-.29,0,.13.13,0,0,0-.07.09.13.13,0,0,0,0,.09.39.39,0,0,0,.29.16l.36,0a.89.89,0,0,0,0-.17m.78.35.09.2a1.72,1.72,0,0,0,.07.21h-.64l-.18.61a1.43,1.43,0,0,1-.5.8l-.43.25a4.3,4.3,0,0,0,.47-.85,4.37,4.37,0,0,0,.3-.8,1.16,1.16,0,0,1-.4-.06.48.48,0,0,1-.29-.23,1,1,0,0,1-.13-.75.78.78,0,0,1,.35-.56.43.43,0,0,1,.37,0,.62.62,0,0,1,.33.29.78.78,0,0,1,.08.23,4.87,4.87,0,0,1,.08.49l.27,0a.25.25,0,0,1,.16.13" transform="translate(-19.91 -20.09)"/><path d="M69.11,44.73a1,1,0,0,0-.47-.28.78.78,0,0,0-.65-.06c-.14.08-.18.31-.1.69l.53-.09a3.76,3.76,0,0,0,.6-.12c.09,0,.11-.09.09-.14M71,45.8a6.5,6.5,0,0,1-1.48.51,9.63,9.63,0,0,1-1.47.23,1.66,1.66,0,0,1-.42,1.05,2.4,2.4,0,0,1-.57.43L66,48.67l-.88-1.41,1.08-.67a2.51,2.51,0,0,0,.72-.58,1,1,0,0,0,.23-.82,3.72,3.72,0,0,1,.19-1.58,1.52,1.52,0,0,1,.56-.82c.2-.1.59,0,1.17.44a4,4,0,0,1,1.31,1.39L71,45.8" transform="translate(-19.91 -20.09)"/><path d="M100.93,34.86a3.35,3.35,0,0,0-.43-.76.47.47,0,0,0-.4-.16.27.27,0,0,0-.2.11.31.31,0,0,0-.08.23c0,.13.12.24.31.33a3,3,0,0,0,.8.25m.17-4.79-.7,1.42c-.63-.25-1-.38-1.6-.62.27-.58.4-.87.68-1.44.66.25,1,.37,1.62.64m1,7.16-.81.05c-.72,0-1.52.14-2.42.26q-.81.1-2.1.33l-1.39.26A3.18,3.18,0,0,1,93.4,38a1.6,1.6,0,0,1-.78-1.21,4.83,4.83,0,0,1-.08-1.22,12.33,12.33,0,0,1,.36-1.77l.45.11a4.45,4.45,0,0,0-.2,1.59.94.94,0,0,0,.66.8,4.34,4.34,0,0,0,2,0c.61-.1,1.24-.23,1.83-.32s1.18-.17,1.73-.22A1,1,0,0,1,99,35.5a.83.83,0,0,1-.14-.42,3.13,3.13,0,0,1,.39-1.79,1.65,1.65,0,0,1,1.26-1c.46,0,.82.25,1.06.84a8.33,8.33,0,0,1,.43,2.49c0,.67.05,1,.09,1.66" transform="translate(-19.91 -20.09)"/><path d="M104.36,27.65a1.45,1.45,0,0,1-.16.76.61.61,0,0,1-.53.35.85.85,0,0,1-.23,0,1,1,0,0,1-.23-.11A2.31,2.31,0,0,1,103,29a.69.69,0,0,1-.45.22.51.51,0,0,1-.43-.15.77.77,0,0,1-.17-.48.82.82,0,0,1,0-.31l.12-.36.14-.06a1.1,1.1,0,0,1,0,.16v.18a.48.48,0,0,0,.07.24.22.22,0,0,0,.19.1.54.54,0,0,0,.46-.36,3.81,3.81,0,0,0,.18-.63l.14,0a1.78,1.78,0,0,0,.1.36.27.27,0,0,0,.28.18c.18,0,.31-.11.41-.32a1.11,1.11,0,0,0,.1-.51l.15,0c0,.08,0,.16.06.26a1.21,1.21,0,0,1,0,.25" transform="translate(-19.91 -20.09)"/><path d="M105.39,30.45c-.31.55-.46.83-.76,1.38l-1.57-.69.75-1.42,1.58.73m.06,6.66c-1.53,0-2.29,0-3.82.15,0-.67-.07-1-.11-1.66,1.31-.09,2-.12,3.28-.15a1.78,1.78,0,0,0-.27-.69,2.94,2.94,0,0,0-.46-.54l.47-1.47a2.83,2.83,0,0,1,.69,1.07,6.2,6.2,0,0,1,.2,1.69c0,.64,0,1,0,1.6" transform="translate(-19.91 -20.09)"/><path d="M114.48,35.19c0-.18-.12-.34-.41-.48a2.3,2.3,0,0,0-.82-.22,2.12,2.12,0,0,0-1,.19,11.32,11.32,0,0,0-1.56.86c.66,0,1,.05,1.64.1,1.36.1,2.07,0,2.11-.45m.62,2.37c-2.58-.28-3.87-.37-6.46-.44a1.06,1.06,0,0,1-.69-.23,1.7,1.7,0,0,1-.44-.71,2.64,2.64,0,0,1-.75.73,1.8,1.8,0,0,1-.86.18l-.88,0c0-.66,0-1,0-1.66l.89,0a1.52,1.52,0,0,0,1.1-.36,2.35,2.35,0,0,0,.59-1.42l.43.06a2.87,2.87,0,0,0,0,.36c0,.26,0,.48,0,.64a.78.78,0,0,0,.18.55.69.69,0,0,0,.49.2,1.32,1.32,0,0,0,.57-.11,8.62,8.62,0,0,0,.84-.48c.93-.58,1.4-.87,2.36-1.43.28-.17.5-.28.64-.35a1.92,1.92,0,0,1,.93-.19,1.43,1.43,0,0,1,1.11.59,2.51,2.51,0,0,1,.31,1.74c-.1.93-.15,1.4-.26,2.33" transform="translate(-19.91 -20.09)"/><path d="M119.16,30.93a.43.43,0,0,0-.08-.32.31.31,0,0,0-.22-.17.13.13,0,0,0-.11,0s0,.05,0,.08a.42.42,0,0,0,.12.3l.27.25a.47.47,0,0,0,.07-.16m.39.76a1.6,1.6,0,0,1,0,.21c0,.07,0,.14-.07.21l-.5-.38-.51.37a1.36,1.36,0,0,1-.87.33l-.47-.06A5,5,0,0,0,118,32a5,5,0,0,0,.71-.45,1.41,1.41,0,0,1-.27-.29.53.53,0,0,1-.08-.36,1,1,0,0,1,.35-.67.75.75,0,0,1,.61-.23.43.43,0,0,1,.29.22.63.63,0,0,1,.07.43.88.88,0,0,1-.07.23c0,.08-.12.23-.24.43l.19.2a.23.23,0,0,1,0,.2" transform="translate(-19.91 -20.09)"/><path d="M119.43,36.28a1,1,0,0,0-.19-.5c-.16-.28-.32-.43-.47-.45s-.32.14-.49.49l.46.25.54.27q.14,0,.15-.06m.83,2a5.62,5.62,0,0,1-1.46-.5,8.2,8.2,0,0,1-1.26-.71,1.67,1.67,0,0,1-1,.57,2.61,2.61,0,0,1-.69,0l-1.2-.14c.07-.66.1-1,.17-1.65l1.23.14a2.63,2.63,0,0,0,.91,0,1,1,0,0,0,.66-.5,3.78,3.78,0,0,1,1.11-1.14,1.42,1.42,0,0,1,.92-.3c.22,0,.44.39.64,1.06a4,4,0,0,1,.17,1.89c-.09.53-.14.79-.23,1.31" transform="translate(-19.91 -20.09)"/><path d="M151.72,51.68l-.44-.31a1.49,1.49,0,0,0-.33-.19q-.13-.06-.18,0s0,.12.17.3.14.35,0,.48a4.2,4.2,0,0,1-.56.6,4.73,4.73,0,0,1-.72.53,2,2,0,0,1-1,.12,8,8,0,0,1-1.61-.28,6.16,6.16,0,0,1-1.66-.72,2.11,2.11,0,0,1-1-1.16,1.74,1.74,0,0,1,.26-1.41,5.19,5.19,0,0,1,1.06-1.32A9.33,9.33,0,0,1,147.92,47l.17.41a9.71,9.71,0,0,0-1.52.89,3.18,3.18,0,0,0-.78.87,1.08,1.08,0,0,0-.15.94,1.46,1.46,0,0,0,.67.81,7.22,7.22,0,0,0,1.53.7,7.12,7.12,0,0,0,1.45.36c.43.06.69,0,.77-.07s-.06-.12-.25-.26l-.51-.37a5.06,5.06,0,0,1-.68-.52.21.21,0,0,1,0-.29,2,2,0,0,1,.49-.52,1.69,1.69,0,0,1,.55-.3,3.77,3.77,0,0,1,1.3-.13,2.35,2.35,0,0,1,1.18.36l.59.43-1,1.34" transform="translate(-19.91 -20.09)"/><path d="M153.78,53.25c-1-.75-1.44-1.12-2.42-1.83l1-1.35c1,.72,1.5,1.1,2.48,1.86l-1,1.32" transform="translate(-19.91 -20.09)"/><path d="M155.8,54.89c-.93-.79-1.41-1.17-2.37-1.92l1-1.32c1,.76,1.46,1.15,2.42,2l-1.07,1.28" transform="translate(-19.91 -20.09)"/><path d="M157.78,56.61c-.92-.83-1.38-1.23-2.32-2l1.06-1.28c1,.79,1.44,1.2,2.37,2l-1.11,1.24" transform="translate(-19.91 -20.09)"/><path d="M162.06,57.15a2.64,2.64,0,0,0,.18-1,.86.86,0,0,0-.23-.63.37.37,0,0,0-.23-.1.23.23,0,0,0-.2.06c-.12.13-.13.36,0,.68a3,3,0,0,0,.52,1m3.43-3.38-1.35.33-.45-1.05-1.1.32c-.2-.53-.31-.79-.52-1.32.56-.17.85-.25,1.41-.4.17.42.25.63.41,1.05l1.08-.31c.21.55.32.82.52,1.38m-4.58,5.82c-1.36-1.36-2-2-3.47-3.28l1.11-1.25c.35.32.53.47.88.8a5.28,5.28,0,0,1,.41.41c.32.36.68.79,1.09,1.27a3.38,3.38,0,0,1-.63-1.35,1.19,1.19,0,0,1,.36-1,3,3,0,0,1,1.52-.92,1.33,1.33,0,0,1,1.33.21c.34.33.39.88.13,1.63a5.72,5.72,0,0,1-1.45,2.19l-1.28,1.27" transform="translate(-19.91 -20.09)"/><path d="M168.19,57.78l-1.37.25c-.15-.43-.23-.64-.39-1.07l-1.12.25c-.17-.54-.26-.81-.44-1.35l1.43-.32.35,1.07,1.09-.24c.19.56.28.84.45,1.41m-4.77,4.47c-1.11-1.23-1.68-1.83-2.84-3l1.18-1.18c1,1,1.48,1.5,2.44,2.55a1.78,1.78,0,0,0,.33-.68,3.58,3.58,0,0,0,.08-.73l1.44-.58a2.86,2.86,0,0,1-.32,1.26,5.59,5.59,0,0,1-1.13,1.27c-.47.43-.7.65-1.18,1.07" transform="translate(-19.91 -20.09)"/><path d="M171,60.87l-1.61.21c-.2-.71-.3-1.06-.52-1.76.65-.11,1-.15,1.62-.24.21.71.31,1.07.51,1.79m-5.18,4.2c-1.06-1.3-1.6-1.94-2.72-3.16l1.23-1.12c.95,1.05,1.42,1.59,2.34,2.69a1.84,1.84,0,0,0,.37-.66,6.22,6.22,0,0,0,.11-.73l1.47-.51a2.79,2.79,0,0,1-.38,1.25,5.6,5.6,0,0,1-1.18,1.22l-1.24,1" transform="translate(-19.91 -20.09)"/><path d="M173.56,63.43a.44.44,0,0,0,.16-.3.36.36,0,0,0-.06-.3s-.06-.07-.1-.07-.07,0-.09,0a.38.38,0,0,0-.11.32c0,.15,0,.23,0,.38a.71.71,0,0,0,.17,0m-.22.85a.72.72,0,0,1-.19.11l-.2.1-.12-.67-.66-.13a1.56,1.56,0,0,1-.89-.44l-.33-.42a5.8,5.8,0,0,0,.94.41,6.39,6.39,0,0,0,.87.23,1.26,1.26,0,0,1,0-.43.49.49,0,0,1,.18-.33,1,1,0,0,1,.74-.2.8.8,0,0,1,.62.31.45.45,0,0,1,.08.38.63.63,0,0,1-.24.38,1.13,1.13,0,0,1-.22.11,4.56,4.56,0,0,1-.48.12c0,.1,0,.2,0,.3a.22.22,0,0,1-.1.17" transform="translate(-19.91 -20.09)"/><path d="M170.07,67.52a.91.91,0,0,0,.19-.52.85.85,0,0,0,0-.68c-.11-.15-.35-.16-.71,0l.18.55a4.09,4.09,0,0,0,.23.62c.06.08.11.1.16.07m-.75,2.13a7.61,7.61,0,0,1-.79-1.52,10.77,10.77,0,0,1-.48-1.51,2,2,0,0,1-1.15-.34,3.54,3.54,0,0,1-.53-.55l-.83-1,1.27-1.06.86,1a3.22,3.22,0,0,0,.72.69,1,1,0,0,0,.86.15,3.76,3.76,0,0,1,1.64,0,1.62,1.62,0,0,1,.93.51c.14.19.07.62-.24,1.28a3.73,3.73,0,0,1-1.17,1.51l-1.09.77" transform="translate(-19.91 -20.09)"/><path d="M38.79,140.75l-.5-1.1c-.47-1-.92-1.93-1.36-2.7s-.74-1.14-.88-1.09c-.34.4-.67.77-1,1.11a2.72,2.72,0,0,1-1,.71,1.31,1.31,0,0,1-.64.11,2,2,0,0,1-.68-.26,6.47,6.47,0,0,0,1.32-1c.15-.15.46-.5.93-1a2.23,2.23,0,0,1,.62-.57,1.53,1.53,0,0,1,.72,0,3.26,3.26,0,0,1,.71.22,2.22,2.22,0,0,1,.81.8,19.28,19.28,0,0,1,1.11,2,2.15,2.15,0,0,0,.1-1.43.93.93,0,0,0-.28-.37,6.57,6.57,0,0,0-.73-.45c0-.19,0-.28,0-.46a3.77,3.77,0,0,1,1.64.41,2,2,0,0,1,.93,1,2.66,2.66,0,0,1,.12,1.39,11.43,11.43,0,0,1-.55,2.14l-1.42.69" transform="translate(-19.91 -20.09)"/><path d="M44.47,147.89a1.06,1.06,0,0,0,.28-1.34.62.62,0,0,0-.34-.29.42.42,0,0,0-.35,0q-.18.1-.12.48a2.52,2.52,0,0,0,.36.85l.17.28M44,149.41a2.5,2.5,0,0,1-2.35,0,4.19,4.19,0,0,1-2.18-1.75A5.14,5.14,0,0,1,39,146a22.21,22.21,0,0,1-.23-3.06l.48.19a8.61,8.61,0,0,0,.26,1.71,4.92,4.92,0,0,0,.46,1.09,4.82,4.82,0,0,0,1.14,1.37,7.09,7.09,0,0,0,2.08,1.15,5.31,5.31,0,0,1-.35-.51,2.26,2.26,0,0,1-.4-1.39,1.2,1.2,0,0,1,.62-1,2.87,2.87,0,0,1,1.74-.34,1.83,1.83,0,0,1,1.5.79,1.45,1.45,0,0,1,.07,1.31,2.64,2.64,0,0,1-1,1.24l-1.26.82" transform="translate(-19.91 -20.09)"/><path d="M45.7,152.57c-1-1.35-1.42-2-2.32-3.46l1.32-.86c.88,1.39,1.34,2.07,2.28,3.39l-1.28.93" transform="translate(-19.91 -20.09)"/><path d="M47.8,155.38c-1-1.28-1.5-1.94-2.45-3.3l1.28-.92c.94,1.33,1.42,2,2.41,3.24l-1.24,1" transform="translate(-19.91 -20.09)"/><path d="M50,158.06c-1.06-1.22-1.57-1.85-2.58-3.15l1.25-1c1,1.27,1.48,1.89,2.52,3.09l-1.19,1" transform="translate(-19.91 -20.09)"/><path d="M56.3,164.49a61.32,61.32,0,0,1-6.68-6.88l1.2-1c1.54,1.8,2.34,2.67,4,4.31a9.07,9.07,0,0,0-.54-2,4.2,4.2,0,0,0-.78-1.26l-.27-.27a4.5,4.5,0,0,0-.39-.33,3.3,3.3,0,0,1,1.47,0,2.33,2.33,0,0,1,1.09.65,3,3,0,0,1,.56.86,6.23,6.23,0,0,1,.35,1.2c.07.38.16.94.27,1.69a4.19,4.19,0,0,0,.25,1.09,3.77,3.77,0,0,0,.54.84l-1.06,1.17" transform="translate(-19.91 -20.09)"/><path d="M59.32,167.07c-1.41-1.14-2.1-1.73-3.45-3l1.07-1.17c1,.95,1.56,1.41,2.63,2.3.71-1.47,1.07-2.2,1.81-3.64l-.21-.51a1.81,1.81,0,0,1,.55-.43,5.65,5.65,0,0,1,1.13-.42l.18.32-.15.13c-.08.08-.08.26,0,.49a4.5,4.5,0,0,0,.45.84,4.51,4.51,0,0,1-.61.44,5.21,5.21,0,0,1-.64.3,2,2,0,0,0-.16-.24c-.66,1.32-1,2-1.61,3.33l-1,1.23" transform="translate(-19.91 -20.09)"/><path d="M62.45,169.46c-1.46-1.05-2.17-1.6-3.57-2.75l1-1.23c1.07.89,1.62,1.31,2.73,2.13.63-1.49,1-2.24,1.62-3.72L64,163.4a2,2,0,0,1,.53-.46,5.59,5.59,0,0,1,1.1-.48c.08.12.11.19.19.31s-.07.06-.14.13-.06.27,0,.49a4.46,4.46,0,0,0,.5.81,3.8,3.8,0,0,1-.59.47A4.27,4.27,0,0,1,65,165l-.17-.23c-.59,1.35-.88,2-1.45,3.4l-.93,1.28" transform="translate(-19.91 -20.09)"/><path d="M67.25,170.66a2.58,2.58,0,0,1-.65.7,6.39,6.39,0,0,1-1.18.62l-.33-.39a4.82,4.82,0,0,0,.82-.9,9.79,9.79,0,0,0,.51-.92c.21-.41.4-.82.58-1.24s.37-.93.58-1.54a1.71,1.71,0,0,1,.17-.42,1.62,1.62,0,0,1,.54-.38c.29-.16.66-.33,1.12-.53-.31.79-.45,1.18-.75,2a20.19,20.19,0,0,1-.8,1.91,10.79,10.79,0,0,1-.61,1.12" transform="translate(-19.91 -20.09)"/><path d="M95.26,182.64c-.1.59-.6,1.05-1.54,1.35a5.81,5.81,0,0,1-3.06.13,3.83,3.83,0,0,1-2-1,1.54,1.54,0,0,1-.42-1.54,3.51,3.51,0,0,1,.64-1.36,8.22,8.22,0,0,1,1.62-1.4l.41.34a7.35,7.35,0,0,0-1.11,1,2.12,2.12,0,0,0-.48.91.85.85,0,0,0,.33.91,3.18,3.18,0,0,0,1.43.61,5.27,5.27,0,0,0,2.33,0c.62-.15,1-.45,1-.87,0-.07,0-.12,0-.17a.64.64,0,0,1,0-.09,3.84,3.84,0,0,0,0-.5c0-.19,0-.57-.06-1.16-.06-.93-.11-1.88-.15-2.82l-.32-.27a4.29,4.29,0,0,1,1-1.59l.31.18a.48.48,0,0,0-.06.18c0,.15,0,.29.23.42l.76.5a4.08,4.08,0,0,1-.27.68,4.38,4.38,0,0,1-.44.58l-.21-.1c0,.06,0,.39,0,1s.09,1.15.12,1.59a8.55,8.55,0,0,1,0,1.16l-.2,1.29" transform="translate(-19.91 -20.09)"/><path d="M103.32,182c-.12-.63-.39-1-.83-1a.51.51,0,0,0-.39.12.43.43,0,0,0-.17.3c0,.14.09.26.28.37a2.11,2.11,0,0,0,.81.18l.3,0m.89,1.21a2.62,2.62,0,0,1-1.27,1.92,3.53,3.53,0,0,1-2.42.81,3.9,3.9,0,0,1-1.46-.44,18.11,18.11,0,0,1-2.3-1.48l.38-.29a8.39,8.39,0,0,0,1.35.72,4.77,4.77,0,0,0,1,.22,3.9,3.9,0,0,0,1.58-.18,6.63,6.63,0,0,0,1.94-1.07h-.56a1.86,1.86,0,0,1-1.22-.46,1.21,1.21,0,0,1-.38-1,3,3,0,0,1,.67-1.63,1.64,1.64,0,0,1,1.35-.79,1.27,1.27,0,0,1,1,.69,2.65,2.65,0,0,1,.36,1.54l-.05,1.49" transform="translate(-19.91 -20.09)"/><path d="M109.65,183.65l-1.12,0a1.52,1.52,0,0,1-1.34-.54,3.45,3.45,0,0,1-.45-2.07v-1.65a1.66,1.66,0,0,0-.2-.88,2.18,2.18,0,0,0-.44-.44c.33-.58.49-.86.8-1.44a2.87,2.87,0,0,1,.59.91,3.68,3.68,0,0,1,.21,1.35c0,.45,0,.68,0,1.14a4.7,4.7,0,0,0,.23,1.68.58.58,0,0,0,.55.37l1.1,0,.05,1.58" transform="translate(-19.91 -20.09)"/><path d="M112.88,183.48c-1.51.11-2.27.14-3.79.18,0-.63,0-.94,0-1.57,1.49,0,2.23-.08,3.71-.19,0,.63.07.95.12,1.58" transform="translate(-19.91 -20.09)"/><path d="M116.1,183.17c-1.5.18-2.26.24-3.78.34l-.1-1.57c1.48-.1,2.22-.16,3.7-.33.07.62.11.94.18,1.56" transform="translate(-19.91 -20.09)"/><path d="M119.31,182.74c-1.5.23-2.25.33-3.76.49-.07-.62-.1-.94-.18-1.56,1.48-.16,2.22-.26,3.69-.49l.25,1.56" transform="translate(-19.91 -20.09)"/><path d="M122.34,175.75c-.23.58-.35.87-.59,1.45-.74-.14-1.11-.21-1.84-.37.25-.58.38-.87.62-1.45.72.16,1.08.23,1.81.37m1.34,6.17c-2,.43-2.94.61-4.92.9-.1-.62-.14-.93-.24-1.56,1.63-.24,2.44-.38,4-.72a1.57,1.57,0,0,0-.45-.59,4.49,4.49,0,0,0-.63-.4c.13-.59.2-.89.32-1.48a2.7,2.7,0,0,1,1,.86,4.6,4.6,0,0,1,.56,1.51c.13.6.19.89.33,1.48" transform="translate(-19.91 -20.09)"/><path d="M126.17,174.92c-.17.52-.26.78-.44,1.29l-1.18-.14c-.15.42-.22.63-.38,1.06l-1.46-.28c.22-.53.32-.79.53-1.33l1.12.21c.14-.41.21-.62.34-1,.58.1.88.14,1.47.22m1.82,5.94c-1.93.53-2.9.77-4.86,1.18-.13-.62-.2-.93-.33-1.54,1.61-.34,2.41-.53,4-.95a1.59,1.59,0,0,0-.48-.57,4.61,4.61,0,0,0-.66-.37c.1-.59.15-.89.24-1.48a2.76,2.76,0,0,1,1,.79,4.65,4.65,0,0,1,.64,1.48c.17.59.25.88.42,1.46" transform="translate(-19.91 -20.09)"/><path d="M151.12,167.84c0-.06-.28-.07-.72-.05a11.25,11.25,0,0,0-1.23.14,1.76,1.76,0,0,0,.14,1.09.38.38,0,0,0,.36.14,1,1,0,0,0,.49-.18,3.61,3.61,0,0,0,.68-.64c.23-.28.32-.45.28-.5m.67-1.08a4.12,4.12,0,0,1,.37.61,2.49,2.49,0,0,1,.19.59,1.93,1.93,0,0,1-.44,1.29,4,4,0,0,1-1.1,1.17,1.53,1.53,0,0,1-1,.31,1.08,1.08,0,0,1-.78-.49,2.46,2.46,0,0,1-.37-.88,8.6,8.6,0,0,1-.1-1.33l-.31,0c0-.19-.05-.44-.07-.73s0-.55,0-.76l.82-.16c.35-.07.71-.12,1.05-.16a3.32,3.32,0,0,1,1.12,0,1.24,1.24,0,0,1,.67.48m-3.09-3.45c0,.57,0,.86,0,1.44-.46.11-.68.16-1.14.25,0,.44,0,.66,0,1.1l-1.5.3c0-.55,0-.82,0-1.37l1.15-.27c0-.46,0-.68,0-1.13l1.44-.32" transform="translate(-19.91 -20.09)"/><path d="M159.33,163.22c-1.1,1-1.66,1.55-2.8,2.52a1.62,1.62,0,0,1-.74.42.67.67,0,0,1-.68-.28c-.11-.13-.22-.28-.33-.44l-.3-.54.23-.2a.45.45,0,0,0,.41,0,1.39,1.39,0,0,0,.47-.28c.85-.72,1.26-1.1,2.09-1.86a3.1,3.1,0,0,0-1.4-.57,3.26,3.26,0,0,0-1.27.15c-.31-.7-.46-1-.78-1.73a3.38,3.38,0,0,1,2,.1,5,5,0,0,1,1.78,1.31l1.29,1.36" transform="translate(-19.91 -20.09)"/><path d="M163.93,156c-.58-.28-1-.25-1.32.11a.63.63,0,0,0-.16.41.45.45,0,0,0,.14.32c.1.09.26.08.47,0a2.39,2.39,0,0,0,.67-.58l.2-.24m1.55,0a2.62,2.62,0,0,1,.71,2.24,4,4,0,0,1-.91,2.55,4.43,4.43,0,0,1-1.29,1,18.4,18.4,0,0,1-2.68,1c0-.19,0-.29,0-.49a7.22,7.22,0,0,0,1.44-.69,4.52,4.52,0,0,0,.85-.72,4.37,4.37,0,0,0,.87-1.44,6.76,6.76,0,0,0,.39-2.29,5.09,5.09,0,0,1-.35.48,2.09,2.09,0,0,1-1.16.75,1.18,1.18,0,0,1-1.08-.31,2.94,2.94,0,0,1-.87-1.55,1.76,1.76,0,0,1,.24-1.63,1.35,1.35,0,0,1,1.19-.44,2.58,2.58,0,0,1,1.47.62l1.16,1" transform="translate(-19.91 -20.09)"/><path d="M167.92,153.45c-1,1.33-1.48,2-2.51,3.23l-1.21-1c1-1.23,1.5-1.87,2.46-3.17l1.26.95" transform="translate(-19.91 -20.09)"/><path d="M170,150.55c-.92,1.39-1.4,2.07-2.39,3.39l-1.25-1c1-1.29,1.43-2,2.33-3.32.53.35.79.53,1.31.89" transform="translate(-19.91 -20.09)"/><path d="M171.86,147.51c-.87,1.45-1.32,2.16-2.25,3.55l-1.3-.9c.91-1.36,1.35-2,2.21-3.47.54.32.8.49,1.34.82" transform="translate(-19.91 -20.09)"/><path d="M176,142.53c.27.63.4.95.65,1.6-.65.65-1,1-1.64,1.59-.24-.65-.37-1-.62-1.61.65-.62,1-.93,1.61-1.58m.32-3.68a64.78,64.78,0,0,1-4.79,9.19l-1.34-.83c1.29-2.12,1.9-3.21,3-5.49A10.6,10.6,0,0,0,171.4,143a5.1,5.1,0,0,0-1,1.22l-.19.37-.21.5a3.48,3.48,0,0,1-.41-1.46,2.53,2.53,0,0,1,.32-1.32,3.37,3.37,0,0,1,.67-.87,6.93,6.93,0,0,1,1.07-.78c.35-.22.87-.51,1.57-.9a5.48,5.48,0,0,0,1-.66,4.4,4.4,0,0,0,.66-.88l1.44.64" transform="translate(-19.91 -20.09)"/><path d="M178,134.68c-.74,1.95-1.14,2.91-2,4.77l-1.44-.66c.64-1.42,1-2.15,1.53-3.63-1.62-.16-2.44-.26-4-.47-.18.17-.26.26-.44.42a1.72,1.72,0,0,1-.58-.41,5.71,5.71,0,0,1-.71-1l.27-.32.16.11c.1.05.28,0,.48-.2a5.74,5.74,0,0,0,.7-.82,3.36,3.36,0,0,1,.6.47,3.73,3.73,0,0,1,.46.55c-.07.11-.11.16-.19.27,1.48.17,2.22.24,3.71.37l1.47.56" transform="translate(-19.91 -20.09)"/><path d="M85.6,80.26,85.39,79l-.53.25a7.32,7.32,0,0,0-.92.56,5.33,5.33,0,0,0-.41.39.66.66,0,0,0-.21.34c0,.1.12.18.36.23a3.08,3.08,0,0,0,.72.09,1,1,0,0,0,.48-.14,4.88,4.88,0,0,0,.72-.47m1.65-8.74L86.1,73.46l-1.49-.84-.83,1.65-2-1.06,1.09-1.84,1.55.77.91-1.6Zm2.41,14.64H88.29A1.58,1.58,0,0,1,87.6,86a2.47,2.47,0,0,1-1-1.11,8.3,8.3,0,0,1-.73-3,14.22,14.22,0,0,1-1.11,1.24,1.63,1.63,0,0,1-1,.54,2.7,2.7,0,0,1-.5-.07L82,83.33a8.05,8.05,0,0,1-1-.24.26.26,0,0,1-.19-.26,7.36,7.36,0,0,1,.73-1.78,9.57,9.57,0,0,1,1-1.86,5.74,5.74,0,0,1,.93-.73c.26-.18.64-.41,1.12-.7l.56-.32c0-.1,0-.2,0-.3s0-.2,0-.29a3.6,3.6,0,0,1,.18-1A8.87,8.87,0,0,1,86,74.37l1,6.52A5.37,5.37,0,0,0,87.6,83a.82.82,0,0,0,.69.35h1.37Z" transform="translate(-19.91 -20.09)"/><path d="M96.59,83a1.72,1.72,0,0,0-.45-.8c-.34-.42-.63-.62-.87-.62s-.5.31-.69.94l.82.31a6.17,6.17,0,0,0,1,.31c.15,0,.23,0,.23-.14m2,3.15A9.35,9.35,0,0,1,96,85.72a12.7,12.7,0,0,1-2.3-.88A2.84,2.84,0,0,1,92.17,86a4.1,4.1,0,0,1-1.17.13H88.93V83.32H91a4.05,4.05,0,0,0,1.49-.23,1.69,1.69,0,0,0,1-1A6.71,6.71,0,0,1,95,79.89a2.33,2.33,0,0,1,1.4-.76c.35,0,.79.54,1.31,1.61a7.29,7.29,0,0,1,.83,3.13Z" transform="translate(-19.91 -20.09)"/><path d="M106.94,83.32c-.2-1.12-.59-1.68-1.19-1.68a.61.61,0,0,0-.52.25.92.92,0,0,0-.19.56.74.74,0,0,0,.41.63,2.17,2.17,0,0,0,1.09.24Zm1.25,2.12A5.44,5.44,0,0,1,106.67,89a4.19,4.19,0,0,1-3,1.76,4.05,4.05,0,0,1-1.9-.55A27.83,27.83,0,0,1,98.6,88l.44-.6a9,9,0,0,0,1.85,1,4.07,4.07,0,0,0,1.35.21,4,4,0,0,0,2-.57,9.42,9.42,0,0,0,2.43-2.15,5.59,5.59,0,0,1-.73.06,2.12,2.12,0,0,1-1.65-.67,2.61,2.61,0,0,1-.61-1.83,6.71,6.71,0,0,1,.72-3c.52-1,1.12-1.58,1.79-1.58s1,.38,1.42,1.14a5.94,5.94,0,0,1,.58,2.75Z" transform="translate(-19.91 -20.09)"/><path d="M117.76,74.94l-1.25,2.34L114.06,76l1.27-2.36Zm.18,7.32c0-.25-.26-.48-.77-.69a3.73,3.73,0,0,0-1.36-.32,3.4,3.4,0,0,0-1.55.45,20.18,20.18,0,0,0-2.5,1.62h2.73c2.3,0,3.45-.35,3.45-1.06m1.45,3.9H107.46V83.32h1.39a4.47,4.47,0,0,0,1.41-.87c.26-.18.63-.48,1.12-.87,0-.86,0-1.58-.09-2.18s-.17-1.21-.31-1.85c0-.15-.22-.9-.56-2.26l-.61-.38c.16-.73.3-1.26.4-1.57s.31-.82.61-1.5l.48.19a2,2,0,0,1,0,.27c0,.24.35.53,1,.87.23.11.57.25,1,.42a8.6,8.6,0,0,1-.33,1.53q-.12.36-.42,1.11l-.38-.13c.22,1,.37,1.72.44,2.19a8.71,8.71,0,0,1,.11,1.26v.11c0,.21,0,.36,0,.48s0,.29-.09.54l1.1-.8c.56-.39,1.07-.71,1.52-1a3.15,3.15,0,0,1,1.33-.48,2.93,2.93,0,0,1,2,.64,2.61,2.61,0,0,1,.83,2.08Z" transform="translate(-19.91 -20.09)"/><path d="M125.26,74.79,124,77.13l-2.44-1.28,1.26-2.36Zm-.06,11.37h-6.54V83.32h5.5a3.4,3.4,0,0,0-.42-1.2,8,8,0,0,0-.73-.94l.83-2.49a4.94,4.94,0,0,1,1.08,1.86,11,11,0,0,1,.28,2.89Z" transform="translate(-19.91 -20.09)"/><path d="M132.13,83a1.72,1.72,0,0,0-.45-.8c-.33-.42-.62-.62-.87-.62s-.5.31-.69.94l.83.31a5.89,5.89,0,0,0,1,.31c.15,0,.23,0,.23-.14m2,3.15a9.35,9.35,0,0,1-2.58-.43,13,13,0,0,1-2.3-.88A2.84,2.84,0,0,1,127.71,86a4.1,4.1,0,0,1-1.17.13h-2.07V83.32h2.07a4,4,0,0,0,1.49-.23,1.7,1.7,0,0,0,1-1,6.54,6.54,0,0,1,1.52-2.19,2.35,2.35,0,0,1,1.4-.76c.36,0,.8.54,1.32,1.61a7.26,7.26,0,0,1,.82,3.13Z" transform="translate(-19.91 -20.09)"/><path d="M78.38,111.58a3.55,3.55,0,0,1-1.67,2.85,6.24,6.24,0,0,1-3.82,1.24,4,4,0,0,1-2.79-.9,3.21,3.21,0,0,1-1-2.52,8.47,8.47,0,0,1,.38-2.65,13.5,13.5,0,0,1,1.67-3.12l.65.44A10.74,10.74,0,0,0,70.63,109a5,5,0,0,0-.35,1.79,1.7,1.7,0,0,0,.71,1.46,3.27,3.27,0,0,0,2,.52,5.68,5.68,0,0,0,3-.71,2.13,2.13,0,0,0,1.15-1.86v-.49a7.7,7.7,0,0,0-.07-.9c0-.33-.16-1-.35-2l-.9-5-.52-.37a8.67,8.67,0,0,1,1-3.14l.48.23a1.18,1.18,0,0,0,0,.34.76.76,0,0,0,.43.67l1.2.68a11.07,11.07,0,0,1-.23,1.29,10.5,10.5,0,0,1-.48,1.16l-.32-.13c0,.11.1.7.3,1.78s.37,2,.51,2.81a19.74,19.74,0,0,1,.29,2.06Z" transform="translate(-19.91 -20.09)"/><path d="M86.78,109c-.2-1.12-.59-1.68-1.19-1.68a.61.61,0,0,0-.52.25.9.9,0,0,0-.19.56.72.72,0,0,0,.41.62,2.07,2.07,0,0,0,1.09.25ZM88,111.12a5.39,5.39,0,0,1-1.52,3.55,4.19,4.19,0,0,1-3,1.76,4.07,4.07,0,0,1-1.9-.56,27.4,27.4,0,0,1-3.16-2.18l.44-.61a9.09,9.09,0,0,0,1.85,1,4.08,4.08,0,0,0,1.35.2,4,4,0,0,0,2-.56,9.42,9.42,0,0,0,2.43-2.15,5.59,5.59,0,0,1-.73.06,2.12,2.12,0,0,1-1.65-.67,2.62,2.62,0,0,1-.61-1.84,6.74,6.74,0,0,1,.72-3c.52-1,1.12-1.57,1.79-1.57s1,.38,1.42,1.14a5.9,5.9,0,0,1,.58,2.74Z" transform="translate(-19.91 -20.09)"/><path d="M93.05,111.84H91.59a1.87,1.87,0,0,1-1.77-1,8.36,8.36,0,0,1-.61-3.73v-3a3.58,3.58,0,0,0-.28-1.58,4,4,0,0,0-.62-.78l1.12-2.61a5.2,5.2,0,0,1,.85,1.65,8.6,8.6,0,0,1,.28,2.42v2.06a10.86,10.86,0,0,0,.29,3c.16.45.4.68.74.68h1.46Z" transform="translate(-19.91 -20.09)"/><path d="M98.92,100.46l-1.25,2.34-2.45-1.27,1.27-2.36Zm-.06,11.38H92.32V109h5.49a2.94,2.94,0,0,0-.42-1.2,6.41,6.41,0,0,0-.73-.94l.84-2.49a4.91,4.91,0,0,1,1.07,1.86,10.9,10.9,0,0,1,.29,2.88Z" transform="translate(-19.91 -20.09)"/><path d="M104.5,100.67l-1.09,2-1.54-.78-.88,1.7-1.9-1.07,1.15-2.13,1.48.84.84-1.66Zm.17,11.17H98.13V109h5.49a3.09,3.09,0,0,0-.42-1.2,6.41,6.41,0,0,0-.73-.94l.84-2.49a4.91,4.91,0,0,1,1.07,1.86,10.9,10.9,0,0,1,.29,2.88Z" transform="translate(-19.91 -20.09)"/><path d="M115.56,108.76c0-.13-.24-.41-.72-.83a12.64,12.64,0,0,0-1.43-1.07,3.55,3.55,0,0,0-.67,1.75.74.74,0,0,0,.28.58,1,1,0,0,0,.66.24,3.68,3.68,0,0,0,1.2-.25c.46-.16.68-.3.68-.42m1.55-.84a7.85,7.85,0,0,1-.1,1.27,5,5,0,0,1-.26,1,2.76,2.76,0,0,1-1.44,1.4,4.27,4.27,0,0,1-2,.57,1.61,1.61,0,0,1-1.3-.57,2.25,2.25,0,0,1-.48-1.5,5.72,5.72,0,0,1,.25-1.69,12.37,12.37,0,0,1,.88-2.08l-.38-.25c.12-.32.28-.7.48-1.16s.39-.84.55-1.16l1,.61a12.61,12.61,0,0,1,1.28.88,4.4,4.4,0,0,1,1.18,1.22,2.88,2.88,0,0,1,.32,1.41m-.52-8.28-1.15,2.13-1.49-.84-.83,1.65-1.94-1.06,1.08-2,1.55.77.88-1.69Z" transform="translate(-19.91 -20.09)"/><path d="M125.28,111.84h-4.73a1.71,1.71,0,0,1-1.06-.29,1.4,1.4,0,0,1-.45-1.16c0-.31,0-.64,0-1s.08-.72.14-1.08l.4,0a.77.77,0,0,0,.37.53,1.36,1.36,0,0,0,.69.17h3.6a6.28,6.28,0,0,0-.84-2.46,4.31,4.31,0,0,0-1.37-1.31l.76-3.26a5.46,5.46,0,0,1,1.92,2.61,11.92,11.92,0,0,1,.52,3.91Z" transform="translate(-19.91 -20.09)"/><path d="M133.68,109c-.19-1.12-.59-1.68-1.19-1.68a.61.61,0,0,0-.52.25.9.9,0,0,0-.19.56.72.72,0,0,0,.41.62,2.07,2.07,0,0,0,1.09.25Zm1.25,2.12a5.39,5.39,0,0,1-1.52,3.55,4.19,4.19,0,0,1-3,1.76,4.07,4.07,0,0,1-1.9-.56,27.4,27.4,0,0,1-3.16-2.18l.44-.61a9.09,9.09,0,0,0,1.85,1,4.08,4.08,0,0,0,1.35.2,4,4,0,0,0,2-.56,9.42,9.42,0,0,0,2.43-2.15,5.59,5.59,0,0,1-.73.06A2.12,2.12,0,0,1,131,111a2.62,2.62,0,0,1-.61-1.84,6.74,6.74,0,0,1,.72-3c.52-1,1.12-1.57,1.79-1.57s1,.38,1.42,1.14a5.9,5.9,0,0,1,.58,2.74Z" transform="translate(-19.91 -20.09)"/><path d="M142.25,114.12,141,116.46l-2.44-1.28,1.26-2.36Zm3.88-2.28H134.2V109h7.43a9.75,9.75,0,0,0-2.34-1.88,3.91,3.91,0,0,0-1.86-.52,3.84,3.84,0,0,0-.5,0l-.65.12a5.48,5.48,0,0,1,1.28-1.94,2.35,2.35,0,0,1,1.61-.63,2.7,2.7,0,0,1,1.32.34,6.76,6.76,0,0,1,1.43,1.07c.42.39,1,1,1.78,1.83a6.65,6.65,0,0,0,1.2,1.14,4,4,0,0,0,1.23.44Z" transform="translate(-19.91 -20.09)"/><path d="M84.73,128.69h.4a4.71,4.71,0,0,0,1.09-.07.6.6,0,0,0,.33-.23.64.64,0,0,0,.12-.38.61.61,0,0,0-.12-.37.6.6,0,0,0-.34-.23,4.55,4.55,0,0,0-1.08-.07h-.4Zm-1,2.81v-5h2.59a2.1,2.1,0,0,1,.78.2,1.19,1.19,0,0,1,.46.48,1.42,1.42,0,0,1,.19.71,1.28,1.28,0,0,1-.36.91,1.54,1.54,0,0,1-1,.47,1.25,1.25,0,0,1,.35.19,2.44,2.44,0,0,1,.33.38s.16.25.37.6l.58,1H86.79l-.41-.8a3.21,3.21,0,0,0-.7-1,1.09,1.09,0,0,0-.69-.21h-.26v2Zm2.11-6.25a3.8,3.8,0,0,0-1.84.48,3.57,3.57,0,0,0-1.39,1.39,3.77,3.77,0,0,0,0,3.75A3.57,3.57,0,0,0,84,132.26a3.73,3.73,0,0,0,3.73,0,3.57,3.57,0,0,0,1.39-1.39,3.73,3.73,0,0,0,0-3.75,3.6,3.6,0,0,0-1.4-1.39,3.81,3.81,0,0,0-1.85-.48m0-.91a4.73,4.73,0,0,1,2.3.6,4.28,4.28,0,0,1,1.73,1.72,4.71,4.71,0,0,1,0,4.67,4.4,4.4,0,0,1-1.73,1.72,4.59,4.59,0,0,1-2.32.62,4.65,4.65,0,0,1-2.33-.62,4.38,4.38,0,0,1-1.72-1.72,4.67,4.67,0,0,1,0-4.67,4.3,4.3,0,0,1,1.74-1.72,4.73,4.73,0,0,1,2.3-.6" transform="translate(-19.91 -20.09)"/><path d="M98.12,137.52H96.76a15.59,15.59,0,0,0-3.38.32c-1,.22-1.48.46-1.48.74.28.84.52,1.62.73,2.35A7.58,7.58,0,0,1,93,143a4,4,0,0,1-.14,1.15,3.6,3.6,0,0,1-.53,1,17.78,17.78,0,0,0-.51-2.89c-.09-.36-.32-1.11-.68-2.25a6.28,6.28,0,0,1-.34-1.4,3.48,3.48,0,0,1,.28-1.22,5.48,5.48,0,0,1,.5-1.06,2.24,2.24,0,0,1,1.16-.82,11.57,11.57,0,0,1,2.54-.49q-.84-1.17-1.47-1.17a.76.76,0,0,0-.51.21,6.8,6.8,0,0,0-.78.92l-.5-.26a7.24,7.24,0,0,1,1.13-2.46,1.9,1.9,0,0,1,1.48-.86,2.41,2.41,0,0,1,1.55.81,13.93,13.93,0,0,1,2,2.5Z" transform="translate(-19.91 -20.09)"/><path d="M106.52,134.67c-.2-1.12-.59-1.68-1.19-1.68a.62.62,0,0,0-.52.26.9.9,0,0,0-.19.56.73.73,0,0,0,.41.62,2.17,2.17,0,0,0,1.09.24Zm1.25,2.13a5.41,5.41,0,0,1-1.52,3.55,4.18,4.18,0,0,1-3,1.75,4.05,4.05,0,0,1-1.9-.55,28.78,28.78,0,0,1-3.16-2.18l.44-.61a8.49,8.49,0,0,0,1.85,1,4.06,4.06,0,0,0,3.35-.35,9.67,9.67,0,0,0,2.43-2.16,4.41,4.41,0,0,1-.73.07,2.13,2.13,0,0,1-1.65-.68,2.61,2.61,0,0,1-.61-1.83,6.74,6.74,0,0,1,.72-3c.52-1,1.12-1.58,1.79-1.58s1,.38,1.42,1.14a6,6,0,0,1,.58,2.75Z" transform="translate(-19.91 -20.09)"/><path d="M119,137.52H107v-2.85h7.43a10,10,0,0,0-2.34-1.88,3.9,3.9,0,0,0-1.86-.51,3.84,3.84,0,0,0-.5,0l-.65.12a5.53,5.53,0,0,1,1.28-2,2.39,2.39,0,0,1,1.61-.62,2.84,2.84,0,0,1,1.32.33,6.86,6.86,0,0,1,1.43,1.08c.42.39,1,1,1.78,1.83a7,7,0,0,0,1.2,1.14,3.75,3.75,0,0,0,1.23.43Z" transform="translate(-19.91 -20.09)"/><path d="M124,137.52h-5.75v-2.85h4.49l-1.26-7.09-.67-.44a4.5,4.5,0,0,1,.19-1.24,11.33,11.33,0,0,1,.81-1.89l.49.25s0,.15-.05.33a.88.88,0,0,0,.44.67,5.89,5.89,0,0,0,1.24.65,11.11,11.11,0,0,1-.28,1.3,7.87,7.87,0,0,1-.41,1.14l-.38-.14,1.14,6.46Z" transform="translate(-19.91 -20.09)"/><path d="M129,137.52h-5.74v-2.85h4.49l-1.26-7.09-.67-.44a4.15,4.15,0,0,1,.19-1.24,11.33,11.33,0,0,1,.81-1.89l.48.25a2.56,2.56,0,0,1,0,.33.88.88,0,0,0,.44.67,6,6,0,0,0,1.23.65,8.13,8.13,0,0,1-.28,1.3,7.87,7.87,0,0,1-.41,1.14l-.38-.14,1.14,6.46Z" transform="translate(-19.91 -20.09)"/><path d="M132.87,134.48a6,6,0,0,1-.22,1.69,14,14,0,0,1-.85,2.07l-.62-.25a13.18,13.18,0,0,0,.25-2.18c0-.42,0-1.05-.11-1.87s-.15-1.63-.26-2.44-.27-1.76-.51-2.87a5.2,5.2,0,0,1-.13-.81,3.37,3.37,0,0,1,.33-1.1c.21-.52.52-1.15.91-1.89l.62,3.7q.34,2.11.48,3.66c.07.79.11,1.55.11,2.29" transform="translate(-19.91 -20.09)"/></g></svg>