<svg id="Layer_1" data-name="Layer 1" xmlns="http://www.w3.org/2000/svg" xmlns:xlink="http://www.w3.org/1999/xlink" viewBox="0 0 1024 765"><defs><style>.cls-1{fill:none;}.cls-2{clip-path:url(#clip-path);}.cls-3{fill:#0d8c49;}</style><clipPath id="clip-path"><rect class="cls-1" y="290.75" width="1024" height="474.25"/></clipPath></defs><title>SFF1693_Foodservice Trade Presenter_Texture_BG</title><g class="cls-2"><path class="cls-3" d="M1024,290.75a6,6,0,0,0-.75.55c-3,2.93-6.77,3.42-10.55,3.58a8.06,8.06,0,0,0-4.61,1.62c-3.75,2.76-20.77,3.57-24.85,2.77-4.75-.93-9.78-2-14.67,1.06-2.7,1.68-5.85,2.51-8.64,4.46-2.22,1.55-6,1.51-9,2.28-3.47.89-51.87,21.4-54.58,21.12-1.29-.13-2.51.61-3.76,1.05-5.59,2-11.46,2.37-17.33,2.55-1.85.06-13.55.89-16.45,2s-6.5,1-9.77,1.62a11.77,11.77,0,0,0-5.39,2.1,13.33,13.33,0,0,1-10.86,2.89c-2.93-.38-26.1,2.72-27.52,3.46-5.59,2.89-36.17,27.25-39.18,27.27-3.81,0-22.6,3.73-22.94,3.58-2.73-1.13-11.33,1.93-13,2.06-2.4.19-21.57,2.15-26.52,3.67-3.39,1-6.9,2.22-10.66,1.72a8.84,8.84,0,0,0-4.19.66c-4.72,2.32-10.09,2.39-14.89,4.37-2.44-1.42-12.11,1.46-13.49,4.13-1,1.88-19.37,4.47-23.89,7.27a18.07,18.07,0,0,1-2.84,1.53,83.16,83.16,0,0,1-9.05,3,32.6,32.6,0,0,0-7.76,2.75c-4.59,1.74-8.35,2.13-12.43.37-2-.85-3.26-.77-4.26.93-.8,1.34-1.62,1.23-3.12,1.36-2,.17-4.47-.07-6.34,2,0,.05-.13.08-.18.13-11.37-1-20.59-1.93-21.36-2.29s-2-.55-2.44-1.44c-.81-1.5-2.42-1.88-3.77-2.44-1.77-.73-39.43-13.49-41.28-13.66-1-.08-2.21-.54-2.9-.15-2.68,1.51-4.66.21-6.71-1.17-.39-.27-.72-.68-1.28-.57-3,.64-5-1.72-7.45-2.56-.34-.12-.83-.28-.91-.53-1.35-3.86-14.75-3.71-14.89-3.82s-6.21.59-8.94-.28a17.65,17.65,0,0,0-6.36-.81,11.17,11.17,0,0,1-4.28-.46,17.71,17.71,0,0,0-7.56-.81,9.6,9.6,0,0,1-7.11-1.88c-2.26-1.6-5.11-2.45-7.74-3.54-1.59-.65-15.74-6.55-19.57-4.88-1.85.81-3.86.55-5.78.87-.65.11-17-2.6-19.42-3.21A22,22,0,0,0,390,367a8.17,8.17,0,0,1-5.71-.23,6.82,6.82,0,0,0-2.84-.49c-2.83-.06-4.86-1.34-6.82-3.17-1.43-1.33-3.58-1.34-5.46-1.73-2.08-.43-14.41-4.06-15.58-5.79-.32-.48-1.23-.61-1.84-1-1.85-1.29-10.77-3.49-14.62-3.16a6.67,6.67,0,0,1-3.9-.49c-3-1.75-6.36-1.46-9.62-1.63-1.95-.1-12.85-3-15.86-2.7-5.2.57-15.5-2.92-18-3.22-1.69-.21-11.16.72-13.12-2.11-1.06-1.53-2.79-2.52-3.68-4.26-.62-1.19-26.28-6.45-28.84-8.61-1.51-1.27-9-1.93-10.69-2.46-2.91-.9-6-1.21-8.76-2.62a2.93,2.93,0,0,0-2.12-.21c-2.87,1.22-5.86.14-8.77.49A5.61,5.61,0,0,1,211,323c-1.27-.57-8.45-3.76-10.17-3.78-2.27,0-11.38-2.55-12.8-3.46-2.66-1.69-16.08-2-18.15-1.83-.73.06-12.64-2-15.4-3.42s-16.95-5-20.27-6.72a3.37,3.37,0,0,0-2.44-.52c-.61.14-16.6-1.21-20.44-2.65-1.5-.56-9.25-1.17-11-1.91l-1-.16a21.66,21.66,0,0,0-10.69,1.53,8.12,8.12,0,0,1-5.67.6,6.56,6.56,0,0,0-2.88-.07c-2.8.35-5-.62-7.23-2.14-1.63-1.11-3.75-.81-5.66-.92-2.12-.12-14.85-1.91-16.29-3.46-.39-.43-1.31-.42-2-.75-2-1-11.18-1.88-14.92-1a6.59,6.59,0,0,1-3.92.09c-3.28-1.29-6.51-.51-9.75-.2-1.93.18-13.14-1.12-16.06-.36a18.25,18.25,0,0,1-4.2.45V532.88l.61,0V765H1023.39V484.93l.61-.15Z"/></g></svg>