<svg id="Layer_1" data-name="Layer 1" xmlns="http://www.w3.org/2000/svg" xmlns:xlink="http://www.w3.org/1999/xlink" viewBox="0 0 1024 765"><defs><style>.cls-1{fill:none;}.cls-2{clip-path:url(#clip-path);}.cls-3{fill:#036a38;}</style><clipPath id="clip-path"><rect class="cls-1" y="394.4" width="1024" height="370.6"/></clipPath></defs><title>SFF1693_Foodservice Trade Presenter_Texture_BG</title><g class="cls-2"><path class="cls-3" d="M1024,765V395.12c-1.89-.35-3.45-.68-3.7-.7-1.64-.12-8.52.21-9.85,1.67-1.11,1.21-9.17,3.42-11.35,3.17-2.6-.29-5,1.27-7.53,1-3-.32-14.74,2.46-17,2.5-2.74,0-5.5-1-8.08-.21s-5,.45-7.47,1.32c-2.32.8-5.11.89-7.64,1.33-2.19.37-3.93.43-5.8-.59-2-1.1-13.59-.15-15.47.59-1.09.43-7.18-.35-8.72.38-2.39,1.13-15.48,3.76-17.11,3.81-3.55.1-6.75,1.31-10,2-4,.87-8.18,1.76-11.8,3.89-2.46,1.44-5,2.05-7.81,1-1.78-.69-4-.73-5.39.19a6.85,6.85,0,0,1-5,1.12c-4.41-.58-8.3,1.16-12.14,2.5-4.29,1.5-21,2.9-26.53,4.59-6.49,1.9-32.87,3.36-33.68,6.93a4.34,4.34,0,0,1-4,3.33c-4,.3-7.77,2-11.86,2.08-3.24.06-15.62,4.87-19,5.4l-4.35,1c-5.6.21-11.06.72-16.28-1.21-1.56-.58-2.61.11-3.95.42-2.51.59-4.91,2.07-7.58,1.52-2.43-.51-4.81-1.64-5.45,2.14-.15.89-1.43.37-2.26.41-6.57.36-12.69,1.41-17.55,6.58-1.72,1.84-4.82,3.88-7.92,3.27-2.52-.5-4.45.44-6.64,1-6.63,1.6-13,5.16-20.13,3.31a2.22,2.22,0,0,0-2.38.73c-.93,1.11-2.18.94-3.41.73-2.72-.46-4.85.91-7.22,1.91-3.94,1.66-7.8,3.56-12.48,3.21-5.11-.38-10.28-.62-15.35,1.69-2.23,1-5,1.85-7.71,1.11-3.38-.93-6,.14-8.61,2.43,0,0-3.09,2-5.31,3.37-3.68.88-7.26,1.49-10.83,3-3.82,1.59-8.4,2.41-12.24.69-4.66-2.08-9.58-1.86-14.41-2.18-3.67-.24-16-2.5-18.33-2-7,1.42-14.66-2.14-21.35,2.43-.21.13-.7-.16-1-.1-5.26.82-10.73,1.1-15.73,2.69-4.42,1.41-8.67,2.93-13.35,3.18-1,.05-16.57,1.46-20.42,2.61-1.75.53-16.37-.81-19.08-2.29a25.64,25.64,0,0,0-15.29-2.56c-3.69.47-7.8.7-11.19,1.89-3.78,1.33-9.05-.49-11.52,4.18-.29.54-1.94.7-2.94.69-2.66,0-5.13-.37-7.27-2.16a5.76,5.76,0,0,0-6.15-1.15c-3.48,1.14-7.45,1.15-11.2,1.73-4.17.64-8.48.92-11.88,3.48a15.07,15.07,0,0,1-9,2.67c-11.91.32-23.82.72-35.72.24-.71,0-1.43-.24-2,.16-4.07,2.63-9,2.71-13.46,4.06a9.14,9.14,0,0,1-6,.14,19.88,19.88,0,0,0-6.66-.63c-3.6,0-12.18-1.89-12.87-1.94-2.1-.15-10.91.26-12.61,2.13-1.42,1.56-11.75,4.39-14.53,4.07-3.33-.37-6.39,1.63-9.65,1.28-3.82-.41-18.87,3.15-21.77,3.2-3.5.06-7-1.3-10.34-.27-3.14,1-6.37.58-9.57,1.69L0,505.45V765Z"/></g></svg>