<?xml version="1.0" encoding="utf-8"?>
<!-- Generator: Adobe Illustrator 23.0.2, SVG Export Plug-In . SVG Version: 6.00 Build 0)  -->
<svg version="1.1" id="Layer_1" xmlns="http://www.w3.org/2000/svg" xmlns:xlink="http://www.w3.org/1999/xlink" x="0px" y="0px"
	 viewBox="0 0 40.8 41" style="enable-background:new 0 0 40.8 41;" xml:space="preserve">
<style type="text/css">
	.st0{fill-rule:evenodd;clip-rule:evenodd;fill:#EAE6DD;}
</style>
<path class="st0" d="M21,20.5L40.7,0.9c0.2-0.2,0.2-0.5,0-0.7s-0.5-0.2-0.7,0L20.4,19.7L0.9,0.2C0.7,0,0.3,0,0.1,0.2s-0.2,0.5,0,0.7
	l19.7,19.6L0.2,40.2c-0.2,0.2-0.2,0.5,0,0.7s0.5,0.2,0.7,0l19.6-19.6L40,40.9c0.2,0.2,0.5,0.2,0.7,0s0.2-0.5,0-0.7L21,20.5z"/>
</svg>
