<?xml version="1.0" encoding="utf-8"?>
<!-- Generator: Adobe Illustrator 23.0.2, SVG Export Plug-In . SVG Version: 6.00 Build 0)  -->
<svg version="1.1" id="Layer_1" xmlns="http://www.w3.org/2000/svg" xmlns:xlink="http://www.w3.org/1999/xlink" x="0px" y="0px"
	 viewBox="0 0 145.4 63.8" style="enable-background:new 0 0 145.4 63.8;" xml:space="preserve">
<style type="text/css">
	.st0{clip-path:url(#SVGID_2_);fill:#EAE6DD;}
	.st1{clip-path:url(#SVGID_4_);fill:#EAE6DD;}
	.st2{clip-path:url(#SVGID_6_);fill:#EAE6DD;}
	.st3{clip-path:url(#SVGID_8_);fill:#EAE6DD;}
	.st4{clip-path:url(#SVGID_10_);fill:#EAE6DD;}
</style>
<g>
	<g>
		<defs>
			<rect id="SVGID_1_" width="145.4" height="63.8"/>
		</defs>
		<clipPath id="SVGID_2_">
			<use xlink:href="#SVGID_1_"  style="overflow:visible;"/>
		</clipPath>
		<path class="st0" d="M140.1,50.3c-1.7-0.6-3.1-1.2-3.1-2.6c0-1.2,1-2.1,2.6-2.1c1,0,1.8,0.2,2.2,0.5c-0.1,0.2-0.2,0.4-0.2,0.8
			c0,0.8,0.7,1.7,1.8,1.7c1,0,1.7-0.7,1.7-1.9c0-2-2.4-3.6-5.5-3.6c-3.4,0-5.6,2.1-5.6,4.8c0,3.1,2.2,4.1,5.3,5.2
			c1.7,0.6,3.1,1.2,3.1,2.6c0,1.5-1.2,2.3-3,2.3c-1.1,0-2-0.3-2.6-0.7c0.1-0.3,0.2-0.6,0.2-1c0-0.8-0.7-1.7-1.8-1.7
			c-1,0-1.8,0.8-1.8,2c0,2,2.7,3.9,6,3.9c3.4,0,5.9-1.8,5.9-5C145.4,52.4,143.1,51.4,140.1,50.3 M104.5,51.5c-0.9,0-1.3,0-1.6,0
			v-5.4h1.6c2.3,0,3.8,0.8,3.8,2.6C108.2,50.4,106.7,51.5,104.5,51.5 M87.2,52.5l2.3-6.6l2.3,6.6H87.2z M130.5,46h2.1v-2.6h-4.6
			l-5.1,9.3l-5.1-9.3h-4.6V46h2.1l-0.5,11.6h-4.1l-2.6-4.6c1.8-0.7,3.2-2.4,3.2-4.6c0-3.4-2.8-5.1-6.6-5.1h-6.5V46h1.9v11.6h-3.4
			L92.5,46h1.8v-2.5h-9.5V46h1.8l-4.2,11.6h-1.4v2.6h6.4v-2.5h-2l0.9-2.7h6.3l0.9,2.7h-1.9v2.5H105v-2.6h-2.1v-3.8
			c0.4,0,0.8,0,1.4,0c0.3,0,0.7,0,1,0l3.4,6.4h10.9v-2.6h-2l0.3-8.6l4.8,8.4h0.4l4.8-8.4l0.3,8.6h-2v2.6h6.9v-2.6h-2L130.5,46z
			 M74.8,46h4.8v2.2h2.8v-4.8H70v2.6h1.9v11.6H70v2.6h7v-2.6h-2.2v-4.4h4.9v-2.5h-4.9L74.8,46L74.8,46z"/>
	</g>
	<g>
		<defs>
			<rect id="SVGID_3_" width="145.4" height="63.8"/>
		</defs>
		<clipPath id="SVGID_4_">
			<use xlink:href="#SVGID_3_"  style="overflow:visible;"/>
		</clipPath>
		<path class="st1" d="M103.5,31.7c-0.9,0-1.3,0-1.6-0.1v-5.4h1.6c2.3,0,3.8,0.8,3.8,2.6C107.2,30.6,105.7,31.7,103.5,31.7
			 M122.4,26.2h2.1v7.9l-8.2-10.5h-4.3v2.6h1.9v11.6h-4.2l-2.6-4.6c1.8-0.7,3.2-2.4,3.2-4.6c0-3.4-2.8-5.1-6.6-5.1h-6.5v2.6H99v11.6
			h-1.9v2.6h6.9v-2.6h-2.1v-3.8c0.3,0,0.8,0,1.4,0c0.3,0,0.7,0,1,0l3.4,6.4h11v-2.6h-2.1v-9l9.1,11.6l1.6-0.1V26.3h1.8v-2.6h-6.7
			L122.4,26.2L122.4,26.2z M93.2,37.9h-5v-4.7h5.1v-2.4h-5.1v-4.5h5v2.2h2.8v-4.8H83.4v2.6h1.9v11.6h-1.9v2.6H96v-4.8h-2.8V37.9z
			 M70.1,26.2H72v11.6h-1.9v2.6h7v-2.6h-2.2v-4.4h4.9V31h-4.9v-4.8h4.8v2.2h2.8v-4.8H70.1V26.2z M135.3,11.9c-0.9,0-1.3,0-1.6-0.1
			V6.4h1.6c2.3,0,3.8,0.8,3.8,2.6C139,10.8,137.5,11.9,135.3,11.9 M130.8,18h-2.2v-2.2h-2.8v2.2h-5v-4.7h5.1v-2.4h-5.1V6.4h5v2.2
			h2.8V6.4h2.2V18z M138.8,13.5c1.8-0.7,3.2-2.4,3.2-4.6c0-3.4-2.8-5.1-6.6-5.1h-24.9v2.6h1.9l-3.6,9.2l-3.6-9.2h1.8V3.9h-6.6v2.6
			h1.5l6.1,14.4h1.6l6.1-14.4h2.5V18h-1.9v2.6h19.6V18h-2.1v-3.8c0.4,0,0.8,0,1.4,0c0.3,0,0.7,0,1-0.1l3.4,6.4h3.9V18h-1.9
			L138.8,13.5z M103.5,15.7h-2.8v2.4h-4.6V6.4h2.2V3.9h-7v2.6h1.9V18h-1.9v2.6h12.2V15.7z M90,18h-2V6.4h2V3.9H83v2.6h2V18h-2v2.6
			H90V18z M76,20.9c3.4,0,5.9-1.8,5.9-5c0-3.1-2.3-4.1-5.3-5.2c-1.7-0.6-3.1-1.2-3.1-2.6c0-1.2,1-2.1,2.6-2.1c1,0,1.8,0.2,2.2,0.5
			c-0.1,0.2-0.2,0.4-0.2,0.8c0,0.8,0.7,1.7,1.8,1.7c1,0,1.7-0.7,1.7-1.9c0-2-2.4-3.6-5.6-3.6c-3.4,0-5.6,2.1-5.6,4.8
			c0,3.1,2.2,4.1,5.3,5.2c1.7,0.6,3.1,1.2,3.1,2.6c0,1.5-1.2,2.3-3,2.3c-1.1,0-2-0.3-2.7-0.7c0.2-0.3,0.2-0.6,0.2-1
			c0-0.8-0.7-1.7-1.8-1.7c-1,0-1.8,0.8-1.8,2C70,19.1,72.7,20.9,76,20.9"/>
	</g>
	<g>
		<defs>
			<rect id="SVGID_5_" width="145.4" height="63.8"/>
		</defs>
		<clipPath id="SVGID_6_">
			<use xlink:href="#SVGID_5_"  style="overflow:visible;"/>
		</clipPath>
		<path class="st2" d="M40.6,31.2c0.1,0.3,0.3,0.8,0.3,1.5c-0.1-0.2-0.5-0.8-1-1.3c-0.5,0.1-1,0.3-1.5,0.4c-0.4,0.1-1.2,0.3-2.1,0.6
			c0.2,0.1,0.3,0.3,0.5,0.5c0.4,0.5,0.8,1.1,1.1,1.9c-0.2-0.3-1.6-1.4-3-2c-0.7,0.2-1.2,0.3-1.2,0.3c-0.7,0.2-1.4,0.4-2.2,0.7
			c0.6,0.4,1.3,0.9,2,1.6c0.5,0.5,1,1.1,1.4,1.8c-1.2-0.8-3.6-2-5.8-2.2c-0.9,0.5-1.7,1.1-2.6,1.9c1.4,0.4,2.9,1.2,4.6,3
			c0.3,0.3,0.6,0.6,0.9,0.9c-1.8-1.1-5-1.9-7.5-1.8c-0.7,0.9-1.5,1.9-2.1,3c1.7-0.1,4,0.3,6.9,2c0.4,0.2,0.8,0.5,1.2,0.8
			c-2.4-0.8-7.1-1-9.4,0.1c-0.1,0.4-0.4,1.8-0.4,3.3c4.6-0.9,7.3-0.1,10.1,0.7c1.5-11.9,8.9-13.4,16.4-19.9l0,0
			C45.7,29.5,43.6,30.4,40.6,31.2"/>
	</g>
	<g>
		<defs>
			<rect id="SVGID_7_" width="145.4" height="63.8"/>
		</defs>
		<clipPath id="SVGID_8_">
			<use xlink:href="#SVGID_7_"  style="overflow:visible;"/>
		</clipPath>
		<path class="st3" d="M31.9,60c-0.5,0-1,0-1.5,0c-0.3,0-0.6-0.1-0.9-0.1c-7.3-1.1-10.2-5.7-10.8-9.6c-0.9-5.1,1.1-7.9,2.3-9.6
			c3.6-5.3,8.5-7.6,12.8-8.8c0,0,3.8-1.1,4.8-1.3c4.9-1.2,8-2.5,9.5-3.3c1.1-0.6,2.7-1.8,3.6-3.5c0,0,1.3-2,1-4.3
			c-0.3-2.9-2.4-4.3-4.3-4.5c-0.2,0-0.4,0-0.5,0c-0.7,0-1.4,0.3-2,0.6c-0.6,0.4-1,0.9-1.2,1.5c0,0-0.2,0.4-0.2,1v0
			c0,1.4,1.1,2.5,2.5,2.5s2.5-1.1,2.5-2.5c0-0.4-0.1-0.7-0.2-1.1c0.7,0.4,1,1.1,1.2,1.8c0,0.3,0.1,0.6,0,1c0,0.3,0,0.5-0.1,0.8
			c-0.3,0.9-0.8,1.7-2.3,2.3c-0.6,0.2-1.2,0.3-1.9,0.4c0,0.7-0.2,1.6-0.9,2.5c-0.1,0.1-0.2,0.3-0.4,0.4c0.3-0.9,0.3-1.9,0.1-2.7
			c-0.8,0.1-1.7,0.2-2.5,0.2c0.1,0.9,0.1,2-0.7,3.2c-0.1,0.2-0.2,0.4-0.4,0.5c0.3-1.2,0.1-2.6-0.3-3.7c-0.8,0-1.7,0.1-2.6,0.1
			c0.2,1,0.3,2.4-0.6,4c-0.1,0.2-0.3,0.4-0.5,0.6c0.4-1.5-0.1-3.4-0.7-4.6c-1,0.1-1.9,0.1-2.9,0.2c0.3,1.1,0.5,2.6-0.3,4.4
			c-0.1,0.3-0.3,0.5-0.5,0.8l0,0c0.2-1.7-0.5-3.6-1.3-4.9c-1.1,0.1-2.2,0.3-3.3,0.5c0.6,1.1,1.1,2.7,0.8,4.9c0,0.3-0.1,0.6-0.2,1
			c-0.2-2-1.5-4-2.7-5.3c-1.2,0.3-2.4,0.7-3.5,1.2c0.9,1,1.9,2.5,2.1,4.8c0,0.3,0,0.7,0,1.1c-0.8-2.1-2.8-3.9-4.4-4.9
			c-1.1,0.6-2.1,1.2-3.1,1.9c1.2,0.8,2.6,2,3.5,4.4c0.1,0.3,0.3,1,0.4,1.4c-1.4-2-4-3.6-5.9-4.2c-1,0.9-1.9,1.8-2.6,2.7
			c1.9,1,4.4,3.1,5.4,5.8v0c-1.8-1.7-5.1-2.8-7.5-3c-1.2,1.8-1.8,3.2-1.9,3.4c3.6,1,5.3,2.2,6.2,3.1v0c0.8,0.8,0.6,1.7,0.6,1.7
			c-0.1,0.5-0.2,1-0.3,1.6c-0.5,3.4-0.2,6.1,0.5,8.3c-7.2-5.1-12-13.6-12-23.1c0-15.6,12.6-28.2,28.2-28.2
			c15.6,0,28.2,12.6,28.2,28.2S47.5,60,31.9,60 M31.9,0C14.3,0,0,14.3,0,31.9s14.3,31.9,31.9,31.9s31.9-14.3,31.9-31.9
			S49.5,0,31.9,0"/>
	</g>
	<g>
		<defs>
			<rect id="SVGID_9_" width="145.4" height="63.8"/>
		</defs>
		<clipPath id="SVGID_10_">
			<use xlink:href="#SVGID_9_"  style="overflow:visible;"/>
		</clipPath>
		<path class="st4" d="M129.8,25.4c0-1,0.8-1.8,1.7-1.8s1.7,0.8,1.7,1.8c0,1-0.8,1.8-1.7,1.8C130.6,27.1,129.8,26.4,129.8,25.4
			 M130.2,25.4c0,0.8,0.6,1.4,1.3,1.4c0.7,0,1.3-0.6,1.3-1.4c0-0.8-0.6-1.4-1.3-1.4C130.8,23.9,130.2,24.5,130.2,25.4 M130.9,25.8
			h0.2v-1h-0.2v-0.3h0.6c0.4,0,0.6,0.2,0.6,0.5c0,0.2-0.1,0.4-0.3,0.5l0.2,0.4h0.2v0.3h-0.4l-0.3-0.6h-0.2v0.3h0.2v0.3h-0.6
			L130.9,25.8L130.9,25.8z M131.5,25.2c0.2,0,0.3-0.1,0.3-0.2c0-0.1-0.1-0.2-0.3-0.2h-0.1v0.4C131.4,25.3,131.5,25.3,131.5,25.2z"/>
	</g>
</g>
</svg>
