<?xml version="1.0" encoding="utf-8"?>
<!-- Generator: Adobe Illustrator 23.0.1, SVG Export Plug-In . SVG Version: 6.00 Build 0)  -->
<svg version="1.1" id="Layer_1" xmlns="http://www.w3.org/2000/svg" xmlns:xlink="http://www.w3.org/1999/xlink" x="0px" y="0px"
	 viewBox="0 0 1024 765" style="enable-background:new 0 0 1024 765;" xml:space="preserve">
<style type="text/css">
	.st0{clip-path:url(#SVGID_2_);fill:#E7E2CF;}
	.st1{clip-path:url(#SVGID_2_);fill:#D1C4A0;}
</style>
<title>SFF1693_Foodservice Trade Presenter_Texture_BG</title>
<g>
	<defs>
		<rect id="SVGID_1_" x="-5.4" y="274.4" width="1032.6" height="490.6"/>
	</defs>
	<clipPath id="SVGID_2_">
		<use xlink:href="#SVGID_1_"  style="overflow:visible;"/>
	</clipPath>
	<path class="st0" d="M671.6,551.2l-71.4-133.1c-1.9-0.5-57.4-4.8-59.2-5.6c-0.8-0.4-1.7-0.5-2.2-1.3c-0.7-1.3-2.1-1.7-3.3-2.1
		c-1.6-0.6-34.8-11.9-36.4-12.1c-0.9-0.1-2-0.5-2.6-0.1c-2.4,1.3-4.1,0.2-5.9-1c-0.3-0.2-0.6-0.6-1.1-0.5c-2.7,0.6-4.4-1.5-6.6-2.3
		c-0.3-0.1-0.7-0.2-0.8-0.5c-1.2-3.4-13-3.3-13.1-3.4c-0.1-0.1-5.5,0.5-7.9-0.2c-1.8-0.6-3.7-0.8-5.6-0.7c-1.2,0.1-2.4,0-3.8-0.4
		c-2-0.7-4.4-1-6.7-0.7c-2.3,0.3-4.3-0.2-6.3-1.7c-2-1.4-4.5-2.2-6.8-3.1c-1.4-0.6-13.9-5.8-17.3-4.3c-1.6,0.7-3.4,0.5-5.1,0.8
		c-0.6,0.1-15-2.3-17.1-2.8c-3.2-0.8-6.4-0.9-9.6-0.1c-1.7,0.4-3.5,0.6-5-0.2c-0.9-0.4-1.7-0.4-2.5-0.4c-2.5-0.1-4.3-1.2-6-2.8
		c-1.3-1.2-3.2-1.2-4.8-1.5c-1.8-0.4-12.7-3.6-13.7-5.1c-0.3-0.4-1.1-0.5-1.6-0.9c-1.6-1.1-9.5-3.1-12.9-2.8
		c-1.3,0.1-2.5,0.1-3.4-0.4c-2.7-1.5-5.6-1.3-8.5-1.4c-1.7-0.1-11.3-2.7-14-2.4c-4.6,0.5-13.7-2.6-15.9-2.8
		c-1.5-0.2-9.8,0.6-11.6-1.9c-0.9-1.3-2.5-2.2-3.2-3.8c-0.5-1.1-23.2-5.7-25.5-7.6c-1.3-1.1-7.9-1.7-9.4-2.2
		c-2.6-0.8-5.3-1.1-7.7-2.3c-0.5-0.3-1.4-0.4-1.9-0.2c-2.5,1.1-5.2,0.1-7.7,0.4c-0.8,0.1-1.7-0.2-2.5-0.5c-1.1-0.5-7.5-3.3-9-3.3
		c-2,0-10-2.3-11.3-3.1c-2.3-1.5-14.2-1.8-16-1.6c-0.6,0.1-11.2-1.7-13.6-3c-2.3-1.2-15-4.4-17.9-5.9c-0.7-0.4-1.3-0.7-2.2-0.5
		c-0.5,0.1-14.7-1.1-18-2.3c-1.3-0.5-8.2-1-9.7-1.7l-0.9-0.1c-3.3-0.3-6.4,0.1-9.4,1.3c-1.6,0.7-3.3,1.1-5,0.5
		c-0.9-0.3-1.8-0.2-2.5-0.1c-2.5,0.3-4.4-0.5-6.4-1.9c-1.4-1-3.3-0.7-5-0.8c-1.9-0.1-13.1-1.7-14.4-3.1c-0.4-0.4-1.2-0.4-1.8-0.7
		c-1.8-0.9-9.9-1.7-13.2-0.9c-1.2,0.3-2.4,0.5-3.5,0.1c-2.9-1.1-5.7-0.5-8.6-0.2c-1.7,0.2-11.6-1-14.2-0.3
		c-4.4,1.2-13.9-0.5-16.1-0.5c-1.5,0-9.6,2.1-11.7-0.2c-1.1-1.2-2.8-1.8-3.8-3.2c-0.4-0.5-7.7-1.2-14.5-1.9v202.8l24.3,14.8
		L671.6,551.2z"/>
	<path class="st1" d="M1027.3,274.4c-5,0.8-12.7,2-15.1,1.8c-1-0.1-6.8,1-8.6,0.6c-2.4-0.5-8.1,2.4-8.9,2.6
		c-3.9,0.9-23.3,4.6-27.6,5c-2.2,0.4-10.2,0.8-12.8,2.7c-1.6,1.2-3.3,2-5.3,2.2c-1.6,0.2-2.9,0.7-4.1,1.7c-0.2,0.2-1.1,1.2-2.7,1.7
		c-5.9,1.3-7.7,4.9-12.8,7.5c-3.6,1.9-7.1,4.1-9.9,7.1c-0.2,0.2-0.4,0.6-0.6,0.6c-4.2,0.6-7.6,3.9-11.8,4.1
		c-2.8,0.1-5.2,0.7-7.8,1.5c-2.6,0.9-41.9,0.1-46.6,1.2c-2,0.4-4,1-5.3,2.2c-2.7,2.6-6,3-9.3,3.2c-1.7,0.1-2.9,0.6-4.1,1.4
		c-3.3,2.4-18.3,3.2-21.9,2.4c-4.2-0.8-8.6-1.7-12.9,0.9c-2.4,1.5-5.2,2.2-7.6,3.9c-2,1.4-5.3,1.3-8,2c-3.1,0.8-45.8,18.9-48.2,18.6
		c-1.1-0.1-2.2,0.5-3.3,0.9c-4.9,1.8-10.1,2.1-15.3,2.3c-1.6,0.1-12,0.8-14.5,1.8c-2.6,1-5.7,0.8-8.6,1.4c-1.8,0.4-3.5,0.8-4.8,1.9
		c-2.8,2.4-6.1,3-9.6,2.5c-2.6-0.3-23,2.4-24.3,3.1c-4.9,2.5-31.9,24.1-34.6,24.1c-3.4,0-19.9,3.3-20.2,3.2c-2.4-1-10,1.7-11.4,1.8
		c-2.1,0.2-19,1.9-23.4,3.2c-3,0.9-6.1,2-9.4,1.5c-1.1-0.1-2.7,0.1-3.7,0.6c-4.2,2-8.9,2.1-13.1,3.8c-2.1-1.2-10.7,1.3-11.9,3.6
		c-0.9,1.7-17.1,3.9-21.1,6.4c-0.8,0.5-1.6,1-2.5,1.4c-2.2,0.8-6,2.2-8,2.7c-2.9,0.6-3.8,1.1-6.8,2.4c-4,1.5-7.4,1.9-11,0.3
		c-1.7-0.7-2.9-0.7-3.8,0.8c-0.7,1.2-1.4,1.1-2.8,1.2c-1.8,0.1-3.9-0.1-5.6,1.8c-1.1,1.2-3.2,1.5-5,1.4c-3-0.2-5.7,0.5-8.1,2.4
		c-0.6,0.4-7.2,1-7.7,0.9c-3.2-0.7-14.9-2.3-16.9,0.4c-0.4,0.6-1.4,1.1-2.4,0.8c-4.1-1.4-2.5,1.3-6.7,1.2
		c-3.6-0.1-27.3-2.3-30.5-0.4c-2,1.2-3.7,2-6.3,1.1c-2.4-0.8-4.7,1.3-7.2,1.4l-88.9,8c0,0,25.5-1.5-8.3,0.8
		c-7.8,0.5-22.5,5.8-45.1,13.8c-1.7,0.6-16.3,2.4-20.9,5.9c-1.7,1.3-13.2,8.2-20.4,10.2c-4.3,1.2-3.7-2.1-8-1.7
		c-4,0.4-5.5-1.2-8.1-2.1c-4.2-1.4-16.6,1.1-27.7,3.1c-7.6,1.3-15.9,5.7-22.7,7.6c-6.9,1.9,1.6,0-9.7,2.1c-1.6,0.3-7.2,5.1-9.1,5.9
		c-7.9,3.1-21,2.9-31.4,3c-4.1,0.1-9.8,1.7-13.1,1.8c-19.9,0.5-19.6,0.1-24.7,1.6c-5.1,1.6-8,2.7-9.1,3.8c-1.1,1-4,4-8.6,3.8
		c-6.1-0.4-15.2,0.5-24.4,1.9v21.9c0.7,0.2,1.4,0.4,2.1,0.6V765h1030V580.4v-64.9v-70.1l0.5-0.1V274.4z"/>
</g>
</svg>
