<svg id="Layer_1" data-name="Layer 1" xmlns="http://www.w3.org/2000/svg" xmlns:xlink="http://www.w3.org/1999/xlink" viewBox="0 0 1024 765"><defs><style>.cls-1{fill:none;}.cls-2{clip-path:url(#clip-path);}.cls-3{fill:#b8ab7c;}</style><clipPath id="clip-path"><rect class="cls-1" y="269.99" width="1024" height="495.01"/></clipPath></defs><title>SFF1693_Foodservice Trade Presenter_Texture_BG</title><g class="cls-2"><path class="cls-3" d="M1024,462V270a23.8,23.8,0,0,1-5.55.76,8,8,0,0,0-4.61,1.62c-3.76,2.75-20.78,3.57-24.85,2.77-4.75-.94-9.78-2-14.67,1.06-2.7,1.67-5.86,2.5-8.64,4.45-2.23,1.55-6,1.51-9,2.29-3.47.88-51.88,21.39-54.58,21.11-1.29-.13-2.51.61-3.76,1.06-5.59,2-11.46,2.37-17.34,2.55-1.84,0-13.55.89-16.45,2s-6.49,1-9.76,1.62a11.71,11.71,0,0,0-5.4,2.11,13.36,13.36,0,0,1-10.86,2.89c-2.93-.39-26.09,2.72-27.51,3.45-5.59,2.89-36.18,27.26-39.18,27.27-3.82,0-22.6,3.73-23,3.59-2.73-1.13-11.33,1.92-13,2.05-2.39.19-21.56,2.15-26.51,3.67-3.39,1.05-6.9,2.23-10.67,1.73a8.56,8.56,0,0,0-4.18.66c-4.72,2.31-10.1,2.38-14.9,4.36-2.43-1.42-12.1,1.47-13.48,4.13-1,1.88-19.37,4.47-23.89,7.27a17,17,0,0,1-2.85,1.54,83,83,0,0,1-9,3,31.6,31.6,0,0,0-7.76,2.75c-4.59,1.73-8.36,2.12-12.44.36-2-.84-3.25-.77-4.26.94-.79,1.34-1.61,1.23-3.11,1.35-2,.17-4.48-.06-6.35,2-1.2,1.33-3.62,1.76-5.71,1.6a12.91,12.91,0,0,0-9.17,2.68c-.64.49-8.21,1.12-8.74,1-3.62-.81-16.86-2.65-19.13.5a2.47,2.47,0,0,1-2.74.88c-4.65-1.53-2.86,1.49-7.61,1.38-4.13-.09-30.93-2.58-34.59-.43-2.22,1.31-4.23,2.22-7.12,1.3-2.69-.87-5.35,1.43-8.19,1.6L397,405.62a31.7,31.7,0,0,1-5.61-1.93c-2.66-1.69-16.08-2-18.15-1.83-.73.06-12.64-2-15.4-3.43s-16.95-5-20.26-6.71a3.41,3.41,0,0,0-2.45-.52c-.61.14-16.6-1.21-20.43-2.65-1.51-.56-9.26-1.17-11-1.91l-1-.16A21.66,21.66,0,0,0,292,388a8.18,8.18,0,0,1-5.67.61,6.42,6.42,0,0,0-2.88-.08c-2.8.35-5-.62-7.23-2.14-1.62-1.11-3.75-.81-5.66-.92-2.12-.12-14.85-1.91-16.29-3.46-.39-.43-1.31-.42-2-.75-2-1-11.18-1.88-14.92-1a6.58,6.58,0,0,1-3.92.09c-3.28-1.29-6.5-.51-9.75-.2-1.93.18-13.14-1.12-16.06-.36-5,1.32-15.74-.62-18.24-.57-1.7,0-10.88,2.35-13.27-.17-1.29-1.36-3.15-2.08-4.31-3.67-.8-1.1-26.94-2.55-29.81-4.32-1.69-1-9.14-.6-10.93-.88-3-.47-6.11-.31-9.06-1.31a2.91,2.91,0,0,0-2.12.1c-2.63,1.63-5.76,1-8.56,1.77a5.66,5.66,0,0,1-2.85-.16c-1.34-.38-8.92-2.49-10.63-2.25-2.24.3-11.62-.87-13.17-1.56-2.89-1.29-16.17.36-18.18.84-.71.16-12.78-.11-15.73-1.14s-17.5-2.47-21-3.69a3.38,3.38,0,0,0-2.5-.16c-.58.23-16.55,1.23-20.56.37-.92-.2-3.94-.24-6.65-.34V508.57l.61.37V765H1023.39V462.15Z"/></g></svg>