<svg id="Layer_1" data-name="Layer 1" xmlns="http://www.w3.org/2000/svg" xmlns:xlink="http://www.w3.org/1999/xlink" viewBox="0 0 1024 765"><defs><style>.cls-1{fill:none;}.cls-2{clip-path:url(#clip-path);}.cls-3{fill:#a99c62;}</style><clipPath id="clip-path"><rect class="cls-1" y="426.77" width="1024" height="338.23"/></clipPath></defs><title>SFF1693_Foodservice Trade Presenter_Texture_BG</title><g class="cls-2"><path class="cls-3" d="M1024,765V426.79a5.62,5.62,0,0,0-.57.09c-2.49.61-5,.15-7.54.86-2.36.65-5.15.57-7.7.85-2.21.24-4,.18-5.76-.95s-13.55-1-15.48-.37c-1.1.36-7.13-.79-8.72-.15-2.45,1-15.68,2.78-17.31,2.73-3.55-.11-6.82.9-10.14,1.41-4,.62-8.27,1.24-12,3.14-2.55,1.29-5.12,1.74-7.86.48-1.74-.8-4-1-5.39-.15a6.82,6.82,0,0,1-5.06.81c-4.37-.85-8.36.65-12.27,1.75-4.38,1.23-21.12,1.59-26.77,2.94-6.59,1.49-33,1.31-34,4.83a4.31,4.31,0,0,1-4.23,3.07c-4,.05-7.88,1.52-12,1.34-3.23-.14-15.89,3.89-19.26,4.22l-4.41.72c-5.6-.13-11.08,0-16.17-2.21-1.52-.67-2.62-.05-4,.18-2.54.43-5,1.76-7.66,1-2.4-.66-4.7-1.93-5.57,1.8-.2.88-1.45.28-2.28.27-6.58-.05-12.76.62-17.92,5.48-1.84,1.73-5,3.58-8.12,2.77-2.48-.65-4.46.16-6.68.56-6.72,1.19-13.25,4.35-20.3,2.06a2.23,2.23,0,0,0-2.42.58c-1,1.05-2.23.81-3.45.52-2.69-.63-4.89.61-7.32,1.45-4,1.41-8,3.07-12.65,2.44-5.08-.7-10.22-1.26-15.43.73-2.29.87-5.1,1.54-7.76.63-3.32-1.14-6-.23-8.75,1.89,0,0-3.2,1.81-5.51,3-3.72.65-7.33,1-11,2.31-3.9,1.36-8.52,1.88-12.25-.07-4.52-2.36-9.45-2.44-14.25-3.06-3.64-.47-15.82-3.49-18.17-3.17-7.12,1-14.49-3-21.46,1.1-.21.12-.69-.2-1-.17-5.31.5-10.79.44-15.87,1.72-4.5,1.13-8.84,2.38-13.53,2.34-1,0-16.62.44-20.53,1.35-1.78.41-16.3-1.83-18.91-3.48a25.56,25.56,0,0,0-15.1-3.49c-3.71.24-7.83.21-11.29,1.19-3.86,1.1-9-1-11.75,3.46-.32.52-2,.57-3,.51-2.65-.18-5.09-.69-7.13-2.61a5.76,5.76,0,0,0-6.06-1.54c-3.55.94-7.51.7-11.29,1-4.2.38-8.52.39-12.07,2.74a15,15,0,0,1-9.13,2.11c-11.9-.42-23.82-.76-35.66-2-.71-.07-1.41-.33-2,0-4.23,2.37-9.12,2.15-13.68,3.22a9.15,9.15,0,0,1-6-.23,19.82,19.82,0,0,0-6.61-1c-3.6-.19-12-2.65-12.72-2.74-2.09-.28-10.91-.41-12.73,1.35-1.51,1.47-12,3.65-14.75,3.16-3.3-.58-6.48,1.23-9.71.68-3.78-.64-19,2-21.92,1.85-3.5-.16-6.95-1.74-10.31-.92-3.19.79-6.4.19-9.65,1.1L0,466.14V765Z"/></g></svg>