<?xml version="1.0" encoding="utf-8"?>
<!-- Generator: Adobe Illustrator 23.0.1, SVG Export Plug-In . SVG Version: 6.00 Build 0)  -->
<svg version="1.1" xmlns="http://www.w3.org/2000/svg" xmlns:xlink="http://www.w3.org/1999/xlink" x="0px" y="0px"
	 viewBox="0 0 357.5 357.5" style="enable-background:new 0 0 357.5 357.5;" xml:space="preserve">
<style type="text/css">
	.st0{opacity:0.41;fill:#FFFFFF;}
	.st1{opacity:0.65;}
	.st2{opacity:0.26;fill:#B5BF30;}
	.st3{fill:#CAD3BD;}
	.st4{fill:#B6CFD8;}
	.st5{fill:none;stroke:#000000;stroke-width:1.8736;stroke-miterlimit:10;}
	.st6{fill:none;stroke:#000000;stroke-width:1.9765;stroke-miterlimit:10;}
	.st7{fill:#231F20;}
	.st8{fill:#FFF5EC;}
	.st9{clip-path:url(#SVGID_2_);fill:none;stroke:#FFF5EC;stroke-width:1.3016;stroke-miterlimit:10;}
	.st10{clip-path:url(#SVGID_4_);}
	.st11{clip-path:url(#SVGID_6_);fill:#1D1D1B;}
	.st12{clip-path:url(#SVGID_8_);fill:#1D1D1B;}
	.st13{clip-path:url(#SVGID_10_);fill:#1D1D1B;}
	.st14{clip-path:url(#SVGID_12_);}
	
		.st15{clip-path:url(#SVGID_14_);fill:none;stroke:#1D1D1B;stroke-width:0.3827;stroke-miterlimit:10;stroke-dasharray:3.9091,7.8183;}
	.st16{clip-path:url(#SVGID_14_);fill:#1D1D1B;}
	.st17{clip-path:url(#SVGID_14_);fill:none;stroke:#1D1D1B;stroke-width:0.3369;stroke-linejoin:bevel;stroke-miterlimit:10;}
	.st18{clip-path:url(#SVGID_14_);fill:none;stroke:#1D1D1B;stroke-width:0.1685;stroke-miterlimit:10;}
	.st19{clip-path:url(#SVGID_16_);}
	.st20{clip-path:url(#SVGID_18_);fill:none;stroke:#1D1D1B;stroke-width:0.4145;stroke-miterlimit:10;}
	.st21{clip-path:url(#SVGID_18_);fill:none;stroke:#1D1D1B;stroke-width:0.7298;stroke-miterlimit:10;}
	.st22{clip-path:url(#SVGID_20_);fill:none;stroke:#1D1D1B;stroke-width:0.3649;stroke-miterlimit:10;}
	.st23{clip-path:url(#SVGID_22_);fill:none;stroke:#1D1D1B;stroke-width:0.3649;stroke-miterlimit:10;}
	.st24{clip-path:url(#SVGID_24_);fill:#1D1D1B;}
	.st25{clip-path:url(#SVGID_26_);fill:none;stroke:#000000;stroke-width:0.9883;stroke-miterlimit:10;}
	.st26{clip-path:url(#SVGID_28_);fill:none;stroke:#000000;stroke-width:0.9883;stroke-miterlimit:10;}
	.st27{clip-path:url(#SVGID_30_);fill:none;stroke:#000000;stroke-width:0.9883;stroke-miterlimit:10;}
	.st28{display:none;}
	.st29{display:inline;}
	.st30{fill:none;stroke:#FF00FF;stroke-width:0.2;stroke-miterlimit:10;}
	.st31{display:inline;fill:none;stroke:#FF00FF;stroke-width:0.2;stroke-miterlimit:10;}
</style>
<g id="Layer_1">
	<circle class="st0" cx="178.6" cy="178.8" r="175.7"/>
	<g class="st1">
		<path class="st2" d="M26.2,267.1l63.9-38.3C62.4,179.4,80.9,117.3,129,90.3C150,78.5,178.7,77,178.7,77l0.9-73.8
			c0,0-42.2-2.6-86.9,22.5C8.3,73.2-21.8,181.6,26.2,267.1z"/>
		<path class="st3" d="M178.7,3.1l0,74c56.6,0,101.7,46.6,101.7,101.7c0,24.1-12.8,49.9-12.8,49.9l63.9,36.9
			c0,0,22.9-35.6,22.9-86.8C354.4,81.9,276.7,3.1,178.7,3.1z"/>
		<path class="st4" d="M331.7,266.1L268,228.5c-28.6,49.3-92.6,67.4-141.7,37.9c-20.8-12.5-37.1-37.2-37.1-37.2l-63.1,37.9
			c0,0,18.2,36.9,62.9,62.8C173.5,378.9,281.2,352.6,331.7,266.1z"/>
	</g>
	<circle class="st5" cx="178.7" cy="178.8" r="175.7"/>
	<g>
		<g>
			<g>
				<path d="M55.9,121.5c-0.6,0.2-1,0.5-1.5,0.7c-0.2-0.4-0.4-0.8-0.6-1.2c0.5-0.3,0.9-0.5,1.5-0.7
					C55.6,120.9,55.8,121.2,55.9,121.5z M56.6,119.6c-0.6,0.2-1,0.5-1.5,0.7c-0.2-0.4-0.4-0.8-0.6-1.2c0.5-0.3,0.9-0.5,1.5-0.7
					C56.3,118.9,56.5,119.2,56.6,119.6z M63,125.3c-0.4,1-1.1,1.6-1.9,1.3c-0.3-0.1-0.6-0.4-1-0.8c-0.7-0.8-1.1-2.2-1.3-4.3
					l-0.8-0.3c-0.2-0.4-0.3-0.8-0.5-1.1l0-0.1c1.5,0.6,3,1.3,4.6,1.9c0.7,0.3,1.2,0.4,1.5,0.2c0.3-0.1,0.5-0.5,0.7-0.9l0.1-0.2
					l1.2,0.5l-0.1,0.2c-0.4,1-1,1.5-2.2,1.4C63.4,123.8,63.4,124.5,63,125.3z M59.9,121.9c0.2,2.1,0.5,3.3,1,3.6
					c0.4,0.2,0.8-0.3,1.1-1c0.2-0.4,0.3-0.9,0.3-1.6L59.9,121.9z"/>
				<path d="M64.6,120.8c0.4-0.7,0.4-1.6,0-2l-0.9-0.8l-0.2-0.9l0.1,0c0.4,0.4,0.8,0.6,1,0.8c0.3,0.2,0.7,0.2,0.9,0.1
					c0.4-0.2,0.7-0.5,1-1l0.1-0.2l1.2,0.6l-0.1,0.2c-0.5,0.9-1.1,1.5-1.9,1.5l0,0c0.5,0.6,0.4,1.6,0,2.4l-0.1,0.2
					c-0.3,0.5-0.7,0.5-1,0.4c-0.2-0.1-0.5-0.4-0.3-1L64.6,120.8z M70.2,122.2c-0.6,0.2-1,0.4-1.5,0.6c-0.2-0.4-0.4-0.8-0.5-1.2
					c0.5-0.2,1-0.4,1.6-0.6C69.9,121.5,70,121.8,70.2,122.2z M70.9,120.3c-0.6,0.2-1,0.4-1.5,0.6c-0.2-0.4-0.4-0.8-0.5-1.2
					c0.5-0.2,1-0.4,1.6-0.6C70.7,119.6,70.8,119.9,70.9,120.3z"/>
				<path d="M66.9,116.1c0.2-0.4,0.4-0.9,0.6-1.5l0,0c-0.8,0.4-1.6,0.5-2.4,0.1c-0.4-0.2-0.7-0.6-1-1.1c-0.5-0.8-0.6-1.8-0.2-2.6
					c0.5-0.9,1.4-1.3,2.7-1.2l0.1,0.3c-0.7,0.3-1.1,0.7-1.5,1.3c-0.5,1-0.5,2-0.2,2.1c0.4,0.2,1,0.2,1.8-0.1c0.5-0.2,1-0.6,1.1-0.8
					c0.4-0.7,0.6-1.7,0.8-3l0.1,0l0.9,1.1c-0.3,1.7-0.6,2.5-0.9,3.8c-0.2,0.9-0.3,1.8-0.8,2.5l-0.2,0.3c-0.3,0.5-0.7,0.4-1,0.3
					c-0.2-0.1-0.5-0.5-0.2-1L66.9,116.1z"/>
				<path d="M73.8,104.1c0.1-0.7-0.3-1.2-0.7-2c-0.3-0.5-0.5-1-0.8-1.7l0.1-0.1c1.1-0.1,2-0.1,3.1-0.3c1.1-0.2,1.8-0.6,2.2-1.2
					l0.1-0.1l1.1,0.8l-0.1,0.1c-0.5,0.7-1.1,1.1-2.1,1.2l0,0l0.1,0.1c1.2,0.8,1.4,1.8,1.1,2.3c-0.6,0.9-2,1.1-3.1,0.6l0,0
					c0.3,0.7,0.3,1.4-0.2,2.1c-0.3,0.5-0.8,0.9-1.4,1c-0.9,0.2-1.6-0.2-2.8-1.1c-1.7-1.1-3.5-2.2-5.4-3.4c-0.1-0.5-0.2-1-0.3-1.4
					l0.1,0c2,1.2,4.3,2.7,6.5,4.2l0.5,0.3c0.6,0.4,1,0.2,1.4,0c0.2-0.2,0.4-0.4,0.5-0.5C73.6,104.8,73.7,104.4,73.8,104.1z
					 M73.3,101.4c0.3,0.6,0.5,1,0.9,1.2c0.7,0.5,2,0.5,2.5-0.3c0.1-0.2,0.1-0.7-0.3-0.9c-0.2-0.2-0.5-0.2-1-0.2
					C74.7,101.3,74.1,101.4,73.3,101.4L73.3,101.4z"/>
				<path d="M75.4,95.3c-0.6,0.1-1.1,0.2-1.6,0.3c-0.1-0.5-0.2-0.9-0.3-1.3c0.5-0.1,1-0.2,1.6-0.3C75.3,94.6,75.4,94.9,75.4,95.3z
					 M76.6,93.6c-0.6,0.1-1.1,0.2-1.6,0.3c-0.1-0.5-0.2-0.9-0.3-1.3c0.5-0.1,1-0.2,1.6-0.3C76.4,92.9,76.5,93.2,76.6,93.6z
					 M77.9,98.7c0.5-0.6,0.8-1.5,0.4-2l-0.7-0.9l0-0.9l0.1,0c0.3,0.5,0.6,0.8,0.8,0.9c0.3,0.2,0.6,0.3,0.9,0.3
					c0.4-0.1,0.8-0.3,1.1-0.8l0.1-0.2l1.1,0.8l-0.1,0.2c-0.6,0.8-1.3,1.3-2.2,1.1l0,0c0.3,0.7,0.1,1.6-0.4,2.3l-0.1,0.2
					c-0.4,0.5-0.8,0.3-1,0.2c-0.2-0.2-0.4-0.5-0.1-1L77.9,98.7z"/>
				<path d="M81.1,94.5c1.1-1.3,1.8-3,2.3-5.5l0,0c-1.2,0.6-2.1,1.3-2.8,2c-0.4,0.5-0.5,0.9-0.5,1.4l0.5,0.3l0.5,0.9L81,93.5
					L79.7,93c-0.8-0.8-0.8-2,0.1-3c0.5-0.5,1.4-1.2,3-2c0.5-0.3,1-0.6,1.5-1.1l0.6-0.7l0,0l0.5,1.2c-0.6,0.7-0.9,1.2-0.9,1.6
					L84,91.1c-0.2,1.7-0.9,3.1-2,4.4l-0.4,0.4c-0.4,0.4-0.8,0.3-1,0.1c-0.2-0.2-0.4-0.6,0-1L81.1,94.5z M85.5,94
					c0.5-0.1,1.1-0.2,1.7-0.2c0.1,0.4,0.2,0.9,0.2,1.3c-0.6,0.1-1.1,0.1-1.6,0.2C85.6,94.9,85.5,94.4,85.5,94z"/>
				<path d="M86.3,75.2c0,0.1,0.1,0.1,0.1,0.2c0.4,0.5,1.2,0.7,2.1,1c0,0.2,0,0.5-0.1,0.8c0.9,0.9,1.8,1.8,2.7,2.7
					c0.5,0.5,0.9,1.2,1.2,1.7c0.4,0.8,0.5,1.4,0.4,2.1c-0.2,0.9-0.7,1.9-1.3,2.5c-0.7,0.7-1.5,1.1-2.2,1.5L89,87.6
					c1.3-1.6,2.2-3.1,2.5-4.3c-0.3-0.3-1.3-0.5-2.4-0.7c-1.2-0.3-2.5-0.5-4-0.9C84,81.4,83.3,81.2,83,81c-0.2-0.2-0.3-0.8-0.4-1.1
					l0,0c0.7,0.1,1.6,0.1,2.5,0.1l0.2,0.7c1.8,0.4,3.4,0.8,4.6,1.2c0.5,0.2,1.1,0.5,1.6,1l0.1,0c0.1-0.6,0-1.3-0.7-2
					c-0.7-0.8-1.7-1.7-3.2-2.9c-0.3-0.3-0.9-0.8-1.2-1.1c-0.2-0.2-0.3-0.5-0.4-0.7C86.1,75.8,86.2,75.5,86.3,75.2L86.3,75.2z"/>
				<path d="M97.6,79.9c-0.4-0.6-0.8-1.2-1.3-1.7l-0.7-0.8c-1.3-1.5-3.3-3.5-4.6-4.8c0-0.5,0-1.1,0.1-1.5l0.1,0
					c1.7,1.6,3.5,3.6,5.1,5.5c0.4,0.5,0.8,1,1.1,1.4c0.4,0.5,0.4,1,0.4,1.9L97.6,79.9z"/>
				<path d="M114.7,60.8l1.4,0.9c0.5,0.3,1,0.7,1.5,1.5l0.6,1c0.5,0.8,0.5,1.9,0.3,3.2c-0.2,0.9-0.6,1.4-1,1.7
					c-0.7,0.4-1.6,0.6-2.8,0.7l-0.1-0.4c0.3-0.1,0.7-0.2,1.1-0.4c1.3-0.8,2-2.6,1.8-4.4c0-0.2-0.1-0.4-0.1-0.5
					c-0.1-0.2-0.3-0.3-0.4-0.4c-0.8-0.5-1.5-1-2.3-1.4C114.7,61.9,114.7,61.4,114.7,60.8L114.7,60.8z"/>
				<path d="M126.5,59.4l0.6,1.2l-0.8,0.4c0.2,0.6,0.3,1.5,0.2,2.3c-0.2,1.5-1,2.5-1.5,2.8c-0.9,0.4-2,0.5-3.2,0.4l0-0.4
					c0.5,0,1-0.1,1.6-0.3c1-0.5,1.6-1.4,2-2.6c0.2-0.7,0.4-1.2,0.2-1.8l-0.5,0.2c-1.9,1-3.2,0.8-3.9-0.5c-0.3-0.6-0.4-1.2-0.3-1.8
					c0.1-0.7,0.4-1.3,1-1.6c0.9-0.4,2.4,0.3,3.6,2.2L126.5,59.4z M123.7,59.1c-0.5-0.2-0.9-0.2-1.3,0c-0.5,0.3-0.9,1-0.7,1.4
					c0.2,0.5,0.8,0.5,1.5,0.4c0.6-0.1,1.2-0.4,1.8-0.7C124.6,59.6,124.2,59.3,123.7,59.1z"/>
				<path d="M126.7,59.3c0.7-0.3,1.1-1,0.9-2.4c-0.1-0.4,0-0.9,0.2-1.5c0.2-0.5,0.5-0.9,1-1.1c1.2-0.5,2.6,0.8,3.5,2.5
					c0.2,1,0,1.5-0.5,1.7c-1,0.4-2.1,0.4-3.4,0.1l-0.1,0c0.1,1-0.3,1.6-1.2,2l-0.2,0.1c-0.5,0.2-0.9-0.1-1-0.4
					c-0.1-0.2-0.1-0.7,0.4-0.9L126.7,59.3z M130,57.5c0.4,0,0.9,0,1.3-0.2c0.1-0.1,0.3-0.1,0.3-0.2c-0.9-1.4-1.8-1.7-2.4-1.5
					c-0.6,0.2-0.9,0.7-0.9,1.5C128.6,57.4,129.3,57.5,130,57.5z"/>
				<path d="M134.5,45c0,0.3-0.1,0.6-0.2,0.8c-1,0.5-1.7,1.1-2.4,1.6l0,0l0.1-0.5c0.1-0.1,0.2-0.4,0.4-0.5l0,0
					c-0.5,0-0.9-0.2-1.1-0.6c-0.1-0.3,0-0.7,0.2-1c0.2-0.4,0.6-0.8,1-1c0.4-0.1,0.7,0,0.8,0.3c0.1,0.3,0,0.5-0.1,0.8l0,0
					c-0.2-0.2-0.3-0.3-0.5-0.3c-0.1,0-0.2,0-0.3,0.1c-0.4,0.1-0.6,0.4-0.6,0.6c0.2,0.5,1.1,0.4,1.7,0.2
					C133.8,45.3,134.1,45.1,134.5,45L134.5,45z M138.2,44.8c0,0.1,0,0.1,0.1,0.2c0.2,0.6,0.8,1.2,1.5,1.8c-0.1,0.2-0.3,0.5-0.4,0.7
					c0.5,1.2,0.9,2.4,1.3,3.6c0.2,0.7,0.3,1.5,0.3,2.1c0,0.9-0.1,1.5-0.5,2.1c-0.5,0.7-1.4,1.4-2.2,1.7c-0.9,0.3-1.9,0.4-2.6,0.4
					l0-0.1c1.9-0.9,3.2-1.9,4.1-2.8c-0.2-0.4-0.9-1-1.8-1.7c-1-0.8-2-1.6-3.3-2.5c-1-0.7-1.5-1.2-1.6-1.5c-0.1-0.2,0.1-0.9,0.1-1.1
					l0,0c0.6,0.4,1.4,0.8,2.2,1.2l-0.1,0.7c1.4,1.1,2.7,2.1,3.7,3c0.4,0.4,0.8,0.9,1,1.6l0.1,0c0.4-0.5,0.5-1.2,0.2-2.1
					c-0.3-1-0.9-2.3-1.6-4c-0.2-0.4-0.5-1.1-0.7-1.5c-0.1-0.3-0.1-0.6,0-0.8C137.8,45.3,138,45,138.2,44.8L138.2,44.8z"/>
				<path d="M146.6,53.8c-0.1-0.7-0.2-1.4-0.4-2.1l-0.3-1c-0.5-1.9-1.4-4.6-2.1-6.3c0.2-0.4,0.5-1,0.7-1.4l0.1,0
					c0.8,2.2,1.5,4.8,2.2,7.2c0.2,0.6,0.3,1.2,0.4,1.7c0.1,0.6,0,1.1-0.5,1.9L146.6,53.8z"/>
			</g>
		</g>
		<g>
			<g>
				<path d="M303,120.8c-0.5-1.1-0.5-2.1,0.2-2.5c0.3-0.1,0.7-0.2,1.3-0.2c1.1,0,2.5,0.7,4.2,2.1l0.7-0.4c0.4,0.1,0.8,0.3,1.2,0.5
					l0.1,0.1c-1.5,0.7-3,1.4-4.5,2.2c-0.7,0.3-1.1,0.6-1.2,1c-0.1,0.3,0.1,0.8,0.3,1.2l0.1,0.3l-1.2,0.6l-0.1-0.2
					c-0.5-1-0.6-1.9,0.3-2.8C303.9,122.2,303.4,121.6,303,120.8z M307.7,120.9c-1.8-1.5-2.9-2.1-3.4-1.9c-0.4,0.2-0.2,0.9,0.1,1.6
					c0.2,0.5,0.5,0.9,1,1.4L307.7,120.9z M310.5,118c0.2-0.6,0.3-1.1,0.4-1.7c0.5,0.1,0.9,0.3,1.3,0.4c-0.1,0.6-0.3,1.1-0.5,1.7
					C311.3,118.3,310.9,118.2,310.5,118z M311.6,120c0.2-0.6,0.3-1.1,0.4-1.7c0.5,0.1,0.9,0.3,1.3,0.4c-0.1,0.6-0.3,1.1-0.5,1.7
					C312.4,120.3,312,120.2,311.6,120z"/>
				<path d="M300.8,128.7c0.2-0.6,0.4-1.1,0.5-1.7c0.5,0.1,0.9,0.3,1.3,0.5c-0.1,0.6-0.3,1.1-0.5,1.7
					C301.5,129,301.2,128.9,300.8,128.7z M301.8,130.8c0.2-0.6,0.4-1.1,0.5-1.7c0.5,0.1,0.9,0.3,1.3,0.5c-0.1,0.6-0.3,1.1-0.5,1.7
					C302.5,131.1,302.2,131,301.8,130.8z M305.5,125.4c0.3,0.8,1,1.6,1.6,1.5l1.2-0.1l0.8,0.5l0,0.1c-0.6,0.1-1,0.1-1.2,0.2
					c-0.3,0.1-0.6,0.4-0.7,0.7c-0.1,0.5-0.1,0.9,0.2,1.5l0.1,0.2l-1.3,0.5l-0.1-0.2c-0.4-1.1-0.5-2,0.1-2.6l0,0
					c-0.8-0.1-1.5-0.8-1.9-1.7l-0.1-0.2c-0.2-0.6,0.1-0.9,0.3-1c0.2-0.1,0.7-0.1,0.9,0.5L305.5,125.4z"/>
				<path d="M307.5,130.4c0.3,0.8,0.9,1.6,1.6,1.6l1.2-0.1l0.8,0.6l0,0.1c-0.6,0-1,0.1-1.2,0.2c-0.3,0.1-0.6,0.3-0.7,0.7
					c-0.1,0.4-0.1,0.9,0.1,1.5l0.1,0.2l-1.3,0.5l-0.1-0.3c-0.4-1.1-0.4-2,0.2-2.6l0,0c-0.8-0.1-1.5-0.9-1.8-1.8l-0.1-0.2
					c-0.2-0.6,0.1-0.9,0.4-1c0.2-0.1,0.7,0,0.9,0.5L307.5,130.4z M313.9,132.5c-0.3,0-0.6-0.1-0.8-0.2c-0.6-1-1.2-1.9-1.8-2.6l0,0
					l0.5,0.1c0.1,0.1,0.4,0.2,0.5,0.4l0,0c0-0.6,0.1-1,0.6-1.2c0.3-0.1,0.7,0,1.1,0.2c0.5,0.2,0.9,0.7,1.1,1.1
					c0.2,0.4,0,0.8-0.2,0.9c-0.3,0.1-0.5,0-0.8-0.1l0,0c0.2-0.2,0.3-0.4,0.3-0.5c0-0.1,0-0.2-0.1-0.4c-0.1-0.4-0.5-0.7-0.6-0.6
					c-0.5,0.2-0.3,1.2-0.1,1.8C313.7,131.8,313.8,132.2,313.9,132.5L313.9,132.5z"/>
				<path d="M304.4,138.4c0.2-0.6,0.4-1.1,0.6-1.6c0.5,0.2,0.9,0.4,1.3,0.5c-0.2,0.6-0.4,1.1-0.6,1.6
					C305.1,138.8,304.8,138.7,304.4,138.4z M305.3,140.5c0.2-0.6,0.4-1.1,0.6-1.6c0.5,0.2,0.9,0.4,1.3,0.5c-0.2,0.6-0.4,1.1-0.6,1.6
					C306,140.9,305.7,140.8,305.3,140.5z M309.3,135.4c0.3,0.9,0.9,1.6,1.5,1.6l1.2,0l0.8,0.6l0,0.1c-0.6,0-1,0.1-1.2,0.2
					c-0.4,0.1-0.6,0.3-0.7,0.6c-0.1,0.4-0.1,0.9,0.1,1.5l0.1,0.2l-1.3,0.4l-0.1-0.3c-0.4-1.1-0.4-2,0.3-2.6l0,0
					c-0.8-0.1-1.5-0.9-1.8-1.9l-0.1-0.2c-0.2-0.6,0.1-0.9,0.4-1c0.2-0.1,0.7,0,0.9,0.6L309.3,135.4z"/>
				<path d="M308.4,143.6c-0.2,0.5-0.4,1.1-0.7,1.7c-0.4-0.1-0.9-0.4-1.3-0.7c0.3-0.5,0.5-1.1,0.7-1.6
					C307.5,143.2,308,143.4,308.4,143.6z M311,140.6c0.2,0.9,0.8,1.7,1.4,1.7l1.2,0l0.7,0.6l-0.1,0.1c-0.6,0-1,0-1.3,0.1
					c-0.4,0.1-0.6,0.3-0.7,0.6c-0.2,0.4-0.2,0.9,0,1.5l0.1,0.2l-1.3,0.4l-0.1-0.3c-0.3-1.1-0.3-2,0.4-2.6l0,0
					c-0.8-0.2-1.4-1-1.7-1.9l-0.1-0.2c-0.2-0.6,0.2-0.9,0.5-1c0.2-0.1,0.7,0,0.8,0.6L311,140.6z"/>
				<path d="M312.4,145.8c0.1,0.4,0.2,0.8,0.6,1.2c0.3,0.3,0.7,0.5,1.3,0.3c1.6-0.4,3.4-1,5.3-1.6c0.5-0.2,0.9-0.3,1.3-0.4
					c0.2-0.1,0.5,0,0.8,0.2c0.2,0.1,0.5,0.3,0.7,0.5l0,0.1c-0.7,0.1-1.4,0.7-2.1,1.5c-0.2-0.2-0.5-0.4-0.7-0.6
					c-1.2,0.3-2.4,0.7-3.5,1c-1.1,0.3-2,0.4-2.7,0.2c-0.6-0.1-1.1-0.3-1.4-0.7c-0.3-0.4-0.5-0.9-0.7-1.3l0-0.2
					c-0.1-0.6,0.2-0.9,0.5-1c0.2-0.1,0.7,0,0.8,0.6L312.4,145.8z"/>
				<path d="M312.7,153.9c0.7,0,1.4-0.1,2.1-0.3l1-0.2c1.9-0.4,4.6-1.1,6.4-1.7c0.4,0.2,1,0.6,1.3,0.9l0,0.1
					c-2.2,0.7-4.9,1.2-7.3,1.7c-0.6,0.1-1.3,0.2-1.7,0.2c-0.6,0.1-1.1-0.1-1.9-0.7L312.7,153.9z"/>
			</g>
		</g>
		<g>
			<g>
				<path d="M120.8,314.1c-1.1-0.5-1.8-1.2-1.5-2c0.1-0.3,0.4-0.6,0.8-1c0.8-0.7,2.3-1.1,4.6-1.2l0.2-0.8c0.4-0.2,0.8-0.3,1.2-0.4
					l0.1,0c-0.6,1.5-1.2,3.1-1.9,4.6c-0.3,0.7-0.4,1.2-0.2,1.6c0.2,0.3,0.6,0.5,1,0.7l0.3,0.1L125,317l-0.2-0.1
					c-1.1-0.4-1.7-1-1.7-2.3C122.4,314.6,121.7,314.5,120.8,314.1z M124.4,311c-2.3,0.1-3.6,0.4-3.8,0.9c-0.2,0.4,0.4,0.8,1.1,1.1
					c0.5,0.2,1,0.3,1.7,0.4L124.4,311z M124.6,307c-0.3-0.6-0.5-1-0.8-1.5c0.4-0.2,0.9-0.4,1.2-0.6c0.3,0.5,0.5,1,0.8,1.6
					C125.3,306.7,125,306.9,124.6,307z M126.7,307.8c-0.3-0.6-0.5-1-0.8-1.5c0.4-0.2,0.9-0.4,1.2-0.6c0.3,0.5,0.5,1,0.8,1.6
					C127.4,307.5,127.1,307.6,126.7,307.8z"/>
				<path d="M125.5,321.6c-0.3-0.6-0.6-1-0.9-1.5c0.4-0.3,0.8-0.5,1.2-0.6c0.3,0.5,0.6,0.9,0.9,1.5
					C126.2,321.3,125.9,321.5,125.5,321.6z M126.2,315.9c0.8,0.3,1.8,0.3,2.2-0.2l0.7-1l0.9-0.2l0,0.1c-0.3,0.5-0.6,0.9-0.7,1.1
					c-0.1,0.3-0.1,0.7,0.1,1c0.3,0.4,0.6,0.7,1.2,0.9l0.2,0.1l-0.5,1.3l-0.3-0.1c-1.1-0.4-1.8-1-1.9-1.8l0,0
					c-0.6,0.5-1.6,0.6-2.6,0.2l-0.2-0.1c-0.6-0.2-0.6-0.7-0.5-0.9c0.1-0.2,0.4-0.5,1-0.3L126.2,315.9z M127.6,322.3
					c-0.3-0.6-0.6-1-0.9-1.5c0.4-0.3,0.8-0.5,1.2-0.6c0.3,0.5,0.6,0.9,0.9,1.5C128.4,321.9,128,322.1,127.6,322.3z"/>
				<path d="M131.5,317.8c0.4,0.1,0.8,0.2,1.3,0.1c0.5-0.1,0.8-0.4,0.9-0.9c0.5-1.6,1-3.4,1.4-5.3c0.1-0.5,0.2-0.9,0.3-1.3
					c0.1-0.2,0.3-0.4,0.6-0.6c0.2-0.1,0.5-0.2,0.8-0.4l0.1,0.1c-0.2,0.6-0.1,1.5,0.1,2.6c-0.3,0.1-0.5,0.2-0.9,0.3
					c-0.3,1.2-0.6,2.4-1,3.6c-0.4,1.1-0.7,1.9-1.3,2.4c-0.4,0.4-0.8,0.8-1.4,0.8c-0.5,0.1-1.1,0-1.5-0.1l-0.2-0.1
					c-0.6-0.2-0.6-0.7-0.6-0.9c0.1-0.2,0.4-0.6,1-0.4L131.5,317.8z"/>
				<path d="M140.6,322l-0.1,0c-0.9-0.2-1.4-0.6-1.8-1.1c-0.5-0.8-0.3-1.6,0.1-3.1c0.5-1.9,1-4,1.4-6.2c0.5-0.3,0.9-0.5,1.3-0.7
					l0.1,0.1c-0.5,2.3-1.2,4.9-1.9,7.4l-0.2,0.6c-0.2,0.7,0.1,1.1,0.5,1.3c0.3,0.2,0.5,0.3,0.7,0.3l0.2,0L140.6,322z"/>
				<path d="M144,321.9c-1,0.4-1.7,0.5-2.8,0.3l-0.2,0c-0.6-0.1-0.7-0.6-0.6-0.9c0.1-0.2,0.3-0.6,0.9-0.4l0.1,0
					c1.1,0.3,2,0.2,2.8-0.1c0.3-2.1,0.7-4.1,1.1-5.7c0.1-0.4,0.2-1.1,0.3-1.6c0.1-0.3,0.2-0.6,0.6-0.8c0.2-0.1,0.5-0.3,0.8-0.4
					l0.1,0.1c-0.1,0.2-0.1,0.3-0.1,0.4c-0.2,0.7,0.1,1.5,0.4,2.3l-1,0.3c-0.8,3.3-0.9,4.1-1,5.1l0,0c0.5-0.1,1-0.1,1.5,0
					c0.5,0.1,0.9,0.4,1.2,0.9c0.3,0.4,0.3,1,0.2,1.6c-0.3,1.3-1.4,1.8-2.3,1.6C144.9,324.2,144.2,323.2,144,321.9L144,321.9z
					 M146.8,323.4c0.2,0.1,0.4,0,0.6-0.1c0.1-0.4,0-0.7-0.2-1.1c-0.2-0.3-0.5-0.6-1-0.7c-0.3-0.1-0.7-0.1-1,0
					C145.3,322.5,146,323.2,146.8,323.4z"/>
				<path d="M151.6,324.7c0.2-0.6,0.4-1.4,0.5-2.1l0.2-1c0.4-1.9,0.6-4.7,0.8-6.6c0.4-0.3,0.9-0.7,1.3-0.9l0.1,0.1
					c-0.2,2.3-0.6,5-1.1,7.4c-0.1,0.6-0.3,1.3-0.4,1.7c-0.1,0.6-0.5,1-1.3,1.5L151.6,324.7z"/>
			</g>
		</g>
	</g>
	<line class="st6" x1="178.7" y1="3.1" x2="178.7" y2="71.6"/>
	<line class="st6" x1="83.5" y1="233.5" x2="26.2" y2="267.1"/>
	<line class="st6" x1="272.5" y1="231.5" x2="331.5" y2="265.6"/>
	<g>
		<path class="st7" d="M178.7,70.4c-60.5,0-109.5,49-109.5,109.5c0,60.5,49,109.5,109.5,109.5s109.5-49,109.5-109.5
			C288.2,119.4,239.2,70.4,178.7,70.4z M178.7,245c-36,0-65.2-29.2-65.2-65.2c0-36,29.2-65.2,65.2-65.2s65.2,29.2,65.2,65.2
			C243.9,215.8,214.7,245,178.7,245z"/>
	</g>
	<g>
		<path class="st7" d="M195.8,178.4c0.3,0.6,0.6,1.6,0.6,2.9c-0.2-0.5-1-1.6-1.9-2.5c-0.9,0.3-1.9,0.5-3,0.8
			c-0.8,0.2-2.5,0.7-4.2,1.1c0.3,0.3,0.6,0.6,0.9,1c0.8,1,1.5,2.2,2.1,3.7c-0.5-0.6-3.2-2.8-6-3.9c-1.4,0.4-2.4,0.7-2.4,0.7
			c-1.4,0.4-2.8,0.9-4.3,1.4c1.3,0.7,2.6,1.8,3.9,3.1c1,1,1.9,2.1,2.9,3.5c-2.3-1.6-7.2-4-11.4-4.3c-1.7,1-3.4,2.2-5.1,3.7
			c2.7,0.8,5.7,2.4,9.1,5.9c0.6,0.6,1.2,1.2,1.8,1.8c-3.6-2.1-9.9-3.8-14.9-3.6c-1.5,1.7-3,3.7-4.3,5.9c3.4-0.2,7.8,0.6,13.6,4
			c0.8,0.5,1.6,1,2.4,1.5c-4.7-1.6-14.1-1.9-18.6,0.2c-0.2,0.8-0.9,3.5-0.9,6.4c9.1-1.7,14.4-0.1,20.1,1.4
			c2.9-23.6,17.5-26.5,32.4-39.3h0C206,175.1,201.8,176.8,195.8,178.4z"/>
		<path class="st7" d="M178.7,116.8c-34.8,0-63.1,28.2-63.1,63.1c0,34.8,28.2,63.1,63.1,63.1s63.1-28.2,63.1-63.1
			C241.8,145,213.6,116.8,178.7,116.8z M178.7,235.4c-1,0-2,0-3-0.1c-0.5-0.1-1.1-0.2-1.7-0.3c-14.4-2.2-20.1-11.2-21.4-18.9
			c-1.7-10,2.3-15.6,4.5-19c7.1-10.5,16.9-15.1,25.3-17.4c0,0,7.5-2.1,9.5-2.6c9.6-2.4,15.9-4.9,18.7-6.5c2.3-1.3,5.3-3.6,7.1-7
			c0,0,2.5-3.9,2-8.5c-0.6-5.7-4.7-8.6-8.5-8.8c-0.4,0-0.7,0-1.1,0c-1.4,0.1-2.8,0.5-4,1.3c-1.1,0.7-2,1.8-2.4,3
			c0,0-0.4,0.9-0.4,1.9v0c0,2.7,2.2,5,5,5c2.8,0,5-2.2,5-5c0-0.8-0.2-1.5-0.5-2.1c1.3,0.8,2.1,2.2,2.3,3.6c0.1,0.6,0.1,1.2,0.1,1.9
			c0,0.5-0.1,1.1-0.2,1.6c-0.5,1.8-1.6,3.4-4.6,4.5c-1.2,0.3-2.4,0.6-3.8,0.8c0,1.4-0.3,3.1-1.7,4.9c-0.2,0.3-0.5,0.5-0.8,0.8
			c0.6-1.7,0.6-3.7,0.3-5.4c-1.6,0.2-3.3,0.3-5,0.5c0.3,1.7,0.1,3.9-1.4,6.3c-0.2,0.4-0.5,0.7-0.8,1.1c0.7-2.4,0.2-5.1-0.6-7.2
			c-1.7,0.1-3.4,0.2-5.1,0.2c0.5,2,0.6,4.7-1.2,7.9c-0.2,0.4-0.6,0.8-0.9,1.3c0.7-3.1-0.1-6.6-1.3-9c-1.9,0.1-3.8,0.2-5.8,0.4
			c0.7,2.2,0.9,5-0.6,8.6c-0.2,0.5-0.5,1.1-0.9,1.6h0c0.4-3.4-0.9-7.2-2.6-9.8c-2.1,0.3-4.3,0.6-6.5,1.1c1.2,2.2,2.1,5.3,1.5,9.6
			c-0.1,0.6-0.3,1.3-0.5,2c-0.5-4-2.9-8-5.3-10.5c-2.3,0.6-4.7,1.4-7,2.4c1.9,2,3.7,4.9,4.2,9.5c0.1,0.7,0.1,1.4,0,2.2
			c-1.6-4.2-5.4-7.7-8.7-9.6c-2.2,1.1-4.3,2.4-6.1,3.7c2.4,1.5,5.2,4,6.8,8.8c0.2,0.6,0.6,2,0.7,2.8c-2.7-4-7.9-7.1-11.7-8.2
			c-2,1.8-3.7,3.6-5.2,5.3c3.7,2,8.7,6.2,10.7,11.4v0c-3.5-3.4-10.1-5.5-14.9-5.8c-2.3,3.6-3.5,6.2-3.7,6.6
			c7.1,1.9,10.6,4.3,12.3,6.2v0c1.5,1.5,1.1,3.3,1.1,3.3c-0.2,1.1-0.4,2.1-0.5,3.1c-1,6.8-0.5,12.1,1.1,16.3
			c-14.3-10.1-23.7-26.8-23.7-45.6c0-30.8,25-55.8,55.8-55.8c30.8,0,55.8,25,55.8,55.8C234.5,210.4,209.5,235.4,178.7,235.4z"/>
	</g>
	<g>
		<g>
			<path class="st8" d="M88.9,197l0-0.1c-0.2-1-0.1-1.6,0.3-2.2c0.6-0.9,1.5-1.1,3.3-1.4c2.3-0.4,4.8-1,7.4-1.6c0.5,0.3,1,0.7,1.4,1
				l0,0.1c-2.7,0.7-5.9,1.2-8.9,1.8l-0.7,0.1c-0.8,0.1-1.1,0.6-1.2,1.2c-0.1,0.3,0,0.7,0,0.8l0,0.2L88.9,197z"/>
			<path class="st8" d="M90.7,197.6c0.2,0.9,0.8,1.8,1.6,1.8l1.4,0l0.8,0.7l-0.1,0.1c-0.7,0-1.2,0-1.5,0.1c-0.4,0.1-0.8,0.3-0.9,0.6
				c-0.2,0.5-0.3,1-0.1,1.6l0.1,0.2l-1.6,0.4l-0.1-0.3c-0.3-1.2-0.2-2.2,0.6-2.8l0,0c-0.9-0.2-1.6-1.1-1.8-2.1l-0.1-0.2
				c-0.2-0.7,0.3-1,0.6-1.1c0.3-0.1,0.8,0,1,0.7L90.7,197.6z M98.6,198c-0.2,0.6-0.6,1.2-1,1.8c-0.5-0.2-1-0.4-1.4-0.7
				c0.3-0.6,0.6-1.2,0.9-1.7C97.6,197.5,98.1,197.7,98.6,198z"/>
			<path class="st8" d="M89.2,207.3c-0.2,0.6-0.5,1.2-0.8,1.8c-0.5-0.1-1-0.3-1.5-0.6c0.3-0.6,0.5-1.2,0.8-1.8
				C88.2,206.9,88.7,207.1,89.2,207.3z M92.2,203.8c0.3,1,0.6,1.8,1,2.3c0.3,0.4,0.5,0.6,0.7,0.5c0.6-0.2,1.6-1.1,2.6-2.1
				c0.6,0.1,1.2,0.3,1.6,0.5l0,0.1c-0.8,0.9-2.1,2-3.3,2.4c-0.9,0.3-1.7,0.1-2.5-0.1c-0.7-0.4-1.2-1.2-1.7-3l0-0.1
				c-0.2-0.7,0.2-1,0.5-1.1c0.3-0.1,0.8,0,1,0.6L92.2,203.8z"/>
			<path class="st8" d="M97.2,217.9c-0.6-1.2-0.6-2.3,0.3-2.7c0.3-0.2,0.8-0.3,1.5-0.3c1.2,0,2.8,0.7,4.9,2.1l0.8-0.5
				c0.5,0.1,0.9,0.3,1.4,0.4l0.1,0.1c-1.7,0.9-3.5,1.8-5.2,2.6c-0.8,0.4-1.3,0.7-1.4,1.2c-0.1,0.4,0,0.8,0.3,1.3l0.1,0.3l-1.4,0.7
				l-0.1-0.2c-0.5-1.1-0.6-2,0.4-3.1C98.1,219.4,97.6,218.8,97.2,217.9z M102.6,217.7c-2-1.5-3.4-2.1-4-1.8c-0.4,0.2-0.3,1,0.1,1.8
				c0.2,0.5,0.6,1,1.1,1.5L102.6,217.7z M105.9,214.4c0.2-0.7,0.4-1.3,0.5-1.9c0.5,0.1,1.1,0.2,1.5,0.4c-0.1,0.6-0.3,1.2-0.6,1.9
				C106.8,214.6,106.4,214.5,105.9,214.4z M107.2,216.5c0.2-0.7,0.4-1.3,0.5-1.9c0.5,0.1,1.1,0.2,1.5,0.4c-0.1,0.6-0.3,1.2-0.6,1.9
				C108,216.7,107.6,216.6,107.2,216.5z"/>
			<path class="st8" d="M100.5,223.8c0.6,0.9,1.4,1.4,2.1,1.1c0.5-0.2,0.9-0.4,1.4-0.5c0.4,0.1,0.7,0.2,1,0.3l0,0.1
				c-0.4,0.1-0.8,0.3-1.1,0.5c-0.5,0.4-0.7,0.8-0.7,1.4c1.3,0,2.7,0,4.1,0.4c1,0.3,2.2,0.8,2.8,1.7c0.7,1,0.5,2,0.2,2.7
				c-0.3,0.5-0.7,0.8-1,1.1c-0.3,0.2-0.7,0.4-1.1,0.5c-1,0.3-2.1,0.1-3.3-0.9c-0.6-0.5-1.3-1.3-2.1-2.4c-0.9-1.4-1.3-2.6-0.9-3.7
				l0,0c-1.3,0-2.1-0.7-2.5-1.4l-0.1-0.1c-0.4-0.6-0.1-1,0.2-1.2c0.2-0.2,0.7-0.3,1.1,0.3L100.5,223.8z M104.3,229.5
				c0.7,1,1.6,1.8,2.4,2.3c0.6,0.3,1,0.5,1.3,0.3c0.8-0.7,1-1.9,0.4-2.9c-0.8-1.2-2.9-1.9-5.2-1.9
				C103.3,227.8,103.7,228.5,104.3,229.5z"/>
			<path class="st8" d="M110.1,239.6l-0.1-0.1c-0.6-0.8-0.9-1.4-0.8-2.1c0.1-1.1,0.8-1.7,2.2-2.9c1.8-1.5,3.6-3.2,5.6-5.1
				c0.6,0,1.2,0.1,1.7,0.2l0,0.1c-2,1.9-4.5,4-6.8,6l-0.5,0.5c-0.6,0.5-0.6,1.1-0.4,1.6c0.1,0.3,0.3,0.6,0.4,0.7l0.1,0.1
				L110.1,239.6z"/>
			<path class="st8" d="M118.8,242.9c-0.7-1.4-1.4-2.6-2.2-3.4c-0.5-0.5-1-0.7-1.6-0.7l-0.3,0.6l-1.1,0.5l-0.1-0.1l0.7-1.6
				c1-0.9,2.4-0.8,3.5,0.3c0.6,0.6,1.3,1.7,2.2,3.6c0.3,0.6,0.7,1.2,1.2,1.8l0.8,0.8l0,0l-1.5,0.4c-0.7-0.7-1.4-1-1.9-1.1l-2.5-0.5
				c-2-0.4-3.7-1.2-5.1-2.6l-0.4-0.4c-0.5-0.5-0.3-1,0-1.2c0.2-0.2,0.7-0.4,1.2,0.1l0.5,0.5C113.8,241.3,115.8,242.2,118.8,242.9
				L118.8,242.9z M119.2,244.5L119.2,244.5c-0.7,0.8-0.3,1.7,0.6,2.6l0.2,0.2l-1.1,1.2l-0.3-0.3c-1.2-1.1-1.5-2.3-0.5-3.4
				c0.2-0.2,0.3-0.3,0.5-0.5L119.2,244.5z M121.3,235.9c0.1,0.6,0.2,1.3,0.1,2c-0.5,0.1-1,0.2-1.6,0.2c0-0.7-0.1-1.3-0.2-2
				C120.2,236,120.8,235.9,121.3,235.9z"/>
			<path class="st8" d="M120.9,247.8c0.3,0.3,0.7,0.5,1.3,0.6c0.5,0.1,1-0.1,1.4-0.6c1.2-1.6,2.5-3.4,3.8-5.3
				c0.3-0.5,0.6-0.9,0.9-1.3c0.2-0.2,0.5-0.4,0.8-0.4c0.3-0.1,0.6-0.1,1-0.1l0,0.1c-0.5,0.6-0.8,1.6-1,2.9c-0.3,0-0.6,0-1,0
				c-0.9,1.2-1.7,2.4-2.6,3.5c-0.8,1.1-1.6,1.8-2.4,2.1c-0.6,0.3-1.2,0.6-1.8,0.4c-0.5-0.1-1.1-0.4-1.5-0.7l-0.1-0.1
				c-0.5-0.4-0.4-0.9-0.2-1.2c0.2-0.2,0.6-0.5,1.2,0L120.9,247.8z"/>
			<path class="st8" d="M125.1,253.4c0.6-0.6,1.1-1.3,1.6-2l0.7-1c1.3-1.9,3.1-4.7,4.2-6.6c0.5-0.2,1.3-0.3,1.8-0.4l0.1,0.1
				c-1.4,2.4-3.2,5-4.9,7.4c-0.4,0.6-0.9,1.2-1.3,1.6c-0.4,0.5-1,0.8-2.1,1L125.1,253.4z"/>
			<path class="st8" d="M136.2,258.7c-1.2-0.6-1.8-1.5-1.4-2.4c0.2-0.3,0.5-0.7,1-1.1c1-0.7,2.7-1.2,5.1-1.2l0.4-0.9
				c0.4-0.2,0.9-0.3,1.4-0.5l0.1,0.1c-0.9,1.7-1.8,3.5-2.6,5.2c-0.4,0.8-0.6,1.3-0.4,1.8c0.1,0.4,0.5,0.6,1,0.9l0.3,0.1l-0.7,1.4
				l-0.2-0.1c-1.1-0.6-1.7-1.3-1.5-2.7C137.9,259.3,137.1,259.1,136.2,258.7z M140.5,255.3c-2.5,0-4,0.3-4.3,0.9
				c-0.2,0.4,0.3,1,1.1,1.4c0.5,0.2,1,0.4,1.8,0.5L140.5,255.3z M141.3,250.7c-0.2-0.7-0.4-1.2-0.7-1.8c0.5-0.3,1-0.5,1.4-0.6
				c0.3,0.6,0.5,1.2,0.7,1.9C142.1,250.4,141.7,250.5,141.3,250.7z M143.5,251.6c-0.2-0.7-0.4-1.2-0.7-1.8c0.5-0.2,1-0.5,1.4-0.6
				c0.3,0.6,0.5,1.2,0.7,1.9C144.3,251.3,143.9,251.5,143.5,251.6z"/>
			<path class="st8" d="M142.3,261.3c0.9,0.3,1.8,0,2.8-1.3c0.3-0.4,0.8-0.8,1.4-1.1c0.6-0.2,1.2-0.3,1.7-0.1c1.4,0.6,1.5,2.8,0.9,5
				c-0.7,1-1.3,1.2-1.8,1c-1.2-0.5-2.1-1.4-2.9-2.7l-0.1,0c-0.7,0.9-1.6,1.1-2.6,0.7l-0.2-0.1c-0.6-0.3-0.6-0.8-0.5-1.1
				c0.1-0.3,0.5-0.6,1.1-0.4L142.3,261.3z M146.5,262.4c0.4,0.4,0.8,0.7,1.3,0.9c0.2,0.1,0.3,0.1,0.4,0c0.4-1.9-0.1-3-0.9-3.3
				c-0.7-0.3-1.4-0.1-2,0.5C145.5,261.2,145.9,261.8,146.5,262.4z"/>
			<path class="st8" d="M151.5,266.6c0.3-0.7,0.6-1.6,0.9-2.4l0.4-1.2c0.7-2.2,1.4-5.5,1.8-7.6c0.5-0.3,1.1-0.7,1.6-0.9l0.1,0.1
				c-0.5,2.7-1.4,5.8-2.2,8.5c-0.2,0.7-0.5,1.4-0.7,2c-0.2,0.6-0.7,1.1-1.6,1.6L151.5,266.6z"/>
			<path class="st8" d="M164.2,269.4l-0.2,0c-1.1-0.2-1.9-0.9-2.1-2.5l-0.1,0c-0.2,0.4-0.5,0.8-1.1,1c-0.9,0.3-1.8,0.5-2.6,0.3
				c-1.4-0.3-2-1.3-1.6-2.7c0.1-0.3,0.1-0.6,0.2-0.9l0.5,0.1c-0.2,1,0.2,1.8,1.4,2c0.6,0.1,1.5,0,2.1-0.2c0.5-0.2,0.9-0.5,1-0.7
				c0.2-0.8,0.1-2.6,0-4.8c0.4-0.4,0.7-0.8,1.1-1.1l0.1,0.1c0.1,1.9,0.1,3.8,0,5.7c0,1.3,0.6,2.1,1.5,2.3l0.2,0L164.2,269.4z"/>
			<path class="st8" d="M165.6,267.9c1,0.1,2-0.2,2.3-0.8l0.5-1.3l0.9-0.5l0.1,0.1c-0.2,0.6-0.4,1.1-0.4,1.4c-0.1,0.4,0,0.8,0.3,1.1
				c0.4,0.4,0.8,0.6,1.5,0.7l0.2,0l-0.2,1.6l-0.3,0c-1.2-0.1-2.1-0.6-2.4-1.6l-0.1,0c-0.5,0.8-1.6,1.1-2.6,1l-0.2,0
				c-0.7-0.1-0.8-0.6-0.8-0.9c0-0.3,0.3-0.7,1-0.7L165.6,267.9z M167.6,263.4c-0.5-0.5-0.9-1-1.3-1.5c0.4-0.4,0.8-0.8,1.1-1.1
				c0.5,0.5,0.8,0.9,1.3,1.5C168.2,262.8,167.9,263.1,167.6,263.4z M170,263.5c-0.5-0.5-0.9-1-1.3-1.5c0.4-0.4,0.8-0.8,1.1-1.1
				c0.5,0.5,0.8,0.9,1.3,1.5C170.7,262.9,170.4,263.2,170,263.5z"/>
			<path class="st8" d="M184.9,270.5l-0.3,0c-1.6,0-2.3-0.5-2.6-1.2l-0.1,0c-0.7,0.8-1.4,1.2-2.2,1.1c-0.5,0-1.2-0.2-1.4-1.1l-0.1,0
				c-0.6,0.6-1.3,1-2.2,1c-0.7,0-1.1-0.3-1.2-1.1H175c-0.8,0.9-1.8,1-2.7,1l-0.2,0c-0.7,0-0.9-0.5-0.9-0.9c0-0.3,0.2-0.8,0.9-0.8
				l0.4,0c1.1,0,2-0.3,2.7-1.1l0.6-1l1-0.3l0,0.1c-0.5,0.8-0.8,1.4-0.8,1.8c0,0.4,0.3,0.6,0.7,0.6c0.4,0,0.8-0.1,1.1-0.4
				c0.3-0.2,0.6-0.7,0.8-1.1l0.3-0.7l1-0.4l0,0.1c-0.4,0.9-0.5,1.4-0.5,1.9c0,0.3,0.2,0.7,0.7,0.7c0.4,0,0.7-0.1,0.9-0.3
				c0.4-0.2,0.6-0.7,0.7-1.2c0.1-0.2,0.1-0.4,0.3-1l1-0.6l0,0c-0.2,0.5-0.3,1.2-0.3,1.7c0,1,0.8,1.4,2,1.4l0.3,0L184.9,270.5z"/>
			<path class="st8" d="M189.1,268.8c-0.8,0.8-1.5,1.3-2.7,1.4l-0.2,0c-0.7,0.1-0.9-0.4-1-0.7c0-0.3,0.1-0.8,0.8-0.9l0.1,0
				c1.2-0.2,2-0.6,2.7-1.2c-0.5-2.4-0.9-4.9-1.2-6.8c-0.1-0.5-0.3-1.3-0.3-1.9c-0.1-0.4,0-0.8,0.2-1.1c0.1-0.2,0.4-0.5,0.6-0.7
				l0.1,0.1c0,0.2,0,0.4,0,0.5c0.1,0.9,0.7,1.7,1.3,2.4l-0.8,0.8c0.5,3.9,0.7,5,1,6l0.1,0c0.5-0.4,1-0.6,1.5-0.6
				c0.5-0.1,1.1,0.1,1.5,0.5c0.4,0.4,0.7,1,0.8,1.6c0.2,1.5-0.7,2.5-1.7,2.6C190.9,270.9,189.8,270.1,189.1,268.8L189.1,268.8z
				 M192.4,269.3c0.2,0,0.4-0.1,0.6-0.3c-0.1-0.4-0.3-0.8-0.6-1.1c-0.3-0.3-0.7-0.5-1.2-0.4c-0.3,0-0.7,0.2-1,0.4
				C190.6,268.8,191.6,269.4,192.4,269.3z"/>
			<path class="st8" d="M197.1,268.8c0-0.8-0.2-1.7-0.4-2.5l-0.3-1.2c-0.5-2.2-1.4-5.5-2.1-7.5c0.2-0.5,0.6-1.1,0.9-1.6l0.1,0
				c0.8,2.6,1.5,5.7,2.1,8.6c0.2,0.7,0.3,1.5,0.3,2c0.1,0.7-0.1,1.3-0.7,2.2L197.1,268.8z"/>
			<path class="st8" d="M206.1,255.1c-0.6-0.3-1.2-0.5-1.8-0.7c0.2-0.5,0.3-1,0.5-1.5c0.6,0.2,1.2,0.4,1.8,0.8
				C206.4,254.2,206.3,254.6,206.1,255.1z M208.6,264.2c-1.2,0.5-2.3,0.3-2.6-0.6c-0.1-0.3-0.2-0.8-0.1-1.5c0.1-1.2,1-2.8,2.6-4.6
				l-0.4-0.9c0.2-0.4,0.4-0.9,0.6-1.3l0.1,0c0.7,1.8,1.4,3.6,2.1,5.5c0.3,0.8,0.6,1.3,1.1,1.5c0.4,0.1,0.8,0,1.3-0.1l0.3-0.1
				l0.5,1.5l-0.3,0.1c-1.2,0.4-2.1,0.4-3-0.8C210.2,263.3,209.5,263.8,208.6,264.2z M208.3,254.1c-0.7-0.3-1.2-0.5-1.8-0.7
				c0.2-0.5,0.3-1,0.5-1.5c0.6,0.2,1.2,0.4,1.8,0.8C208.7,253.3,208.5,253.7,208.3,254.1z M209,258.7c-1.7,1.8-2.5,3.1-2.3,3.7
				c0.2,0.5,0.9,0.4,1.7,0.1c0.5-0.2,1-0.5,1.6-1L209,258.7z"/>
			<path class="st8" d="M214.4,261.5c1-0.5,1.7-0.8,2.1-1.3c0.3-0.3,0.5-0.6,0.4-0.8c-0.2-0.5-1.3-1.4-2.4-2.3
				c0-0.6,0.1-1.2,0.3-1.7l0.1,0c1,0.7,2.2,1.8,2.8,2.9c0.4,0.9,0.4,1.7,0.2,2.5c-0.3,0.8-1,1.3-2.7,2.1l-0.1,0.1
				c-0.6,0.3-1-0.1-1.2-0.4c-0.1-0.3-0.1-0.8,0.5-1.1L214.4,261.5z M218.3,267c-0.7-0.2-1.3-0.4-1.9-0.6c0.1-0.5,0.2-1.1,0.4-1.5
				c0.6,0.1,1.2,0.3,1.9,0.6C218.5,266.1,218.4,266.5,218.3,267z M220.4,265.8c-0.7-0.2-1.3-0.4-1.9-0.6c0.1-0.5,0.2-1.1,0.4-1.5
				c0.6,0.1,1.2,0.3,1.9,0.6C220.7,265,220.6,265.4,220.4,265.8z"/>
			<path class="st8" d="M224.7,258.1l-0.1,0.1c-0.9,0.5-1.5,0.6-2.2,0.4c-1-0.3-1.5-1.1-2.4-2.7c-1.1-2.1-2.5-4.2-3.9-6.4
				c0.1-0.6,0.3-1.2,0.5-1.6l0.1,0c1.5,2.3,3.1,5.2,4.6,7.9l0.3,0.6c0.4,0.7,1,0.8,1.5,0.7c0.3-0.1,0.6-0.2,0.8-0.3l0.2-0.1
				L224.7,258.1z"/>
			<path class="st8" d="M222.5,248.6c0.6,0,1.3,0.2,2,0.3c0,0.5-0.1,1.1-0.2,1.6c-0.7-0.1-1.3-0.2-1.9-0.3
				C222.4,249.7,222.4,249.1,222.5,248.6z M224.7,256.2c0.8-0.5,1.5-1.4,1.2-2.1l-0.4-1.3l0.4-1l0.1,0c0.2,0.6,0.4,1.1,0.5,1.4
				c0.2,0.4,0.5,0.6,0.9,0.7c0.5,0.1,1-0.1,1.6-0.4l0.2-0.1l0.9,1.4l-0.2,0.2c-1,0.7-2,0.9-2.9,0.3l0,0c0.1,0.9-0.5,1.8-1.4,2.4
				l-0.2,0.1c-0.6,0.4-1,0-1.2-0.2c-0.2-0.3-0.2-0.8,0.3-1.1L224.7,256.2z"/>
			<path class="st8" d="M230.5,252.5c0.9-0.7,1.5-1.2,2.2-2.5l0,0c-0.7,0-1.6-0.1-2.4-0.2c-0.4,0-0.8,0-1,0.1l-0.3,0.2l0,0l-0.5-1.4
				l0.3-0.3c0.6-0.8,1.4-1.6,2.4-2.4c1.2-0.9,2.3-1.5,3.3-1.7l0.5,1.3l-0.5,2.9l0,0c0.9-0.2,1.8-0.6,2.7-1.2l0.4-0.3l1,1.3l-0.3,0.2
				c-1.1,0.9-2.7,1.4-4.2,1.4l0,0c-0.5,1.8-1.4,2.9-2.6,3.9l-0.3,0.2c-0.5,0.4-1,0.1-1.2-0.1c-0.2-0.2-0.3-0.7,0.2-1.1L230.5,252.5z
				 M233.4,248.7c0.3-0.9,0.5-1.8,0.7-2.9l0,0c-0.6,0.3-1.3,0.6-2,1.2c-0.6,0.5-1.2,1-1.7,1.6l0,0c0.3,0,0.7,0.1,1,0.1
				C231.9,248.8,232.6,248.8,233.4,248.7L233.4,248.7z"/>
			<path class="st8" d="M238.2,246.3c0.3-0.3,0.6-0.6,0.8-1.2c0.2-0.5,0-1-0.4-1.4c-1.4-1.5-3-3-4.7-4.5c-0.4-0.4-0.8-0.7-1.2-1.1
				c-0.2-0.2-0.3-0.5-0.3-0.9c0-0.3,0-0.6,0-1l0.1,0c0.5,0.6,1.5,1.1,2.7,1.4c0,0.3-0.1,0.6-0.1,1c1,1,2.1,2.1,3.1,3.1
				c0.9,1,1.5,1.9,1.8,2.7c0.2,0.6,0.4,1.2,0.2,1.8c-0.2,0.5-0.5,1-0.9,1.3l-0.1,0.1c-0.5,0.5-1,0.2-1.2,0c-0.2-0.2-0.4-0.7,0.1-1.2
				L238.2,246.3z"/>
			<path class="st8" d="M244.3,243c-0.5-0.6-1.1-1.3-1.7-1.8l-0.9-0.9c-1.7-1.6-4.2-3.7-5.9-5.1c-0.1-0.6-0.1-1.3-0.1-1.8l0.1-0.1
				c2.2,1.7,4.5,3.9,6.6,5.9c0.6,0.5,1.1,1.1,1.4,1.5c0.5,0.5,0.6,1.1,0.7,2.2L244.3,243z"/>
			<path class="st8" d="M244,226.6c-0.7,0.1-1.3,0.3-1.9,0.4c-0.2-0.5-0.3-1.1-0.4-1.5c0.6-0.2,1.2-0.3,1.9-0.4
				C243.9,225.7,244,226.1,244,226.6z M245.3,224.5c-0.7,0.1-1.3,0.3-1.9,0.4c-0.2-0.5-0.3-1.1-0.4-1.5c0.6-0.2,1.2-0.3,1.9-0.4
				C245.2,223.6,245.3,224,245.3,224.5z M251.2,232.7c-0.8,1.1-1.7,1.6-2.5,1c-0.3-0.2-0.6-0.6-0.9-1.2c-0.6-1.1-0.7-2.8-0.4-5.3
				l-0.8-0.5c-0.1-0.5-0.2-1-0.3-1.4l0.1-0.1c1.6,1.1,3.2,2.3,4.8,3.4c0.7,0.5,1.2,0.8,1.7,0.7c0.4-0.1,0.7-0.4,1-0.9l0.2-0.2
				l1.3,0.9l-0.2,0.2c-0.7,1-1.5,1.5-2.9,1.1C252.1,231.1,251.8,231.9,251.2,232.7z M248.5,228c-0.4,2.5-0.3,4,0.2,4.4
				c0.4,0.3,1-0.2,1.5-0.9c0.3-0.4,0.6-1,0.8-1.7L248.5,228z"/>
			<path class="st8" d="M254.5,227.3c0.3-0.4,0.4-1,0.4-1.4c0-0.4-0.2-0.8-1-1.3c-2.2-1.3-4.2-2.3-6.7-3.7l-0.6-0.3l-0.4-1.5l0.1,0
				c2.6,1.3,5.3,2.9,8.6,4.9c0.5,0.3,1.4,0.4,2.2-0.9l0.1-0.1l1.4,0.8l-0.1,0.2c-0.6,1-1.4,1.5-2.4,1.4l0,0c0.4,0.7,0.5,1.7-0.1,2.8
				l-0.1,0.2c-0.4,0.6-0.9,0.5-1.2,0.3c-0.3-0.2-0.6-0.6-0.2-1.1L254.5,227.3z"/>
			<path class="st8" d="M264.6,211.2l-0.1,0.3c-0.6,1.4-1.4,1.9-2.1,1.9l0,0.1c0.5,1,0.5,1.8,0.2,2.4c-0.2,0.5-0.6,1-1.5,0.8l0,0
				c0.3,0.8,0.4,1.6,0,2.4c-0.3,0.6-0.8,0.9-1.5,0.7l0,0c0.5,1.1,0.2,2.1-0.1,2.9l-0.1,0.2c-0.3,0.6-0.8,0.6-1.1,0.4
				c-0.3-0.1-0.6-0.5-0.3-1.1l0.2-0.4c0.5-1,0.6-2,0-2.9l-0.6-1l0.1-1l0.1,0c0.6,0.8,0.9,1.3,1.3,1.5c0.4,0.2,0.7,0,0.9-0.4
				c0.2-0.3,0.2-0.7,0.1-1.1c-0.1-0.4-0.3-0.8-0.7-1.2l-0.5-0.6l0-1.1l0.1,0c0.7,0.7,1.1,1.1,1.5,1.3c0.3,0.1,0.8,0.1,1-0.3
				c0.2-0.4,0.1-0.7,0.1-0.9c-0.1-0.4-0.4-0.8-0.8-1.2c-0.2-0.1-0.3-0.3-0.8-0.6l-0.2-1.1l0.1,0c0.4,0.4,1,0.8,1.4,1
				c0.9,0.4,1.6-0.2,2.1-1.3l0.1-0.3L264.6,211.2z"/>
			<path class="st8" d="M263.3,209.3c0.2-0.5,0.2-1.1,0.1-1.5c-0.1-0.4-0.4-0.8-1.2-1c-2.4-0.8-4.6-1.4-7.4-2.1l-0.6-0.2l-0.7-1.4
				l0-0.1c2.9,0.7,5.8,1.6,9.4,2.8c0.5,0.2,1.5,0.1,1.9-1.3l0.1-0.2l1.5,0.5l-0.1,0.3c-0.4,1.1-1,1.8-2,1.9l0,0
				c0.6,0.6,0.9,1.6,0.5,2.7l-0.1,0.2c-0.2,0.7-0.8,0.7-1.1,0.6c-0.3-0.1-0.7-0.4-0.5-1.1L263.3,209.3z"/>
			<path class="st8" d="M263.8,193c1,0.1,1.7,0.2,2.2,0.3c0.6,0.1,1.2,0.5,1.6,0.8c0.7,0.6,1.1,1.4,1,2.1c-0.1,0.5-0.6,1-1.4,1.3
				l0,0.1c0.5,0.7,0.8,1.5,0.6,2.4c-0.1,0.7-0.6,1-1.3,1l0,0c0.7,0.9,0.7,2,0.5,2.8l0,0.2c-0.1,0.7-0.7,0.8-1,0.7
				c-0.3-0.1-0.7-0.4-0.6-1l0.1-0.4c0.2-1.1,0.1-2.1-0.6-2.8l-0.8-0.9l-0.1-1l0.1,0c0.7,0.7,1.2,1.1,1.6,1.2
				c0.4,0.1,0.7-0.1,0.8-0.5c0.1-0.4,0-0.8-0.1-1.2c-0.2-0.5-0.6-0.6-1.8-1.3l-0.3-0.8l0.1-0.1c0.4,0.2,0.8,0.3,1.2,0.4
				c0.9,0.2,1.6-0.4,1.7-1c0.1-0.3,0-0.7-0.4-0.8c-0.5-0.1-1.3-0.1-2.1-0.1C264.3,194,264,193.5,263.8,193L263.8,193z"/>
		</g>
	</g>
	<g>
		<defs>
			<polygon id="SVGID_1_" points="270.2,179.1 176.2,162.5 82.6,181.8 82.6,150.1 178.2,187.7 270.2,151.2 			"/>
		</defs>
		<clipPath id="SVGID_2_">
			<use xlink:href="#SVGID_1_"  style="overflow:visible;"/>
		</clipPath>
		<circle class="st9" cx="178.7" cy="178.8" r="85.5"/>
	</g>
	<g id="Artwork_18">
		<g>
			<defs>
				
					<rect id="SVGID_3_" x="17" y="138.3" transform="matrix(9.757598e-02 -0.9952 0.9952 9.757598e-02 -124.3978 183.9332)" width="44.5" height="44.5"/>
			</defs>
			<clipPath id="SVGID_4_">
				<use xlink:href="#SVGID_3_"  style="overflow:visible;"/>
			</clipPath>
			<g class="st10">
				<defs>
					
						<rect id="SVGID_5_" x="17" y="138.3" transform="matrix(9.757598e-02 -0.9952 0.9952 9.757598e-02 -124.3978 183.9332)" width="44.5" height="44.5"/>
				</defs>
				<clipPath id="SVGID_6_">
					<use xlink:href="#SVGID_5_"  style="overflow:visible;"/>
				</clipPath>
				<path class="st11" d="M36.7,138.9c1.5-0.2,3-0.2,4.6,0c12,1.2,20.7,11.9,19.6,23.8c-0.2,1.6-0.5,3.1-0.9,4.5l0.3,0.4
					c0.5-1.6,0.9-3.2,1-4.9c1.2-12.2-7.8-23.1-20-24.3c-1.7-0.2-3.4-0.1-5,0.1L36.7,138.9z"/>
				<path class="st11" d="M41.4,182.2c-1.4,0.1-2.9,0.2-4.3,0c-12-1.2-20.7-11.9-19.6-23.8c0.1-1.5,0.4-2.9,0.8-4.2l-0.3-0.4
					c-0.5,1.5-0.8,3-1,4.6c-1.2,12.2,7.8,23.1,20,24.3c1.6,0.2,3.2,0.1,4.7,0L41.4,182.2z"/>
				<path class="st11" d="M51.7,149.2c-0.2,0-4.9-0.5-5.2-0.5c-1.6-0.2-2.3,0.2-3,1.7c-0.2,0.4-0.4,0.9-0.6,1.4
					c-0.2,0.4-0.4,0.9-0.5,1.3c-0.3,0.6-0.5,1.1-0.8,1.4c-0.2,0.2-0.4,0.5-0.8,0.5c-0.4,0-0.6-0.3-0.9-0.5c-1.3-1.5-2.8-2.1-4.4-2
					c-1.6,0.1-3,1.4-3.1,2.8c-0.1,1.6,1,3.1,2.5,3.4c1.6,0.4,3.2,0,4.7-1.1c0.3-0.2,0.6-0.3,0.9-0.2c0.2,0,0.4,0.2,0.6,0.5
					c0.3,0.6,0.8,2.4,0.9,2.9l-0.8,0.2c-0.2-0.6-0.6-2.2-0.9-2.7c0-0.1-0.1-0.1-0.1-0.1c0,0-0.1,0-0.2,0.1c-1.7,1.2-3.5,1.7-5.4,1.2
					c-2-0.4-3.3-2.3-3.1-4.3c0,0,0,0,0,0c0.2-1.8,1.9-3.4,3.9-3.5c1.9-0.1,3.6,0.7,5.1,2.3c0.1,0.1,0.2,0.2,0.2,0.2
					c0,0,0.1-0.1,0.2-0.2c0.3-0.3,0.5-0.8,0.7-1.3c0.2-0.4,0.4-0.9,0.5-1.3c0.2-0.5,0.4-0.9,0.6-1.4c0.8-1.8,1.9-2.4,3.8-2.1
					c0.2,0,3.5,0.3,5.2,0.5L51.7,149.2z"/>
			</g>
			<g class="st10">
				<defs>
					<path id="SVGID_7_" d="M38.9,166.9c0.3,0.5,0.9,0.3,1.1,0.9c0.3,1.1,0.1,0.6,0.4,1.7c0.3,1,0.3,3.1,1.2,3.6
						c3.1,1.6,12.4,1.5,12.7,1.3l1.8-16.2c-0.4,0-10.5-1.1-10.8-1.2c-1.8-0.2-2.7,0.5-3.4,2.1c-0.4,0.9-0.4,1.4-0.8,2.3
						c-0.2,0.5-0.3,1.1-0.6,1.6c-0.2,0.2-0.6,0.4-0.6,0.9c0,0.1,0,0.5,0.7,0c0.3-0.3-0.2,0.6-0.8,1.4
						C39.4,166.1,38.9,166.8,38.9,166.9C38.9,166.9,38.9,166.9,38.9,166.9"/>
				</defs>
				<clipPath id="SVGID_8_">
					<use xlink:href="#SVGID_7_"  style="overflow:visible;"/>
				</clipPath>
				
					<rect x="31.7" y="172.6" transform="matrix(0.7727 -0.6347 0.6347 0.7727 -99.369 68.1344)" class="st12" width="27.6" height="0.4"/>
				
					<rect x="32.8" y="174" transform="matrix(0.7727 -0.6347 0.6347 0.7727 -99.9696 69.1379)" class="st12" width="27.6" height="0.4"/>
				
					<rect x="30.1" y="170.8" transform="matrix(0.7727 -0.6347 0.6347 0.7727 -98.3143 67.4323)" class="st12" width="29.8" height="0.4"/>
				
					<rect x="28.7" y="168.8" transform="matrix(0.7727 -0.6347 0.6347 0.7727 -97.0497 66.8559)" class="st12" width="32.3" height="0.4"/>
				
					<rect x="27.5" y="167" transform="matrix(0.7727 -0.6347 0.6347 0.7727 -96.0176 66.1404)" class="st12" width="33.7" height="0.4"/>
				
					<rect x="26.6" y="166.3" transform="matrix(0.7727 -0.6347 0.6347 0.7727 -96.037 64.7955)" class="st12" width="31.7" height="0.4"/>
				
					<rect x="25.9" y="166.2" transform="matrix(0.7727 -0.6347 0.6347 0.7727 -96.5425 63.1597)" class="st12" width="28.1" height="0.4"/>
				
					<rect x="24.7" y="164.9" transform="matrix(0.7727 -0.6347 0.6347 0.7727 -95.9773 62.1647)" class="st12" width="28.1" height="0.4"/>
				
					<rect x="23.7" y="163.6" transform="matrix(0.7727 -0.6347 0.6347 0.7727 -95.412 61.1697)" class="st12" width="28" height="0.4"/>
				
					<rect x="22.6" y="162.3" transform="matrix(0.7727 -0.6347 0.6347 0.7727 -94.8457 60.1734)" class="st12" width="28" height="0.4"/>
				
					<rect x="21.5" y="161" transform="matrix(0.7727 -0.6347 0.6347 0.7727 -94.2814 59.1798)" class="st12" width="28" height="0.4"/>
				
					<rect x="20.4" y="159.8" transform="matrix(0.7727 -0.6347 0.6347 0.7727 -93.715 58.1835)" class="st12" width="28" height="0.4"/>
			</g>
			<g class="st10">
				<defs>
					
						<rect id="SVGID_9_" x="17" y="138.3" transform="matrix(9.757598e-02 -0.9952 0.9952 9.757598e-02 -124.3978 183.9332)" width="44.5" height="44.5"/>
				</defs>
				<clipPath id="SVGID_10_">
					<use xlink:href="#SVGID_9_"  style="overflow:visible;"/>
				</clipPath>
				<path class="st13" d="M56.7,158.2l-0.1,0.8l-1.5-0.1c-4.8-0.5-9.3-0.9-9.5-0.9c-1.6-0.2-2.3,0.2-3,1.7c-0.2,0.4-0.4,0.9-0.6,1.4
					c-0.2,0.4-0.4,0.9-0.5,1.3c-0.3,0.6-0.5,1.1-0.8,1.4c-0.2,0.2-0.4,0.5-0.8,0.5c-0.4,0-0.6-0.3-0.9-0.5c-1.3-1.5-2.8-2.1-4.4-2
					c-1.5,0.1-3,1.3-3.1,2.8c0,0,0,0,0,0c-0.1,1.6,1,3.1,2.5,3.4c1.6,0.4,3.2,0,4.7-1.1c0.3-0.2,0.6-0.3,0.9-0.2
					c0.2,0,0.4,0.2,0.6,0.5c0.3,0.6,0.5,1.2,0.7,1.7c0.1,0.5,0.2,1.1,0.3,1.6c0.1,0.6,0.2,1.2,0.4,1.8c0.2,0.7,0.7,1,1.7,1.2
					c0.6,0.1,6.1,0.6,6.1,0.6l-0.1,0.8c-0.2,0-5.6-0.5-6.2-0.6c-0.9-0.1-2.1-0.4-2.4-1.8c-0.2-0.6-0.3-1.2-0.4-1.9
					c-0.1-0.5-0.2-1-0.3-1.5c-0.1-0.5-0.3-1-0.6-1.6c0-0.1-0.1-0.1-0.1-0.1c0,0-0.1,0-0.2,0.1c-1.7,1.2-3.5,1.7-5.4,1.2
					c-2-0.4-3.3-2.3-3.1-4.3c0,0,0,0,0,0c0.2-1.8,1.9-3.4,3.9-3.5c1.9-0.1,3.6,0.7,5.1,2.3c0.1,0.1,0.2,0.2,0.2,0.2
					c0,0,0.1-0.1,0.2-0.2c0.3-0.3,0.5-0.8,0.7-1.3c0.2-0.4,0.4-0.9,0.5-1.3c0.2-0.5,0.4-0.9,0.6-1.4c0.8-1.8,1.9-2.4,3.8-2.1
					c0.2,0,6.7,0.7,9.5,0.9L56.7,158.2z"/>
				<path class="st13" d="M55.7,162.1c-0.5,5.4-3.6,10-8,12.6l1.8,0.2c4-2.9,6.8-7.4,7.3-12.7c0.1-1.3,0.1-2.7-0.1-4l-1.2-0.1
					C55.8,159.4,55.8,160.7,55.7,162.1"/>
				<path class="st13" d="M21.6,158.7c-1,9.7,6.2,18.4,15.9,19.3c3.6,0.4,7.1-0.4,10.1-2.1l-2.2-0.2c-2.4,1-5.1,1.4-7.8,1.1
					c-9.1-0.9-15.8-9-14.9-18.1c0.9-9.1,9-15.8,18.1-14.9c7.3,0.7,13,6,14.5,12.8l1.2,0.1c-1.5-7.4-7.7-13.3-15.6-14
					C31.2,141.9,22.5,149,21.6,158.7"/>
			</g>
		</g>
	</g>
	<g id="Artwork_20">
		<g>
			<defs>
				
					<rect id="SVGID_11_" x="226.5" y="278.6" transform="matrix(0.8396 -0.5432 0.5432 0.8396 -123.627 183.5231)" width="44.9" height="44.9"/>
			</defs>
			<clipPath id="SVGID_12_">
				<use xlink:href="#SVGID_11_"  style="overflow:visible;"/>
			</clipPath>
			<g class="st14">
				<defs>
					
						<rect id="SVGID_13_" x="226.5" y="278.6" transform="matrix(0.8396 -0.5432 0.5432 0.8396 -123.627 183.5231)" width="44.9" height="44.9"/>
				</defs>
				<clipPath id="SVGID_14_">
					<use xlink:href="#SVGID_13_"  style="overflow:visible;"/>
				</clipPath>
				<path class="st15" d="M266.6,287.5c7.5,9.7,5.7,23.7-4,31.2c-9.7,7.5-23.7,5.7-31.2-4c-7.5-9.7-5.7-23.7,4-31.2
					C245.2,276,259.1,277.8,266.6,287.5z"/>
				<path class="st16" d="M256.6,285.1l1.3,2.1c1.9,1.2,3.6,2.9,4.9,4.9c5,7.7,2.8,18.1-5,23.1c-7.7,5-18.1,2.8-23.1-5
					c-5-7.7-2.8-18.1,5-23.1c2.3-1.5,4.7-2.3,7.2-2.6l1.9-1.2c-3.4,0-6.8,0.9-9.8,2.9c-8.3,5.4-10.7,16.4-5.3,24.7
					c5.4,8.3,16.4,10.7,24.7,5.3c8.3-5.4,10.7-16.4,5.3-24.7C261.9,288.6,259.4,286.5,256.6,285.1"/>
				<line class="st17" x1="241.9" y1="314.3" x2="255.4" y2="317.2"/>
				<line class="st17" x1="242.1" y1="312.4" x2="258" y2="315.8"/>
				<line class="st17" x1="242.7" y1="310.3" x2="260.4" y2="314.1"/>
				<line class="st17" x1="243.1" y1="308.1" x2="262.3" y2="312.2"/>
				<line class="st17" x1="243.5" y1="306.1" x2="263.7" y2="310.4"/>
				<line class="st17" x1="243.7" y1="304.2" x2="264.9" y2="308.7"/>
				<line class="st17" x1="244.3" y1="302" x2="265.3" y2="306.5"/>
				<line class="st17" x1="244.7" y1="299.8" x2="265.5" y2="304.3"/>
				<line class="st17" x1="245.2" y1="297.8" x2="266" y2="302.3"/>
				<line class="st17" x1="250" y1="296.9" x2="266.1" y2="300.3"/>
				<line class="st17" x1="250.3" y1="294.7" x2="265.7" y2="298"/>
				<line class="st17" x1="250.7" y1="292.5" x2="265.3" y2="295.6"/>
				<line class="st17" x1="251.2" y1="290.5" x2="264.3" y2="293.3"/>
				<line class="st17" x1="251.4" y1="288.5" x2="262.9" y2="291"/>
				<polygon class="st16" points="255.3,287.8 256.4,288 253,282.7 247.7,286.1 248.8,286.4 252.2,284.2 249.1,298.1 244.8,297.1 
					240.8,317.1 241.6,317.2 245.4,298.1 249.7,299 253,284.3 				"/>
				<polygon class="st18" points="255.3,287.8 256.4,288 253,282.7 247.7,286.1 248.8,286.4 252.2,284.2 249.1,298.1 244.8,297.1 
					240.8,317.1 241.6,317.2 245.4,298.1 249.7,299 253,284.3 				"/>
			</g>
		</g>
	</g>
	<g id="Artwork_19">
		<g>
			<defs>
				
					<rect id="SVGID_15_" x="211.1" y="23.2" transform="matrix(0.4451 -0.8955 0.8955 0.4451 87.3671 240.5078)" width="53.2" height="53.2"/>
			</defs>
			<clipPath id="SVGID_16_">
				<use xlink:href="#SVGID_15_"  style="overflow:visible;"/>
			</clipPath>
			<g class="st19">
				<defs>
					
						<rect id="SVGID_17_" x="211.1" y="23.2" transform="matrix(0.4451 -0.8955 0.8955 0.4451 87.3671 240.5078)" width="53.2" height="53.2"/>
				</defs>
				<clipPath id="SVGID_18_">
					<use xlink:href="#SVGID_17_"  style="overflow:visible;"/>
				</clipPath>
				<polyline class="st20" points="243.5,28.2 249.5,26.2 251.5,32.2 				"/>
				<polyline class="st20" points="255.4,63.5 261.3,61.5 259.3,55.5 				"/>
				<polyline class="st20" points="220.2,36.1 214.3,38.1 216.3,44 				"/>
				<polyline class="st20" points="232.1,71.3 226.1,73.3 224.1,67.3 				"/>
				<path class="st21" d="M229.3,33c2.7,3.5,4.3,8.2,5.4,11.1c2.1,5.8,2.5,10.5,0.4,14.5l-3.4,6.8"/>
				<path class="st21" d="M235.1,51.4c-4.2-2.7-6.9-6.8-7.6-12c-0.5-3.7,0.8-6.3,2-6.7c2.4-0.8,6.1,2.3,8,4.9c3,4.2,3.8,10.3-1,14.1
					"/>
				<path class="st21" d="M235.1,51.4c-4.2-2.7-6.9-6.8-7.6-12c-0.5-3.7,0.8-6.3,2-6.7c2.4-0.8,6.1,2.3,8,4.9c3,4.2,3.8,10.3-1,14.1
					"/>
				<path class="st21" d="M252.2,52.9c-5.4-0.7-15.1,1.6-17.6,6.6"/>
				<path class="st21" d="M237.8,56.3c4.2,2,7.7,2.2,10.8,0.9c2.7-1.1,4.1-3.6,3.9-4.5c-0.4-1.7-3.9-3-6.3-3.1
					c-4.4-0.3-7.5,1.6-8.4,5.3"/>
			</g>
			<g class="st19">
				<defs>
					<path id="SVGID_19_" d="M237.9,56c7.4,4.6,13.7,0.2,14.4-3.2C246.3,52.3,240.4,54.3,237.9,56"/>
				</defs>
				<clipPath id="SVGID_20_">
					<use xlink:href="#SVGID_19_"  style="overflow:visible;"/>
				</clipPath>
				<line class="st22" x1="236.3" y1="51" x2="242.4" y2="69.1"/>
				<line class="st22" x1="237.4" y1="50.6" x2="243.5" y2="68.7"/>
				<line class="st22" x1="238.4" y1="50.3" x2="244.8" y2="69.4"/>
				<line class="st22" x1="239.5" y1="49.9" x2="245.9" y2="69.1"/>
				<line class="st22" x1="240.5" y1="49.6" x2="247.1" y2="69.1"/>
				<line class="st22" x1="241.5" y1="49.2" x2="248.1" y2="68.8"/>
				<line class="st22" x1="242.6" y1="48.9" x2="249.1" y2="68.3"/>
				<line class="st22" x1="243.6" y1="48.5" x2="250.1" y2="67.9"/>
				<line class="st22" x1="244.7" y1="48.2" x2="251.1" y2="67.5"/>
				<line class="st22" x1="245.7" y1="47.9" x2="252.2" y2="67.1"/>
				<line class="st22" x1="246.7" y1="47.5" x2="253" y2="66"/>
				<line class="st22" x1="248.5" y1="45.8" x2="255.1" y2="65.3"/>
				<line class="st22" x1="247.8" y1="47.2" x2="254" y2="65.7"/>
				<line class="st22" x1="249.3" y1="44.7" x2="255.5" y2="63.3"/>
				<line class="st22" x1="250.8" y1="45.7" x2="256.4" y2="62.5"/>
			</g>
			<g class="st19">
				<defs>
					<path id="SVGID_21_" d="M231.8,32.8c-0.9-0.4-2.7-0.2-2.7-0.2s1.8,3,4.2,7.7c2.4,4.7,3.1,11.4,3.1,11.4s1.3,0,2.7-3.3
						s0.8-6-0.5-9.1C237.2,36.4,232.8,33.4,231.8,32.8C231.8,32.9,231.8,32.8,231.8,32.8"/>
				</defs>
				<clipPath id="SVGID_22_">
					<use xlink:href="#SVGID_21_"  style="overflow:visible;"/>
				</clipPath>
				<line class="st23" x1="246.4" y1="44.5" x2="228.3" y2="50.6"/>
				<line class="st23" x1="246" y1="43.5" x2="227.9" y2="49.5"/>
				<line class="st23" x1="246.7" y1="45.6" x2="228.6" y2="51.6"/>
				<line class="st23" x1="247.1" y1="46.6" x2="229" y2="52.7"/>
				<line class="st23" x1="245.7" y1="42.4" x2="226.6" y2="48.9"/>
				<line class="st23" x1="245.3" y1="41.4" x2="226.2" y2="47.8"/>
				<line class="st23" x1="245" y1="40.3" x2="225.5" y2="46.9"/>
				<line class="st23" x1="244.6" y1="39.3" x2="225.1" y2="45.9"/>
				<line class="st23" x1="244.3" y1="38.3" x2="224.9" y2="44.8"/>
				<line class="st23" x1="243.9" y1="37.2" x2="224.5" y2="43.7"/>
				<line class="st23" x1="243.6" y1="36.2" x2="224.3" y2="42.7"/>
				<line class="st23" x1="243.2" y1="35.1" x2="223.9" y2="41.6"/>
				<line class="st23" x1="242.9" y1="34.1" x2="224.4" y2="40.3"/>
				<line class="st23" x1="243.2" y1="31.7" x2="223.7" y2="38.2"/>
				<line class="st23" x1="242.5" y1="33.1" x2="224" y2="39.3"/>
				<line class="st23" x1="243.6" y1="30.4" x2="225" y2="36.6"/>
				<line class="st23" x1="241.9" y1="29.8" x2="225.1" y2="35.5"/>
			</g>
			<g class="st19">
				<defs>
					
						<rect id="SVGID_23_" x="211.1" y="23.2" transform="matrix(0.4451 -0.8955 0.8955 0.4451 87.3671 240.5078)" width="53.2" height="53.2"/>
				</defs>
				<clipPath id="SVGID_24_">
					<use xlink:href="#SVGID_23_"  style="overflow:visible;"/>
				</clipPath>
				<path class="st24" d="M246.5,33.2c-4-2-8.4-2.4-12.4-1.4c0.4,0.3,0.8,0.6,1.2,0.9c3.5-0.7,7.3-0.3,10.8,1.5
					c8.4,4.2,11.8,14.4,7.7,22.8c-4.2,8.4-14.4,11.8-22.8,7.7s-11.8-14.4-7.7-22.8c0.6-1.1,1.3-2.2,2-3.1c-0.1-0.6-0.1-1.1-0.1-1.7
					c-1.2,1.2-2.2,2.7-3,4.3c-4.5,9-0.8,19.9,8.2,24.3s19.9,0.8,24.3-8.2C259.2,48.6,255.5,37.7,246.5,33.2"/>
			</g>
		</g>
	</g>
	<g>
		<g>
			<path d="M248.1,229.9c0.2-0.5,0.3-1,0.5-1.5c0.2-0.8-0.3-1.6-1-1.8c-0.8-0.2-1.6,0.3-1.8,1c-0.2,0.5-0.3,1-0.5,1.5
				c-0.2,0.8,0.3,1.6,1,1.8C247,231.2,247.8,230.7,248.1,229.9L248.1,229.9z"/>
		</g>
	</g>
	<g>
		<defs>
			<polygon id="SVGID_25_" points="200.1,59.5 157.6,59.5 150.7,22 206,22 			"/>
		</defs>
		<clipPath id="SVGID_26_">
			<use xlink:href="#SVGID_25_"  style="overflow:visible;"/>
		</clipPath>
		<circle class="st25" cx="178.4" cy="179.1" r="142.3"/>
	</g>
	<g>
		<defs>
			<polygon id="SVGID_27_" points="306.8,285.9 272.2,257.2 285.1,217.7 330.5,234.5 			"/>
		</defs>
		<clipPath id="SVGID_28_">
			<use xlink:href="#SVGID_27_"  style="overflow:visible;"/>
		</clipPath>
		<circle class="st26" cx="178.4" cy="179.1" r="142.3"/>
	</g>
	<g>
		<defs>
			<polygon id="SVGID_29_" points="86.4,257.2 49.9,286.8 28.1,233.5 63.7,220.6 			"/>
		</defs>
		<clipPath id="SVGID_30_">
			<use xlink:href="#SVGID_29_"  style="overflow:visible;"/>
		</clipPath>
		<circle class="st27" cx="178.4" cy="179.1" r="142.3"/>
	</g>
	<g>
		<g>
			<path class="st8" d="M103.7,148c-0.8-0.4-1.1-1.2-0.8-1.9c0.4-0.8,1.2-1,1.8-0.7c0.3,0.1,0.5,0.3,0.6,0.5c0.5-0.3,1-0.8,1.4-1.6
				c0.6-1.3,0.4-2.4-0.6-2.9c-1-0.5-1.9,0.3-2.9,1.3c-1.8,1.8-3.3,3-5.4,1.9c-1.9-0.9-2.6-3.1-1.5-5.5c1.1-2.2,3-3.3,4.4-2.7
				c0.8,0.4,1.1,1.2,0.7,1.8c-0.4,0.8-1.2,1-1.8,0.7c-0.3-0.1-0.4-0.3-0.5-0.4c-0.4,0.2-0.8,0.6-1.1,1.4c-0.6,1.2-0.3,2.1,0.6,2.5
				c1,0.5,1.9-0.3,2.9-1.3c1.8-1.7,3.3-3,5.4-1.9c2.2,1.1,2.7,3.4,1.5,5.8C107.3,147.4,105.1,148.7,103.7,148z"/>
			<path class="st8" d="M109.4,138.4l0.8-1.3l-7.6-4.8l-0.8,1.3l-1.7-1.1l2.9-4.6l1.7,1.1l-0.8,1.3l7.6,4.8l0.8-1.3l1.7,1.1
				l-2.9,4.6L109.4,138.4z"/>
			<path class="st8" d="M113.2,132.3l0.9-1.2l-7-5.7l-0.9,1.2l-1.6-1.3l3.4-4.2l1.6,1.3l-1.1,1.3l7,5.7l2.2-2.8l-1.4-1.2l1.4-1.7
				l3,2.4l-5.9,7.4L113.2,132.3z"/>
			<path class="st8" d="M113.7,117.5l-0.9,0.8l-1.4-1.5l3.7-3.5l1.4,1.5l-1,0.9l6.9,3.3l-2.8-7.1l-1.1,1l-1.4-1.5l3.8-3.5l1.4,1.5
				l-0.9,0.8l4.2,11.4l-0.9,0.9L113.7,117.5z"/>
			<path class="st8" d="M129.6,115.3l1.2-0.8l-5.1-7.5l-1.2,0.8l-1.1-1.7l8-5.5l2.1,3.1l-1.8,1.2l-1-1.4l-3.2,2.2l2,2.9l3.3-2.2
				l1.1,1.6l-3.3,2.2l2.1,3l3.2-2.2l-1-1.4l1.8-1.2l2.1,3.1l-8.1,5.5L129.6,115.3z"/>
			<path class="st8" d="M139.2,108.9l1.3-0.6l-3.9-8.1l-1.3,0.6l-0.9-1.8l4.5-2.2c2.7-1.3,5.2-1.1,6.3,1.3c0.7,1.5,0.4,3.1-0.7,4.3
				l3.3,2.3l1.3-0.6l0.9,1.8l-2.7,1.3l-4.5-3.3c-0.2,0.1-0.5,0.3-0.7,0.4c-0.4,0.2-0.7,0.3-1,0.4l1.3,2.6l1.5-0.7l0.9,1.8l-4.8,2.3
				L139.2,108.9z M143.3,99.2c-0.6-1.2-1.9-1.3-3.5-0.6l-1.1,0.5l1.8,3.8c0.2-0.1,0.5-0.2,1.2-0.5
				C143.2,101.7,143.9,100.4,143.3,99.2z"/>
			<path class="st8" d="M155,102.1l1.4-0.4l-2.1-8.8l-1.4,0.4l-0.5-1.9l9.3-2.3l0.9,3.6l-2.1,0.5l-0.4-1.7l-3.6,0.9l0.9,3.6l3.7-0.9
				l0.5,1.9l-3.7,0.9l0.8,3.3l1.7-0.4l0.5,1.9l-5.3,1.3L155,102.1z"/>
			<path class="st8" d="M166,99.6l1.5-0.1l-0.9-9l-1.5,0.1l-0.2-2l9.7-0.9l0.4,3.7l-2.1,0.2l-0.2-1.7l-3.8,0.4l0.3,3.5l3.9-0.4
				l0.2,1.9l-3.9,0.4l0.4,3.7l3.9-0.4l-0.2-1.7l2.1-0.2l0.4,3.7l-9.7,0.9L166,99.6z"/>
			<path class="st8" d="M177.5,98.6l1.5,0.1l0.4-9l-1.5-0.1l0.1-2l5,0.2c3,0.1,5.1,1.5,4.9,4.2c-0.1,1.7-1.2,2.9-2.6,3.4l1.8,3.6
				l1.5,0.1l-0.1,2l-3-0.1l-2.4-5.1c-0.3,0-0.5,0-0.8,0c-0.4,0-0.8,0-1.1-0.1l-0.1,2.9l1.6,0.1l-0.1,2l-5.3-0.2L177.5,98.6z
				 M185.6,91.9c0.1-1.4-1-2.1-2.8-2.1l-1.2-0.1l-0.2,4.2c0.2,0,0.6,0.1,1.3,0.1C184.4,94.1,185.6,93.3,185.6,91.9z"/>
			<path class="st8" d="M195.1,93.2l-1.5,6.8l1.6,0.4l-0.4,1.9l-5.2-1.2l0.4-1.9l1.4,0.3l2-8.8l-1.4-0.3l0.4-1.9l3.3,0.7l4.5,9.4
				l1.4-6l-1.6-0.4l0.4-1.9l5.1,1.1l-0.4,1.9l-1.4-0.3l-2.4,10.8l-1.2-0.2L195.1,93.2z"/>
			<path class="st8" d="M208.8,104.4l1.3,0.6l3.9-8.1l-1.3-0.6l0.9-1.8l8.7,4.1l-1.6,3.4l-1.9-0.9l0.7-1.6l-3.4-1.6l-1.6,3.4
				l3.5,1.7l-0.8,1.7l-3.5-1.7l-1.5,3.1l1.6,0.7l-0.9,1.8l-4.9-2.3L208.8,104.4z"/>
			<path class="st8" d="M217.4,108.3l0.9,0.6l7.7-5.7l-1.2-0.8l1.1-1.6l6.1,4.1l-1.1,1.6l-1.2-0.8l-2.3,9.3l0.9,0.6l-1.1,1.7
				l-4.2-2.8l1.1-1.6l1.3,0.8l0.6-2.2l-4.1-2.7l-1.8,1.4l1.3,0.9l-1.1,1.6l-4.2-2.8L217.4,108.3z M226.6,109.7l1.3-5.3l-4.3,3.3
				L226.6,109.7z"/>
			<path class="st8" d="M229.3,116.5l1.1,1l6.1-6.6l-1.1-1l1.4-1.5l3.7,3.4c2.2,2,2.9,4.4,1.1,6.4c-1.1,1.2-2.8,1.5-4.2,0.9l-1,4
				l1.1,1l-1.4,1.5l-2.2-2l1.5-5.4c-0.2-0.2-0.4-0.3-0.6-0.5c-0.3-0.3-0.6-0.5-0.8-0.7l-2,2.1l1.2,1.1l-1.4,1.5L228,118L229.3,116.5
				z M239.9,116.7c0.9-1,0.5-2.2-0.8-3.5l-0.9-0.8l-2.8,3.1c0.2,0.2,0.4,0.4,0.9,0.9C237.5,117.5,238.9,117.7,239.9,116.7z"/>
			<path class="st8" d="M238.4,124.8l0.9,1.2l7.5-5l-1-1.3l1.6-1.2l2.1,2.9l-3.4,7.5l8.2-1.1l2.1,2.8l-1.6,1.2l-1-1.3l-7,5.7
				l0.9,1.2l-1.6,1.2l-3.2-4.3l1.6-1.2l0.9,1.3l5.2-4.2l-7.5,0.9l-0.2-0.2l3-6.9l-5.5,3.8l0.9,1.3l-1.6,1.2l-3.2-4.3L238.4,124.8z"
				/>
			<path class="st8" d="M249,138.4c0.8-0.4,1.6-0.2,2,0.5c0.4,0.8,0.1,1.6-0.5,1.9c-0.3,0.1-0.5,0.2-0.8,0.2c-0.1,0.6,0,1.3,0.4,2.1
				c0.6,1.3,1.6,1.8,2.6,1.3c1-0.5,0.9-1.7,0.7-3.1c-0.3-2.5-0.4-4.4,1.8-5.5c1.9-0.9,4.1-0.2,5.2,2.2c1.1,2.2,0.8,4.4-0.6,5.1
				c-0.8,0.4-1.6,0.1-1.9-0.5c-0.4-0.8,0-1.6,0.5-1.9c0.3-0.1,0.4-0.2,0.6-0.2c0-0.4-0.1-1-0.4-1.7c-0.6-1.1-1.5-1.5-2.3-1.1
				c-1,0.5-0.9,1.7-0.7,3c0.3,2.5,0.4,4.4-1.8,5.5c-2.2,1.1-4.3,0-5.5-2.4C247.2,141.6,247.6,139.1,249,138.4z"/>
		</g>
	</g>
</g>
<g id="Layer_2" class="st28">
	<g class="st29">
		<line class="st30" x1="178.7" y1="-0.3" x2="178.7" y2="357.7"/>
	</g>
	<g class="st29">
		<line class="st30" x1="194.3" y1="0.4" x2="163.1" y2="357.1"/>
	</g>
	<g class="st29">
		<line class="st30" x1="209.8" y1="2.5" x2="147.6" y2="355"/>
	</g>
	<g class="st29">
		<line class="st30" x1="225.1" y1="5.8" x2="132.4" y2="351.6"/>
	</g>
	<g class="st29">
		<line class="st30" x1="240" y1="10.5" x2="117.5" y2="346.9"/>
	</g>
	<g class="st29">
		<line class="st30" x1="254.4" y1="16.5" x2="103.1" y2="341"/>
	</g>
	<g class="st29">
		<line class="st30" x1="268.2" y1="23.7" x2="89.2" y2="333.8"/>
	</g>
	<g class="st29">
		<line class="st30" x1="281.4" y1="32.1" x2="76.1" y2="325.4"/>
	</g>
	<g class="st29">
		<line class="st30" x1="293.8" y1="41.6" x2="63.7" y2="315.9"/>
	</g>
	<g class="st29">
		<line class="st30" x1="305.3" y1="52.2" x2="52.2" y2="305.3"/>
	</g>
	<g class="st29">
		<line class="st30" x1="315.9" y1="63.7" x2="41.6" y2="293.8"/>
	</g>
	<g class="st29">
		<line class="st30" x1="325.4" y1="76.1" x2="32.1" y2="281.4"/>
	</g>
	<g class="st29">
		<line class="st30" x1="333.8" y1="89.2" x2="23.7" y2="268.2"/>
	</g>
	<g class="st29">
		<line class="st30" x1="341" y1="103.1" x2="16.5" y2="254.4"/>
	</g>
	<g class="st29">
		<line class="st30" x1="346.9" y1="117.5" x2="10.5" y2="240"/>
	</g>
	<g class="st29">
		<line class="st30" x1="351.6" y1="132.4" x2="5.8" y2="225.1"/>
	</g>
	<g class="st29">
		<line class="st30" x1="355" y1="147.6" x2="2.5" y2="209.8"/>
	</g>
	<g class="st29">
		<line class="st30" x1="357.1" y1="163.1" x2="0.4" y2="194.3"/>
	</g>
	<g class="st29">
		<line class="st30" x1="357.7" y1="178.7" x2="-0.3" y2="178.7"/>
	</g>
	<g class="st29">
		<line class="st30" x1="357.1" y1="194.3" x2="0.4" y2="163.1"/>
	</g>
	<g class="st29">
		<line class="st30" x1="355" y1="209.8" x2="2.5" y2="147.6"/>
	</g>
	<g class="st29">
		<line class="st30" x1="351.6" y1="225.1" x2="5.8" y2="132.4"/>
	</g>
	<g class="st29">
		<line class="st30" x1="346.9" y1="240" x2="10.5" y2="117.5"/>
	</g>
	<g class="st29">
		<line class="st30" x1="341" y1="254.4" x2="16.5" y2="103.1"/>
	</g>
	<g class="st29">
		<line class="st30" x1="333.8" y1="268.2" x2="23.7" y2="89.2"/>
	</g>
	<g class="st29">
		<line class="st30" x1="325.4" y1="281.4" x2="32.1" y2="76.1"/>
	</g>
	<g class="st29">
		<line class="st30" x1="315.9" y1="293.8" x2="41.6" y2="63.7"/>
	</g>
	<g class="st29">
		<line class="st30" x1="305.3" y1="305.3" x2="52.2" y2="52.2"/>
	</g>
	<g class="st29">
		<line class="st30" x1="293.8" y1="315.9" x2="63.7" y2="41.6"/>
	</g>
	<g class="st29">
		<line class="st30" x1="281.4" y1="325.4" x2="76.1" y2="32.1"/>
	</g>
	<g class="st29">
		<line class="st30" x1="268.2" y1="333.8" x2="89.2" y2="23.7"/>
	</g>
	<g class="st29">
		<line class="st30" x1="254.4" y1="341" x2="103.1" y2="16.5"/>
	</g>
	<g class="st29">
		<line class="st30" x1="240" y1="346.9" x2="117.5" y2="10.5"/>
	</g>
	<g class="st29">
		<line class="st30" x1="225.1" y1="351.6" x2="132.4" y2="5.8"/>
	</g>
	<g class="st29">
		<line class="st30" x1="209.8" y1="355" x2="147.6" y2="2.5"/>
	</g>
	<g class="st29">
		<line class="st30" x1="194.3" y1="357.1" x2="163.1" y2="0.4"/>
	</g>
	<g class="st29">
		<line class="st30" x1="178.7" y1="357.7" x2="178.7" y2="-0.3"/>
	</g>
	<g class="st29">
		<line class="st30" x1="-0.3" y1="178.7" x2="357.7" y2="178.7"/>
	</g>
	<g class="st29">
		<line class="st30" x1="52.2" y1="52.2" x2="305.3" y2="305.3"/>
	</g>
	<g class="st29">
		<line class="st30" x1="305.3" y1="52.2" x2="52.2" y2="305.3"/>
	</g>
	<g class="st29">
		<line class="st30" x1="-0.3" y1="178.7" x2="357.7" y2="178.7"/>
	</g>
	<circle class="st31" cx="179.4" cy="179" r="144"/>
</g>
</svg>
