<?xml version="1.0" encoding="utf-8"?>
<!-- Generator: Adobe Illustrator 23.0.1, SVG Export Plug-In . SVG Version: 6.00 Build 0)  -->
<svg version="1.1" xmlns="http://www.w3.org/2000/svg" xmlns:xlink="http://www.w3.org/1999/xlink" x="0px" y="0px"
	 viewBox="0 0 357.5 357.5" style="enable-background:new 0 0 357.5 357.5;" xml:space="preserve">
<style type="text/css">
	.st0{opacity:0.41;fill:#FFFFFF;}
	.st1{opacity:0.65;}
	.st2{opacity:0.26;fill:#B5BF30;}
	.st3{fill:#CAD3BD;}
	.st4{fill:#B6CFD8;}
	.st5{fill:none;stroke:#000000;stroke-width:1.8789;stroke-miterlimit:10;}
	.st6{fill:none;stroke:#000000;stroke-width:1.9821;stroke-miterlimit:10;}
	.st7{fill:#231F20;}
	.st8{fill:#FFF5EC;}
	.st9{clip-path:url(#SVGID_2_);fill:none;stroke:#FFF5EC;stroke-width:1.3053;stroke-miterlimit:10;}
	.st10{clip-path:url(#SVGID_4_);}
	.st11{clip-path:url(#SVGID_6_);fill:#1D1D1B;}
	.st12{clip-path:url(#SVGID_8_);fill:#1D1D1B;}
	.st13{clip-path:url(#SVGID_10_);fill:#1D1D1B;}
	.st14{clip-path:url(#SVGID_12_);}
	
		.st15{clip-path:url(#SVGID_14_);fill:none;stroke:#1D1D1B;stroke-width:0.3838;stroke-miterlimit:10;stroke-dasharray:3.9203,7.8405;}
	.st16{clip-path:url(#SVGID_14_);fill:#1D1D1B;}
	.st17{clip-path:url(#SVGID_14_);fill:none;stroke:#1D1D1B;stroke-width:0.3379;stroke-linejoin:bevel;stroke-miterlimit:10;}
	.st18{clip-path:url(#SVGID_14_);fill:none;stroke:#1D1D1B;stroke-width:0.1689;stroke-miterlimit:10;}
	.st19{clip-path:url(#SVGID_16_);}
	.st20{clip-path:url(#SVGID_18_);fill:none;stroke:#1D1D1B;stroke-width:0.4157;stroke-miterlimit:10;}
	.st21{clip-path:url(#SVGID_18_);fill:none;stroke:#1D1D1B;stroke-width:0.7319;stroke-miterlimit:10;}
	.st22{clip-path:url(#SVGID_20_);fill:none;stroke:#1D1D1B;stroke-width:0.3659;stroke-miterlimit:10;}
	.st23{clip-path:url(#SVGID_22_);fill:none;stroke:#1D1D1B;stroke-width:0.3659;stroke-miterlimit:10;}
	.st24{clip-path:url(#SVGID_24_);fill:#1D1D1B;}
	.st25{clip-path:url(#SVGID_26_);fill:none;stroke:#000000;stroke-width:0.9911;stroke-miterlimit:10;}
	.st26{clip-path:url(#SVGID_28_);fill:none;stroke:#000000;stroke-width:0.9911;stroke-miterlimit:10;}
	.st27{clip-path:url(#SVGID_30_);fill:none;stroke:#000000;stroke-width:0.9911;stroke-miterlimit:10;}
	.st28{display:none;}
	.st29{display:inline;}
	.st30{fill:none;stroke:#FF00FF;stroke-width:0.2;stroke-miterlimit:10;}
	.st31{display:inline;fill:none;stroke:#FF00FF;stroke-width:0.2;stroke-miterlimit:10;}
</style>
<g id="Layer_1">
	<circle class="st0" cx="179" cy="178.3" r="176.2"/>
	<g>
		<g class="st1">
			<path class="st2" d="M26.1,266.8l64.1-38.4c-27.8-49.5-9.2-111.8,39-138.8c21.1-11.8,49.9-13.3,49.9-13.3l0.9-74
				c0,0-42.3-2.6-87.1,22.6C8.2,72.4-22,181.1,26.1,266.8z"/>
			<path class="st3" d="M179.1,2.1l0,74.2c56.7,0,102,46.7,102,102c0,24.2-12.8,50-12.8,50l64.1,37c0,0,23-35.7,23-87
				C355.3,81.2,277.4,2.1,179.1,2.1z"/>
			<path class="st4" d="M332.5,265.9l-63.9-37.7c-28.7,49.4-92.8,67.6-142.1,38c-20.9-12.6-37.2-37.3-37.2-37.3l-63.3,38
				c0,0,18.3,37,63,63C173.9,379,281.9,352.6,332.5,265.9z"/>
		</g>
		<circle class="st5" cx="179.1" cy="178.3" r="176.2"/>
		<g>
			<g>
				<g>
					<path d="M62.9,91.7c-0.5,0-1,0-1.5,0.1c-0.6,0.1-1.1,0.2-1.6,0.4l-0.2-1c0.5-0.1,1-0.2,1.6-0.3c0.6-0.1,1.1-0.2,1.7-0.2
						L62.9,91.7z M66.1,95.9c0.1,0.5,0.2,1,0.3,1.4c0.1,0.5,0.1,1,0.1,1.5c-0.2,0-0.4,0-0.5,0c-0.1,0-0.3,0.1-0.6,0.2
						c0.1-0.6,0.1-1.1,0.1-1.6c0-0.5-0.1-1-0.2-1.6c-0.1-0.5-0.3-1.1-0.5-1.6c-0.2-0.5-0.4-1.1-0.7-1.7c-0.4,0.5-0.7,0.9-1,1.3
						c-0.3,0.4-0.5,0.7-0.7,0.9c-0.2,0.3-0.3,0.5-0.4,0.6c-0.1,0.2-0.2,0.3-0.2,0.4l-0.9-0.7c0.2-0.2,0.5-0.4,0.7-0.7
						c0.3-0.3,0.6-0.7,1-1.3c0.8-1,1.4-1.8,1.6-2.3c0.1,0.2,0.3,0.5,0.4,0.9c0.2,0.4,0.3,0.8,0.5,1.2c0.1,0.2,0.2,0.5,0.3,0.7
						c0.1,0.2,0.2,0.4,0.2,0.7l0.1,0.1c0.5-0.1,1-0.3,1.6-0.4c0.6-0.1,1.1-0.3,1.6-0.3l0.1,1.1c-0.4,0-0.9,0-1.3,0
						c-0.5,0-0.9,0.1-1.3,0.2l3.5,2.8c0.4,0.3,0.7,0.6,1.1,0.8c0.3,0.2,0.7,0.5,1.1,0.8l-0.7,0.9c-0.4-0.3-0.7-0.6-1-0.9
						c-0.3-0.3-0.6-0.5-1-0.8L66.1,95.9z M74.5,92.7c0.6-0.8,1.2-1.5,1.6-2.1s0.8-1.1,1-1.4l0.9,0.7c-0.2,0.2-0.4,0.4-0.6,0.7
						c-0.2,0.3-0.5,0.6-0.8,0.9c-0.3,0.3-0.6,0.7-0.9,1c-0.3,0.4-0.6,0.7-0.8,1.1c-0.3,0.3-0.6,0.7-0.8,1.1
						c-0.3,0.4-0.6,0.8-0.8,1.1c-0.3,0.4-0.5,0.7-0.7,1c-0.2,0.3-0.4,0.6-0.5,0.8L71,96.9c0.2-0.2,0.3-0.4,0.5-0.6
						c0.2-0.2,0.5-0.5,0.7-0.8c0.3-0.3,0.5-0.6,0.8-1c0.3-0.3,0.5-0.7,0.8-1l-5.2-4.1c-0.9,1.2-1.6,2.1-2,2.8l-0.9-0.7
						c0.3-0.3,0.7-0.7,1-1.1c0.4-0.4,0.8-0.9,1.2-1.5l-2-1.6c-0.5-0.4-0.9-0.7-1.2-0.9c-0.3-0.2-0.5-0.3-0.7-0.5
						c0.4-0.3,0.7-0.6,0.9-0.9c0.1-0.1,0.2-0.2,0.3-0.1c0.1,0,0.1,0.2,0.1,0.3c0,0.1,0,0.2,0.1,0.3c0.1,0.1,0.1,0.2,0.2,0.2l3,2.4
						c0.5-0.6,0.9-1.1,1.2-1.6c0.3-0.5,0.6-0.9,0.8-1.3l0.9,0.7c-0.3,0.3-0.6,0.7-1,1.1c-0.4,0.4-0.8,0.9-1.3,1.5L74.5,92.7z"/>
					<path d="M80.9,70.4c0.1,0.7,0.1,1.3,0,2c0,0.6-0.1,1.3-0.2,2c-0.1,0.7-0.2,1.3-0.4,2c-0.2,0.7-0.4,1.5-0.7,2.3
						c-0.2-0.1-0.5-0.2-0.7-0.2c-0.2,0-0.4,0-0.7,0.1c0.5-0.8,0.9-1.8,1.2-2.8c0.3-1.1,0.5-2.2,0.5-3.5c0-0.7,0-1.3-0.1-1.8
						c-0.1-0.5-0.2-0.9-0.4-1.3c0.2,0,0.4,0,0.6-0.1c0.2,0,0.4-0.1,0.6-0.2c0.2-0.1,0.3-0.1,0.3,0c0,0.1,0,0.2-0.1,0.3
						c0,0,0,0.1-0.1,0.2c0,0.1,0,0.2,0,0.3c0.8,0.1,1.5,0.2,2.2,0.2c0.7,0,1.4,0,2-0.1c0.7-0.1,1.3-0.2,2-0.4c0.7-0.2,1.3-0.5,2-0.8
						c0,0.2,0,0.4,0,0.6c0,0.2,0.1,0.4,0.2,0.6c-0.7,0.3-1.3,0.5-2,0.6c-0.6,0.2-1.3,0.3-2,0.3c-0.7,0.1-1.4,0.1-2.1,0.1
						C82.5,70.6,81.7,70.5,80.9,70.4z M91.8,76.5c-0.8,0.8-1.5,1.5-2.1,2.1c-0.6,0.6-1.1,1.1-1.6,1.5c-0.4,0.4-0.8,0.8-1.1,1.1
						c-0.3,0.3-0.5,0.6-0.7,0.8s-0.3,0.4-0.5,0.6c-0.1,0.2-0.2,0.4-0.3,0.5c-0.2-0.1-0.3-0.2-0.5-0.3c-0.2-0.1-0.4-0.2-0.5-0.2
						c0.2-0.4,0.3-0.7,0.4-1.1c0.1-0.4,0.1-0.8,0.1-1.4c0-0.5,0-0.9,0-1.2c0-0.3,0-0.6,0-0.9c0-0.3,0-0.5-0.1-0.7
						c0-0.2-0.1-0.4-0.1-0.7c-1.6,1.5-2.8,2.6-3.7,3.5l-0.7-0.8c1.1-0.9,2.7-2.3,4.8-4.1c2-1.8,3.5-3.3,4.6-4.3l0.7,0.8
						c-0.3,0.2-0.6,0.5-1,0.8c-0.3,0.3-0.7,0.6-1.1,1c-0.4,0.4-0.9,0.8-1.4,1.2c-0.5,0.5-1.1,1-1.8,1.6c0.1,0,0.3,0,0.4,0
						c0.1,0,0.2,0,0.3,0c0.2,0,0.3,0,0.4,0.1c0,0.1,0,0.2-0.1,0.3c0,0-0.1,0.2-0.1,0.4c0,0.2-0.1,0.5-0.1,1c0,0.3,0,0.6,0,0.8
						c0,0.2,0,0.5,0,0.7c0,0.2,0,0.5,0,0.7c0,0.3,0,0.6,0,0.9l4.9-4.7c-0.4,0-0.8-0.1-1.2-0.1c-0.4,0-0.8,0-1.3,0l0.1-1
						c0.5,0,1,0,1.4,0c0.4,0,0.8,0,1.2,0c0.4,0,0.8,0.1,1.2,0.1c0.4,0,0.8,0.1,1.3,0.1l-0.2,1.1c-0.3-0.1-0.5-0.1-0.7-0.1
						C92.2,76.5,92,76.5,91.8,76.5z M86.9,71.5c-0.2,0.1-0.4,0.3-0.6,0.4c-0.2,0.2-0.4,0.3-0.6,0.5c-0.2,0.2-0.5,0.4-0.7,0.6
						c-0.3,0.2-0.6,0.5-0.9,0.8c-0.3,0.3-0.6,0.6-0.9,0.8c-0.3,0.2-0.5,0.5-0.7,0.7c-0.2,0.2-0.4,0.4-0.6,0.6
						c-0.2,0.2-0.3,0.4-0.5,0.5l-0.8-0.8c0.2-0.1,0.4-0.3,0.6-0.4c0.2-0.2,0.4-0.3,0.6-0.5c0.2-0.2,0.5-0.4,0.7-0.6
						c0.3-0.2,0.5-0.5,0.9-0.8c0.3-0.3,0.6-0.6,0.9-0.8c0.3-0.2,0.5-0.5,0.7-0.7c0.2-0.2,0.4-0.4,0.6-0.6c0.2-0.2,0.3-0.4,0.5-0.5
						L86.9,71.5z"/>
				</g>
			</g>
			<g>
				<g>
					<path d="M314.6,119.3c-0.4-1-0.8-1.7-1.1-2.2l1-0.4c0.1,0.3,0.2,0.7,0.4,1.2c0.2,0.5,0.4,1,0.6,1.7c0.2,0.6,0.5,1.1,0.7,1.5
						c0.2,0.4,0.4,0.8,0.5,1.1l-1,0.4c-0.1-0.3-0.2-0.6-0.3-1c-0.1-0.4-0.3-0.8-0.5-1.3l-3.4,1.4c0.2,0.5,0.4,0.9,0.6,1.2
						c0.2,0.4,0.3,0.7,0.5,0.9l-1,0.4c-0.1-0.6-0.4-1.3-0.8-2.2l-3.4,1.4c0.3,0.3,0.6,0.7,0.9,1c0.3,0.3,0.6,0.6,0.9,0.9
						c-0.2,0.1-0.4,0.1-0.6,0.2c-0.1,0.1-0.3,0.2-0.4,0.3c-0.2-0.3-0.5-0.6-0.8-1c-0.3-0.4-0.7-0.8-1.1-1.2
						c-0.4-0.4-0.8-0.8-1.1-1.2c-0.4-0.4-0.7-0.7-1-1c0.4-0.2,0.7-0.5,0.9-0.9c0.2,0.3,0.4,0.6,0.7,1c0.3,0.4,0.6,0.8,0.9,1.1
						l3.7-1.5c-0.2-0.5-0.4-0.8-0.5-1.2c-0.2-0.3-0.3-0.6-0.5-0.9l1-0.4c0.1,0.3,0.2,0.6,0.3,0.9c0.1,0.4,0.3,0.8,0.4,1.2
						L314.6,119.3z M317.2,126.3c-0.3-0.8-0.6-1.5-0.8-2c-0.2-0.5-0.4-0.9-0.6-1.3l1.1-0.4c0.1,0.2,0.1,0.4,0.2,0.6
						c0.1,0.2,0.1,0.4,0.2,0.7c0.1,0.3,0.2,0.6,0.3,0.9c0.1,0.3,0.3,0.8,0.5,1.2c0.4,1,0.8,1.8,1.1,2.5c0.3,0.7,0.6,1.3,0.8,1.7
						l-1.1,0.4c-0.1-0.4-0.3-0.8-0.5-1.4c-0.2-0.6-0.5-1.2-0.8-2c-0.4,0.1-0.9,0.2-1.3,0.2c-0.4,0.1-0.8,0.1-1.2,0.2l-7.1,2.9
						c-0.4,0.2-0.8,0.3-1.2,0.5c-0.4,0.2-0.7,0.3-1.1,0.6l-0.5-1.2c0.4-0.1,0.8-0.2,1.2-0.4c0.4-0.1,0.8-0.3,1.2-0.4l4.6-1.9
						c-0.9-0.1-1.9-0.2-2.8-0.4c-0.9-0.2-1.9-0.5-3-1c0.1-0.2,0.2-0.4,0.2-0.6c0-0.2,0.1-0.4,0.1-0.7c0.8,0.4,1.6,0.8,2.4,1.1
						c0.8,0.3,1.6,0.4,2.5,0.5c0.8,0.1,1.7,0.1,2.6,0C315.3,126.7,316.2,126.5,317.2,126.3z M310.6,133.4c0.6-0.7,1.3-1.5,1.8-2.3
						c0.6-0.8,1.1-1.6,1.5-2.5l0.9,0.6c-0.5,0.9-1.1,1.8-1.6,2.6c-0.6,0.8-1.1,1.6-1.6,2.2L310.6,133.4z"/>
					<path d="M314.2,153.8c-0.1,0-0.2,0.1-0.3,0.1c-0.1,0-0.1,0.1-0.2,0.2s0,0.2,0,0.3c0,0.1,0,0.3,0.1,0.5c0.1,0.3,0.2,0.6,0.2,0.8
						c0.1,0.2,0.2,0.3,0.3,0.4c0.1,0.1,0.3,0.1,0.5,0.1c0.2,0,0.5,0,0.8,0c-0.1,0.2-0.2,0.4-0.3,0.6c0,0.2-0.1,0.4-0.1,0.5
						c-0.4,0-0.7-0.1-0.9-0.1c-0.3-0.1-0.5-0.2-0.7-0.4c-0.2-0.2-0.3-0.4-0.5-0.7c-0.1-0.3-0.2-0.6-0.3-1.1c-0.1-0.4-0.1-0.7-0.2-1
						c0-0.2,0-0.4,0-0.6c0.1-0.2,0.2-0.3,0.3-0.3c0.1-0.1,0.4-0.1,0.6-0.2l2.5-0.5l-0.3-1.5c-0.6,0.1-1.1,0.2-1.5,0.1
						c-0.4,0-0.9-0.1-1.2-0.4c-0.4-0.2-0.8-0.6-1.1-1.1c-0.4-0.5-0.8-1.2-1.2-2c0.2-0.1,0.4-0.2,0.6-0.4c0.1-0.2,0.3-0.4,0.4-0.6
						c0.2,0.8,0.5,1.5,0.8,2c0.3,0.5,0.6,0.9,0.9,1.2c0.3,0.3,0.7,0.4,1,0.5c0.4,0,0.8,0,1.3-0.1c-0.1-0.4-0.2-0.8-0.3-1.1
						c-0.1-0.3-0.2-0.6-0.2-0.8c0.3,0,0.5-0.1,0.8-0.1c0.3,0,0.6-0.1,0.9-0.2l1-0.2c0.4-0.1,0.7-0.2,1-0.2c0.3-0.1,0.5-0.2,0.7-0.2
						c0,0.2,0,0.3,0,0.5s0.1,0.4,0.1,0.7c0,0.3,0.1,0.6,0.2,1c0.1,0.4,0.2,0.9,0.3,1.4c0.1,0.6,0.2,1,0.3,1.4c0.1,0.4,0.2,0.7,0.2,1
						c0.1,0.3,0.1,0.5,0.2,0.7c0.1,0.2,0.1,0.3,0.2,0.5c-0.4,0-1,0.1-1.8,0.3l-1,0.2c-0.3,0.1-0.6,0.1-0.9,0.2
						c-0.2,0.1-0.5,0.1-0.8,0.3c0-0.2-0.1-0.5-0.1-0.9c-0.1-0.4-0.1-0.8-0.2-1.2L314.2,153.8z M319,143.6c-0.1-0.4-0.2-0.7-0.3-1.1
						c-0.1-0.3-0.2-0.6-0.3-0.8l1.1-0.2c0,0.2,0,0.5,0.1,0.8c0,0.3,0.1,0.7,0.2,1.1l0.9-0.2c0.6-0.1,1-0.2,1.5-0.3
						c0.4-0.1,0.8-0.2,1.1-0.3c0.3-0.1,0.5-0.1,0.7-0.2c0.2-0.1,0.4-0.1,0.5-0.2c0,0.2,0,0.4,0,0.6c0,0.2,0.1,0.4,0.1,0.6
						c0,0.2,0,0.3-0.1,0.3c-0.1,0-0.2,0-0.3-0.2c-0.1-0.1-0.3-0.2-0.6-0.1l-3.7,0.8c0.1,0.4,0.2,0.7,0.3,0.9
						c0.1,0.2,0.2,0.5,0.3,0.7l-1.1,0.2c0-0.2,0-0.5,0-0.7c0-0.3-0.1-0.6-0.2-0.9l-4.4,1c0.2,0.3,0.3,0.6,0.5,0.9
						c0.2,0.3,0.4,0.6,0.6,1c-0.2,0-0.3,0-0.5,0.1c-0.2,0-0.3,0.1-0.5,0.2c-0.4-0.9-0.9-1.8-1.3-2.6c-0.5-0.8-0.9-1.4-1.3-1.9
						c0.2-0.1,0.4-0.2,0.6-0.3c0.2-0.1,0.3-0.3,0.5-0.4c0.3,0.8,0.7,1.5,0.9,2.2L319,143.6z M316.2,149l1.2,5.3l1.1-0.2l-1.2-5.3
						L316.2,149z M320.3,153.7l-1.2-5.3l-1.1,0.2l1.2,5.3L320.3,153.7z M322,151.1c0.4,0.2,0.7,0.3,1.1,0.4c0.3,0.1,0.7,0.2,1.1,0.2
						c-0.2,0.4-0.3,0.7-0.3,0.9c0,0.1-0.1,0.2-0.1,0.2c-0.1,0-0.1,0-0.2-0.1c-0.1-0.1-0.2-0.2-0.4-0.3c-0.2-0.1-0.5-0.3-1-0.5
						c0,0.2,0.1,0.5,0.2,0.8c0.1,0.3,0.1,0.6,0.2,0.9c0.1,0.3,0.2,0.6,0.2,0.9c0.1,0.3,0.1,0.5,0.2,0.6l-1,0.2c0-0.2,0-0.4-0.1-0.6
						c0-0.2-0.1-0.6-0.1-0.9c-0.1-0.4-0.1-0.8-0.3-1.3c-0.1-0.5-0.2-1.1-0.4-1.9c-0.2-0.7-0.3-1.3-0.4-1.8c-0.1-0.5-0.2-0.9-0.3-1.2
						c-0.1-0.3-0.2-0.6-0.2-0.8c-0.1-0.2-0.1-0.4-0.2-0.6l1-0.2c0,0.2,0,0.4,0.1,0.6c0,0.2,0.1,0.5,0.1,0.7c0,0.3,0.1,0.5,0.1,0.8
						c0,0.3,0.1,0.5,0.1,0.7c0.2-0.2,0.4-0.5,0.6-0.7c0.2-0.2,0.3-0.5,0.4-0.7l0.7,0.7c-0.2,0.3-0.4,0.5-0.7,0.8
						c-0.3,0.3-0.5,0.6-0.9,0.9L322,151.1z M324.6,149.4c0.2-0.2,0.5-0.3,0.7-0.5c0.2-0.2,0.4-0.4,0.6-0.6l0.6,0.9
						c-0.3,0.3-0.6,0.5-0.9,0.7c-0.3,0.2-0.5,0.3-0.8,0.5c0.2,0.7,0.3,1.4,0.5,2c0.2,0.6,0.3,1.1,0.4,1.5l-1,0.2
						c-0.1-0.5-0.1-1-0.3-1.7c-0.1-0.7-0.3-1.5-0.5-2.4c-0.2-0.8-0.4-1.6-0.5-2.3c-0.2-0.7-0.3-1.3-0.5-1.7l0.9-0.2
						c0,0.4,0.1,0.9,0.2,1.6C324.3,147.9,324.4,148.6,324.6,149.4z"/>
				</g>
			</g>
			<g>
				<g>
					<path d="M133.3,318.8c-1.3-0.2-2.4-0.3-3.3-0.4c-0.9-0.1-1.7-0.2-2.1-0.2c0-0.2,0.1-0.4,0.1-0.6c0-0.2,0-0.4-0.1-0.7
						c0.9,0.2,1.8,0.4,2.7,0.6c0.9,0.2,1.9,0.3,3,0.3c-0.1,0.1-0.1,0.3-0.1,0.4C133.4,318.5,133.3,318.6,133.3,318.8z M131.2,311.7
						c-0.5-0.1-0.9-0.2-1.2-0.1c0.1-0.2,0.1-0.4,0.1-0.6c0-0.2,0-0.4-0.1-0.6c0.2,0,0.4,0,0.6-0.2c0.3-0.1,0.6-0.4,1-0.7
						c0.4-0.3,0.8-0.7,1.2-1.1c0.5-0.5,0.9-1,1.4-1.7c0.1,0.2,0.3,0.4,0.4,0.5c0.1,0.2,0.3,0.3,0.5,0.4c0.1,0.1,0.2,0.2,0.2,0.3
						c0,0.1-0.1,0.1-0.3,0.1c-0.1,0-0.2,0-0.3,0.1c-0.1,0.1-0.3,0.2-0.5,0.4c-0.3,0.2-0.6,0.5-1.1,0.9c-0.5,0.4-1.1,0.9-1.9,1.6
						l2.4,0.6c0.4-0.4,0.8-0.7,1.1-1c0.3-0.3,0.5-0.5,0.6-0.7c0.1,0.2,0.2,0.4,0.4,0.6c0.1,0.2,0.3,0.3,0.4,0.4
						c0.1,0.1,0.1,0.2,0.1,0.2c0,0.1-0.1,0.1-0.3,0.1c0,0-0.1,0-0.3,0.1c-0.1,0.1-0.4,0.2-0.8,0.5c-0.4,0.3-0.9,0.6-1.6,1.1
						c-0.7,0.5-1.6,1.1-2.7,2l3.6,0.6c-0.2,0.3-0.3,0.5-0.3,0.8l-3.3-0.6c-0.3-0.1-0.6-0.1-0.9-0.1c-0.3,0-0.5,0-0.7,0
						c0.1-0.4,0.1-0.7,0-1.1c0.3,0,0.6,0,0.8-0.1c0.2-0.1,0.5-0.3,0.8-0.5c0.4-0.3,0.9-0.6,1.2-0.9c0.4-0.3,0.7-0.6,1.1-0.8
						L131.2,311.7z M137.6,316.8c-0.4-0.1-0.7-0.2-0.9-0.3c-0.3-0.1-0.5-0.1-0.7-0.2c-0.2-0.1-0.4-0.1-0.6-0.2
						c-0.2,0-0.4-0.1-0.6-0.1l0.3-1.1c0.2,0.1,0.5,0.2,0.7,0.3c0.2,0.1,0.4,0.2,0.7,0.3c0.2,0.1,0.5,0.2,0.9,0.3
						c0.3,0.1,0.7,0.2,1.2,0.4c0.5,0.1,0.8,0.3,1.1,0.4c0.3,0.1,0.6,0.2,0.8,0.2c0.2,0.1,0.5,0.1,0.7,0.2c0.2,0,0.4,0.1,0.7,0.1
						l-0.3,1.1c-0.2-0.1-0.4-0.2-0.6-0.3c-0.2-0.1-0.4-0.2-0.6-0.2c-0.2-0.1-0.4-0.2-0.7-0.2c-0.3-0.1-0.6-0.2-1-0.3l-1.2,3.8
						c0.5,0.2,0.9,0.3,1.2,0.4c0.3,0.1,0.6,0.2,0.9,0.3c0.3,0.1,0.5,0.1,0.8,0.2c0.2,0.1,0.5,0.1,0.8,0.2l-0.3,1.1
						c-0.3-0.1-0.6-0.2-0.8-0.3c-0.3-0.1-0.5-0.2-0.8-0.3c-0.3-0.1-0.7-0.2-1.1-0.4c-0.4-0.1-0.9-0.3-1.5-0.5
						c-0.6-0.2-1.1-0.3-1.5-0.5c-0.4-0.1-0.8-0.2-1.1-0.3c-0.3-0.1-0.6-0.2-0.9-0.2c-0.3-0.1-0.6-0.1-0.9-0.2l0.3-1.1
						c0.3,0.1,0.5,0.2,0.8,0.3c0.2,0.1,0.5,0.2,0.8,0.3c0.3,0.1,0.6,0.2,0.9,0.3c0.3,0.1,0.8,0.3,1.3,0.4L137.6,316.8z M139.5,313.2
						c-0.6,0.3-1.3,0.5-2,0.8c-0.7,0.2-1.6,0.4-2.6,0.6c0-0.2-0.1-0.4-0.1-0.5c-0.1-0.2-0.2-0.3-0.3-0.5c0.9,0,1.6-0.1,2.3-0.2
						s1.2-0.3,1.8-0.5c0.5-0.2,1.1-0.5,1.5-0.8c0.5-0.3,1-0.7,1.5-1.1l-2.8-0.9c-0.5-0.2-0.9-0.3-1.2-0.3c-0.3-0.1-0.6-0.1-0.8-0.1
						l0.3-1.1c0.3,0.1,0.7,0.3,1.2,0.5c0.5,0.2,1.2,0.4,1.9,0.6c0.8,0.3,1.5,0.5,2,0.6c0.5,0.1,0.9,0.2,1.3,0.3
						c-0.3,0.2-0.5,0.5-0.8,0.7s-0.6,0.5-0.8,0.7c-0.3,0.2-0.5,0.4-0.8,0.6c-0.3,0.2-0.5,0.3-0.7,0.4c0.5,0.6,1,1.2,1.5,1.8
						c0.4,0.6,0.9,1.1,1.3,1.7l-1,0.6c-0.4-0.6-0.8-1.3-1.2-1.9C140.4,314.4,139.9,313.8,139.5,313.2z"/>
					<path d="M155.1,320.4c-0.4,0.6-1,1.3-1.5,2.1c-0.6,0.8-1.2,1.6-1.8,2.5c-0.2-0.2-0.3-0.3-0.5-0.5c-0.2-0.1-0.3-0.2-0.5-0.3
						c0.6-0.4,1.2-1,1.8-1.8c0.6-0.7,1.2-1.7,1.7-2.9c0.1,0.2,0.2,0.3,0.4,0.5C154.8,320.2,154.9,320.3,155.1,320.4z M154.4,318.4
						c-0.2-0.2-0.3-0.4-0.6-0.6c-0.2-0.2-0.4-0.4-0.6-0.6c-0.2-0.2-0.4-0.4-0.6-0.6c-0.2-0.2-0.4-0.3-0.6-0.5l0.6-0.7
						c0.5,0.4,1,0.8,1.3,1.1c0.4,0.4,0.8,0.7,1.1,1.1L154.4,318.4z M155.6,315.2c-0.4-0.5-0.7-0.9-1.1-1.2s-0.7-0.7-1.1-1.1l0.6-0.6
						c0.4,0.4,0.8,0.8,1.2,1.1c0.4,0.4,0.7,0.8,1.1,1.2L155.6,315.2z M158.8,321.3c-0.1,0.1-0.2,0.2-0.3,0.4
						c-0.1,0.2-0.2,0.6-0.3,1.1c-0.1,0.3-0.1,0.7-0.3,1c-0.1,0.4-0.3,0.7-0.6,1c-0.2,0.3-0.5,0.6-0.8,0.9c-0.3,0.3-0.7,0.5-1.1,0.7
						c-0.1-0.2-0.1-0.3-0.3-0.5c-0.1-0.1-0.3-0.3-0.5-0.4c0.7-0.2,1.3-0.5,1.7-0.9c0.4-0.4,0.7-1.1,0.9-1.9c0.1-0.5,0.2-0.9,0.2-1.3
						c0-0.3,0-0.6,0-0.9c0.2,0.1,0.4,0.2,0.6,0.2c0.2,0,0.4,0.1,0.6,0.1c0.1,0,0.2,0.1,0.2,0.1C159,321.2,159,321.3,158.8,321.3z
						 M161.1,314.8c-0.1-0.3-0.2-0.6-0.3-0.8c-0.1-0.3-0.3-0.6-0.5-0.9l0.9-0.4c0.1,0.2,0.2,0.4,0.3,0.6c0.1,0.2,0.1,0.3,0.2,0.5
						c0.1,0.2,0.1,0.3,0.2,0.5c0,0.2,0.1,0.4,0.2,0.6c0.9,0.1,1.7,0.2,2.3,0.3c0.7,0.1,1.2,0.1,1.7,0.2l-0.2,1
						c-0.5-0.1-1-0.2-1.6-0.3c-0.4,0.5-0.8,1.1-1.3,1.6c-0.5,0.5-1,0.9-1.6,1.3c0.6,0.5,1.2,0.9,1.9,1.3c0.7,0.4,1.4,0.7,2.3,0.9
						c-0.2,0.1-0.3,0.2-0.5,0.4s-0.2,0.3-0.3,0.5c-0.8-0.4-1.6-0.8-2.2-1.2c-0.7-0.4-1.3-0.9-1.9-1.4c-0.6,0.3-1.3,0.6-2.1,0.8
						c-0.8,0.3-1.7,0.5-2.7,0.6c0-0.2-0.1-0.4-0.2-0.5c-0.1-0.1-0.2-0.3-0.3-0.4c0.9,0,1.7-0.2,2.5-0.3c0.8-0.2,1.5-0.4,2.2-0.8
						c-0.4-0.4-0.8-0.8-1.1-1.2c-0.4-0.4-0.7-0.9-1-1.4l0.7-0.3c0.3,0.5,0.7,1,1,1.4c0.4,0.4,0.8,0.8,1.2,1.2c0.5-0.3,1-0.7,1.4-1.1
						c0.4-0.4,0.8-0.9,1.2-1.4l-4.3-0.6c-0.3,0-0.6-0.1-1-0.1c-0.4,0-0.8-0.1-1.4-0.1l0.2-1c0.5,0.1,1.1,0.3,1.8,0.4
						C159.3,314.6,160.1,314.7,161.1,314.8z M162.8,321.8c-0.1,0.1-0.2,0.2-0.2,0.4l-0.5,3.1c0,0.3-0.1,0.6-0.1,0.9s-0.1,0.7-0.1,1
						l-1.1-0.2c0.1-0.4,0.2-0.7,0.2-1c0.1-0.3,0.1-0.6,0.2-0.9l0.3-2.1c0.1-0.4,0.1-0.7,0.1-1.1c0-0.3,0-0.6,0-0.8
						c0.2,0.1,0.4,0.2,0.6,0.2c0.2,0,0.4,0.1,0.5,0.1c0.1,0,0.2,0,0.2,0.1C163,321.7,163,321.8,162.8,321.8z"/>
				</g>
			</g>
		</g>
		<line class="st6" x1="179.1" y1="2.1" x2="179.1" y2="70.7"/>
		<line class="st6" x1="83.6" y1="233.1" x2="26.1" y2="266.8"/>
		<line class="st6" x1="273.2" y1="231.1" x2="332.4" y2="265.3"/>
		<g>
			<g>
				<path class="st7" d="M179.1,69.6c-60.6,0-109.8,49.1-109.8,109.8c0,60.6,49.1,109.8,109.8,109.8S288.9,240,288.9,179.3
					C288.9,118.7,239.8,69.6,179.1,69.6z M179.1,244.7c-36.1,0-65.4-29.3-65.4-65.4c0-36.1,29.3-65.4,65.4-65.4s65.4,29.3,65.4,65.4
					C244.5,215.4,215.2,244.7,179.1,244.7z"/>
			</g>
			<g>
				<g>
					<path class="st7" d="M196.3,177.9c0.3,0.6,0.6,1.6,0.6,2.9c-0.2-0.5-1-1.6-2-2.5c-0.9,0.3-1.9,0.5-3,0.8
						c-0.8,0.2-2.5,0.7-4.2,1.2c0.3,0.3,0.6,0.6,0.9,1c0.8,1,1.5,2.2,2.2,3.7c-0.5-0.6-3.2-2.8-6-3.9c-1.4,0.4-2.5,0.7-2.5,0.7
						c-1.4,0.4-2.8,0.9-4.3,1.4c1.3,0.7,2.6,1.8,3.9,3.1c1,1,1.9,2.1,2.9,3.5c-2.3-1.6-7.2-4-11.4-4.3c-1.7,1-3.4,2.2-5.1,3.7
						c2.7,0.8,5.7,2.5,9.2,5.9c0.6,0.6,1.2,1.2,1.8,1.8c-3.6-2.1-9.9-3.9-15-3.6c-1.5,1.7-3,3.7-4.3,5.9c3.5-0.2,7.8,0.6,13.6,4
						c0.8,0.5,1.6,1,2.4,1.6c-4.8-1.6-14.1-1.9-18.6,0.2c-0.2,0.8-0.9,3.5-0.9,6.5c9.2-1.7,14.5-0.1,20.1,1.4
						c2.9-23.6,17.6-26.6,32.5-39.4h0C206.5,174.6,202.2,176.2,196.3,177.9z"/>
					<path class="st7" d="M179.1,116.1c-34.9,0-63.2,28.3-63.2,63.3c0,34.9,28.3,63.3,63.2,63.3s63.2-28.3,63.2-63.3
						C242.4,144.4,214.1,116.1,179.1,116.1z M179.1,235c-1,0-2,0-3-0.1c-0.5-0.1-1.1-0.2-1.7-0.3c-14.4-2.2-20.1-11.2-21.4-19
						c-1.7-10.1,2.3-15.6,4.5-19c7.2-10.5,16.9-15.1,25.3-17.5c0,0,7.5-2.1,9.6-2.6c9.7-2.4,15.9-4.9,18.8-6.5
						c2.3-1.3,5.3-3.7,7.1-7c0,0,2.5-3.9,2-8.5c-0.6-5.7-4.7-8.6-8.5-8.9c-0.4,0-0.7,0-1.1,0c-1.4,0.1-2.8,0.5-4,1.3
						c-1.1,0.7-2,1.8-2.5,3c0,0-0.4,0.9-0.4,1.9v0c0,2.7,2.2,5,5,5c2.8,0,5-2.3,5-5c0-0.8-0.2-1.5-0.5-2.1c1.3,0.8,2.1,2.2,2.3,3.7
						c0.1,0.6,0.1,1.2,0.1,1.9c0,0.5-0.1,1.1-0.2,1.6c-0.5,1.8-1.6,3.4-4.6,4.5c-1.2,0.3-2.5,0.6-3.8,0.8c0,1.4-0.3,3.1-1.7,4.9
						c-0.2,0.3-0.5,0.5-0.8,0.8c0.6-1.7,0.6-3.7,0.3-5.4c-1.6,0.2-3.3,0.3-5,0.5c0.3,1.7,0.1,3.9-1.4,6.4c-0.2,0.4-0.5,0.7-0.8,1.1
						c0.7-2.4,0.2-5.2-0.6-7.3c-1.7,0.1-3.4,0.2-5.1,0.2c0.5,2,0.6,4.7-1.2,7.9c-0.2,0.4-0.6,0.8-0.9,1.3c0.7-3.1-0.1-6.7-1.3-9
						c-1.9,0.1-3.8,0.2-5.8,0.4c0.7,2.2,0.9,5.1-0.6,8.6c-0.2,0.5-0.5,1.1-0.9,1.6h0c0.4-3.4-0.9-7.2-2.6-9.8
						c-2.1,0.3-4.3,0.6-6.5,1.1c1.2,2.3,2.1,5.4,1.5,9.6c-0.1,0.6-0.3,1.3-0.5,2c-0.5-4-2.9-8-5.3-10.5c-2.3,0.6-4.7,1.4-7,2.4
						c1.9,2,3.7,4.9,4.2,9.5c0.1,0.7,0.1,1.4,0,2.2c-1.6-4.2-5.4-7.8-8.7-9.6c-2.2,1.1-4.3,2.4-6.1,3.7c2.5,1.5,5.2,4.1,6.9,8.8
						c0.2,0.6,0.6,2,0.7,2.8c-2.7-4-7.9-7.1-11.8-8.3c-2,1.8-3.7,3.6-5.2,5.3c3.8,2,8.7,6.2,10.8,11.4v0c-3.5-3.4-10.2-5.5-14.9-5.9
						c-2.3,3.6-3.5,6.3-3.7,6.7c7.1,1.9,10.6,4.3,12.3,6.2v0c1.5,1.5,1.1,3.3,1.1,3.3c-0.2,1.1-0.4,2.1-0.5,3.1
						c-1,6.8-0.5,12.1,1.1,16.4c-14.4-10.1-23.7-26.8-23.7-45.8c0-30.9,25.1-56,56-56c30.9,0,55.9,25.1,55.9,56
						C235,210,210,235,179.1,235z"/>
				</g>
				<g>
					<g>
						<path class="st8" d="M103.9,147.4c-0.8-0.4-1.2-1.2-0.8-1.9c0.4-0.8,1.2-1,1.8-0.7c0.3,0.1,0.5,0.3,0.6,0.5
							c0.5-0.3,1-0.8,1.4-1.6c0.6-1.3,0.4-2.4-0.6-2.9c-1-0.5-1.9,0.3-2.9,1.3c-1.8,1.8-3.3,3-5.5,1.9c-1.9-0.9-2.6-3.1-1.5-5.5
							c1.1-2.2,3-3.4,4.4-2.7c0.8,0.4,1.1,1.2,0.7,1.8c-0.4,0.8-1.2,1-1.8,0.7c-0.3-0.1-0.4-0.3-0.5-0.4c-0.4,0.2-0.8,0.7-1.1,1.4
							c-0.6,1.2-0.3,2.1,0.6,2.5c1,0.5,1.9-0.3,2.9-1.3c1.8-1.7,3.3-3,5.5-1.9c2.2,1.1,2.7,3.4,1.5,5.8
							C107.5,146.8,105.3,148.1,103.9,147.4z"/>
						<path class="st8" d="M109.6,137.7l0.8-1.3l-7.6-4.8l-0.8,1.3l-1.7-1.1l2.9-4.6l1.7,1.1l-0.8,1.3l7.6,4.8l0.8-1.3l1.7,1.1
							l-2.9,4.6L109.6,137.7z"/>
						<path class="st8" d="M113.4,131.7l0.9-1.2l-7.1-5.7l-0.9,1.2l-1.6-1.3l3.4-4.3l1.6,1.3l-1.1,1.3l7.1,5.7l2.3-2.8l-1.4-1.2
							l1.4-1.7l3,2.4L115,133L113.4,131.7z"/>
						<path class="st8" d="M113.9,116.9l-0.9,0.8l-1.4-1.5l3.8-3.5l1.4,1.5l-1,0.9l7,3.3l-2.8-7.1l-1.1,1l-1.4-1.5l3.8-3.5l1.4,1.5
							l-0.9,0.8l4.2,11.4l-0.9,0.9L113.9,116.9z"/>
						<path class="st8" d="M129.9,114.6l1.2-0.8l-5.1-7.5l-1.2,0.8l-1.1-1.7l8.1-5.5l2.1,3.1l-1.8,1.2l-1-1.4l-3.2,2.2l2,2.9
							l3.3-2.2l1.1,1.6l-3.3,2.2l2.1,3.1l3.2-2.2l-1-1.4l1.8-1.2l2.1,3.1l-8.1,5.5L129.9,114.6z"/>
						<path class="st8" d="M139.5,108.2l1.3-0.6l-3.9-8.2l-1.3,0.6l-0.9-1.8l4.6-2.2c2.7-1.3,5.2-1.1,6.3,1.3
							c0.7,1.5,0.4,3.1-0.7,4.3l3.3,2.3l1.3-0.6l0.9,1.8l-2.7,1.3l-4.5-3.3c-0.2,0.1-0.5,0.3-0.7,0.4c-0.4,0.2-0.7,0.3-1,0.4
							l1.3,2.6l1.5-0.7l0.9,1.8l-4.8,2.3L139.5,108.2z M143.6,98.4c-0.6-1.2-1.9-1.3-3.5-0.6l-1.1,0.5l1.8,3.8
							c0.2-0.1,0.5-0.2,1.2-0.5C143.5,100.9,144.2,99.7,143.6,98.4z"/>
						<path class="st8" d="M155.3,101.4l1.4-0.4l-2.1-8.8l-1.4,0.4l-0.5-1.9l9.3-2.3L163,92l-2.1,0.5l-0.4-1.7l-3.6,0.9l0.9,3.6
							l3.7-0.9l0.5,1.9l-3.7,0.9l0.8,3.3l1.7-0.4l0.5,1.9l-5.3,1.3L155.3,101.4z"/>
						<path class="st8" d="M166.3,98.8l1.5-0.1l-0.9-9l-1.5,0.1l-0.2-2l9.7-0.9l0.4,3.7l-2.1,0.2l-0.2-1.7l-3.9,0.4l0.3,3.5l3.9-0.4
							l0.2,1.9l-3.9,0.4l0.4,3.7l3.9-0.4l-0.2-1.7l2.1-0.2l0.4,3.7l-9.7,0.9L166.3,98.8z"/>
						<path class="st8" d="M177.9,97.9l1.5,0.1l0.4-9l-1.5-0.1l0.1-2l5.1,0.2c3,0.1,5.1,1.5,5,4.2c-0.1,1.7-1.2,2.9-2.6,3.4l1.8,3.6
							l1.5,0.1l-0.1,2l-3-0.1l-2.4-5.1c-0.3,0-0.5,0-0.8,0c-0.4,0-0.8,0-1.1-0.1l-0.1,2.9l1.6,0.1l-0.1,2l-5.4-0.2L177.9,97.9z
							 M186.1,91.2c0.1-1.4-1-2.1-2.8-2.2L182,89l-0.2,4.2c0.2,0,0.6,0.1,1.3,0.1C184.8,93.3,186,92.6,186.1,91.2z"/>
						<path class="st8" d="M195.6,92.5l-1.5,6.8l1.6,0.4l-0.4,2l-5.2-1.2l0.4-2l1.5,0.3l2-8.8l-1.5-0.3l0.4-2l3.3,0.7l4.5,9.4l1.4-6
							l-1.6-0.4l0.4-2l5.1,1.2l-0.4,2l-1.4-0.3l-2.4,10.8l-1.2-0.2L195.6,92.5z"/>
						<path class="st8" d="M209.3,103.7l1.3,0.6l3.9-8.2l-1.3-0.6l0.9-1.8l8.7,4.1l-1.6,3.4l-1.9-0.9l0.8-1.6l-3.4-1.6l-1.6,3.4
							l3.5,1.7l-0.8,1.7l-3.5-1.7l-1.5,3.1l1.6,0.7l-0.9,1.8l-4.9-2.3L209.3,103.7z"/>
						<path class="st8" d="M217.9,107.6l0.9,0.6l7.7-5.8l-1.2-0.8l1.1-1.7l6.2,4.1l-1.1,1.7l-1.2-0.8l-2.3,9.4l0.9,0.6l-1.1,1.7
							l-4.2-2.8l1.1-1.7l1.3,0.8l0.6-2.2l-4.1-2.7l-1.8,1.4l1.3,0.9l-1.1,1.7l-4.2-2.8L217.9,107.6z M227.1,109l1.3-5.3l-4.4,3.3
							L227.1,109z"/>
						<path class="st8" d="M229.9,115.8l1.1,1l6.2-6.6l-1.1-1l1.4-1.5l3.7,3.4c2.2,2,2.9,4.4,1.1,6.4c-1.1,1.2-2.8,1.5-4.2,0.9l-1,4
							l1.1,1l-1.4,1.5l-2.2-2.1l1.5-5.4c-0.2-0.2-0.4-0.3-0.6-0.5c-0.3-0.3-0.6-0.5-0.8-0.7l-2,2.2l1.2,1.1l-1.4,1.5l-3.9-3.6
							L229.9,115.8z M240.4,116c0.9-1,0.6-2.3-0.8-3.5l-0.9-0.8l-2.9,3.1c0.2,0.2,0.4,0.4,0.9,0.9C238.1,116.8,239.5,117,240.4,116z
							"/>
						<path class="st8" d="M239,124.2l0.9,1.2l7.5-5.1l-1-1.3l1.6-1.2l2.1,2.9l-3.4,7.5l8.2-1.1l2.1,2.9l-1.6,1.2l-1-1.3l-7,5.7
							l0.9,1.2l-1.6,1.2l-3.2-4.3l1.6-1.2l0.9,1.3l5.2-4.2l-7.5,0.9l-0.2-0.2l3-6.9l-5.6,3.8l0.9,1.3l-1.6,1.2l-3.2-4.3L239,124.2z"
							/>
						<path class="st8" d="M249.6,137.8c0.8-0.4,1.6-0.2,2,0.5c0.4,0.8,0.1,1.6-0.5,1.9c-0.3,0.1-0.5,0.2-0.8,0.2
							c-0.1,0.6,0,1.3,0.4,2.1c0.6,1.3,1.6,1.8,2.6,1.3c1-0.5,0.9-1.7,0.7-3.1c-0.3-2.6-0.4-4.4,1.8-5.5c1.9-0.9,4.1-0.2,5.3,2.2
							c1.1,2.2,0.8,4.4-0.6,5.1c-0.8,0.4-1.6,0.1-1.9-0.5c-0.4-0.8,0-1.6,0.5-1.9c0.3-0.1,0.4-0.2,0.6-0.2c0-0.4-0.1-1-0.4-1.7
							c-0.6-1.2-1.5-1.5-2.4-1.1c-1,0.5-0.9,1.7-0.7,3.1c0.3,2.5,0.4,4.4-1.8,5.5c-2.2,1.1-4.3,0-5.5-2.4
							C247.8,141,248.2,138.5,249.6,137.8z"/>
					</g>
				</g>
				<g>
					<g>
						<path class="st8" d="M119.7,235.8c-0.2-0.2-0.5-0.3-0.8-0.5c-0.3-0.2-0.6-0.4-0.9-0.6c0.1-0.1,0.2-0.3,0.2-0.5
							c0.1-0.2,0.1-0.4,0.1-0.6c0.5,0.5,1.1,1,1.7,1.5c0.7,0.5,1.5,0.9,2.3,1.3c0,0.2-0.1,0.3-0.1,0.4c0,0.1,0,0.2,0,0.4
							c0,0.1,0,0.2-0.1,0.2c-0.1,0-0.1,0-0.3-0.2c-0.1-0.1-0.2-0.2-0.4-0.4c-0.2-0.2-0.6-0.4-1.1-0.7l-1.5,1.6l2.2,2.1
							c0.4-0.5,0.8-0.9,1.1-1.2c0.3-0.3,0.5-0.6,0.7-0.8c0.2-0.2,0.3-0.4,0.5-0.5c0.1-0.1,0.2-0.3,0.3-0.4c0.1,0.1,0.2,0.3,0.3,0.4
							c0.1,0.1,0.2,0.3,0.4,0.4c0.1,0.1,0.2,0.2,0.1,0.2c0,0.1-0.1,0.1-0.3,0.1c0,0-0.1,0-0.2,0.1c-0.1,0.1-0.2,0.2-0.4,0.4
							c-0.2,0.2-0.4,0.4-0.7,0.8c-0.3,0.3-0.7,0.7-1.1,1.2c0.7,0.7,1.4,1.3,1.9,1.8c0.5,0.5,0.9,0.8,1.3,1.1l-0.6,0.6
							c-0.2-0.2-0.4-0.4-0.6-0.6c-0.2-0.2-0.4-0.4-0.6-0.6c-0.2-0.2-0.5-0.5-0.8-0.8c-0.3-0.3-0.6-0.6-1-1c-0.2,0.3-0.5,0.6-0.6,0.8
							c-0.2,0.2-0.3,0.4-0.5,0.7c-0.1,0.2-0.3,0.4-0.4,0.6c-0.1,0.2-0.2,0.5-0.4,0.7c-0.1,0.2-0.2,0.4-0.3,0.6c0.3,0,0.6-0.1,1-0.2
							c0.3-0.1,0.7-0.2,1-0.3c0.3-0.1,0.6-0.3,0.9-0.4c0.3-0.2,0.6-0.3,0.8-0.5c0.1,0.2,0.1,0.3,0.2,0.4c0.1,0.1,0.2,0.2,0.3,0.4
							c0.1,0.1,0.1,0.1,0.1,0.2c0,0-0.1,0-0.2,0c0,0-0.1,0-0.1,0c-0.1,0-0.1,0-0.3,0.1c-0.1,0-0.3,0.1-0.5,0.2
							c-0.2,0.1-0.5,0.2-0.9,0.3c-0.4,0.2-0.8,0.3-1.2,0.4c-0.4,0.1-0.9,0.2-1.3,0.2c-0.1,0.5-0.2,0.9-0.2,1.2c0,0.4,0,0.7,0,1
							c0,0.2,0.1,0.3,0.1,0.4c0,0.1,0.1,0.2,0.2,0.2c0.1,0,0.2,0,0.4-0.2c0.2-0.1,0.4-0.3,0.7-0.5c0,0.2,0,0.4,0,0.6
							c0,0.2,0.1,0.3,0.2,0.5c-0.4,0.2-0.8,0.4-1,0.5c-0.3,0.1-0.5,0.1-0.7,0.1c-0.2,0-0.3-0.1-0.4-0.3c-0.1-0.2-0.2-0.4-0.3-0.6
							c-0.1-0.4-0.2-0.9-0.2-1.4c0-0.5,0.1-1,0.2-1.5c-0.6,0-1.3,0-1.9-0.1c-0.6-0.1-1.3-0.1-1.9-0.3c0.1-0.2,0.1-0.4,0.1-0.5
							c0-0.2,0-0.4-0.1-0.5c0.7,0.3,1.4,0.5,2.1,0.6c0.6,0.1,1.3,0.1,2,0.1c0.1-0.4,0.3-0.9,0.6-1.3c0.2-0.4,0.4-0.8,0.7-1.2
							c0.3-0.4,0.7-0.9,1.2-1.5l-2.2-2.1l-1.6,1.7c0.4,0.2,0.8,0.3,1.2,0.4c0.4,0.1,0.7,0.2,1,0.3c-0.2,0.2-0.3,0.5-0.4,0.7
							c-0.3-0.1-0.6-0.3-1-0.4c-0.4-0.2-0.8-0.3-1.3-0.5l-2.4,2.5c-0.1,0.1-0.2,0.2-0.4,0.3s-0.3,0.1-0.5,0
							c-0.2-0.1-0.4-0.2-0.7-0.4c-0.3-0.2-0.7-0.5-1.1-0.9c0.2-0.1,0.3-0.3,0.3-0.4c0.1-0.1,0.1-0.3,0.1-0.6
							c0.3,0.3,0.5,0.6,0.7,0.8c0.2,0.2,0.4,0.3,0.5,0.4c0.2,0.1,0.3,0.1,0.4,0.1c0.1,0,0.2-0.1,0.3-0.2l1.8-1.9
							c-0.5-0.2-1-0.4-1.5-0.6c-0.5-0.2-1-0.3-1.4-0.5c0.1-0.2,0.2-0.4,0.2-0.5c0-0.2,0.1-0.3,0.1-0.5c0.4,0.3,0.9,0.5,1.5,0.8
							c0.5,0.3,1.1,0.5,1.6,0.7l1.8-1.9c-0.3-0.3-0.5-0.5-0.7-0.7c-0.2-0.2-0.4-0.4-0.6-0.6c-0.2-0.2-0.4-0.3-0.5-0.5
							c-0.2-0.1-0.3-0.3-0.5-0.4l0.6-0.6c0.3,0.3,0.6,0.6,0.9,1c0.3,0.4,0.8,0.8,1.3,1.3L119.7,235.8z M124.1,241.8
							c0-0.2,0.1-0.4,0.1-0.7c0-0.3,0-0.5,0-0.8c0-0.3,0-0.5-0.1-0.8c0-0.3-0.1-0.5-0.1-0.7l0.8,0c0,0.2,0.1,0.4,0.1,0.7
							c0,0.3,0.1,0.5,0.1,0.8c0,0.3,0,0.6,0,0.8c0,0.3,0,0.5,0,0.7L124.1,241.8z"/>
						<path class="st8" d="M129.5,247.3c-0.4,0.2-0.7,0.4-1.1,0.5c-0.4,0.2-0.7,0.3-1.1,0.5c0-0.2,0-0.3-0.1-0.5
							c-0.1-0.1-0.2-0.3-0.3-0.5c0.5-0.1,1-0.3,1.6-0.5c0.6-0.2,1.2-0.6,2-0.9c0.4-0.2,0.9-0.5,1.3-0.8c0.4-0.3,0.8-0.7,1.1-1
							c0.1,0.1,0.2,0.3,0.3,0.4c0.1,0.1,0.2,0.2,0.4,0.4c0.1,0.1,0.2,0.2,0.1,0.2c0,0.1-0.1,0.1-0.3,0.1c-0.1,0-0.3,0.1-0.5,0.2
							c-0.3,0.1-0.6,0.3-0.9,0.5c-0.1,0.1-0.3,0.2-0.4,0.3c-0.2,0.1-0.3,0.2-0.5,0.3l-5.4,8.3l-0.8-0.5c0.3-0.3,0.5-0.7,0.8-1.1
							c0.3-0.4,0.6-0.8,0.9-1.2L129.5,247.3z M133.3,248.3c0,0-0.1,0.1-0.3,0.2c-0.1,0.1-0.3,0.3-0.4,0.5l-4.7,7.2l-0.8-0.5
							c0.2-0.3,0.4-0.5,0.6-0.8c0.2-0.3,0.4-0.5,0.6-0.8l3.5-5.4c0.2-0.3,0.4-0.5,0.5-0.8c0.1-0.2,0.3-0.5,0.4-0.7
							c0.2,0.3,0.4,0.5,0.6,0.6C133.7,248.1,133.6,248.3,133.3,248.3z M139.5,250.3c-0.1,0.1-0.2,0.3-0.4,0.5
							c-0.1,0.2-0.3,0.4-0.5,0.7l-4.3,6.5c-0.2,0.3-0.4,0.5-0.5,0.7c-0.2,0.2-0.3,0.3-0.5,0.3c-0.2,0-0.4,0-0.7-0.1
							c-0.3-0.1-0.6-0.3-1.1-0.5c0.2-0.3,0.3-0.7,0.3-1.1c0.3,0.3,0.6,0.5,0.7,0.6c0.2,0.1,0.4,0.2,0.5,0.2c0.1,0,0.2,0,0.3-0.1
							c0.1-0.1,0.2-0.2,0.3-0.4l4.7-7.2l-1-0.7c-0.3-0.2-0.5-0.3-0.8-0.5c-0.3-0.1-0.5-0.3-0.7-0.4l0.5-0.7c0.1,0.1,0.2,0.2,0.3,0.2
							c0.1,0.1,0.2,0.2,0.3,0.2c0.1,0.1,0.3,0.2,0.4,0.3c0.2,0.1,0.4,0.2,0.6,0.4c0.2,0.2,0.4,0.3,0.6,0.4c0.2,0.1,0.3,0.2,0.4,0.2
							c0.1,0.1,0.2,0.1,0.3,0.1C139.3,250.2,139.4,250.3,139.5,250.3z M134.5,248.5c0-0.4,0-0.8,0-1.3c0-0.4-0.1-0.9-0.1-1.3l0.8,0
							c0,0.4,0.1,0.8,0.1,1.3c0,0.5,0,0.9,0,1.3L134.5,248.5z"/>
						<path class="st8" d="M144.2,254.1c0.3-0.4,0.6-0.8,0.9-1.2c0.3-0.4,0.5-0.8,0.6-1.1c0.2,0.1,0.3,0.3,0.4,0.4
							c0.1,0.1,0.3,0.2,0.5,0.3c0.2,0.1,0.1,0.2-0.1,0.3c-0.1,0.1-0.3,0.2-0.6,0.4c-0.2,0.2-0.6,0.6-1,1.2c0.4,0.2,0.9,0.3,1.3,0.5
							c0.4,0.2,0.8,0.3,1.1,0.4c-0.1,0.2-0.2,0.3-0.3,0.5c-0.1,0.2-0.2,0.4-0.3,0.6l-2.5,6.2c-0.1,0.2-0.1,0.3-0.2,0.5
							c-0.1,0.1-0.1,0.3-0.2,0.4c0,0.1-0.1,0.3-0.1,0.5c0,0.2-0.1,0.3-0.2,0.5l-0.9-0.4l0.5-1.2l-2.7-1.1l-0.5,1.3l-0.9-0.4
							c0.1-0.2,0.2-0.3,0.3-0.5c0.1-0.1,0.1-0.3,0.2-0.4c0.1-0.1,0.1-0.3,0.2-0.4c0.1-0.1,0.1-0.3,0.2-0.5l2.5-6.3
							c0.1-0.2,0.2-0.4,0.2-0.6c0.1-0.2,0.1-0.4,0.2-0.6c0.2,0.1,0.4,0.2,0.6,0.3C143.7,253.9,144,254,144.2,254.1z M142,258.2
							l-1.2,3l2.7,1.1l1.2-3L142,258.2z M145,258.7l1.2-3l-2.7-1.1l-1.2,3L145,258.7z M149.3,256.7c-0.1,0.1-0.3,0.3-0.5,0.4
							c-0.2,0.2-0.4,0.3-0.5,0.5c-0.2,0.2-0.4,0.3-0.6,0.5s-0.4,0.3-0.6,0.4c-0.1-0.1-0.2-0.3-0.3-0.4c-0.1-0.1-0.2-0.2-0.4-0.3
							c0.4-0.2,0.7-0.5,1-0.7s0.6-0.5,0.9-0.8c0.3-0.3,0.6-0.7,0.9-1.1c0.3-0.4,0.7-0.9,1.1-1.6c0.3,0.3,0.5,0.5,0.8,0.7
							c0.1,0.1,0.2,0.1,0.1,0.2c0,0.1-0.1,0.1-0.3,0.2c0,0-0.1,0-0.1,0.1c-0.1,0-0.1,0.1-0.2,0.2c-0.1,0.1-0.2,0.2-0.4,0.4
							c-0.1,0.2-0.3,0.4-0.6,0.7l2,0.8c0.2,0.1,0.5,0.2,0.8,0.3c0.3,0.1,0.5,0.2,0.7,0.2c-0.1,0.2-0.2,0.4-0.3,0.6
							c-0.1,0.2-0.2,0.4-0.3,0.6l-2.8,6.5c-0.1,0.2-0.2,0.4-0.4,0.6c-0.1,0.2-0.4,0.3-0.6,0.3c-0.3,0.1-0.6,0-1,0
							c-0.4-0.1-0.9-0.2-1.5-0.5c0-0.1,0-0.2,0.1-0.3c0-0.1,0-0.2,0-0.3c0-0.1,0-0.2,0-0.3c0-0.1,0-0.2-0.1-0.3
							c0.5,0.2,1,0.4,1.3,0.5c0.3,0.1,0.6,0.1,0.8,0.1s0.4-0.2,0.5-0.4c0.1-0.2,0.3-0.5,0.5-0.9l2.4-5.9L149.3,256.7z M148,262.4
							c0-0.3,0-0.6,0-0.9c0-0.3,0-0.6-0.1-0.9c0-0.3-0.1-0.6-0.1-0.9c0-0.3-0.1-0.5-0.1-0.8l0.9-0.2c0,0.2,0.1,0.5,0.1,0.8
							c0,0.3,0.1,0.6,0.1,0.9c0,0.3,0,0.6,0.1,0.9c0,0.3,0,0.6,0,0.9L148,262.4z"/>
						<path class="st8" d="M159.6,258.4c-0.2,0-0.4-0.1-0.7-0.1c-0.2,0-0.5-0.1-0.7-0.1c-0.2,0-0.4-0.1-0.6-0.1c-0.2,0-0.4,0-0.5,0
							l0.2-0.9c0.1,0,0.3,0.1,0.5,0.1c0.2,0.1,0.5,0.1,0.9,0.2s0.7,0.2,1.1,0.2c0.4,0.1,0.8,0.2,1.3,0.3c0.4,0.1,0.8,0.2,1.2,0.3
							c0.4,0.1,0.8,0.2,1.1,0.2c0.3,0.1,0.7,0.1,1.1,0.2c0.4,0.1,0.8,0.1,1.2,0.2c0.4,0.1,0.8,0.1,1.2,0.2c0.4,0.1,0.8,0.1,1.1,0.2
							c0.3,0.1,0.6,0.1,0.8,0.1c0.2,0,0.4,0.1,0.5,0.1l-0.2,0.9c-0.1,0-0.2-0.1-0.4-0.1c-0.2,0-0.4-0.1-0.6-0.2s-0.4-0.1-0.6-0.2
							c-0.2-0.1-0.4-0.1-0.6-0.1l-1.7,9c-0.1,0.3-0.1,0.6-0.2,0.8c-0.1,0.2-0.3,0.3-0.5,0.4c-0.2,0.1-0.5,0.1-0.9,0.1
							c-0.4,0-0.9-0.1-1.5-0.2c0.1-0.2,0.1-0.4,0-0.6c0-0.2-0.1-0.4-0.2-0.6c0.4,0.2,0.8,0.3,1.1,0.4c0.3,0.1,0.5,0.1,0.7,0
							c0.2,0,0.3-0.1,0.4-0.3c0.1-0.1,0.2-0.3,0.2-0.5l1.7-8.7L159.6,258.4z M158.3,266.3l-1-0.2c0.1-0.3,0.2-0.6,0.3-0.9
							c0.1-0.3,0.1-0.6,0.2-0.9l0.6-3.2c0-0.3,0.1-0.5,0.1-0.6c0-0.2,0-0.3,0-0.5c0.1,0,0.2,0.1,0.4,0.1c0.2,0,0.3,0.1,0.6,0.1
							c0.2,0,0.5,0.1,0.7,0.2c0.3,0.1,0.5,0.1,0.8,0.2c0.3,0.1,0.6,0.1,0.8,0.2c0.3,0.1,0.5,0.1,0.7,0.1s0.4,0.1,0.6,0.1
							c0.2,0,0.3,0,0.4,0c0,0.1-0.1,0.3-0.1,0.4c0,0.2-0.1,0.4-0.1,0.7l-0.6,3c-0.1,0.3-0.1,0.6-0.2,0.9c0,0.3-0.1,0.6-0.1,0.9
							l-0.9-0.2l0.2-1l-3.2-0.6L158.3,266.3z M162.6,261.6l-3.2-0.6l-0.7,3.4l3.2,0.6L162.6,261.6z"/>
						<path class="st8" d="M174.8,262.5c-0.4,0-0.7,0-1.1,0c-0.3,0-0.6,0-0.8,0.1l0-0.9c0.2,0,0.5,0.1,0.8,0.1s0.7,0,1.1,0
							c0-0.8,0-1.4,0-2c0-0.6-0.1-0.9-0.1-1.1c0.2,0,0.4,0.1,0.6,0.1c0.2,0,0.3,0,0.5,0c0.2,0,0.4,0,0.4,0.1c0,0.1,0,0.1-0.2,0.3
							c-0.2,0.1-0.2,0.3-0.2,0.5l0,2.1c0.2,0,0.3,0,0.5,0s0.3,0,0.4,0c0.1,0,0.2,0,0.3,0c0.1,0,0.2,0,0.3,0l0,0.9
							c-0.1,0-0.2,0-0.3-0.1c-0.1,0-0.2,0-0.3,0c-0.1,0-0.2,0-0.4,0c-0.1,0-0.3,0-0.5,0l0,2.6c0.2-0.1,0.4-0.2,0.6-0.3
							c0.2-0.1,0.4-0.2,0.6-0.3c0,0.2,0.1,0.3,0.1,0.4c0,0.1,0.1,0.2,0.1,0.4c-0.3,0.1-0.5,0.2-0.7,0.3c-0.2,0.1-0.5,0.2-0.7,0.3
							l-0.1,4.2c0,0.3,0,0.5-0.1,0.7c0,0.2-0.1,0.3-0.3,0.4c-0.2,0.1-0.4,0.2-0.7,0.2c-0.3,0-0.7,0.1-1.2,0.1c0-0.2,0-0.3,0-0.5
							c0-0.1-0.1-0.3-0.2-0.6c0.4,0.1,0.7,0.1,0.9,0.1c0.2,0,0.4,0,0.5-0.1c0.1-0.1,0.2-0.2,0.2-0.3c0-0.1,0-0.3,0.1-0.6l0-3.2
							c-0.3,0.1-0.5,0.3-0.8,0.4c-0.3,0.2-0.6,0.3-0.9,0.5c0-0.2-0.1-0.3-0.2-0.5c-0.1-0.1-0.2-0.3-0.3-0.5c0.8-0.3,1.6-0.5,2.2-0.8
							L174.8,262.5z M180.5,261.7c-0.7,0-1.2,0-1.7,0c-0.4,0-0.8,0-1.2,0.1l0-0.9c0.3,0.1,0.7,0.1,1.2,0.1c0.4,0,1,0.1,1.7,0.1
							c0-0.3,0-0.6,0-0.8c0-0.2,0-0.4,0-0.6c0-0.2,0-0.3,0-0.4c0-0.1,0-0.2,0-0.3c0.2,0,0.4,0.1,0.6,0.1c0.2,0,0.3,0,0.5,0
							c0.2,0,0.2,0,0.2,0.1c0,0.1-0.1,0.1-0.2,0.2c-0.1,0-0.1,0.1-0.1,0.2c0,0.1-0.1,0.2-0.1,0.3l0,1.2c0.7,0,1.3,0,1.8,0
							c0.5,0,0.9,0,1.2-0.1l0,0.9c-0.4-0.1-0.8-0.1-1.3-0.1c-0.5,0-1.1-0.1-1.8-0.1l0,1.9c0.4,0,0.8,0,1.2,0c0.4,0,0.7,0,1,0
							c0.3,0,0.6,0,0.8,0c0.3,0,0.5,0,0.8-0.1l0,1c-0.3,0-0.5-0.1-0.8-0.1c-0.2,0-0.5,0-0.8-0.1c-0.3,0-0.6,0-1,0
							c-0.4,0-0.8,0-1.3,0c-0.5,0-0.9,0-1.3,0c-0.4,0-0.7,0-1.1,0c-0.3,0-0.6,0-0.9,0s-0.6,0-0.8,0.1l0-1c0.2,0,0.5,0.1,0.7,0.1
							c0.2,0,0.4,0,0.7,0.1c0.2,0,0.5,0,0.8,0c0.3,0,0.7,0,1.1,0L180.5,261.7z M179.3,266.8c-0.6,0-1,0-1.4,0c-0.3,0-0.6,0-0.7,0
							l0-0.8c0.2,0,0.4,0,0.7,0.1c0.3,0,0.8,0,1.4,0l2.5,0c0-0.3,0-0.5,0-0.7c0-0.2,0-0.3,0-0.4c0-0.1,0-0.2,0-0.3
							c0-0.1,0-0.1,0-0.2c0.4,0.1,0.8,0.1,1.1,0.1c0.3,0,0.3,0.1,0.1,0.3c-0.1,0-0.1,0.1-0.1,0.2c0,0.1-0.1,0.2-0.1,0.3l0,0.7
							c0.6,0,1.1,0,1.5,0s0.6,0,0.8,0l0,0.8c-0.2,0-0.4,0-0.8-0.1c-0.4,0-0.9,0-1.4,0l0,3.3c0,0.3,0,0.6-0.1,0.8
							c-0.1,0.2-0.2,0.4-0.3,0.5c-0.2,0.1-0.4,0.2-0.6,0.2c-0.3,0-0.6,0.1-1.1,0c0-0.2,0-0.4-0.1-0.6c0-0.2-0.1-0.3-0.3-0.5
							c0.4,0.1,0.6,0.1,0.9,0.1c0.2,0,0.4,0,0.5-0.1c0.1-0.1,0.2-0.2,0.2-0.3c0-0.2,0.1-0.4,0.1-0.6l0-2.9L179.3,266.8z
							 M179.6,269.8c-0.2-0.4-0.5-0.7-0.7-1c-0.2-0.3-0.6-0.6-0.9-0.9l0.6-0.5c0.3,0.3,0.7,0.6,0.9,0.9c0.3,0.3,0.6,0.6,0.8,1
							L179.6,269.8z"/>
						<path class="st8" d="M190.6,263.6c-0.2,0.1-0.3,0.1-0.5,0.2c-0.1,0.1-0.3,0.1-0.5,0.2c-0.1-0.2-0.2-0.3-0.2-0.4
							c-0.1-0.1-0.2-0.2-0.3-0.4c0.1-0.1,0.3-0.2,0.5-0.5c0.2-0.3,0.3-0.7,0.4-1.1c0.1-0.4,0.3-0.9,0.4-1.5c0.1-0.6,0.2-1.2,0.2-1.8
							c0.2,0.1,0.4,0.2,0.5,0.2c0.2,0,0.3,0.1,0.4,0.1c0.1,0,0.2,0.1,0.2,0.1c0,0.1,0,0.1-0.2,0.2c-0.1,0-0.1,0.1-0.2,0.2
							c-0.1,0.1-0.1,0.3-0.2,0.6c-0.1,0.3-0.2,0.7-0.4,1.2c-0.2,0.5-0.4,1.2-0.6,2l1.7-0.4c0.1-0.2,0.1-0.4,0.2-0.6
							c0.1-0.2,0.1-0.3,0.1-0.5c0-0.1,0.1-0.3,0.1-0.4c0-0.1,0-0.2,0-0.4c0.2,0.1,0.3,0.2,0.5,0.2c0.1,0,0.3,0.1,0.4,0.1
							c0.1,0,0.2,0,0.2,0.1c0,0.1,0,0.1-0.1,0.2c0,0-0.1,0.1-0.1,0.1c0,0-0.1,0.1-0.1,0.2c-0.1,0.1-0.1,0.3-0.2,0.5
							c-0.1,0.2-0.2,0.5-0.3,0.9s-0.3,0.8-0.5,1.4c-0.2,0.5-0.5,1.2-0.7,2c0.4-0.1,0.8-0.3,1.3-0.4c0.4-0.2,0.9-0.3,1.2-0.5
							c0,0.1,0,0.2,0,0.3c0,0.1,0.1,0.2,0.1,0.3l-2.2,0.8c-0.2,0.1-0.4,0.1-0.5,0.2c-0.1,0-0.2,0.1-0.3,0.1c-0.1,0-0.2,0.1-0.2,0.1
							c-0.1,0-0.1,0.1-0.2,0.1c0-0.1-0.1-0.3-0.2-0.4c-0.1-0.2-0.2-0.3-0.3-0.4c0.1-0.1,0.2-0.2,0.4-0.3c0.1-0.1,0.2-0.3,0.4-0.5
							c0.1-0.2,0.3-0.5,0.4-1c0.2-0.4,0.4-0.9,0.6-1.6L190.6,263.6z M194.6,267.3c0,0.1,0,0.3,0.1,0.3c0,0.1,0.1,0.2,0.2,0.3
							c-1,0.4-1.8,0.8-2.4,1.1c-0.7,0.3-1.2,0.6-1.7,0.8c-0.1-0.2-0.2-0.3-0.3-0.4c-0.1-0.1-0.2-0.3-0.4-0.4
							c0.3-0.1,0.6-0.1,0.9-0.3c0.3-0.1,0.7-0.2,1.1-0.4c0.4-0.2,0.8-0.3,1.2-0.5C193.8,267.7,194.2,267.5,194.6,267.3z
							 M196.4,259.2c-0.6,0.1-1.1,0.2-1.5,0.3c-0.4,0.1-0.8,0.2-1.2,0.3l-0.2-0.9c0.4,0,0.8-0.1,1.2-0.1c0.4-0.1,0.9-0.1,1.6-0.3
							c-0.1-0.4-0.2-0.8-0.2-1c-0.1-0.3-0.1-0.4-0.2-0.5c0.2,0,0.4,0,0.6,0c0.2,0,0.3,0,0.5-0.1c0.1,0,0.2,0,0.2,0
							c0,0,0,0.1-0.1,0.1c-0.1,0-0.1,0.1-0.1,0.2c0,0.1,0,0.2,0,0.3l0.2,0.9c0.4-0.1,0.7-0.1,1-0.2c0.3-0.1,0.5-0.1,0.8-0.2
							c0.2-0.1,0.5-0.1,0.7-0.2c0.2-0.1,0.4-0.1,0.6-0.2l0.2,0.9c-0.4,0-0.8,0.1-1.3,0.1c-0.5,0.1-1,0.2-1.8,0.3l0.3,1.5
							c0.8-0.1,1.5-0.3,2.1-0.4c0.6-0.1,1.1-0.3,1.5-0.4l-0.8,2.7l-0.7-0.2l0.5-1.5l-2.8,0.5c-0.5,0.1-1,0.2-1.3,0.3
							c-0.3,0.1-0.6,0.1-0.9,0.2s-0.5,0.1-0.6,0.2c-0.2,0.1-0.4,0.1-0.6,0.2l-0.2-0.8c0.2,0,0.4,0,0.6-0.1c0.2,0,0.4,0,0.6-0.1
							c0.2,0,0.5-0.1,0.8-0.1c0.3,0,0.6-0.1,0.9-0.2L196.4,259.2z M196.5,265c-0.3-0.2-0.7-0.3-1.1-0.5c-0.4-0.1-0.8-0.2-1.2-0.3
							l0.2-0.6c0.4,0.1,0.8,0.2,1.2,0.3c0.4,0.1,0.8,0.3,1.2,0.5L196.5,265z M198.7,265.5c-0.1,0.5-0.2,0.9-0.3,1.3
							c-0.2,0.4-0.4,0.8-0.6,1.1c-0.3,0.4-0.6,0.7-1,1.1c-0.4,0.4-0.9,0.8-1.4,1.2c-0.1-0.1-0.2-0.3-0.3-0.4
							c-0.1-0.1-0.3-0.2-0.5-0.3c0.6-0.3,1-0.6,1.4-0.9c0.4-0.3,0.7-0.6,1-0.9c0.3-0.3,0.5-0.6,0.6-1c0.2-0.3,0.3-0.7,0.3-1.1
							c-0.8,0.2-1.4,0.3-2,0.4c-0.5,0.1-1,0.2-1.4,0.4l-0.2-0.9c0.2,0,0.5,0,0.7-0.1c0.3,0,0.5-0.1,0.8-0.1c0.3,0,0.6-0.1,1-0.2
							c0.4-0.1,0.7-0.1,1.2-0.2c0.1-0.5,0.1-1,0.1-1.5c0-0.5-0.1-1.1-0.3-1.7c0.2,0,0.4,0,0.6,0c0.2,0,0.3,0,0.4-0.1
							c0.1,0,0.1,0,0.2,0s0,0.1-0.1,0.2c-0.1,0.1-0.1,0.2-0.1,0.4c0,0.2,0,0.4,0,0.7c0,0.4,0,0.7,0,0.9c0,0.3,0,0.6-0.1,0.9
							c0.4-0.1,0.8-0.2,1.1-0.2c0.3-0.1,0.6-0.1,0.9-0.2c0.3-0.1,0.5-0.1,0.7-0.2c0.2-0.1,0.4-0.1,0.6-0.2l0.2,0.9
							c-0.2,0-0.4,0-0.7,0.1c-0.2,0-0.5,0.1-0.8,0.1c-0.3,0-0.6,0.1-0.9,0.1C199.5,265.3,199.1,265.4,198.7,265.5z M197.2,263.6
							c-0.1-0.1-0.3-0.1-0.4-0.2c-0.2-0.1-0.4-0.1-0.6-0.2c-0.2-0.1-0.4-0.1-0.6-0.2c-0.2-0.1-0.4-0.1-0.6-0.2l0.2-0.6
							c0.4,0.1,0.8,0.2,1.2,0.3c0.4,0.1,0.7,0.3,1.2,0.5L197.2,263.6z M201.9,268.6c-0.2-0.2-0.5-0.4-0.7-0.6
							c-0.2-0.2-0.5-0.3-0.7-0.5c-0.2-0.2-0.5-0.3-0.7-0.4c-0.3-0.1-0.5-0.3-0.8-0.4l0.3-0.6c0.3,0.2,0.6,0.3,0.9,0.4
							c0.3,0.1,0.5,0.3,0.8,0.4c0.3,0.1,0.5,0.3,0.8,0.4c0.2,0.2,0.5,0.3,0.8,0.5L201.9,268.6z"/>
						<path class="st8" d="M210.8,255.5c0.2-0.7,0.3-1.3,0.3-1.9c0-0.6,0-1,0-1.4c0.2,0.1,0.4,0.1,0.5,0.1c0.1,0,0.3,0,0.5,0
							c0.3,0,0.3,0.1,0.2,0.3c-0.1,0.1-0.1,0.2-0.2,0.2c0,0.1-0.1,0.2-0.1,0.4c-0.1,0.2-0.1,0.4-0.2,0.7c-0.1,0.3-0.1,0.7-0.2,1.1
							c0.6-0.3,1.2-0.5,1.8-0.8c0.6-0.2,1-0.4,1.3-0.6l0.4,0.9c-0.2,0.1-0.5,0.2-0.8,0.3c-0.3,0.1-0.7,0.3-1.1,0.4
							c-0.4,0.1-0.8,0.3-1.2,0.5c-0.4,0.2-0.8,0.3-1.3,0.5c0.1,0.2,0.2,0.5,0.3,0.7c0.1,0.3,0.2,0.5,0.3,0.8
							c0.1,0.3,0.2,0.5,0.2,0.7c0.1,0.2,0.1,0.5,0.2,0.6l1.4-0.6c0.8-0.3,1.5-0.6,2.1-0.9c0.6-0.3,1.2-0.5,1.6-0.8l0.4,0.9
							c-0.5,0.1-1,0.3-1.7,0.6c-0.7,0.2-1.4,0.5-2.1,0.8l-1.1,0.4c0.5,0.4,1,0.7,1.4,1c0.5,0.3,1,0.5,1.5,0.6
							c0.5,0.1,1.1,0.2,1.7,0.2c0.6,0,1.3,0,2-0.1c-0.2,0.4-0.3,0.8-0.2,1.2c-0.8,0-1.4,0-2.1-0.1c-0.6-0.1-1.2-0.2-1.7-0.4
							c-0.5-0.2-1-0.4-1.5-0.7c-0.5-0.3-0.9-0.6-1.4-1c0,0.6,0,1.2-0.1,1.7s-0.3,1.1-0.5,1.6c-0.2,0.5-0.5,1-0.9,1.5
							c-0.4,0.5-0.8,0.9-1.3,1.4c-0.1-0.1-0.3-0.3-0.4-0.3c-0.2-0.1-0.3-0.1-0.6-0.1c0.6-0.5,1.1-0.9,1.5-1.4c0.4-0.5,0.7-0.9,1-1.4
							c0.2-0.5,0.4-1,0.5-1.5c0.1-0.5,0.1-1,0-1.6l-0.8,0.3c-0.9,0.3-1.6,0.7-2.2,0.9c-0.6,0.3-1.1,0.5-1.5,0.7l-0.4-0.9
							c0.2-0.1,0.5-0.2,0.7-0.2c0.2-0.1,0.5-0.2,0.8-0.3c0.3-0.1,0.6-0.2,1-0.4c0.4-0.1,0.8-0.3,1.3-0.5l0.9-0.4
							c0-0.2-0.1-0.4-0.2-0.7c-0.1-0.2-0.2-0.5-0.3-0.7c-0.1-0.3-0.2-0.5-0.3-0.8c-0.1-0.2-0.2-0.5-0.3-0.7
							c-0.4,0.2-0.8,0.3-1.2,0.5c-0.4,0.2-0.8,0.3-1.1,0.5c-0.4,0.2-0.7,0.3-1,0.4c-0.3,0.1-0.6,0.3-0.8,0.4l-0.4-0.9
							c0.3-0.1,0.6-0.2,0.9-0.3c0.3-0.1,0.6-0.2,1.1-0.4c0.4-0.2,0.9-0.3,1.4-0.6C209.3,256.1,210,255.8,210.8,255.5z M208.3,256.2
							c-0.2-0.2-0.3-0.3-0.5-0.4c-0.1-0.1-0.3-0.2-0.4-0.3c-0.1-0.1-0.3-0.2-0.5-0.3c-0.2-0.1-0.4-0.2-0.6-0.3l0.5-0.7
							c0.4,0.2,0.7,0.4,1.1,0.6c0.3,0.2,0.7,0.4,1,0.7L208.3,256.2z"/>
						<path class="st8" d="M218.9,249.7c0.8-0.5,1.7-1,2.5-1.5c0.8-0.5,1.5-1,2.3-1.6c0.7-0.5,1.4-1,2-1.5c0.6-0.5,1.1-1,1.6-1.4
							c0.1,0.1,0.3,0.1,0.4,0.2c0.2,0,0.3,0.1,0.5,0.1c0.2,0,0.2,0.1,0.2,0.1s-0.1,0.2-0.2,0.2c-0.3,0.1-0.6,0.3-0.9,0.5
							c-0.3,0.2-0.7,0.5-1.1,0.8c-0.2,0.2-0.6,0.5-1,0.8c-0.4,0.3-0.9,0.7-1.5,1.1c-0.5,0.4-1.1,0.8-1.8,1.3c-0.7,0.5-1.3,0.9-2,1.4
							c-0.2-0.1-0.3-0.2-0.4-0.3C219.2,249.8,219,249.7,218.9,249.7z M226.7,248.2c0.1-0.6,0.1-1.2,0.1-1.6c0-0.4-0.1-0.9-0.1-1.3
							c0.2,0,0.4,0,0.5,0c0.2,0,0.3-0.1,0.5-0.1c0.1-0.1,0.2-0.1,0.3,0c0,0,0,0.1-0.1,0.3c0,0-0.1,0.1-0.1,0.2
							c0,0.1-0.1,0.2-0.1,0.4c0,0.2-0.1,0.4-0.1,0.7c0,0.3-0.1,0.7-0.1,1.1c0.3-0.2,0.5-0.4,0.8-0.5c0.2-0.2,0.4-0.3,0.6-0.4
							c0.2-0.1,0.3-0.2,0.5-0.3c0.2-0.1,0.3-0.2,0.4-0.3l1.1,1.7l-0.7,0.4l-0.7-1l-8.2,5.3l0.6,1l-0.7,0.4l-1-1.6
							c0.2-0.1,0.4-0.2,0.6-0.3s0.4-0.2,0.5-0.3c0.2-0.1,0.4-0.2,0.5-0.3c0.2-0.1,0.4-0.2,0.6-0.4L226.7,248.2z M222.4,250.9
							c-0.2-0.1-0.5-0.2-0.8-0.3c-0.3-0.1-0.6-0.2-1-0.2l0.3-0.7c0.3,0,0.7,0.1,0.9,0.2c0.3,0.1,0.6,0.2,0.9,0.3L222.4,250.9z
							 M225.3,254.7c0,0.3-0.1,0.5-0.1,0.8c0,0.3-0.1,0.6-0.2,0.9c-0.1,0.3-0.2,0.6-0.3,1c-0.1,0.4-0.2,0.8-0.4,1.2
							c-0.2-0.1-0.3-0.1-0.4-0.2c-0.1,0-0.3,0-0.6,0c0.5-1,0.9-2,1.1-2.9c0.2-0.9,0.3-1.9,0.3-2.8c-0.5,0.3-0.9,0.6-1.3,0.9
							c-0.4,0.3-0.7,0.5-1,0.7l-0.5-0.7c0.3-0.2,0.7-0.4,1.1-0.6c0.4-0.3,0.9-0.6,1.6-1c0-0.2-0.1-0.5-0.1-0.7
							c-0.1-0.2-0.1-0.5-0.2-0.7c0.2,0,0.4-0.1,0.5-0.1c0.1,0,0.3-0.1,0.4-0.2c0.1-0.1,0.2-0.1,0.2,0c0,0,0,0.1-0.1,0.3
							c0,0.1-0.1,0.2-0.1,0.3s0,0.4,0,0.6l2.1-1.4c0.5-0.3,1-0.7,1.5-1c0.5-0.3,0.9-0.6,1.2-0.8l0.5,0.7c-0.3,0.2-0.8,0.4-1.3,0.7
							c-0.5,0.3-1,0.6-1.5,1l-2.4,1.6c0,0.3,0,0.5,0,0.8c0,0.2,0,0.5,0,0.7l3-2c0.5-0.3,0.9-0.6,1.3-0.9c0.4-0.3,0.7-0.5,0.9-0.7
							c0,0.8,0,1.5-0.2,2.2c-0.1,0.7-0.3,1.4-0.6,1.9c0.6-0.2,1.3-0.4,1.9-0.7c0.7-0.3,1.4-0.7,2.1-1.2c0,0.2,0,0.4,0,0.6
							c0,0.2,0.1,0.3,0.1,0.5c-0.9,0.4-1.7,0.8-2.4,1.1c-0.7,0.3-1.5,0.5-2.2,0.6c-0.3,0.6-0.7,1.1-1.2,1.8
							c-0.5,0.6-1.1,1.2-1.8,1.8c-0.1-0.1-0.3-0.2-0.4-0.2c-0.2-0.1-0.4-0.1-0.6-0.1c0.3-0.2,0.6-0.4,0.9-0.7
							c0.3-0.3,0.6-0.5,0.9-0.8c0.3-0.3,0.5-0.6,0.8-0.8c0.2-0.3,0.5-0.6,0.6-0.8c-0.4,0-1-0.1-1.6-0.2
							C226.5,255,225.9,254.9,225.3,254.7z M225.2,249.1c-0.3-0.1-0.6-0.2-0.9-0.3c-0.3-0.1-0.7-0.1-1.1-0.2l0.3-0.8
							c0.4,0,0.8,0.1,1.1,0.1c0.3,0.1,0.7,0.1,1,0.2L225.2,249.1z M226,254.2c0.5,0.2,1,0.3,1.5,0.4c0.5,0.1,1,0.1,1.5,0.1
							c0.3-0.5,0.5-1,0.6-1.5c0.1-0.5,0.2-1,0.2-1.4L226,254.2z"/>
						<path class="st8" d="M233.5,241.5c0.1,0.3,0.1,0.7,0.2,1.1c0.1,0.4,0.1,0.7,0.2,1c-0.2,0-0.3,0-0.4,0.1
							c-0.1,0-0.2,0.1-0.4,0.2c0-0.5,0-0.9-0.1-1.4c-0.1-0.5-0.2-0.9-0.3-1.3c-0.1-0.4-0.2-0.8-0.4-1.1c-0.1-0.3-0.3-0.7-0.5-0.9
							c0.2,0,0.3-0.1,0.4-0.1c0.1,0,0.3-0.1,0.4-0.2c0.1-0.1,0.2-0.1,0.2,0c0,0,0,0.1,0,0.3c0,0.1,0,0.2,0,0.3
							c0,0.1,0.1,0.3,0.2,0.6c0.1,0.2,0.2,0.5,0.2,0.8l0.6-0.5c0.3-0.3,0.5-0.5,0.7-0.7c0.2-0.2,0.3-0.4,0.5-0.5l0.5,0.6
							c-0.2,0.1-0.4,0.3-0.5,0.5c-0.2,0.2-0.4,0.4-0.7,0.6L233.5,241.5z M235.4,242.9c-0.2,0.2-0.4,0.4-0.5,0.6
							c-0.1,0.2-0.3,0.3-0.4,0.5l-0.6-0.6c0.2-0.1,0.4-0.3,0.6-0.5c0.2-0.2,0.5-0.4,0.8-0.7c0.1-0.1,0.3-0.3,0.4-0.4
							c0.1-0.1,0.2-0.2,0.2-0.3c0.1-0.1,0.1-0.2,0.2-0.2c0.1-0.1,0.1-0.2,0.2-0.2l0.6,0.6c-0.2,0.1-0.3,0.2-0.4,0.3
							c-0.1,0.1-0.3,0.2-0.5,0.4l1.3,1.4c0.3-0.3,0.5-0.5,0.7-0.7c0.2-0.2,0.3-0.4,0.5-0.6l0.6,0.6c-0.2,0.1-0.4,0.3-0.6,0.5
							c-0.2,0.2-0.4,0.4-0.7,0.6l2.1,2.1c0-0.2,0.1-0.5,0.1-0.7c0-0.2,0.1-0.5,0.1-0.9c0.3,0.2,0.5,0.4,0.7,0.3l-0.3,1.4
							c-0.1,0.4-0.1,0.7-0.2,0.9c0,0.2,0,0.4,0,0.7c-0.2,0-0.3-0.1-0.5-0.1c-0.1,0-0.3,0-0.4,0c0-0.2,0-0.3,0-0.4
							c0-0.1,0-0.2-0.1-0.3c0-0.1-0.1-0.2-0.2-0.3c-0.1-0.1-0.2-0.2-0.3-0.4l-1.6-1.7c-0.3,0.3-0.5,0.6-0.8,0.8
							c-0.2,0.2-0.4,0.4-0.5,0.6l-0.6-0.6c0.2-0.1,0.4-0.3,0.6-0.5c0.2-0.2,0.5-0.4,0.8-0.7L235.4,242.9z M237.1,239.4
							c-0.5-0.2-0.9-0.4-1.3-0.5c-0.4-0.1-0.8-0.3-1.3-0.4l0.2-0.7c0.4,0.1,0.9,0.2,1.4,0.4c0.5,0.1,0.9,0.3,1.3,0.5L237.1,239.4z
							 M238.1,236.8c-0.2,0.2-0.3,0.3-0.5,0.5c-0.2,0.2-0.4,0.4-0.6,0.7l-0.6-0.6c0.3-0.2,0.6-0.4,0.8-0.6c0.2-0.2,0.4-0.4,0.6-0.6
							c-0.1-0.2-0.2-0.3-0.2-0.5c-0.1-0.1-0.2-0.3-0.2-0.4c-0.1-0.1-0.2-0.3-0.3-0.4c-0.1-0.1-0.2-0.3-0.3-0.5
							c0.3-0.1,0.6-0.2,0.8-0.4c0.1-0.1,0.2-0.1,0.2-0.1c0,0,0,0.1,0,0.3c0,0.1,0,0.1,0,0.2s0,0.1,0.1,0.2c0,0.1,0.1,0.2,0.2,0.4
							c0.1,0.2,0.2,0.4,0.3,0.6l1.1-1c0.2-0.2,0.4-0.4,0.6-0.6c0.2-0.2,0.3-0.4,0.4-0.5l0.6,0.6c-0.2,0.1-0.4,0.3-0.6,0.4
							c-0.2,0.1-0.4,0.3-0.6,0.5l-1.2,1.2c0.2,0.4,0.4,0.8,0.6,1.3c0.2,0.5,0.4,1,0.5,1.5l1.1-1c-0.2-0.2-0.3-0.3-0.4-0.4
							c-0.1-0.1-0.2-0.2-0.3-0.3c-0.1-0.1-0.2-0.2-0.3-0.2c-0.1-0.1-0.2-0.2-0.3-0.3c0.2-0.1,0.3-0.2,0.4-0.3
							c0.1-0.1,0.2-0.2,0.3-0.3c0.1-0.1,0.2-0.1,0.2-0.1c0.1,0,0.1,0.1,0,0.2c0,0.1,0,0.2,0.1,0.3c0.1,0.1,0.2,0.2,0.3,0.3l0.4,0.5
							c0.3-0.3,0.5-0.5,0.7-0.7c0.2-0.2,0.4-0.4,0.6-0.6l0.6,0.6c-0.1,0.1-0.2,0.2-0.3,0.3s-0.2,0.2-0.3,0.3
							c-0.1,0.1-0.2,0.2-0.3,0.3c-0.1,0.1-0.2,0.2-0.4,0.4l1.3,1.3c0.2-0.2,0.4-0.4,0.6-0.6c0.2-0.2,0.3-0.3,0.4-0.4
							c0.1-0.1,0.2-0.2,0.3-0.3c0.1-0.1,0.2-0.2,0.3-0.3l0.6,0.6c-0.1,0.1-0.2,0.2-0.3,0.3c-0.1,0.1-0.2,0.2-0.3,0.3
							c-0.1,0.1-0.3,0.2-0.4,0.4c-0.2,0.2-0.4,0.4-0.6,0.6c0.4,0.4,0.7,0.8,1.1,1.1c0.3,0.3,0.6,0.6,0.8,0.8l-0.6,0.6
							c-0.1-0.1-0.2-0.2-0.3-0.4c-0.1-0.1-0.3-0.3-0.4-0.5c-0.2-0.2-0.3-0.4-0.5-0.5c-0.2-0.2-0.4-0.4-0.5-0.6
							c-0.4,0.4-0.8,0.8-1.1,1.1c-0.3,0.3-0.5,0.6-0.7,0.8l-0.6-0.6c0.3-0.2,0.5-0.4,0.8-0.7c0.3-0.3,0.7-0.6,1.1-1l-1.3-1.3
							c-0.2,0.2-0.3,0.3-0.5,0.5c-0.1,0.1-0.3,0.3-0.4,0.4c-0.1,0.1-0.2,0.2-0.3,0.4c-0.1,0.1-0.2,0.2-0.3,0.4
							c-0.2-0.1-0.3-0.2-0.4-0.2c-0.1,0-0.3-0.1-0.4-0.1c0-0.4,0-0.8-0.2-1.3C238.7,238.2,238.5,237.6,238.1,236.8z M238.3,241.1
							c-0.2,0.2-0.4,0.4-0.5,0.5c-0.1,0.1-0.2,0.3-0.3,0.4l-0.6-0.6c0.2-0.1,0.3-0.2,0.4-0.3c0.1-0.1,0.2-0.2,0.4-0.3
							c0.2-0.1,0.3-0.3,0.4-0.4c0.1-0.1,0.2-0.2,0.3-0.4c0.1,0.2,0.2,0.4,0.4,0.6c0.2,0.2,0.4,0.4,0.7,0.7l2.7,2.8
							c0.3-0.1,0.6-0.2,0.9-0.2c0.3-0.1,0.5-0.2,0.8-0.3c0.2-0.1,0.5-0.3,0.7-0.5c0.2-0.2,0.5-0.4,0.8-0.7c0.3-0.3,0.6-0.6,0.9-1
							c0.3-0.4,0.7-0.8,1.2-1.4c0,0.2,0,0.4,0.1,0.5c0.1,0.1,0.2,0.3,0.3,0.5c-0.5,0.5-1,1-1.4,1.3c-0.4,0.4-0.7,0.7-1,0.9
							c-0.3,0.2-0.5,0.4-0.8,0.6c-0.2,0.1-0.4,0.3-0.6,0.4c-0.2,0.1-0.4,0.2-0.6,0.2c-0.2,0.1-0.5,0.1-0.7,0.2
							c-0.2,0-0.3,0.1-0.4,0.1c-0.1,0.1-0.2,0.2-0.3,0.3c-0.1,0.1-0.1,0.3-0.1,0.6c0,0.3-0.1,0.6-0.1,1c-0.2-0.1-0.3-0.2-0.5-0.1
							c-0.2,0-0.3,0-0.4,0.1c0.1-0.3,0.1-0.6,0.1-0.9c0-0.2,0.1-0.4,0.1-0.6s0.1-0.3,0.1-0.4c0-0.1,0.1-0.2,0.1-0.2L238.3,241.1z"/>
					</g>
				</g>
				<g>
					<defs>
						<polygon id="SVGID_1_" points="262,229.2 183.2,194.3 94.5,228.2 82.7,149.5 178.6,187.2 270.8,150.6 						"/>
					</defs>
					<clipPath id="SVGID_2_">
						<use xlink:href="#SVGID_1_"  style="overflow:visible;"/>
					</clipPath>
					<circle class="st9" cx="179.1" cy="178.3" r="85.8"/>
				</g>
			</g>
		</g>
	</g>
	<g id="Artwork_18">
		<g>
			<defs>
				
					<rect id="SVGID_3_" x="16.9" y="137.7" transform="matrix(9.757598e-02 -0.9952 0.9952 9.757598e-02 -123.8368 183.4388)" width="44.6" height="44.6"/>
			</defs>
			<clipPath id="SVGID_4_">
				<use xlink:href="#SVGID_3_"  style="overflow:visible;"/>
			</clipPath>
			<g class="st10">
				<defs>
					
						<rect id="SVGID_5_" x="16.9" y="137.7" transform="matrix(9.757598e-02 -0.9952 0.9952 9.757598e-02 -123.8368 183.4388)" width="44.6" height="44.6"/>
				</defs>
				<clipPath id="SVGID_6_">
					<use xlink:href="#SVGID_5_"  style="overflow:visible;"/>
				</clipPath>
				<path class="st11" d="M36.7,138.3c1.5-0.2,3-0.2,4.6,0c12,1.2,20.8,11.9,19.6,23.9c-0.2,1.6-0.5,3.1-0.9,4.5l0.3,0.4
					c0.5-1.6,0.9-3.2,1-4.9c1.2-12.2-7.8-23.2-20-24.4c-1.7-0.2-3.4-0.1-5,0.1L36.7,138.3z"/>
				<path class="st11" d="M41.4,181.7c-1.4,0.1-2.9,0.2-4.3,0c-12-1.2-20.8-11.9-19.6-23.9c0.1-1.5,0.4-2.9,0.8-4.3l-0.3-0.4
					c-0.5,1.5-0.8,3-1,4.6c-1.2,12.2,7.8,23.2,20,24.4c1.6,0.2,3.2,0.1,4.7,0L41.4,181.7z"/>
				<path class="st11" d="M51.7,148.6c-0.2,0-4.9-0.5-5.2-0.5c-1.6-0.2-2.4,0.2-3,1.7c-0.2,0.4-0.4,0.9-0.6,1.4
					c-0.2,0.4-0.4,0.9-0.5,1.3c-0.3,0.6-0.5,1.1-0.8,1.5c-0.2,0.2-0.4,0.5-0.8,0.5c-0.4,0-0.6-0.3-0.9-0.5c-1.3-1.5-2.8-2.1-4.5-2
					c-1.6,0.1-3,1.4-3.1,2.8c-0.1,1.6,1,3.1,2.5,3.4c1.6,0.4,3.2,0,4.8-1.1c0.3-0.2,0.6-0.3,0.9-0.2c0.2,0,0.4,0.2,0.6,0.5
					c0.3,0.6,0.8,2.4,0.9,2.9l-0.8,0.2c-0.2-0.6-0.6-2.2-0.9-2.7c0-0.1-0.1-0.1-0.1-0.1c0,0-0.1,0-0.2,0.1c-1.7,1.2-3.5,1.7-5.4,1.2
					c-2-0.4-3.3-2.3-3.2-4.3c0,0,0,0,0,0c0.2-1.8,1.9-3.4,3.9-3.5c1.9-0.1,3.6,0.7,5.1,2.3c0.1,0.1,0.2,0.2,0.2,0.2
					c0,0,0.1-0.1,0.2-0.2c0.3-0.3,0.5-0.8,0.7-1.3c0.2-0.4,0.4-0.9,0.5-1.3c0.2-0.5,0.4-0.9,0.6-1.4c0.8-1.8,1.9-2.4,3.8-2.1
					c0.2,0,3.5,0.3,5.2,0.5L51.7,148.6z"/>
			</g>
			<g class="st10">
				<defs>
					<path id="SVGID_7_" d="M38.9,166.4c0.3,0.5,0.9,0.3,1.1,0.9c0.3,1.1,0.1,0.6,0.4,1.7c0.3,1,0.3,3.1,1.2,3.6
						c3.1,1.6,12.4,1.5,12.7,1.3l1.9-16.2c-0.4,0-10.5-1.1-10.8-1.2c-1.8-0.2-2.7,0.5-3.4,2.1c-0.4,0.9-0.4,1.4-0.8,2.3
						c-0.2,0.5-0.3,1.1-0.6,1.6c-0.2,0.2-0.6,0.4-0.6,0.9c0,0.1,0,0.5,0.7,0c0.3-0.3-0.2,0.6-0.8,1.4
						C39.4,165.6,38.9,166.2,38.9,166.4C38.9,166.4,38.9,166.4,38.9,166.4"/>
				</defs>
				<clipPath id="SVGID_8_">
					<use xlink:href="#SVGID_7_"  style="overflow:visible;"/>
				</clipPath>
				
					<rect x="31.6" y="172.1" transform="matrix(0.7727 -0.6347 0.6347 0.7727 -99.032 68.0321)" class="st12" width="27.7" height="0.4"/>
				
					<rect x="32.7" y="173.5" transform="matrix(0.7727 -0.6347 0.6347 0.7727 -99.6344 69.0384)" class="st12" width="27.7" height="0.4"/>
				
					<rect x="30.1" y="170.3" transform="matrix(0.7727 -0.6347 0.6347 0.7727 -97.9743 67.328)" class="st12" width="29.9" height="0.4"/>
				
					<rect x="28.7" y="168.2" transform="matrix(0.7727 -0.6347 0.6347 0.7727 -96.7062 66.75)" class="st12" width="32.3" height="0.4"/>
				
					<rect x="27.5" y="166.4" transform="matrix(0.7727 -0.6347 0.6347 0.7727 -95.6712 66.0324)" class="st12" width="33.8" height="0.4"/>
				
					<rect x="26.6" y="165.8" transform="matrix(0.7727 -0.6347 0.6347 0.7727 -95.6906 64.6837)" class="st12" width="31.8" height="0.4"/>
				
					<rect x="25.8" y="165.7" transform="matrix(0.7727 -0.6347 0.6347 0.7727 -96.1975 63.0432)" class="st12" width="28.2" height="0.4"/>
				
					<rect x="24.7" y="164.4" transform="matrix(0.7727 -0.6347 0.6347 0.7727 -95.6307 62.0454)" class="st12" width="28.2" height="0.4"/>
				
					<rect x="23.7" y="163.1" transform="matrix(0.7727 -0.6347 0.6347 0.7727 -95.0638 61.0476)" class="st12" width="28.1" height="0.4"/>
				
					<rect x="22.6" y="161.8" transform="matrix(0.7727 -0.6347 0.6347 0.7727 -94.4959 60.0484)" class="st12" width="28.1" height="0.4"/>
				
					<rect x="21.5" y="160.5" transform="matrix(0.7727 -0.6347 0.6347 0.7727 -93.9299 59.052)" class="st12" width="28.1" height="0.4"/>
				
					<rect x="20.4" y="159.2" transform="matrix(0.7727 -0.6347 0.6347 0.7727 -93.362 58.053)" class="st12" width="28.1" height="0.4"/>
			</g>
			<g class="st10">
				<defs>
					
						<rect id="SVGID_9_" x="16.9" y="137.7" transform="matrix(9.757598e-02 -0.9952 0.9952 9.757598e-02 -123.8368 183.4388)" width="44.6" height="44.6"/>
				</defs>
				<clipPath id="SVGID_10_">
					<use xlink:href="#SVGID_9_"  style="overflow:visible;"/>
				</clipPath>
				<path class="st13" d="M56.7,157.6l-0.1,0.8l-1.5-0.1c-4.8-0.5-9.3-0.9-9.5-0.9c-1.6-0.2-2.4,0.2-3,1.7c-0.2,0.4-0.4,0.9-0.6,1.4
					c-0.2,0.4-0.4,0.9-0.5,1.3c-0.3,0.6-0.5,1.1-0.8,1.5c-0.2,0.2-0.4,0.5-0.8,0.5c-0.4,0-0.6-0.3-0.9-0.5c-1.3-1.5-2.8-2.1-4.5-2
					c-1.6,0.1-3,1.4-3.1,2.8c0,0,0,0,0,0c-0.1,1.6,1,3.1,2.5,3.4c1.6,0.4,3.2,0,4.8-1.1c0.3-0.2,0.6-0.3,0.9-0.2
					c0.2,0,0.4,0.2,0.6,0.5c0.3,0.6,0.5,1.2,0.7,1.7c0.1,0.5,0.2,1.1,0.3,1.6c0.1,0.6,0.2,1.2,0.4,1.8c0.2,0.7,0.7,1,1.8,1.2
					c0.6,0.1,6.1,0.6,6.2,0.6l-0.1,0.8c-0.2,0-5.6-0.5-6.2-0.6c-0.9-0.1-2.1-0.4-2.4-1.8c-0.2-0.6-0.3-1.2-0.4-1.9
					c-0.1-0.5-0.2-1-0.3-1.6c-0.1-0.5-0.3-1-0.6-1.6c0-0.1-0.1-0.1-0.1-0.1c0,0-0.1,0-0.2,0.1c-1.7,1.2-3.5,1.7-5.4,1.2
					c-2-0.4-3.3-2.3-3.2-4.3c0,0,0,0,0,0c0.2-1.8,1.9-3.4,3.9-3.5c1.9-0.1,3.6,0.7,5.1,2.3c0.1,0.1,0.2,0.2,0.2,0.2
					c0,0,0.1-0.1,0.2-0.2c0.3-0.3,0.5-0.8,0.7-1.3c0.2-0.4,0.4-0.9,0.5-1.3c0.2-0.5,0.4-0.9,0.6-1.4c0.8-1.8,1.9-2.4,3.8-2.1
					c0.2,0,6.7,0.7,9.5,0.9L56.7,157.6z"/>
				<path class="st13" d="M55.7,161.5c-0.5,5.4-3.7,10-8,12.6l1.8,0.2c4-2.9,6.8-7.4,7.4-12.7c0.1-1.3,0.1-2.7-0.1-4l-1.2-0.1
					C55.8,158.8,55.9,160.2,55.7,161.5"/>
				<path class="st13" d="M21.5,158.1c-1,9.7,6.2,18.4,15.9,19.4c3.7,0.4,7.2-0.4,10.2-2.1l-2.2-0.2c-2.4,1-5.1,1.4-7.9,1.1
					c-9.1-0.9-15.8-9-14.9-18.2c0.9-9.1,9-15.8,18.2-14.9c7.3,0.7,13,6.1,14.6,12.8l1.2,0.1c-1.5-7.4-7.7-13.3-15.6-14.1
					C31.2,141.3,22.5,148.4,21.5,158.1"/>
			</g>
		</g>
	</g>
	<g id="Artwork_20">
		<g>
			<defs>
				
					<rect id="SVGID_11_" x="227" y="278.4" transform="matrix(0.8396 -0.5432 0.5432 0.8396 -123.4448 183.8263)" width="45.1" height="45.1"/>
			</defs>
			<clipPath id="SVGID_12_">
				<use xlink:href="#SVGID_11_"  style="overflow:visible;"/>
			</clipPath>
			<g class="st14">
				<defs>
					
						<rect id="SVGID_13_" x="227" y="278.4" transform="matrix(0.8396 -0.5432 0.5432 0.8396 -123.4448 183.8263)" width="45.1" height="45.1"/>
				</defs>
				<clipPath id="SVGID_14_">
					<use xlink:href="#SVGID_13_"  style="overflow:visible;"/>
				</clipPath>
				<path class="st15" d="M267.3,287.3c7.5,9.7,5.7,23.7-4,31.3c-9.7,7.5-23.7,5.7-31.3-4c-7.5-9.7-5.7-23.7,4-31.3
					C245.8,275.8,259.8,277.6,267.3,287.3z"/>
				<path class="st16" d="M257.2,284.9l1.3,2.1c1.9,1.2,3.6,2.9,4.9,4.9c5,7.8,2.8,18.2-5,23.2c-7.8,5-18.2,2.8-23.2-5
					c-5-7.8-2.8-18.2,5-23.2c2.3-1.5,4.7-2.3,7.2-2.6l1.9-1.3c-3.4,0-6.8,0.9-9.8,2.9c-8.3,5.4-10.7,16.5-5.3,24.8
					c5.4,8.3,16.5,10.7,24.8,5.3c8.3-5.4,10.7-16.5,5.3-24.8C262.6,288.4,260.1,286.3,257.2,284.9"/>
				<line class="st17" x1="242.4" y1="314.2" x2="256" y2="317.1"/>
				<line class="st17" x1="242.6" y1="312.3" x2="258.6" y2="315.7"/>
				<line class="st17" x1="243.3" y1="310.1" x2="261.1" y2="314"/>
				<line class="st17" x1="243.7" y1="307.9" x2="262.9" y2="312.1"/>
				<line class="st17" x1="244.1" y1="306" x2="264.3" y2="310.3"/>
				<line class="st17" x1="244.3" y1="304" x2="265.5" y2="308.6"/>
				<line class="st17" x1="244.9" y1="301.8" x2="266" y2="306.4"/>
				<line class="st17" x1="245.3" y1="299.7" x2="266.2" y2="304.1"/>
				<line class="st17" x1="245.8" y1="297.7" x2="266.7" y2="302.1"/>
				<line class="st17" x1="250.6" y1="296.7" x2="266.8" y2="300.2"/>
				<line class="st17" x1="250.9" y1="294.5" x2="266.4" y2="297.8"/>
				<line class="st17" x1="251.3" y1="292.3" x2="266" y2="295.4"/>
				<line class="st17" x1="251.8" y1="290.3" x2="264.9" y2="293.1"/>
				<line class="st17" x1="252" y1="288.4" x2="263.5" y2="290.8"/>
				<polygon class="st16" points="255.9,287.6 257,287.8 253.6,282.5 248.3,285.9 249.4,286.2 252.8,284 249.7,297.9 245.4,297 
					241.4,316.9 242.2,317.1 246,297.9 250.3,298.9 253.6,284.1 				"/>
				<polygon class="st18" points="255.9,287.6 257,287.8 253.6,282.5 248.3,285.9 249.4,286.2 252.8,284 249.7,297.9 245.4,297 
					241.4,316.9 242.2,317.1 246,297.9 250.3,298.9 253.6,284.1 				"/>
			</g>
		</g>
	</g>
	<g id="Artwork_19">
		<g>
			<defs>
				
					<rect id="SVGID_15_" x="211.6" y="22.2" transform="matrix(0.4451 -0.8955 0.8955 0.4451 88.4656 240.5369)" width="53.4" height="53.4"/>
			</defs>
			<clipPath id="SVGID_16_">
				<use xlink:href="#SVGID_15_"  style="overflow:visible;"/>
			</clipPath>
			<g class="st19">
				<defs>
					
						<rect id="SVGID_17_" x="211.6" y="22.2" transform="matrix(0.4451 -0.8955 0.8955 0.4451 88.4656 240.5369)" width="53.4" height="53.4"/>
				</defs>
				<clipPath id="SVGID_18_">
					<use xlink:href="#SVGID_17_"  style="overflow:visible;"/>
				</clipPath>
				<polyline class="st20" points="244.1,27.3 250.1,25.3 252.1,31.3 				"/>
				<polyline class="st20" points="256,62.6 262,60.6 260,54.7 				"/>
				<polyline class="st20" points="220.7,35.2 214.8,37.2 216.8,43.1 				"/>
				<polyline class="st20" points="232.6,70.5 226.6,72.5 224.6,66.5 				"/>
				<path class="st21" d="M229.8,32c2.7,3.5,4.3,8.2,5.4,11.2c2.2,5.9,2.5,10.5,0.4,14.6l-3.4,6.9"/>
				<path class="st21" d="M235.7,50.5c-4.2-2.7-6.9-6.8-7.7-12c-0.5-3.7,0.8-6.3,2-6.7c2.4-0.8,6.1,2.3,8,4.9c3,4.2,3.8,10.3-1,14.1
					"/>
				<path class="st21" d="M235.7,50.5c-4.2-2.7-6.9-6.8-7.7-12c-0.5-3.7,0.8-6.3,2-6.7c2.4-0.8,6.1,2.3,8,4.9c3,4.2,3.8,10.3-1,14.1
					"/>
				<path class="st21" d="M252.8,52c-5.5-0.7-15.1,1.7-17.6,6.6"/>
				<path class="st21" d="M238.3,55.5c4.2,2,7.7,2.3,10.8,0.9c2.7-1.1,4.1-3.6,3.9-4.5c-0.4-1.7-4-3-6.3-3.1
					c-4.4-0.3-7.5,1.7-8.4,5.3"/>
			</g>
			<g class="st19">
				<defs>
					<path id="SVGID_19_" d="M238.5,55.2c7.5,4.6,13.8,0.2,14.5-3.2C246.9,51.4,240.9,53.5,238.5,55.2"/>
				</defs>
				<clipPath id="SVGID_20_">
					<use xlink:href="#SVGID_19_"  style="overflow:visible;"/>
				</clipPath>
				<line class="st22" x1="236.9" y1="50.1" x2="243" y2="68.3"/>
				<line class="st22" x1="238" y1="49.8" x2="244.1" y2="67.9"/>
				<line class="st22" x1="239" y1="49.4" x2="245.4" y2="68.6"/>
				<line class="st22" x1="240" y1="49.1" x2="246.5" y2="68.3"/>
				<line class="st22" x1="241.1" y1="48.7" x2="247.7" y2="68.3"/>
				<line class="st22" x1="242.1" y1="48.4" x2="248.7" y2="67.9"/>
				<line class="st22" x1="243.2" y1="48" x2="249.7" y2="67.5"/>
				<line class="st22" x1="244.2" y1="47.7" x2="250.8" y2="67.1"/>
				<line class="st22" x1="245.3" y1="47.3" x2="251.8" y2="66.7"/>
				<line class="st22" x1="246.3" y1="47" x2="252.8" y2="66.3"/>
				<line class="st22" x1="247.3" y1="46.6" x2="253.6" y2="65.2"/>
				<line class="st22" x1="249.1" y1="44.9" x2="255.7" y2="64.5"/>
				<line class="st22" x1="248.4" y1="46.3" x2="254.6" y2="64.9"/>
				<line class="st22" x1="249.9" y1="43.8" x2="256.1" y2="62.4"/>
				<line class="st22" x1="251.4" y1="44.8" x2="257.1" y2="61.7"/>
			</g>
			<g class="st19">
				<defs>
					<path id="SVGID_21_" d="M232.3,31.9c-0.9-0.4-2.7-0.2-2.7-0.2s1.8,3,4.2,7.7c2.4,4.7,3.1,11.4,3.1,11.4s1.3,0,2.7-3.3
						c1.4-3.2,0.8-6-0.5-9.1C237.7,35.5,233.4,32.4,232.3,31.9C232.4,31.9,232.3,31.9,232.3,31.9"/>
				</defs>
				<clipPath id="SVGID_22_">
					<use xlink:href="#SVGID_21_"  style="overflow:visible;"/>
				</clipPath>
				<line class="st23" x1="247" y1="43.6" x2="228.8" y2="49.7"/>
				<line class="st23" x1="246.6" y1="42.6" x2="228.5" y2="48.7"/>
				<line class="st23" x1="247.3" y1="44.7" x2="229.2" y2="50.8"/>
				<line class="st23" x1="247.7" y1="45.7" x2="229.5" y2="51.8"/>
				<line class="st23" x1="246.3" y1="41.5" x2="227.1" y2="48"/>
				<line class="st23" x1="245.9" y1="40.5" x2="226.7" y2="46.9"/>
				<line class="st23" x1="245.6" y1="39.4" x2="226" y2="46"/>
				<line class="st23" x1="245.2" y1="38.4" x2="225.7" y2="45"/>
				<line class="st23" x1="244.9" y1="37.4" x2="225.4" y2="43.9"/>
				<line class="st23" x1="244.5" y1="36.3" x2="225.1" y2="42.9"/>
				<line class="st23" x1="244.2" y1="35.3" x2="224.8" y2="41.8"/>
				<line class="st23" x1="243.8" y1="34.2" x2="224.5" y2="40.7"/>
				<line class="st23" x1="243.5" y1="33.2" x2="224.9" y2="39.4"/>
				<line class="st23" x1="243.8" y1="30.8" x2="224.2" y2="37.3"/>
				<line class="st23" x1="243.1" y1="32.1" x2="224.5" y2="38.4"/>
				<line class="st23" x1="244.2" y1="29.5" x2="225.6" y2="35.7"/>
				<line class="st23" x1="242.5" y1="28.9" x2="225.6" y2="34.5"/>
			</g>
			<g class="st19">
				<defs>
					
						<rect id="SVGID_23_" x="211.6" y="22.2" transform="matrix(0.4451 -0.8955 0.8955 0.4451 88.4656 240.5369)" width="53.4" height="53.4"/>
				</defs>
				<clipPath id="SVGID_24_">
					<use xlink:href="#SVGID_23_"  style="overflow:visible;"/>
				</clipPath>
				<path class="st24" d="M247.1,32.3c-4-2-8.4-2.4-12.5-1.4c0.4,0.3,0.8,0.6,1.2,0.9c3.5-0.7,7.3-0.3,10.8,1.5
					c8.4,4.2,11.9,14.4,7.7,22.8s-14.4,11.9-22.8,7.7s-11.9-14.4-7.7-22.8c0.6-1.1,1.3-2.2,2-3.2c-0.1-0.6-0.1-1.1-0.1-1.7
					c-1.2,1.3-2.2,2.7-3,4.3c-4.5,9-0.8,19.9,8.2,24.4c9,4.5,19.9,0.8,24.4-8.2C259.8,47.7,256.1,36.8,247.1,32.3"/>
			</g>
		</g>
	</g>
	<g>
		<g>
			<path d="M248.7,229.6c0.2-0.5,0.3-1,0.5-1.5c0.2-0.8-0.3-1.6-1-1.8c-0.8-0.2-1.6,0.3-1.8,1c-0.2,0.5-0.3,1-0.5,1.5
				c-0.2,0.8,0.3,1.6,1,1.8C247.6,230.8,248.4,230.3,248.7,229.6L248.7,229.6z"/>
		</g>
	</g>
	<g>
		<defs>
			<polygon id="SVGID_25_" points="200.6,58.7 157.9,58.7 151,21 206.5,21 			"/>
		</defs>
		<clipPath id="SVGID_26_">
			<use xlink:href="#SVGID_25_"  style="overflow:visible;"/>
		</clipPath>
		<circle class="st25" cx="178.8" cy="178.6" r="142.7"/>
	</g>
	<g>
		<defs>
			<polygon id="SVGID_27_" points="307.6,285.7 272.9,256.9 285.8,217.3 331.4,234.1 			"/>
		</defs>
		<clipPath id="SVGID_28_">
			<use xlink:href="#SVGID_27_"  style="overflow:visible;"/>
		</clipPath>
		<circle class="st26" cx="178.8" cy="178.6" r="142.7"/>
	</g>
	<g>
		<defs>
			<polygon id="SVGID_29_" points="86.6,256.9 49.9,286.6 28.1,233.1 63.8,220.2 			"/>
		</defs>
		<clipPath id="SVGID_30_">
			<use xlink:href="#SVGID_29_"  style="overflow:visible;"/>
		</clipPath>
		<circle class="st27" cx="178.8" cy="178.6" r="142.7"/>
	</g>
</g>
<g id="Layer_2" class="st28">
	<g class="st29">
		<line class="st30" x1="178.6" y1="-0.3" x2="178.6" y2="357.7"/>
	</g>
	<g class="st29">
		<line class="st30" x1="194.2" y1="0.4" x2="163" y2="357"/>
	</g>
	<g class="st29">
		<line class="st30" x1="209.7" y1="2.4" x2="147.6" y2="355"/>
	</g>
	<g class="st29">
		<line class="st30" x1="225" y1="5.8" x2="132.3" y2="351.6"/>
	</g>
	<g class="st29">
		<line class="st30" x1="239.9" y1="10.5" x2="117.4" y2="346.9"/>
	</g>
	<g class="st29">
		<line class="st30" x1="254.3" y1="16.5" x2="103" y2="341"/>
	</g>
	<g class="st29">
		<line class="st30" x1="268.1" y1="23.7" x2="89.1" y2="333.7"/>
	</g>
	<g class="st29">
		<line class="st30" x1="281.3" y1="32.1" x2="76" y2="325.4"/>
	</g>
	<g class="st29">
		<line class="st30" x1="293.7" y1="41.6" x2="63.6" y2="315.8"/>
	</g>
	<g class="st29">
		<line class="st30" x1="305.2" y1="52.2" x2="52.1" y2="305.3"/>
	</g>
	<g class="st29">
		<line class="st30" x1="315.8" y1="63.7" x2="41.5" y2="293.8"/>
	</g>
	<g class="st29">
		<line class="st30" x1="325.3" y1="76.1" x2="32" y2="281.4"/>
	</g>
	<g class="st29">
		<line class="st30" x1="333.7" y1="89.2" x2="23.6" y2="268.2"/>
	</g>
	<g class="st29">
		<line class="st30" x1="340.9" y1="103.1" x2="16.4" y2="254.4"/>
	</g>
	<g class="st29">
		<line class="st30" x1="346.8" y1="117.5" x2="10.4" y2="239.9"/>
	</g>
	<g class="st29">
		<line class="st30" x1="351.5" y1="132.4" x2="5.7" y2="225.1"/>
	</g>
	<g class="st29">
		<line class="st30" x1="354.9" y1="147.6" x2="2.4" y2="209.8"/>
	</g>
	<g class="st29">
		<line class="st30" x1="357" y1="163.1" x2="0.3" y2="194.3"/>
	</g>
	<g class="st29">
		<line class="st30" x1="357.6" y1="178.7" x2="-0.4" y2="178.7"/>
	</g>
	<g class="st29">
		<line class="st30" x1="357" y1="194.3" x2="0.3" y2="163.1"/>
	</g>
	<g class="st29">
		<line class="st30" x1="354.9" y1="209.8" x2="2.4" y2="147.6"/>
	</g>
	<g class="st29">
		<line class="st30" x1="351.5" y1="225.1" x2="5.7" y2="132.4"/>
	</g>
	<g class="st29">
		<line class="st30" x1="346.8" y1="239.9" x2="10.4" y2="117.5"/>
	</g>
	<g class="st29">
		<line class="st30" x1="340.9" y1="254.4" x2="16.4" y2="103.1"/>
	</g>
	<g class="st29">
		<line class="st30" x1="333.7" y1="268.2" x2="23.6" y2="89.2"/>
	</g>
	<g class="st29">
		<line class="st30" x1="325.3" y1="281.4" x2="32" y2="76.1"/>
	</g>
	<g class="st29">
		<line class="st30" x1="315.8" y1="293.8" x2="41.5" y2="63.7"/>
	</g>
	<g class="st29">
		<line class="st30" x1="305.2" y1="305.3" x2="52.1" y2="52.2"/>
	</g>
	<g class="st29">
		<line class="st30" x1="293.7" y1="315.8" x2="63.6" y2="41.6"/>
	</g>
	<g class="st29">
		<line class="st30" x1="281.3" y1="325.4" x2="76" y2="32.1"/>
	</g>
	<g class="st29">
		<line class="st30" x1="268.1" y1="333.7" x2="89.1" y2="23.7"/>
	</g>
	<g class="st29">
		<line class="st30" x1="254.3" y1="341" x2="103" y2="16.5"/>
	</g>
	<g class="st29">
		<line class="st30" x1="239.9" y1="346.9" x2="117.4" y2="10.5"/>
	</g>
	<g class="st29">
		<line class="st30" x1="225" y1="351.6" x2="132.3" y2="5.8"/>
	</g>
	<g class="st29">
		<line class="st30" x1="209.7" y1="355" x2="147.6" y2="2.4"/>
	</g>
	<g class="st29">
		<line class="st30" x1="194.2" y1="357" x2="163" y2="0.4"/>
	</g>
	<g class="st29">
		<line class="st30" x1="178.6" y1="357.7" x2="178.6" y2="-0.3"/>
	</g>
	<g class="st29">
		<line class="st30" x1="-0.4" y1="178.7" x2="357.6" y2="178.7"/>
	</g>
	<g class="st29">
		<line class="st30" x1="52.1" y1="52.2" x2="305.2" y2="305.3"/>
	</g>
	<g class="st29">
		<line class="st30" x1="305.2" y1="52.2" x2="52.1" y2="305.3"/>
	</g>
	<g class="st29">
		<line class="st30" x1="-0.4" y1="178.7" x2="357.6" y2="178.7"/>
	</g>
	<circle class="st31" cx="179.3" cy="179" r="144"/>
</g>
</svg>
