<svg id="Layer_1" data-name="Layer 1" xmlns="http://www.w3.org/2000/svg" xmlns:xlink="http://www.w3.org/1999/xlink" viewBox="0 0 352.26 352.26"><defs><style>.cls-1,.cls-12,.cls-17,.cls-18,.cls-19,.cls-21,.cls-22,.cls-24,.cls-27,.cls-7,.cls-8{fill:none;}.cls-2{fill:#fff;opacity:0.41;}.cls-3{opacity:0.65;}.cls-4{fill:#b5bf30;opacity:0.26;}.cls-5{fill:#cad3bd;}.cls-6{fill:#b6cfd8;}.cls-27,.cls-7,.cls-8{stroke:#000;}.cls-12,.cls-17,.cls-19,.cls-21,.cls-22,.cls-24,.cls-27,.cls-7,.cls-8{stroke-miterlimit:10;}.cls-7{stroke-width:1.87px;}.cls-8{stroke-width:1.97px;}.cls-9{fill:#231f20;}.cls-10{fill:#fff5ec;}.cls-11{clip-path:url(#clip-path);}.cls-12{stroke:#fff5ec;stroke-width:1.3px;}.cls-13{clip-path:url(#clip-path-2);}.cls-14{fill:#1d1d1b;}.cls-15{clip-path:url(#clip-path-4);}.cls-16{clip-path:url(#clip-path-6);}.cls-17,.cls-18,.cls-19,.cls-21,.cls-22,.cls-24{stroke:#1d1d1b;}.cls-17{stroke-width:0.38px;stroke-dasharray:3.9 7.8;}.cls-18{stroke-linejoin:bevel;stroke-width:0.34px;}.cls-19{stroke-width:0.17px;}.cls-20{clip-path:url(#clip-path-8);}.cls-21{stroke-width:0.41px;}.cls-22{stroke-width:0.73px;}.cls-23{clip-path:url(#clip-path-10);}.cls-24{stroke-width:0.36px;}.cls-25{clip-path:url(#clip-path-11);}.cls-26{clip-path:url(#clip-path-13);}.cls-27{stroke-width:0.99px;}.cls-28{clip-path:url(#clip-path-14);}.cls-29{clip-path:url(#clip-path-15);}</style><clipPath id="clip-path" transform="translate(-2.11 -3.19)"><polygon class="cls-1" points="269.4 179.63 175.75 163.09 82.36 182.25 82.36 150.7 177.68 188.2 269.4 151.76 269.4 179.63"/></clipPath><clipPath id="clip-path-2" transform="translate(-2.11 -3.19)"><rect class="cls-1" x="16.95" y="138.94" width="44.35" height="44.34" transform="translate(-125.04 184.33) rotate(-84.4)"/></clipPath><clipPath id="clip-path-4" transform="translate(-2.11 -3.19)"><path class="cls-1" d="M38.81,167.46c.26.52.92.35,1.06.91.27,1.12.12.58.41,1.69s.3,3.13,1.24,3.62c3.11,1.6,12.32,1.47,12.63,1.32L56,158.85,45.23,157.7c-1.76-.23-2.67.49-3.4,2.12-.39.88-.4,1.38-.79,2.26a7.27,7.27,0,0,1-.62,1.55c-.17.22-.61.39-.62.94,0,.12,0,.51.65,0,.34-.29-.22.57-.77,1.43a10.28,10.28,0,0,0-.87,1.47v0"/></clipPath><clipPath id="clip-path-6" transform="translate(-2.11 -3.19)"><rect class="cls-1" x="225.83" y="278.84" width="44.8" height="44.8" transform="translate(-123.82 183.17) rotate(-32.9)"/></clipPath><clipPath id="clip-path-8" transform="translate(-2.11 -3.19)"><rect class="cls-1" x="210.55" y="24.09" width="53.06" height="53.06" transform="translate(86.22 240.39) rotate(-63.57)"/></clipPath><clipPath id="clip-path-10" transform="translate(-2.11 -3.19)"><path class="cls-1" d="M237.23,56.87c7.41,4.62,13.7.25,14.37-3.2-6-.52-11.91,1.52-14.37,3.2"/></clipPath><clipPath id="clip-path-11" transform="translate(-2.11 -3.19)"><path class="cls-1" d="M231.12,33.76a6.26,6.26,0,0,0-2.69-.16s1.79,2.94,4.2,7.64,3.06,11.36,3.06,11.36,1.25,0,2.67-3.25.8-6-.54-9.06-5.66-6-6.65-6.51l0,0"/></clipPath><clipPath id="clip-path-13" transform="translate(-2.11 -3.19)"><polygon class="cls-1" points="199.53 60.38 157.16 60.38 150.26 22.93 205.44 22.93 199.53 60.38"/></clipPath><clipPath id="clip-path-14" transform="translate(-2.11 -3.19)"><polygon class="cls-1" points="305.96 286.05 271.47 257.47 284.28 218.05 329.61 234.8 305.96 286.05"/></clipPath><clipPath id="clip-path-15" transform="translate(-2.11 -3.19)"><polygon class="cls-1" points="86.21 257.47 49.74 287.03 28.07 233.82 63.54 221.01 86.21 257.47"/></clipPath></defs><title>Sustainabilitymark_DE</title><circle class="cls-2" cx="176.04" cy="176.13" r="175.2"/><g class="cls-3"><path class="cls-4" d="M26.09,267.32l63.75-38.21c-27.62-49.2-9.15-111.15,38.79-138C149.57,79.3,178.24,77.8,178.24,77.8l.89-73.55S137,1.7,92.5,26.7C8.25,74-21.73,182.14,26.09,267.32Z" transform="translate(-2.11 -3.19)"/><path class="cls-5" d="M178.23,4.12v73.8c56.43,0,101.4,46.43,101.4,101.4,0,24-12.72,49.75-12.72,49.75l63.7,36.78s22.83-35.46,22.83-86.53A174.71,174.71,0,0,0,178.23,4.12Z" transform="translate(-2.11 -3.19)"/><path class="cls-6" d="M330.77,266.38l-63.56-37.53c-28.53,49.14-92.3,67.25-141.27,37.77C105.19,254.12,89,229.55,89,229.55l-62.9,37.77s18.16,36.76,62.69,62.62C173,378.85,280.43,352.6,330.77,266.38Z" transform="translate(-2.11 -3.19)"/></g><circle class="cls-7" cx="176.13" cy="176.13" r="175.2"/><path d="M44.9,134.94l-.11,0a4.78,4.78,0,0,1-3-6.34c.72-2,2.26-3.42,4.57-2.86l-.62,1.72A2.14,2.14,0,0,0,43.11,129c-.66,1.81.31,3.35,2.34,4.09l.11,0c2,.72,3.68.29,4.38-1.66a2.4,2.4,0,0,0-1.43-3.35l-.84,2.34-1.3-.47,1.46-4,.86.31c2.57.93,3.54,3.1,2.59,5.72C50.21,135,47.63,135.93,44.9,134.94Z" transform="translate(-2.11 -3.19)"/><path d="M45.69,119.14l2.63-5.58,1.31.62-1.85,3.92,2.45,1.15,1.48-3.14,1.25.59-1.48,3.14,2.61,1.23L56,116.94l1.31.62-2.73,5.79Z" transform="translate(-2.11 -3.19)"/><path d="M56.6,112.36l.89-1.53c.92.39,1.84.46,2.68-1a1.65,1.65,0,0,0-.38-2.38c-.79-.45-1.31-.23-2.35,1C56,110.37,54.8,111,53.2,110c-1.39-.81-1.75-2.61-.72-4.39S55,103.2,56.76,104l-.85,1.45a1.65,1.65,0,0,0-2.23.91c-.57,1-.39,1.73.26,2.11s1.21.32,2.28-1c1.44-1.85,2.62-2.55,4.33-1.56,1.48.86,1.9,2.79.81,4.67C60,112.87,58.28,113.17,56.6,112.36Z" transform="translate(-2.11 -3.19)"/><path d="M57.63,97.59l3.55-5,1.18.83-2.49,3.54,2.22,1.56,2-2.85,1.12.8-2,2.84,2.36,1.66,2.62-3.74,1.19.84-3.68,5.24Z" transform="translate(-2.11 -3.19)"/><path d="M64.7,88l1.17-1.41,6.46,5.37L75,88.71l1.13.93-3.87,4.65Z" transform="translate(-2.11 -3.19)"/><path d="M72.22,79.32,73.5,78l6,5.86,2.94-3,1,1-4.22,4.33Z" transform="translate(-2.11 -3.19)"/><path d="M84.31,76.89l1.33-1.16c.75.66,1.59,1,2.85-.08a1.62,1.62,0,0,0,.4-2.36c-.6-.69-1.17-.65-2.55.21-2,1.31-3.29,1.51-4.51.12-1.06-1.22-.82-3,.72-4.39s3.19-1.51,4.58-.22l-1.26,1.11a1.65,1.65,0,0,0-2.41.15c-.84.73-.92,1.52-.42,2.09s1,.68,2.49-.26c2-1.28,3.29-1.58,4.59-.09,1.13,1.28.92,3.24-.72,4.68C87.38,78.46,85.64,78.2,84.31,76.89Z" transform="translate(-2.11 -3.19)"/><path d="M92.52,67.57l-.07-.09a4.75,4.75,0,0,1,.93-6.89c1.84-1.32,3.92-1.43,5.46.32L97.33,62a2.12,2.12,0,0,0-3.08-.23c-1.41,1-1.53,2.78-.24,4.57l.06.09c1.31,1.8,2.93,2.24,4.41,1.17a2.3,2.3,0,0,0,.83-3.17l1.45-1.05c1.16,2.1.5,4.06-1.41,5.43C96.85,70.62,94.29,70,92.52,67.57Z" transform="translate(-2.11 -3.19)"/><path d="M101.7,55.16l1.59-.92,2.11,3.62,3.82-2.22L107.12,52l1.6-.92,5,8.52-1.6.93L110,56.92l-3.83,2.22,2.11,3.63-1.59.92Z" transform="translate(-2.11 -3.19)"/><path d="M116.6,47.16l2.18-1,7.06,7.61-1.73.79-1.73-1.89L119,54.24l.32,2.54-1.57.72Zm2.19,5.69,2.64-1.21-3.22-3.56Z" transform="translate(-2.11 -3.19)"/><path d="M126.81,42.84l5.76-2.05.49,1.38-4,1.43,1,2.77,3.17-1.12.48,1.34-3.18,1.12,1.36,3.81-1.73.61Z" transform="translate(-2.11 -3.19)"/><path d="M140.14,40.07l-2.65.7-.38-1.4,7.1-1.88.37,1.4-2.65.7,2.16,8.14-1.79.48Z" transform="translate(-2.11 -3.19)"/><path d="M292.92,100l5.1-3.37,1,1.55-5,3.29c-1.51,1-1.81,1.89-1,3.11s1.71,1.44,3.42.31l4.88-3.23,1,1.55-5,3.31c-2.15,1.42-4.11,1-5.55-1.14S290.8,101.41,292.92,100Z" transform="translate(-2.11 -3.19)"/><path d="M306,109.25l1.13,2.19-4.81,5.38,7.15-.82,1.11,2.17-8.79,4.5-.83-1.64,6.63-3.4-8,.79-.27-.53,5.26-6.06-6.63,3.4-.76-1.48Z" transform="translate(-2.11 -3.19)"/><path d="M313.17,124l.65,1.76-6.2,4.11,7.46-.71.52,1.43L309.45,135l7.44-.87.59,1.61-10.1,1.09-.64-1.72,6.07-4.31-7.43.61-.61-1.64Z" transform="translate(-2.11 -3.19)"/><path d="M319.2,141.76l1.52,6-1.41.36-1.06-4.2-2.62.67.85,3.37-1.34.34-.85-3.37-2.8.71,1.13,4.42-1.41.36-1.57-6.21Z" transform="translate(-2.11 -3.19)"/><path d="M322,154.15l.29,1.81L314,157.33l.69,4.15-1.45.24-1-6Z" transform="translate(-2.11 -3.19)"/><path d="M322.36,167.21l-.24-2.73,1.45-.13.62,7.32-1.44.12-.24-2.73-8.39.71-.15-1.84Z" transform="translate(-2.11 -3.19)"/><path d="M85.54,281.62l1.45,1.2-3.29,6.67,6.09-4.36,1.17,1L87.83,293l6-4.49,1.32,1.09-8.19,6-1.41-1.17,3.07-6.78-6.11,4.27-1.36-1.12Z" transform="translate(-2.11 -3.19)"/><path d="M99.45,292.5l1.53,1.05-5.58,8.13-1.52-1Z" transform="translate(-2.11 -3.19)"/><path d="M106.05,296.85l2.86,1.66c1.88,1.09,2.75,2.61,1.74,4.36l0,0a2.6,2.6,0,0,1-3.23,1.2l.27,5.08-1.72-1-.24-4.74-1-.59-2,3.45-1.59-.92Zm.57,5.61c1.07.62,1.89.49,2.42-.42l0-.05c.57-1,.16-1.66-.86-2.25l-1.28-.74-1.57,2.72Z" transform="translate(-2.11 -3.19)"/><path d="M118.17,305l-2.49-1.16.62-1.31,6.64,3.11-.62,1.31-2.48-1.16-3.57,7.62-1.67-.79Z" transform="translate(-2.11 -3.19)"/><path d="M124.67,313.77l1.66.61c-.23,1-.14,1.89,1.43,2.47a1.64,1.64,0,0,0,2.27-.79c.31-.85,0-1.33-1.41-2.13-2.1-1.11-2.9-2.17-2.27-3.9.56-1.52,2.27-2.18,4.2-1.47s2.85,2.07,2.38,3.91l-1.58-.58a1.64,1.64,0,0,0-1.27-2c-1.05-.38-1.78-.08-2,.63s-.11,1.25,1.41,2.07c2.07,1.09,3,2.13,2.29,4-.59,1.61-2.41,2.36-4.46,1.61C124.76,317.21,124.16,315.57,124.67,313.77Z" transform="translate(-2.11 -3.19)"/><path d="M137.51,316.33l0-.1a4.75,4.75,0,0,1,5.92-3.65c2.19.58,3.59,2.12,3.21,4.42l-1.8-.48a2.1,2.1,0,0,0-1.77-2.52c-1.68-.45-3.12.57-3.68,2.71l0,.1c-.57,2.15.12,3.69,1.88,4.16a2.31,2.31,0,0,0,3-1.37l1.73.46c-.89,2.22-2.82,2.95-5.09,2.35C137.89,321.62,136.73,319.27,137.51,316.33Z" transform="translate(-2.11 -3.19)"/><path d="M152.65,314.88l1.81.3-.67,4.14,4.37.7.67-4.14,1.83.3-1.58,9.74-1.82-.3.67-4.14-4.38-.71-.67,4.14-1.81-.29Z" transform="translate(-2.11 -3.19)"/><path d="M169,317l2.4.15,2.63,10-1.9-.12-.64-2.48-3.75-.24-.93,2.39-1.72-.11Zm-.75,6,2.9.18L170,318.56Z" transform="translate(-2.11 -3.19)"/><path d="M179.87,317.35l6.11-.17,0,1.47-4.27.11.08,2.94,3.36-.09,0,1.42-3.36.09.11,4-1.84,0Z" transform="translate(-2.11 -3.19)"/><path d="M193.44,318l-2.72.3-.16-1.44,7.29-.81.16,1.44-2.73.3.93,8.36-1.83.21Z" transform="translate(-2.11 -3.19)"/><line class="cls-8" x1="176.13" y1="0.92" x2="176.13" y2="69.16"/><line class="cls-8" x1="81.14" y1="230.63" x2="23.99" y2="264.13"/><line class="cls-8" x1="269.67" y1="228.61" x2="328.5" y2="262.66"/><path class="cls-9" d="M178.24,71.19A109.14,109.14,0,1,0,287.38,180.33,109.14,109.14,0,0,0,178.24,71.19Zm0,174.15a65,65,0,1,1,65-65A65,65,0,0,1,178.24,245.34Z" transform="translate(-2.11 -3.19)"/><path class="cls-9" d="M195.29,178.94a6.7,6.7,0,0,1,.61,2.91,10.57,10.57,0,0,0-1.94-2.54c-.94.27-1.92.53-2.94.77-.8.21-2.46.66-4.17,1.15a8.57,8.57,0,0,1,.91,1,14.87,14.87,0,0,1,2.14,3.71A20.22,20.22,0,0,0,184,182c-1.4.41-2.44.68-2.44.68q-2.09.6-4.29,1.41a19,19,0,0,1,3.89,3.1,26.69,26.69,0,0,1,2.84,3.45c-2.31-1.56-7.16-4-11.32-4.33a37,37,0,0,0-5.1,3.68c2.66.79,5.65,2.44,9.1,5.86.57.55,1.16,1.16,1.75,1.83a30.48,30.48,0,0,0-14.88-3.61,39.92,39.92,0,0,0-4.25,5.87c3.44-.23,7.79.57,13.51,4,.78.47,1.58,1,2.4,1.55-4.73-1.57-14-1.89-18.54.17a24.8,24.8,0,0,0-.85,6.43c9.11-1.73,14.37-.14,20,1.42,2.92-23.48,17.48-26.45,32.34-39.22h0A84.75,84.75,0,0,1,195.29,178.94Z" transform="translate(-2.11 -3.19)"/><path class="cls-9" d="M178.24,117.44a62.89,62.89,0,1,0,62.88,62.89A62.88,62.88,0,0,0,178.24,117.44Zm-.07,118.28c-1,0-2,0-2.95-.09l-1.71-.28c-14.31-2.18-20-11.16-21.3-18.88-1.67-10,2.27-15.51,4.51-18.91,7.12-10.46,16.82-15.05,25.2-17.36,0,0,7.49-2.1,9.5-2.62,9.6-2.36,15.81-4.83,18.66-6.44a18.63,18.63,0,0,0,7.09-7,14.32,14.32,0,0,0,2-8.43c-.6-5.65-4.7-8.55-8.45-8.81-.36,0-.7,0-1.06,0a8,8,0,0,0-4,1.28,6.58,6.58,0,0,0-2.44,3,4.89,4.89,0,0,0-.41,1.92v0a5,5,0,0,0,9.95,0,5.07,5.07,0,0,0-.47-2.13,5.06,5.06,0,0,1,2.32,3.63,8.8,8.8,0,0,1,.09,1.9,8.66,8.66,0,0,1-.24,1.57c-.52,1.8-1.56,3.43-4.56,4.48a31.45,31.45,0,0,1-3.76.84,7.75,7.75,0,0,1-1.71,4.89,6,6,0,0,1-.79.82,9.73,9.73,0,0,0,.25-5.37c-1.6.19-3.26.32-5,.45a8.88,8.88,0,0,1-1.43,6.32,6.55,6.55,0,0,1-.84,1.05,12,12,0,0,0-.57-7.22l-5.07.25a10.23,10.23,0,0,1-1.24,7.89,8.75,8.75,0,0,1-.91,1.25,13.83,13.83,0,0,0-1.34-9c-1.88.11-3.82.25-5.77.42a12.33,12.33,0,0,1-.57,8.59,9.51,9.51,0,0,1-.88,1.6h0a16.17,16.17,0,0,0-2.56-9.76c-2.14.28-4.31.62-6.49,1.08a15,15,0,0,1,1.49,9.55,10.87,10.87,0,0,1-.5,2A19.58,19.58,0,0,0,167,167.75a52.9,52.9,0,0,0-7,2.39,15.33,15.33,0,0,1,4.14,9.45,12.24,12.24,0,0,1,0,2.18c-1.6-4.17-5.41-7.72-8.67-9.56a49.41,49.41,0,0,0-6.1,3.71,16,16,0,0,1,6.81,8.74,20.51,20.51,0,0,1,.73,2.81,23.26,23.26,0,0,0-11.69-8.2,51.45,51.45,0,0,0-5.19,5.31c3.73,2,8.67,6.15,10.7,11.34v0c-3.53-3.42-10.11-5.46-14.84-5.83a51.64,51.64,0,0,0-3.69,6.63c7.05,1.89,10.53,4.28,12.25,6.19v0a3.71,3.71,0,0,1,1.1,3.26c-.22,1-.39,2.07-.54,3.07-1,6.76-.46,12.07,1.06,16.27a55.61,55.61,0,1,1,32,10.17Z" transform="translate(-2.11 -3.19)"/><path class="cls-10" d="M103.39,148.56a1.38,1.38,0,0,1-.79-1.89,1.35,1.35,0,0,1,1.77-.73,1.63,1.63,0,0,1,.63.51,3.58,3.58,0,0,0,1.39-1.61c.62-1.28.45-2.37-.57-2.86s-1.89.29-2.86,1.26c-1.83,1.79-3.26,3-5.43,1.94-1.87-.9-2.6-3.11-1.46-5.48,1.06-2.18,3-3.33,4.4-2.65a1.32,1.32,0,0,1,.74,1.82,1.35,1.35,0,0,1-1.81.71,1.22,1.22,0,0,1-.49-.39,3.19,3.19,0,0,0-1.1,1.37c-.56,1.16-.3,2.12.55,2.53s1.86-.31,2.85-1.28c1.76-1.74,3.26-3,5.42-1.92s2.66,3.41,1.5,5.81S104.81,149.25,103.39,148.56Z" transform="translate(-2.11 -3.19)"/><path class="cls-10" d="M109.13,139l.84-1.33-7.6-4.81-.85,1.33-1.68-1.06,2.88-4.55,1.68,1.06-.84,1.33,7.6,4.81.85-1.33,1.68,1.07-2.88,4.55Z" transform="translate(-2.11 -3.19)"/><path class="cls-10" d="M112.91,133l.93-1.15-7-5.64-.93,1.15-1.56-1.25,3.41-4.23,1.55,1.25-1.08,1.34,7,5.65,2.24-2.78-1.43-1.15,1.35-1.68,3,2.39-5.92,7.35Z" transform="translate(-2.11 -3.19)"/><path class="cls-10" d="M113.41,118.21l-.86.81-1.36-1.45,3.73-3.51,1.37,1.45-1,.94,6.91,3.27-2.83-7.11-1,1L117,112.15l3.74-3.51,1.36,1.45-.87.81,4.18,11.33-.92.87Z" transform="translate(-2.11 -3.19)"/><path class="cls-10" d="M129.23,116l1.22-.83-5-7.45-1.22.83-1.12-1.65,8-5.44,2.08,3.07-1.76,1.2-1-1.44-3.18,2.16,2,2.88,3.25-2.21,1.06,1.57-3.25,2.2,2.06,3,3.2-2.17-1-1.44,1.76-1.19,2.08,3.07-8,5.44Z" transform="translate(-2.11 -3.19)"/><path class="cls-10" d="M138.85,109.57l1.34-.63-3.88-8.12-1.34.64-.86-1.79,4.54-2.18c2.68-1.28,5.16-1,6.3,1.34a3.77,3.77,0,0,1-.68,4.24l3.32,2.32,1.33-.64.86,1.8-2.7,1.29-4.48-3.32c-.24.14-.46.27-.69.38-.38.18-.71.34-1,.44L142.2,108l1.46-.7.86,1.8-4.81,2.3Zm4.05-9.67c-.59-1.23-1.88-1.33-3.5-.56l-1.09.52,1.8,3.75c.22-.08.52-.2,1.16-.5C142.78,102.38,143.49,101.12,142.9,99.9Z" transform="translate(-2.11 -3.19)"/><path class="cls-10" d="M154.58,102.84l1.44-.35-2.13-8.74-1.44.35L152,92.16l9.29-2.26.88,3.6-2.07.51-.41-1.69-3.62.88.88,3.61,3.71-.91.46,1.86-3.72.91.8,3.29,1.67-.4.47,1.93-5.27,1.29Z" transform="translate(-2.11 -3.19)"/><path class="cls-10" d="M165.51,100.29l1.47-.15-.86-9-1.47.14-.19-2,9.64-.93.35,3.69-2.12.21-.16-1.73-3.83.37.33,3.45,3.91-.37.18,1.88-3.91.38.35,3.65,3.85-.37-.17-1.73,2.13-.2.35,3.69-9.66.93Z" transform="translate(-2.11 -3.19)"/><path class="cls-10" d="M177,99.32l1.48.06.39-9-1.48-.07.09-2,5,.22c3,.13,5.05,1.5,4.93,4.15a3.75,3.75,0,0,1-2.6,3.42l1.84,3.61,1.48.07-.09,2-3-.13-2.39-5c-.28,0-.54,0-.79,0-.42,0-.79,0-1.07-.07l-.12,2.92,1.61.07-.08,2-5.33-.23Zm8.13-6.64c.06-1.36-1-2.05-2.83-2.13l-1.2-.06-.18,4.16c.23,0,.55.07,1.26.1C183.84,94.82,185.06,94,185.12,92.68Z" transform="translate(-2.11 -3.19)"/><path class="cls-10" d="M194.55,94l-1.53,6.8,1.58.35-.44,1.95L189,101.91l.44-2,1.44.33,2-8.78-1.44-.32.44-2,3.29.75,4.44,9.35,1.36-6L199.39,93l.44-1.94,5.08,1.14-.44,1.95-1.38-.32-2.43,10.75-1.18-.23Z" transform="translate(-2.11 -3.19)"/><path class="cls-10" d="M208.25,105.13l1.34.64,3.87-8.12L212.13,97l.85-1.8,8.64,4.12-1.6,3.35-1.92-.92.75-1.57-3.37-1.6-1.6,3.35,3.46,1.64-.82,1.73-3.46-1.65-1.46,3.07,1.55.74-.86,1.79-4.89-2.33Z" transform="translate(-2.11 -3.19)"/><path class="cls-10" d="M216.79,109l.94.62,7.67-5.73-1.18-.78,1.09-1.65,6.12,4.06-1.09,1.64-1.19-.78-2.28,9.3.94.62-1.1,1.66-4.16-2.75,1.09-1.65,1.25.83.57-2.18-4.05-2.68-1.79,1.37,1.32.88-1.09,1.64-4.16-2.76Zm9.18,1.33,1.31-5.26-4.34,3.25Z" transform="translate(-2.11 -3.19)"/><path class="cls-10" d="M228.69,117.16l1.09,1,6.13-6.58-1.09-1,1.36-1.46,3.68,3.43c2.18,2,2.87,4.42,1.07,6.35a3.76,3.76,0,0,1-4.2.92l-.95,4,1.09,1-1.36,1.46-2.2-2,1.46-5.39a7.83,7.83,0,0,1-.61-.51c-.3-.28-.57-.53-.76-.74l-2,2.14,1.18,1.1-1.36,1.46-3.89-3.63Zm10.49.23c.93-1,.55-2.24-.76-3.46l-.88-.82-2.84,3a12.39,12.39,0,0,0,.9.89C236.83,118.19,238.26,118.39,239.18,117.39Z" transform="translate(-2.11 -3.19)"/><path class="cls-10" d="M237.77,125.49l.92,1.23,7.46-5-1-1.3,1.6-1.19,2.12,2.85-3.43,7.51,8.17-1.11,2.11,2.84-1.6,1.19-1-1.3-7,5.69.91,1.24-1.6,1.18L242.36,135l1.6-1.18.93,1.25,5.22-4.19-7.44.9-.18-.24,3-6.85L240,128.48l.93,1.25-1.6,1.19-3.15-4.24Z" transform="translate(-2.11 -3.19)"/><path class="cls-10" d="M248.3,139a1.38,1.38,0,0,1,2,.52,1.35,1.35,0,0,1-.51,1.85,1.66,1.66,0,0,1-.78.19,3.58,3.58,0,0,0,.42,2.08c.64,1.27,1.61,1.8,2.62,1.29s.92-1.67.74-3c-.3-2.54-.38-4.4,1.77-5.48,1.85-.93,4.05-.16,5.23,2.18,1.09,2.17.82,4.4-.57,5.1a1.31,1.31,0,0,1-1.9-.52,1.34,1.34,0,0,1,.54-1.86,1.12,1.12,0,0,1,.61-.16,3.18,3.18,0,0,0-.42-1.71c-.57-1.14-1.49-1.52-2.34-1.09s-.88,1.66-.72,3c.3,2.45.37,4.39-1.78,5.47s-4.32,0-5.51-2.36S246.89,139.74,248.3,139Z" transform="translate(-2.11 -3.19)"/><path class="cls-10" d="M89.84,184.14l3.74-.32-.07-.85,1.19-.1L95,186l-1.19.11-.08-.94-3.66.32c-1.19.1-1.78.76-1.69,1.75s.71,1.55,1.91,1.45l3.72-.32-.08-.93,1.19-.1.26,3.07-1.19.1-.07-.84-3.71.31a2.92,2.92,0,1,1-.53-5.82Z" transform="translate(-2.11 -3.19)"/><path class="cls-10" d="M93.46,193.74l-4.1.77.18,1-1.17.22-.59-3.1,1.17-.23.17.88,5.3-1-.17-.87,1.18-.22.37,2-4.08,4.67,3.62-.69-.18-1,1.17-.22.59,3.07-1.18.22-.16-.84-6.48,1.23-.16-.71Z" transform="translate(-2.11 -3.19)"/><path class="cls-10" d="M91.28,201.49a.84.84,0,1,1,.61,1.56,1,1,0,0,1-.48,0,2.15,2.15,0,0,0,0,1.28c.23.82.75,1.23,1.39,1.05s.73-.89.78-1.71c.1-1.53.26-2.64,1.65-3a2.33,2.33,0,0,1,2.84,1.87c.4,1.4,0,2.68-.91,2.94a.8.8,0,0,1-1.06-.52.82.82,0,0,1,.53-1,.73.73,0,0,1,.38,0,2.06,2.06,0,0,0-.06-1c-.21-.74-.71-1.06-1.26-.91s-.7.88-.76,1.71c-.09,1.48-.27,2.62-1.66,3s-2.54-.46-3-2S90.37,201.75,91.28,201.49Z" transform="translate(-2.11 -3.19)"/><path class="cls-10" d="M92.84,208.43l.31.83,5-1.9-.31-.83,1.12-.42,2,5.43-2.07.79-.45-1.2,1-.36-.81-2.16-2,.73.83,2.2-1.06.4-.83-2.2-2.06.78.82,2.17,1-.37.45,1.19-2.08.79-2-5.44Z" transform="translate(-2.11 -3.19)"/><path class="cls-10" d="M95.51,215.36l.38.8,4.86-2.32-.38-.8,1.08-.52,1.3,2.72c.77,1.61.63,3.1-.8,3.78a2.25,2.25,0,0,1-2.54-.41l-1.4,2,.38.8-1.07.51-.78-1.62,2-2.68a4.36,4.36,0,0,1-.23-.42,6.34,6.34,0,0,1-.26-.58l-1.58.76.42.87-1.08.52-1.38-2.88Zm5.8,2.43c.73-.35.8-1.13.33-2.1l-.31-.65-2.25,1.08a7,7,0,0,0,.31.69C99.82,217.72,100.57,218.14,101.31,217.79Z" transform="translate(-2.11 -3.19)"/><path class="cls-10" d="M99,222.47l.45.76,4.65-2.73-.45-.77,1-.6,2.94,5-1.91,1.13-.65-1.1.89-.53-1.17-2L103,222.7l1.2,2-1,.57-1.2-2-1.89,1.11,1.18,2,.89-.53.65,1.1-1.91,1.13-3-5Z" transform="translate(-2.11 -3.19)"/><path class="cls-10" d="M109.14,230.56l-3.3,2.55.59.77-1,.73-1.93-2.5,1-.73.54.71,4.27-3.3-.55-.71.95-.73L111,229l-1.53,6,2.92-2.25-.59-.77,1-.73,1.91,2.47-1,.73-.52-.67-5.22,4-.46-.56Z" transform="translate(-2.11 -3.19)"/><path class="cls-10" d="M110.15,238.58l.46.49,5.26-2.32-.59-.61.86-.82,3,3.19-.86.81-.58-.61-2.58,5.13.46.49-.87.82L112.68,243l.86-.82.62.66.62-1.2-2-2.11-1.23.56.65.69-.85.81-2.07-2.17Zm5.19,2,1.47-2.9-3,1.32Z" transform="translate(-2.11 -3.19)"/><path class="cls-10" d="M118.19,243.05a4,4,0,0,1,5.74-.36c1.37,1.19,1.66,2.69,1,3.4a.87.87,0,0,1-1.27.16.82.82,0,0,1-.13-1.22.9.9,0,0,1,.33-.25,2.31,2.31,0,0,0-.81-1.18,2.8,2.8,0,0,0-3.62,4.26,3,3,0,0,0,2.36.69l.07,1.28a4.18,4.18,0,0,1-3.24-1A3.87,3.87,0,0,1,118.19,243.05Z" transform="translate(-2.11 -3.19)"/><path class="cls-10" d="M123.15,250.84l.73.51,3.1-4.41-.73-.51.69-1,2.61,1.84-.69,1-.79-.55-1.18,1.68,2.94,2.07,1.18-1.69-.79-.55.69-1,2.61,1.83-.69,1-.72-.51L129,255l.72.51-.68,1-2.62-1.83.69-1,.79.56,1.25-1.77-3-2.07L125,252.12l.79.56-.68,1-2.62-1.84Z" transform="translate(-2.11 -3.19)"/><path class="cls-10" d="M131.06,256.3l.77.43,2.61-4.71-.77-.43.58-1.05,2.79,1.55-.58,1-.85-.47-1,1.8,3.15,1.74,1-1.8-.84-.47.57-1,2.8,1.55-.58,1-.78-.43-2.61,4.72.78.43-.58,1-2.79-1.55.57-1,.85.47,1.05-1.89-3.14-1.74L133,257.38l.85.47-.58,1-2.79-1.54Z" transform="translate(-2.11 -3.19)"/><path class="cls-10" d="M139.2,260.74l.62.27,3.91-4.21-.78-.34.46-1.09,4.05,1.73-.47,1.09-.78-.34-.34,5.74.62.26L146,265l-2.75-1.17.46-1.09.83.35.1-1.35L142,260.55l-.9,1,.87.37-.46,1.08-2.76-1.17Zm5.56-.21.2-3.25-2.2,2.39Z" transform="translate(-2.11 -3.19)"/><path class="cls-10" d="M147.65,264.23l.84.27,1.67-5.13-.85-.27.37-1.14,3.1,1-.37,1.13-1-.31-1.67,5.14,2,.66.34-1,1.22.4-.7,2.17-5.38-1.74Z" transform="translate(-2.11 -3.19)"/><path class="cls-10" d="M155.2,266.55l.94.23,1.28-5.28-1.4-.34-.29,1.2-1.23-.3.56-2.33,6.57,1.6-.57,2.32-1.23-.3.29-1.19-1.4-.34-1.28,5.27.94.23-.28,1.16-3.18-.77Z" transform="translate(-2.11 -3.19)"/><path class="cls-10" d="M161.3,267.93l.94.16.91-5.32-.94-.16.21-1.18,3.18.55-.2,1.18-.94-.16-.91,5.31.94.16-.2,1.18-3.19-.55Z" transform="translate(-2.11 -3.19)"/><path class="cls-10" d="M166.26,266.09a4,4,0,0,1,4.45-3.66c1.8.17,2.92,1.22,2.83,2.15a.88.88,0,0,1-.93.88.82.82,0,0,1-.82-.92.86.86,0,0,1,.12-.39,2.23,2.23,0,0,0-1.35-.48,2.81,2.81,0,0,0-.63,5.58,3.31,3.31,0,0,0,1.91-.32l.13-1.33-1.93-.18.1-1.13,3.24.3-.37,4-1.27-.12,0-.57a3.38,3.38,0,0,1-2.18.52A3.8,3.8,0,0,1,166.26,266.09Z" transform="translate(-2.11 -3.19)"/><path class="cls-10" d="M175.11,269.45H176l.08-5.39h-.88v-1.2L181,263l0,2.22-1.27,0v-1l-2.3,0,0,2.08,2.35,0,0,1.14-2.35,0,0,2.2,2.31,0,0-1,1.28,0,0,2.22-5.81-.09Z" transform="translate(-2.11 -3.19)"/><path class="cls-10" d="M185.29,263.86l-.7.09-.15-1.19,3.06-.37.14,1.19-.81.1,2.18,4,1.15-4.44-.85.11-.15-1.19,3.06-.37.14,1.19-.7.08-2,7-.75.1Z" transform="translate(-2.11 -3.19)"/><path class="cls-10" d="M194.17,268.12l.87-.18-1.13-5.27-.86.18-.25-1.17,5.67-1.21.47,2.17-1.25.27-.22-1-2.25.49.43,2,2.3-.49.24,1.11-2.3.49.46,2.15,2.27-.48-.22-1,1.25-.27.46,2.17-5.69,1.22Z" transform="translate(-2.11 -3.19)"/><path class="cls-10" d="M201.43,266.52l.84-.26-1.57-5.16-.85.26-.34-1.14,2.88-.88c1.71-.52,3.16-.16,3.62,1.36a2.25,2.25,0,0,1-.79,2.45l1.76,1.68.85-.26.35,1.14-1.72.53-2.36-2.38c-.15.06-.3.12-.44.16l-.62.18.51,1.67.93-.28.35,1.14-3.06.93Zm3.27-5.38c-.24-.78-1-.95-2-.64l-.69.21.73,2.39.73-.2C204.4,262.61,204.94,261.93,204.7,261.14Z" transform="translate(-2.11 -3.19)"/><path class="cls-10" d="M208.83,263.68a.83.83,0,0,1,.42-1.16.8.8,0,0,1,1.07.4.92.92,0,0,1,.08.48,2.28,2.28,0,0,0,1.27-.15c.79-.32,1.15-.87.9-1.5s-.95-.64-1.78-.6c-1.53.05-2.65,0-3.19-1.34a2.32,2.32,0,0,1,1.58-3c1.35-.54,2.67-.27,3,.6a.8.8,0,0,1-.41,1.11.82.82,0,0,1-1.09-.42.7.7,0,0,1-.06-.37,2,2,0,0,0-1,.16c-.72.29-1,.82-.78,1.34s1,.62,1.78.59c1.48-.06,2.64,0,3.17,1.34s-.2,2.58-1.68,3.18S209.18,264.56,208.83,263.68Z" transform="translate(-2.11 -3.19)"/><path class="cls-10" d="M214.51,259a3.92,3.92,0,0,1,1.73-5.43,4,4,0,1,1-1.73,5.43Zm5.87-3a2.61,2.61,0,1,0-1,3.67A2.61,2.61,0,0,0,220.38,256Z" transform="translate(-2.11 -3.19)"/><path class="cls-10" d="M224.23,256.9l.75-.48-2.92-4.53-.75.49-.65-1,2.54-1.63c1.49-1,3-1,3.84.32a2.24,2.24,0,0,1-.08,2.57l2.15,1.13.74-.48.65,1-1.51,1-2.91-1.63-.39.27c-.21.14-.39.26-.54.34l.95,1.47.81-.53.65,1-2.68,1.73Zm1.68-6.06c-.45-.68-1.22-.64-2.13-.06l-.6.39,1.35,2.1c.13-.07.29-.16.65-.39C226,252.33,226.35,251.53,225.91,250.84Z" transform="translate(-2.11 -3.19)"/><path class="cls-10" d="M229.34,250.38a4,4,0,0,1,.7-5.72c1.42-1.12,3-1.13,3.53-.39a.88.88,0,0,1-.08,1.28.82.82,0,0,1-1.22-.11,1.05,1.05,0,0,1-.19-.36,2.26,2.26,0,0,0-1.3.58,2.81,2.81,0,0,0,3.38,4.48,3.23,3.23,0,0,0,1.17-1.56l-.83-1-1.52,1.2-.7-.89,2.55-2,2.5,3.17-1,.79-.36-.46a3.39,3.39,0,0,1-1.22,1.88A3.79,3.79,0,0,1,229.34,250.38Z" transform="translate(-2.11 -3.19)"/><path class="cls-10" d="M237.5,245l-2.6-2.69-.61.59-.84-.86,2.25-2.17.83.86-.67.65,2.55,2.64a1.58,1.58,0,0,0,2.43.21,1.53,1.53,0,0,0-.09-2.4l-2.59-2.68-.67.65-.83-.86,2.22-2.14.83.86-.62.59,2.59,2.67A2.92,2.92,0,1,1,237.5,245Z" transform="translate(-2.11 -3.19)"/><path class="cls-10" d="M242.64,236.19l3.19,2.7.63-.74.91.77-2,2.41-.91-.77.57-.68-4.12-3.48-.57.68-.91-.77,1.3-1.55,6.21.23-2.82-2.38-.63.74-.91-.78,2-2.38.91.77-.55.65,5,4.26-.44.57Z" transform="translate(-2.11 -3.19)"/><path class="cls-10" d="M248.32,231.68a4,4,0,0,1-1-5.67c1-1.49,2.48-2,3.25-1.43a.88.88,0,0,1,.31,1.24.82.82,0,0,1-1.2.27,1,1,0,0,1-.29-.29,2.27,2.27,0,0,0-1.07.94,2.82,2.82,0,0,0,4.58,3.26,3.27,3.27,0,0,0,.64-1.83l-1.1-.75-1.09,1.6-.94-.64,1.83-2.69,3.33,2.27-.72,1.06-.48-.33a3.34,3.34,0,0,1-.59,2.16A3.81,3.81,0,0,1,248.32,231.68Z" transform="translate(-2.11 -3.19)"/><path class="cls-10" d="M255.15,225.35a.84.84,0,1,1,.68-1.53,1,1,0,0,1,.36.32,2.17,2.17,0,0,0,.89-.91c.41-.75.35-1.41-.24-1.73s-1.15.11-1.76.66c-1.16,1-2.06,1.67-3.32,1a2.32,2.32,0,0,1-.68-3.33c.71-1.27,1.9-1.89,2.72-1.44a.79.79,0,0,1,.38,1.12.8.8,0,0,1-1.11.36.7.7,0,0,1-.28-.25,1.93,1.93,0,0,0-.7.79c-.37.67-.25,1.25.24,1.53s1.13-.12,1.75-.67c1.12-1,2-1.66,3.31-1s1.47,2.13.7,3.52S256,225.81,255.15,225.35Z" transform="translate(-2.11 -3.19)"/><path class="cls-10" d="M259,219.33l.36-.81-4.93-2.19-.36.81-1.09-.49,1.3-2.91,1.07.47-.4.89,2.41,1.07L256,212.71l-.36.81-1.07-.48,1.4-3.13,1.09.49-.34.76,1.07,2.86,3.78-.49.42-.94,1.09.48-.76,1.71-4.12.54.54,1.47,1.15.51.4-.89,1.09.49-1.3,2.92Z" transform="translate(-2.11 -3.19)"/><path class="cls-10" d="M262.45,211.36l.29-.84-5.1-1.74-.29.84-1.13-.39,1.87-5.49,2.11.71-.41,1.21-1-.33-.74,2.18,2,.67.76-2.23,1.07.37-.76,2.23,2.08.71.75-2.2-1-.33.41-1.21,2.1.72-1.87,5.5Z" transform="translate(-2.11 -3.19)"/><path class="cls-10" d="M265.11,203l.24-.94-5.26-1.32-.35,1.39,1.19.3-.31,1.23-2.31-.58,1.64-6.55,2.32.58-.31,1.23-1.19-.3-.35,1.4,5.26,1.32.23-.94,1.16.29-.8,3.18Z" transform="translate(-2.11 -3.19)"/><path class="cls-10" d="M266.84,195.33l.15-1-5.35-.85-.23,1.42,1.21.19-.2,1.25-2.35-.37,1.06-6.67,2.36.38-.2,1.25-1.22-.2-.22,1.43,5.35.85.16-1,1.18.19-.52,3.23Z" transform="translate(-2.11 -3.19)"/><path class="cls-10" d="M267.76,189.08l.07-.88-5.38-.4-.07.89-1.19-.09.43-5.79,2.22.16-.1,1.28-1-.08-.17,2.3,2.07.15.17-2.34,1.13.08-.17,2.35,2.2.16.17-2.31-1-.08.09-1.27,2.22.16-.43,5.8Z" transform="translate(-2.11 -3.19)"/><g class="cls-11"><circle class="cls-12" cx="176.05" cy="176.06" r="85.29"/></g><g id="Artwork_18" data-name="Artwork 18"><g class="cls-13"><g class="cls-13"><path class="cls-14" d="M36.64,139.53a22,22,0,0,1,4.59,0,21.75,21.75,0,0,1,19.5,23.74,21.3,21.3,0,0,1-.93,4.49l.34.41a22.73,22.73,0,0,0,1-4.85A22.22,22.22,0,0,0,41.27,139a22.77,22.77,0,0,0-5,.08Z" transform="translate(-2.11 -3.19)"/><path class="cls-14" d="M41.3,182.72a21.4,21.4,0,0,1-4.31,0,21.73,21.73,0,0,1-18.66-28l-.34-.42a22.18,22.18,0,0,0,19,28.83,22.94,22.94,0,0,0,4.69,0Z" transform="translate(-2.11 -3.19)"/><path class="cls-14" d="M51.54,149.78l-5.18-.51a2.39,2.39,0,0,0-3,1.66c-.2.44-.38.9-.56,1.35s-.35.89-.54,1.33a6.59,6.59,0,0,1-.83,1.44,1.11,1.11,0,0,1-.78.52,1.19,1.19,0,0,1-.86-.5,5.38,5.38,0,0,0-4.43-2,3.14,3.14,0,0,0-.57,6.23,5.72,5.72,0,0,0,4.73-1.1,1.06,1.06,0,0,1,.86-.24.9.9,0,0,1,.58.51,21.91,21.91,0,0,1,.92,2.86l-.77.19a20.77,20.77,0,0,0-.86-2.69.21.21,0,0,0-.06-.1.57.57,0,0,0-.21.11A6.43,6.43,0,0,1,34.63,160a4,4,0,0,1-3.14-4.26v-.05a4.09,4.09,0,0,1,3.84-3.49,6.21,6.21,0,0,1,5.06,2.29,1,1,0,0,0,.24.23.81.81,0,0,0,.18-.19,6,6,0,0,0,.73-1.28c.19-.43.37-.87.54-1.3s.36-.93.56-1.39a3.17,3.17,0,0,1,3.82-2.12l5.16.51Z" transform="translate(-2.11 -3.19)"/></g><g class="cls-15"><rect class="cls-14" x="31.58" y="173.15" width="27.52" height="0.4" transform="translate(-101.83 64.98) rotate(-39.4)"/><rect class="cls-14" x="32.67" y="174.48" width="27.52" height="0.4" transform="translate(-102.43 65.98) rotate(-39.4)"/><rect class="cls-14" x="30.01" y="171.33" width="29.75" height="0.4" transform="translate(-100.78 64.28) rotate(-39.4)"/><rect class="cls-14" x="28.63" y="169.28" width="32.16" height="0.4" transform="translate(-99.52 63.71) rotate(-39.4)"/><rect class="cls-14" x="27.42" y="167.49" width="33.62" height="0.4" transform="translate(-98.49 62.99) rotate(-39.4)"/><rect class="cls-14" x="26.55" y="166.84" width="31.6" height="0.4" transform="translate(-98.51 61.65) rotate(-39.4)"/><rect class="cls-14" x="25.79" y="166.73" width="28.07" height="0.4" transform="translate(-99.01 60.02) rotate(-39.4)"/><rect class="cls-14" x="24.69" y="165.45" width="28.07" height="0.4" transform="translate(-98.45 59.03) rotate(-39.4)"/><rect class="cls-14" x="23.66" y="164.17" width="27.91" height="0.4" transform="translate(-97.89 58.04) rotate(-39.4)"/><rect class="cls-14" x="22.56" y="162.88" width="27.91" height="0.4" transform="translate(-97.32 57.04) rotate(-39.4)"/><rect class="cls-14" x="21.45" y="161.6" width="27.91" height="0.4" transform="translate(-96.76 56.05) rotate(-39.4)"/><rect class="cls-14" x="20.35" y="160.32" width="27.91" height="0.4" transform="translate(-96.19 55.06) rotate(-39.4)"/></g><g class="cls-13"><path class="cls-14" d="M56.52,158.75l-.08.78-1.51-.14-9.47-.93a2.39,2.39,0,0,0-3,1.66c-.2.44-.38.9-.56,1.35s-.35.89-.54,1.33a6.21,6.21,0,0,1-.84,1.44,1.07,1.07,0,0,1-.77.52,1.19,1.19,0,0,1-.86-.5,5.41,5.41,0,0,0-4.43-2A3.31,3.31,0,0,0,31.38,165v0a3.28,3.28,0,0,0,2.52,3.43,5.73,5.73,0,0,0,4.73-1.1,1.06,1.06,0,0,1,.86-.24.9.9,0,0,1,.58.51,7.75,7.75,0,0,1,.65,1.74c.13.53.23,1.06.33,1.58s.24,1.21.39,1.8.66,1,1.74,1.17l6.13.6-.08.78c-.22,0-5.58-.53-6.14-.6A2.46,2.46,0,0,1,40.67,173c-.16-.62-.28-1.25-.4-1.85s-.19-1-.32-1.54a7,7,0,0,0-.59-1.57c0-.08-.06-.1-.07-.1a.6.6,0,0,0-.2.11,6.43,6.43,0,0,1-5.36,1.23A4,4,0,0,1,30.59,165v-.05a4.1,4.1,0,0,1,3.84-3.49,6.22,6.22,0,0,1,5.06,2.3,1.14,1.14,0,0,0,.24.22.81.81,0,0,0,.18-.19,6,6,0,0,0,.73-1.28c.19-.42.37-.87.53-1.3s.37-.93.57-1.38a3.17,3.17,0,0,1,3.82-2.13l9.45.93Z" transform="translate(-2.11 -3.19)"/><path class="cls-14" d="M55.53,162.6a16.51,16.51,0,0,1-8,12.56l1.78.18a17.62,17.62,0,0,0,7.32-12.63,18.57,18.57,0,0,0-.06-4l-1.16-.11a16.75,16.75,0,0,1,.1,3.95" transform="translate(-2.11 -3.19)"/><path class="cls-14" d="M21.53,159.27A17.62,17.62,0,0,0,47.47,176.5l-2.17-.21a16.52,16.52,0,1,1,9.89-19l1.17.11a17.64,17.64,0,0,0-34.83,1.85" transform="translate(-2.11 -3.19)"/></g></g></g><g id="Artwork_20" data-name="Artwork 20"><g class="cls-16"><g class="cls-16"><path class="cls-17" d="M265.89,287.72a22.17,22.17,0,1,1-31.1-4A22.18,22.18,0,0,1,265.89,287.72Z" transform="translate(-2.11 -3.19)"/><path class="cls-14" d="M255.86,285.29l1.34,2.06a16.74,16.74,0,1,1-11-2.61l1.92-1.24a17.65,17.65,0,0,0-9.74,2.85,17.84,17.84,0,1,0,17.46-1.06" transform="translate(-2.11 -3.19)"/><line class="cls-18" x1="239.07" y1="311.26" x2="252.53" y2="314.14"/><line class="cls-18" x1="239.28" y1="309.34" x2="255.14" y2="312.74"/><line class="cls-18" x1="239.88" y1="307.2" x2="257.59" y2="310.99"/><line class="cls-18" x1="240.28" y1="305.01" x2="259.44" y2="309.12"/><line class="cls-18" x1="240.74" y1="303.04" x2="260.83" y2="307.35"/><line class="cls-18" x1="240.93" y1="301.1" x2="262.03" y2="305.63"/><line class="cls-18" x1="241.52" y1="298.96" x2="262.48" y2="303.45"/><line class="cls-18" x1="241.92" y1="296.77" x2="262.69" y2="301.22"/><line class="cls-18" x1="242.38" y1="294.81" x2="263.15" y2="299.26"/><line class="cls-18" x1="247.19" y1="293.83" x2="263.28" y2="297.28"/><line class="cls-18" x1="247.5" y1="291.63" x2="262.87" y2="294.92"/><line class="cls-18" x1="247.9" y1="289.44" x2="262.46" y2="292.56"/><line class="cls-18" x1="248.36" y1="287.48" x2="261.4" y2="290.27"/><line class="cls-18" x1="248.55" y1="285.54" x2="260.01" y2="287.99"/><polygon class="cls-14" points="252.44 284.75 253.55 284.99 250.15 279.75 244.91 283.14 246.01 283.38 249.41 281.18 246.32 295.04 241.97 294.1 238.06 313.97 238.84 314.12 242.6 295.06 246.93 295.98 250.21 281.3 252.44 284.75"/><polygon class="cls-19" points="252.44 284.75 253.55 284.99 250.15 279.75 244.91 283.14 246.01 283.38 249.41 281.18 246.32 295.04 241.97 294.1 238.06 313.97 238.84 314.12 242.6 295.06 246.93 295.98 250.21 281.3 252.44 284.75"/></g></g></g><g id="Artwork_19" data-name="Artwork 19"><g class="cls-20"><g class="cls-20"><polyline class="cls-21" points="240.75 25.96 246.69 23.97 248.68 29.9"/><polyline class="cls-21" points="252.56 61.09 258.49 59.1 256.5 53.17"/><polyline class="cls-21" points="217.49 33.78 211.56 35.77 213.55 41.7"/><polyline class="cls-21" points="229.29 68.91 223.36 70.9 221.37 64.97"/><path class="cls-22" d="M228.61,33.88c2.66,3.5,4.29,8.18,5.35,11.08,2.14,5.82,2.46,10.44.44,14.49L231,66.27" transform="translate(-2.11 -3.19)"/><path class="cls-22" d="M234.47,52.27a16.48,16.48,0,0,1-7.63-12c-.52-3.68.76-6.28,1.95-6.68,2.4-.79,6.1,2.33,8,4.92,3,4.22,3.78,10.28-1,14" transform="translate(-2.11 -3.19)"/><path class="cls-22" d="M234.47,52.27a16.48,16.48,0,0,1-7.63-12c-.52-3.68.76-6.28,1.95-6.68,2.4-.79,6.1,2.33,8,4.92,3,4.22,3.78,10.28-1,14" transform="translate(-2.11 -3.19)"/><path class="cls-22" d="M251.46,53.72C246,53.06,236.41,55.36,234,60.3" transform="translate(-2.11 -3.19)"/><path class="cls-22" d="M237.09,57.15c4.17,2,7.69,2.24,10.74.93,2.64-1.14,4.08-3.56,3.84-4.49-.45-1.69-3.94-3-6.24-3.12-4.41-.25-7.47,1.64-8.38,5.24" transform="translate(-2.11 -3.19)"/></g><g class="cls-23"><line class="cls-24" x1="233.57" y1="48.67" x2="239.63" y2="66.71"/><line class="cls-24" x1="234.61" y1="48.32" x2="240.67" y2="66.36"/><line class="cls-24" x1="235.64" y1="47.97" x2="242.05" y2="67.04"/><line class="cls-24" x1="236.68" y1="47.62" x2="243.09" y2="66.7"/><line class="cls-24" x1="237.72" y1="47.27" x2="244.25" y2="66.72"/><line class="cls-24" x1="238.76" y1="46.92" x2="245.29" y2="66.37"/><line class="cls-24" x1="239.8" y1="46.58" x2="246.29" y2="65.92"/><line class="cls-24" x1="240.83" y1="46.23" x2="247.33" y2="65.57"/><line class="cls-24" x1="241.87" y1="45.88" x2="248.33" y2="65.11"/><line class="cls-24" x1="242.91" y1="45.53" x2="249.37" y2="64.76"/><line class="cls-24" x1="243.95" y1="45.18" x2="250.16" y2="63.66"/><line class="cls-24" x1="245.68" y1="43.47" x2="252.23" y2="62.97"/><line class="cls-24" x1="244.98" y1="44.83" x2="251.19" y2="63.32"/><line class="cls-24" x1="246.47" y1="42.37" x2="252.69" y2="60.9"/><line class="cls-24" x1="247.97" y1="43.41" x2="253.6" y2="60.17"/></g><g class="cls-25"><line class="cls-24" x1="243.59" y1="42.2" x2="225.54" y2="48.26"/><line class="cls-24" x1="243.24" y1="41.16" x2="225.19" y2="47.22"/><line class="cls-24" x1="243.93" y1="43.24" x2="225.89" y2="49.3"/><line class="cls-24" x1="244.28" y1="44.27" x2="226.24" y2="50.34"/><line class="cls-24" x1="242.89" y1="40.12" x2="223.81" y2="46.53"/><line class="cls-24" x1="242.54" y1="39.08" x2="223.46" y2="45.49"/><line class="cls-24" x1="242.19" y1="38.05" x2="222.74" y2="44.58"/><line class="cls-24" x1="241.84" y1="37.01" x2="222.39" y2="43.54"/><line class="cls-24" x1="241.49" y1="35.97" x2="222.15" y2="42.47"/><line class="cls-24" x1="241.14" y1="34.93" x2="221.8" y2="41.43"/><line class="cls-24" x1="240.8" y1="33.9" x2="221.56" y2="40.36"/><line class="cls-24" x1="240.45" y1="32.86" x2="221.21" y2="39.32"/><line class="cls-24" x1="240.1" y1="31.82" x2="221.62" y2="38.03"/><line class="cls-24" x1="240.41" y1="29.4" x2="220.92" y2="35.95"/><line class="cls-24" x1="239.75" y1="30.78" x2="221.27" y2="36.99"/><line class="cls-24" x1="240.82" y1="28.11" x2="222.29" y2="34.34"/><line class="cls-24" x1="239.08" y1="27.54" x2="222.32" y2="33.17"/></g><g class="cls-20"><path class="cls-14" d="M245.84,34.16a18,18,0,0,0-12.39-1.35,13.33,13.33,0,0,1,1.16.92,16.94,16.94,0,1,1-12,9.09,17.11,17.11,0,0,1,2-3.13,15.77,15.77,0,0,1-.09-1.65,17.76,17.76,0,0,0-3,4.27,18.1,18.1,0,1,0,24.26-8.15" transform="translate(-2.11 -3.19)"/></g></g></g><path d="M247.36,230.3l.48-1.49A1.48,1.48,0,0,0,245,228l-.48,1.48a1.49,1.49,0,0,0,1,1.82,1.51,1.51,0,0,0,1.82-1Z" transform="translate(-2.11 -3.19)"/><g class="cls-26"><circle class="cls-27" cx="175.74" cy="176.43" r="141.9"/></g><g class="cls-28"><circle class="cls-27" cx="175.74" cy="176.43" r="141.9"/></g><g class="cls-29"><circle class="cls-27" cx="175.74" cy="176.43" r="141.9"/></g></svg>