<?xml version="1.0" encoding="utf-8"?>
<!-- Generator: Adobe Illustrator 23.0.6, SVG Export Plug-In . SVG Version: 6.00 Build 0)  -->
<svg version="1.1" id="Layer_1" xmlns="http://www.w3.org/2000/svg" xmlns:xlink="http://www.w3.org/1999/xlink" x="0px" y="0px"
	 viewBox="0 0 359.7 359.9" style="enable-background:new 0 0 359.7 359.9;" xml:space="preserve">
<style type="text/css">
	.st0{opacity:0.41;fill:#FFFFFF;}
	.st1{opacity:0.65;}
	.st2{opacity:0.26;fill:#B5BF30;}
	.st3{fill:#CAD3BD;}
	.st4{fill:#B6CFD8;}
	.st5{fill:none;stroke:#000000;stroke-width:1.8958;stroke-miterlimit:10;}
	.st6{fill:none;stroke:#000000;stroke-width:2;stroke-miterlimit:10;}
	.st7{fill:#231F20;}
	.st8{fill:#FFF5EC;}
	.st9{clip-path:url(#SVGID_2_);fill:none;stroke:#FFF5EC;stroke-width:1.3171;stroke-miterlimit:10;}
	.st10{clip-path:url(#SVGID_4_);}
	.st11{clip-path:url(#SVGID_6_);fill:#1D1D1B;}
	.st12{clip-path:url(#SVGID_8_);fill:#1D1D1B;}
	.st13{clip-path:url(#SVGID_10_);fill:#1D1D1B;}
	.st14{clip-path:url(#SVGID_12_);}
	
		.st15{clip-path:url(#SVGID_14_);fill:none;stroke:#1D1D1B;stroke-width:0.3873;stroke-miterlimit:10;stroke-dasharray:3.9556,7.9112;}
	.st16{clip-path:url(#SVGID_14_);fill:#1D1D1B;}
	.st17{clip-path:url(#SVGID_14_);fill:none;stroke:#1D1D1B;stroke-width:0.3409;stroke-linejoin:bevel;stroke-miterlimit:10;}
	.st18{clip-path:url(#SVGID_14_);fill:none;stroke:#1D1D1B;stroke-width:0.1705;stroke-miterlimit:10;}
	.st19{clip-path:url(#SVGID_16_);}
	.st20{clip-path:url(#SVGID_18_);fill:none;stroke:#1D1D1B;stroke-width:0.4195;stroke-miterlimit:10;}
	.st21{clip-path:url(#SVGID_18_);fill:none;stroke:#1D1D1B;stroke-width:0.7385;stroke-miterlimit:10;}
	.st22{clip-path:url(#SVGID_20_);fill:none;stroke:#1D1D1B;stroke-width:0.3692;stroke-miterlimit:10;}
	.st23{clip-path:url(#SVGID_22_);fill:none;stroke:#1D1D1B;stroke-width:0.3692;stroke-miterlimit:10;}
	.st24{clip-path:url(#SVGID_24_);fill:#1D1D1B;}
	.st25{clip-path:url(#SVGID_26_);fill:none;stroke:#000000;stroke-miterlimit:10;}
	.st26{clip-path:url(#SVGID_28_);fill:none;stroke:#000000;stroke-miterlimit:10;}
	.st27{clip-path:url(#SVGID_30_);fill:none;stroke:#000000;stroke-miterlimit:10;}
</style>
<circle class="st0" cx="179.5" cy="179.9" r="177.8"/>
<g>
	<g class="st1">
		<path class="st2" d="M25.2,269.2l64.7-38.8c-28-49.9-9.3-112.8,39.4-140.1c21.3-11.9,50.3-13.5,50.3-13.5l0.9-74.6
			c0,0-42.7-2.6-87.9,22.8C7.1,73-23.4,182.8,25.2,269.2z"/>
		<path class="st3" d="M179.6,2.1l0,74.9c57.3,0,102.9,47.1,102.9,102.9c0,24.4-12.9,50.5-12.9,50.5l64.6,37.3
			c0,0,23.2-36,23.2-87.8C357.3,81.9,278.7,2.1,179.6,2.1z"/>
		<path class="st4" d="M334.3,268.3l-64.5-38.1c-29,49.9-93.7,68.2-143.4,38.3C105.4,255.8,89,230.9,89,230.9l-63.8,38.3
			c0,0,18.4,37.3,63.6,63.5C174.3,382.4,283.3,355.8,334.3,268.3z"/>
	</g>
	<circle class="st5" cx="179.6" cy="179.9" r="177.8"/>
	<g>
		<g>
			<g>
				<path d="M50.9,125.5l0.9-1.9c1.1,0.4,2.2,0.3,3-1.4c0.5-1.2,0.3-2.3-0.7-2.7c-1-0.5-1.6-0.1-2.6,1.4c-1.5,2.4-2.8,3.2-4.8,2.3
					c-1.7-0.8-2.3-2.9-1.3-5.1c1.1-2.3,2.7-3.1,4.8-2.4l-0.8,1.8c-1.2-0.3-2,0.1-2.5,1.3c-0.6,1.2-0.3,2.1,0.5,2.5
					c0.9,0.4,1.4,0.2,2.6-1.5c1.5-2.3,2.8-3.3,4.9-2.3c1.8,0.9,2.5,3.1,1.4,5.4C55,125.8,53,126.3,50.9,125.5z"/>
				<path d="M57.2,108.3l-0.1-0.1c-2.8-1.8-3.6-5.3-1.8-8.2c1.9-2.9,5.2-3.6,8.1-1.7l0.1,0.1c2.8,1.8,3.7,5.2,1.8,8.1
					C63.4,109.6,60,110.1,57.2,108.3z M62.4,100.3l-0.1-0.1c-2-1.3-4.2-1.1-5.5,0.8c-1.2,1.9-0.6,4,1.5,5.3l0.1,0.1
					c2.1,1.4,4.3,1,5.5-0.8C65.1,103.8,64.5,101.7,62.4,100.3z"/>
				<path d="M69.3,91L69.3,91c-2.7-2.4-3-5.8-0.8-8.2c1.8-2,4.1-2.7,6.3-1.1l-1.4,1.6c-1.3-0.8-2.5-0.7-3.6,0.5
					c-1.4,1.5-1,3.6,0.9,5.3l0.1,0.1c2,1.7,4,1.8,5.4,0.2c1.1-1.2,1.2-2.6,0.1-3.9l1.4-1.6c1.9,2.1,1.6,4.5-0.2,6.6
					C75.1,93.4,72,93.4,69.3,91z"/>
				<path d="M79.5,71.8l1.6-1.5l7.8,8.6l-1.6,1.5L79.5,71.8z"/>
				<path d="M92.1,61.4l2.3-1.7l9.9,7.2l-1.8,1.3l-2.4-1.8L96.4,69l0.9,2.9l-1.6,1.2L92.1,61.4z M95.9,67.5l2.8-2l-4.5-3.4
					L95.9,67.5z"/>
				<path d="M109.1,50.6l2.5-1.3l8.9,8.4l-2,1.1l-2.2-2.1l-3.9,2.1l0.6,3l-1.8,1L109.1,50.6z M112.1,57.1l3-1.6l-4-4L112.1,57.1z"/>
				<path d="M124.5,43.2l2-0.8l3.5,9.2l4.6-1.8l0.6,1.6l-6.7,2.5L124.5,43.2z"/>
			</g>
		</g>
		<g>
			<g>
				<path d="M308.3,103.9l1.4,2.6l-5.5,6.5l8.4-1.2l1.4,2.5l-10.3,5.6l-1-1.9l7.8-4.2L301,115l-0.3-0.6l6.1-7.3l-7.8,4.2l-0.9-1.7
					L308.3,103.9z"/>
				<path d="M316.3,119.4l0.9,2l-10.7,4.7l-0.9-2L316.3,119.4z"/>
				<path d="M319.2,126.4l0.8,2l-9.4,3.4l1.7,4.7l-1.6,0.6l-2.5-6.7L319.2,126.4z"/>
				<path d="M323,137.4l0.6,2.1l-11.2,3.3l-0.6-2.1L323,137.4z"/>
				<path d="M325.1,144.7l1.6,7.1l-1.7,0.4l-1.1-5l-3.1,0.7l0.9,4l-1.6,0.4l-0.9-4l-3.3,0.8l1.2,5.3l-1.7,0.4l-1.7-7.4L325.1,144.7z
					"/>
				<path d="M320.4,157.7l7.2-1l0.3,2.2l-7,0.9c-2.1,0.3-2.9,1.1-2.7,2.8c0.2,1.7,1.1,2.4,3.5,2.1l6.9-0.9l0.3,2.2l-7.1,0.9
					c-3,0.4-4.9-1-5.3-4.1C316.1,160,317.4,158.1,320.4,157.7z"/>
			</g>
		</g>
		<g>
			<g>
				<path d="M83,279.3l5.2,4.8l-1.2,1.2l-3.6-3.4l-2.3,2.5l2.9,2.7l-1.1,1.2l-2.9-2.7l-3.2,3.4l-1.6-1.4L83,279.3z"/>
				<path d="M94.4,289.1l1.7,1.3l-7,9.1l-1.7-1.3L94.4,289.1z"/>
				<path d="M103.1,295.5l2.2,1.3l-0.2,9.6l4.3-7.1l1.6,1l-6,9.8l-1.9-1.2l0.2-10.2l-4.6,7.5l-1.7-1L103.1,295.5z"/>
				<path d="M121.2,305.5l2.5,1.1l-1.3,12l-2-0.9l0.3-3l-4-1.8l-2,2.2l-1.8-0.8L121.2,305.5z M117.9,311.8l3.1,1.4l0.7-5.5
					L117.9,311.8z"/>
				<path d="M134.3,310.9l2.4,0.7l2.2,9.3l2.4-7.9l1.8,0.6l-3.4,10.9l-2.1-0.6l-2.3-9.9l-2.6,8.4l-1.8-0.6L134.3,310.9z"/>
				<path d="M149.9,321.1l0-0.1c0.6-3.4,3.4-5.3,6.6-4.7c2.6,0.5,4.3,2.2,4.1,4.9l-2.1-0.4c0.1-1.5-0.6-2.5-2.3-2.8
					c-2-0.4-3.6,0.9-4,3.4l0,0.1c-0.5,2.5,0.4,4.3,2.5,4.7c1.6,0.3,2.8-0.3,3.3-1.8l2,0.4c-0.8,2.6-3,3.6-5.7,3.1
					C150.8,327.2,149.2,324.6,149.9,321.1z"/>
				<path d="M169.1,318.1l2.1,0.2l-0.8,11.4l-2.1-0.2L169.1,318.1z"/>
				<path d="M179.9,318.6l7.2-0.2l0,1.7l-5,0.1l0.1,3.1l4-0.1l0,1.6l-4,0.1l0.1,3.3l5.3-0.1l0,1.7l-7.4,0.2L179.9,318.6z"/>
				<path d="M195.2,317.8l7.1-0.9l0.2,1.7l-5,0.7l0.4,3.1l4-0.5l0.2,1.6l-4,0.5l0.4,3.3l5.2-0.7l0.2,1.7l-7.4,1L195.2,317.8z"/>
				<path d="M210.2,315.3l2.1-0.5l2.3,9.5l4.7-1.2l0.4,1.6l-6.8,1.7L210.2,315.3z"/>
			</g>
		</g>
	</g>
	<line class="st6" x1="179.6" y1="2.1" x2="179.6" y2="71.4"/>
	<line class="st6" x1="83.2" y1="235.2" x2="25.2" y2="269.2"/>
	<line class="st6" x1="274.5" y1="233.2" x2="334.2" y2="267.7"/>
	<g>
		<g>
			<path class="st7" d="M179.6,70.2c-61.2,0-110.8,49.6-110.8,110.8s49.6,110.8,110.8,110.8S290.3,242.1,290.3,181
				S240.7,70.2,179.6,70.2z M179.6,246.9c-36.4,0-66-29.5-66-66c0-36.4,29.5-66,66-66s66,29.5,66,66
				C245.5,217.4,216,246.9,179.6,246.9z"/>
		</g>
		<g>
			<g>
				<path class="st7" d="M196.9,179.5c0.3,0.6,0.6,1.6,0.6,2.9c-0.2-0.5-1-1.6-2-2.6c-1,0.3-1.9,0.5-3,0.8c-0.8,0.2-2.5,0.7-4.2,1.2
					c0.3,0.3,0.6,0.6,0.9,1c0.8,1,1.5,2.2,2.2,3.8c-0.5-0.6-3.2-2.8-6-3.9c-1.4,0.4-2.5,0.7-2.5,0.7c-1.4,0.4-2.9,0.9-4.4,1.4
					c1.3,0.8,2.6,1.8,3.9,3.1c1,1,1.9,2.1,2.9,3.5c-2.3-1.6-7.3-4.1-11.5-4.4c-1.7,1-3.4,2.3-5.2,3.7c2.7,0.8,5.7,2.5,9.2,5.9
					c0.6,0.6,1.2,1.2,1.8,1.9c-3.6-2.1-10-3.9-15.1-3.7c-1.5,1.7-3,3.7-4.3,6c3.5-0.2,7.9,0.6,13.7,4.1c0.8,0.5,1.6,1,2.4,1.6
					c-4.8-1.6-14.2-1.9-18.8,0.2c-0.2,0.8-0.9,3.5-0.9,6.5c9.2-1.8,14.6-0.1,20.3,1.4c3-23.8,17.7-26.8,32.8-39.8h0
					C207.2,176.2,202.8,177.8,196.9,179.5z"/>
				<path class="st7" d="M179.6,117.1c-35.2,0-63.8,28.6-63.8,63.8c0,35.2,28.6,63.8,63.8,63.8s63.8-28.6,63.8-63.8
					C243.4,145.7,214.8,117.1,179.6,117.1z M179.5,237.2c-1,0-2,0-3-0.1c-0.5-0.1-1.1-0.2-1.7-0.3c-14.5-2.2-20.3-11.3-21.6-19.2
					c-1.7-10.2,2.3-15.7,4.6-19.2c7.2-10.6,17.1-15.3,25.6-17.6c0,0,7.6-2.1,9.6-2.7c9.7-2.4,16-4.9,18.9-6.5
					c2.3-1.3,5.4-3.7,7.2-7.1c0,0,2.5-3.9,2-8.6c-0.6-5.7-4.8-8.7-8.6-8.9c-0.4,0-0.7,0-1.1,0c-1.4,0.1-2.9,0.6-4,1.3
					c-1.1,0.7-2,1.8-2.5,3.1c0,0-0.4,0.9-0.4,1.9v0c0,2.8,2.3,5,5.1,5c2.8,0,5-2.3,5-5c0-0.8-0.2-1.5-0.5-2.2
					c1.3,0.8,2.1,2.2,2.4,3.7c0.1,0.6,0.1,1.2,0.1,1.9c0,0.5-0.1,1.1-0.2,1.6c-0.5,1.8-1.6,3.5-4.6,4.5c-1.2,0.3-2.5,0.6-3.8,0.8
					c0,1.4-0.3,3.1-1.7,5c-0.2,0.3-0.5,0.6-0.8,0.8c0.7-1.7,0.6-3.7,0.3-5.5c-1.6,0.2-3.3,0.3-5.1,0.5c0.3,1.7,0.1,3.9-1.5,6.4
					c-0.2,0.4-0.5,0.7-0.8,1.1c0.7-2.4,0.2-5.2-0.6-7.3c-1.7,0.1-3.4,0.2-5.2,0.2c0.5,2,0.6,4.7-1.3,8c-0.2,0.4-0.6,0.8-0.9,1.3
					c0.8-3.1-0.1-6.7-1.4-9.1c-1.9,0.1-3.9,0.3-5.9,0.4c0.7,2.2,0.9,5.1-0.6,8.7c-0.2,0.5-0.5,1.1-0.9,1.6h0
					c0.4-3.5-0.9-7.2-2.6-9.9c-2.2,0.3-4.4,0.6-6.6,1.1c1.2,2.3,2.1,5.4,1.5,9.7c-0.1,0.6-0.3,1.3-0.5,2c-0.5-4.1-2.9-8.1-5.3-10.6
					c-2.4,0.6-4.7,1.4-7,2.4c1.9,2,3.7,5,4.2,9.6c0.1,0.7,0.1,1.4,0,2.2c-1.6-4.2-5.5-7.8-8.8-9.7c-2.2,1.1-4.3,2.4-6.2,3.8
					c2.5,1.5,5.2,4.1,6.9,8.9c0.2,0.6,0.6,2,0.7,2.9c-2.8-4-8-7.2-11.9-8.3c-2,1.8-3.8,3.6-5.3,5.4c3.8,2,8.8,6.2,10.9,11.5v0
					c-3.6-3.5-10.3-5.5-15.1-5.9c-2.4,3.6-3.5,6.3-3.7,6.7c7.2,1.9,10.7,4.3,12.4,6.3v0c1.5,1.5,1.1,3.3,1.1,3.3
					c-0.2,1.1-0.4,2.1-0.5,3.1c-1,6.9-0.5,12.2,1.1,16.5c-14.5-10.2-24-27.1-24-46.2c0-31.2,25.3-56.5,56.5-56.5
					c31.2,0,56.4,25.3,56.4,56.5C235.9,211.9,210.7,237.2,179.5,237.2z"/>
			</g>
			<g>
				<g>
					<path class="st8" d="M103.6,148.7c-0.8-0.4-1.2-1.2-0.8-1.9c0.4-0.8,1.2-1,1.8-0.7c0.3,0.1,0.5,0.3,0.6,0.5
						c0.5-0.3,1-0.9,1.4-1.6c0.6-1.3,0.4-2.4-0.6-2.9c-1-0.5-1.9,0.3-2.9,1.3c-1.9,1.8-3.3,3-5.5,2c-1.9-0.9-2.6-3.2-1.5-5.6
						c1.1-2.2,3-3.4,4.5-2.7c0.8,0.4,1.1,1.2,0.8,1.9c-0.4,0.8-1.2,1-1.8,0.7c-0.3-0.1-0.4-0.3-0.5-0.4c-0.4,0.2-0.8,0.7-1.1,1.4
						c-0.6,1.2-0.3,2.1,0.6,2.6c1,0.5,1.9-0.3,2.9-1.3c1.8-1.8,3.3-3,5.5-1.9c2.3,1.1,2.7,3.5,1.5,5.9
						C107.3,148.2,105.1,149.4,103.6,148.7z"/>
					<path class="st8" d="M109.4,139l0.9-1.4l-7.7-4.9l-0.9,1.4L100,133l2.9-4.6l1.7,1.1l-0.9,1.4l7.7,4.9l0.9-1.4l1.7,1.1l-2.9,4.6
						L109.4,139z"/>
					<path class="st8" d="M113.3,132.9l0.9-1.2l-7.1-5.7l-0.9,1.2l-1.6-1.3l3.5-4.3l1.6,1.3l-1.1,1.4l7.1,5.7l2.3-2.8l-1.5-1.2
						l1.4-1.7l3,2.4l-6,7.5L113.3,132.9z"/>
					<path class="st8" d="M113.8,117.9l-0.9,0.8l-1.4-1.5l3.8-3.6l1.4,1.5l-1,0.9l7,3.3l-2.9-7.2l-1.1,1l-1.4-1.5l3.8-3.6l1.4,1.5
						l-0.9,0.8l4.2,11.5l-0.9,0.9L113.8,117.9z"/>
					<path class="st8" d="M129.8,115.7l1.2-0.8l-5.1-7.6l-1.2,0.8l-1.1-1.7l8.1-5.5l2.1,3.1l-1.8,1.2l-1-1.5l-3.2,2.2l2,2.9l3.3-2.2
						l1.1,1.6l-3.3,2.2l2.1,3.1l3.2-2.2l-1-1.5l1.8-1.2l2.1,3.1l-8.2,5.5L129.8,115.7z"/>
					<path class="st8" d="M139.6,109.2l1.4-0.6l-3.9-8.2l-1.4,0.6l-0.9-1.8l4.6-2.2c2.7-1.3,5.2-1.1,6.4,1.4
						c0.7,1.5,0.4,3.2-0.7,4.3l3.4,2.4l1.4-0.6l0.9,1.8l-2.7,1.3l-4.5-3.4c-0.2,0.1-0.5,0.3-0.7,0.4c-0.4,0.2-0.7,0.3-1,0.4l1.3,2.7
						l1.5-0.7l0.9,1.8l-4.9,2.3L139.6,109.2z M143.7,99.3c-0.6-1.2-1.9-1.3-3.6-0.6l-1.1,0.5l1.8,3.8c0.2-0.1,0.5-0.2,1.2-0.5
						C143.6,101.9,144.3,100.6,143.7,99.3z"/>
					<path class="st8" d="M155.6,102.3l1.5-0.4l-2.2-8.9l-1.5,0.4l-0.5-2l9.4-2.3l0.9,3.7l-2.1,0.5l-0.4-1.7l-3.7,0.9l0.9,3.7
						l3.8-0.9l0.5,1.9l-3.8,0.9l0.8,3.3l1.7-0.4l0.5,2l-5.3,1.3L155.6,102.3z"/>
					<path class="st8" d="M166.6,99.7l1.5-0.1l-0.9-9.1l-1.5,0.1l-0.2-2l9.8-0.9l0.4,3.7l-2.2,0.2l-0.2-1.8l-3.9,0.4l0.3,3.5l4-0.4
						l0.2,1.9l-4,0.4l0.4,3.7l3.9-0.4l-0.2-1.8l2.2-0.2l0.4,3.7l-9.8,0.9L166.6,99.7z"/>
					<path class="st8" d="M178.3,98.7l1.5,0.1l0.4-9.1l-1.5-0.1l0.1-2l5.1,0.2c3,0.1,5.1,1.5,5,4.2c-0.1,1.7-1.2,3-2.6,3.5l1.9,3.7
						l1.5,0.1l-0.1,2l-3-0.1l-2.4-5.1c-0.3,0-0.5,0-0.8,0c-0.4,0-0.8,0-1.1-0.1l-0.1,3l1.6,0.1l-0.1,2l-5.4-0.2L178.3,98.7z
						 M186.5,92c0.1-1.4-1-2.1-2.9-2.2l-1.2-0.1l-0.2,4.2c0.2,0,0.6,0.1,1.3,0.1C185.2,94.2,186.5,93.4,186.5,92z"/>
					<path class="st8" d="M196.1,93.3l-1.6,6.9l1.6,0.4l-0.4,2l-5.2-1.2l0.4-2l1.5,0.3l2-8.9l-1.5-0.3l0.4-2l3.3,0.8l4.5,9.5
						l1.4-6.1l-1.6-0.4l0.4-2l5.2,1.2l-0.4,2l-1.4-0.3l-2.5,10.9l-1.2-0.2L196.1,93.3z"/>
					<path class="st8" d="M210,104.6l1.4,0.6l3.9-8.2l-1.4-0.6l0.9-1.8l8.8,4.2l-1.6,3.4l-2-0.9l0.8-1.6l-3.4-1.6l-1.6,3.4l3.5,1.7
						l-0.8,1.8l-3.5-1.7l-1.5,3.1l1.6,0.8l-0.9,1.8l-5-2.4L210,104.6z"/>
					<path class="st8" d="M218.7,108.6l1,0.6l7.8-5.8l-1.2-0.8l1.1-1.7l6.2,4.1l-1.1,1.7l-1.2-0.8l-2.3,9.4l1,0.6l-1.1,1.7l-4.2-2.8
						l1.1-1.7l1.3,0.8l0.6-2.2l-4.1-2.7l-1.8,1.4l1.3,0.9l-1.1,1.7l-4.2-2.8L218.7,108.6z M228,110l1.3-5.3l-4.4,3.3L228,110z"/>
					<path class="st8" d="M230.8,116.9l1.1,1l6.2-6.7l-1.1-1l1.4-1.5l3.7,3.5c2.2,2.1,2.9,4.5,1.1,6.4c-1.2,1.2-2.8,1.5-4.3,0.9
						l-1,4l1.1,1l-1.4,1.5l-2.2-2.1l1.5-5.5c-0.2-0.2-0.4-0.3-0.6-0.5c-0.3-0.3-0.6-0.5-0.8-0.8l-2,2.2l1.2,1.1l-1.4,1.5l-4-3.7
						L230.8,116.9z M241.4,117.1c0.9-1,0.6-2.3-0.8-3.5l-0.9-0.8l-2.9,3.1c0.2,0.2,0.4,0.4,0.9,0.9
						C239,117.9,240.5,118.1,241.4,117.1z"/>
					<path class="st8" d="M240,125.3l0.9,1.3l7.6-5.1l-1-1.3l1.6-1.2l2.1,2.9l-3.5,7.6l8.3-1.1l2.1,2.9l-1.6,1.2l-1-1.3l-7.1,5.8
						l0.9,1.3l-1.6,1.2l-3.2-4.3l1.6-1.2l0.9,1.3l5.3-4.3l-7.5,0.9l-0.2-0.2l3.1-7l-5.6,3.8l0.9,1.3l-1.6,1.2l-3.2-4.3L240,125.3z"
						/>
					<path class="st8" d="M250.7,139c0.8-0.4,1.6-0.2,2,0.5c0.4,0.8,0.1,1.6-0.5,1.9c-0.3,0.1-0.5,0.2-0.8,0.2
						c-0.1,0.6,0,1.3,0.4,2.1c0.6,1.3,1.6,1.8,2.7,1.3c1-0.5,0.9-1.7,0.8-3.1c-0.3-2.6-0.4-4.5,1.8-5.6c1.9-0.9,4.1-0.2,5.3,2.2
						c1.1,2.2,0.8,4.5-0.6,5.2c-0.8,0.4-1.6,0.1-1.9-0.5c-0.4-0.8,0-1.6,0.6-1.9c0.3-0.1,0.4-0.2,0.6-0.2c0-0.4-0.1-1-0.4-1.7
						c-0.6-1.2-1.5-1.5-2.4-1.1c-1,0.5-0.9,1.7-0.7,3.1c0.3,2.5,0.4,4.4-1.8,5.5c-2.2,1.1-4.4,0-5.6-2.4
						C248.9,142.3,249.2,139.8,250.7,139z"/>
				</g>
			</g>
			<g>
				<g>
					<path class="st8" d="M92.9,196.5c2.6-0.6,5.1,0.8,5.8,3.5c0.7,2.7-0.9,5-3.5,5.7c-2.6,0.6-5.1-0.8-5.8-3.5
						C88.7,199.5,90.3,197.1,92.9,196.5z M94.8,204.1c1.9-0.5,2.9-2.1,2.5-3.8c-0.4-1.7-2.1-2.7-3.9-2.2c-1.9,0.5-2.9,2.1-2.5,3.8
						C91.3,203.6,92.9,204.5,94.8,204.1z"/>
					<path class="st8" d="M98.7,210.4l-4.6,1.8l0.4,1.1l-1.3,0.5l-1.4-3.5l1.3-0.5l0.4,1l5.9-2.4l-0.4-1l1.3-0.5l0.9,2.2l-3.7,6.4
						l4-1.6l-0.4-1.1l1.3-0.5l1.4,3.4l-1.3,0.5l-0.4-0.9l-7.2,2.9l-0.3-0.8L98.7,210.4z"/>
					<path class="st8" d="M97.8,221.9l8.6,1.1l-1.8-3.1l-1.3,0.8l-0.7-1.2l2.5-1.4l3.5,6.2l-0.8,0.4l-8.6-1.1l2,3.4l1.3-0.8l0.7,1.2
						l-2.5,1.4l-3.7-6.5L97.8,221.9z"/>
					<path class="st8" d="M103.8,231l0.6,0.8l5.2-3.8l-0.6-0.8l1.1-0.8l4.1,5.5l-2.1,1.6l-0.9-1.2l1-0.7l-1.6-2.2l-2,1.5l1.6,2.2
						l-1.1,0.8l-1.6-2.2l-2.1,1.5l1.6,2.2l1-0.7l0.9,1.2l-2.1,1.6l-4.1-5.6L103.8,231z"/>
					<path class="st8" d="M113.4,243.1l0.8,0.7l4.4-4.6l-0.8-0.7l1-1l2.5,2.4c2.4,2.3,2.6,4.9,0.7,6.9c-1.9,2-4.6,2.1-7.2-0.4
						l-2.4-2.3L113.4,243.1z M116,245.5c1.7,1.6,3.5,1.6,4.9,0.1c1.4-1.5,1.1-3.2-0.5-4.8l-0.6-0.5l-4.4,4.6L116,245.5z"/>
					<path class="st8" d="M124.4,250.3l2.6-3.6l-0.8-0.6l0.8-1.1l3,2.2l-0.8,1.1l-0.9-0.6l-2.6,3.5c-0.8,1.1-0.7,2.2,0.3,2.9
						c1,0.7,1.9,0.6,2.8-0.6l2.6-3.6l-0.9-0.6l0.8-1.1l3,2.1l-0.8,1.1l-0.8-0.6l-2.6,3.6c-1.4,2-3.2,2-4.9,0.9
						C123.4,254,123,252.2,124.4,250.3z"/>
					<path class="st8" d="M133.9,256.9l2.1-3.9l-0.9-0.5l0.7-1.2l3.2,1.8l-0.7,1.2l-1-0.5l-2.1,3.8c-0.7,1.2-0.4,2.2,0.6,2.8
						c1,0.6,2,0.3,2.7-1l2.1-3.9l-1-0.5l0.7-1.2l3.2,1.7l-0.7,1.2l-0.9-0.5l-2.1,3.9c-1.1,2.1-2.9,2.5-4.7,1.5
						C133.5,260.7,132.8,259,133.9,256.9z"/>
					<path class="st8" d="M142.9,263.7l1,0.4l2.3-6l-1-0.4l0.5-1.3l3.3,1.3c2,0.8,3.1,2.2,2.4,3.9c-0.4,1.1-1.4,1.7-2.5,1.7l0.4,2.8
						l1,0.4l-0.5,1.3l-2-0.8l-0.5-3.9c-0.2-0.1-0.4-0.1-0.5-0.2c-0.3-0.1-0.5-0.2-0.7-0.3l-0.8,1.9l1.1,0.4l-0.5,1.3l-3.5-1.4
						L142.9,263.7z M149.9,261.1c0.4-0.9-0.2-1.6-1.4-2.1l-0.8-0.3l-1.1,2.8c0.2,0.1,0.4,0.2,0.8,0.4
						C148.6,262.2,149.6,262,149.9,261.1z"/>
					<path class="st8" d="M153.2,268l6.8-5.5l-3.5-0.9l-0.4,1.5l-1.3-0.3l0.7-2.8l6.9,1.8l-0.2,0.9l-6.8,5.5l3.8,1l0.4-1.5l1.3,0.3
						l-0.7,2.8l-7.3-1.9L153.2,268z"/>
					<path class="st8" d="M163.7,270l0.8,0.1l3.1-6.1l-1-0.1l0.2-1.4l5.2,0.6l-0.2,1.4l-1-0.1l1.5,6.6l0.8,0.1l-0.2,1.4l-3.5-0.4
						l0.2-1.4l1.1,0.1l-0.3-1.6l-3.4-0.4l-0.7,1.4l1.1,0.1l-0.2,1.4l-3.5-0.4L163.7,270z M169.9,267.9l-0.8-3.8l-1.7,3.4
						L169.9,267.9z"/>
					<path class="st8" d="M175.9,271.3l1.1,0l0.2-6.4l-1.1,0l0-1.4l2.5-0.1l2.9,5.1l2.7-5.2l2.5-0.1l0,1.4l-1.1,0l0.4,6.4l1.1,0
						l0,1.4l-3.8,0.1l0-1.4l1.1,0l-0.3-4.7l-2.5,4.7l-0.2,0l-2.7-4.6l-0.1,4.7l1.1,0l0,1.4l-3.8,0.1L175.9,271.3z"/>
					<path class="st8" d="M190.3,270.7l1-0.2l-1-6.3l-1,0.2l-0.2-1.4l6.8-1.1l0.4,2.6l-1.5,0.2l-0.2-1.2l-2.7,0.4l0.4,2.4l2.8-0.4
						l0.2,1.3l-2.8,0.4l0.4,2.6l2.7-0.4l-0.2-1.2l1.5-0.2l0.4,2.6l-6.8,1.1L190.3,270.7z"/>
					<path class="st8" d="M205.7,268l2.7-8.3l-3.4,1.2l0.5,1.5l-1.3,0.4l-0.9-2.7l6.8-2.3l0.3,0.8l-2.7,8.3l3.7-1.3l-0.5-1.5
						l1.3-0.4l0.9,2.7l-7.1,2.4L205.7,268z"/>
					<path class="st8" d="M214.3,261c-1.2-2.4-0.4-5.1,2.1-6.4c2.5-1.2,5.1-0.2,6.3,2.2c1.2,2.4,0.4,5.1-2.1,6.4
						C218.1,264.4,215.5,263.4,214.3,261z M221.3,257.5c-0.9-1.7-2.6-2.4-4.2-1.6c-1.6,0.8-2.2,2.6-1.3,4.3c0.9,1.7,2.6,2.4,4.2,1.6
						C221.6,261.1,222.2,259.3,221.3,257.5z"/>
					<path class="st8" d="M227.2,257.9l0.9-0.6l-3.6-5.3l-0.9,0.6l-0.8-1.2l3-2c1.8-1.2,3.5-1.3,4.6,0.3c0.7,1,0.6,2.1,0,3l2.6,1.3
						l0.9-0.6l0.8,1.2l-1.8,1.2l-3.5-1.9c-0.2,0.1-0.3,0.2-0.4,0.3c-0.2,0.2-0.5,0.3-0.6,0.4l1.2,1.7l1-0.6l0.8,1.2L228,259
						L227.2,257.9z M229,250.6c-0.5-0.8-1.5-0.7-2.5,0l-0.7,0.5l1.6,2.5c0.1-0.1,0.3-0.2,0.8-0.5C229.2,252.4,229.6,251.4,229,250.6
						z"/>
					<path class="st8" d="M234.2,249.1c-1.9-2.1-1.6-5,0.5-6.8c1.6-1.4,3.4-1.5,4.2-0.7c0.4,0.5,0.4,1.1,0,1.5
						c-0.5,0.4-1.1,0.4-1.5,0c-0.1-0.1-0.2-0.3-0.2-0.4c-0.3,0-0.9,0.2-1.5,0.8c-1.3,1.2-1.5,3.1-0.2,4.6c1.3,1.5,3.3,1.5,4.5,0.5
						c0.7-0.6,1.1-1.2,1.3-1.9l-1-1.2l-1.7,1.5l-0.9-1l2.9-2.5l3.2,3.6l-1.1,1l-0.5-0.5c-0.2,0.8-0.5,1.6-1.3,2.3
						C239,251.3,236.2,251.3,234.2,249.1z"/>
					<path class="st8" d="M245.4,243.1l0.7-0.8l-4.8-4.2l-0.7,0.8l-1.1-0.9l2.5-2.9l1,0.9l-0.8,0.9l2.4,2.1l-0.3-4.4l-0.7,0.8
						l-1-0.9l2.7-3.1l1.1,0.9l-0.7,0.7l0.2,3.6l4.4,0.8l0.8-0.9l1.1,0.9l-1.5,1.7l-4.9-0.8l0.1,1.9l1.1,1l0.8-0.9l1.1,0.9l-2.5,2.9
						L245.4,243.1z"/>
					<path class="st8" d="M253,234.1l0.6-0.9l-5.3-3.6l-0.6,0.9l-1.2-0.8l3.9-5.7l2.2,1.5l-0.8,1.3l-1-0.7l-1.5,2.3l2,1.4l1.6-2.3
						l1.1,0.8l-1.6,2.3l2.2,1.5l1.5-2.3l-1-0.7l0.8-1.3l2.2,1.5l-3.9,5.7L253,234.1z"/>
					<path class="st8" d="M259.4,224l0.5-1l-5.7-3l-0.8,1.5l1.3,0.7l-0.7,1.3l-2.5-1.3l3.7-7.1l2.5,1.3l-0.7,1.3l-1.3-0.7l-0.8,1.5
						l5.7,3l0.5-1l1.3,0.7l-1.8,3.4L259.4,224z"/>
					<path class="st8" d="M263.4,215.9l0.4-1l-6-2.3l-0.4,1l-1.3-0.5l2.5-6.4l2.5,0.9l-0.5,1.4l-1.2-0.4l-1,2.5l2.3,0.9l1-2.6
						l1.3,0.5l-1,2.6l2.4,0.9l1-2.6l-1.2-0.4l0.5-1.4l2.5,0.9l-2.5,6.4L263.4,215.9z"/>
					<path class="st8" d="M262.8,202.5l4.8,1.2l0.3-1.1l1.4,0.3l-0.9,3.6l-1.4-0.3l0.2-1l-6.2-1.5l-0.2,1l-1.4-0.3l0.6-2.3l6.7-3
						l-4.2-1l-0.3,1.1l-1.4-0.3l0.9-3.6l1.4,0.3l-0.2,1l7.6,1.8l-0.2,0.8L262.8,202.5z"/>
				</g>
			</g>
			<g>
				<defs>
					<polygon id="SVGID_1_" points="272.1,180.2 177,163.5 82.3,182.9 82.3,150.9 179,188.9 272.1,152 					"/>
				</defs>
				<clipPath id="SVGID_2_">
					<use xlink:href="#SVGID_1_"  style="overflow:visible;"/>
				</clipPath>
				<circle class="st9" cx="179.5" cy="179.9" r="86.5"/>
			</g>
		</g>
	</g>
</g>
<g id="Artwork_18">
	<g>
		<defs>
			
				<rect id="SVGID_3_" x="15.9" y="139" transform="matrix(9.757598e-02 -0.9952 0.9952 9.757598e-02 -126.0379 183.9021)" width="45" height="45"/>
		</defs>
		<clipPath id="SVGID_4_">
			<use xlink:href="#SVGID_3_"  style="overflow:visible;"/>
		</clipPath>
		<g class="st10">
			<defs>
				
					<rect id="SVGID_5_" x="15.9" y="139" transform="matrix(9.757598e-02 -0.9952 0.9952 9.757598e-02 -126.0379 183.9021)" width="45" height="45"/>
			</defs>
			<clipPath id="SVGID_6_">
				<use xlink:href="#SVGID_5_"  style="overflow:visible;"/>
			</clipPath>
			<path class="st11" d="M35.9,139.5c1.5-0.2,3.1-0.2,4.7,0c12.1,1.2,21,12,19.8,24.1c-0.2,1.6-0.5,3.1-0.9,4.6l0.3,0.4
				c0.5-1.6,0.9-3.2,1.1-4.9c1.2-12.3-7.9-23.4-20.2-24.6c-1.7-0.2-3.4-0.1-5,0.1L35.9,139.5z"/>
			<path class="st11" d="M40.6,183.4c-1.4,0.1-2.9,0.2-4.4,0c-12.1-1.2-21-12-19.8-24.1c0.1-1.5,0.4-2.9,0.9-4.3l-0.3-0.4
				c-0.5,1.5-0.8,3-1,4.7c-1.2,12.3,7.9,23.4,20.2,24.6c1.6,0.2,3.2,0.1,4.8,0L40.6,183.4z"/>
			<path class="st11" d="M51,149.9c-0.2,0-5-0.5-5.3-0.5c-1.6-0.2-2.4,0.2-3,1.7c-0.2,0.4-0.4,0.9-0.6,1.4c-0.2,0.4-0.4,0.9-0.6,1.4
				c-0.3,0.6-0.5,1.1-0.8,1.5c-0.2,0.3-0.4,0.5-0.8,0.5c-0.4,0-0.6-0.3-0.9-0.5c-1.3-1.5-2.8-2.1-4.5-2.1c-1.6,0.1-3,1.4-3.1,2.8
				c-0.1,1.6,1,3.1,2.6,3.5c1.7,0.4,3.3,0,4.8-1.1c0.3-0.2,0.6-0.3,0.9-0.2c0.2,0,0.4,0.2,0.6,0.5c0.3,0.6,0.8,2.4,0.9,2.9l-0.8,0.2
				c-0.2-0.6-0.6-2.3-0.9-2.7c0-0.1-0.1-0.1-0.1-0.1c0,0-0.1,0-0.2,0.1c-1.7,1.3-3.6,1.7-5.4,1.3c-2-0.4-3.4-2.3-3.2-4.3
				c0,0,0,0,0,0c0.2-1.9,1.9-3.4,3.9-3.5c1.9-0.1,3.6,0.7,5.1,2.3c0.1,0.1,0.2,0.2,0.2,0.2c0,0,0.1-0.1,0.2-0.2
				c0.3-0.3,0.5-0.8,0.7-1.3c0.2-0.4,0.4-0.9,0.5-1.3c0.2-0.5,0.4-0.9,0.6-1.4c0.8-1.8,1.9-2.4,3.9-2.2c0.2,0,3.5,0.3,5.2,0.5
				L51,149.9z"/>
		</g>
		<g class="st10">
			<defs>
				<path id="SVGID_7_" d="M38.1,167.9c0.3,0.5,0.9,0.4,1.1,0.9c0.3,1.1,0.1,0.6,0.4,1.7c0.3,1,0.3,3.2,1.3,3.7
					c3.2,1.6,12.5,1.5,12.8,1.3l1.9-16.4c-0.4,0-10.6-1.1-10.9-1.2c-1.8-0.2-2.7,0.5-3.4,2.2c-0.4,0.9-0.4,1.4-0.8,2.3
					c-0.2,0.5-0.3,1.2-0.6,1.6c-0.2,0.2-0.6,0.4-0.6,0.9c0,0.1,0,0.5,0.7,0c0.3-0.3-0.2,0.6-0.8,1.5
					C38.5,167.1,38.1,167.7,38.1,167.9C38.1,167.9,38.1,167.9,38.1,167.9"/>
			</defs>
			<clipPath id="SVGID_8_">
				<use xlink:href="#SVGID_7_"  style="overflow:visible;"/>
			</clipPath>
			
				<rect x="30.7" y="173.7" transform="matrix(0.7727 -0.6347 0.6347 0.7727 -100.1992 67.8852)" class="st12" width="27.9" height="0.4"/>
			
				<rect x="31.8" y="175" transform="matrix(0.7727 -0.6347 0.6347 0.7727 -100.8069 68.9006)" class="st12" width="27.9" height="0.4"/>
			
				<rect x="29.1" y="171.8" transform="matrix(0.7727 -0.6347 0.6347 0.7727 -99.1319 67.1748)" class="st12" width="30.2" height="0.4"/>
			
				<rect x="27.7" y="169.7" transform="matrix(0.7727 -0.6347 0.6347 0.7727 -97.8523 66.5915)" class="st12" width="32.6" height="0.4"/>
			
				<rect x="26.5" y="167.9" transform="matrix(0.7727 -0.6347 0.6347 0.7727 -96.808 65.8675)" class="st12" width="34.1" height="0.4"/>
			
				<rect x="25.6" y="167.3" transform="matrix(0.7727 -0.6347 0.6347 0.7727 -96.8275 64.5066)" class="st12" width="32.1" height="0.4"/>
			
				<rect x="24.9" y="167.2" transform="matrix(0.7727 -0.6347 0.6347 0.7727 -97.339 62.8513)" class="st12" width="28.5" height="0.4"/>
			
				<rect x="23.7" y="165.8" transform="matrix(0.7727 -0.6347 0.6347 0.7727 -96.7671 61.8446)" class="st12" width="28.5" height="0.4"/>
			
				<rect x="22.7" y="164.5" transform="matrix(0.7727 -0.6347 0.6347 0.7727 -96.1952 60.8377)" class="st12" width="28.3" height="0.4"/>
			
				<rect x="21.6" y="163.2" transform="matrix(0.7727 -0.6347 0.6347 0.7727 -95.6221 59.8296)" class="st12" width="28.3" height="0.4"/>
			
				<rect x="20.5" y="161.9" transform="matrix(0.7727 -0.6347 0.6347 0.7727 -95.0511 58.8242)" class="st12" width="28.3" height="0.4"/>
			
				<rect x="19.3" y="160.6" transform="matrix(0.7727 -0.6347 0.6347 0.7727 -94.478 57.8161)" class="st12" width="28.3" height="0.4"/>
		</g>
		<g class="st10">
			<defs>
				
					<rect id="SVGID_9_" x="15.9" y="139" transform="matrix(9.757598e-02 -0.9952 0.9952 9.757598e-02 -126.0379 183.9021)" width="45" height="45"/>
			</defs>
			<clipPath id="SVGID_10_">
				<use xlink:href="#SVGID_9_"  style="overflow:visible;"/>
			</clipPath>
			<path class="st13" d="M56,159l-0.1,0.8l-1.5-0.1c-4.9-0.5-9.4-0.9-9.6-0.9c-1.6-0.2-2.4,0.2-3,1.7c-0.2,0.4-0.4,0.9-0.6,1.4
				c-0.2,0.4-0.4,0.9-0.6,1.4c-0.3,0.6-0.5,1.1-0.8,1.5c-0.2,0.3-0.4,0.5-0.8,0.5c-0.4,0-0.6-0.3-0.9-0.5c-1.3-1.5-2.8-2.1-4.5-2.1
				c-1.6,0.1-3,1.4-3.1,2.8c0,0,0,0,0,0c-0.1,1.6,1,3.1,2.6,3.5c1.7,0.4,3.3,0,4.8-1.1c0.3-0.2,0.6-0.3,0.9-0.2
				c0.2,0,0.4,0.2,0.6,0.5c0.3,0.6,0.5,1.2,0.7,1.8c0.1,0.5,0.2,1.1,0.3,1.6c0.1,0.6,0.2,1.2,0.4,1.8c0.2,0.7,0.7,1.1,1.8,1.2
				c0.6,0.1,6.2,0.6,6.2,0.6l-0.1,0.8c-0.2,0-5.7-0.5-6.2-0.6c-1-0.1-2.1-0.4-2.5-1.8c-0.2-0.6-0.3-1.3-0.4-1.9
				c-0.1-0.5-0.2-1.1-0.3-1.6c-0.1-0.5-0.3-1-0.6-1.6c0-0.1-0.1-0.1-0.1-0.1c0,0-0.1,0-0.2,0.1c-1.7,1.3-3.6,1.7-5.4,1.3
				c-2-0.4-3.4-2.3-3.2-4.3c0,0,0,0,0,0c0.2-1.9,1.9-3.4,3.9-3.5c1.9-0.1,3.6,0.7,5.1,2.3c0.1,0.1,0.2,0.2,0.2,0.2
				c0,0,0.1-0.1,0.2-0.2c0.3-0.3,0.5-0.8,0.7-1.3c0.2-0.4,0.4-0.9,0.5-1.3c0.2-0.5,0.4-0.9,0.6-1.4c0.8-1.8,1.9-2.4,3.9-2.2
				c0.2,0,6.8,0.7,9.6,0.9L56,159z"/>
			<path class="st13" d="M55,163c-0.5,5.5-3.7,10.1-8.1,12.7l1.8,0.2c4.1-2.9,6.9-7.5,7.4-12.8c0.1-1.3,0.1-2.7-0.1-4l-1.2-0.1
				C55.1,160.2,55.2,161.6,55,163"/>
			<path class="st13" d="M20.5,159.6c-1,9.8,6.2,18.6,16.1,19.6c3.7,0.4,7.2-0.4,10.3-2.1l-2.2-0.2c-2.4,1-5.1,1.4-7.9,1.2
				c-9.2-0.9-15.9-9.1-15-18.3s9.1-15.9,18.3-15c7.4,0.7,13.1,6.1,14.7,12.9l1.2,0.1c-1.5-7.5-7.8-13.4-15.8-14.2
				C30.3,142.5,21.5,149.8,20.5,159.6"/>
		</g>
	</g>
</g>
<g id="Artwork_20">
	<g>
		<defs>
			
				<rect id="SVGID_11_" x="227.9" y="280.9" transform="matrix(0.8396 -0.5432 0.5432 0.8396 -124.7515 184.8324)" width="45.5" height="45.5"/>
		</defs>
		<clipPath id="SVGID_12_">
			<use xlink:href="#SVGID_11_"  style="overflow:visible;"/>
		</clipPath>
		<g class="st14">
			<defs>
				
					<rect id="SVGID_13_" x="227.9" y="280.9" transform="matrix(0.8396 -0.5432 0.5432 0.8396 -124.7515 184.8324)" width="45.5" height="45.5"/>
			</defs>
			<clipPath id="SVGID_14_">
				<use xlink:href="#SVGID_13_"  style="overflow:visible;"/>
			</clipPath>
			<path class="st15" d="M268.5,289.9c7.6,9.8,5.8,24-4,31.6c-9.8,7.6-24,5.8-31.6-4c-7.6-9.8-5.8-24,4-31.6
				C246.8,278.3,260.9,280.1,268.5,289.9z"/>
			<path class="st16" d="M258.3,287.5l1.4,2.1c1.9,1.3,3.6,2.9,5,5c5.1,7.8,2.8,18.3-5,23.4c-7.8,5.1-18.3,2.8-23.4-5
				c-5.1-7.8-2.8-18.3,5-23.4c2.3-1.5,4.8-2.3,7.3-2.6l2-1.3c-3.4,0-6.8,0.9-9.9,2.9c-8.4,5.4-10.8,16.6-5.4,25
				c5.4,8.4,16.6,10.8,25,5.4c8.4-5.4,10.8-16.6,5.4-25C263.8,291,261.2,288.8,258.3,287.5"/>
			<line class="st17" x1="243.4" y1="317.1" x2="257.1" y2="320"/>
			<line class="st17" x1="243.6" y1="315.1" x2="259.7" y2="318.6"/>
			<line class="st17" x1="244.2" y1="312.9" x2="262.2" y2="316.8"/>
			<line class="st17" x1="244.7" y1="310.7" x2="264.1" y2="314.9"/>
			<line class="st17" x1="245.1" y1="308.7" x2="265.5" y2="313.1"/>
			<line class="st17" x1="245.3" y1="306.7" x2="266.7" y2="311.3"/>
			<line class="st17" x1="245.9" y1="304.6" x2="267.2" y2="309.1"/>
			<line class="st17" x1="246.3" y1="302.4" x2="267.4" y2="306.9"/>
			<line class="st17" x1="246.8" y1="300.4" x2="267.9" y2="304.9"/>
			<line class="st17" x1="251.7" y1="299.4" x2="268" y2="302.9"/>
			<line class="st17" x1="252" y1="297.1" x2="267.6" y2="300.5"/>
			<line class="st17" x1="252.4" y1="294.9" x2="267.2" y2="298.1"/>
			<line class="st17" x1="252.9" y1="292.9" x2="266.1" y2="295.8"/>
			<line class="st17" x1="253" y1="291" x2="264.7" y2="293.4"/>
			<polygon class="st16" points="257,290.2 258.1,290.4 254.7,285.1 249.4,288.5 250.5,288.8 253.9,286.5 250.8,300.6 246.4,299.6 
				242.4,319.8 243.2,320 247,300.6 251.4,301.6 254.7,286.7 			"/>
			<polygon class="st18" points="257,290.2 258.1,290.4 254.7,285.1 249.4,288.5 250.5,288.8 253.9,286.5 250.8,300.6 246.4,299.6 
				242.4,319.8 243.2,320 247,300.6 251.4,301.6 254.7,286.7 			"/>
		</g>
	</g>
</g>
<g id="Artwork_19">
	<g>
		<defs>
			
				<rect id="SVGID_15_" x="212.3" y="22.4" transform="matrix(0.4451 -0.8955 0.8955 0.4451 88.5946 241.6331)" width="53.8" height="53.8"/>
		</defs>
		<clipPath id="SVGID_16_">
			<use xlink:href="#SVGID_15_"  style="overflow:visible;"/>
		</clipPath>
		<g class="st19">
			<defs>
				
					<rect id="SVGID_17_" x="212.3" y="22.4" transform="matrix(0.4451 -0.8955 0.8955 0.4451 88.5946 241.6331)" width="53.8" height="53.8"/>
			</defs>
			<clipPath id="SVGID_18_">
				<use xlink:href="#SVGID_17_"  style="overflow:visible;"/>
			</clipPath>
			<polyline class="st20" points="245.1,27.5 251.2,25.5 253.2,31.5 			"/>
			<polyline class="st20" points="257.1,63.2 263.1,61.2 261.1,55.2 			"/>
			<polyline class="st20" points="221.5,35.5 215.5,37.5 217.5,43.5 			"/>
			<polyline class="st20" points="233.5,71.1 227.5,73.1 225.5,67.1 			"/>
			<path class="st21" d="M230.7,32.3c2.7,3.6,4.4,8.3,5.4,11.3c2.2,5.9,2.5,10.6,0.4,14.7l-3.4,6.9"/>
			<path class="st21" d="M236.6,51c-4.2-2.7-7-6.9-7.7-12.2c-0.5-3.7,0.8-6.4,2-6.8c2.4-0.8,6.2,2.4,8.1,5c3,4.3,3.8,10.4-1,14.2"/>
			<path class="st21" d="M236.6,51c-4.2-2.7-7-6.9-7.7-12.2c-0.5-3.7,0.8-6.4,2-6.8c2.4-0.8,6.2,2.4,8.1,5c3,4.3,3.8,10.4-1,14.2"/>
			<path class="st21" d="M253.9,52.5c-5.5-0.7-15.3,1.7-17.8,6.7"/>
			<path class="st21" d="M239.3,56c4.2,2,7.8,2.3,10.9,0.9c2.7-1.2,4.1-3.6,3.9-4.5c-0.5-1.7-4-3-6.3-3.2c-4.5-0.3-7.6,1.7-8.5,5.3"
				/>
		</g>
		<g class="st19">
			<defs>
				<path id="SVGID_19_" d="M239.4,55.7c7.5,4.7,13.9,0.3,14.6-3.2C248,51.9,241.9,54,239.4,55.7"/>
			</defs>
			<clipPath id="SVGID_20_">
				<use xlink:href="#SVGID_19_"  style="overflow:visible;"/>
			</clipPath>
			<line class="st22" x1="237.8" y1="50.6" x2="244" y2="68.9"/>
			<line class="st22" x1="238.9" y1="50.2" x2="245.1" y2="68.5"/>
			<line class="st22" x1="240" y1="49.9" x2="246.5" y2="69.2"/>
			<line class="st22" x1="241" y1="49.5" x2="247.5" y2="68.9"/>
			<line class="st22" x1="242.1" y1="49.2" x2="248.7" y2="68.9"/>
			<line class="st22" x1="243.1" y1="48.8" x2="249.7" y2="68.6"/>
			<line class="st22" x1="244.2" y1="48.5" x2="250.8" y2="68.1"/>
			<line class="st22" x1="245.2" y1="48.1" x2="251.8" y2="67.7"/>
			<line class="st22" x1="246.3" y1="47.8" x2="252.8" y2="67.3"/>
			<line class="st22" x1="247.3" y1="47.4" x2="253.9" y2="66.9"/>
			<line class="st22" x1="248.4" y1="47" x2="254.7" y2="65.8"/>
			<line class="st22" x1="250.1" y1="45.3" x2="256.8" y2="65.1"/>
			<line class="st22" x1="249.4" y1="46.7" x2="255.7" y2="65.4"/>
			<line class="st22" x1="250.9" y1="44.2" x2="257.3" y2="63"/>
			<line class="st22" x1="252.5" y1="45.3" x2="258.2" y2="62.3"/>
		</g>
		<g class="st19">
			<defs>
				<path id="SVGID_21_" d="M233.2,32.2c-0.9-0.4-2.7-0.2-2.7-0.2s1.8,3,4.3,7.8c2.4,4.8,3.1,11.5,3.1,11.5s1.3,0,2.7-3.3
					c1.4-3.3,0.8-6.1-0.5-9.2C238.7,35.8,234.3,32.7,233.2,32.2C233.3,32.2,233.2,32.2,233.2,32.2"/>
			</defs>
			<clipPath id="SVGID_22_">
				<use xlink:href="#SVGID_21_"  style="overflow:visible;"/>
			</clipPath>
			<line class="st23" x1="248" y1="44" x2="229.7" y2="50.2"/>
			<line class="st23" x1="247.7" y1="43" x2="229.3" y2="49.1"/>
			<line class="st23" x1="248.4" y1="45.1" x2="230.1" y2="51.2"/>
			<line class="st23" x1="248.7" y1="46.1" x2="230.4" y2="52.3"/>
			<line class="st23" x1="247.3" y1="41.9" x2="227.9" y2="48.4"/>
			<line class="st23" x1="246.9" y1="40.9" x2="227.6" y2="47.4"/>
			<line class="st23" x1="246.6" y1="39.8" x2="226.9" y2="46.4"/>
			<line class="st23" x1="246.2" y1="38.8" x2="226.5" y2="45.4"/>
			<line class="st23" x1="245.9" y1="37.7" x2="226.3" y2="44.3"/>
			<line class="st23" x1="245.5" y1="36.6" x2="225.9" y2="43.2"/>
			<line class="st23" x1="245.2" y1="35.6" x2="225.7" y2="42.2"/>
			<line class="st23" x1="244.8" y1="34.5" x2="225.3" y2="41.1"/>
			<line class="st23" x1="244.5" y1="33.5" x2="225.7" y2="39.8"/>
			<line class="st23" x1="244.8" y1="31" x2="225" y2="37.7"/>
			<line class="st23" x1="244.1" y1="32.4" x2="225.4" y2="38.7"/>
			<line class="st23" x1="245.2" y1="29.7" x2="226.4" y2="36"/>
			<line class="st23" x1="243.4" y1="29.1" x2="226.4" y2="34.9"/>
		</g>
		<g class="st19">
			<defs>
				
					<rect id="SVGID_23_" x="212.3" y="22.4" transform="matrix(0.4451 -0.8955 0.8955 0.4451 88.5946 241.6331)" width="53.8" height="53.8"/>
			</defs>
			<clipPath id="SVGID_24_">
				<use xlink:href="#SVGID_23_"  style="overflow:visible;"/>
			</clipPath>
			<path class="st24" d="M248.2,32.6c-4.1-2-8.5-2.4-12.6-1.4c0.4,0.3,0.8,0.6,1.2,0.9c3.6-0.7,7.4-0.3,10.9,1.5
				c8.5,4.2,12,14.6,7.7,23.1c-4.2,8.5-14.6,12-23.1,7.7s-12-14.6-7.7-23.1c0.6-1.2,1.3-2.2,2-3.2c-0.1-0.6-0.1-1.1-0.1-1.7
				c-1.2,1.3-2.2,2.7-3,4.3c-4.5,9.1-0.8,20.1,8.3,24.6c9.1,4.5,20.1,0.8,24.6-8.3C260.9,48.2,257.2,37.1,248.2,32.6"/>
		</g>
	</g>
</g>
<g>
	<g>
		<path d="M249.7,231.7c0.2-0.5,0.3-1,0.5-1.5c0.1-0.2,0.1-0.4,0-0.6c0-0.2-0.1-0.4-0.2-0.6c-0.1-0.2-0.2-0.3-0.4-0.4
			c-0.1-0.1-0.3-0.2-0.5-0.3c-0.1,0-0.3,0-0.4-0.1c-0.3,0-0.5,0.1-0.8,0.2c-0.1,0.1-0.2,0.2-0.3,0.2c-0.2,0.2-0.3,0.4-0.4,0.7
			c-0.2,0.5-0.3,1-0.5,1.5c-0.1,0.2-0.1,0.4,0,0.6c0,0.2,0.1,0.4,0.2,0.6c0.1,0.2,0.2,0.3,0.4,0.4c0.1,0.1,0.3,0.2,0.5,0.3
			c0.1,0,0.3,0,0.4,0.1c0.3,0,0.5-0.1,0.8-0.2c0.1-0.1,0.2-0.2,0.3-0.2C249.5,232.1,249.6,231.9,249.7,231.7L249.7,231.7z"/>
	</g>
</g>
<g>
	<defs>
		<polygon id="SVGID_25_" points="201.2,59.2 158.2,59.2 151.2,21.2 207.2,21.2 		"/>
	</defs>
	<clipPath id="SVGID_26_">
		<use xlink:href="#SVGID_25_"  style="overflow:visible;"/>
	</clipPath>
	<circle class="st25" cx="179.2" cy="180.2" r="144"/>
</g>
<g>
	<defs>
		<polygon id="SVGID_27_" points="309.2,288.2 274.2,259.2 287.2,219.2 333.2,236.2 		"/>
	</defs>
	<clipPath id="SVGID_28_">
		<use xlink:href="#SVGID_27_"  style="overflow:visible;"/>
	</clipPath>
	<circle class="st26" cx="179.2" cy="180.2" r="144"/>
</g>
<g>
	<defs>
		<polygon id="SVGID_29_" points="86.2,259.2 49.2,289.2 27.2,235.2 63.2,222.2 		"/>
	</defs>
	<clipPath id="SVGID_30_">
		<use xlink:href="#SVGID_29_"  style="overflow:visible;"/>
	</clipPath>
	<circle class="st27" cx="179.2" cy="180.2" r="144"/>
</g>
</svg>
