<svg xmlns="http://www.w3.org/2000/svg" viewBox="0 0 73.6 73.6"><defs><style>.cls-1{fill:#dad3c5;}</style></defs><title>Asset 3</title><g id="Layer_2" data-name="Layer 2"><g id="Layer_1-2" data-name="Layer 1"><path class="cls-1" d="M36.8,0A36.8,36.8,0,1,0,73.6,36.8,36.84,36.84,0,0,0,36.8,0Zm0,71.66A34.86,34.86,0,1,1,71.66,36.8,34.9,34.9,0,0,1,36.8,71.66Z"/><path class="cls-1" d="M44.74,17.63H23V56H50.64V23.53l-5.9-5.9Zm.54,3.29,2,2h-2ZM37.77,43.47l2.68-2.68-1.38-1.37-1.3,1.3V39.1l2.68-2.67-1.38-1.38L36.8,37.33l-2.27-2.28-1.38,1.38,2.68,2.67v1.62l-1.3-1.3-1.38,1.37,2.68,2.68v2a11.23,11.23,0,0,1-4.49-8.65c0-3.59,2-7,5.46-9.38,3.48,2.4,5.46,5.79,5.46,9.38a11.23,11.23,0,0,1-4.49,8.65Zm0,10.55V47.87c4.09-2.78,6.43-6.79,6.43-11.07,0-4.44-2.51-8.58-6.88-11.37l-.52-.33-.52.33c-4.37,2.79-6.88,6.93-6.88,11.37,0,4.28,2.34,8.29,6.43,11.07V54H24.91V19.58H43.34v5.29h5.35V54Z"/></g></g></svg>