<svg xmlns="http://www.w3.org/2000/svg" viewBox="0 0 73.6 73.6"><defs><style>.cls-1{fill:#dad3c5;}</style></defs><title>Asset 2</title><g id="Layer_2" data-name="Layer 2"><g id="Layer_1-2" data-name="Layer 1"><path class="cls-1" d="M36.8,0A36.8,36.8,0,1,0,73.6,36.8,36.84,36.84,0,0,0,36.8,0Zm0,71.66A34.86,34.86,0,1,1,71.66,36.8,34.9,34.9,0,0,1,36.8,71.66Z"/><path class="cls-1" d="M44.88,22.28H42.94v6.44H30.66V22.28H28.72v6.44H22.28v1.94h6.44V42.94H22.28v1.94h6.44v6.44h1.94V44.88H42.94v6.44h1.94V44.88h6.44V42.94H44.88V30.66h6.44V28.72H44.88ZM42.94,42.94H30.66V30.66H42.94Z"/></g></g></svg>