<svg xmlns="http://www.w3.org/2000/svg" viewBox="0 0 73.6 73.6"><defs><style>.cls-1{fill:#dad3c5;}</style></defs><title>Asset 5</title><g id="Layer_2" data-name="Layer 2"><g id="Layer_1-2" data-name="Layer 1"><path class="cls-1" d="M36.8,0A36.8,36.8,0,1,0,73.6,36.8,36.84,36.84,0,0,0,36.8,0Zm0,71.66A34.86,34.86,0,1,1,71.66,36.8,34.9,34.9,0,0,1,36.8,71.66Z"/><path class="cls-1" d="M49.63,24.81a10,10,0,0,0-7.58,1.37L36.8,29.55l-5.25-3.37A10.07,10.07,0,0,0,20.66,43.11L36.8,53.48,52.93,43.11a10.06,10.06,0,0,0-3.3-18.3ZM39.35,30.22a3.22,3.22,0,1,1-5.1,0l2.55,1.64ZM18.61,31.53A3.22,3.22,0,0,1,18.69,38a8.36,8.36,0,0,1-.52-1.58A8,8,0,0,1,18.61,31.53Zm15,17.58a3.21,3.21,0,0,1,6.32,0l-3.12,2Zm18.28-7.63L41.64,48.06a5.16,5.16,0,0,0-9.75,0L21.72,41.48a8.24,8.24,0,0,1-1.95-1.76,5.16,5.16,0,0,0-.13-10A8.11,8.11,0,0,1,30.5,27.81l2.11,1.36a5.16,5.16,0,1,0,8.38,0l2.11-1.36A8.12,8.12,0,0,1,54,29.74a5.16,5.16,0,0,0-.13,10A8.24,8.24,0,0,1,51.88,41.48Zm3.55-5.11A8.36,8.36,0,0,1,54.91,38,3.22,3.22,0,0,1,55,31.53,8,8,0,0,1,55.43,36.37Z"/></g></g></svg>