<svg xmlns="http://www.w3.org/2000/svg" viewBox="0 0 73.6 73.6"><defs><style>.cls-1{fill:#dad3c5;}</style></defs><title>Asset 4</title><g id="Layer_2" data-name="Layer 2"><g id="Layer_1-2" data-name="Layer 1"><path class="cls-1" d="M36.8,0A36.8,36.8,0,1,0,73.6,36.8,36.84,36.84,0,0,0,36.8,0Zm0,71.66A34.86,34.86,0,1,1,71.66,36.8,34.9,34.9,0,0,1,36.8,71.66Z"/><path class="cls-1" d="M41.91,9.93l1.6-1.18L42.35,7.19l-4.2,3.12,3.12,4.2,1.56-1.16-1.09-1.47a25,25,0,0,1-4,49.48V51.62c4.82-.34,8.24-3.5,8.24-7.78,0-5.36-5.28-7.39-7.74-8.35l-.5-.2V24a7.36,7.36,0,0,1,5.41,3l1.62-1.24a9.3,9.3,0,0,0-7-3.81V9.86h-1a26.94,26.94,0,0,0-5.11,53.39l-1.5,1.11,1.16,1.56,4.1-3.05-3.05-4.1-1.56,1.16,1,1.37a25,25,0,0,1,4-49.48V22.05c-3.82.56-6.74,3.49-6.74,7,0,4.88,4.31,6.72,6.94,7.76h-.2V49.59a9.74,9.74,0,0,1-6.61-4.25l-1.63,1.25a11.77,11.77,0,0,0,8.24,5V63.32h1A26.94,26.94,0,0,0,41.91,9.93Zm2,33.91c0,3.13-2.51,5.46-6.16,5.78V37.52C42.21,39.31,43.93,41.12,43.93,43.84ZM31.17,29.05c0-2.4,2-4.43,4.66-4.94V34.48C33.09,33.26,31.17,31.92,31.17,29.05Z"/></g></g></svg>