<?xml version="1.0" encoding="utf-8"?>
<!-- Generator: Adobe Illustrator 23.0.4, SVG Export Plug-In . SVG Version: 6.00 Build 0)  -->
<svg version="1.1" xmlns="http://www.w3.org/2000/svg" xmlns:xlink="http://www.w3.org/1999/xlink" x="0px" y="0px"
	 viewBox="0 0 216.4 216.4" style="enable-background:new 0 0 216.4 216.4;" xml:space="preserve">
<style type="text/css">
	.st0{display:none;}
	.st1{display:inline;}
	.st2{clip-path:url(#SVGID_2_);fill:#373535;}
	.st3{fill:#373535;}
	.st4{font-family:'MyriadPro-Regular';}
	.st5{font-size:24.7816px;}
	.st6{font-family:'AdobeArabic-Regular';}
	.st7{font-size:24.7815px;}
	.st8{font-size:24.7817px;}
	.st9{font-family:'Arial-BoldMT';}
	.st10{font-size:24.0736px;}
</style>
<g id="Pasture_Raised" class="st0">
	<g class="st1">
		<g>
			<path d="M108.3,199.2c-50.3,0-91.2-40.9-91.2-91.2S58,16.9,108.3,16.9s91.2,40.9,91.2,91.2C199.4,158.3,158.5,199.2,108.3,199.2
				L108.3,199.2z M108.3,20.2c-48.4,0-87.9,39.4-87.9,87.9s39.4,87.9,87.9,87.9c48.5,0,87.9-39.4,87.9-87.9
				C196.1,59.6,156.7,20.2,108.3,20.2L108.3,20.2z"/>
			<g>
				<path d="M60.5,142.3v-0.2c0-5.5,3.9-9.3,9.3-9.3c4.1,0,7.7,1.9,8.1,6.4h-4.1c-0.4-2.1-1.8-3.1-4-3.1c-3.2,0-5,2.4-5,6.1v0.2
					c0,3.5,1.5,6.1,5.1,6.1c3.1,0,4.3-1.8,4.4-3.9h-4.1v-3h8.2v1.9c0,4.9-3.1,8.1-8.6,8.1C63.8,151.6,60.5,147.7,60.5,142.3z"/>
				<path d="M83.9,133h6.6c4.3,0,7.1,1.8,7.1,5.6v0.1c0,2.8-1.6,4.2-3.8,4.9l4.8,7.8h-4.4l-4.4-7.1h-1.8v7.1h-4.1
					C83.9,151.3,83.9,133,83.9,133z M90.4,141.4c2.1,0,3.1-0.9,3.1-2.6v-0.1c0-1.9-1.1-2.5-3.1-2.5h-2.3v5.2H90.4z"/>
				<path d="M108.1,133h5.4l5.9,18.3h-4.3l-1.2-4.1h-6.6l-1.2,4.1h-3.9L108.1,133z M108.2,144.3h4.8l-2.4-7.9L108.2,144.3z"/>
				<path d="M123,145.6h4c0.2,1.6,0.9,3,3.6,3c1.8,0,3-1,3-2.4c0-1.5-0.8-2-3.4-2.4c-4.7-0.6-6.6-2-6.6-5.6c0-3.1,2.6-5.4,6.7-5.4
					c4.1,0,6.5,1.8,6.9,5.5h-3.8c-0.3-1.7-1.2-2.4-3-2.4s-2.7,0.8-2.7,2.1c0,1.3,0.6,1.9,3.4,2.3c4.4,0.6,6.7,1.8,6.7,5.6
					c0,3.2-2.7,5.8-7,5.8C125.5,151.6,123.2,149.2,123,145.6z"/>
				<path d="M141.5,145.6h4c0.2,1.6,0.9,3,3.6,3c1.8,0,3-1,3-2.4c0-1.5-0.8-2-3.4-2.4c-4.7-0.6-6.6-2-6.6-5.6c0-3.1,2.6-5.4,6.6-5.4
					c4.1,0,6.5,1.8,6.9,5.5h-3.8c-0.3-1.7-1.2-2.4-3-2.4s-2.7,0.8-2.7,2.1c0,1.3,0.6,1.9,3.4,2.3c4.4,0.6,6.7,1.8,6.7,5.6
					c0,3.2-2.7,5.8-7,5.8C144,151.6,141.7,149.2,141.5,145.6z"/>
				<path d="M82.9,159h11.7v3.2H87v4.8h6v3.1h-6v7.1h-4.2C82.9,177.3,82.9,159,82.9,159z"/>
				<path d="M100.4,159h11.9v3.2h-7.8v4.3h6.2v3h-6.2v4.6h8.2v3.2h-12.3V159L100.4,159z"/>
				<path d="M118.1,159h6c6.4,0,9.6,3.5,9.6,8.9v0.2c0,5.5-3.2,9.1-9.6,9.1h-6C118.1,177.3,118.1,159,118.1,159z M123.9,174.1
					c3.7,0,5.4-2.1,5.4-5.9V168c0-3.8-1.6-5.8-5.5-5.8h-1.6v11.8L123.9,174.1L123.9,174.1z"/>
			</g>
			<path d="M67.3,82.3l10.6,10.6C74.6,88.4,71,85,67.3,82.3z"/>
			<path d="M133.4,62.2l-0.6-0.6c-0.2,0.2-0.3,0.3-0.5,0.5l0.7,0.7C133.1,62.6,133.2,62.4,133.4,62.2z"/>
			<path d="M148.9,78.8l1.1,1.1c0.1-0.2,0.2-0.4,0.3-0.6l-0.9-0.9C149.3,78.5,149.1,78.6,148.9,78.8z"/>
			<path d="M134.4,60.3l-0.1-0.1c-0.2,0.2-0.3,0.3-0.5,0.5l0.3,0.3C134.1,60.7,134.3,60.5,134.4,60.3z"/>
			<path d="M151.1,77.1c-0.2,0.1-0.4,0.3-0.5,0.4l0.5,0.5c0.1-0.2,0.2-0.4,0.3-0.6L151.1,77.1z"/>
			<path d="M93.8,58L93.8,58c0,0.3,0,0.7,0.1,1l0.6,0.6C94.3,59,94,58.5,93.8,58z"/>
			<path d="M185.7,121.6h-52.5c2.4-18.8,19.6-44.2,19.8-44.4l1.9-2.8l-2.8,1.8c-20.7,13.6-28.2,41.3-29.2,45.4h-4.4
				c0.8-4.4,5.8-25.1,26.8-42.1l-0.8-1c-15.5,12.5-22.4,27.1-25.3,35.9c3.8-32.6,17.2-54.8,17.3-55.1l2.5-4.1l-3.5,3.3
				c-23.3,21.8-27.9,57.5-28.5,63.1h-8.3c0.3-1.3,0.7-2.6,0.9-3.9c2.5-9.3,9.7-30.8,25.2-49.7l-1-0.8c-11.5,14-18.5,29.5-22.4,40.4
				c3.1-23.9-3.1-41.1-6.4-48.1L93,55.5l0.6,4.5c0,0.3,4,28.8-4.2,59.3c-0.6-2.8-1.8-7.3-3.8-12.3c0.8-1.7,6.5-15.2,6.9-37.4l-1.3,0
				c-0.4,19.1-4.8,31.7-6.3,35.7C81.3,96.7,75.4,87,66,81.3l-3.1-1.9l2.2,2.9c12.3,15.8,15.7,35.8,16.2,39.4h-6.1
				c2.6-6.5,1.2-15.6-3.9-26.3l-1.2,0.6c5.1,10.5,6.3,19.6,3.7,25.7H30.8v1.3h58.7l0.1,0c0,0,0,0,0,0h96L185.7,121.6L185.7,121.6z
				 M150,79.3c-0.4,0.6-0.8,1.2-1.2,1.9l-0.5-0.5C148.8,80.2,149.4,79.8,150,79.3z M147.8,81.1l0.7,0.7c-0.2,0.4-0.5,0.8-0.8,1.2
				l-1-1C147,81.7,147.4,81.4,147.8,81.1z M146.2,82.5l1.1,1.1c-0.2,0.4-0.5,0.8-0.7,1.3l-1.4-1.4C145.5,83.2,145.9,82.8,146.2,82.5
				z M144.7,83.9l1.5,1.5c-0.2,0.4-0.5,0.8-0.7,1.3l-1.8-1.8C144,84.6,144.4,84.3,144.7,83.9z M143.2,85.4l1.9,1.9
				c-0.2,0.4-0.5,0.8-0.7,1.3l-2.2-2.2C142.6,86.1,142.9,85.8,143.2,85.4z M141.9,87l2.3,2.3c-0.2,0.4-0.5,0.9-0.7,1.3l-2.5-2.5
				C141.2,87.7,141.6,87.3,141.9,87z M140.5,88.6l2.6,2.6c-0.2,0.4-0.5,0.9-0.7,1.3l-2.8-2.8C139.9,89.3,140.2,88.9,140.5,88.6z
				 M139.2,90.2l2.9,2.9c-0.2,0.4-0.4,0.9-0.7,1.3l-3-3C138.6,91,138.9,90.6,139.2,90.2z M138,91.9l3.1,3.1
				c-0.2,0.4-0.4,0.9-0.7,1.3l-3.3-3.3C137.4,92.7,137.7,92.3,138,91.9z M136.8,93.6l3.4,3.4c-0.2,0.4-0.4,0.9-0.6,1.4l-3.5-3.5
				C136.2,94.4,136.5,94,136.8,93.6z M135.6,95.4l3.6,3.6c-0.2,0.5-0.4,0.9-0.6,1.4l-3.7-3.7C135.1,96.2,135.3,95.8,135.6,95.4z
				 M134.5,97.2l3.8,3.8c-0.2,0.5-0.4,0.9-0.6,1.4l-3.9-3.9C134,98.1,134.2,97.6,134.5,97.2z M133.4,99.1l4,4
				c-0.2,0.5-0.4,0.9-0.6,1.4l-4.1-4.1C132.9,99.9,133.1,99.5,133.4,99.1z M132.3,100.9l4.2,4.2c-0.2,0.5-0.4,1-0.6,1.4l-4.3-4.3
				C131.9,101.8,132.1,101.4,132.3,100.9z M131.3,102.9l4.4,4.4c-0.2,0.5-0.4,1-0.5,1.5l-4.5-4.5
				C130.9,103.8,131.1,103.3,131.3,102.9z M130.4,104.8l4.6,4.5c-0.2,0.5-0.3,1-0.5,1.5l-4.7-4.7
				C129.9,105.8,130.1,105.3,130.4,104.8z M129.4,106.9l4.7,4.7c-0.2,0.5-0.3,1-0.5,1.5l-4.9-4.9C129,107.8,129.2,107.3,129.4,106.9
				z M128.5,108.9l4.9,4.9c-0.1,0.5-0.3,1.1-0.4,1.6l-5.1-5.1C128.1,109.9,128.3,109.4,128.5,108.9z M127.7,111l5.2,5.2
				c-0.1,0.6-0.3,1.1-0.4,1.6l-5.4-5.4C127.3,112,127.5,111.5,127.7,111z M126.9,113.1l5.5,5.5c-0.1,0.6-0.2,1.1-0.3,1.7l-5.7-5.7
				C126.5,114.1,126.7,113.6,126.9,113.1z M126.1,115.3l5.8,5.8c0,0.2,0,0.3-0.1,0.5h-1.5l-4.8-4.8
				C125.8,116.3,125.9,115.8,126.1,115.3z M125.4,117.5l4.1,4.1h-2l-2.6-2.6C125,118.6,125.2,118,125.4,117.5z M124.3,121.3
				c0.1-0.4,0.2-0.9,0.4-1.6l1.8,1.8h-2L124.3,121.3z M132.9,62.7c-0.3,0.5-0.6,1.2-0.9,1.8l-0.4-0.4
				C132.1,63.6,132.5,63.1,132.9,62.7z M131.2,64.6l0.5,0.5c-0.2,0.4-0.4,0.9-0.6,1.4l-0.8-0.8C130.6,65.3,130.9,64.9,131.2,64.6z
				 M129.9,66.2l0.9,0.9c-0.2,0.4-0.4,0.9-0.6,1.4l-1.2-1.2C129.3,66.9,129.6,66.6,129.9,66.2z M128.6,67.8l1.3,1.3
				c-0.2,0.4-0.4,0.9-0.6,1.4l-1.6-1.6C128,68.6,128.3,68.2,128.6,67.8z M127.3,69.5l1.7,1.7c-0.2,0.5-0.4,0.9-0.6,1.4l-1.9-1.9
				C126.8,70.3,127,69.9,127.3,69.5z M126.1,71.2l2,2.1c-0.2,0.5-0.4,0.9-0.6,1.4l-2.3-2.3C125.6,72,125.8,71.6,126.1,71.2z
				 M124.9,73l2.4,2.4c-0.2,0.5-0.4,1-0.6,1.4l-2.6-2.6C124.4,73.8,124.7,73.4,124.9,73z M123.8,74.8l2.7,2.7
				c-0.2,0.5-0.4,1-0.5,1.5L123,76C123.3,75.6,123.5,75.2,123.8,74.8z M122.7,76.6l3.1,3.1c-0.2,0.5-0.3,1-0.5,1.5l-3.3-3.3
				C122.2,77.4,122.4,77,122.7,76.6z M121.6,78.5l3.4,3.4c-0.2,0.5-0.3,1-0.5,1.5l-3.6-3.6C121.1,79.3,121.4,78.9,121.6,78.5z
				 M120.6,80.4l3.7,3.7c-0.2,0.5-0.3,1-0.5,1.5l-3.9-3.9C120.1,81.3,120.3,80.8,120.6,80.4z M119.6,82.3l3.9,3.9
				c-0.2,0.5-0.3,1-0.5,1.5l-4.2-4.2C119.2,83.2,119.4,82.8,119.6,82.3z M118.6,84.3l4.2,4.2c-0.2,0.5-0.3,1-0.4,1.6l-4.4-4.4
				C118.2,85.2,118.4,84.8,118.6,84.3z M117.7,86.3l4.5,4.5c-0.1,0.5-0.3,1.1-0.4,1.6l-4.7-4.7C117.3,87.2,117.5,86.8,117.7,86.3z
				 M116.8,88.4l4.8,4.8c-0.1,0.5-0.3,1.1-0.4,1.6l-5-5C116.4,89.3,116.6,88.8,116.8,88.4z M116,90.5l5,5c-0.1,0.5-0.3,1.1-0.4,1.6
				l-5.2-5.2C115.6,91.4,115.8,90.9,116,90.5z M115.2,92.6l5.3,5.3c-0.1,0.5-0.2,1.1-0.4,1.6l-5.5-5.5
				C114.8,93.6,115,93.1,115.2,92.6z M114.4,94.7l5.6,5.6c-0.1,0.6-0.2,1.1-0.3,1.7l-5.7-5.7C114,95.7,114.2,95.2,114.4,94.7z
				 M113.6,96.9l5.8,5.8c-0.1,0.6-0.2,1.1-0.3,1.7l-6-6C113.3,97.9,113.5,97.4,113.6,96.9z M112.9,99.2l6.1,6.1
				c-0.1,0.6-0.2,1.1-0.3,1.7l-6.2-6.2C112.6,100.2,112.8,99.7,112.9,99.2z M112.2,101.4l6.3,6.3c-0.1,0.6-0.2,1.2-0.3,1.7l-6.5-6.5
				C111.9,102.5,112.1,101.9,112.2,101.4z M111.6,103.7l6.6,6.6c-0.1,0.6-0.2,1.2-0.2,1.8l-6.7-6.7
				C111.3,104.8,111.5,104.2,111.6,103.7z M111,106.1l6.8,6.8c-0.1,0.6-0.2,1.2-0.2,1.8l-7-7C110.7,107.1,110.8,106.6,111,106.1z
				 M110.4,108.4l7.1,7.1c-0.1,0.6-0.1,1.2-0.2,1.8l-7.3-7.3C110.2,109.5,110.3,109,110.4,108.4z M109.9,110.8l7.3,7.3
				c-0.1,0.6-0.1,1.2-0.2,1.8l-7.5-7.5C109.7,111.9,109.8,111.4,109.9,110.8z M109.4,113.3l7.6,7.6c0,0.2,0,0.5-0.1,0.7h-1.3
				l-6.6-6.6C109.2,114.4,109.3,113.9,109.4,113.3z M108.9,115.8l5.8,5.8h-2l-4.1-4.1C108.8,116.9,108.8,116.4,108.9,115.8z
				 M108.6,118.3l3.3,3.3h-2l-1.5-1.5C108.4,119.6,108.5,119,108.6,118.3z M108.2,120.9l0.7,0.7h-0.8
				C108.2,121.4,108.2,121.2,108.2,120.9z M100.7,94.8l-5.2-5.2c0-0.6,0.1-1.3,0.1-1.9l5.1,5.1C100.7,93.4,100.7,94.1,100.7,94.8z
				 M100.6,91.8l-5-5c0-0.6,0.1-1.3,0.1-1.9l4.8,4.8C100.6,90.4,100.6,91.1,100.6,91.8z M100.5,88.7L95.8,84c0-0.7,0-1.3,0.1-1.9
				l4.5,4.5C100.4,87.3,100.4,88,100.5,88.7z M100.2,85.5l-4.3-4.3c0-0.7,0-1.3,0-2l4.1,4.1C100,84,100.1,84.7,100.2,85.5z
				 M99.8,82.2l-3.9-3.9c0-0.7,0-1.3,0-2l3.6,3.6C99.6,80.6,99.7,81.4,99.8,82.2z M99.3,78.7l-3.4-3.4c0-0.7,0-1.4,0-2l2.9,2.9
				C98.9,77,99.1,77.8,99.3,78.7z M98.5,75l-2.7-2.7c0-0.7-0.1-1.4-0.1-2.1l2.2,2.2C98.1,73.2,98.3,74.1,98.5,75z M97.6,71.1
				l-1.9-1.9c0-0.7-0.1-1.4-0.1-2.1l1.2,1.2C97,69.2,97.3,70.1,97.6,71.1z M96.3,66.9l-0.8-0.8c-0.1-0.7-0.1-1.3-0.1-1.9
				C95.7,65.1,96,66,96.3,66.9z M95.4,90.5l5.2,5.2c0,0.7,0,1.3,0,2l-5.4-5.4C95.3,91.7,95.4,91.1,95.4,90.5z M95.2,93.2l5.4,5.4
				c0,0.6-0.1,1.3-0.1,1.9L95,95C95.1,94.4,95.2,93.8,95.2,93.2z M95,95.9l5.5,5.5c0,0.6-0.1,1.2-0.1,1.9l-5.6-5.6
				C94.8,97.1,94.9,96.5,95,95.9z M94.7,98.5l5.6,5.6c-0.1,0.6-0.1,1.2-0.2,1.8l-5.6-5.6C94.5,99.7,94.6,99.1,94.7,98.5z
				 M94.3,101.1l5.7,5.7c-0.1,0.6-0.2,1.2-0.2,1.8l-5.7-5.7C94.2,102.3,94.2,101.7,94.3,101.1z M93.9,103.7l5.7,5.7
				c-0.1,0.6-0.2,1.2-0.3,1.7l-5.7-5.7C93.8,104.8,93.9,104.3,93.9,103.7z M93.5,106.2l5.7,5.7c-0.1,0.6-0.2,1.1-0.3,1.7l-5.7-5.7
				C93.3,107.4,93.4,106.8,93.5,106.2z M93.1,108.7l5.7,5.7c-0.1,0.6-0.2,1.1-0.3,1.7l-5.7-5.7C92.9,109.8,93,109.3,93.1,108.7z
				 M92.6,111.2l5.7,5.7c0,0.2-0.1,0.4-0.1,0.6c-0.1,0.3-0.2,0.7-0.3,1l-5.6-5.6C92.4,112.3,92.5,111.7,92.6,111.2z M92.1,113.6
				l5.6,5.6c-0.2,0.6-0.3,1.2-0.4,1.6l-5.6-5.6C91.9,114.7,92,114.1,92.1,113.6z M91.6,116l5.6,5.6c0,0,0,0,0,0.1h-1.9l-4-4
				C91.3,117.1,91.4,116.5,91.6,116z M91,118.3l3.2,3.2h-2l-1.7-1.7C90.7,119.4,90.8,118.9,91,118.3z M91.3,121.6h-1.2
				c0.1-0.3,0.2-0.6,0.3-0.9L91.3,121.6z M68.5,84.6c4.3,3.4,7.8,7.6,10.5,12l-7.9-7.9C70.3,87.3,69.4,85.9,68.5,84.6z M72.3,90.9
				l8,8c0.8,1.4,1.5,2.8,2.1,4.1l-8-8C73.8,93.6,73.1,92.2,72.3,90.9z M75.2,96.7l8,8c0.5,1.2,1,2.3,1.4,3.4l-7.9-7.9
				C76.2,99.1,75.8,97.9,75.2,96.7z M77.3,101.7l7.9,7.9c0.4,1.1,0.7,2.1,1,3l-7.8-7.8C78.1,103.9,77.7,102.8,77.3,101.7z
				 M78.9,106.3l7.7,7.7c0.3,1,0.6,1.9,0.8,2.8l-7.6-7.6C79.6,108.3,79.3,107.3,78.9,106.3z M80.2,110.5l7.5,7.5
				c0.2,1,0.4,1.9,0.6,2.6l-7.4-7.4C80.7,112.4,80.5,111.5,80.2,110.5z M88.3,121.6h-2l-4.5-4.5c-0.2-0.8-0.4-1.6-0.6-2.6
				L88.3,121.6z M82.5,120.7c-0.1-0.6-0.2-1.4-0.4-2.4l3.3,3.3h-2L82.5,120.7z"/>
		</g>
		<g>
			<g>
				<g>
					<g>
						<g>
							<path d="M42.7,87.4l0.5-1.2l-7.5-2.8l-0.5,1.2L34,84.1l1.5-3.9c0.8-2.1,2.6-3.2,4.6-2.5c2.1,0.8,2.7,2.8,1.8,5.1
								c-0.2,0.5-0.4,1-0.5,1.2l2.3,0.9l0.5-1.3l1.2,0.5l-1.5,3.9L42.7,87.4z M39.5,79.1c-1.2-0.5-2.3,0.3-2.9,1.6L36.2,82l4,1.5
								c0.1-0.2,0.3-0.7,0.5-1.3C41.3,80.8,40.8,79.6,39.5,79.1z"/>
							<path d="M47,76.7l0.5-0.8l-5.3-6.7l-0.6,1l-1.1-0.7l2.8-4.5l1.1,0.7l-0.6,1l8.4,1.7l0.5-0.8l1.1,0.7l-2,3.2l-1.1-0.7l0.6-1.1
								L49,69.2l-2.2,3.6l1.5,1.8l0.7-1.1l1.1,0.7l-2,3.2L47,76.7z M47.8,68.9l-4.8-1l3.1,3.9L47.8,68.9z"/>
							<path d="M54.7,63.8c-0.5-0.5-0.5-1-0.2-1.5c0.4-0.4,1-0.4,1.3-0.1c0.2,0.2,0.3,0.4,0.4,0.6c0.5-0.1,1.2-0.4,1.7-1
								c0.9-1,1-2,0.2-2.7c-0.7-0.7-1.7-0.3-2.8,0.3c-1.8,0.9-3.2,1.5-4.6,0.2c-1.2-1.1-1.2-3,0.2-4.5c1.3-1.4,3-1.8,3.8-1
								c0.5,0.5,0.5,1,0.1,1.4c-0.4,0.5-1,0.4-1.4,0.1c-0.2-0.2-0.3-0.3-0.3-0.5c-0.4,0-1,0.4-1.4,0.9c-0.8,0.9-0.8,1.8-0.2,2.4
								c0.8,0.7,1.7,0.3,2.9-0.3c1.7-0.9,3.2-1.5,4.5-0.2c1.4,1.3,1.2,3.2-0.2,4.7C57.5,64.2,55.5,64.5,54.7,63.8z"/>
							<path d="M65.5,54.4l1.1-0.8l-4.8-6.5l-1.9,1.4l1,1.4l-1.1,0.8L58,48.3l7.2-5.4l1.8,2.4l-1.1,0.8l-1-1.4l-1.9,1.4l4.8,6.5
								l1.1-0.8l0.8,1l-3.4,2.5L65.5,54.4z"/>
							<path d="M74.6,45.4l-2.4-5L71,40.8l-0.6-1.2l3.7-1.7l0.6,1.2l-1.2,0.6l2.3,5c0.8,1.6,2,2.1,3.4,1.4c1.4-0.7,1.9-1.8,1.1-3.5
								l-2.3-5l-1.2,0.6L76.2,37l3.7-1.7l0.6,1.2L79.3,37l2.3,5c1.1,2.4,0.3,4.3-1.8,5.3C77.6,48.3,75.7,47.7,74.6,45.4z"/>
							<path d="M88.1,42.3l1.3-0.3l-1.9-7.8l-1.3,0.3l-0.3-1.3l4-1c2.3-0.6,4.2,0.2,4.6,2.1c0.3,1.4-0.3,2.6-1.4,3.3l2.7,2.7
								l1.2-0.3l0.3,1.3L95.1,42l-3.3-3.5c-0.2,0.1-0.4,0.1-0.6,0.2c-0.4,0.1-0.8,0.2-1.1,0.2l0.7,2.8l1.3-0.3l0.3,1.3l-4,1
								L88.1,42.3z M93.1,34.8c-0.3-1.2-1.4-1.6-3-1.2l-1.2,0.3l0.9,3.7c0.3,0,0.6-0.1,1.2-0.2C92.5,37,93.4,36,93.1,34.8z"/>
							<path d="M101.2,39.7l1.3-0.1l-0.4-8l-1.3,0.1l-0.1-1.3l7.8-0.4l0.1,2.8l-1.4,0.1l-0.1-1.5l-3.7,0.2l0.2,3.3l3.4-0.2l0.1,1.3
								l-3.4,0.2l0.2,3.5l3.7-0.2l-0.1-1.5l1.4-0.1l0.1,2.8l-7.8,0.3L101.2,39.7z"/>
							<path d="M121.5,40.5l1.2,0.3l2-7.8l-1.2-0.3l0.3-1.3l3.9,1c2.3,0.6,3.6,2.1,3.1,4c-0.4,1.4-1.5,2.1-2.8,2.3l1.1,3.7l1.2,0.3
								l-0.3,1.3l-2.2-0.6l-1.3-4.7c-0.2,0-0.4-0.1-0.6-0.1c-0.4-0.1-0.8-0.2-1-0.3l-0.7,2.8l1.3,0.3l-0.3,1.3l-4-1L121.5,40.5z
								 M129.4,36.3c0.3-1.2-0.5-2.1-2-2.5l-1.2-0.3l-1,3.7c0.3,0.1,0.6,0.2,1.1,0.3C127.9,37.9,129.1,37.5,129.4,36.3z"/>
							<path d="M133.9,44.1l0.9,0.4l6.2-5.9l-1.1-0.5l0.6-1.2l4.8,2.4l-0.6,1.2l-1.1-0.5l-0.9,8.5l0.9,0.4l-0.6,1.2l-3.4-1.7
								l0.6-1.2l1.1,0.5l0.3-2.4l-3.8-1.9l-1.7,1.7l1.2,0.6l-0.6,1.2l-3.4-1.7L133.9,44.1z M141.8,44.1l0.6-4.9l-3.6,3.4L141.8,44.1
								z"/>
							<path d="M147.2,51.5l1.1,0.8l4.7-6.5L152,45l0.8-1l3.4,2.5l-0.8,1l-1.1-0.8l-4.7,6.5l1.1,0.8l-0.8,1l-3.4-2.5L147.2,51.5z"/>
							<path d="M155.2,56.6c0.5-0.5,1.1-0.5,1.5-0.1c0.4,0.4,0.4,1,0.1,1.3c-0.2,0.2-0.4,0.3-0.6,0.3c0,0.5,0.4,1.2,1,1.8
								c0.9,0.9,1.9,1.1,2.7,0.3c0.7-0.7,0.4-1.7-0.1-2.8c-0.8-1.9-1.3-3.3,0-4.6c1.2-1.2,3-1.1,4.4,0.4c1.3,1.3,1.6,3.1,0.8,3.9
								c-0.5,0.5-1,0.4-1.4,0.1c-0.4-0.4-0.4-1,0-1.4c0.2-0.2,0.4-0.2,0.5-0.3c0-0.4-0.3-1-0.8-1.5c-0.8-0.8-1.8-0.9-2.4-0.3
								c-0.7,0.7-0.4,1.7,0.2,2.9c0.8,1.8,1.3,3.2,0,4.5c-1.4,1.4-3.3,1.1-4.7-0.4C154.6,59.4,154.4,57.4,155.2,56.6z"/>
							<path d="M162.9,66.2l0.7,1.1l6.6-4.5l-0.7-1.1l1.1-0.7l4.4,6.5l-2.3,1.6l-0.8-1.2l1.2-0.8l-2.1-3l-2.7,1.8l1.9,2.8l-1.1,0.7
								l-1.9-2.8l-2.9,2l2.1,3l1.2-0.8l0.8,1.2l-2.3,1.6l-4.4-6.5L162.9,66.2z"/>
							<path d="M169.8,76.9l0.5,1.2l7.4-3.1l-0.5-1.2l1.2-0.5l1.5,3.7c1.4,3.5,0.5,6.4-2.5,7.7c-3,1.2-5.9,0-7.4-3.7l-1.5-3.6
								L169.8,76.9z M171.3,80.7c1.1,2.8,3.3,3.5,5.5,2.6c2.3-0.9,2.9-3.2,1.8-5.8l-0.5-1.1l-7.4,3.1L171.3,80.7z"/>
						</g>
					</g>
				</g>
			</g>
		</g>
	</g>
</g>
<g id="Layer_2">
	<g>
		<defs>
			<rect id="SVGID_1_" x="14.9" y="8.3" width="184.6" height="197.3"/>
		</defs>
		<clipPath id="SVGID_2_">
			<use xlink:href="#SVGID_1_"  style="overflow:visible;"/>
		</clipPath>
		<path class="st2" d="M108.3,197.2c-49.8,0-90.3-40.5-90.3-90.3s40.5-90.3,90.3-90.3s90.3,40.5,90.3,90.3S158.1,197.2,108.3,197.2
			 M108.3,19.9c-48,0-87,39-87,87s39,87,87,87s87-39,87-87S156.3,19.9,108.3,19.9"/>
		<path class="st2" d="M67.6,81.4l10.4,10.4C74.9,87.4,71.4,84.1,67.6,81.4"/>
		<path class="st2" d="M133.1,61.5l-0.6-0.6c-0.2,0.2-0.3,0.3-0.5,0.5l0.7,0.7C132.9,61.9,133,61.7,133.1,61.5"/>
		<path class="st2" d="M148.6,77.9l1.1,1.1c0.1-0.2,0.2-0.4,0.3-0.6l-0.9-0.9C148.9,77.6,148.7,77.7,148.6,77.9"/>
		<path class="st2" d="M134.1,59.6l-0.1-0.1c-0.2,0.2-0.3,0.3-0.5,0.5l0.3,0.3C133.9,60,134,59.8,134.1,59.6"/>
		<path class="st2" d="M150.7,76.2c-0.2,0.1-0.4,0.3-0.5,0.4l0.5,0.5c0.1-0.2,0.2-0.4,0.3-0.6L150.7,76.2z"/>
		<path class="st2" d="M94,57.3L94,57.3c0,0.3,0,0.7,0.1,1l0.6,0.6C94.4,58.3,94.2,57.8,94,57.3"/>
		<path class="st2" d="M185,120.3h-52c2.3-18.6,19.4-43.8,19.6-44l1.9-2.7l-2.8,1.8c-20.5,13.5-28,40.9-29,45h-4.4
			c0.8-4.4,5.7-24.9,26.5-41.7l-0.8-1c-15.4,12.4-22.2,26.9-25.1,35.6c3.8-32.3,17-54.3,17.1-54.6l2.5-4.1l-3.5,3.3
			c-23.1,21.5-27.6,57-28.2,62.5h-8.3c0.3-1.3,0.7-2.6,0.9-3.8c2.5-9.2,9.6-30.6,25-49.2l-1-0.8c-11.4,13.9-18.3,29.2-22.2,40
			c3-23.7-3.1-40.7-6.3-47.6l-1.9-4l0.6,4.4c0,0.3,3.9,28.5-4.2,58.8c-0.6-2.8-1.8-7.2-3.8-12.2c0.8-1.7,6.5-15.1,6.9-37l-1.3,0
			c-0.4,18.9-4.7,31.4-6.3,35.3c-3.6-8.4-9.4-18-18.7-23.7l-3.1-1.9l2.2,2.9c12.2,15.7,15.5,35.5,16,39h-6.1
			c2.6-6.4,1.2-15.4-3.9-26.1l-1.2,0.6c5,10.4,6.3,19.5,3.6,25.5H31.5v1.3h58.2l0.1,0c0,0,0,0,0,0H185V120.3z M149.6,78.4
			c-0.4,0.6-0.7,1.2-1.2,1.9l-0.5-0.5C148.4,79.3,149,78.9,149.6,78.4 M147.4,80.2l0.7,0.7c-0.2,0.4-0.5,0.8-0.7,1.2l-1-1
			C146.7,80.8,147,80.5,147.4,80.2 M145.8,81.6l1.1,1.1c-0.2,0.4-0.5,0.8-0.7,1.2l-1.4-1.4C145.2,82.2,145.5,81.9,145.8,81.6
			 M144.4,83l1.5,1.5c-0.2,0.4-0.5,0.8-0.7,1.3l-1.8-1.8C143.7,83.7,144,83.3,144.4,83 M142.9,84.5l1.9,1.9
			c-0.2,0.4-0.5,0.8-0.7,1.3l-2.1-2.1C142.3,85.2,142.6,84.8,142.9,84.5 M141.5,86l2.2,2.2c-0.2,0.4-0.5,0.8-0.7,1.3l-2.5-2.5
			C140.9,86.7,141.2,86.4,141.5,86 M140.2,87.6l2.6,2.6c-0.2,0.4-0.5,0.9-0.7,1.3l-2.7-2.7C139.6,88.3,139.9,88,140.2,87.6
			 M138.9,89.2l2.8,2.8c-0.2,0.4-0.4,0.9-0.7,1.3l-3-3C138.4,90,138.6,89.6,138.9,89.2 M137.7,90.9l3.1,3.1
			c-0.2,0.4-0.4,0.9-0.7,1.3l-3.3-3.3C137.1,91.7,137.4,91.3,137.7,90.9 M136.5,92.6l3.3,3.3c-0.2,0.4-0.4,0.9-0.6,1.3l-3.5-3.5
			C136,93.4,136.2,93,136.5,92.6 M135.3,94.4l3.6,3.5c-0.2,0.5-0.4,0.9-0.6,1.4l-3.7-3.7C134.8,95.2,135.1,94.8,135.3,94.4
			 M134.2,96.2l3.8,3.8c-0.2,0.5-0.4,0.9-0.6,1.4l-3.9-3.9C133.7,97,134,96.6,134.2,96.2 M133.1,98l3.9,3.9
			c-0.2,0.5-0.4,0.9-0.6,1.4l-4.1-4.1C132.7,98.8,132.9,98.4,133.1,98 M132.1,99.9l4.1,4.1c-0.2,0.5-0.4,0.9-0.6,1.4l-4.3-4.3
			C131.6,100.7,131.9,100.3,132.1,99.9 M131.1,101.8l4.3,4.3c-0.2,0.5-0.4,1-0.5,1.4l-4.4-4.4C130.7,102.7,130.9,102.2,131.1,101.8
			 M130.2,103.7l4.5,4.5c-0.2,0.5-0.3,1-0.5,1.5l-4.6-4.6C129.7,104.6,129.9,104.2,130.2,103.7 M129.2,105.7l4.7,4.7
			c-0.2,0.5-0.3,1-0.5,1.5l-4.8-4.8C128.8,106.6,129,106.2,129.2,105.7 M128.4,107.7l4.9,4.9c-0.1,0.5-0.3,1-0.4,1.6l-5.1-5.1
			C128,108.7,128.2,108.2,128.4,107.7 M127.5,109.8l5.1,5.1c-0.1,0.5-0.3,1.1-0.4,1.6l-5.3-5.3C127.1,110.8,127.3,110.3,127.5,109.8
			 M126.7,111.9l5.4,5.4c-0.1,0.6-0.2,1.1-0.3,1.7l-5.7-5.7C126.3,112.9,126.5,112.4,126.7,111.9 M125.9,114.1l5.8,5.8
			c0,0.2,0,0.3-0.1,0.5h-1.5l-4.8-4.8C125.6,115.1,125.8,114.6,125.9,114.1 M125.2,116.3l4.1,4.1h-2l-2.5-2.5
			C124.9,117.3,125,116.8,125.2,116.3 M124.1,120c0.1-0.4,0.2-0.9,0.4-1.6l1.8,1.8h-2L124.1,120z M132.7,61.9
			c-0.3,0.5-0.6,1.2-0.9,1.8l-0.4-0.4C131.9,62.9,132.3,62.4,132.7,61.9 M131,63.8l0.5,0.5c-0.2,0.4-0.4,0.9-0.6,1.3l-0.8-0.8
			C130.4,64.6,130.7,64.2,131,63.8 M129.7,65.4l0.9,0.9c-0.2,0.4-0.4,0.9-0.6,1.4l-1.2-1.2C129.1,66.2,129.4,65.8,129.7,65.4
			 M128.4,67l1.3,1.3c-0.2,0.4-0.4,0.9-0.6,1.4l-1.6-1.6C127.8,67.8,128.1,67.4,128.4,67 M127.1,68.7l1.7,1.7
			c-0.2,0.5-0.4,0.9-0.6,1.4l-1.9-1.9C126.6,69.5,126.9,69.1,127.1,68.7 M125.9,70.4l2,2c-0.2,0.5-0.4,0.9-0.6,1.4l-2.3-2.3
			C125.4,71.2,125.7,70.8,125.9,70.4 M124.8,72.1l2.4,2.4c-0.2,0.5-0.4,0.9-0.5,1.4l-2.6-2.6C124.2,73,124.5,72.5,124.8,72.1
			 M123.6,73.9l2.7,2.7c-0.2,0.5-0.4,1-0.5,1.5l-2.9-2.9C123.1,74.7,123.4,74.3,123.6,73.9 M122.5,75.7l3,3c-0.2,0.5-0.3,1-0.5,1.5
			l-3.2-3.2C122.1,76.6,122.3,76.2,122.5,75.7 M121.5,77.6l3.3,3.3c-0.2,0.5-0.3,1-0.5,1.5l-3.5-3.5C121,78.5,121.2,78,121.5,77.6
			 M120.5,79.5l3.6,3.6c-0.2,0.5-0.3,1-0.5,1.5l-3.8-3.8C120,80.4,120.2,79.9,120.5,79.5 M119.5,81.4l3.9,3.9
			c-0.2,0.5-0.3,1-0.5,1.5l-4.1-4.1C119,82.3,119.3,81.9,119.5,81.4 M118.5,83.4l4.2,4.2c-0.1,0.5-0.3,1-0.4,1.5l-4.4-4.4
			C118.1,84.3,118.3,83.8,118.5,83.4 M117.6,85.4l4.5,4.5c-0.1,0.5-0.3,1-0.4,1.6l-4.7-4.7C117.2,86.3,117.4,85.8,117.6,85.4
			 M116.7,87.4l4.7,4.7c-0.1,0.5-0.3,1.1-0.4,1.6l-4.9-4.9C116.4,88.3,116.5,87.9,116.7,87.4 M115.9,89.5l5,5
			c-0.1,0.5-0.3,1.1-0.4,1.6l-5.2-5.2C115.5,90.4,115.7,90,115.9,89.5 M115.1,91.6l5.2,5.2c-0.1,0.5-0.2,1.1-0.4,1.6l-5.4-5.4
			C114.7,92.5,114.9,92.1,115.1,91.6 M114.3,93.7l5.5,5.5c-0.1,0.5-0.2,1.1-0.3,1.6l-5.7-5.7C114,94.7,114.1,94.2,114.3,93.7
			 M113.6,95.9l5.8,5.8c-0.1,0.6-0.2,1.1-0.3,1.7l-5.9-5.9C113.3,96.9,113.4,96.4,113.6,95.9 M112.9,98.1l6,6
			c-0.1,0.6-0.2,1.1-0.3,1.7l-6.2-6.2C112.6,99.1,112.7,98.6,112.9,98.1 M112.2,100.3l6.3,6.3c-0.1,0.6-0.2,1.1-0.3,1.7l-6.4-6.4
			C111.9,101.4,112.1,100.9,112.2,100.3 M111.6,102.6l6.5,6.5c-0.1,0.6-0.2,1.2-0.2,1.7l-6.7-6.7
			C111.3,103.7,111.4,103.1,111.6,102.6 M111,104.9l6.8,6.8c-0.1,0.6-0.1,1.2-0.2,1.8l-6.9-6.9C110.7,106,110.8,105.5,111,104.9
			 M110.4,107.3l7,7c-0.1,0.6-0.1,1.2-0.2,1.8l-7.2-7.2C110.2,108.4,110.3,107.8,110.4,107.3 M109.9,109.6l7.3,7.3
			c-0.1,0.6-0.1,1.2-0.2,1.8l-7.5-7.5C109.7,110.8,109.8,110.2,109.9,109.6 M109.4,112.1l7.6,7.6c0,0.2,0,0.5,0,0.7h-1.2l-6.6-6.6
			C109.2,113.2,109.3,112.7,109.4,112.1 M109,114.5l5.8,5.8h-2l-4.1-4.1C108.8,115.7,108.9,115.1,109,114.5 M108.6,117.1l3.3,3.3h-2
			l-1.5-1.5C108.4,118.3,108.5,117.7,108.6,117.1 M108.2,119.6l0.7,0.7h-0.8C108.2,120.1,108.2,119.9,108.2,119.6 M100.8,93.8
			l-5.1-5.1c0-0.6,0.1-1.3,0.1-1.9l5,5C100.7,92.4,100.7,93.1,100.8,93.8 M100.7,90.8l-4.9-4.9c0-0.6,0.1-1.3,0.1-1.9l4.7,4.7
			C100.6,89.4,100.7,90.1,100.7,90.8 M100.5,87.7l-4.6-4.6c0-0.6,0-1.3,0.1-1.9l4.4,4.4C100.4,86.3,100.5,87,100.5,87.7 M100.3,84.6
			L96,80.3c0-0.7,0-1.3,0-2l4,4C100.1,83.1,100.2,83.8,100.3,84.6 M99.9,81.3L96,77.4c0-0.7,0-1.3,0-2l3.5,3.5
			C99.7,79.7,99.8,80.5,99.9,81.3 M99.3,77.8L96,74.5c0-0.7,0-1.4,0-2l2.9,2.9C99,76.2,99.2,77,99.3,77.8 M98.6,74.2l-2.7-2.7
			c0-0.7,0-1.4-0.1-2.1l2.1,2.1C98.2,72.4,98.4,73.3,98.6,74.2 M97.7,70.3l-1.9-1.9c0-0.7-0.1-1.4-0.1-2.1l1.2,1.2
			C97.1,68.4,97.4,69.3,97.7,70.3 M96.4,66.2l-0.8-0.8c0-0.7-0.1-1.3-0.1-1.9C95.8,64.3,96.1,65.2,96.4,66.2 M95.6,89.5l5.2,5.2
			c0,0.6,0,1.3,0,1.9l-5.3-5.3C95.5,90.7,95.5,90.1,95.6,89.5 M95.3,92.2l5.4,5.4c0,0.6,0,1.3-0.1,1.9L95.2,94
			C95.2,93.4,95.3,92.8,95.3,92.2 M95.1,94.9l5.5,5.5c0,0.6-0.1,1.2-0.1,1.8l-5.5-5.5C95,96,95,95.4,95.1,94.9 M94.8,97.5l5.5,5.5
			c-0.1,0.6-0.1,1.2-0.2,1.8l-5.6-5.6C94.6,98.6,94.7,98.1,94.8,97.5 M94.5,100l5.6,5.6c-0.1,0.6-0.1,1.2-0.2,1.8l-5.6-5.6
			C94.3,101.2,94.4,100.6,94.5,100 M94.1,102.6l5.6,5.6c-0.1,0.6-0.2,1.1-0.3,1.7l-5.6-5.6C93.9,103.7,94,103.2,94.1,102.6
			 M93.7,105.1l5.6,5.6c-0.1,0.6-0.2,1.1-0.3,1.7l-5.6-5.6C93.5,106.2,93.6,105.7,93.7,105.1 M93.2,107.6l5.6,5.6
			c-0.1,0.5-0.2,1.1-0.3,1.6l-5.6-5.6C93,108.7,93.1,108.1,93.2,107.6 M92.8,110l5.6,5.6c0,0.2-0.1,0.4-0.1,0.6
			c-0.1,0.3-0.2,0.7-0.3,1l-5.5-5.5C92.5,111.1,92.7,110.5,92.8,110 M92.3,112.4l5.5,5.5c-0.2,0.6-0.3,1.2-0.4,1.6l-5.5-5.5
			C92,113.5,92.1,112.9,92.3,112.4 M91.7,114.8l5.5,5.5c0,0,0,0,0,0.1h-1.9l-4-4C91.5,115.8,91.6,115.3,91.7,114.8 M91.1,117.1
			l3.2,3.2h-2l-1.7-1.7C90.9,118.1,91,117.6,91.1,117.1 M91.4,120.3h-1.2c0.1-0.3,0.2-0.6,0.3-0.9L91.4,120.3z M68.9,83.7
			c4.3,3.3,7.7,7.5,10.4,11.9l-7.8-7.8C70.6,86.4,69.8,85,68.9,83.7 M72.7,89.9l7.9,7.9c0.8,1.4,1.5,2.7,2.1,4.1l-8-8
			C74.1,92.6,73.4,91.2,72.7,89.9 M75.5,95.7l7.9,7.9c0.5,1.1,1,2.3,1.4,3.4L77,99.1C76.5,98,76.1,96.8,75.5,95.7 M77.6,100.7
			l7.8,7.8c0.4,1,0.7,2,1,3l-7.7-7.7C78.4,102.8,78,101.7,77.6,100.7 M79.2,105.2l7.6,7.6c0.3,1,0.6,1.9,0.8,2.8l-7.5-7.5
			C79.8,107.1,79.5,106.2,79.2,105.2 M80.5,109.3l7.4,7.4c0.2,1,0.4,1.9,0.6,2.6l-7.3-7.3C81,111.2,80.7,110.3,80.5,109.3
			 M88.5,120.3h-2l-4.5-4.5c-0.2-0.8-0.4-1.6-0.6-2.6L88.5,120.3z M82.7,119.4c-0.1-0.6-0.2-1.4-0.4-2.4l3.3,3.3h-2L82.7,119.4z"/>
	</g>
	<text transform="matrix(0.8648 -0.5021 0.5021 0.8648 60.6521 55.3892)" class="st3 st4 st5"> </text>
	<text transform="matrix(0.9106 -0.4133 0.4133 0.9106 64.7574 52.7779)" class="st3 st6 st5">ﻲ</text>
	<text transform="matrix(0.953 -0.3029 0.3029 0.953 75.5713 47.9542)" class="st3 st6 st7">ﻋ</text>
	<text transform="matrix(0.9718 -0.2356 0.2356 0.9718 83.7715 45.4325)" class="st3 st6 st5">ا</text>
	<text transform="matrix(0.9816 -0.191 0.191 0.9816 85.6618 44.8796)" class="st3 st6 st8">ﺮ</text>
	<text transform="matrix(0.9945 -0.1046 0.1046 0.9945 93.1029 43.4115)" class="st3 st6 st5">ﳌ</text>
	<text transform="matrix(0.9992 -4.005840e-02 4.005840e-02 0.9992 101.1362 42.6299)" class="st3 st6 st5">ا</text>
	<text transform="matrix(1 8.720942e-03 -8.720942e-03 1 104.7721 42.4601)" class="st3 st4 st8"> </text>
	<text transform="matrix(0.9946 0.104 -0.104 0.9946 109.6541 42.3181)" class="st3 st6 st5">ﰲ</text>
	<text transform="matrix(0.9798 0.1998 -0.1998 0.9798 121.4377 43.7001)" class="st3 st4 st8"> </text>
	<path class="st3" d="M137.1,39.6c0.3,1.5,0.4,2.9,0.1,3.7c-0.2,0.7-0.7,1.3-1.2,1.8c1.3,0.7,1.4,1.2,1.1,2.2
		c-0.1,0.4-0.4,0.9-1,1.4c-2.4,1.2-4.4,1.2-5.9,0.7c-1.1-0.3-2-1.1-2.4-1.9c-0.5-1.1-0.6-2.2-0.3-3.5c0.4-1.4,1.2-2.4,2-3.4l0.4,0.3
		c-0.6,0.8-1,1.5-1.3,2.3c-0.3,0.8-0.3,1.6,0,2.5c0.4,1,1.1,1.8,2.2,2.1c1.1,0.3,2.3,0.5,3.6,0.2c0.7-0.2,1.4-0.4,1.8-0.7
		c0.1-0.4-1.7-1.4-3.3-2.1l0-0.1l0.9-1c1.4,0.2,2,0,2.3-0.2c0.1-0.9-0.1-2-0.3-3.3C136.2,40.2,136.6,39.8,137.1,39.6L137.1,39.6z
		 M133.9,51c0.4,0.5,0.7,1.1,1,1.7c-0.4,0.3-0.8,0.6-1.3,0.8c-0.3-0.6-0.7-1.1-1-1.6C133,51.6,133.5,51.3,133.9,51z"/>
	<text transform="matrix(0.9101 0.4144 -0.4144 0.9101 136.9673 47.7655)" class="st3 st6 st5">ﱰ</text>
	<text transform="matrix(0.8661 0.4999 -0.4999 0.8661 146.5869 52.2738)" class="st3 st6 st8">ﺗ</text>
	<text transform="matrix(1 0 0 1 55.6475 148.0381)" class="st3 st9 st10"> ﻰﻠﻋ ىذﻐﺗﺗو</text>
	<text transform="matrix(1 0 0 1 84.9697 176.9268)" class="st3 st9 st10">بﺷ</text>
	<text transform="matrix(1 0 0 1 116.9385 178.3232)" class="st3 st9 st10">ُ</text>
	<text transform="matrix(1 0 0 1 115.2539 176.9268)" class="st3 st9 st10">ﻌﻟا</text>
</g>
</svg>
