<?xml version="1.0" encoding="utf-8"?>
<!-- Generator: Adobe Illustrator 23.0.4, SVG Export Plug-In . SVG Version: 6.00 Build 0)  -->
<svg version="1.1" xmlns="http://www.w3.org/2000/svg" xmlns:xlink="http://www.w3.org/1999/xlink" x="0px" y="0px"
	 viewBox="0 0 216.4 216.4" style="enable-background:new 0 0 216.4 216.4;" xml:space="preserve">
<style type="text/css">
	.st0{display:none;}
	.st1{display:inline;}
	.st2{clip-path:url(#SVGID_2_);fill:#373535;}
	.st3{clip-path:url(#SVGID_4_);fill:#373535;}
	.st4{clip-path:url(#SVGID_6_);fill:#373535;}
	.st5{clip-path:url(#SVGID_8_);fill:#373535;}
	.st6{clip-path:url(#SVGID_10_);fill:#373535;}
	.st7{clip-path:url(#SVGID_12_);fill:#373535;}
	.st8{clip-path:url(#SVGID_14_);fill:#373535;}
	.st9{clip-path:url(#SVGID_16_);fill:#373535;}
	.st10{fill:#373535;}
	.st11{font-family:'MyriadPro-Regular';}
	.st12{font-size:24.7816px;}
	.st13{font-family:'AdobeArabic-Regular';}
	.st14{font-size:24.7815px;}
	.st15{font-size:24.7804px;}
	.st16{font-size:24.7817px;}
	.st17{font-size:24.7826px;}
	.st18{font-size:24.7808px;}
	.st19{font-family:'Arial-BoldMT';}
	.st20{font-size:24.0736px;}
	.st21{fill:#231F20;}
</style>
<g id="Layer_1" class="st0">
	<g id="Pasture_Raised">
		<g class="st1">
			<g>
				<path d="M108.3,199.2c-50.3,0-91.2-40.9-91.2-91.2S58,16.9,108.3,16.9s91.2,40.9,91.2,91.2C199.4,158.3,158.5,199.2,108.3,199.2
					L108.3,199.2z M108.3,20.2c-48.4,0-87.9,39.4-87.9,87.9S59.8,196,108.3,196s87.9-39.4,87.9-87.9
					C196.1,59.6,156.7,20.2,108.3,20.2L108.3,20.2z"/>
				<g>
					<path d="M60.5,142.3v-0.2c0-5.5,3.9-9.3,9.3-9.3c4.1,0,7.7,1.9,8.1,6.4h-4.1c-0.4-2.1-1.8-3.1-4-3.1c-3.2,0-5,2.4-5,6.1v0.2
						c0,3.5,1.5,6.1,5.1,6.1c3.1,0,4.3-1.8,4.4-3.9h-4.1v-3h8.2v1.9c0,4.9-3.1,8.1-8.6,8.1C63.8,151.6,60.5,147.7,60.5,142.3z"/>
					<path d="M83.9,133h6.6c4.3,0,7.1,1.8,7.1,5.6v0.1c0,2.8-1.6,4.2-3.8,4.9l4.8,7.8h-4.4l-4.4-7.1H88v7.1h-4.1
						C83.9,151.3,83.9,133,83.9,133z M90.4,141.4c2.1,0,3.1-0.9,3.1-2.6v-0.1c0-1.9-1.1-2.5-3.1-2.5h-2.3v5.2L90.4,141.4L90.4,141.4
						z"/>
					<path d="M108.1,133h5.4l5.9,18.3h-4.3l-1.2-4.1h-6.6l-1.2,4.1h-3.9L108.1,133z M108.2,144.3h4.8l-2.4-7.9L108.2,144.3z"/>
					<path d="M123,145.6h4c0.2,1.6,0.9,3,3.6,3c1.8,0,3-1,3-2.4c0-1.5-0.8-2-3.4-2.4c-4.7-0.6-6.6-2-6.6-5.6c0-3.1,2.6-5.4,6.7-5.4
						s6.5,1.8,6.9,5.5h-3.8c-0.3-1.7-1.2-2.4-3-2.4s-2.7,0.8-2.7,2.1s0.6,1.9,3.4,2.3c4.4,0.6,6.7,1.8,6.7,5.6c0,3.2-2.7,5.8-7,5.8
						C125.5,151.6,123.2,149.2,123,145.6z"/>
					<path d="M141.5,145.6h4c0.2,1.6,0.9,3,3.6,3c1.8,0,3-1,3-2.4c0-1.5-0.8-2-3.4-2.4c-4.7-0.6-6.6-2-6.6-5.6
						c0-3.1,2.6-5.4,6.6-5.4c4.1,0,6.5,1.8,6.9,5.5h-3.8c-0.3-1.7-1.2-2.4-3-2.4s-2.7,0.8-2.7,2.1s0.6,1.9,3.4,2.3
						c4.4,0.6,6.7,1.8,6.7,5.6c0,3.2-2.7,5.8-7,5.8C144,151.6,141.7,149.2,141.5,145.6z"/>
					<path d="M82.9,159h11.7v3.2H87v4.8h6v3.1h-6v7.1h-4.2C82.9,177.3,82.9,159,82.9,159z"/>
					<path d="M100.4,159h11.9v3.2h-7.8v4.3h6.2v3h-6.2v4.6h8.2v3.2h-12.3L100.4,159L100.4,159z"/>
					<path d="M118.1,159h6c6.4,0,9.6,3.5,9.6,8.9v0.2c0,5.5-3.2,9.1-9.6,9.1h-6C118.1,177.3,118.1,159,118.1,159z M123.9,174.1
						c3.7,0,5.4-2.1,5.4-5.9V168c0-3.8-1.6-5.8-5.5-5.8h-1.6V174L123.9,174.1L123.9,174.1z"/>
				</g>
				<path d="M67.3,82.3l10.6,10.6C74.6,88.4,71,85,67.3,82.3z"/>
				<path d="M133.4,62.2l-0.6-0.6c-0.2,0.2-0.3,0.3-0.5,0.5l0.7,0.7C133.1,62.6,133.2,62.4,133.4,62.2z"/>
				<path d="M148.9,78.8l1.1,1.1c0.1-0.2,0.2-0.4,0.3-0.6l-0.9-0.9C149.3,78.5,149.1,78.6,148.9,78.8z"/>
				<path d="M134.4,60.3l-0.1-0.1c-0.2,0.2-0.3,0.3-0.5,0.5l0.3,0.3C134.1,60.7,134.3,60.5,134.4,60.3z"/>
				<path d="M151.1,77.1c-0.2,0.1-0.4,0.3-0.5,0.4l0.5,0.5c0.1-0.2,0.2-0.4,0.3-0.6L151.1,77.1z"/>
				<path d="M93.8,58L93.8,58c0,0.3,0,0.7,0.1,1l0.6,0.6C94.3,59,94,58.5,93.8,58z"/>
				<path d="M185.7,121.6h-52.5c2.4-18.8,19.6-44.2,19.8-44.4l1.9-2.8l-2.8,1.8c-20.7,13.6-28.2,41.3-29.2,45.4h-4.4
					c0.8-4.4,5.8-25.1,26.8-42.1l-0.8-1c-15.5,12.5-22.4,27.1-25.3,35.9c3.8-32.6,17.2-54.8,17.3-55.1l2.5-4.1l-3.5,3.3
					c-23.3,21.8-27.9,57.5-28.5,63.1h-8.3c0.3-1.3,0.7-2.6,0.9-3.9c2.5-9.3,9.7-30.8,25.2-49.7l-1-0.8c-11.5,14-18.5,29.5-22.4,40.4
					c3.1-23.9-3.1-41.1-6.4-48.1l-2-4l0.6,4.5c0,0.3,4,28.8-4.2,59.3c-0.6-2.8-1.8-7.3-3.8-12.3c0.8-1.7,6.5-15.2,6.9-37.4h-1.3
					c-0.4,19.1-4.8,31.7-6.3,35.7c-3.6-8.6-9.5-18.3-18.9-24l-3.1-1.9l2.2,2.9c12.3,15.8,15.7,35.8,16.2,39.4h-6.1
					c2.6-6.5,1.2-15.6-3.9-26.3L70.1,96c5.1,10.5,6.3,19.6,3.7,25.7h-43v1.3h58.7h0.1l0,0h96L185.7,121.6L185.7,121.6z M150,79.3
					c-0.4,0.6-0.8,1.2-1.2,1.9l-0.5-0.5C148.8,80.2,149.4,79.8,150,79.3z M147.8,81.1l0.7,0.7c-0.2,0.4-0.5,0.8-0.8,1.2l-1-1
					C147,81.7,147.4,81.4,147.8,81.1z M146.2,82.5l1.1,1.1c-0.2,0.4-0.5,0.8-0.7,1.3l-1.4-1.4C145.5,83.2,145.9,82.8,146.2,82.5z
					 M144.7,83.9l1.5,1.5c-0.2,0.4-0.5,0.8-0.7,1.3l-1.8-1.8C144,84.6,144.4,84.3,144.7,83.9z M143.2,85.4l1.9,1.9
					c-0.2,0.4-0.5,0.8-0.7,1.3l-2.2-2.2C142.6,86.1,142.9,85.8,143.2,85.4z M141.9,87l2.3,2.3c-0.2,0.4-0.5,0.9-0.7,1.3l-2.5-2.5
					C141.2,87.7,141.6,87.3,141.9,87z M140.5,88.6l2.6,2.6c-0.2,0.4-0.5,0.9-0.7,1.3l-2.8-2.8C139.9,89.3,140.2,88.9,140.5,88.6z
					 M139.2,90.2l2.9,2.9c-0.2,0.4-0.4,0.9-0.7,1.3l-3-3C138.6,91,138.9,90.6,139.2,90.2z M138,91.9l3.1,3.1
					c-0.2,0.4-0.4,0.9-0.7,1.3l-3.3-3.3C137.4,92.7,137.7,92.3,138,91.9z M136.8,93.6l3.4,3.4c-0.2,0.4-0.4,0.9-0.6,1.4l-3.5-3.5
					C136.2,94.4,136.5,94,136.8,93.6z M135.6,95.4l3.6,3.6c-0.2,0.5-0.4,0.9-0.6,1.4l-3.7-3.7C135.1,96.2,135.3,95.8,135.6,95.4z
					 M134.5,97.2l3.8,3.8c-0.2,0.5-0.4,0.9-0.6,1.4l-3.9-3.9C134,98.1,134.2,97.6,134.5,97.2z M133.4,99.1l4,4
					c-0.2,0.5-0.4,0.9-0.6,1.4l-4.1-4.1C132.9,99.9,133.1,99.5,133.4,99.1z M132.3,100.9l4.2,4.2c-0.2,0.5-0.4,1-0.6,1.4l-4.3-4.3
					C131.9,101.8,132.1,101.4,132.3,100.9z M131.3,102.9l4.4,4.4c-0.2,0.5-0.4,1-0.5,1.5l-4.5-4.5
					C130.9,103.8,131.1,103.3,131.3,102.9z M130.4,104.8l4.6,4.5c-0.2,0.5-0.3,1-0.5,1.5l-4.7-4.7
					C129.9,105.8,130.1,105.3,130.4,104.8z M129.4,106.9l4.7,4.7c-0.2,0.5-0.3,1-0.5,1.5l-4.9-4.9
					C129,107.8,129.2,107.3,129.4,106.9z M128.5,108.9l4.9,4.9c-0.1,0.5-0.3,1.1-0.4,1.6l-5.1-5.1
					C128.1,109.9,128.3,109.4,128.5,108.9z M127.7,111l5.2,5.2c-0.1,0.6-0.3,1.1-0.4,1.6l-5.4-5.4C127.3,112,127.5,111.5,127.7,111z
					 M126.9,113.1l5.5,5.5c-0.1,0.6-0.2,1.1-0.3,1.7l-5.7-5.7C126.5,114.1,126.7,113.6,126.9,113.1z M126.1,115.3l5.8,5.8
					c0,0.2,0,0.3-0.1,0.5h-1.5l-4.8-4.8C125.8,116.3,125.9,115.8,126.1,115.3z M125.4,117.5l4.1,4.1h-2l-2.6-2.6
					C125,118.6,125.2,118,125.4,117.5z M124.3,121.3c0.1-0.4,0.2-0.9,0.4-1.6l1.8,1.8h-2L124.3,121.3z M132.9,62.7
					c-0.3,0.5-0.6,1.2-0.9,1.8l-0.4-0.4C132.1,63.6,132.5,63.1,132.9,62.7z M131.2,64.6l0.5,0.5c-0.2,0.4-0.4,0.9-0.6,1.4l-0.8-0.8
					C130.6,65.3,130.9,64.9,131.2,64.6z M129.9,66.2l0.9,0.9c-0.2,0.4-0.4,0.9-0.6,1.4l-1.2-1.2C129.3,66.9,129.6,66.6,129.9,66.2z
					 M128.6,67.8l1.3,1.3c-0.2,0.4-0.4,0.9-0.6,1.4l-1.6-1.6C128,68.6,128.3,68.2,128.6,67.8z M127.3,69.5l1.7,1.7
					c-0.2,0.5-0.4,0.9-0.6,1.4l-1.9-1.9C126.8,70.3,127,69.9,127.3,69.5z M126.1,71.2l2,2.1c-0.2,0.5-0.4,0.9-0.6,1.4l-2.3-2.3
					C125.6,72,125.8,71.6,126.1,71.2z M124.9,73l2.4,2.4c-0.2,0.5-0.4,1-0.6,1.4l-2.6-2.6C124.4,73.8,124.7,73.4,124.9,73z
					 M123.8,74.8l2.7,2.7c-0.2,0.5-0.4,1-0.5,1.5l-3-3C123.3,75.6,123.5,75.2,123.8,74.8z M122.7,76.6l3.1,3.1
					c-0.2,0.5-0.3,1-0.5,1.5l-3.3-3.3C122.2,77.4,122.4,77,122.7,76.6z M121.6,78.5l3.4,3.4c-0.2,0.5-0.3,1-0.5,1.5l-3.6-3.6
					C121.1,79.3,121.4,78.9,121.6,78.5z M120.6,80.4l3.7,3.7c-0.2,0.5-0.3,1-0.5,1.5l-3.9-3.9C120.1,81.3,120.3,80.8,120.6,80.4z
					 M119.6,82.3l3.9,3.9c-0.2,0.5-0.3,1-0.5,1.5l-4.2-4.2C119.2,83.2,119.4,82.8,119.6,82.3z M118.6,84.3l4.2,4.2
					c-0.2,0.5-0.3,1-0.4,1.6l-4.4-4.4C118.2,85.2,118.4,84.8,118.6,84.3z M117.7,86.3l4.5,4.5c-0.1,0.5-0.3,1.1-0.4,1.6l-4.7-4.7
					C117.3,87.2,117.5,86.8,117.7,86.3z M116.8,88.4l4.8,4.8c-0.1,0.5-0.3,1.1-0.4,1.6l-5-5C116.4,89.3,116.6,88.8,116.8,88.4z
					 M116,90.5l5,5c-0.1,0.5-0.3,1.1-0.4,1.6l-5.2-5.2C115.6,91.4,115.8,90.9,116,90.5z M115.2,92.6l5.3,5.3
					c-0.1,0.5-0.2,1.1-0.4,1.6l-5.5-5.5C114.8,93.6,115,93.1,115.2,92.6z M114.4,94.7l5.6,5.6c-0.1,0.6-0.2,1.1-0.3,1.7l-5.7-5.7
					C114,95.7,114.2,95.2,114.4,94.7z M113.6,96.9l5.8,5.8c-0.1,0.6-0.2,1.1-0.3,1.7l-6-6C113.3,97.9,113.5,97.4,113.6,96.9z
					 M112.9,99.2l6.1,6.1c-0.1,0.6-0.2,1.1-0.3,1.7l-6.2-6.2C112.6,100.2,112.8,99.7,112.9,99.2z M112.2,101.4l6.3,6.3
					c-0.1,0.6-0.2,1.2-0.3,1.7l-6.5-6.5C111.9,102.5,112.1,101.9,112.2,101.4z M111.6,103.7l6.6,6.6c-0.1,0.6-0.2,1.2-0.2,1.8
					l-6.7-6.7C111.3,104.8,111.5,104.2,111.6,103.7z M111,106.1l6.8,6.8c-0.1,0.6-0.2,1.2-0.2,1.8l-7-7
					C110.7,107.1,110.8,106.6,111,106.1z M110.4,108.4l7.1,7.1c-0.1,0.6-0.1,1.2-0.2,1.8L110,110C110.2,109.5,110.3,109,110.4,108.4
					z M109.9,110.8l7.3,7.3c-0.1,0.6-0.1,1.2-0.2,1.8l-7.5-7.5C109.7,111.9,109.8,111.4,109.9,110.8z M109.4,113.3l7.6,7.6
					c0,0.2,0,0.5-0.1,0.7h-1.3L109,115C109.2,114.4,109.3,113.9,109.4,113.3z M108.9,115.8l5.8,5.8h-2l-4.1-4.1
					C108.8,116.9,108.8,116.4,108.9,115.8z M108.6,118.3l3.3,3.3h-2l-1.5-1.5C108.4,119.6,108.5,119,108.6,118.3z M108.2,120.9
					l0.7,0.7h-0.8C108.2,121.4,108.2,121.2,108.2,120.9z M100.7,94.8l-5.2-5.2c0-0.6,0.1-1.3,0.1-1.9l5.1,5.1
					C100.7,93.4,100.7,94.1,100.7,94.8z M100.6,91.8l-5-5c0-0.6,0.1-1.3,0.1-1.9l4.8,4.8C100.6,90.4,100.6,91.1,100.6,91.8z
					 M100.5,88.7L95.8,84c0-0.7,0-1.3,0.1-1.9l4.5,4.5C100.4,87.3,100.4,88,100.5,88.7z M100.2,85.5l-4.3-4.3c0-0.7,0-1.3,0-2
					l4.1,4.1C100,84,100.1,84.7,100.2,85.5z M99.8,82.2l-3.9-3.9c0-0.7,0-1.3,0-2l3.6,3.6C99.6,80.6,99.7,81.4,99.8,82.2z
					 M99.3,78.7l-3.4-3.4c0-0.7,0-1.4,0-2l2.9,2.9C98.9,77,99.1,77.8,99.3,78.7z M98.5,75l-2.7-2.7c0-0.7-0.1-1.4-0.1-2.1l2.2,2.2
					C98.1,73.2,98.3,74.1,98.5,75z M97.6,71.1l-1.9-1.9c0-0.7-0.1-1.4-0.1-2.1l1.2,1.2C97,69.2,97.3,70.1,97.6,71.1z M96.3,66.9
					l-0.8-0.8c-0.1-0.7-0.1-1.3-0.1-1.9C95.7,65.1,96,66,96.3,66.9z M95.4,90.5l5.2,5.2c0,0.7,0,1.3,0,2l-5.4-5.4
					C95.3,91.7,95.4,91.1,95.4,90.5z M95.2,93.2l5.4,5.4c0,0.6-0.1,1.3-0.1,1.9L95,95C95.1,94.4,95.2,93.8,95.2,93.2z M95,95.9
					l5.5,5.5c0,0.6-0.1,1.2-0.1,1.9l-5.6-5.6C94.8,97.1,94.9,96.5,95,95.9z M94.7,98.5l5.6,5.6c-0.1,0.6-0.1,1.2-0.2,1.8l-5.6-5.6
					C94.5,99.7,94.6,99.1,94.7,98.5z M94.3,101.1l5.7,5.7c-0.1,0.6-0.2,1.2-0.2,1.8l-5.7-5.7C94.2,102.3,94.2,101.7,94.3,101.1z
					 M93.9,103.7l5.7,5.7c-0.1,0.6-0.2,1.2-0.3,1.7l-5.7-5.7C93.8,104.8,93.9,104.3,93.9,103.7z M93.5,106.2l5.7,5.7
					c-0.1,0.6-0.2,1.1-0.3,1.7l-5.7-5.7C93.3,107.4,93.4,106.8,93.5,106.2z M93.1,108.7l5.7,5.7c-0.1,0.6-0.2,1.1-0.3,1.7l-5.7-5.7
					C92.9,109.8,93,109.3,93.1,108.7z M92.6,111.2l5.7,5.7c0,0.2-0.1,0.4-0.1,0.6c-0.1,0.3-0.2,0.7-0.3,1l-5.6-5.6
					C92.4,112.3,92.5,111.7,92.6,111.2z M92.1,113.6l5.6,5.6c-0.2,0.6-0.3,1.2-0.4,1.6l-5.6-5.6C91.9,114.7,92,114.1,92.1,113.6z
					 M91.6,116l5.6,5.6c0,0,0,0,0,0.1h-1.9l-4-4C91.3,117.1,91.4,116.5,91.6,116z M91,118.3l3.2,3.2h-2l-1.7-1.7
					C90.7,119.4,90.8,118.9,91,118.3z M91.3,121.6h-1.2c0.1-0.3,0.2-0.6,0.3-0.9L91.3,121.6z M68.5,84.6c4.3,3.4,7.8,7.6,10.5,12
					l-7.9-7.9C70.3,87.3,69.4,85.9,68.5,84.6z M72.3,90.9l8,8c0.8,1.4,1.5,2.8,2.1,4.1l-8-8C73.8,93.6,73.1,92.2,72.3,90.9z
					 M75.2,96.7l8,8c0.5,1.2,1,2.3,1.4,3.4l-7.9-7.9C76.2,99.1,75.8,97.9,75.2,96.7z M77.3,101.7l7.9,7.9c0.4,1.1,0.7,2.1,1,3
					l-7.8-7.8C78.1,103.9,77.7,102.8,77.3,101.7z M78.9,106.3l7.7,7.7c0.3,1,0.6,1.9,0.8,2.8l-7.6-7.6
					C79.6,108.3,79.3,107.3,78.9,106.3z M80.2,110.5l7.5,7.5c0.2,1,0.4,1.9,0.6,2.6l-7.4-7.4C80.7,112.4,80.5,111.5,80.2,110.5z
					 M88.3,121.6h-2l-4.5-4.5c-0.2-0.8-0.4-1.6-0.6-2.6L88.3,121.6z M82.5,120.7c-0.1-0.6-0.2-1.4-0.4-2.4l3.3,3.3h-2L82.5,120.7z"
					/>
			</g>
			<g>
				<g>
					<g>
						<g>
							<g>
								<path d="M42.7,87.4l0.5-1.2l-7.5-2.8l-0.5,1.2L34,84.1l1.5-3.9c0.8-2.1,2.6-3.2,4.6-2.5c2.1,0.8,2.7,2.8,1.8,5.1
									c-0.2,0.5-0.4,1-0.5,1.2l2.3,0.9l0.5-1.3l1.2,0.5L43.9,88L42.7,87.4z M39.5,79.1c-1.2-0.5-2.3,0.3-2.9,1.6L36.2,82l4,1.5
									c0.1-0.2,0.3-0.7,0.5-1.3C41.3,80.8,40.8,79.6,39.5,79.1z"/>
								<path d="M47,76.7l0.5-0.8l-5.3-6.7l-0.6,1l-1.1-0.7l2.8-4.5l1.1,0.7l-0.6,1l8.4,1.7l0.5-0.8l1.1,0.7l-2,3.2l-1.1-0.7
									l0.6-1.1L49,69.2l-2.2,3.6l1.5,1.8l0.7-1.1l1.1,0.7l-2,3.2L47,76.7z M47.8,68.9l-4.8-1l3.1,3.9L47.8,68.9z"/>
								<path d="M54.7,63.8c-0.5-0.5-0.5-1-0.2-1.5c0.4-0.4,1-0.4,1.3-0.1c0.2,0.2,0.3,0.4,0.4,0.6c0.5-0.1,1.2-0.4,1.7-1
									c0.9-1,1-2,0.2-2.7c-0.7-0.7-1.7-0.3-2.8,0.3c-1.8,0.9-3.2,1.5-4.6,0.2c-1.2-1.1-1.2-3,0.2-4.5c1.3-1.4,3-1.8,3.8-1
									c0.5,0.5,0.5,1,0.1,1.4c-0.4,0.5-1,0.4-1.4,0.1c-0.2-0.2-0.3-0.3-0.3-0.5c-0.4,0-1,0.4-1.4,0.9c-0.8,0.9-0.8,1.8-0.2,2.4
									c0.8,0.7,1.7,0.3,2.9-0.3c1.7-0.9,3.2-1.5,4.5-0.2c1.4,1.3,1.2,3.2-0.2,4.7C57.5,64.2,55.5,64.5,54.7,63.8z"/>
								<path d="M65.5,54.4l1.1-0.8l-4.8-6.5l-1.9,1.4l1,1.4l-1.1,0.8L58,48.3l7.2-5.4l1.8,2.4l-1.1,0.8l-1-1.4L63,46.1l4.8,6.5
									l1.1-0.8l0.8,1l-3.4,2.5L65.5,54.4z"/>
								<path d="M74.6,45.4l-2.4-5L71,40.8l-0.6-1.2l3.7-1.7l0.6,1.2l-1.2,0.6l2.3,5c0.8,1.6,2,2.1,3.4,1.4c1.4-0.7,1.9-1.8,1.1-3.5
									l-2.3-5l-1.2,0.6L76.2,37l3.7-1.7l0.6,1.2L79.3,37l2.3,5c1.1,2.4,0.3,4.3-1.8,5.3C77.6,48.3,75.7,47.7,74.6,45.4z"/>
								<path d="M88.1,42.3l1.3-0.3l-1.9-7.8l-1.3,0.3l-0.3-1.3l4-1c2.3-0.6,4.2,0.2,4.6,2.1c0.3,1.4-0.3,2.6-1.4,3.3l2.7,2.7L97,40
									l0.3,1.3L95.1,42l-3.3-3.5c-0.2,0.1-0.4,0.1-0.6,0.2c-0.4,0.1-0.8,0.2-1.1,0.2l0.7,2.8l1.3-0.3l0.3,1.3l-4,1L88.1,42.3z
									 M93.1,34.8c-0.3-1.2-1.4-1.6-3-1.2l-1.2,0.3l0.9,3.7c0.3,0,0.6-0.1,1.2-0.2C92.5,37,93.4,36,93.1,34.8z"/>
								<path d="M101.2,39.7l1.3-0.1l-0.4-8l-1.3,0.1l-0.1-1.3l7.8-0.4l0.1,2.8l-1.4,0.1l-0.1-1.5l-3.7,0.2l0.2,3.3l3.4-0.2l0.1,1.3
									l-3.4,0.2l0.2,3.5l3.7-0.2l-0.1-1.5l1.4-0.1l0.1,2.8l-7.8,0.3L101.2,39.7z"/>
								<path d="M121.5,40.5l1.2,0.3l2-7.8l-1.2-0.3l0.3-1.3l3.9,1c2.3,0.6,3.6,2.1,3.1,4c-0.4,1.4-1.5,2.1-2.8,2.3l1.1,3.7l1.2,0.3
									L130,44l-2.2-0.6l-1.3-4.7c-0.2,0-0.4-0.1-0.6-0.1c-0.4-0.1-0.8-0.2-1-0.3l-0.7,2.8l1.3,0.3l-0.3,1.3l-4-1L121.5,40.5z
									 M129.4,36.3c0.3-1.2-0.5-2.1-2-2.5l-1.2-0.3l-1,3.7c0.3,0.1,0.6,0.2,1.1,0.3C127.9,37.9,129.1,37.5,129.4,36.3z"/>
								<path d="M133.9,44.1l0.9,0.4l6.2-5.9l-1.1-0.5l0.6-1.2l4.8,2.4l-0.6,1.2l-1.1-0.5l-0.9,8.5l0.9,0.4l-0.6,1.2l-3.4-1.7
									l0.6-1.2l1.1,0.5l0.3-2.4l-3.8-1.9l-1.7,1.7l1.2,0.6l-0.6,1.2l-3.4-1.7L133.9,44.1z M141.8,44.1l0.6-4.9l-3.6,3.4
									L141.8,44.1z"/>
								<path d="M147.2,51.5l1.1,0.8l4.7-6.5l-1-0.8l0.8-1l3.4,2.5l-0.8,1l-1.1-0.8l-4.7,6.5l1.1,0.8l-0.8,1l-3.4-2.5L147.2,51.5z"
									/>
								<path d="M155.2,56.6c0.5-0.5,1.1-0.5,1.5-0.1s0.4,1,0.1,1.3c-0.2,0.2-0.4,0.3-0.6,0.3c0,0.5,0.4,1.2,1,1.8
									c0.9,0.9,1.9,1.1,2.7,0.3c0.7-0.7,0.4-1.7-0.1-2.8c-0.8-1.9-1.3-3.3,0-4.6c1.2-1.2,3-1.1,4.4,0.4c1.3,1.3,1.6,3.1,0.8,3.9
									c-0.5,0.5-1,0.4-1.4,0.1c-0.4-0.4-0.4-1,0-1.4c0.2-0.2,0.4-0.2,0.5-0.3c0-0.4-0.3-1-0.8-1.5c-0.8-0.8-1.8-0.9-2.4-0.3
									c-0.7,0.7-0.4,1.7,0.2,2.9c0.8,1.8,1.3,3.2,0,4.5c-1.4,1.4-3.3,1.1-4.7-0.4C154.6,59.4,154.4,57.4,155.2,56.6z"/>
								<path d="M162.9,66.2l0.7,1.1l6.6-4.5l-0.7-1.1l1.1-0.7l4.4,6.5l-2.3,1.6l-0.8-1.2l1.2-0.8l-2.1-3l-2.7,1.8l1.9,2.8l-1.1,0.7
									l-1.9-2.8l-2.9,2l2.1,3l1.2-0.8l0.8,1.2l-2.3,1.6l-4.4-6.5L162.9,66.2z"/>
								<path d="M169.8,76.9l0.5,1.2l7.4-3.1l-0.5-1.2l1.2-0.5l1.5,3.7c1.4,3.5,0.5,6.4-2.5,7.7c-3,1.2-5.9,0-7.4-3.7l-1.5-3.6
									L169.8,76.9z M171.3,80.7c1.1,2.8,3.3,3.5,5.5,2.6c2.3-0.9,2.9-3.2,1.8-5.8l-0.5-1.1l-7.4,3.1L171.3,80.7z"/>
							</g>
						</g>
					</g>
				</g>
			</g>
		</g>
	</g>
	<g class="st1">
		<g>
			<g>
				<defs>
					<rect id="SVGID_1_" x="14.9" y="8.3" width="184.6" height="197.3"/>
				</defs>
				<clipPath id="SVGID_2_">
					<use xlink:href="#SVGID_1_"  style="overflow:visible;"/>
				</clipPath>
				<path class="st2" d="M108.3,197.2c-49.8,0-90.3-40.5-90.3-90.3s40.5-90.3,90.3-90.3s90.3,40.5,90.3,90.3
					S158.1,197.2,108.3,197.2 M108.3,19.9c-48,0-87,39-87,87s39,87,87,87s87-39,87-87S156.3,19.9,108.3,19.9"/>
			</g>
			<g>
				<defs>
					<rect id="SVGID_3_" x="14.9" y="8.3" width="184.6" height="197.3"/>
				</defs>
				<clipPath id="SVGID_4_">
					<use xlink:href="#SVGID_3_"  style="overflow:visible;"/>
				</clipPath>
				<path class="st3" d="M67.6,81.4L78,91.8C74.9,87.4,71.4,84.1,67.6,81.4"/>
			</g>
			<g>
				<defs>
					<rect id="SVGID_5_" x="14.9" y="8.3" width="184.6" height="197.3"/>
				</defs>
				<clipPath id="SVGID_6_">
					<use xlink:href="#SVGID_5_"  style="overflow:visible;"/>
				</clipPath>
				<path class="st4" d="M133.1,61.5l-0.6-0.6c-0.2,0.2-0.3,0.3-0.5,0.5l0.7,0.7C132.9,61.9,133,61.7,133.1,61.5"/>
			</g>
			<g>
				<defs>
					<rect id="SVGID_7_" x="14.9" y="8.3" width="184.6" height="197.3"/>
				</defs>
				<clipPath id="SVGID_8_">
					<use xlink:href="#SVGID_7_"  style="overflow:visible;"/>
				</clipPath>
				<path class="st5" d="M148.6,77.9l1.1,1.1c0.1-0.2,0.2-0.4,0.3-0.6l-0.9-0.9C148.9,77.6,148.7,77.7,148.6,77.9"/>
			</g>
			<g>
				<defs>
					<rect id="SVGID_9_" x="14.9" y="8.3" width="184.6" height="197.3"/>
				</defs>
				<clipPath id="SVGID_10_">
					<use xlink:href="#SVGID_9_"  style="overflow:visible;"/>
				</clipPath>
				<path class="st6" d="M134.1,59.6l-0.1-0.1c-0.2,0.2-0.3,0.3-0.5,0.5l0.3,0.3C133.9,60,134,59.8,134.1,59.6"/>
			</g>
			<g>
				<defs>
					<rect id="SVGID_11_" x="14.9" y="8.3" width="184.6" height="197.3"/>
				</defs>
				<clipPath id="SVGID_12_">
					<use xlink:href="#SVGID_11_"  style="overflow:visible;"/>
				</clipPath>
				<path class="st7" d="M150.7,76.2c-0.2,0.1-0.4,0.3-0.5,0.4l0.5,0.5c0.1-0.2,0.2-0.4,0.3-0.6L150.7,76.2z"/>
			</g>
			<g>
				<defs>
					<rect id="SVGID_13_" x="14.9" y="8.3" width="184.6" height="197.3"/>
				</defs>
				<clipPath id="SVGID_14_">
					<use xlink:href="#SVGID_13_"  style="overflow:visible;"/>
				</clipPath>
				<path class="st8" d="M94,57.3L94,57.3c0,0.3,0,0.7,0.1,1l0.6,0.6C94.4,58.3,94.2,57.8,94,57.3"/>
			</g>
			<g>
				<defs>
					<rect id="SVGID_15_" x="14.9" y="8.3" width="184.6" height="197.3"/>
				</defs>
				<clipPath id="SVGID_16_">
					<use xlink:href="#SVGID_15_"  style="overflow:visible;"/>
				</clipPath>
				<path class="st9" d="M185,120.3h-52c2.3-18.6,19.4-43.8,19.6-44l1.9-2.7l-2.8,1.8c-20.5,13.5-28,40.9-29,45h-4.4
					c0.8-4.4,5.7-24.9,26.5-41.7l-0.8-1c-15.4,12.4-22.2,26.9-25.1,35.6c3.8-32.3,17-54.3,17.1-54.6l2.5-4.1l-3.5,3.3
					c-23.1,21.5-27.6,57-28.2,62.5h-8.3c0.3-1.3,0.7-2.6,0.9-3.8c2.5-9.2,9.6-30.6,25-49.2l-1-0.8c-11.4,13.9-18.3,29.2-22.2,40
					c3-23.7-3.1-40.7-6.3-47.6L93,55l0.6,4.4c0,0.3,3.9,28.5-4.2,58.8c-0.6-2.8-1.8-7.2-3.8-12.2c0.8-1.7,6.5-15.1,6.9-37h-1.3
					c-0.4,18.9-4.7,31.4-6.3,35.3c-3.6-8.4-9.4-18-18.7-23.7l-3.1-1.9l2.2,2.9c12.2,15.7,15.5,35.5,16,39h-6.1
					c2.6-6.4,1.2-15.4-3.9-26.1l-1.2,0.6c5,10.4,6.3,19.5,3.6,25.5H31.5v1.3h58.2h0.1l0,0H185V120.3z M149.6,78.4
					c-0.4,0.6-0.7,1.2-1.2,1.9l-0.5-0.5C148.4,79.3,149,78.9,149.6,78.4 M147.4,80.2l0.7,0.7c-0.2,0.4-0.5,0.8-0.7,1.2l-1-1
					C146.7,80.8,147,80.5,147.4,80.2 M145.8,81.6l1.1,1.1c-0.2,0.4-0.5,0.8-0.7,1.2l-1.4-1.4C145.2,82.2,145.5,81.9,145.8,81.6
					 M144.4,83l1.5,1.5c-0.2,0.4-0.5,0.8-0.7,1.3l-1.8-1.8C143.7,83.7,144,83.3,144.4,83 M142.9,84.5l1.9,1.9
					c-0.2,0.4-0.5,0.8-0.7,1.3l-2.1-2.1C142.3,85.2,142.6,84.8,142.9,84.5 M141.5,86l2.2,2.2c-0.2,0.4-0.5,0.8-0.7,1.3l-2.5-2.5
					C140.9,86.7,141.2,86.4,141.5,86 M140.2,87.6l2.6,2.6c-0.2,0.4-0.5,0.9-0.7,1.3l-2.7-2.7C139.6,88.3,139.9,88,140.2,87.6
					 M138.9,89.2l2.8,2.8c-0.2,0.4-0.4,0.9-0.7,1.3l-3-3C138.4,90,138.6,89.6,138.9,89.2 M137.7,90.9l3.1,3.1
					c-0.2,0.4-0.4,0.9-0.7,1.3l-3.3-3.3C137.1,91.7,137.4,91.3,137.7,90.9 M136.5,92.6l3.3,3.3c-0.2,0.4-0.4,0.9-0.6,1.3l-3.5-3.5
					C136,93.4,136.2,93,136.5,92.6 M135.3,94.4l3.6,3.5c-0.2,0.5-0.4,0.9-0.6,1.4l-3.7-3.7C134.8,95.2,135.1,94.8,135.3,94.4
					 M134.2,96.2l3.8,3.8c-0.2,0.5-0.4,0.9-0.6,1.4l-3.9-3.9C133.7,97,134,96.6,134.2,96.2 M133.1,98l3.9,3.9
					c-0.2,0.5-0.4,0.9-0.6,1.4l-4.1-4.1C132.7,98.8,132.9,98.4,133.1,98 M132.1,99.9l4.1,4.1c-0.2,0.5-0.4,0.9-0.6,1.4l-4.3-4.3
					C131.6,100.7,131.9,100.3,132.1,99.9 M131.1,101.8l4.3,4.3c-0.2,0.5-0.4,1-0.5,1.4l-4.4-4.4
					C130.7,102.7,130.9,102.2,131.1,101.8 M130.2,103.7l4.5,4.5c-0.2,0.5-0.3,1-0.5,1.5l-4.6-4.6
					C129.7,104.6,129.9,104.2,130.2,103.7 M129.2,105.7l4.7,4.7c-0.2,0.5-0.3,1-0.5,1.5l-4.8-4.8C128.8,106.6,129,106.2,129.2,105.7
					 M128.4,107.7l4.9,4.9c-0.1,0.5-0.3,1-0.4,1.6l-5.1-5.1C128,108.7,128.2,108.2,128.4,107.7 M127.5,109.8l5.1,5.1
					c-0.1,0.5-0.3,1.1-0.4,1.6l-5.3-5.3C127.1,110.8,127.3,110.3,127.5,109.8 M126.7,111.9l5.4,5.4c-0.1,0.6-0.2,1.1-0.3,1.7
					l-5.7-5.7C126.3,112.9,126.5,112.4,126.7,111.9 M125.9,114.1l5.8,5.8c0,0.2,0,0.3-0.1,0.5h-1.5l-4.8-4.8
					C125.6,115.1,125.8,114.6,125.9,114.1 M125.2,116.3l4.1,4.1h-2l-2.5-2.5C124.9,117.3,125,116.8,125.2,116.3 M124.1,120
					c0.1-0.4,0.2-0.9,0.4-1.6l1.8,1.8h-2L124.1,120z M132.7,61.9c-0.3,0.5-0.6,1.2-0.9,1.8l-0.4-0.4
					C131.9,62.9,132.3,62.4,132.7,61.9 M131,63.8l0.5,0.5c-0.2,0.4-0.4,0.9-0.6,1.3l-0.8-0.8C130.4,64.6,130.7,64.2,131,63.8
					 M129.7,65.4l0.9,0.9c-0.2,0.4-0.4,0.9-0.6,1.4l-1.2-1.2C129.1,66.2,129.4,65.8,129.7,65.4 M128.4,67l1.3,1.3
					c-0.2,0.4-0.4,0.9-0.6,1.4l-1.6-1.6C127.8,67.8,128.1,67.4,128.4,67 M127.1,68.7l1.7,1.7c-0.2,0.5-0.4,0.9-0.6,1.4l-1.9-1.9
					C126.6,69.5,126.9,69.1,127.1,68.7 M125.9,70.4l2,2c-0.2,0.5-0.4,0.9-0.6,1.4l-2.3-2.3C125.4,71.2,125.7,70.8,125.9,70.4
					 M124.8,72.1l2.4,2.4c-0.2,0.5-0.4,0.9-0.5,1.4l-2.6-2.6C124.2,73,124.5,72.5,124.8,72.1 M123.6,73.9l2.7,2.7
					c-0.2,0.5-0.4,1-0.5,1.5l-2.9-2.9C123.1,74.7,123.4,74.3,123.6,73.9 M122.5,75.7l3,3c-0.2,0.5-0.3,1-0.5,1.5l-3.2-3.2
					C122.1,76.6,122.3,76.2,122.5,75.7 M121.5,77.6l3.3,3.3c-0.2,0.5-0.3,1-0.5,1.5l-3.5-3.5C121,78.5,121.2,78,121.5,77.6
					 M120.5,79.5l3.6,3.6c-0.2,0.5-0.3,1-0.5,1.5l-3.8-3.8C120,80.4,120.2,79.9,120.5,79.5 M119.5,81.4l3.9,3.9
					c-0.2,0.5-0.3,1-0.5,1.5l-4.1-4.1C119,82.3,119.3,81.9,119.5,81.4 M118.5,83.4l4.2,4.2c-0.1,0.5-0.3,1-0.4,1.5l-4.4-4.4
					C118.1,84.3,118.3,83.8,118.5,83.4 M117.6,85.4l4.5,4.5c-0.1,0.5-0.3,1-0.4,1.6l-4.7-4.7C117.2,86.3,117.4,85.8,117.6,85.4
					 M116.7,87.4l4.7,4.7c-0.1,0.5-0.3,1.1-0.4,1.6l-4.9-4.9C116.4,88.3,116.5,87.9,116.7,87.4 M115.9,89.5l5,5
					c-0.1,0.5-0.3,1.1-0.4,1.6l-5.2-5.2C115.5,90.4,115.7,90,115.9,89.5 M115.1,91.6l5.2,5.2c-0.1,0.5-0.2,1.1-0.4,1.6l-5.4-5.4
					C114.7,92.5,114.9,92.1,115.1,91.6 M114.3,93.7l5.5,5.5c-0.1,0.5-0.2,1.1-0.3,1.6l-5.7-5.7C114,94.7,114.1,94.2,114.3,93.7
					 M113.6,95.9l5.8,5.8c-0.1,0.6-0.2,1.1-0.3,1.7l-5.9-5.9C113.3,96.9,113.4,96.4,113.6,95.9 M112.9,98.1l6,6
					c-0.1,0.6-0.2,1.1-0.3,1.7l-6.2-6.2C112.6,99.1,112.7,98.6,112.9,98.1 M112.2,100.3l6.3,6.3c-0.1,0.6-0.2,1.1-0.3,1.7l-6.4-6.4
					C111.9,101.4,112.1,100.9,112.2,100.3 M111.6,102.6l6.5,6.5c-0.1,0.6-0.2,1.2-0.2,1.7l-6.7-6.7
					C111.3,103.7,111.4,103.1,111.6,102.6 M111,104.9l6.8,6.8c-0.1,0.6-0.1,1.2-0.2,1.8l-6.9-6.9C110.7,106,110.8,105.5,111,104.9
					 M110.4,107.3l7,7c-0.1,0.6-0.1,1.2-0.2,1.8l-7.2-7.2C110.2,108.4,110.3,107.8,110.4,107.3 M109.9,109.6l7.3,7.3
					c-0.1,0.6-0.1,1.2-0.2,1.8l-7.5-7.5C109.7,110.8,109.8,110.2,109.9,109.6 M109.4,112.1l7.6,7.6c0,0.2,0,0.5,0,0.7h-1.2l-6.6-6.6
					C109.2,113.2,109.3,112.7,109.4,112.1 M109,114.5l5.8,5.8h-2l-4.1-4.1C108.8,115.7,108.9,115.1,109,114.5 M108.6,117.1l3.3,3.3
					h-2l-1.5-1.5C108.4,118.3,108.5,117.7,108.6,117.1 M108.2,119.6l0.7,0.7h-0.8C108.2,120.1,108.2,119.9,108.2,119.6 M100.8,93.8
					l-5.1-5.1c0-0.6,0.1-1.3,0.1-1.9l5,5C100.7,92.4,100.7,93.1,100.8,93.8 M100.7,90.8l-4.9-4.9c0-0.6,0.1-1.3,0.1-1.9l4.7,4.7
					C100.6,89.4,100.7,90.1,100.7,90.8 M100.5,87.7l-4.6-4.6c0-0.6,0-1.3,0.1-1.9l4.4,4.4C100.4,86.3,100.5,87,100.5,87.7
					 M100.3,84.6L96,80.3c0-0.7,0-1.3,0-2l4,4C100.1,83.1,100.2,83.8,100.3,84.6 M99.9,81.3L96,77.4c0-0.7,0-1.3,0-2l3.5,3.5
					C99.7,79.7,99.8,80.5,99.9,81.3 M99.3,77.8L96,74.5c0-0.7,0-1.4,0-2l2.9,2.9C99,76.2,99.2,77,99.3,77.8 M98.6,74.2l-2.7-2.7
					c0-0.7,0-1.4-0.1-2.1l2.1,2.1C98.2,72.4,98.4,73.3,98.6,74.2 M97.7,70.3l-1.9-1.9c0-0.7-0.1-1.4-0.1-2.1l1.2,1.2
					C97.1,68.4,97.4,69.3,97.7,70.3 M96.4,66.2l-0.8-0.8c0-0.7-0.1-1.3-0.1-1.9C95.8,64.3,96.1,65.2,96.4,66.2 M95.6,89.5l5.2,5.2
					c0,0.6,0,1.3,0,1.9l-5.3-5.3C95.5,90.7,95.5,90.1,95.6,89.5 M95.3,92.2l5.4,5.4c0,0.6,0,1.3-0.1,1.9L95.2,94
					C95.2,93.4,95.3,92.8,95.3,92.2 M95.1,94.9l5.5,5.5c0,0.6-0.1,1.2-0.1,1.8L95,96.7C95,96,95,95.4,95.1,94.9 M94.8,97.5l5.5,5.5
					c-0.1,0.6-0.1,1.2-0.2,1.8l-5.6-5.6C94.6,98.6,94.7,98.1,94.8,97.5 M94.5,100l5.6,5.6c-0.1,0.6-0.1,1.2-0.2,1.8l-5.6-5.6
					C94.3,101.2,94.4,100.6,94.5,100 M94.1,102.6l5.6,5.6c-0.1,0.6-0.2,1.1-0.3,1.7l-5.6-5.6C93.9,103.7,94,103.2,94.1,102.6
					 M93.7,105.1l5.6,5.6c-0.1,0.6-0.2,1.1-0.3,1.7l-5.6-5.6C93.5,106.2,93.6,105.7,93.7,105.1 M93.2,107.6l5.6,5.6
					c-0.1,0.5-0.2,1.1-0.3,1.6l-5.6-5.6C93,108.7,93.1,108.1,93.2,107.6 M92.8,110l5.6,5.6c0,0.2-0.1,0.4-0.1,0.6
					c-0.1,0.3-0.2,0.7-0.3,1l-5.5-5.5C92.5,111.1,92.7,110.5,92.8,110 M92.3,112.4l5.5,5.5c-0.2,0.6-0.3,1.2-0.4,1.6l-5.5-5.5
					C92,113.5,92.1,112.9,92.3,112.4 M91.7,114.8l5.5,5.5c0,0,0,0,0,0.1h-1.9l-4-4C91.5,115.8,91.6,115.3,91.7,114.8 M91.1,117.1
					l3.2,3.2h-2l-1.7-1.7C90.9,118.1,91,117.6,91.1,117.1 M91.4,120.3h-1.2c0.1-0.3,0.2-0.6,0.3-0.9L91.4,120.3z M68.9,83.7
					c4.3,3.3,7.7,7.5,10.4,11.9l-7.8-7.8C70.6,86.4,69.8,85,68.9,83.7 M72.7,89.9l7.9,7.9c0.8,1.4,1.5,2.7,2.1,4.1l-8-8
					C74.1,92.6,73.4,91.2,72.7,89.9 M75.5,95.7l7.9,7.9c0.5,1.1,1,2.3,1.4,3.4L77,99.1C76.5,98,76.1,96.8,75.5,95.7 M77.6,100.7
					l7.8,7.8c0.4,1,0.7,2,1,3l-7.7-7.7C78.4,102.8,78,101.7,77.6,100.7 M79.2,105.2l7.6,7.6c0.3,1,0.6,1.9,0.8,2.8l-7.5-7.5
					C79.8,107.1,79.5,106.2,79.2,105.2 M80.5,109.3l7.4,7.4c0.2,1,0.4,1.9,0.6,2.6l-7.3-7.3C81,111.2,80.7,110.3,80.5,109.3
					 M88.5,120.3h-2l-4.5-4.5c-0.2-0.8-0.4-1.6-0.6-2.6L88.5,120.3z M82.7,119.4c-0.1-0.6-0.2-1.4-0.4-2.4l3.3,3.3h-2L82.7,119.4z"
					/>
			</g>
		</g>
		<text transform="matrix(0.8648 -0.5021 0.5021 0.8648 60.652 55.3892)" class="st10 st11 st12"> </text>
		<text transform="matrix(0.9106 -0.4133 0.4133 0.9106 64.7573 52.7777)" class="st10 st13 st12">ﻲ</text>
		<text transform="matrix(0.953 -0.3029 0.3029 0.953 75.5713 47.9542)" class="st10 st13 st14">ﻋ</text>
		<text transform="matrix(0.9718 -0.2356 0.2356 0.9718 83.7714 45.4324)" class="st10 st13 st15">ا</text>
		<text transform="matrix(0.9816 -0.191 0.191 0.9816 85.6618 44.8797)" class="st10 st13 st16">ﺮ</text>
		<text transform="matrix(0.9945 -0.1046 0.1046 0.9945 93.1029 43.4115)" class="st10 st13 st12">ﳌ</text>
		<text transform="matrix(0.9992 -4.005840e-02 4.005840e-02 0.9992 101.1362 42.6299)" class="st10 st13 st12">ا</text>
		<text transform="matrix(1 8.720610e-03 -8.720610e-03 1 104.7719 42.4604)" class="st10 st11 st17"> </text>
		<text transform="matrix(0.9946 0.104 -0.104 0.9946 109.6541 42.3181)" class="st10 st13 st12">ﰲ</text>
		<text transform="matrix(0.9798 0.1998 -0.1998 0.9798 121.4372 43.6995)" class="st10 st11 st18"> </text>
		<path class="st10" d="M137.1,39.6c0.3,1.5,0.4,2.9,0.1,3.7c-0.2,0.7-0.7,1.3-1.2,1.8c1.3,0.7,1.4,1.2,1.1,2.2
			c-0.1,0.4-0.4,0.9-1,1.4c-2.4,1.2-4.4,1.2-5.9,0.7c-1.1-0.3-2-1.1-2.4-1.9c-0.5-1.1-0.6-2.2-0.3-3.5c0.4-1.4,1.2-2.4,2-3.4
			l0.4,0.3c-0.6,0.8-1,1.5-1.3,2.3s-0.3,1.6,0,2.5c0.4,1,1.1,1.8,2.2,2.1c1.1,0.3,2.3,0.5,3.6,0.2c0.7-0.2,1.4-0.4,1.8-0.7
			c0.1-0.4-1.7-1.4-3.3-2.1v-0.1l0.9-1c1.4,0.2,2,0,2.3-0.2c0.1-0.9-0.1-2-0.3-3.3C136.2,40.2,136.6,39.8,137.1,39.6L137.1,39.6z
			 M133.9,51c0.4,0.5,0.7,1.1,1,1.7c-0.4,0.3-0.8,0.6-1.3,0.8c-0.3-0.6-0.7-1.1-1-1.6C133,51.6,133.5,51.3,133.9,51z"/>
		<text transform="matrix(0.9101 0.4144 -0.4144 0.9101 136.9672 47.7656)" class="st10 st13 st12">ﱰ</text>
		<text transform="matrix(0.8661 0.4999 -0.4999 0.8661 146.5869 52.2738)" class="st10 st13 st16">ﺗ</text>
		<text transform="matrix(1 0 0 1 150.7194 148.0381)" class="st10 st19 st20"> ﻰﻠﻋ ىذﻐﺗﺗو</text>
		<text transform="matrix(1 0 0 1 99.616 176.9268)" class="st10 st19 st20">بﺷ</text>
		<text transform="matrix(1 0 0 1 116.9385 178.3232)" class="st10 st19 st20">ُ</text>
		<text transform="matrix(1 0 0 1 126.1152 176.9268)" class="st10 st19 st20">ﻌﻟا</text>
	</g>
</g>
<g id="Layer_2">
	<path class="st21" d="M107.3,196.6c-49.3,0-89.3-40-89.3-89.3S58,18,107.3,18s89.3,40,89.3,89.3
		C196.6,156.6,156.6,196.6,107.3,196.6z M107.3,21.2c-47.5,0-86.1,38.5-86.1,86.1s38.5,86.1,86.1,86.1s86.1-38.5,86.1-86.1
		C193.4,59.8,154.8,21.3,107.3,21.2L107.3,21.2z"/>
	<path class="st21" d="M67.2,82l10.4,10.3C74.6,88.4,71.1,84.9,67.2,82z"/>
	<path class="st21" d="M131.9,62.4l-0.6-0.6c-0.2,0.2-0.3,0.3-0.5,0.5l0.7,0.7C131.7,62.8,131.8,62.6,131.9,62.4z"/>
	<path class="st21" d="M147.2,78.6l1.1,1.1c0.1-0.2,0.2-0.4,0.3-0.6l-0.9-0.9L147.2,78.6z"/>
	<path class="st21" d="M132.9,60.5l-0.1-0.1l-0.5,0.5l0.3,0.3L132.9,60.5z"/>
	<path class="st21" d="M149.3,77l-0.5,0.4l0.5,0.5l0.3-0.6L149.3,77z"/>
	<path class="st21" d="M93.2,58.2L93.2,58.2c0,0.3,0.1,0.7,0.1,1l0.6,0.6C93.6,59.2,93.4,58.7,93.2,58.2z"/>
	<path class="st21" d="M183.2,120.6h-51.4c2.3-18.4,19.2-43.3,19.4-43.5l1.9-2.7l-2.7,1.8c-20.3,13.3-27.6,40.4-28.6,44.4h-4.3
		c0.8-4.3,5.7-24.6,26.2-41.2l-0.8-1c-11.4,9.1-20.1,21.3-24.8,35.2c3.7-31.9,16.8-53.7,16.9-54l2.5-4l-3.5,3.2
		c-22.8,21.3-27.3,56.4-27.9,61.8h-8.1c0.3-1.3,0.6-2.5,0.9-3.8c2.5-9.1,9.5-30.2,24.7-48.7l-1-0.8c-11.3,13.7-18.1,28.9-21.9,39.6
		c3-23.4-3.1-40.2-6.3-47.1l-1.8-4l0.6,4.4c0,0.3,3.9,28.2-4.1,58.1c-0.9-4.1-2.2-8.2-3.7-12.1c0.8-1.7,6.4-14.9,6.8-36.6h-1.3
		c-0.3,18.7-4.7,31.1-6.2,34.9c-3.5-8.3-9.3-17.8-18.5-23.4l-3-1.9l2.2,2.8c12,15.5,15.3,35.1,15.9,38.6h-6
		c2.6-6.4,1.2-15.3-3.8-25.8l-1.2,0.6c5,10.3,6.2,19.2,3.6,25.2h-42v1.3H89h0.1l0,0h94L183.2,120.6z M148.2,79.1L147,81l-0.5-0.5
		C147.1,80,147.6,79.6,148.2,79.1z M146,80.9l0.7,0.7l-0.7,1.2l-1-1C145.3,81.5,145.7,81.2,146,80.9z M144.5,82.3l1.1,1.1l-0.7,1.2
		l-1.4-1.4C143.8,82.9,144.1,82.6,144.5,82.3z M143,83.7l1.5,1.5c-0.2,0.4-0.5,0.8-0.7,1.2l-1.8-1.8C142.4,84.3,142.7,84,143,83.7
		L143,83.7z M141.6,85.1l1.9,1.9l-0.7,1.3l-2.1-2.1L141.6,85.1z M140.3,86.7l2.2,2.2l-0.7,1.3l-2.4-2.4
		C139.6,87.4,139.9,87,140.3,86.7L140.3,86.7z M138.9,88.2l2.5,2.5c-0.2,0.4-0.4,0.8-0.7,1.3l-2.7-2.7L138.9,88.2z M137.6,89.8
		l2.8,2.8l-0.7,1.3l-3-3C137.1,90.6,137.4,90.2,137.6,89.8L137.6,89.8z M136.4,91.5l3.1,3l-0.6,1.3l-3.2-3.2L136.4,91.5z
		 M135.2,93.2l3.3,3.3l-0.6,1.3l-3.4-3.4C134.7,94,135,93.6,135.2,93.2L135.2,93.2z M134.1,94.9l3.5,3.5c-0.2,0.4-0.4,0.9-0.6,1.3
		l-3.6-3.7L134.1,94.9z M133,96.7l3.7,3.7c-0.2,0.4-0.4,0.9-0.6,1.4l-3.9-3.8C132.5,97.5,132.7,97.1,133,96.7L133,96.7z M131.9,98.5
		l3.9,3.9l-0.6,1.4l-4-4C131.5,99.3,131.7,98.9,131.9,98.5L131.9,98.5z M130.9,100.3l4.1,4.1c-0.2,0.5-0.4,0.9-0.6,1.4l-4.2-4.2
		C130.4,101.2,130.7,100.8,130.9,100.3L130.9,100.3z M129.9,102.2l4.3,4.3c-0.2,0.5-0.4,1-0.5,1.4l-4.4-4.4
		C129.5,103.1,129.7,102.7,129.9,102.2L129.9,102.2z M129,104.2l4.4,4.4c-0.2,0.5-0.3,1-0.5,1.5l-4.6-4.6L129,104.2z M128.1,106.2
		l4.6,4.6c-0.2,0.5-0.3,1-0.5,1.5l-4.7-4.8L128.1,106.2z M127.2,108.2l4.8,4.8c-0.1,0.5-0.3,1-0.4,1.5l-5-5
		C126.8,109.1,127,108.6,127.2,108.2L127.2,108.2z M126.4,110.2l5.1,5.1c-0.1,0.5-0.2,1.1-0.4,1.6l-5.3-5.3
		C126,111.1,126.2,110.7,126.4,110.2L126.4,110.2z M125.6,112.2l5.4,5.4c-0.1,0.6-0.2,1.1-0.3,1.7l-5.6-5.6
		C125.2,113.2,125.4,112.8,125.6,112.2L125.6,112.2z M124.8,114.4l5.7,5.7l-0.1,0.4H129l-4.7-4.7
		C124.5,115.4,124.6,114.9,124.8,114.4L124.8,114.4z M124.1,116.5l4,4h-2l-2.5-2.5C123.8,117.6,123.9,117.1,124.1,116.5L124.1,116.5
		z M123,120.3c0.1-0.4,0.2-0.9,0.4-1.5l1.8,1.8h-2L123,120.3z M131.5,62.8l-0.9,1.8l-0.4-0.4C130.7,63.8,131.1,63.3,131.5,62.8z
		 M129.8,64.7l0.5,0.5c-0.2,0.4-0.4,0.9-0.6,1.3l-0.8-0.8L129.8,64.7z M128.5,66.3l0.9,0.9c-0.2,0.4-0.4,0.9-0.6,1.3l-1.2-1.2
		L128.5,66.3z M127.2,67.9l1.3,1.3l-0.6,1.4l-1.5-1.5L127.2,67.9z M126,69.5l1.7,1.7c-0.2,0.4-0.4,0.9-0.6,1.4l-1.9-1.9
		C125.4,70.3,125.7,69.9,126,69.5L126,69.5z M124.8,71.2l2,2l-0.6,1.4l-2.2-2.2C124.3,72,124.5,71.6,124.8,71.2z M123.6,72.9
		l2.3,2.3c-0.2,0.5-0.4,0.9-0.5,1.4l-2.6-2.6C123.1,73.7,123.4,73.3,123.6,72.9L123.6,72.9z M122.5,74.7l2.7,2.7
		c-0.2,0.5-0.3,0.9-0.5,1.4l-2.9-2.9C122,75.5,122.3,75.1,122.5,74.7z M121.4,76.5l3,3c-0.2,0.5-0.3,1-0.5,1.4l-3.2-3.2L121.4,76.5z
		 M120.4,78.3l3.3,3.3c-0.2,0.5-0.3,1-0.5,1.5l-3.5-3.5L120.4,78.3z M119.4,80.2l3.6,3.6c-0.2,0.5-0.3,1-0.5,1.5l-3.8-3.8
		C118.9,81.1,119.2,80.6,119.4,80.2L119.4,80.2z M118.4,82.1l3.9,3.9l-0.4,1.5l-4.1-4.1C118,83,118.2,82.5,118.4,82.1L118.4,82.1z
		 M117.5,84l4.1,4.2c-0.2,0.5-0.3,1-0.4,1.5l-4.3-4.3C117.1,84.9,117.3,84.5,117.5,84z M116.6,86l4.4,4.4c-0.1,0.5-0.3,1-0.4,1.6
		l-4.6-4.6C116.2,86.9,116.4,86.5,116.6,86L116.6,86z M115.7,88l4.7,4.7c-0.1,0.5-0.3,1-0.4,1.6l-4.8-4.9
		C115.3,89,115.5,88.5,115.7,88L115.7,88z M114.9,90l4.9,4.9c-0.1,0.5-0.2,1-0.4,1.6l-5.1-5.1C114.5,91,114.7,90.5,114.9,90
		L114.9,90z M114.1,92.1l5.2,5.2l-0.4,1.6l-5.4-5.3C113.7,93.1,113.9,92.6,114.1,92.1L114.1,92.1z M113.3,94.2l5.4,5.4l-0.3,1.6
		l-5.6-5.6C113,95.2,113.1,94.8,113.3,94.2z M112.6,96.4l5.7,5.7c-0.1,0.5-0.2,1.1-0.3,1.6l-5.9-5.8
		C112.2,97.4,112.4,96.9,112.6,96.4L112.6,96.4z M111.9,98.6l5.9,5.9c-0.1,0.6-0.2,1.1-0.3,1.7l-6.1-6.1
		C111.6,99.6,111.7,99.1,111.9,98.6L111.9,98.6z M111.2,100.8l6.2,6.2c-0.1,0.6-0.2,1.1-0.3,1.7l-6.3-6.3
		C110.9,101.8,111.1,101.3,111.2,100.8L111.2,100.8z M110.6,103l6.4,6.4c-0.1,0.6-0.2,1.1-0.2,1.7l-6.6-6.6
		C110.3,104.1,110.5,103.6,110.6,103L110.6,103z M110,105.3l6.7,6.7c-0.1,0.6-0.2,1.2-0.2,1.8l-6.9-6.9
		C109.7,106.4,109.9,105.9,110,105.3L110,105.3z M109.4,107.6l6.9,6.9c-0.1,0.6-0.1,1.2-0.2,1.8l-7.1-7.1
		C109.2,108.7,109.3,108.2,109.4,107.6L109.4,107.6z M108.9,110l7.2,7.2c-0.1,0.6-0.1,1.2-0.2,1.8l-7.4-7.4
		C108.7,111.1,108.8,110.6,108.9,110L108.9,110z M108.4,112.4l7.5,7.5c0,0.2,0,0.5-0.1,0.7h-1.2l-6.5-6.5
		C108.2,113.5,108.3,113,108.4,112.4L108.4,112.4z M108,114.8l5.7,5.7h-2l-4-4C107.8,116,107.9,115.5,108,114.8L108,114.8z
		 M107.6,117.3l3.2,3.2h-2l-1.5-1.5C107.4,118.6,107.5,118,107.6,117.3L107.6,117.3z M107.3,119.8l0.7,0.7h-0.8
		C107.2,120.4,107.2,120.1,107.3,119.8L107.3,119.8z M99.9,94.3l-5.1-5.1l0.1-1.8l4.9,4.9C99.9,93,99.9,93.7,99.9,94.3z M99.9,91.4
		L95,86.5c0-0.6,0.1-1.3,0.1-1.9l4.7,4.7C99.8,90,99.8,90.7,99.9,91.4L99.9,91.4z M99.7,88.4l-4.6-4.6c0-0.6,0-1.3,0-1.9l4.4,4.3
		C99.6,86.9,99.6,87.6,99.7,88.4L99.7,88.4z M99.4,85.2L95.2,81c0-0.7,0-1.3,0-1.9l4,4C99.3,83.7,99.3,84.5,99.4,85.2z M99,82
		l-3.8-3.8c0-0.7,0-1.3,0-2l3.5,3.5C98.8,80.4,98.9,81.2,99,82z M98.5,78.5l-3.3-3.3c0-0.7,0-1.3,0-2l2.9,2.9
		C98.2,76.9,98.4,77.7,98.5,78.5z M97.8,74.9l-2.7-2.7c0-0.7-0.1-1.4-0.1-2l2.1,2.1C97.4,73.2,97.6,74.1,97.8,74.9L97.8,74.9z
		 M96.9,71.1L95,69.3c0-0.7-0.1-1.4-0.1-2.1l1.2,1.2C96.3,69.2,96.6,70.2,96.9,71.1L96.9,71.1z M95.6,67l-0.8-0.8
		c0-0.7-0.1-1.3-0.1-1.9C95,65.2,95.3,66.1,95.6,67z M94.8,90.1l5.1,5.1c0,0.6,0,1.3,0,1.9l-5.3-5.2C94.7,91.3,94.7,90.7,94.8,90.1z
		 M94.5,92.8l5.3,5.3c0,0.6,0,1.2-0.1,1.9l-5.4-5.4C94.4,93.9,94.5,93.3,94.5,92.8z M94.3,95.4l5.4,5.4c0,0.6-0.1,1.2-0.1,1.8
		l-5.5-5.5C94.2,96.6,94.2,96,94.3,95.4L94.3,95.4z M94,98l5.5,5.5c0,0.6-0.1,1.2-0.2,1.8l-5.5-5.5C93.9,99.1,93.9,98.6,94,98L94,98
		z M93.6,100.5l5.5,5.5c-0.1,0.6-0.2,1.2-0.2,1.7l-5.5-5.6C93.5,101.7,93.6,101.1,93.6,100.5L93.6,100.5z M93.3,103l5.6,5.6
		c-0.1,0.6-0.2,1.1-0.3,1.7l-5.6-5.6C93.1,104.2,93.2,103.6,93.3,103L93.3,103z M92.9,105.5l5.6,5.6l-0.3,1.7l-5.6-5.5
		C92.7,106.6,92.8,106.1,92.9,105.5L92.9,105.5z M92.5,108l5.6,5.6l-0.3,1.6l-5.6-5.5C92.3,109.1,92.4,108.5,92.5,108z M92,110.4
		l5.5,5.5c0,0.2-0.1,0.4-0.1,0.6s-0.2,0.7-0.3,1l-5.5-5.5C91.8,111.4,91.9,110.9,92,110.4L92,110.4z M91.5,112.7l5.4,5.5
		c-0.2,0.6-0.3,1.1-0.4,1.6l-5.4-5.4C91.2,113.8,91.4,113.2,91.5,112.7z M91,115.1l5.4,5.4l0,0h-1.9l-3.9-3.9
		C90.7,116.1,90.8,115.6,91,115.1L91,115.1z M90.4,117.4l3.2,3.2h-2l-1.6-1.6C90.1,118.4,90.2,117.9,90.4,117.4L90.4,117.4z
		 M90.7,120.6h-1.2c0.1-0.3,0.2-0.6,0.3-0.9L90.7,120.6z M68.3,84.3c4.1,3.3,7.6,7.3,10.3,11.8l-7.7-7.7
		C70.1,87,69.2,85.6,68.3,84.3z M72.1,90.5l7.9,7.9c0.8,1.3,1.4,2.7,2.1,4l-7.9-7.9C73.5,93.1,72.8,91.8,72.1,90.5z M75,96.2
		l7.8,7.8c0.5,1.1,1,2.2,1.4,3.3l-7.8-7.8C76,98.5,75.5,97.3,75,96.2z M77,101.2l7.7,7.7c0.4,1,0.7,2,1,3l-7.6-7.6
		C77.8,103.2,77.4,102.2,77,101.2L77,101.2z M78.5,105.6l7.6,7.6c0.3,1,0.5,1.9,0.8,2.7l-7.3-7.5C79.2,107.5,78.9,106.6,78.5,105.6
		L78.5,105.6z M79.8,109.8l7.4,7.4c0.2,1,0.4,1.8,0.6,2.5l-7.2-7.2C80.3,111.6,80.1,110.7,79.8,109.8L79.8,109.8z M87.8,120.6h-2
		l-4.4-4.4c-0.2-0.8-0.3-1.6-0.6-2.5L87.8,120.6z M82.1,119.7c-0.1-0.6-0.2-1.4-0.4-2.4l3.3,3.3h-2L82.1,119.7z"/>
	<path class="st21" d="M75.2,38.2c-0.2-0.9-0.5-1.5-0.6-2c-0.2-0.5-0.3-0.8-0.4-1.1c0.2,0,0.4,0,0.6-0.1l0.5-0.1c0.1,0,0.2,0,0.3,0
		s0,0.1-0.1,0.3c0,0.1,0,0.3,0,0.4c0,0.2,0,0.4,0.1,0.6L76,38c0.4-0.1,0.8-0.2,1.1-0.4c0.3-0.1,0.6-0.2,0.8-0.3l0.3,1
		c-0.2,0-0.5,0.1-0.9,0.2c-0.3,0.1-0.7,0.2-1.2,0.3l0.9,3.1c0.5-0.4,1-0.9,1.4-1.3c0,0.2,0.1,0.3,0.1,0.5c0.1,0.2,0.2,0.3,0.3,0.4
		L78.3,42l-0.8,0.7l0.7,2.3c0.1,0.5,0.3,0.9,0.4,1.4s0.3,0.8,0.5,1.2l-1,0.3c0-0.2-0.1-0.5-0.2-0.7s-0.1-0.4-0.2-0.6
		s-0.1-0.4-0.2-0.7s-0.1-0.5-0.2-0.7l-0.6-2c-0.3,0.3-0.7,0.6-1,0.9l-1,0.9c-0.1-0.2-0.2-0.3-0.3-0.4c-0.1-0.1-0.3-0.3-0.4-0.4
		c0.5-0.3,0.9-0.6,1.3-0.8s0.8-0.6,1.2-0.9l-1-3.5l-1.4,0.4c0,0.4,0,0.7-0.1,1.2c-0.1,0.4-0.1,0.8-0.1,1.2c-0.2,0-0.3-0.1-0.5-0.1
		c-0.2,0-0.3,0-0.5,0c0.1-0.3,0.2-0.7,0.3-1c0.1-0.4,0.1-0.8,0.1-1.2c0-0.4,0-0.8,0-1.3c0-0.4-0.1-0.8-0.2-1.2c0.2,0,0.4,0,0.5,0
		l0.6-0.1c0.1,0,0.2,0,0.2,0s0,0.2-0.1,0.2c-0.1,0.1-0.2,0.3-0.2,0.4c0,0.3,0,0.6,0,0.9L75.2,38.2z M79.6,37.1
		c-0.1,0.6-0.1,1.2-0.2,1.8c-0.1,0.5-0.2,0.9-0.3,1.4c-0.3-0.1-0.7-0.2-1-0.2c0.2-0.4,0.4-0.9,0.5-1.3c0.1-0.6,0.2-1.1,0.3-1.7
		c0-0.6,0.1-1.2,0-1.8c0-0.5-0.1-1-0.1-1.5c0.4,0.1,0.8,0,1.1-0.1c0.1,0,0.2,0,0.2,0c0,0,0,0.1-0.1,0.2c-0.1,0.1-0.2,0.3-0.2,0.5
		c0,0.3-0.1,0.5-0.1,0.8c0,0.2,0,0.3,0,0.5c0,0.2,0,0.3,0,0.5l2.8-0.8l0.8-0.3l0.6-0.2l0.4-0.2l0.3-0.1l0.3,0.9l-0.3,0l-0.3,0.1
		l-0.4,0.1c-0.2,0-0.3,0.1-0.6,0.2c0.2,0.8,0.3,1.5,0.4,2.1c0.1,0.6,0.2,1.2,0.2,1.8c0,0.5,0,1,0,1.5c0,0.4-0.1,0.8-0.2,1.3
		c0.6,0.4,1.1,0.6,1.8,0.8c0.7,0.2,1.5,0.4,2.3,0.5c-0.1,0.1-0.3,0.3-0.3,0.5c-0.1,0.2-0.2,0.4-0.2,0.6c-0.7-0.2-1.4-0.4-2.1-0.7
		c-0.6-0.2-1.2-0.6-1.7-0.9c-0.3,0.7-0.8,1.3-1.3,1.8c-0.5,0.6-1.1,1.2-1.9,1.9c-0.3-0.3-0.6-0.5-1-0.6c0.7-0.6,1.4-1.2,2.1-1.9
		c0.5-0.5,0.9-1.2,1.2-1.8c-0.5-0.5-1-1-1.4-1.6c-0.5-0.7-1-1.4-1.4-2.2l0.7-0.5c0.3,0.7,0.7,1.4,1.1,2c0.4,0.6,0.8,1.1,1.3,1.5
		c0.2-0.8,0.3-1.7,0.2-2.5c-0.1-1.1-0.3-2.2-0.6-3.3L79.6,37.1z"/>
	<path class="st21" d="M92.8,35.2l-1.2,0.2c-0.3,0-0.6,0.1-0.9,0.2l-0.1-1c0.3,0,0.6,0,0.9,0l1.2-0.1c-0.1-1.1-0.2-2-0.3-2.6
		c-0.1-0.6-0.1-0.9-0.2-1.1c0.2,0,0.4,0,0.6,0c0.2,0,0.4,0,0.6,0c0.1,0,0.2,0,0.2,0.1c0,0.1,0,0.2-0.1,0.2c-0.1,0.1-0.2,0.2-0.2,0.4
		l0.3,2.8c0.7,0,1.3-0.2,2-0.3l0.1,1c-0.7-0.1-1.3-0.1-2,0l0.4,4.5l0.8-0.4l0.8-0.4c0,0.2,0,0.3,0,0.5c0,0.2,0.1,0.4,0.1,0.5
		c-0.8,0.3-1.6,0.6-2.3,0.9c-0.7,0.3-1.4,0.6-2,1c0-0.2-0.1-0.4-0.2-0.6c-0.1-0.2-0.2-0.3-0.3-0.4c0.4-0.1,0.8-0.2,1.2-0.3
		s0.7-0.2,1.1-0.4L92.8,35.2z M98.3,36.1c-0.3,0-0.7,0.1-1,0.1c-0.3,0.1-0.6,0.2-0.8,0.3c0-0.2-0.1-0.4-0.2-0.5
		c-0.1-0.1-0.2-0.3-0.3-0.3c0.2-0.1,0.5-0.2,0.7-0.3c0.3-0.2,0.6-0.4,0.9-0.6c0.3-0.3,0.8-0.6,1.2-1.1c0.5-0.5,1-1,1.6-1.7L98,32.1
		h-0.4L97,32.2l-0.7,0.1l-0.7,0.1l-0.1-0.9l1.5-0.1c0.5,0,1.1-0.1,1.8-0.1l1.2-0.1l0.9-0.1l0.6-0.1l0.5-0.1l0.1,0.7
		c-0.1,0-0.2,0.1-0.3,0.1c-0.1,0.1-0.2,0.2-0.4,0.3c-0.2,0.1-0.3,0.3-0.5,0.4l-0.7,0.7l-1,1l-1.3,1.3l3.4-0.3c0.3,0,0.7-0.1,1.1-0.1
		l1.2-0.2c0,0.4,0,0.8,0,1.2s0,0.9,0,1.3s0,0.9,0,1.4s0,0.9,0,1.4c0,0.5,0,0.9,0,1.4c0,0.3-0.2,0.6-0.3,0.8
		c-0.2,0.2-0.5,0.4-0.8,0.5c-0.5,0.2-0.9,0.3-1.4,0.4c0.1-0.5-0.1-0.9-0.5-1.2c0.4,0,0.8,0,1.2,0c0.2,0,0.5-0.1,0.7-0.2
		c0.2-0.1,0.3-0.3,0.3-0.5c0.1-0.3,0.1-0.7,0.1-1c0-0.3,0-0.6,0-1s0-0.8,0-1.2s0-0.8-0.1-1.2c-0.1-0.4,0-0.8,0-1.1l-1.3,0.1
		c-0.1,0.9-0.2,1.7-0.3,2.6c-0.1,0.7-0.4,1.3-0.7,1.9c-0.3,0.6-0.8,1.1-1.2,1.6c-0.6,0.6-1.3,1.1-2,1.6c-0.3-0.3-0.7-0.6-1.1-0.7
		c0.8-0.3,1.5-0.8,2.1-1.3c0.5-0.4,1-0.9,1.4-1.4c0.3-0.6,0.6-1.2,0.8-1.8c0.2-0.8,0.3-1.5,0.3-2.3L99.2,36c0,0.5-0.1,0.9-0.2,1.4
		c-0.1,0.5-0.3,0.9-0.5,1.3c-0.3,0.5-0.6,0.9-0.9,1.4c-0.4,0.6-0.9,1.1-1.4,1.6c-0.1-0.2-0.3-0.3-0.5-0.3c-0.3-0.1-0.5-0.1-0.8-0.1
		c0.5-0.3,1-0.6,1.4-1c0.4-0.4,0.8-0.8,1.1-1.2c0.3-0.4,0.6-0.9,0.8-1.4C98.2,37.1,98.3,36.6,98.3,36.1L98.3,36.1z"/>
	<path class="st21" d="M111.4,32.8c-0.2,0.5-0.4,1-0.7,1.4s-0.5,1-0.8,1.5c-0.1-0.1-0.2-0.3-0.4-0.3c-0.1-0.1-0.3-0.1-0.5-0.2
		c0.6-0.7,1-1.4,1.4-2.2c0.5-1,0.9-2.1,1.1-3.1l0.5,0.2c0.2,0.1,0.3,0.1,0.5,0.1c0.1,0,0.2,0.1,0.2,0.2s0,0.1-0.2,0.2
		s-0.2,0.2-0.3,0.4s-0.3,0.6-0.5,1c1.1,0.1,1.9,0.2,2.4,0.2c0.3,0,0.7,0,1,0l-1.4,2.6l-0.7-0.4l0.8-1.6L111.4,32.8z M111.8,42
		l-0.5,0.4l-0.3,0.4c-0.1-0.2-0.2-0.3-0.4-0.4c-0.1-0.1-0.3-0.2-0.4-0.4c0.1-0.1,0.2-0.2,0.2-0.3c0.1-0.1,0.1-0.2,0.2-0.3
		c0.1-0.2,0.1-0.4,0.1-0.6c0-0.2,0.1-0.5,0.1-0.9l0.4-3.8c0-0.4,0.1-0.8,0.1-1c0-0.2,0-0.4,0-0.7c0.4,0.1,0.7,0.1,1.1,0.2
		c0.2,0,0.2,0,0.2,0.1s0,0.1-0.2,0.2c-0.1,0.1-0.1,0.1-0.2,0.2c0,0.1-0.1,0.2-0.1,0.4l-0.6,5.7l0.6-0.5c0.2-0.1,0.3-0.3,0.4-0.4
		s0.3-0.3,0.4-0.4s0.3-0.3,0.6-0.5c0,0.1,0.1,0.3,0.2,0.4c0.1,0.1,0.2,0.2,0.3,0.3L111.8,42z M115.3,41.5l-1-0.1
		c0-0.2,0.1-0.5,0.1-0.7c0-0.2,0.1-0.4,0.1-0.7l0.3-3c0-0.2,0-0.3,0-0.5c0-0.1,0-0.2,0-0.3l0.5,0.1l0.5,0.1l0.5,0.1l0.7,0.1l0.7,0.1
		h0.5h0.5h0.5c0,0.1-0.1,0.2-0.1,0.3c0,0.1,0,0.3-0.1,0.5l-0.3,2.8c0,0.3,0,0.5-0.1,0.7c0,0.2,0,0.4,0,0.6l-0.9-0.1l0.1-1l-2.6-0.3
		L115.3,41.5z M120.1,35.3l-0.6-0.1l-0.6-0.1l-0.7-0.1l-0.9-0.1l-1.1-0.1l-0.7-0.1h-0.5h-0.5l0.1-0.9l0.5,0.1l0.5,0.1l0.7,0.1l1,0.1
		l1,0.1l0.7,0.1h0.6h0.6L120.1,35.3z M118.4,37.3l-2.6-0.3l-0.3,2.7l2.6,0.3L118.4,37.3z M122.4,32c0,0.1-0.1,0.2-0.1,0.4
		c0,0.1-0.1,0.3-0.1,0.5s-0.1,0.5-0.1,0.8S122,34.5,122,35l-0.8,7.5c0,0.3-0.1,0.6-0.2,0.9c-0.1,0.2-0.2,0.4-0.4,0.5
		c-0.3,0.1-0.5,0.2-0.8,0.2c-0.5,0-1,0-1.4-0.1c0.1-0.4,0-0.7-0.2-1.1c0.3,0.1,0.7,0.2,1.1,0.2c0.2,0,0.4,0,0.6,0
		c0.1,0,0.3-0.1,0.3-0.3c0.1-0.1,0.1-0.3,0.1-0.5l1-9.7l-2.8-0.3l-0.7-0.1h-0.6h-0.7l-0.9-0.2l0.1-0.9l0.8,0.1l0.7,0.1l0.8,0.1
		l1.1,0.1l1.1,0.1l0.8,0.1h0.7L122.4,32z"/>
	<path class="st21" d="M132.3,35.5c-0.1-0.3-0.2-0.6-0.3-0.9c-0.1-0.3-0.2-0.6-0.4-0.9l0.8-0.3c0.2,0.4,0.4,0.8,0.5,1.1
		s0.2,0.7,0.4,1l-0.5,0.2l3,1c0.3-0.2,0.6-0.5,0.9-0.8c0.3-0.3,0.6-0.6,0.8-1c0.2,0.3,0.4,0.6,0.7,0.8c0.2,0.2,0.1,0.3-0.1,0.3h-0.2
		c-0.1,0-0.2,0.1-0.3,0.1l-0.4,0.3c-0.1,0.1-0.3,0.3-0.6,0.4l1.6,0.5c0.4,0.1,0.8,0.2,1.2,0.3l-0.3,0.8l-0.8-0.3l-1-0.3l-1.3-0.4
		l-1.6-0.6c-0.1,0.4-0.3,0.8-0.5,1.2l1.6,0.5l1,0.3l0.7,0.2l0.6,0.1l-0.3,0.8l-0.6-0.3l-0.7-0.2l-1-0.3l-1.6-0.5
		c-0.1,0.2-0.3,0.5-0.4,0.7c-0.2,0.2-0.3,0.4-0.5,0.5l1.8,0.6l1.3,0.4l0.9,0.3l0.7,0.2l0.6,0.2l0.6,0.1l-0.3,0.9
		c-0.4-0.2-0.9-0.4-1.4-0.5s-1.1-0.4-1.9-0.6c0.2,0.4,0.4,0.8,0.6,1.1c0.2,0.3,0.4,0.6,0.7,0.9c0.3,0.3,0.6,0.6,0.9,0.8
		c0.3,0.2,0.7,0.5,1.1,0.8c-0.2,0-0.4,0.1-0.6,0.2c-0.2,0.1-0.3,0.3-0.4,0.4c-0.5-0.4-0.9-0.7-1.3-1.2c-0.4-0.4-0.7-0.9-1-1.4
		c-0.1,0.1-0.1,0.1-0.1,0.2c-0.1,0.2-0.1,0.4-0.2,0.6l-0.9,2.9l-0.2,0.6c0,0.2-0.1,0.4-0.1,0.6l-1.1-0.3c0.2-0.4,0.3-0.8,0.5-1.2
		l0.9-2.9c0.1-0.3,0.2-0.5,0.2-0.7c0-0.2,0.1-0.4,0.1-0.5l0.4,0.2l0.4,0.2c-0.3-0.5-0.5-1.1-0.7-1.6l-2.2-0.7
		c-0.5,0.4-0.9,0.7-1.5,1l0.3,0.2c0.1,0,0.2,0.1,0.3,0.1c0.1,0,0.2,0.1,0.2,0.2c0,0.1-0.1,0.2-0.2,0.2c-0.1,0-0.2,0.1-0.2,0.1
		c-0.1,0.1-0.2,0.2-0.2,0.3c-0.1,0.1-0.2,0.3-0.2,0.4c-0.1,0.2-0.2,0.4-0.3,0.7c-0.1,0.3-0.2,0.5-0.4,0.8c-0.2,0.3-0.4,0.5-0.6,0.7
		c-0.3,0.2-0.6,0.4-0.9,0.6c-0.4,0.2-0.8,0.4-1.2,0.5c-0.1-0.4-0.4-0.8-0.8-1c0.4,0,0.9-0.1,1.3-0.2c0.4-0.1,0.7-0.3,1-0.6
		c0.3-0.3,0.6-0.6,0.7-1c0.3-0.5,0.4-1,0.6-1.6c-0.6,0.2-1.1,0.4-1.7,0.5c-0.7,0.2-1.3,0.3-2,0.3c0-0.2-0.1-0.5-0.2-0.7
		c-0.1-0.2-0.3-0.4-0.5-0.6c0.6,0.1,1.1,0.1,1.7,0c0.5,0,1-0.1,1.5-0.3c0.4-0.1,0.8-0.3,1.2-0.4c0.3-0.1,0.6-0.3,0.9-0.5l-1.6-0.5
		l-1.1-0.3c-0.3-0.1-0.5-0.2-0.7-0.2c-0.2-0.1-0.4-0.1-0.6-0.1l0.3-0.9l0.6,0.2l0.7,0.3l1.1,0.4l1.9,0.6c0.2-0.2,0.4-0.4,0.5-0.6
		c0.2-0.2,0.3-0.4,0.4-0.7c-0.9-0.3-1.6-0.5-2.1-0.6c-0.5-0.2-1-0.3-1.4-0.3l0.3-0.8c0.4,0.2,0.8,0.4,1.4,0.5l2.1,0.7
		c0.1-0.2,0.2-0.4,0.2-0.6l0.2-0.7c-1.1-0.3-2-0.6-2.7-0.8c-0.7-0.2-1.3-0.4-1.8-0.5l0.3-0.8l0.5,0.2c0.2,0.1,0.4,0.1,0.6,0.2
		l0.8,0.2L132.3,35.5z"/>
	<path class="st21" d="M62.8,143.2h2c0.5,0,0.9,0,1.3,0h0.8l0.6-0.1l-2.4,3.4h1h0.7c0.2,0,0.4,0,0.6,0l0.6-0.1c0,0.6,0,1.2-0.1,2
		s0,1.6,0,2.4c0,1.1,0,2,0,2.7s0,1.4,0.1,1.9c-0.6-0.1-1.2-0.1-1.8-0.2c-0.7,0-1.5-0.1-2.3-0.1s-1.6,0-2.3,0.1s-1.3,0.1-1.8,0.2
		c0-0.3,0-0.6,0.1-0.9s0-0.5,0-0.9s0-0.7,0-1.1v-1.8c0-0.8,0-1.6,0-2.2c0-0.6,0-1.2-0.1-1.7c-0.1,0.1-0.2,0.2-0.3,0.4l-0.3,0.4
		c-0.2-0.2-0.4-0.4-0.6-0.4c-0.2-0.1-0.5-0.2-0.8-0.2c1.1-0.9,2-2,2.8-3.1c0.8-1.1,1.4-2.3,1.9-3.6c0.2,0.2,0.5,0.3,0.8,0.4
		c0.2,0.1,0.4,0.2,0.6,0.2c0.2,0.1,0.3,0.1,0.3,0.3c0,0.2-0.1,0.3-0.2,0.4c-0.2,0.2-0.4,0.4-0.6,0.6
		C63.3,142.6,63.1,142.9,62.8,143.2z M69,156.6c-0.1,0.2-0.2,0.4-0.2,0.6c0,0.2-0.1,0.4-0.1,0.6c-1.8,0.2-3.4,0.4-5,0.6
		c-1.4,0.2-2.7,0.5-4.1,0.9c0-0.3-0.1-0.6-0.2-0.9c-0.1-0.3-0.2-0.5-0.4-0.8c1.3,0,2.9-0.2,4.6-0.4C65.3,157.1,67.1,156.9,69,156.6z
		 M65.2,144.2h-3c-0.2,0.3-0.5,0.6-0.7,1c-0.3,0.4-0.6,0.8-0.9,1.1l1.4,0.1c0.5,0,1.1,0,1.9,0L65.2,144.2z M63.5,147.5h-2.1v2.9h2.1
		V147.5z M63.5,151.4h-2.1v2.7h2.1V151.4z M66.8,147.5h-2.2v2.9h2.2L66.8,147.5z M66.8,151.4h-2.2v2.7h2.2L66.8,151.4z M73.7,144.9
		c0.4-0.8,0.8-1.5,1.1-2.3c0.3-0.7,0.5-1.4,0.7-2.1c0.3,0.1,0.5,0.2,0.8,0.3c0.2,0.1,0.4,0.1,0.6,0.1c0.2,0,0.3,0.1,0.3,0.2
		s-0.1,0.2-0.2,0.3c-0.1,0.1-0.1,0.1-0.2,0.2c-0.1,0.2-0.3,0.4-0.4,0.6c-0.2,0.3-0.4,0.6-0.6,1l-1,1.7H76h0.9l0.7-0.1
		c0.2,0,0.4-0.1,0.7-0.1v1.4c-0.5-0.1-1.1-0.1-1.8-0.2s-1.5-0.1-2.4-0.1v3.5c0.8,0,1.5,0,2,0c0.5,0,1-0.1,1.5-0.1v1.4l-0.9-0.1
		l-0.8-0.1h-0.9h-1v3.6c1,0,1.9,0,2.6-0.1c0.6,0,1.3-0.1,1.9-0.2v1.4c-0.6-0.1-1.3-0.1-1.9-0.2c-0.7,0-1.6,0-2.6,0v2.1
		c0,0.7,0,1.4,0,2s0.1,1.2,0.1,1.9h-1.6c0.1-0.7,0.1-1.3,0.1-1.9s0-1.2,0-2v-2.1c-0.8,0-1.6,0-2.2,0c-0.6,0-1.1,0.1-1.7,0.2v-1.5
		c0.6,0.1,1.1,0.1,1.7,0.2c0.6,0,1.4,0.1,2.2,0.1v-3.6c-0.8,0-1.5,0-2,0.1s-1,0.1-1.4,0.1v-1.4c0.4,0.1,0.9,0.1,1.5,0.1
		s1.2,0.1,1.9,0.1v-3.5c-1,0-1.8,0-2.3,0.1s-1.1,0.1-1.6,0.2v-1.4l0.9,0.1l1.1,0.1H72L73.7,144.9z M71.2,144.2
		c-0.1-0.5-0.3-1-0.6-1.5c-0.3-0.5-0.6-1-1-1.4l1.1-0.6c0.3,0.5,0.7,1,0.9,1.5s0.5,1,0.7,1.4L71.2,144.2z"/>
	<path class="st21" d="M97.8,142.6c0-0.4,0-0.9-0.1-1.2s-0.1-0.7-0.1-1l0.9,0.1c0.3,0,0.6,0,0.9,0c0.1,0,0.2,0.1,0.3,0.2
		c0,0,0,0,0,0c0,0.1,0,0.2-0.2,0.3c-0.1,0.1-0.2,0.2-0.2,0.3c0,0.2,0,0.3,0,0.5v0.9l3-0.1c0.9,0,1.7-0.1,2.4-0.1v1.4
		c-0.7-0.1-1.5-0.1-2.4-0.1s-1.9-0.1-3-0.1v1.8h-1.5v-1.8h-5v1.9h-1.5v-1.9c-1.2,0-2.3,0-3.3,0.1s-1.9,0.1-2.6,0.1v-1.4
		c0.7,0.1,1.6,0.1,2.6,0.1s2.1,0,3.3,0c0-0.4,0-0.9-0.1-1.3s-0.1-0.8-0.1-1.1l0.9,0.1c0.3,0,0.5,0,0.8,0.1c0.2,0,0.4,0.1,0.4,0.2
		s0,0.2-0.2,0.3s-0.2,0.3-0.2,0.7v1L97.8,142.6z M96,155.7h2.8h2.3l2-0.1c0.6,0,1.2-0.1,1.8-0.1v1.5c-0.6-0.1-1.2-0.1-1.8-0.1
		l-2-0.1l-2.3-0.1H96c0,0.6,0,1.2,0,1.9s0.1,1.4,0.2,2.1h-1.8c0.1-0.7,0.1-1.4,0.2-2s0.1-1.3,0.1-2.1h-2.9l-2.4,0.1l-2,0.1
		c-0.6,0-1.2,0.1-1.8,0.1v-1.5c0.6,0,1.2,0.1,1.8,0.1l2,0.1h2.4h2.9v-2.3h-1.9h-1.5l-1.3,0.1l-1.2,0.1c0.1-0.7,0.1-1.4,0.2-2
		s0.1-1.2,0.1-1.9s0-1.3-0.1-2s-0.1-1.3-0.2-2c0.4,0,0.9,0.1,1.3,0.1l1.4,0.1c0.5,0,1,0,1.7,0h4.4c0.6,0,1.2,0,1.7,0l1.5-0.1
		c0.4,0,0.9-0.1,1.3-0.1c0,0.4,0,0.8-0.1,1.1s0,0.7,0,1s0,0.6,0,0.9s0,0.6,0,1s0,0.7,0,1s0,0.6,0,0.9s0,0.6,0,0.9s0,0.7,0.1,1
		l-1.2-0.1c-0.4,0-0.8-0.1-1.3-0.1h-1.6H96V155.7z M100.3,147H90.3v2h10.1V147z M100.3,150.1H90.3v2.3h10.1V150.1z"/>
	<path class="st21" d="M113.2,156.2h-1.5c0.1-0.5,0.1-1,0.2-1.4c0-0.4,0-1,0-1.6v-8.8c0-0.4,0-0.8,0-1.1s0-0.7-0.1-1l1.3,0.1
		c0.4,0,0.9,0,1.5,0s1.1,0,1.6,0l1.4,0c-0.1,0.3-0.1,0.7-0.2,1c0,0.4,0,0.8,0,1.1v8.4c0,0.5,0,1,0,1.6s0.1,1,0.1,1.5H116v-2h-2.8
		L113.2,156.2z M116,143.4h-2.8v9.3h2.8V143.4z M121.5,152.2v6.5c0.6-0.4,1.2-0.7,1.6-1c0.4-0.3,0.9-0.6,1.3-1
		c0,0.5,0.2,0.9,0.5,1.3l-2.9,1.8c-0.3,0.2-0.6,0.4-0.8,0.6s-0.4,0.4-0.7,0.6c-0.1-0.2-0.3-0.4-0.4-0.6c-0.2-0.2-0.4-0.4-0.6-0.6
		c0.3-0.2,0.4-0.4,0.5-0.7c0.1-0.5,0.1-1,0.1-1.5v-5.2c-0.7,0-1.3,0-2,0.1v-1.3l1.2,0.1c0.4,0,0.9,0,1.4,0.1h1.6h2
		c1.5,0,2.8,0,4.1,0c1.2,0,2.2-0.1,3-0.1v1.3l-1.3-0.1h-1.5h-1.8h-2.3c0.3,0.6,0.6,1.2,0.9,1.7c0.3,0.5,0.6,0.9,0.9,1.3
		c0.5-0.4,0.9-0.8,1.3-1.2c0.4-0.5,0.7-1,0.9-1.5c0.2,0.2,0.4,0.5,0.6,0.7c0.1,0.1,0.3,0.3,0.5,0.3c0.2,0.1,0.4,0.2,0.4,0.3
		s-0.1,0.2-0.4,0.3c-0.2,0-0.3,0.1-0.5,0.2c-0.2,0.1-0.3,0.2-0.5,0.3c-0.2,0.2-0.4,0.4-0.6,0.6c-0.2,0.2-0.5,0.6-0.9,0.9
		c0.6,0.6,1.2,1.1,1.9,1.5c0.7,0.4,1.6,0.9,2.7,1.3c-0.3,0.2-0.5,0.4-0.6,0.6c-0.2,0.2-0.3,0.5-0.4,0.8c-0.8-0.5-1.7-1.1-2.4-1.7
		c-0.7-0.5-1.3-1.1-1.9-1.7c-0.6-0.6-1.1-1.3-1.6-2.1c-0.5-0.9-1-1.7-1.3-2.7L121.5,152.2z M119.2,149.9c0-0.2,0.1-0.4,0.1-0.6
		s0-0.3,0.1-0.5s0-0.4,0-0.6s0-0.5,0-0.9V144c0-0.5,0-0.9,0-1.2s-0.1-0.6-0.1-0.9c0.4,0,0.8,0.1,1.1,0.1l1,0.1h1.2h3.6h1.3l1.1-0.1
		c0.3,0,0.7-0.1,1.1-0.1c0,0.1-0.1,0.3-0.1,0.4c0,0.1,0,0.3,0,0.4c0,0.2,0,0.3,0,0.5s0,0.4,0,0.7v3.1c0,0.6,0,1.1,0,1.6
		s0.1,0.9,0.1,1.3l-1-0.1h-1.1c-0.4,0-0.8,0-1.4,0h-3.6c-0.5,0-0.9,0-1.2,0h-1L119.2,149.9z M123.8,145.5v-2.4h-3.1v2.4H123.8z
		 M120.8,146.5v2.2h3.1v-2.2H120.8z M128.2,145.5v-2.4h-3.1v2.4H128.2z M125.1,146.5v2.2h3.1v-2.2H125.1z"/>
	<path class="st21" d="M144.4,143.4c-0.3-0.4-0.5-0.8-0.8-1.2c-0.3-0.4-0.6-0.8-1-1.1l1-0.8c0.5,0.5,0.9,1,1.2,1.4s0.7,0.8,1,1.3
		l-0.6,0.5h4.8c0.4-0.5,0.7-1,0.9-1.5c0.3-0.6,0.5-1.2,0.7-1.9c0.4,0.4,0.9,0.7,1.4,0.9c0.4,0.2,0.4,0.4,0,0.5l-0.3,0.2
		c-0.1,0.1-0.2,0.2-0.3,0.3c-0.1,0.2-0.3,0.3-0.4,0.6c-0.2,0.2-0.4,0.5-0.6,0.9c1,0,1.9,0,2.6,0c0.6,0,1.3-0.1,1.9-0.1v1.3l-1.3-0.1
		c-0.5,0-1,0-1.6-0.1s-1.3,0-2,0h-2.6c0,0.7-0.1,1.3-0.1,2h2.5h1.6h1.1l1-0.1v1.3c-0.4-0.1-0.7-0.1-1-0.1s-0.7,0-1.1,0h-1.6H148
		c-0.1,0.4-0.2,0.8-0.3,1.2c-0.1,0.3-0.3,0.7-0.5,1h4.9h1.5h1.1h0.9l1-0.1v1.4c-0.7-0.1-1.4-0.1-2.2-0.2s-1.8,0-3,0
		c0.4,0.5,0.9,0.9,1.4,1.4c0.4,0.4,0.9,0.7,1.4,1c0.5,0.3,1.1,0.5,1.6,0.7c0.6,0.2,1.3,0.4,2,0.6c-0.3,0.2-0.5,0.4-0.7,0.6
		c-0.2,0.2-0.3,0.5-0.4,0.8c-0.8-0.3-1.6-0.7-2.4-1.1c-0.7-0.4-1.4-0.9-2.1-1.5c-0.1,0.1-0.1,0.2-0.1,0.4c0,0.3,0,0.6,0,0.9v4.7
		c0,0.3,0,0.6,0,1s0,0.7,0.1,0.9h-1.7c0.1-0.6,0.1-1.3,0.1-1.9v-4.6c0-0.5,0-0.8,0-1.1c0-0.3-0.1-0.5-0.1-0.8l0.7,0.1h0.7
		c-0.4-0.3-0.7-0.6-1-1c-0.3-0.3-0.5-0.6-0.8-1h-3.4c-0.5,0.7-1.1,1.4-1.7,2.1l0.5,0.1c0.1,0,0.3,0,0.4,0c0.2,0,0.3,0,0.3,0.2
		c0,0.1,0,0.3-0.1,0.4c-0.1,0.1-0.2,0.2-0.3,0.3c-0.1,0.1-0.2,0.3-0.2,0.5c-0.1,0.2-0.1,0.5-0.1,0.7c0,0.4-0.1,0.8-0.1,1.1
		c0,0.4-0.1,0.9-0.2,1.3c-0.1,0.4-0.3,0.9-0.5,1.2c-0.3,0.5-0.6,0.9-1,1.2c-0.5,0.5-1,0.9-1.5,1.3c-0.4-0.5-1-0.9-1.6-1
		c0.6-0.2,1.2-0.6,1.8-0.9c0.5-0.4,0.9-0.8,1.1-1.3c0.3-0.6,0.5-1.2,0.6-1.8c0.1-0.8,0.2-1.7,0.1-2.6c-0.7,0.6-1.4,1.1-2.2,1.6
		c-0.9,0.5-1.8,1-2.7,1.4c-0.1-0.3-0.3-0.6-0.5-0.9c-0.3-0.3-0.6-0.5-1-0.6c0.8-0.2,1.7-0.4,2.4-0.7c0.7-0.3,1.4-0.7,2.1-1.1
		c0.6-0.4,1.1-0.8,1.6-1.2c0.4-0.3,0.8-0.7,1.1-1.2h-2.5h-1.7c-0.4,0-0.8,0-1.1,0s-0.6,0.1-0.9,0.1v-1.4l1,0.1c0.3,0,0.6,0,1.1,0.1
		s1,0,1.8,0h3c0.2-0.3,0.4-0.7,0.5-1.1c0.1-0.4,0.3-0.8,0.4-1.1c-1.4,0-2.5,0-3.4,0s-1.6,0.1-2.1,0.1v-1.5c0.6,0.1,1.4,0.1,2.2,0.1
		s2,0,3.4,0c0-0.3,0.1-0.6,0.1-1s0-0.7,0.1-1.1c-1.8,0-3.2,0-4.4,0s-2.1,0.1-2.8,0.1v-1.2l0.8,0.1h0.9h1.2L144.4,143.4z"/>
</g>
</svg>
