<?xml version="1.0" encoding="utf-8"?>
<!-- Generator: Adobe Illustrator 23.0.4, SVG Export Plug-In . SVG Version: 6.00 Build 0)  -->
<svg version="1.1" id="Layer_1" xmlns="http://www.w3.org/2000/svg" xmlns:xlink="http://www.w3.org/1999/xlink" x="0px" y="0px"
	 viewBox="0 0 216.4 216.4" style="enable-background:new 0 0 216.4 216.4;" xml:space="preserve">
<style type="text/css">
	.st0{clip-path:url(#SVGID_4_);}
	.st1{fill:#373535;}
	.st2{enable-background:new    ;}
</style>
<g id="deu">
	<g>
		<g>
			<g>
				<defs>
					<rect id="SVGID_1_" x="11.3" y="6.4" width="191" height="201.6"/>
				</defs>
				<clipPath id="SVGID_2_">
					<use xlink:href="#SVGID_1_"  style="overflow:visible;"/>
				</clipPath>
			</g>
		</g>
	</g>
	<g>
		<g>
			<g>
				<defs>
					<rect id="SVGID_3_" x="11.3" y="6.4" width="191" height="201.6"/>
				</defs>
				<clipPath id="SVGID_4_">
					<use xlink:href="#SVGID_3_"  style="overflow:visible;"/>
				</clipPath>
				<g class="st0">
					<path class="st1" d="M107.3,200.5c-51.2,0-92.8-41.6-92.8-92.8s41.6-92.8,92.8-92.8s92.8,41.6,92.8,92.8
						S158.5,200.5,107.3,200.5 M107.3,18.3c-49.3,0-89.4,40.1-89.4,89.4s40.1,89.4,89.4,89.4s89.4-40.1,89.4-89.4
						C196.7,58.4,156.6,18.3,107.3,18.3 M65.6,81.4l10.7,10.7C73,87.7,69.4,84.2,65.6,81.4 M132.8,61l-0.6-0.6
						c-0.2,0.2-0.3,0.3-0.5,0.5l0.7,0.7C132.6,61.5,132.7,61.3,132.8,61 M148.7,77.9l1.2,1.2c0.1-0.2,0.2-0.4,0.3-0.6l-1-1
						C149,77.6,148.9,77.7,148.7,77.9 M133.9,59.1l-0.1-0.1c-0.2,0.2-0.3,0.3-0.5,0.5l0.3,0.3C133.6,59.5,133.8,59.3,133.9,59.1
						 M150.9,76.2c-0.2,0.1-0.4,0.3-0.6,0.4l0.5,0.5c0.1-0.2,0.2-0.4,0.3-0.6L150.9,76.2z M92.6,56.7L92.6,56.7c0,0.3,0.1,0.7,0.1,1
						l0.6,0.6C93,57.8,92.8,57.2,92.6,56.7 M186.1,121.5h-53.4c2.4-19.1,19.9-45,20.1-45.2l1.9-2.8l-2.8,1.9
						c-21.1,13.9-28.7,42-29.7,46.2h-4.5c0.9-4.5,5.9-25.6,27.2-42.8l-0.8-1c-15.8,12.8-22.8,27.6-25.8,36.5
						c3.9-33.2,17.5-55.8,17.6-56l2.6-4.2l-3.6,3.4c-23.7,22.1-28.4,58.6-29,64.2h-8.5c0.4-1.3,0.7-2.6,1-3.9
						c2.6-9.5,9.9-31.4,25.7-50.6l-1-0.9c-11.7,14.3-18.8,30-22.8,41.1c3.1-24.3-3.2-41.8-6.5-48.9l-1.9-4.2l0.7,4.5
						c0,0.3,4,29.3-4.3,60.4c-0.6-2.8-1.8-7.4-3.9-12.6c0.8-1.7,6.6-15.5,7.1-38h-1.3c-0.4,19.5-4.8,32.3-6.4,36.3
						c-3.7-8.6-9.7-18.4-19.2-24.3l-3.2-1.9l2.3,2.9c12.5,16.1,15.9,36.5,16.5,40.1H74c2.6-6.6,1.3-15.8-4-26.8l-1.2,0.6
						c5.2,10.7,6.5,20,3.7,26.2h-44v1.3h59.8h0.1l0,0h97.7V121.5z M149.7,78.4c-0.4,0.6-0.8,1.2-1.2,1.9l-0.5-0.5
						C148.6,79.4,149.2,78.9,149.7,78.4 M147.5,80.3l0.7,0.7c-0.2,0.4-0.5,0.8-0.8,1.3l-1-1C146.8,80.9,147.1,80.6,147.5,80.3
						 M145.9,81.7l1.1,1.1c-0.2,0.4-0.5,0.8-0.8,1.3l-1.4-1.4C145.2,82.3,145.5,82,145.9,81.7 M144.4,83.1l1.6,1.6
						c-0.2,0.4-0.5,0.9-0.7,1.3l-1.8-1.8C143.7,83.8,144,83.5,144.4,83.1 M142.9,84.7l2,2c-0.2,0.4-0.5,0.9-0.7,1.3l-2.2-2.2
						C142.3,85.4,142.6,85,142.9,84.7 M141.5,86.2l2.3,2.3c-0.2,0.4-0.5,0.9-0.7,1.3l-2.5-2.5C140.9,87,141.2,86.6,141.5,86.2
						 M140.1,87.8l2.6,2.6c-0.2,0.4-0.5,0.9-0.7,1.3l-2.8-2.8C139.5,88.6,139.8,88.2,140.1,87.8 M138.8,89.5l2.9,2.9
						c-0.2,0.4-0.5,0.9-0.7,1.3l-3.1-3.1C138.2,90.3,138.5,89.9,138.8,89.5 M137.5,91.2l3.2,3.2c-0.2,0.4-0.5,0.9-0.7,1.4l-3.3-3.3
						C137,92,137.2,91.6,137.5,91.2 M136.3,93l3.4,3.4c-0.2,0.5-0.4,0.9-0.7,1.4l-3.6-3.6C135.7,93.8,136,93.4,136.3,93 M135.1,94.8
						l3.6,3.6c-0.2,0.5-0.4,0.9-0.6,1.4l-3.8-3.8C134.6,95.6,134.8,95.2,135.1,94.8 M134,96.6l3.9,3.9c-0.2,0.5-0.4,0.9-0.6,1.4
						l-4-4C133.4,97.5,133.7,97.1,134,96.6 M132.9,98.5l4.1,4.1c-0.2,0.5-0.4,1-0.6,1.4l-4.2-4.2C132.4,99.4,132.6,99,132.9,98.5
						 M131.8,100.4l4.2,4.2c-0.2,0.5-0.4,1-0.6,1.5l-4.4-4.4C131.3,101.3,131.5,100.9,131.8,100.4 M130.8,102.4l4.4,4.4
						c-0.2,0.5-0.4,1-0.5,1.5l-4.6-4.6C130.3,103.3,130.5,102.9,130.8,102.4 M129.8,104.4l4.6,4.6c-0.2,0.5-0.3,1-0.5,1.5l-4.8-4.8
						C129.3,105.3,129.6,104.9,129.8,104.4 M128.8,106.5l4.8,4.8c-0.2,0.5-0.3,1-0.5,1.6l-5-5C128.4,107.4,128.6,106.9,128.8,106.5
						 M127.9,108.5l5,5c-0.2,0.5-0.3,1.1-0.4,1.6l-5.2-5.2C127.5,109.5,127.7,109,127.9,108.5 M127.1,110.7l5.3,5.3
						c-0.1,0.6-0.3,1.1-0.4,1.7l-5.5-5.5C126.7,111.7,126.9,111.2,127.1,110.7 M126.2,112.8l5.6,5.6c-0.1,0.6-0.2,1.2-0.3,1.7
						l-5.8-5.8C125.9,113.8,126,113.3,126.2,112.8 M125.4,115l5.9,5.9c0,0.2,0,0.3-0.1,0.5h-1.5l-4.9-4.9
						C125.1,116.1,125.3,115.6,125.4,115 M124.7,117.3l4.2,4.2h-2l-2.6-2.6C124.4,118.4,124.5,117.8,124.7,117.3 M123.6,121.2
						c0.1-0.4,0.3-1,0.4-1.6l1.9,1.9h-2L123.6,121.2z M132.4,61.5c-0.3,0.6-0.6,1.2-0.9,1.9l-0.4-0.4C131.5,62.4,132,62,132.4,61.5
						 M130.7,63.4l0.5,0.5c-0.2,0.4-0.4,0.9-0.7,1.4l-0.8-0.8C130,64.2,130.3,63.8,130.7,63.4 M129.3,65.1l0.9,0.9
						c-0.2,0.5-0.4,0.9-0.6,1.4l-1.2-1.2C128.7,65.8,129,65.4,129.3,65.1 M128,66.7l1.3,1.3c-0.2,0.5-0.4,0.9-0.6,1.4l-1.6-1.6
						C127.4,67.5,127.7,67.1,128,66.7 M126.7,68.4l1.7,1.7c-0.2,0.5-0.4,0.9-0.6,1.4l-2-2C126.1,69.2,126.4,68.8,126.7,68.4
						 M125.4,70.2l2.1,2.1c-0.2,0.5-0.4,1-0.6,1.5l-2.3-2.3C124.9,71,125.2,70.6,125.4,70.2 M124.2,72l2.4,2.4
						c-0.2,0.5-0.4,1-0.6,1.5l-2.7-2.7C123.7,72.8,124,72.4,124.2,72 M123.1,73.8l2.8,2.8c-0.2,0.5-0.4,1-0.5,1.5l-3-3
						C122.6,74.6,122.8,74.2,123.1,73.8 M122,75.7l3.1,3.1c-0.2,0.5-0.4,1-0.5,1.5l-3.3-3.3C121.5,76.5,121.7,76.1,122,75.7
						 M120.9,77.6l3.4,3.4c-0.2,0.5-0.3,1-0.5,1.5l-3.6-3.6C120.4,78.5,120.6,78,120.9,77.6 M119.8,79.5l3.7,3.7
						c-0.2,0.5-0.3,1-0.5,1.5l-3.9-3.9C119.4,80.4,119.6,80,119.8,79.5 M118.8,81.5l4,4c-0.2,0.5-0.3,1-0.5,1.6l-4.2-4.2
						C118.4,82.4,118.6,82,118.8,81.5 M117.8,83.5l4.3,4.3c-0.2,0.5-0.3,1.1-0.4,1.6l-4.5-4.5C117.4,84.4,117.6,84,117.8,83.5
						 M116.9,85.6l4.6,4.6c-0.1,0.5-0.3,1.1-0.4,1.6l-4.8-4.8C116.5,86.5,116.7,86,116.9,85.6 M116,87.7l4.9,4.9
						c-0.1,0.5-0.3,1.1-0.4,1.6l-5-5C115.6,88.6,115.8,88.1,116,87.7 M115.1,89.8l5.1,5.1c-0.1,0.5-0.3,1.1-0.4,1.6l-5.3-5.3
						C114.8,90.8,114.9,90.3,115.1,89.8 M114.3,91.9l5.4,5.4c-0.1,0.6-0.2,1.1-0.4,1.7l-5.6-5.6C113.9,92.9,114.1,92.4,114.3,91.9
						 M113.5,94.1l5.7,5.7c-0.1,0.6-0.2,1.1-0.3,1.7l-5.8-5.8C113.2,95.1,113.3,94.6,113.5,94.1 M112.8,96.4l5.9,5.9
						c-0.1,0.6-0.2,1.1-0.3,1.7l-6.1-6.1C112.4,97.4,112.6,96.9,112.8,96.4 M112,98.6l6.2,6.2c-0.1,0.6-0.2,1.2-0.3,1.7l-6.3-6.3
						C111.7,99.7,111.9,99.2,112,98.6 M111.3,100.9l6.4,6.4c-0.1,0.6-0.2,1.2-0.3,1.8l-6.6-6.6C111,102,111.2,101.5,111.3,100.9
						 M110.7,103.3l6.7,6.7c-0.1,0.6-0.2,1.2-0.3,1.8l-6.9-6.9C110.4,104.3,110.5,103.8,110.7,103.3 M110.1,105.6l6.9,6.9
						c-0.1,0.6-0.2,1.2-0.2,1.8l-7.1-7.1C109.8,106.7,109.9,106.2,110.1,105.6 M109.5,108l7.2,7.2c-0.1,0.6-0.1,1.2-0.2,1.8
						l-7.4-7.4C109.2,109.2,109.4,108.6,109.5,108 M109,110.5l7.5,7.5c-0.1,0.6-0.1,1.3-0.2,1.9l-7.7-7.7
						C108.7,111.6,108.8,111.1,109,110.5 M108.5,113l7.8,7.8c0,0.2,0,0.5-0.1,0.7h-1.3l-6.7-6.7C108.2,114.2,108.3,113.6,108.5,113
						 M108,115.5l5.9,5.9h-2l-4.2-4.2C107.8,116.7,107.9,116.1,108,115.5 M107.6,118.1l3.4,3.4h-2l-1.6-1.6
						C107.4,119.4,107.5,118.8,107.6,118.1 M107.2,120.7l0.7,0.7h-0.8C107.2,121.3,107.2,121,107.2,120.7 M99.6,94.2l-5.3-5.3
						c0-0.6,0.1-1.3,0.1-1.9l5.1,5.1C99.6,92.8,99.6,93.5,99.6,94.2 M99.5,91.1L94.4,86c0-0.7,0.1-1.3,0.1-1.9l4.9,4.9
						C99.5,89.7,99.5,90.4,99.5,91.1 M99.4,88l-4.8-4.8c0-0.7,0-1.3,0.1-2l4.5,4.5C99.3,86.5,99.3,87.3,99.4,88 M99.1,84.7l-4.4-4.4
						c0-0.7,0-1.4,0-2l4.1,4.1C98.9,83.2,99,84,99.1,84.7 M98.7,81.3l-4-4c0-0.7,0-1.4,0-2l3.6,3.6C98.5,79.7,98.6,80.5,98.7,81.3
						 M98.1,77.8l-3.4-3.4c0-0.7,0-1.4,0-2.1l3,3C97.8,76.1,98,76.9,98.1,77.8 M97.4,74.1l-2.8-2.8c0-0.7,0-1.4-0.1-2.1l2.2,2.2
						C97,72.3,97.2,73.1,97.4,74.1 M96.4,70.1l-1.9-1.9c0-0.8-0.1-1.5-0.1-2.2l1.2,1.2C95.9,68.1,96.1,69.1,96.4,70.1 M95.1,65.8
						L94.3,65c0-0.7-0.1-1.3-0.1-1.9C94.5,63.9,94.8,64.8,95.1,65.8 M94.2,89.8l5.3,5.3c0,0.7,0,1.3,0,2L94,91.6
						C94.1,91.1,94.2,90.4,94.2,89.8 M94,92.6l5.5,5.5c0,0.6-0.1,1.3-0.1,2l-5.6-5.6C93.9,93.8,94,93.2,94,92.6 M93.7,95.3l5.6,5.6
						c0,0.6-0.1,1.3-0.1,1.9l-5.7-5.7C93.6,96.5,93.7,95.9,93.7,95.3 M93.4,98l5.7,5.7c-0.1,0.6-0.1,1.2-0.2,1.9l-5.7-5.7
						C93.3,99.2,93.4,98.6,93.4,98 M93.1,100.6l5.8,5.8c-0.1,0.6-0.2,1.2-0.2,1.8l-5.8-5.8C92.9,101.8,93,101.2,93.1,100.6
						 M92.7,103.2l5.8,5.8c-0.1,0.6-0.2,1.2-0.3,1.8l-5.8-5.8C92.5,104.4,92.6,103.8,92.7,103.2 M92.3,105.8l5.8,5.8
						c-0.1,0.6-0.2,1.1-0.3,1.7l-5.8-5.8C92.1,107,92.2,106.4,92.3,105.8 M91.9,108.4l5.8,5.8c-0.1,0.6-0.2,1.1-0.3,1.7l-5.8-5.8
						C91.6,109.5,91.8,108.9,91.9,108.4 M91.4,110.9l5.8,5.8c0,0.2-0.1,0.4-0.1,0.6c-0.1,0.4-0.2,0.7-0.3,1l-5.7-5.7
						C91.1,112,91.3,111.4,91.4,110.9 M90.8,113.3l5.7,5.7c-0.2,0.6-0.3,1.2-0.4,1.6l-5.6-5.6C90.6,114.4,90.7,113.9,90.8,113.3
						 M90.3,115.8l5.6,5.6c0,0,0,0,0,0.1h-2l-4.1-4.1C90,116.8,90.2,116.3,90.3,115.8 M89.7,118.1l3.3,3.3h-2l-1.7-1.7
						C89.4,119.2,89.6,118.7,89.7,118.1 M90,121.5h-1.2c0.1-0.3,0.2-0.6,0.3-1L90,121.5z M66.8,83.8c4.4,3.4,7.9,7.7,10.7,12.2l-8-8
						C68.6,86.6,67.7,85.2,66.8,83.8 M70.7,90.2l8.2,8.2c0.8,1.4,1.5,2.8,2.1,4.2l-8.2-8.2C72.2,93,71.5,91.6,70.7,90.2 M73.7,96.1
						l8.2,8.2c0.5,1.2,1,2.3,1.4,3.5l-8.1-8.1C74.7,98.5,74.2,97.3,73.7,96.1 M75.8,101.3l8,8c0.4,1.1,0.7,2.1,1,3.1l-7.9-7.9
						C76.6,103.4,76.2,102.3,75.8,101.3 M77.4,105.9l7.8,7.8c0.3,1,0.6,2,0.8,2.8l-7.7-7.7C78.1,107.9,77.8,106.9,77.4,105.9
						 M78.7,110.2l7.6,7.6c0.3,1,0.4,1.9,0.6,2.6l-7.5-7.5C79.3,112.1,79,111.2,78.7,110.2 M87,121.5h-2l-4.6-4.6
						c-0.2-0.8-0.4-1.7-0.6-2.6L87,121.5z M81.1,120.5c-0.1-0.6-0.2-1.5-0.4-2.5l3.4,3.4h-2L81.1,120.5z"/>
				</g>
			</g>
		</g>
		<g class="st2">
			<g>
				<path class="st1" d="M37.6,113.4l-0.1-1.4l-8,0.4l0.1,1.4l-1.8,0.1l-0.2-4.8l1.8-0.1l0.1,1.4l8-0.4l-0.1-1.4l1.8-0.1l0.2,4.8
					L37.6,113.4z"/>
			</g>
		</g>
		<g class="st2">
			<g>
				<path class="st1" d="M31.3,104.2l6.1,0.5l0.1-1.4l1.8,0.1l-0.4,4.6l-1.8-0.1l0.1-1.3l-7.9-0.6l-0.1,1.3l-1.8-0.1l0.2-3l7.6-5.1
					l-5.4-0.4l-0.1,1.4l-1.8-0.1l0.4-4.6l1.8,0.1l-0.1,1.3l9.7,0.8l0,1.1L31.3,104.2z"/>
			</g>
		</g>
		<g class="st2">
			<g>
				<path class="st1" d="M33.9,87.5l5.9,1.8l0.4-1.4l1.7,0.5l-1.4,4.4l-1.7-0.5l0.4-1.2l-7.6-2.4L31.3,90l-1.7-0.5l0.9-2.8l8.6-3.2
					l-5.2-1.6l-0.4,1.4l-1.7-0.5l1.4-4.4l1.7,0.5l-0.4,1.2l9.3,2.9l-0.3,1L33.9,87.5z"/>
			</g>
		</g>
		<g class="st2">
			<g>
				<path class="st1" d="M42.5,80.9l0.5-0.9l-5.8-6.2L36.6,75L35,74.2l3-5.8l1.6,0.8L39,70.3l8.4,1.1l0.5-0.9l1.6,0.8l-2,3.9
					l-1.6-0.8l0.6-1.2l-2-0.3l-2,3.8l1.4,1.4l0.6-1.2l1.6,0.8l-2,3.9L42.5,80.9z M42.7,72.7L38,72.1l3.3,3.5L42.7,72.7z"/>
			</g>
		</g>
		<g class="st2">
			<g>
				<path class="st1" d="M48.9,69.2l0.8-1.2l-6.5-4.6L42,65.1l1.5,1.1l-1.1,1.5l-2.9-2l5.8-8.1l2.9,2l-1.1,1.5L45.6,60l-1.2,1.7
					l6.5,4.6l0.8-1.2l1.4,1l-2.8,3.9L48.9,69.2z"/>
			</g>
		</g>
		<g class="st2">
			<g>
				<path class="st1" d="M46.3,52.6c-0.5-0.5-0.5-1.3,0-1.8c0.5-0.5,1.3-0.5,1.8,0c0.5,0.5,0.5,1.3,0,1.8S46.8,53.1,46.3,52.6z
					 M52.5,60.4l-4-3.9l-0.9,0.9l-1.3-1.2l3.2-3.3l1.3,1.2l-1,1l3.9,3.8c1.3,1.2,2.6,1.2,3.6,0.2c1-1.1,1-2.3-0.2-3.5l-3.9-3.8l-1,1
					L51,51.5l3.2-3.3l1.3,1.2l-0.9,0.9l3.9,3.8c2.2,2.1,1.9,4.4,0.2,6.2C56.9,62.2,54.6,62.4,52.5,60.4z M48.8,50.1
					c-0.5-0.5-0.5-1.3,0-1.8s1.3-0.5,1.8,0c0.5,0.5,0.5,1.3,0,1.8C50.1,50.5,49.3,50.5,48.8,50.1z"/>
			</g>
		</g>
		<g class="st2">
			<g>
				<path class="st1" d="M61.5,54.7l1-0.8l-4.8-6.4l-1,0.8l-1.1-1.4l3.6-2.7c2.1-1.6,4.3-1.8,5.7,0.1c0.9,1.2,0.8,2.6,0.1,3.8
					l3.3,1.4l1-0.8l1.1,1.4l-2.1,1.6l-4.5-2.1c-0.2,0.2-0.4,0.3-0.5,0.4c-0.3,0.2-0.6,0.4-0.8,0.6l1.6,2.1l1.1-0.9l1.1,1.4l-3.8,2.8
					L61.5,54.7z M63.4,45.6c-0.7-1-1.9-0.8-3.1,0.1l-0.9,0.6l2.2,2.9c0.2-0.1,0.4-0.3,0.9-0.6C63.7,47.7,64.1,46.5,63.4,45.6z"/>
			</g>
		</g>
		<g class="st2">
			<g>
				<path class="st1" d="M69.8,48.6l1.1-0.6l-3.9-7l-1.1,0.6l-0.9-1.5l4.2-2.3l0.9,1.5L68.8,40l3.9,7l2.8-1.5l-0.8-1.4l1.7-0.9
					l1.6,2.9l-7.3,4.1L69.8,48.6z"/>
			</g>
		</g>
		<g class="st2">
			<g>
				<path class="st1" d="M77.7,44.3l1.3-0.5l-3.1-7.3L74.6,37l-0.7-1.6l4.4-1.9l0.7,1.6l-1.3,0.5l3.1,7.3l1.3-0.5l0.7,1.6L78.4,46
					L77.7,44.3z"/>
			</g>
		</g>
		<g class="st2">
			<g>
				<path class="st1" d="M81.7,38.2c-1-3.3,0.9-6.5,4.2-7.4c2.6-0.7,4.7,0.1,5,1.4c0.2,0.8-0.1,1.5-0.8,1.7
					c-0.8,0.2-1.4-0.1-1.6-0.8c-0.1-0.2-0.1-0.5,0-0.6c-0.4-0.2-1.1-0.2-2.1,0.1c-2.1,0.6-3.3,2.7-2.7,5c0.6,2.2,2.7,3.5,5,2.9
					c1.3-0.4,2.2-1.2,2.7-2.4l1.6,0.9c-0.7,1.5-2.1,2.7-3.9,3.2C85.8,43.2,82.7,41.6,81.7,38.2z"/>
			</g>
		</g>
		<g class="st2">
			<g>
				<path class="st1" d="M93.9,38.9l1.3-0.1l-0.8-7.9L93,30.9l-0.2-1.8l4.7-0.5l0.2,1.8l-1.4,0.2l0.3,3l5.3-0.6l-0.3-3l-1.4,0.2
					l-0.2-1.8l4.7-0.5l0.2,1.8l-1.3,0.1l0.8,7.9l1.3-0.1l0.2,1.8l-4.7,0.5l-0.2-1.8l1.4-0.2l-0.3-3.2l-5.3,0.6l0.3,3.2l1.4-0.2
					l0.2,1.8l-4.7,0.5L93.9,38.9z"/>
			</g>
		</g>
		<g class="st2">
			<g>
				<path class="st1" d="M106.4,37.7l1.3,0.1l0.4-8l-1.3-0.1l0.1-1.8l8.6,0.4l-0.2,3.3l-1.9-0.1l0.1-1.5l-3.4-0.2L110,33l3.5,0.2
					l-0.1,1.7l-3.5-0.2l-0.2,3.2l3.4,0.2l0.1-1.5l1.9,0.1l-0.2,3.3l-8.6-0.4L106.4,37.7z"/>
			</g>
		</g>
		<g class="st2">
			<g>
				<path class="st1" d="M115.9,38.2l1.3,0.2l1.5-7.8l-1.3-0.2l0.3-1.7l4.4,0.8c2.6,0.5,4.2,2,3.8,4.3c-0.3,1.5-1.4,2.4-2.7,2.7
					l1.1,3.4l1.3,0.2l-0.3,1.7l-2.6-0.5l-1.4-4.7c-0.2,0-0.5-0.1-0.7-0.1c-0.4-0.1-0.7-0.1-0.9-0.2l-0.5,2.5l1.4,0.3l-0.3,1.7
					l-4.6-0.9L115.9,38.2z M123.9,33.4c0.2-1.2-0.6-1.9-2.2-2.2l-1-0.2l-0.7,3.6c0.2,0.1,0.5,0.1,1.1,0.2
					C122.5,35.1,123.7,34.6,123.9,33.4z"/>
			</g>
		</g>
		<g class="st2">
			<g>
				<path class="st1" d="M131,39.2l2.1-5.1l-1.2-0.5l0.7-1.6l4.3,1.8l-0.7,1.6l-1.3-0.5l-2.1,5c-0.7,1.6-0.2,2.8,1.1,3.4
					c1.4,0.6,2.5,0.1,3.2-1.5l2.1-5.1l-1.3-0.5l0.7-1.6l4.2,1.7l-0.7,1.6l-1.2-0.5l-2.1,5.1c-1.2,2.8-3.3,3.4-5.7,2.5
					C130.9,44,129.8,42,131,39.2z"/>
			</g>
		</g>
		<g class="st2">
			<g>
				<path class="st1" d="M139.4,45.2l1.1,0.7l4.6-6.5l-1.2-0.8l1-1.5l2.6,1.7l-0.5,7.3l6.4-3.4l2.6,1.7l-1,1.5l-1.2-0.8l-4,6.9
					l1.1,0.7l-1,1.5l-4-2.6l1-1.5l1.2,0.8l3-5.1l-5.9,3l-0.2-0.1l0.4-6.6l-3.4,4.8l1.2,0.8l-1,1.5l-3.9-2.5L139.4,45.2z"/>
			</g>
		</g>
		<g class="st2">
			<g>
				<path class="st1" d="M154.3,50.5c2.4-2.6,6.1-2.5,8.5-0.2c1.9,1.8,2.3,4.1,1.3,5.1c-0.6,0.6-1.4,0.6-1.9,0.2
					c-0.6-0.5-0.6-1.3-0.1-1.8c0.2-0.2,0.4-0.3,0.5-0.3c-0.1-0.4-0.4-1.1-1.1-1.8c-1.6-1.5-4-1.5-5.7,0.3c-1.7,1.8-1.5,4.3-0.1,5.6
					c0.9,0.8,1.7,1.2,2.5,1.4l1.4-1.4l-2.1-2l1.2-1.2l3.5,3.3l-4.1,4.3l-1.4-1.3l0.6-0.6c-1-0.1-2.1-0.5-3-1.4
					C152.1,56.6,151.7,53.2,154.3,50.5z"/>
			</g>
		</g>
		<g class="st2">
			<g>
				<path class="st1" d="M160.1,61.7l0.8,1l6.3-4.8l-0.8-1l1.4-1.1l5.2,6.8l-2.6,2l-1.1-1.5l1.2-0.9l-2.1-2.7l-2.4,1.9l2.1,2.8
					l-1.3,1l-2.1-2.8l-2.6,2l2.1,2.7l1.2-0.9l1.1,1.5l-2.6,2l-5.2-6.8L160.1,61.7z"/>
			</g>
		</g>
		<g class="st2">
			<g>
				<path class="st1" d="M165.8,69.3l0.6,1.1l6.9-3.9l-0.6-1.1l1.5-0.9l2.3,4c1.4,2.4,0.9,4.3-0.6,5.1c-1.2,0.7-2.3,0.4-3.2-0.4
					c0.3,1.5,0,2.6-1.2,3.3c-1.7,0.9-3.6,0.3-4.9-2.2l-2.4-4.2L165.8,69.3z M168.2,73.5c0.7,1.2,1.6,1.7,2.6,1.2
					c0.9-0.5,1-1.5,0.3-2.8l-0.7-1.3l-2.9,1.6L168.2,73.5z M172.3,70.9c0.7,1.2,1.6,1.6,2.5,1.1c0.8-0.5,0.9-1.4,0.2-2.7l-0.6-1.1
					l-2.7,1.6L172.3,70.9z"/>
			</g>
		</g>
		<g class="st2">
			<g>
				<path class="st1" d="M173.3,77.8l5.2-2l-0.5-1.2l1.6-0.6l1.7,4.3l-1.6,0.6l-0.5-1.3l-5.1,1.9c-1.6,0.6-2.2,1.8-1.7,3.2
					c0.5,1.4,1.6,1.9,3.3,1.3l5.1-2l-0.5-1.3l1.6-0.6l1.6,4.3L182,85l-0.5-1.2l-5.1,2c-2.8,1.1-4.8-0.1-5.7-2.4
					C169.8,81,170.5,78.8,173.3,77.8z"/>
			</g>
		</g>
		<g class="st2">
			<g>
				<path class="st1" d="M181.4,90.4l-6,1.2l0.3,1.4l-1.7,0.3l-0.9-4.6l1.7-0.3l0.3,1.3l7.8-1.5l-0.3-1.3l1.7-0.3l0.6,2.9l-6,6.9
					l5.3-1.1l-0.3-1.4l1.7-0.3l0.9,4.5l-1.7,0.3l-0.2-1.2l-9.6,1.9l-0.2-1L181.4,90.4z"/>
			</g>
		</g>
		<g class="st2">
			<g>
				<path class="st1" d="M181,100.6c3.5-0.1,6,2.6,6.1,5.9c0.1,2.7-1.3,4.5-2.7,4.5c-0.8,0-1.4-0.5-1.4-1.2c0-0.8,0.5-1.3,1.2-1.4
					c0.2,0,0.5,0,0.6,0.1c0.3-0.3,0.5-1,0.5-2.1c0-2.2-1.7-3.9-4.2-3.9c-2.5,0.1-4.1,1.9-4.1,3.9c0,1.2,0.3,2,0.8,2.8l2,0l-0.1-2.9
					l1.7,0l0.1,4.8l-6,0.1l0-1.9l0.9,0c-0.6-0.8-1.1-1.8-1.1-3.1C175.1,103.5,177.3,100.7,181,100.6z"/>
			</g>
		</g>
		<g class="st2">
			<g>
				<path class="st1" d="M35.9,149.4v-0.1c0-3.2,2.3-5.3,5.5-5.3c2.5,0,4.6,1.1,4.8,3.8h-3c-0.1-1-0.8-1.5-1.9-1.5
					c-1.5,0-2.4,1.1-2.4,3v0.1c0,1.7,0.6,3,2.4,3c1.5,0,2-0.7,2.1-1.6h-1.9v-2.1h4.9v1.3c0,2.6-1.7,4.6-5.1,4.6
					C37.8,154.7,35.9,152.5,35.9,149.4z"/>
				<path class="st1" d="M48.9,144.2h4.1c2.7,0,4.2,1.1,4.2,3.3v0.1c0,1.5-0.8,2.3-1.9,2.7l2.5,4.3h-3.1l-2.1-3.7h-0.7v3.7h-3V144.2
					z M52.8,148.9c1,0,1.5-0.4,1.5-1.3v-0.1c0-0.8-0.5-1.2-1.5-1.2h-1v2.5H52.8z"/>
			</g>
		</g>
		<g class="st2">
			<g>
				<path class="st1" d="M62.9,144.2h3.9l3.3,10.4h-3.2l-0.6-1.9h-3.4l-0.6,1.9h-2.8L62.9,144.2z M63.5,150.6h2.3l-1.1-4L63.5,150.6
					z"/>
			</g>
		</g>
		<g class="st2">
			<g>
				<path class="st1" d="M71.7,151.2h2.8c0.1,0.7,0.4,1.4,1.6,1.4c0.9,0,1.3-0.4,1.3-1c0-0.6-0.4-0.8-1.6-1
					c-2.9-0.3-3.9-1.2-3.9-3.3c0-1.9,1.5-3.2,4-3.2c2.5,0,3.9,1,4.1,3.2h-2.8c-0.1-0.7-0.5-1.1-1.3-1.1c-0.8,0-1.2,0.4-1.2,0.9
					c0,0.6,0.3,0.8,1.6,1c2.6,0.3,4,1,4,3.2c0,1.9-1.5,3.5-4.2,3.5C73.2,154.7,71.7,153.5,71.7,151.2z"/>
				<path class="st1" d="M82.2,149.4v-0.1c0-3.2,2.3-5.3,5.5-5.3c2.5,0,4.6,1.1,4.8,3.8h-3c-0.1-1-0.8-1.5-1.9-1.5
					c-1.5,0-2.4,1.1-2.4,3v0.1c0,1.7,0.6,3,2.4,3c1.5,0,2-0.7,2.1-1.6h-1.9v-2.1h4.9v1.3c0,2.6-1.7,4.6-5.1,4.6
					C84.1,154.7,82.2,152.5,82.2,149.4z"/>
			</g>
		</g>
		<g class="st2">
			<g>
				<path class="st1" d="M95.6,144.2h7.2v2.3h-4.2v1.8h3.4v2.1h-3.4v1.9h4.4v2.3h-7.4V144.2z"/>
			</g>
		</g>
		<g class="st2">
			<g>
				<path class="st1" d="M105.7,144.2h7v2.3h-4v2.2h3.2v2.2h-3.2v3.7h-3V144.2z"/>
				<path class="st1" d="M115.1,150.3v-6.2h3v6c0,1.5,0.4,2.2,1.6,2.2c1.2,0,1.6-0.7,1.6-2.2v-6h3v6.1c0,3-1.8,4.4-4.6,4.4
					C116.7,154.7,115.1,153.2,115.1,150.3z M116.8,142.3c0-0.7,0.6-1.2,1.2-1.2c0.7,0,1.3,0.5,1.3,1.2c0,0.7-0.6,1.2-1.3,1.2
					C117.3,143.5,116.8,143,116.8,142.3z M120,142.3c0-0.7,0.5-1.2,1.2-1.2c0.7,0,1.3,0.5,1.3,1.2c0,0.7-0.6,1.2-1.3,1.2
					C120.6,143.5,120,143,120,142.3z"/>
			</g>
		</g>
		<g class="st2">
			<g>
				<path class="st1" d="M129.7,146.5H127v-2.3h8.4v2.3h-2.7v8.1h-3V146.5z"/>
			</g>
		</g>
		<g class="st2">
			<g>
				<path class="st1" d="M140,146.5h-2.7v-2.3h8.4v2.3H143v8.1h-3V146.5z"/>
			</g>
		</g>
		<g class="st2">
			<g>
				<path class="st1" d="M148.2,144.2h7.2v2.3h-4.2v1.8h3.4v2.1h-3.4v1.9h4.5v2.3h-7.4V144.2z"/>
			</g>
		</g>
		<g class="st2">
			<g>
				<path class="st1" d="M158.3,144.2h4.1c2.7,0,4.2,1.1,4.2,3.3v0.1c0,1.5-0.8,2.3-1.9,2.7l2.5,4.3h-3.1l-2.1-3.7h-0.7v3.7h-3
					V144.2z M162.2,148.9c1,0,1.5-0.4,1.5-1.3v-0.1c0-0.8-0.5-1.2-1.5-1.2h-1v2.5H162.2z"/>
			</g>
		</g>
		<g class="st2">
			<g>
				<path class="st1" d="M171.4,146.5h-2.7v-2.3h8.4v2.3h-2.7v8.1h-3V146.5z"/>
			</g>
		</g>
	</g>
	<g>
		<g>
			<g>
				<defs>
					<rect id="SVGID_5_" x="11.3" y="6.4" width="191" height="201.6"/>
				</defs>
				<clipPath id="SVGID_6_">
					<use xlink:href="#SVGID_5_"  style="overflow:visible;"/>
				</clipPath>
			</g>
		</g>
	</g>
</g>
</svg>
