<?xml version="1.0" encoding="utf-8"?>
<!-- Generator: Adobe Illustrator 23.0.4, SVG Export Plug-In . SVG Version: 6.00 Build 0)  -->
<svg version="1.1" id="Layer_1" xmlns="http://www.w3.org/2000/svg" xmlns:xlink="http://www.w3.org/1999/xlink" x="0px" y="0px"
	 viewBox="0 0 216.4 216.4" style="enable-background:new 0 0 216.4 216.4;" xml:space="preserve">
<style type="text/css">
	.st0{clip-path:url(#SVGID_4_);}
	.st1{fill:#373535;}
	.st2{enable-background:new    ;}
</style>
<g id="nld">
	<g>
		<g>
			<g>
				<defs>
					<rect id="SVGID_1_" x="12.4" y="7.4" width="189.6" height="200.2"/>
				</defs>
				<clipPath id="SVGID_2_">
					<use xlink:href="#SVGID_1_"  style="overflow:visible;"/>
				</clipPath>
			</g>
		</g>
	</g>
	<g>
		<g>
			<g>
				<defs>
					<rect id="SVGID_3_" x="12.4" y="7.4" width="189.6" height="200.2"/>
				</defs>
				<clipPath id="SVGID_4_">
					<use xlink:href="#SVGID_3_"  style="overflow:visible;"/>
				</clipPath>
				<g class="st0">
					<path class="st1" d="M107.7,200.1c-50.8,0-92.1-41.3-92.1-92.1s41.3-92.1,92.1-92.1s92.1,41.3,92.1,92.1
						S158.5,200.1,107.7,200.1 M107.7,19.2c-49,0-88.8,39.8-88.8,88.8s39.8,88.8,88.8,88.8s88.8-39.8,88.8-88.8
						S156.6,19.2,107.7,19.2 M66.2,81.9l10.7,10.7C73.7,88.1,70,84.7,66.2,81.9 M133,61.7l-0.6-0.6c-0.2,0.2-0.3,0.3-0.5,0.5
						l0.7,0.7C132.8,62.1,132.9,61.9,133,61.7 M148.8,78.4l1.2,1.2c0.1-0.2,0.2-0.4,0.3-0.6l-1-1C149.1,78.1,149,78.2,148.8,78.4
						 M134.1,59.7l-0.1-0.1c-0.2,0.2-0.3,0.3-0.5,0.5l0.3,0.3C133.8,60.1,134,59.9,134.1,59.7 M151,76.7c-0.2,0.1-0.4,0.3-0.6,0.4
						l0.5,0.5c0.1-0.2,0.2-0.4,0.3-0.6L151,76.7z M93.1,57.3L93.1,57.3c0,0.3,0,0.7,0.1,1l0.6,0.6C93.5,58.4,93.3,57.9,93.1,57.3
						 M185.9,121.7h-53c2.4-19,19.8-44.7,20-44.9l1.9-2.8l-2.8,1.9c-21,13.8-28.5,41.7-29.5,45.9H118c0.8-4.5,5.8-25.4,27-42.5
						l-0.8-1c-15.7,12.7-22.6,27.4-25.6,36.3c3.8-33,17.3-55.4,17.5-55.6l2.5-4.2l-3.6,3.3c-23.5,22-28.2,58.2-28.8,63.8h-8.4
						c0.3-1.3,0.7-2.6,1-3.9c2.6-9.4,9.8-31.2,25.5-50.2l-1-0.8c-11.7,14.2-18.7,29.8-22.6,40.9c3.1-24.1-3.2-41.5-6.5-48.6
						l-1.9-4.1l0.6,4.5c0,0.3,4,29.1-4.3,60c-0.6-2.8-1.8-7.4-3.8-12.5c0.8-1.7,6.6-15.4,7-37.8h-1.3c-0.4,19.3-4.8,32.1-6.4,36
						c-3.6-8.6-9.6-18.3-19.1-24.2L61.8,79l2.3,2.9c12.4,16,15.8,36.2,16.4,39.8h-6.2c2.6-6.6,1.3-15.7-4-26.6l-1.2,0.6
						c5.1,10.7,6.4,19.9,3.7,26H29.4v1.3h59.4h0.1l0,0h97V121.7z M149.8,78.9c-0.4,0.6-0.8,1.2-1.2,1.9l-0.5-0.5
						C148.7,79.8,149.2,79.4,149.8,78.9 M147.6,80.8l0.7,0.7c-0.2,0.4-0.5,0.8-0.8,1.3l-1-1C146.9,81.4,147.2,81.1,147.6,80.8
						 M146,82.2l1.1,1.1c-0.2,0.4-0.5,0.8-0.7,1.3l-1.4-1.4C145.3,82.8,145.7,82.5,146,82.2 M144.5,83.6l1.6,1.6
						c-0.2,0.4-0.5,0.8-0.7,1.3l-1.8-1.8C143.8,84.3,144.2,83.9,144.5,83.6 M143,85.1l1.9,1.9c-0.2,0.4-0.5,0.9-0.7,1.3l-2.2-2.2
						C142.4,85.8,142.7,85.5,143,85.1 M141.6,86.7l2.3,2.3c-0.2,0.4-0.5,0.9-0.7,1.3l-2.5-2.5C141,87.4,141.3,87,141.6,86.7
						 M140.3,88.3l2.6,2.6c-0.2,0.4-0.5,0.9-0.7,1.3l-2.8-2.8C139.7,89,140,88.7,140.3,88.3 M139,89.9l2.9,2.9
						c-0.2,0.4-0.5,0.9-0.7,1.3l-3.1-3.1C138.4,90.7,138.7,90.3,139,89.9 M137.7,91.6l3.2,3.2c-0.2,0.4-0.4,0.9-0.7,1.4l-3.3-3.3
						C137.1,92.4,137.4,92,137.7,91.6 M136.5,93.4l3.4,3.4c-0.2,0.5-0.4,0.9-0.7,1.4l-3.6-3.6C135.9,94.2,136.2,93.8,136.5,93.4
						 M135.3,95.2l3.6,3.6c-0.2,0.5-0.4,0.9-0.6,1.4l-3.8-3.8C134.8,96,135,95.6,135.3,95.2 M134.2,97l3.8,3.8
						c-0.2,0.5-0.4,0.9-0.6,1.4l-4-4C133.7,97.9,133.9,97.4,134.2,97 M133.1,98.9l4,4c-0.2,0.5-0.4,1-0.6,1.4l-4.2-4.2
						C132.6,99.7,132.8,99.3,133.1,98.9 M132,100.8l4.2,4.2c-0.2,0.5-0.4,1-0.6,1.5l-4.3-4.3C131.5,101.7,131.8,101.2,132,100.8
						 M131,102.7l4.4,4.4c-0.2,0.5-0.4,1-0.5,1.5l-4.5-4.5C130.5,103.6,130.8,103.2,131,102.7 M130,104.7l4.6,4.6
						c-0.2,0.5-0.3,1-0.5,1.5l-4.7-4.7C129.6,105.7,129.8,105.2,130,104.7 M129.1,106.8l4.8,4.8c-0.2,0.5-0.3,1-0.5,1.6l-4.9-4.9
						C128.7,107.7,128.9,107.2,129.1,106.8 M128.2,108.8l5,5c-0.1,0.5-0.3,1.1-0.4,1.6l-5.2-5.2C127.8,109.8,128,109.3,128.2,108.8
						 M127.3,110.9l5.3,5.2c-0.1,0.6-0.3,1.1-0.4,1.7l-5.4-5.4C126.9,111.9,127.1,111.4,127.3,110.9 M126.5,113.1l5.5,5.5
						c-0.1,0.6-0.2,1.2-0.3,1.7l-5.8-5.8C126.1,114.1,126.3,113.6,126.5,113.1 M125.7,115.3l5.9,5.9c0,0.2,0,0.3-0.1,0.5H130
						l-4.9-4.9C125.4,116.3,125.5,115.8,125.7,115.3 M125,117.5l4.1,4.1h-2l-2.6-2.6C124.6,118.6,124.8,118.1,125,117.5
						 M123.9,121.4c0.1-0.4,0.2-0.9,0.4-1.6l1.9,1.9h-2L123.9,121.4z M132.6,62.1c-0.3,0.6-0.6,1.2-0.9,1.8l-0.4-0.4
						C131.8,63.1,132.2,62.6,132.6,62.1 M130.9,64l0.5,0.5c-0.2,0.4-0.4,0.9-0.6,1.4l-0.8-0.8C130.3,64.8,130.6,64.4,130.9,64
						 M129.5,65.7l0.9,0.9c-0.2,0.4-0.4,0.9-0.6,1.4l-1.2-1.2C128.9,66.4,129.2,66,129.5,65.7 M128.2,67.3l1.3,1.3
						c-0.2,0.5-0.4,0.9-0.6,1.4l-1.6-1.6C127.6,68.1,127.9,67.7,128.2,67.3 M126.9,69l1.7,1.7c-0.2,0.5-0.4,0.9-0.6,1.4l-2-2
						C126.4,69.8,126.6,69.4,126.9,69 M125.7,70.7l2.1,2.1c-0.2,0.5-0.4,1-0.6,1.4l-2.3-2.3C125.2,71.5,125.4,71.1,125.7,70.7
						 M124.5,72.5l2.4,2.4c-0.2,0.5-0.4,1-0.6,1.5l-2.7-2.7C124,73.3,124.2,72.9,124.5,72.5 M123.4,74.3l2.8,2.8
						c-0.2,0.5-0.4,1-0.5,1.5l-3-3C122.8,75.2,123.1,74.7,123.4,74.3 M122.2,76.2l3.1,3.1c-0.2,0.5-0.3,1-0.5,1.5l-3.3-3.3
						C121.7,77,122,76.6,122.2,76.2 M121.2,78.1l3.4,3.4c-0.2,0.5-0.3,1-0.5,1.5l-3.6-3.6C120.7,78.9,120.9,78.5,121.2,78.1
						 M120.1,80l3.7,3.7c-0.2,0.5-0.3,1-0.5,1.5l-3.9-3.9C119.7,80.9,119.9,80.4,120.1,80 M119.1,82l4,4c-0.2,0.5-0.3,1-0.5,1.6
						l-4.2-4.2C118.7,82.9,118.9,82.4,119.1,82 M118.2,84l4.3,4.3c-0.1,0.5-0.3,1-0.4,1.6l-4.5-4.5C117.7,84.9,117.9,84.4,118.2,84
						 M117.2,86l4.6,4.6c-0.1,0.5-0.3,1.1-0.4,1.6l-4.7-4.7C116.8,87,117,86.5,117.2,86 M116.3,88.1l4.8,4.8
						c-0.1,0.5-0.3,1.1-0.4,1.6l-5-5C115.9,89,116.1,88.6,116.3,88.1 M115.5,90.2l5.1,5.1c-0.1,0.5-0.3,1.1-0.4,1.6l-5.3-5.3
						C115.1,91.2,115.3,90.7,115.5,90.2 M114.6,92.3l5.4,5.4c-0.1,0.5-0.2,1.1-0.4,1.7l-5.5-5.5C114.3,93.3,114.5,92.8,114.6,92.3
						 M113.9,94.5l5.6,5.6c-0.1,0.6-0.2,1.1-0.3,1.7l-5.8-5.8C113.5,95.5,113.7,95,113.9,94.5 M113.1,96.7l5.9,5.9
						c-0.1,0.6-0.2,1.1-0.3,1.7l-6-6C112.8,97.8,112.9,97.2,113.1,96.7 M112.4,99l6.1,6.1c-0.1,0.6-0.2,1.1-0.3,1.7l-6.3-6.3
						C112.1,100,112.2,99.5,112.4,99 M111.7,101.3l6.4,6.4c-0.1,0.6-0.2,1.2-0.3,1.7l-6.6-6.6C111.4,102.3,111.5,101.8,111.7,101.3
						 M111.1,103.6l6.6,6.6c-0.1,0.6-0.2,1.2-0.2,1.8l-6.8-6.8C110.8,104.7,110.9,104.1,111.1,103.6 M110.4,105.9l6.9,6.9
						c-0.1,0.6-0.1,1.2-0.2,1.8l-7.1-7.1C110.2,107,110.3,106.5,110.4,105.9 M109.9,108.3l7.2,7.2c-0.1,0.6-0.1,1.2-0.2,1.8
						l-7.3-7.3C109.6,109.5,109.7,108.9,109.9,108.3 M109.3,110.8l7.4,7.4c-0.1,0.6-0.1,1.2-0.2,1.9l-7.6-7.6
						C109.1,111.9,109.2,111.3,109.3,110.8 M108.8,113.2l7.7,7.7c0,0.2,0,0.5,0,0.7h-1.3l-6.7-6.7
						C108.6,114.4,108.7,113.8,108.8,113.2 M108.4,115.8l5.9,5.9h-2l-4.2-4.2C108.2,117,108.3,116.4,108.4,115.8 M108,118.3l3.3,3.3
						h-2l-1.5-1.6C107.8,119.6,107.9,119,108,118.3 M107.6,120.9l0.7,0.7h-0.8C107.6,121.4,107.6,121.2,107.6,120.9 M100,94.6
						l-5.2-5.2c0-0.6,0.1-1.3,0.1-1.9l5.1,5.1C100,93.2,100,93.9,100,94.6 M100,91.6l-5-5c0-0.7,0.1-1.3,0.1-1.9l4.8,4.8
						C99.9,90.1,99.9,90.8,100,91.6 M99.8,88.4l-4.7-4.7c0-0.7,0-1.3,0.1-2l4.5,4.5C99.7,87,99.8,87.7,99.8,88.4 M99.5,85.2
						l-4.4-4.4c0-0.7,0-1.3,0-2l4.1,4.1C99.4,83.7,99.5,84.4,99.5,85.2 M99.1,81.8l-4-4c0-0.7,0-1.4,0-2l3.6,3.6
						C98.9,80.2,99,81,99.1,81.8 M98.6,78.3l-3.4-3.4c0-0.7,0-1.4,0-2.1l3,3C98.3,76.6,98.4,77.4,98.6,78.3 M97.8,74.6l-2.7-2.7
						c0-0.7,0-1.4-0.1-2.1l2.2,2.2C97.4,72.8,97.6,73.7,97.8,74.6 M96.9,70.7L95,68.8c0-0.7-0.1-1.5-0.1-2.1l1.2,1.2
						C96.3,68.7,96.6,69.7,96.9,70.7 M95.6,66.4l-0.8-0.8c0-0.7-0.1-1.3-0.1-1.9C95,64.5,95.3,65.4,95.6,66.4 M94.7,90.2l5.3,5.3
						c0,0.7,0,1.3,0,2l-5.4-5.4C94.6,91.5,94.7,90.8,94.7,90.2 M94.5,93l5.5,5.5c0,0.6-0.1,1.3-0.1,1.9l-5.5-5.5
						C94.4,94.2,94.4,93.6,94.5,93 M94.2,95.7l5.6,5.6c0,0.6-0.1,1.3-0.1,1.9L94,97.5C94.1,96.9,94.2,96.3,94.2,95.7 M93.9,98.3
						l5.7,5.7c-0.1,0.6-0.1,1.2-0.2,1.8l-5.7-5.7C93.8,99.5,93.9,98.9,93.9,98.3 M93.6,101l5.7,5.7c-0.1,0.6-0.1,1.2-0.2,1.8
						l-5.7-5.7C93.4,102.2,93.5,101.6,93.6,101 M93.2,103.6l5.7,5.7c-0.1,0.6-0.2,1.2-0.3,1.7l-5.7-5.7
						C93,104.7,93.1,104.1,93.2,103.6 M92.8,106.1l5.7,5.7c-0.1,0.6-0.2,1.1-0.3,1.7l-5.7-5.7C92.6,107.3,92.7,106.7,92.8,106.1
						 M92.4,108.6l5.7,5.7c-0.1,0.6-0.2,1.1-0.3,1.7l-5.7-5.7C92.1,109.8,92.3,109.2,92.4,108.6 M91.9,111.1l5.7,5.7
						c0,0.2-0.1,0.4-0.1,0.6c-0.1,0.4-0.2,0.7-0.3,1l-5.7-5.7C91.6,112.2,91.8,111.7,91.9,111.1 M91.4,113.6l5.6,5.6
						c-0.2,0.6-0.3,1.2-0.4,1.6l-5.6-5.6C91.1,114.7,91.2,114.1,91.4,113.6 M90.8,116l5.6,5.6c0,0,0,0,0,0.1h-2l-4-4
						C90.5,117.1,90.7,116.5,90.8,116 M90.2,118.4l3.3,3.3h-2l-1.7-1.7C89.9,119.4,90.1,118.9,90.2,118.4 M90.5,121.7h-1.2
						c0.1-0.3,0.2-0.6,0.3-0.9L90.5,121.7z M67.5,84.3c4.4,3.4,7.8,7.7,10.6,12.1l-8-8C69.3,87,68.4,85.6,67.5,84.3 M71.3,90.6
						l8.1,8.1c0.8,1.4,1.5,2.8,2.1,4.2l-8.1-8.1C72.8,93.4,72.1,92,71.3,90.6 M74.3,96.5l8.1,8.1c0.5,1.2,1,2.3,1.4,3.4l-8-8
						C75.3,98.9,74.8,97.7,74.3,96.5 M76.4,101.6l8,8c0.4,1.1,0.7,2.1,1,3.1l-7.8-7.8C77.2,103.7,76.8,102.7,76.4,101.6 M78,106.2
						l7.8,7.8c0.3,1,0.6,1.9,0.8,2.8l-7.7-7.7C78.7,108.2,78.4,107.2,78,106.2 M79.3,110.5l7.6,7.6c0.2,1,0.4,1.9,0.6,2.6l-7.4-7.4
						C79.9,112.4,79.6,111.4,79.3,110.5 M87.6,121.7h-2l-4.6-4.6c-0.2-0.8-0.4-1.7-0.6-2.6L87.6,121.7z M81.6,120.7
						c-0.1-0.6-0.2-1.5-0.4-2.5l3.4,3.4h-2L81.6,120.7z"/>
				</g>
			</g>
		</g>
		<g class="st2">
			<g>
				<path class="st1" d="M35.1,106.4c-3.1-0.3-5.2-2.7-4.9-5.9c0.3-3.1,2.9-5.1,5.9-4.8c3.1,0.3,5.2,2.7,4.9,5.9
					C40.7,104.8,38.2,106.7,35.1,106.4z M36,97.6c-2.2-0.2-3.9,1.1-4.1,3.1c-0.2,2,1.2,3.6,3.4,3.8c2.2,0.2,3.9-1.1,4.1-3.1
					C39.5,99.4,38.1,97.8,36,97.6z"/>
			</g>
		</g>
		<g class="st2">
			<g>
				<path class="st1" d="M40.1,94.8l0.3-1.2l-7-1.8L33.1,93l-1.6-0.4l1-4.1c0.6-2.2,2.2-3.5,4.3-3c2.3,0.6,3,2.5,2.4,4.9
					c-0.1,0.5-0.2,0.8-0.3,1l1.8,0.5l0.3-1.3l1.6,0.4l-1.1,4.2L40.1,94.8z M36.4,87.3c-1.1-0.3-2,0.4-2.3,1.7l-0.3,1.1l3.7,0.9
					c0.1-0.2,0.1-0.4,0.3-1.1C38.1,88.6,37.6,87.6,36.4,87.3z"/>
			</g>
		</g>
		<g class="st2">
			<g>
				<path class="st1" d="M40.4,80.8c-2.9-1.4-3.8-4.6-2.5-7.3c1.1-2.2,2.9-3.1,4-2.5c0.7,0.3,0.9,1,0.7,1.6
					c-0.3,0.6-0.9,0.9-1.5,0.6c-0.2-0.1-0.3-0.2-0.4-0.3c-0.3,0.2-0.8,0.6-1.2,1.5c-0.9,1.8-0.2,3.9,1.8,4.9c2.1,1,4.1,0.2,4.9-1.4
					c0.5-1,0.6-1.8,0.5-2.6L45,74.4l-1.1,2.3l-1.4-0.7l1.9-3.9l4.9,2.4L48.5,76l-0.7-0.3c0.2,0.9,0.1,1.9-0.4,3
					C46.3,81,43.4,82.3,40.4,80.8z"/>
			</g>
		</g>
		<g class="st2">
			<g>
				<path class="st1" d="M48.8,72.2l0.7-1l-5.9-4.1l-0.7,1l-1.3-0.9l2.3-3.3c1.4-2,3.2-2.8,4.9-1.6c1.1,0.8,1.5,2,1.2,3.2l3.2,0.3
					l0.7-1l1.3,0.9l-1.4,2l-4.5-0.6c-0.1,0.2-0.2,0.4-0.3,0.5c-0.2,0.3-0.4,0.5-0.5,0.7l1.9,1.3l0.7-1.1l1.3,0.9l-2.5,3.5L48.8,72.2
					z M47.8,63.8c-0.9-0.6-1.8-0.2-2.7,1l-0.6,0.8l2.7,1.9c0.1-0.1,0.3-0.3,0.6-0.8C48.7,65.6,48.7,64.5,47.8,63.8z"/>
			</g>
		</g>
		<g class="st2">
			<g>
				<path class="st1" d="M54.2,64.4l0.6-0.7l-3.5-6.9l-0.8,0.8l-1.2-1.1l4.1-4.3l1.2,1.1l-0.8,0.8l7.1,3.1l0.6-0.7l1.2,1.1l-2.8,2.9
					l-1.2-1.1l0.8-0.9L58,58l-2.7,2.8l0.8,1.6l0.9-0.9l1.2,1.1l-2.8,2.9L54.2,64.4z M56.6,57.3l-4-1.8l2,3.9L56.6,57.3z"/>
			</g>
		</g>
		<g class="st2">
			<g>
				<path class="st1" d="M61.6,55.9c-0.5-0.6-0.4-1.2,0.1-1.7c0.5-0.4,1.2-0.3,1.5,0.1c0.2,0.2,0.2,0.4,0.3,0.6c0.5,0,1-0.3,1.6-0.7
					c0.9-0.7,1.2-1.6,0.6-2.3c-0.5-0.7-1.5-0.5-2.5-0.1c-2,0.7-3.4,1-4.6-0.5c-1-1.3-0.8-3.2,0.9-4.5c1.5-1.2,3.3-1.4,4.1-0.4
					c0.5,0.6,0.4,1.2-0.1,1.6c-0.6,0.5-1.2,0.3-1.6-0.1c-0.2-0.2-0.2-0.3-0.2-0.5c-0.3,0-0.8,0.2-1.3,0.6c-0.8,0.6-1,1.4-0.5,2
					c0.5,0.7,1.5,0.4,2.5,0.1c1.9-0.6,3.4-1,4.6,0.5c1.2,1.6,0.7,3.4-1,4.7C64.5,56.8,62.4,56.9,61.6,55.9z"/>
			</g>
		</g>
		<g class="st2">
			<g>
				<path class="st1" d="M69,51l1-0.6l-3.7-6.2l-1,0.6l-0.8-1.4l3.7-2.3l0.8,1.4l-1.2,0.7l3.8,6.2L74,48l-0.8-1.3l1.5-0.9l1.6,2.6
					l-6.5,3.9L69,51z"/>
			</g>
		</g>
		<g class="st2">
			<g>
				<path class="st1" d="M76.1,46.7l0.8-0.4l-0.4-7.7l-1.1,0.4l-0.6-1.5l5.4-2.3l0.6,1.5l-1.1,0.4l5.2,5.7l0.8-0.4l0.6,1.5l-3.7,1.6
					l-0.6-1.5l1.1-0.5l-1.2-1.4l-3.6,1.5l0.1,1.8l1.2-0.5l0.6,1.5l-3.7,1.6L76.1,46.7z M81.1,41.1l-2.9-3.2l0.2,4.4L81.1,41.1z"/>
			</g>
		</g>
		<g class="st2">
			<g>
				<path class="st1" d="M88.3,36.1l1.3,5.5l1.3-0.3l0.4,1.6l-4.1,1l-0.4-1.6l1.2-0.3l-1.7-7.1L85,35.2l-0.4-1.6l2.6-0.6l6.5,5.2
					l-1.1-4.8l-1.3,0.3l-0.4-1.6l4.1-1l0.4,1.6L94.4,33l2,8.6l-0.9,0.3L88.3,36.1z"/>
			</g>
		</g>
		<g class="st2">
			<g>
				<path class="st1" d="M98.3,39.7l1.2-0.1L99,32.4l-1.2,0.1l-0.1-1.6l3.9-0.2c3.8-0.2,6.1,1.6,6.3,4.7c0.2,3.2-1.8,5.4-5.9,5.7
					l-3.8,0.2L98.3,39.7z M102.3,39.4c2.7-0.2,4-1.7,3.9-4c-0.1-2.3-1.8-3.4-4.4-3.3l-0.9,0.1l0.5,7.2L102.3,39.4z"/>
			</g>
		</g>
		<g class="st2">
			<g>
				<path class="st1" d="M113.8,35.7c0.5-3,3-5,6.2-4.5c3.1,0.5,4.9,3.2,4.4,6.2c-0.5,3-3,5-6.2,4.5
					C115.1,41.3,113.3,38.7,113.8,35.7z M122.5,37c0.3-2.1-0.9-3.9-2.9-4.2c-2-0.3-3.7,1-4.1,3.2c-0.3,2.1,0.9,3.9,2.9,4.3
					C120.5,40.5,122.2,39.2,122.5,37z"/>
			</g>
		</g>
		<g class="st2">
			<g>
				<path class="st1" d="M125.1,41.3l1.1,0.4l2.2-6.9l-1.1-0.4l0.5-1.5l4,1.3c2.1,0.7,3.4,2.4,2.7,4.5c-0.7,2.3-2.7,2.9-5.1,2.1
					c-0.5-0.2-0.8-0.2-1-0.3l-0.6,1.8l1.2,0.4l-0.5,1.5l-4.1-1.3L125.1,41.3z M132.8,38.1c0.3-1-0.3-2-1.5-2.4l-1.1-0.3L129,39
					c0.2,0.1,0.4,0.2,1.1,0.4C131.4,39.8,132.4,39.3,132.8,38.1z"/>
			</g>
		</g>
		<g class="st2">
			<g>
				<path class="st1" d="M135.6,41c1.4-2.9,4.6-3.8,7.4-2.4c2.2,1.1,3,3,2.5,4.1c-0.3,0.7-1,0.9-1.6,0.6c-0.6-0.3-0.9-0.9-0.6-1.5
					c0.1-0.2,0.2-0.3,0.3-0.4c-0.2-0.3-0.6-0.8-1.4-1.3c-1.8-0.9-3.9-0.3-4.9,1.8c-1,2.1-0.2,4.1,1.4,4.9c1,0.5,1.8,0.6,2.6,0.5
					l0.8-1.6l-2.3-1.2l0.7-1.4l3.9,2l-2.4,4.8l-1.5-0.8l0.3-0.7c-0.9,0.2-1.9,0.1-3-0.4C135.4,47,134.1,44,135.6,41z"/>
			</g>
		</g>
		<g class="st2">
			<g>
				<path class="st1" d="M144.1,49.5l1,0.7l4.2-5.9l-1-0.7l0.9-1.3l6.4,4.5l-1.7,2.4l-1.4-1l0.8-1.1l-2.5-1.8l-1.6,2.3l2.6,1.8
					l-0.9,1.2l-2.6-1.8l-1.7,2.4l2.5,1.8l0.8-1.1l1.4,1l-1.7,2.4l-6.4-4.5L144.1,49.5z"/>
			</g>
		</g>
		<g class="st2">
			<g>
				<path class="st1" d="M154,52.2c2.2-2.3,5.5-2.3,7.7-0.1c1.8,1.7,2.1,3.7,1.2,4.6c-0.5,0.6-1.2,0.6-1.7,0.1
					c-0.5-0.5-0.6-1.2-0.1-1.6c0.1-0.1,0.3-0.3,0.5-0.3c-0.1-0.4-0.3-1-1-1.6c-1.5-1.4-3.6-1.4-5.2,0.2c-1.6,1.7-1.4,3.9-0.1,5.1
					c0.8,0.8,1.5,1.1,2.3,1.3l1.2-1.3l-1.9-1.8l1.1-1.1l3.2,3l-3.7,3.9l-1.2-1.2l0.5-0.6c-0.9-0.1-1.9-0.5-2.7-1.3
					C152,57.7,151.7,54.6,154,52.2z"/>
			</g>
		</g>
		<g class="st2">
			<g>
				<path class="st1" d="M159.7,62.8l0.7,0.9l5.8-4.4l-0.7-0.9l1.3-1l2.5,3.2c1.5,1.9,1.7,3.9,0,5.2c-1.1,0.8-2.4,0.8-3.5,0.2
					l-1.3,3l0.7,0.9l-1.3,1l-1.5-1.9l1.9-4.1c-0.1-0.2-0.3-0.3-0.4-0.5c-0.2-0.3-0.4-0.5-0.5-0.7l-1.9,1.4l0.8,1l-1.3,1l-2.6-3.4
					L159.7,62.8z M168,64.3c0.9-0.7,0.7-1.7-0.1-2.9l-0.6-0.8l-2.7,2c0.1,0.2,0.2,0.4,0.6,0.8C166,64.7,167.1,65,168,64.3z"/>
			</g>
		</g>
		<g class="st2">
			<g>
				<path class="st1" d="M168.9,69c2.7-1.5,5.8-0.6,7.3,2.2c1.5,2.8,0.4,5.8-2.2,7.3c-2.7,1.5-5.8,0.6-7.3-2.2
					C165.2,73.5,166.2,70.5,168.9,69z M173.1,76.8c1.9-1,2.6-3.1,1.6-4.9c-1-1.8-3-2.4-5-1.3c-1.9,1-2.6,3.1-1.6,4.9
					C169.1,77.3,171.2,77.9,173.1,76.8z"/>
			</g>
		</g>
		<g class="st2">
			<g>
				<path class="st1" d="M171.3,81.5l0.4,1.1l6.8-2.4l-0.4-1.1l1.5-0.5l2.6,7.4l-2.8,1l-0.6-1.6l1.3-0.5l-1-2.9l-2.6,0.9l1,3
					l-1.4,0.5l-1-3l-2.8,1l1,2.9l1.3-0.5l0.6,1.6l-2.8,1l-2.6-7.4L171.3,81.5z"/>
			</g>
		</g>
		<g class="st2">
			<g>
				<path class="st1" d="M174.1,90.2l0.3,1.2l7.1-1.6l-0.3-1.2l1.6-0.4l1,4.2l-1.6,0.4l-0.3-1.2l-7.1,1.6l0.3,1.2l-1.6,0.4l-1-4.2
					L174.1,90.2z"/>
			</g>
		</g>
		<g class="st2">
			<g>
				<path class="st1" d="M175.5,95.5l0.1,1.2l7.2-0.8l-0.1-1.2l1.6-0.2l0.4,3.9c0.4,3.8-1.3,6.2-4.5,6.5c-3.2,0.3-5.5-1.5-6-5.6
					l-0.4-3.7L175.5,95.5z M175.9,99.5c0.3,2.7,1.9,3.9,4.1,3.7c2.3-0.2,3.3-2,3.1-4.6l-0.1-0.9l-7.2,0.8L175.9,99.5z"/>
			</g>
		</g>
		<g class="st2">
			<g>
				<path class="st1" d="M37.1,144.7h6.8v2.2h-4v1.7h3.2v2h-3.2v1.8h4.2v2.2h-7V144.7z"/>
			</g>
		</g>
		<g class="st2">
			<g>
				<path class="st1" d="M46.7,144.7h3.2l3.1,5.5v-5.5h2.5v9.8h-2.7l-3.6-6.2v6.2h-2.5V144.7z"/>
			</g>
		</g>
		<g class="st2">
			<g>
				<path class="st1" d="M61.8,149.7v-0.1c0-3,2.2-5,5.1-5c2.3,0,4.4,1.1,4.6,3.6h-2.8c-0.1-0.9-0.7-1.4-1.8-1.4
					c-1.4,0-2.2,1.1-2.2,2.8v0.1c0,1.6,0.6,2.8,2.3,2.8c1.4,0,1.9-0.7,1.9-1.5h-1.8v-2h4.6v1.2c0,2.5-1.6,4.4-4.8,4.4
					C63.6,154.7,61.8,152.6,61.8,149.7z"/>
				<path class="st1" d="M74.1,144.7h3.8c2.6,0,4,1,4,3.1v0.1c0,1.4-0.7,2.2-1.8,2.6l2.3,4.1h-3l-2-3.5h-0.7v3.5h-2.8V144.7z
					 M77.8,149.2c0.9,0,1.4-0.4,1.4-1.2v-0.1c0-0.8-0.5-1.1-1.4-1.1h-0.9v2.4H77.8z"/>
			</g>
		</g>
		<g class="st2">
			<g>
				<path class="st1" d="M87.3,144.7h3.6l3.1,9.8h-3l-0.5-1.8h-3.3l-0.5,1.8h-2.6L87.3,144.7z M87.8,150.8H90l-1.1-3.8L87.8,150.8z"
					/>
			</g>
		</g>
		<g class="st2">
			<g>
				<path class="st1" d="M95.5,151.4h2.7c0.1,0.7,0.4,1.3,1.6,1.3c0.8,0,1.3-0.4,1.3-1c0-0.6-0.4-0.8-1.6-0.9
					c-2.8-0.3-3.7-1.2-3.7-3.1c0-1.8,1.5-3.1,3.8-3.1c2.4,0,3.7,1,3.9,3.1h-2.6c-0.1-0.7-0.5-1.1-1.3-1.1c-0.8,0-1.1,0.3-1.1,0.8
					c0,0.5,0.3,0.8,1.5,1c2.5,0.3,3.8,0.9,3.8,3c0,1.8-1.4,3.3-4,3.3C97,154.7,95.6,153.5,95.5,151.4z"/>
				<path class="st1" d="M105.5,149.7v-0.1c0-3,2.2-5,5.1-5c2.3,0,4.4,1.1,4.6,3.6h-2.8c-0.1-0.9-0.7-1.4-1.8-1.4
					c-1.4,0-2.2,1.1-2.2,2.8v0.1c0,1.6,0.6,2.8,2.3,2.8c1.4,0,1.9-0.7,1.9-1.5h-1.8v-2h4.6v1.2c0,2.5-1.6,4.4-4.8,4.4
					C107.3,154.7,105.5,152.6,105.5,149.7z"/>
			</g>
		</g>
		<g class="st2">
			<g>
				<path class="st1" d="M118.1,144.7h6.8v2.2h-4v1.7h3.2v2h-3.2v1.8h4.2v2.2h-7V144.7z"/>
			</g>
		</g>
		<g class="st2">
			<g>
				<path class="st1" d="M126.8,144.7h3l2,6.9l2-6.9h2.6l-3.2,9.8h-3.2L126.8,144.7z"/>
			</g>
		</g>
		<g class="st2">
			<g>
				<path class="st1" d="M137.8,149.7v-0.1c0-3,2.2-5,5.2-5c3,0,5.2,1.9,5.2,4.9v0.1c0,3-2.1,5.1-5.2,5.1S137.8,152.6,137.8,149.7z
					 M145.2,149.6v-0.1c0-1.7-0.9-2.8-2.3-2.8s-2.2,1-2.2,2.8v0.1c0,1.8,0.9,2.8,2.3,2.8C144.4,152.5,145.2,151.4,145.2,149.6z"/>
			</g>
		</g>
		<g class="st2">
			<g>
				<path class="st1" d="M150.7,144.7h6.8v2.2h-4v1.7h3.2v2h-3.2v1.8h4.2v2.2h-7V144.7z"/>
			</g>
		</g>
		<g class="st2">
			<g>
				<path class="st1" d="M160.2,144.7h3.8c2.6,0,4,1,4,3.1v0.1c0,1.4-0.7,2.2-1.8,2.6l2.3,4.1h-3l-2-3.5H163v3.5h-2.8V144.7z
					 M163.9,149.2c0.9,0,1.4-0.4,1.4-1.2v-0.1c0-0.8-0.5-1.1-1.4-1.1H163v2.4H163.9z"/>
			</g>
		</g>
		<g class="st2">
			<g>
				<path class="st1" d="M170.9,144.7h3.6c3.5,0,5.3,1.7,5.3,4.8v0.1c0,3.1-1.8,4.9-5.3,4.9h-3.6V144.7z M174.4,152.3
					c1.7,0,2.4-0.9,2.4-2.7v-0.1c0-1.9-0.7-2.7-2.4-2.7h-0.6v5.5H174.4z"/>
			</g>
		</g>
	</g>
	<g>
		<g>
			<g>
				<defs>
					<rect id="SVGID_5_" x="12.4" y="7.4" width="189.6" height="200.2"/>
				</defs>
				<clipPath id="SVGID_6_">
					<use xlink:href="#SVGID_5_"  style="overflow:visible;"/>
				</clipPath>
			</g>
		</g>
	</g>
</g>
</svg>
