<svg id="Layer_1" data-name="Layer 1" xmlns="http://www.w3.org/2000/svg" xmlns:xlink="http://www.w3.org/1999/xlink" viewBox="0 0 1024 765"><defs><style>.cls-1{fill:none;}.cls-2{clip-path:url(#clip-path);}.cls-3{fill:#772840;}</style><clipPath id="clip-path"><rect class="cls-1" y="408.79" width="1024" height="356.21"/></clipPath></defs><title>SFF1693_Foodservice Trade Presenter_Texture_BG</title><g class="cls-2"><path class="cls-3" d="M1024,765V435.85a18.36,18.36,0,0,1-5,.1c-2.54-.63-5.12.6-7.6,0-2.92-.71-14.94.52-17.18.26-2.72-.31-5.32-1.73-8-1.27s-5-.19-7.59.34c-2.4.49-5.17.21-7.74.32-2.22.08-4-.09-5.68-1.34s-13.45-1.92-15.41-1.43c-1.13.27-7.07-1.28-8.7-.76-2.51.81-15.84,1.7-17.46,1.53-3.53-.35-6.86.43-10.21.71-4.08.34-8.34.67-12.2,2.3-2.63,1.12-5.23,1.39-7.87-.06-1.68-.92-3.92-1.25-5.37-.52a6.84,6.84,0,0,1-5.1.46c-4.3-1.15-8.39.07-12.36.9-4.45.92-21.18.14-26.91,1.09-6.68,1-33-1-34.3,2.47a4.3,4.3,0,0,1-4.44,2.77c-4-.23-8,1-12,.52-3.21-.37-16.12,2.79-19.5,2.88l-4.45.41c-5.58-.51-11.06-.72-16-3.31-1.47-.78-2.61-.24-4-.1-2.57.26-5.15,1.41-7.72.51-2.34-.82-4.56-2.25-5.67,1.41-.27.87-1.47.18-2.3.12-6.56-.5-12.77-.27-18.26,4.23-1.95,1.6-5.28,3.22-8.29,2.2-2.43-.82-4.46-.14-6.7.1-6.78.72-13.52,3.43-20.39.65a2.24,2.24,0,0,0-2.45.42c-1.08,1-2.29.65-3.48.28-2.64-.81-4.93.27-7.41.95-4.13,1.12-8.19,2.51-12.79,1.55-5-1-10.11-2-15.44-.33-2.35.72-5.19,1.19-7.79.09-3.23-1.36-6-.64-8.85,1.29,0,0-3.32,1.59-5.71,2.65-3.76.39-7.39.53-11.13,1.55-4,1.08-8.64,1.29-12.22-.91-4.35-2.68-9.26-3.09-14-4-3.61-.72-15.54-4.57-17.91-4.42-7.18.48-14.25-4-21.49-.38-.22.11-.67-.24-1-.23-5.33.13-10.79-.31-16,.61-4.56.83-9,1.78-13.65,1.41-1-.08-16.62-.71-20.58-.07-1.81.29-16.13-2.95-18.62-4.77a25.6,25.6,0,0,0-14.83-4.52c-3.72,0-7.83-.33-11.34.41-3.92.82-8.9-1.67-12,2.63-.35.5-2,.45-3,.31-2.63-.36-5-1-6.92-3.1a5.76,5.76,0,0,0-5.95-1.94c-3.6.68-7.53.17-11.33.25-4.22.09-8.53-.19-12.23,1.9a15,15,0,0,1-9.25,1.48c-11.85-1.23-23.71-2.4-35.44-4.42-.7-.12-1.39-.43-2-.12-4.38,2.08-9.25,1.52-13.87,2.28a9.12,9.12,0,0,1-5.94-.64,19.78,19.78,0,0,0-6.52-1.49c-3.58-.44-11.83-3.47-12.51-3.61-2.06-.43-10.85-1.16-12.78.47-1.61,1.35-12.22,2.81-14.94,2.14-3.25-.81-6.54.77-9.73,0-3.73-.9-19.12.66-22,.33-3.48-.4-6.81-2.21-10.22-1.62-3.24.56-6.39-.25-9.71.43L0,408.79V765Z"/></g></svg>