<?xml version="1.0" encoding="utf-8"?>
<!-- Generator: Adobe Illustrator 23.0.1, SVG Export Plug-In . SVG Version: 6.00 Build 0)  -->
<svg version="1.1" id="Layer_1" xmlns="http://www.w3.org/2000/svg" xmlns:xlink="http://www.w3.org/1999/xlink" x="0px" y="0px"
	 viewBox="0 0 1024 765" style="enable-background:new 0 0 1024 765;" xml:space="preserve">
<style type="text/css">
	.st0{clip-path:url(#SVGID_2_);fill:#006A31;}
</style>
<title>SFF1693_Foodservice Trade Presenter_Texture_BG</title>
<g>
	<defs>
		<rect id="SVGID_1_" y="410.8" width="1024" height="354.8"/>
	</defs>
	<clipPath id="SVGID_2_">
		<use xlink:href="#SVGID_1_"  style="overflow:visible;"/>
	</clipPath>
	<path class="st0" d="M0,765.6h1024l0-326.1c-4.2-2.6-8.9-3.1-13.5-4c-3.5-0.7-15-4.6-17.3-4.5c-7,0.4-13.8-4.1-20.8-0.6
		c-0.2,0.1-0.6-0.2-1-0.2c-5.2,0.1-10.5-0.4-15.5,0.4c-4.4,0.7-8.7,1.6-13.3,1.2c-1-0.1-16.1-0.9-20-0.3c-1.8,0.3-15.6-3-18-4.8
		c-4.1-3.1-9.4-4.5-14.3-4.5c-3.6-0.1-7.6-0.4-11,0.3c-3.8,0.8-8.6-1.7-11.6,2.4c-0.3,0.5-2,0.4-2.9,0.3c-2.5-0.4-4.9-1.1-6.7-3.1
		c-1.3-1.5-2.9-2.5-5.7-2c-3.5,0.6-7.3,0.1-11,0.1c-4.1,0-8.3-0.3-11.9,1.7c-2.9,1.6-6,1.7-9,1.3c-11.5-1.3-23-2.6-34.3-4.7
		c-0.7-0.1-1.3-0.4-2-0.1c-4.3,2-9,1.4-13.5,2.1c-2.2,0.3-3.9,0.3-5.7-0.7c-1.9-1-4.1-1.2-6.3-1.5c-3.5-0.5-11.4-3.5-12.1-3.6
		c-2-0.4-10.5-1.2-12.4,0.3c-1.6,1.3-11.9,2.6-14.5,1.9c-3.1-0.8-6.4,0.7-9.4-0.1c-3.6-0.9-18.5,0.4-21.3,0.1
		c-3.4-0.4-6.6-2.2-9.9-1.7c-3.2,0.5-6.2-0.3-9.4,0.3c-3,0.6-6.4,0.2-9.6,0.3c-2.8,0.1-4.9-0.2-7-1.7c-2.3-1.7-16.7-2.6-19.1-2
		c-1.4,0.3-8.8-1.7-10.8-1.1c-3.1,1-19.7,1.9-21.7,1.7c-4.4-0.5-8.5,0.4-12.7,0.7c-5.1,0.4-10.4,0.7-15.2,2.7
		c-3.3,1.3-6.5,1.6-9.8-0.2c-2.1-1.2-4.9-1.6-6.7-0.7c-2.3,1.1-4.4,1-6.3,0.5c-5.3-1.5-10.4,0-15.4,0.9c-5.5,1.1-26.3-0.1-33.4,1
		c-8.3,1.2-41-1.7-42.6,2.6c-1.1,2.2-2.8,3.6-5.5,3.4c-5-0.3-9.9,1.1-14.9,0.5c-4-0.5-20.1,3.2-24.3,3.3l-5.5,0.5
		c-6.9-0.7-13.7-1.1-19.8-4.3c-1.8-1-3.2-0.3-4.9-0.2c-3.2,0.3-6.4,1.7-9.6,0.5c-2.9-1.1-5.6-2.9-7.1,1.7c-0.3,1.1-1.8,0.2-2.9,0.1
		c-8.1-0.7-15.8-0.5-22.7,5c-2.4,2-6.6,3.9-10.3,2.6c-3-1.1-5.5-0.2-8.3,0c-8.4,0.8-16.8,4.1-25.3,0.5c-1-0.4-2.1-0.3-3,0.5
		c-1.3,1.2-2.9,0.8-4.3,0.3c-3.3-1-6.1,0.3-9.2,1.1c-5.1,1.3-10.2,3-15.9,1.8c-6.2-1.4-12.5-2.6-19.2-0.6c-2.9,0.9-6.5,1.4-9.7,0
		c-4-1.7-7.5-0.9-11,1.5c0,0-4.1,1.9-7.1,3.2c-4.7,0.4-9.2,0.5-13.8,1.8c-5,1.3-10.7,1.5-15.2-1.3c-5.4-3.4-11.4-4-17.3-5.2
		c-4.5-0.9-19.2-5.9-22.2-5.7c-8.9,0.5-17.6-5.2-26.7-0.8c-0.3,0.1-0.8-0.3-1.2-0.3c-6.6,0.1-13.4-0.5-19.8,0.5
		c-5.7,1-11.2,2.1-17,1.6c-1.3-0.1-20.6-1.1-25.6-0.4c-2.2,0.3-20-3.9-23.1-6.2c-5.3-3.9-12-5.7-18.3-5.8c-4.6-0.1-9.7-0.5-14.1,0.4
		C3,420.1,1.5,420,0,419.9V765.6z"/>
</g>
</svg>
