<svg id="Layer_1" data-name="Layer 1" xmlns="http://www.w3.org/2000/svg" xmlns:xlink="http://www.w3.org/1999/xlink" viewBox="0 0 1024 765"><defs><style>.cls-1{fill:none;}.cls-2{clip-path:url(#clip-path);}.cls-3{fill:#7d7879;}</style><clipPath id="clip-path"><rect class="cls-1" y="256.72" width="1024" height="508.28"/></clipPath></defs><title>SFF1693_Foodservice Trade Presenter_Texture_BG</title><g class="cls-2"><path class="cls-3" d="M1024,256.72a93.6,93.6,0,0,0-11.6.63c-2.55.56-5.1,1.29-6.7,2.82-3.43,3.29-7.61,3.85-11.86,4a9,9,0,0,0-5.19,1.82c-4.23,3.1-23.37,4-28,3.12-5.34-1.05-11-2.22-16.5,1.19-3,1.89-6.59,2.82-9.72,5-2.5,1.75-6.7,1.7-10.14,2.57-3.9,1-58.36,24.07-61.4,23.76-1.45-.15-2.82.68-4.23,1.18-6.29,2.23-12.89,2.67-19.5,2.87-2.08.07-15.25,1-18.51,2.28s-7.31,1.08-11,1.82c-2.24.45-4.42,1-6.07,2.37a15,15,0,0,1-12.22,3.25c-3.3-.43-29.36,3.06-30.95,3.89-6.3,3.25-40.7,30.66-44.09,30.68-4.28,0-25.41,4.19-25.81,4-3.07-1.27-12.74,2.17-14.57,2.31-2.7.22-24.27,2.42-29.83,4.13-3.82,1.18-7.77,2.51-12,1.95a9.61,9.61,0,0,0-4.71.74c-5.31,2.6-11.36,2.68-16.76,4.9-2.74-1.59-13.62,1.65-15.17,4.65-1.1,2.12-21.79,5-26.87,8.18a18.69,18.69,0,0,1-3.21,1.72A92.46,92.46,0,0,1,557.28,386c-3.74.8-4.86,1.39-8.73,3.09-5.16,1.95-9.4,2.39-14,.41-2.2-.95-3.66-.87-4.79,1.05a2.87,2.87,0,0,1-1,1.09c-11.14-3.74-22.35-7.4-23.39-7.5s-2.49-.61-3.27-.17c-3,1.71-5.23.23-7.54-1.32-.44-.3-.81-.76-1.44-.63-3.41.71-5.59-1.94-8.38-2.89-.38-.13-.93-.31-1-.59-1.51-4.35-16.59-4.18-16.75-4.31s-7,.67-10.05-.31a19.6,19.6,0,0,0-7.16-.9,12.86,12.86,0,0,1-4.82-.52,19.66,19.66,0,0,0-8.5-.91,10.83,10.83,0,0,1-8-2.12c-2.55-1.8-5.75-2.76-8.72-4-1.78-.73-17.71-7.37-22-5.49-2.08.9-4.34.62-6.5,1-.73.13-19.09-2.92-21.84-3.6a24.71,24.71,0,0,0-12.2-.07,9.22,9.22,0,0,1-6.43-.26,7.41,7.41,0,0,0-3.2-.55c-3.18-.07-5.46-1.51-7.67-3.57-1.61-1.5-4-1.51-6.14-1.94-2.34-.49-16.21-4.57-17.53-6.52-.36-.55-1.39-.68-2.07-1.16-2.08-1.45-12.12-3.93-16.45-3.56a7.5,7.5,0,0,1-4.38-.54c-3.43-2-7.16-1.65-10.83-1.84-2.19-.11-14.45-3.4-17.84-3-5.85.63-17.44-3.28-20.23-3.63-1.9-.24-12.55.81-14.76-2.38-1.19-1.71-3.13-2.82-4.14-4.78-.69-1.35-29.57-7.26-32.44-9.69-1.7-1.43-10.08-2.17-12-2.77-3.28-1-6.76-1.36-9.87-2.95a3.26,3.26,0,0,0-2.38-.23c-3.23,1.37-6.59.15-9.87.55a6.26,6.26,0,0,1-3.14-.65c-1.42-.63-9.5-4.22-11.44-4.24-2.55,0-12.8-2.87-14.4-3.89-3-1.91-18.09-2.26-20.42-2.07-.81.07-14.22-2.22-17.32-3.85s-19.07-5.61-22.8-7.55a3.8,3.8,0,0,0-2.75-.59c-.69.16-18.68-1.36-23-3-1.69-.64-10.4-1.33-12.38-2.16l-1.16-.18a24.35,24.35,0,0,0-12,1.72,9.1,9.1,0,0,1-6.38.68,7.39,7.39,0,0,0-3.23-.08c-3.15.4-5.63-.7-8.14-2.41a2.91,2.91,0,0,0-.3-.17v267.6l.61,0V765H1023.39V473.84l.61-.14Z"/></g></svg>