<?xml version="1.0" encoding="utf-8"?>
<!-- Generator: Adobe Illustrator 23.0.4, SVG Export Plug-In . SVG Version: 6.00 Build 0)  -->
<svg version="1.1" xmlns="http://www.w3.org/2000/svg" xmlns:xlink="http://www.w3.org/1999/xlink" x="0px" y="0px"
	 viewBox="0 0 216.4 216.4" style="enable-background:new 0 0 216.4 216.4;" xml:space="preserve">
<style type="text/css">
	.st0{display:none;}
	.st1{display:inline;}
	.st2{clip-path:url(#SVGID_2_);fill:#373535;}
	.st3{clip-path:url(#SVGID_4_);fill:#373535;}
	.st4{clip-path:url(#SVGID_6_);fill:#373535;}
	.st5{clip-path:url(#SVGID_8_);fill:#373535;}
	.st6{clip-path:url(#SVGID_10_);fill:#373535;}
	.st7{clip-path:url(#SVGID_12_);fill:#373535;}
	.st8{clip-path:url(#SVGID_14_);fill:#373535;}
	.st9{clip-path:url(#SVGID_16_);fill:#373535;}
	.st10{clip-path:url(#SVGID_18_);fill:#373535;}
	.st11{clip-path:url(#SVGID_20_);fill:#373535;}
	.st12{clip-path:url(#SVGID_22_);fill:#373535;}
	.st13{clip-path:url(#SVGID_24_);fill:#373535;}
	.st14{clip-path:url(#SVGID_26_);fill:#373535;}
	.st15{clip-path:url(#SVGID_28_);fill:#373535;}
	.st16{clip-path:url(#SVGID_30_);fill:#373535;}
	.st17{clip-path:url(#SVGID_32_);fill:#373535;}
	.st18{clip-path:url(#SVGID_34_);fill:#373535;}
	.st19{clip-path:url(#SVGID_36_);fill:#373535;}
	.st20{clip-path:url(#SVGID_38_);fill:#373535;}
	.st21{clip-path:url(#SVGID_40_);fill:#373535;}
	.st22{clip-path:url(#SVGID_42_);fill:#373535;}
	.st23{clip-path:url(#SVGID_44_);fill:#373535;}
	.st24{clip-path:url(#SVGID_46_);fill:#373535;}
	.st25{clip-path:url(#SVGID_48_);fill:#373535;}
	.st26{clip-path:url(#SVGID_50_);fill:#373535;}
	.st27{clip-path:url(#SVGID_52_);fill:#373535;}
	.st28{fill:#373535;}
	.st29{font-family:'Arial-BoldMT';}
	.st30{font-size:27.6643px;}
	.st31{font-size:11.8561px;}
	.st32{fill:#231F20;}
	.st33{fill:#1D1D1B;}
</style>
<g id="Layer_1" class="st0">
	<g id="Aged_21_days">
		<g class="st1">
			<g>
				<path d="M55.2,81.6h1l2.9-8h-1.3v-1.8h6.5v1.8H63l2.9,8h1v1.8h-4.4v-1.7h1.3l-0.6-1.9h-4.3l-0.6,1.9h1.4v1.7h-4.4L55.2,81.6
					L55.2,81.6z M62.7,78.1L61,73.5L59.4,78L62.7,78.1L62.7,78.1z"/>
				<path d="M73.4,81.6h1.4v-8h-2.1v1.8h-1.9v-3.5h10v3.5H79v-1.8h-2.1v8h1.4v1.8h-4.8L73.4,81.6L73.4,81.6z"/>
				<path d="M94.1,81.6h1.3v-8h-1.3v-1.8h4.8v1.8h-1.5v8h3.2V80h1.9v3.4h-8.3L94.1,81.6L94.1,81.6z"/>
				<path d="M107.9,81.6h1.3v-8h-1.3v-1.8h8.6v3.3h-1.9v-1.5h-3.4v3.1h3.5v1.7h-3.5v3.2h3.4V80h1.9v3.3h-8.6V81.6z"/>
				<path d="M121.5,81.6h1l2.9-8h-1.3v-1.8h6.5v1.8h-1.3l2.9,8h1v1.8h-4.4v-1.7h1.3l-0.6-1.9h-4.3l-0.6,1.9h1.4v1.7h-4.4
					C121.5,83.3,121.5,81.6,121.5,81.6z M129,78.1l-1.6-4.5l-1.6,4.5H129z"/>
				<path d="M138,80.9c0-0.8,0.5-1.4,1.2-1.4c0.8,0,1.3,0.6,1.3,1.1c0,0.3-0.1,0.5-0.2,0.7c0.4,0.3,1.1,0.5,1.8,0.5
					c1.3,0,2.1-0.6,2.1-1.6c0-0.9-1-1.4-2.1-1.8c-2.1-0.8-3.6-1.4-3.6-3.6c0-1.8,1.5-3.3,3.8-3.3c2.1,0,3.8,1.1,3.8,2.5
					c0,0.8-0.5,1.3-1.2,1.3c-0.8,0-1.3-0.6-1.3-1.2c0-0.3,0.1-0.4,0.1-0.5c-0.3-0.2-0.8-0.3-1.5-0.3c-1.1,0-1.8,0.6-1.8,1.4
					c0,0.9,1,1.4,2.1,1.8c2.1,0.7,3.6,1.4,3.6,3.6s-1.7,3.4-4.1,3.4C139.8,83.5,138,82.2,138,80.9z"/>
				<path d="M153.9,81.6h1.4v-8h-2.1v1.8h-1.9v-3.5h10v3.5h-1.9v-1.8h-2.1v8h1.4v1.8h-4.8L153.9,81.6L153.9,81.6z"/>
			</g>
			<g>
				<circle cx="44" cy="108.1" r="3.9"/>
				<circle cx="172.5" cy="108.1" r="3.9"/>
			</g>
			<path d="M108.2,199.2c-50.3,0-91.1-40.9-91.1-91.2s41-91.2,91.2-91.2s91.2,40.9,91.1,91.2C199.4,158.4,158.5,199.2,108.2,199.2z
				 M108.3,20.7c-48.2,0-87.4,39.2-87.5,87.4c0,48.2,39.2,87.4,87.3,87.4s87.4-39.2,87.5-87.4C195.7,59.9,156.5,20.7,108.3,20.7z"/>
			<g>
				<path d="M105.5,139.8v7.3H67.8v-2.9l21.4-22.6c5.1-5.4,7.4-10,7.4-14.7c0-5.4-3.1-8.5-8.5-8.5c-5.9,0-9.3,3.6-10.2,10.9
					l-0.1,0.9h-8l0.1-1.1c0.8-11.1,7.9-18,18.3-18s17.1,6.3,17.1,16c0,6.3-3.6,12.8-11.1,20.1l-12.9,12.5L105.5,139.8L105.5,139.8z"
					/>
				<polygon points="141.1,91.8 141,147.1 132.5,147.1 132.5,101.2 120.6,109.8 120.6,101.2 133.6,91.8 				"/>
			</g>
			<g>
				<path d="M68.2,44.7l5.5-3.2L87,53.7l-4.5,2.6L80.2,54l-4.9,2.8L76,60l-4,2.3L68.2,44.7z M74.4,53.4l3.3-1.9l-4.9-4.8L74.4,53.4z
					"/>
				<path d="M89.3,44.1v-0.2c-0.8-5.2,2.4-9.2,7.5-10c4-0.6,7.8,0.6,8.9,5l-4.8,0.8c-0.5-1.5-1.6-2.2-3.4-1.9
					c-2.4,0.4-3.6,2.5-3.1,5.5v0.2c0.4,2.8,1.8,4.7,4.7,4.3c2.4-0.4,3.1-1.7,3-3.1L98.9,45l-0.5-3.4l8-1.2l0.3,2.1
					c0.7,4.3-1.6,8-7.1,8.9C93.8,52.3,90.1,49.2,89.3,44.1z"/>
				<path d="M116.1,33.4l11.7,2.1l-0.7,3.7l-6.8-1.2l-0.5,2.9l5.5,1l-0.6,3.5l-5.5-1l-0.6,3.1l7.2,1.3l-0.7,3.7l-12-2.2L116.1,33.4z
					"/>
				<path d="M139.4,39.6l5.4,3.1c5.3,3,6.4,7.2,3.8,11.9l-0.1,0.2c-2.7,4.6-7.1,5.8-12.3,2.8l-5.4-3.1L139.4,39.6z M138,54.2
					c2.5,1.5,4.4,0.8,6-2l0.1-0.2c1.6-2.8,1.2-4.7-1.4-6.2l-0.9-0.5l-4.8,8.3L138,54.2z"/>
			</g>
			<g>
				<path d="M77.3,162.2l4.8,2.2c4.7,2.1,6.1,5.6,4.2,9.7l-0.1,0.1c-1.9,4.1-5.4,5.6-10.1,3.4l-4.8-2.2L77.3,162.2z M77.3,174.7
					c2.3,1,3.8,0.3,4.9-2.2l0.1-0.1c1.1-2.5,0.6-4.1-1.7-5.1l-0.8-0.4l-3.3,7.4L77.3,174.7z"/>
				<path d="M98.8,169.5l5.4,0.6l3,15l-4.4-0.5l-0.5-2.8l-4.8-0.5l-1.1,2.6l-3.9-0.4L98.8,169.5z M98.6,178.5l3.2,0.4l-1-5.7
					L98.6,178.5z"/>
				<path d="M118.4,177.8l-6.1-7.4l4.5-0.8l3.3,4.4l1.6-5.3l3.9-0.7l-3,9l1.1,6.1l-4.1,0.7L118.4,177.8z"/>
				<path d="M134.7,175.4l3.6-1.8c0.6,0.9,1.4,1.4,2.9,0.7c1.1-0.5,1.4-1.4,1-2.1c-0.4-0.8-1-0.8-2.7-0.2c-3.9,1.4-5.7,0.9-7-1.7
					c-1.2-2.4-0.1-5,3-6.6s5.6-1.1,7.2,1.5l-3.5,1.7c-0.6-0.9-1.4-1.1-2.4-0.6s-1.3,1.2-1,1.9c0.4,0.7,0.9,0.9,2.7,0.3
					c3.5-1.3,5.6-1.3,7,1.6c1.2,2.4,0.3,5.3-3.1,6.9C138.8,178.7,136.2,178.1,134.7,175.4z"/>
			</g>
		</g>
	</g>
	<g id="ara" class="st1">
		<g>
			<g>
				<defs>
					<rect id="SVGID_1_" x="0.4" y="3" width="215.6" height="211.9"/>
				</defs>
				<clipPath id="SVGID_2_">
					<use xlink:href="#SVGID_1_"  style="overflow:visible;"/>
				</clipPath>
				<path class="st2" d="M48.6,108.1c0,2.1-1.7,3.8-3.8,3.8s-3.8-1.7-3.8-3.8c0-2.1,1.7-3.8,3.8-3.8C46.9,104.3,48.6,106,48.6,108.1
					"/>
			</g>
			<g>
				<defs>
					<rect id="SVGID_3_" x="0.4" y="3" width="215.6" height="211.9"/>
				</defs>
				<clipPath id="SVGID_4_">
					<use xlink:href="#SVGID_3_"  style="overflow:visible;"/>
				</clipPath>
				<path class="st3" d="M175.6,108.1c0,2.1-1.7,3.8-3.8,3.8s-3.8-1.7-3.8-3.8c0-2.1,1.7-3.8,3.8-3.8
					C173.9,104.3,175.6,106,175.6,108.1"/>
			</g>
			<g>
				<defs>
					<rect id="SVGID_5_" x="0.4" y="3" width="215.6" height="211.9"/>
				</defs>
				<clipPath id="SVGID_6_">
					<use xlink:href="#SVGID_5_"  style="overflow:visible;"/>
				</clipPath>
				<path class="st4" d="M108.2,198.2c-49.7,0-90-40.4-90-90.1S58.7,18,108.3,18c49.7,0,90.1,40.4,90,90.1
					C198.3,157.8,157.9,198.2,108.2,198.2 M108.3,21.8c-47.6,0-86.4,38.8-86.4,86.4s38.7,86.3,86.3,86.3s86.4-38.7,86.4-86.3
					C194.7,60.5,156,21.8,108.3,21.8"/>
			</g>
			<g>
				<defs>
					<rect id="SVGID_7_" x="0.4" y="3" width="215.6" height="211.9"/>
				</defs>
				<clipPath id="SVGID_8_">
					<use xlink:href="#SVGID_7_"  style="overflow:visible;"/>
				</clipPath>
				<path class="st5" d="M105.6,139.4v7.2H68.3v-2.9l21.2-22.3c5-5.4,7.3-9.8,7.3-14.5c0-5.4-3.1-8.4-8.4-8.4
					c-5.9,0-9.2,3.5-10.1,10.8l-0.1,0.9h-7.9l0.1-1.1c0.8-11,7.8-17.8,18.1-17.8s16.9,6.2,16.9,15.8c0,6.2-3.6,12.7-10.9,19.9
					l-12.8,12.4L105.6,139.4L105.6,139.4z"/>
			</g>
			<g>
				<defs>
					<rect id="SVGID_9_" x="0.4" y="3" width="215.6" height="211.9"/>
				</defs>
				<clipPath id="SVGID_10_">
					<use xlink:href="#SVGID_9_"  style="overflow:visible;"/>
				</clipPath>
				<polygon class="st6" points="140.7,92 140.6,146.7 132.2,146.7 132.2,101.4 120.5,109.8 120.5,101.4 133.4,92 				"/>
			</g>
			<g>
				<defs>
					<rect id="SVGID_11_" x="0.4" y="3" width="215.6" height="211.9"/>
				</defs>
				<clipPath id="SVGID_12_">
					<use xlink:href="#SVGID_11_"  style="overflow:visible;"/>
				</clipPath>
				<path class="st7" d="M71.4,173c-0.2,0.8-0.9,1.4-2.1,1.8c-1.2,0.3-2.4,0.3-3.6-0.1c-1-0.3-1.8-0.8-2.2-1.5
					c-0.4-0.6-0.5-1.4-0.2-2.2s0.6-1.4,1-1.9c0.5-0.6,1.2-1.2,2.2-1.9c0.2,0.2,0.3,0.3,0.4,0.5c-0.6,0.5-1.1,0.9-1.5,1.3
					c-0.3,0.4-0.6,0.8-0.7,1.2c-0.2,0.5-0.1,0.9,0.2,1.3c0.3,0.4,0.8,0.7,1.6,0.9c1.1,0.3,2,0.4,2.7,0.2c0.8-0.2,1.2-0.5,1.4-1.1
					c0-0.1,0.1-0.2,0.1-0.2c0-0.1,0-0.1,0-0.1c0.1-0.2,0.1-0.4,0.1-0.7s0.1-0.8,0.1-1.6c0.1-1.3,0.2-2.6,0.4-4
					c-0.1-0.2-0.2-0.2-0.3-0.4c0.2-0.5,0.7-1.2,1.5-2.1c0.1,0.1,0.2,0.2,0.3,0.3c0,0.1-0.1,0.1-0.1,0.2c-0.1,0.2,0,0.4,0.2,0.6
					c0.3,0.3,0.6,0.5,0.8,0.8c-0.2,0.4-0.3,0.7-0.5,0.9c-0.1,0.2-0.3,0.4-0.6,0.8c-0.1-0.1-0.1-0.1-0.2-0.2c0,0.1-0.1,0.6-0.1,1.4
					c-0.1,0.9-0.1,1.6-0.2,2.2c-0.1,0.9-0.1,1.4-0.2,1.6C71.7,171.9,71.6,172.3,71.4,173"/>
			</g>
			<g>
				<defs>
					<rect id="SVGID_13_" x="0.4" y="3" width="215.6" height="211.9"/>
				</defs>
				<clipPath id="SVGID_14_">
					<use xlink:href="#SVGID_13_"  style="overflow:visible;"/>
				</clipPath>
				<path class="st8" d="M77,174.6c-2.5-0.6-3.8-0.9-6.3-1.6c0.2-0.9,0.4-1.3,0.6-2.2c2.1,0.6,3.2,0.9,5.3,1.4
					c0.1-0.5,0.2-0.8,0.2-1c0-0.3,0-0.6-0.1-0.9c-0.3,0.3-0.6,0.5-0.9,0.6c-0.4,0.1-0.7,0.1-1.1,0c-0.5-0.1-0.8-0.4-1.1-0.7
					c-0.2-0.4-0.3-0.8-0.2-1.2c0.2-0.6,0.6-1.3,1.2-2.1c0.7-0.8,1.3-1.2,1.7-1.1c0.6,0.1,1,0.8,1.3,1.9c0.3,1.1,0.3,2.2,0.1,3.3
					C77.5,172.5,77.4,173.2,77,174.6 M78.7,163.7c-0.5,0.6-0.8,0.8-1.3,1.4c-0.4-0.4-0.6-0.6-1-0.9c-0.4,0.4-0.6,0.7-1,1.1
					c-0.5-0.5-0.8-0.7-1.3-1.2c0.5-0.5,0.8-0.8,1.3-1.3c0.4,0.4,0.6,0.6,1.1,0.9c0.4-0.4,0.6-0.7,1-1.1
					C77.9,163,78.2,163.2,78.7,163.7 M76.4,168.7c-0.1-0.3-0.2-0.5-0.3-0.6c-0.1-0.1-0.2-0.2-0.3-0.2c-0.2,0-0.3,0-0.5,0.1
					s-0.3,0.3-0.3,0.5c0,0.1,0,0.2,0.1,0.3s0.2,0.2,0.4,0.2c0.1,0,0.3,0,0.4,0C75.9,168.9,76.1,168.9,76.4,168.7"/>
			</g>
			<g>
				<defs>
					<rect id="SVGID_15_" x="0.4" y="3" width="215.6" height="211.9"/>
				</defs>
				<clipPath id="SVGID_16_">
					<use xlink:href="#SVGID_15_"  style="overflow:visible;"/>
				</clipPath>
				<path class="st9" d="M87.2,167.7c-0.1,0.4-0.2,0.8-0.3,1.1c-0.1,0.2-0.2,0.4-0.4,0.8c-0.2-0.1-0.4-0.2-0.6-0.3
					c-0.1,0.6-0.3,1.3-0.6,1.9c-0.3,0.6-0.6,1.2-1.1,1.7c0.2,0.6,0.4,0.9,0.4,1c0.1,0.3,0.1,0.5,0.1,0.7c0,0.1,0,0.2,0,0.3
					s-0.1,1.3-0.4,1.6s-1.4,0.2-2,0.2s-1.4-0.1-2.5-0.4c0.2-1,0.3-1.4,0.5-2.4c0.7-0.2,1.1-0.3,1.4-0.4c0.3-0.1,0.7-0.4,1.2-0.8
					c-0.5-0.9-0.9-1.5-1.2-1.9c-0.2-0.3-0.5-0.7-0.8-1.1c-0.1,0.2-0.2,0.3-0.3,0.3c-0.1,0-0.1,0.1-0.1,0.1c-0.1,0-0.4-0.2-0.7-0.5
					c-0.3-0.3-0.5-0.5-0.7-0.7c-0.1-0.2-0.2-0.5-0.2-1c0-0.4,0.1-1,0.2-1.7c0.1-0.3,0.1-0.5,0.2-0.6s0.2-0.1,0.3-0.1
					c0.2,0,0.6,0.5,1.1,1.2c0.5,0.6,0.9,1.3,1.2,1.9c0.3,0.4,0.5,0.9,0.8,1.3c0.2,0.4,0.5,1,1,1.9c0.3-0.4,0.6-1,0.9-1.7
					c0.1-0.4,0.5-1.3,0.4-1.5c0-0.1-0.3-0.2-0.4-0.3s-0.1-0.2,0-0.4c0.1-0.3,0.2-0.6,0.3-1c0.1-0.3,0.3-0.7,0.6-1
					c0.1,0.1,0.2,0.1,0.3,0.2c-0.1,0.3,0,0.6,0.1,0.7C86.1,167.1,86.5,167.3,87.2,167.7 M82.3,164.4c-0.1,0.2-0.2,0.3-0.3,0.3
					c-0.1,0-0.2,0.1-0.3,0.1c-0.8,0.1-1.2,0.1-1.9,0.1c0.2-0.2,0.3-0.3,0.4-0.3c0.1-0.1,0.3-0.1,0.5-0.1c-0.1-0.1-0.2-0.2-0.3-0.3
					c0-0.1-0.1-0.2,0-0.3c0-0.1,0.1-0.1,0.1-0.2c0.1-0.1,0.1-0.2,0.2-0.2c0.5-0.4,0.9-0.5,1.2-0.5c0.1,0,0.2,0.1,0.2,0.2
					c0.1,0.1,0.1,0.2,0,0.3c0,0.1,0,0.2-0.1,0.2c0,0.1-0.1,0.1-0.2,0.2c-0.2-0.2-0.4-0.3-0.5-0.3s-0.2,0-0.3,0c-0.1,0-0.1,0-0.2,0.1
					c0,0.1,0.1,0.2,0.3,0.4c0.2,0.2,0.4,0.3,0.5,0.3C81.7,164.4,82,164.4,82.3,164.4 M83.7,174.3c-0.1-0.3-0.2-0.4-0.3-0.7
					c-0.3,0.2-0.6,0.4-0.7,0.5c-0.2,0.1-0.4,0.2-0.8,0.4c0.5,0,0.8,0.1,1,0C83,174.5,83.3,174.4,83.7,174.3"/>
			</g>
			<g>
				<defs>
					<rect id="SVGID_17_" x="0.4" y="3" width="215.6" height="211.9"/>
				</defs>
				<clipPath id="SVGID_18_">
					<use xlink:href="#SVGID_17_"  style="overflow:visible;"/>
				</clipPath>
				<path class="st10" d="M89.8,174.5c-0.1,0.5-0.2,0.9-0.4,1.3c-0.2,0.4-0.5,0.9-1,1.5c-0.2-0.1-0.3-0.2-0.5-0.3
					c0.2-0.7,0.4-1.2,0.5-1.7c0-0.3,0.1-0.8,0.1-1.5s0-1.3,0-1.9c0-0.6,0-1.4-0.1-2.3c0-0.3,0-0.5,0-0.6c0-0.2,0.2-0.4,0.4-0.8
					c0.2-0.4,0.6-0.8,1-1.4c0,1.2,0.1,1.8,0.1,3c0,1.1,0,2.1,0,2.9C90,173.3,89.9,173.9,89.8,174.5"/>
			</g>
			<g>
				<defs>
					<rect id="SVGID_19_" x="0.4" y="3" width="215.6" height="211.9"/>
				</defs>
				<clipPath id="SVGID_20_">
					<use xlink:href="#SVGID_19_"  style="overflow:visible;"/>
				</clipPath>
				<path class="st11" d="M106,178c-0.3,0-0.5,0-0.8,0c-0.2,0-0.4,0-0.6,0s-0.2,0.1-0.2,0.1s0.1,0.1,0.5,0.2
					c0.3,0.1,0.5,0.3,0.4,0.5c0,0.3-0.1,0.7-0.2,1.1c-0.1,0.4-0.3,0.8-0.5,1.1c-0.1,0.3-0.5,0.6-1.2,0.9c-0.7,0.3-1.5,0.6-2.4,0.8
					c-1,0.2-2,0.3-2.9,0.3c-1-0.1-1.8-0.3-2.3-0.8s-0.7-1.1-0.6-1.9c0.1-0.9,0.3-1.6,0.5-2.2c0.3-0.7,1-1.7,2-2.9
					c0.2,0.2,0.3,0.2,0.5,0.4c-0.6,0.8-1.1,1.5-1.3,2c-0.3,0.5-0.4,1-0.4,1.5s0.1,0.9,0.5,1.2c0.3,0.3,0.9,0.5,1.5,0.5
					c0.8,0.1,1.7,0,2.6-0.2c0.8-0.2,1.6-0.4,2.2-0.6c0.6-0.3,0.9-0.5,0.9-0.6s-0.2-0.1-0.5-0.1s-0.7,0-0.9,0c-0.7,0-1.1-0.1-1.3-0.1
					c-0.2-0.1-0.3-0.2-0.3-0.3c0-0.3,0.1-0.6,0.2-0.9s0.3-0.6,0.5-0.7c0.4-0.4,0.9-0.8,1.5-1.1s1.2-0.5,1.7-0.5c0.4,0,0.6,0,1,0
					C106,176.7,106,177.1,106,178"/>
			</g>
			<g>
				<defs>
					<rect id="SVGID_21_" x="0.4" y="3" width="215.6" height="211.9"/>
				</defs>
				<clipPath id="SVGID_22_">
					<use xlink:href="#SVGID_21_"  style="overflow:visible;"/>
				</clipPath>
				<path class="st12" d="M110.4,178c-2,0-3.1,0-5.1,0c0-0.9,0-1.3,0-2.2c1.6,0,2.4,0,3.9,0c-0.5-2.2-0.7-3.3-1.1-5.6
					c-0.2-0.1-0.3-0.2-0.6-0.3c0-0.3,0.1-0.7,0.2-1c0.1-0.4,0.4-0.9,0.7-1.5c0.2,0.1,0.2,0.1,0.4,0.2c0,0,0,0.1,0,0.3
					s0.1,0.4,0.4,0.5c0.2,0.1,0.6,0.3,1,0.5c0,0.4-0.1,0.7-0.2,1s-0.2,0.6-0.3,0.9c-0.1,0-0.2-0.1-0.3-0.1c0.4,2,0.6,3,1.1,5.1
					C110.4,176.7,110.4,177.1,110.4,178"/>
			</g>
			<g>
				<defs>
					<rect id="SVGID_23_" x="0.4" y="3" width="215.6" height="211.9"/>
				</defs>
				<clipPath id="SVGID_24_">
					<use xlink:href="#SVGID_23_"  style="overflow:visible;"/>
				</clipPath>
				<path class="st13" d="M119.2,173.6c-0.3,1-0.5,1.5-0.8,2.4c-1.6,0.6-2.9,1-4,1.3c-0.9,0.3-1.7,0.4-2.4,0.5
					c-0.5,0.1-1,0.1-1.4,0.1c-0.3,0-0.5,0-0.8,0c0-0.9,0-1.3,0-2.2c0.4,0,0.6,0,1,0c0.2,0,0.3,0,0.4,0c0.2,0,0.4,0,0.5-0.1
					c-0.3-0.4-0.5-0.7-0.6-1s-0.2-0.5-0.2-0.9c0-0.8,0.3-1.5,1-2.2c0.7-0.6,1.5-1,2.5-1c0.6,0,1.3,0.1,1.9,0.5
					c0.6,0.3,1,0.8,1.3,1.3c-0.1,0.1-0.2,0.2-0.3,0.3c-0.5-0.1-0.9-0.2-1.1-0.2c-0.3,0-0.6,0-1,0c-0.7,0-1.4,0.1-1.9,0.3
					c-0.7,0.2-1,0.4-1,0.6c0,0.4,0.9,1,2.6,1.8C116.5,174.5,117.4,174.2,119.2,173.6"/>
			</g>
			<g>
				<defs>
					<rect id="SVGID_25_" x="0.4" y="3" width="215.6" height="211.9"/>
				</defs>
				<clipPath id="SVGID_26_">
					<use xlink:href="#SVGID_25_"  style="overflow:visible;"/>
				</clipPath>
				<path class="st14" d="M126.7,163.1c0,0.2-0.1,0.6-0.3,0.8c-0.4,0.3-1.2,0.7-2.3,1.3c0-0.2,0.1-0.6,0.3-0.7
					C124.7,164.2,125.6,163.7,126.7,163.1 M126.9,164.3c0,0.3-0.1,0.6-0.3,0.8c-0.4,0.3-1.3,0.7-2.3,1.3c0-0.2,0.1-0.6,0.3-0.7
					C124.9,165.4,125.8,165,126.9,164.3"/>
			</g>
			<g>
				<defs>
					<rect id="SVGID_27_" x="0.4" y="3" width="215.6" height="211.9"/>
				</defs>
				<clipPath id="SVGID_28_">
					<use xlink:href="#SVGID_27_"  style="overflow:visible;"/>
				</clipPath>
				<path class="st15" d="M130.3,176.1c-0.5,0.1-0.8,0.1-1.3,0.2c-0.7,0.1-1.3-0.1-1.7-0.5c-0.4-0.5-0.8-1.5-1-2.8l-0.3-2.3
					c-0.1-0.5-0.2-0.9-0.4-1.2c-0.1-0.1-0.3-0.3-0.6-0.5c0.3-0.9,0.4-1.3,0.6-2.2c0.4,0.4,0.7,0.8,0.9,1.2c0.2,0.5,0.4,1.1,0.5,1.9
					c0.1,0.6,0.1,1,0.2,1.6c0.2,1.1,0.4,1.9,0.6,2.3c0.2,0.3,0.4,0.5,0.7,0.4c0.5-0.1,0.8-0.1,1.3-0.2
					C130.1,174.8,130.2,175.2,130.3,176.1"/>
			</g>
			<g>
				<defs>
					<rect id="SVGID_29_" x="0.4" y="3" width="215.6" height="211.9"/>
				</defs>
				<clipPath id="SVGID_30_">
					<use xlink:href="#SVGID_29_"  style="overflow:visible;"/>
				</clipPath>
				<path class="st16" d="M138.1,174.5c-0.6,0.1-1.4,0.2-2.3,0.2c-0.8,0-1.5-0.1-2.1-0.3c-0.3,0.5-0.6,0.9-1.1,1.2
					c-0.2,0.1-0.6,0.2-1,0.3c-0.7,0.1-1.1,0.2-1.8,0.3c-0.1-0.9-0.2-1.3-0.4-2.2c0.7-0.1,1.1-0.2,1.8-0.3c0.5-0.1,1-0.2,1.3-0.4
					c0.4-0.2,0.6-0.5,0.7-0.9c0.2-0.8,0.5-1.4,1-2c0.4-0.5,0.7-0.8,1-0.8c0.3-0.1,0.8,0.3,1.4,1c0.7,0.8,1.1,1.5,1.3,2.2
					C137.8,173.5,137.9,173.8,138.1,174.5 M135.8,172.5c0-0.1-0.2-0.3-0.5-0.5c-0.4-0.3-0.6-0.4-0.8-0.3c-0.2,0-0.4,0.3-0.4,0.8
					c0.3,0,0.6,0.1,0.8,0.1c0.5,0.1,0.8,0.1,0.9,0.1C135.8,172.6,135.9,172.5,135.8,172.5"/>
			</g>
			<g>
				<defs>
					<rect id="SVGID_31_" x="0.4" y="3" width="215.6" height="211.9"/>
				</defs>
				<clipPath id="SVGID_32_">
					<use xlink:href="#SVGID_31_"  style="overflow:visible;"/>
				</clipPath>
				<path class="st17" d="M146.2,171.8c0.3,0.9,0.1,1.9-0.5,3.1c-0.6,1.1-1.4,1.8-2.3,2.1c-0.5,0.1-1.1,0.1-1.8,0s-1.8-0.5-3.2-1
					c0.1-0.2,0.2-0.3,0.3-0.6c0.7,0.2,1.4,0.4,1.8,0.4c0.4,0,0.8,0,1.2-0.1c0.6-0.2,1.1-0.5,1.6-0.9c0.6-0.5,1.1-1.3,1.6-2.2
					c-0.2,0.1-0.4,0.2-0.6,0.2c-0.6,0.2-1.1,0.1-1.6-0.1c-0.4-0.2-0.7-0.7-0.9-1.3c-0.2-0.8-0.2-1.6,0-2.5s0.6-1.5,1.1-1.6
					s0.9,0,1.4,0.5s0.9,1.1,1.1,1.9C145.9,170.5,146,170.9,146.2,171.8 M144.7,170.5c-0.4-0.8-0.9-1.1-1.4-1
					c-0.2,0.1-0.3,0.2-0.4,0.3c-0.1,0.2-0.1,0.3,0,0.5s0.2,0.3,0.5,0.4c0.3,0.1,0.6,0,1-0.1C144.5,170.5,144.6,170.5,144.7,170.5"/>
			</g>
			<g>
				<defs>
					<rect id="SVGID_33_" x="0.4" y="3" width="215.6" height="211.9"/>
				</defs>
				<clipPath id="SVGID_34_">
					<use xlink:href="#SVGID_33_"  style="overflow:visible;"/>
				</clipPath>
				<path class="st18" d="M151.4,170.7c-2.2,0.8-3.3,1.1-5.6,1.8c-0.3-0.9-0.4-1.3-0.6-2.1c1.9-0.5,2.8-0.8,4.6-1.5
					c-0.2-0.3-0.4-0.6-0.6-0.8c-0.1-0.1-0.4-0.3-0.8-0.5c0-0.8,0-1.3,0.1-2.1c0.6,0.3,1,0.7,1.3,1.1c0.3,0.4,0.6,1.1,1,2.1
					C151,169.5,151.1,169.9,151.4,170.7 M151.7,172.1c-0.2,0.8-0.3,1.2-0.5,1.9c-0.6-0.1-0.9-0.1-1.5-0.2c-0.1,0.6-0.2,0.9-0.3,1.5
					c-0.8-0.1-1.2-0.2-2-0.3c0.2-0.7,0.3-1.1,0.5-1.8c0.6,0.1,0.9,0.1,1.5,0.2c0.1-0.6,0.2-0.9,0.3-1.5
					C150.6,172,150.9,172,151.7,172.1"/>
			</g>
			<g>
				<defs>
					<rect id="SVGID_35_" x="0.4" y="3" width="215.6" height="211.9"/>
				</defs>
				<clipPath id="SVGID_36_">
					<use xlink:href="#SVGID_35_"  style="overflow:visible;"/>
				</clipPath>
				<path class="st19" d="M68.4,55.8c-0.7,0.2-1,0.3-1.7,0.5c-0.9,0.3-1.7,0.1-2.3-0.4c-0.7-0.6-1.4-1.9-2-3.7
					c-0.4-1.3-0.6-1.9-1-3.1c-0.2-0.7-0.5-1.2-0.9-1.5c-0.2-0.2-0.5-0.3-1-0.6c0.2-1.3,0.3-1.9,0.5-3.2c0.7,0.4,1.2,0.9,1.6,1.4
					c0.4,0.6,0.8,1.4,1.2,2.5c0.3,0.9,0.4,1.3,0.7,2.2c0.5,1.5,1,2.6,1.4,3.1c0.3,0.4,0.7,0.6,1.1,0.5c0.7-0.2,1-0.3,1.7-0.5
					C67.8,54,68,54.6,68.4,55.8"/>
			</g>
			<g>
				<defs>
					<rect id="SVGID_37_" x="0.4" y="3" width="215.6" height="211.9"/>
				</defs>
				<clipPath id="SVGID_38_">
					<use xlink:href="#SVGID_37_"  style="overflow:visible;"/>
				</clipPath>
				<path class="st20" d="M77.6,50.9c0.1,0.6,0.1,1.2,0.1,1.9c-0.1,0.9-0.3,1.3-0.7,1.4c-0.3,0.1-0.9,0.1-1.8-0.1
					c-1-0.1-2-0.3-3.1-0.7c-0.4,0.6-1,1.1-1.7,1.5c-0.5,0.3-1.1,0.6-1.7,0.8c-0.4,0.1-0.6,0.2-1.1,0.3c-0.4-1.2-0.6-1.8-0.9-3
					c0.4-0.1,0.7-0.2,1.1-0.3c0.2-0.1,0.5-0.2,0.8-0.3s0.5-0.3,0.6-0.4c0-0.2-0.1-0.2-0.1-0.4c-0.3-0.9-0.3-1.7-0.2-2.5
					c0.1-0.8,0.4-1.5,0.9-2c-0.3-0.1-0.4-0.1-0.7-0.2C69,46.3,69,45.8,69,45.4s0-0.9,0.1-1.6c1.5,0.4,2.9,1.1,4.3,2
					c1.2,0.8,2.2,1.7,3,2.6S77.4,50.1,77.6,50.9 M72.1,49.4c-0.1-0.4-0.2-0.7-0.4-0.8c-0.2-0.2-0.4-0.2-0.6-0.2
					c-0.4,0.1-0.7,0.3-0.8,0.6c-0.2,0.3-0.2,0.5-0.1,0.7c0.1,0.3,0.5,0.5,1.4,0.6c0.2-0.1,0.3-0.2,0.4-0.3
					C72.1,49.8,72.1,49.6,72.1,49.4 M76,50.7c-0.1-0.2-0.3-0.5-0.8-0.9s-1-0.7-1.6-1c0,0.4,0,0.7,0,0.9s-0.1,0.6-0.3,1.1
					c1.2,0.3,2,0.4,2.5,0.3C76,50.9,76,50.8,76,50.7"/>
			</g>
			<g>
				<defs>
					<rect id="SVGID_39_" x="0.4" y="3" width="215.6" height="211.9"/>
				</defs>
				<clipPath id="SVGID_40_">
					<use xlink:href="#SVGID_39_"  style="overflow:visible;"/>
				</clipPath>
				<path class="st21" d="M90.6,51.4c0.1,0.5-0.1,1.1-0.6,2c-0.5,0.8-1,1.6-1.7,2.3s-1.4,1.2-1.9,1.3c-0.7,0.1-1.5,0-2.3-0.2
					c-0.7-0.2-1.9-0.7-3.6-1.3c0.1-0.3,0.2-0.5,0.4-0.8c0.8,0.3,1.4,0.5,1.9,0.6s0.9,0.1,1.5,0c0.5-0.1,1.1-0.3,1.6-0.7s1.1-1.1,2-2
					c1.2-1.3,1.7-2.3,1.6-2.9c0-0.3-0.2-0.7-0.6-1.1c-0.4-0.5-0.8-0.9-1.3-1.3c0.1-1.3,0.2-1.9,0.3-3.2c0.7,0.5,1.2,1,1.6,1.7
					s0.7,1.4,0.8,2.3C90.3,49.3,90.4,50,90.6,51.4"/>
			</g>
			<g>
				<defs>
					<rect id="SVGID_41_" x="0.4" y="3" width="215.6" height="211.9"/>
				</defs>
				<clipPath id="SVGID_42_">
					<use xlink:href="#SVGID_41_"  style="overflow:visible;"/>
				</clipPath>
				<path class="st22" d="M100.9,50.2c-0.9,0-1.9-0.1-3-0.3c-1-0.2-2-0.4-2.8-0.8c-0.4,0.7-1,1.2-1.6,1.5c-0.3,0.1-0.8,0.2-1.3,0.3
					c-1,0.1-1.4,0.2-2.4,0.3c-0.2-1.2-0.3-1.9-0.4-3.1c1-0.1,1.5-0.2,2.5-0.3c0.7-0.1,1.3-0.2,1.8-0.5s0.9-0.7,1.1-1.2
					c0.4-1,0.9-1.9,1.6-2.6c0.6-0.6,1.2-0.9,1.7-1c0.4,0,1,0.5,1.7,1.7s1.1,2.4,1.2,3.4C100.8,48.7,100.8,49.2,100.9,50.2
					 M98.4,46.8c0-0.2-0.2-0.5-0.6-0.8c-0.4-0.4-0.8-0.6-1.1-0.6c-0.3,0-0.6,0.4-0.7,1.1c0.5,0.1,0.8,0.2,1,0.3
					c0.7,0.2,1.1,0.3,1.2,0.3C98.3,47,98.4,46.9,98.4,46.8"/>
			</g>
			<g>
				<defs>
					<rect id="SVGID_43_" x="0.4" y="3" width="215.6" height="211.9"/>
				</defs>
				<clipPath id="SVGID_44_">
					<use xlink:href="#SVGID_43_"  style="overflow:visible;"/>
				</clipPath>
				<path class="st23" d="M113.2,44.5c-0.6,1.3-0.9,1.9-1.5,3.3c-2.2,0.6-4.1,1.1-5.5,1.5c-1.3,0.3-2.3,0.6-3.1,0.7
					c-0.6,0.1-1.3,0.2-1.9,0.2c-0.4,0-0.7,0-1.1,0.1c-0.1-1.3-0.1-1.9-0.2-3.1c0.5,0,0.8,0,1.3-0.1c0.2,0,0.4,0,0.5,0
					c0.2,0,0.5-0.1,0.7-0.1c-0.4-0.6-0.7-1-0.9-1.4c-0.2-0.3-0.2-0.8-0.3-1.2c-0.1-1.1,0.4-2.2,1.5-3.1c1-0.9,2.3-1.4,3.7-1.4
					c1,0,1.9,0.3,2.8,0.8c0.8,0.5,1.4,1.2,1.7,1.9c-0.2,0.2-0.3,0.2-0.5,0.4c-0.7-0.2-1.2-0.4-1.6-0.5s-0.9-0.1-1.5-0.1
					c-1.1,0-2,0.1-2.8,0.3c-1,0.2-1.5,0.5-1.4,0.9c0,0.5,1.2,1.4,3.6,2.6C109.3,45.5,110.6,45.1,113.2,44.5"/>
			</g>
			<g>
				<defs>
					<rect id="SVGID_45_" x="0.4" y="3" width="215.6" height="211.9"/>
				</defs>
				<clipPath id="SVGID_46_">
					<use xlink:href="#SVGID_45_"  style="overflow:visible;"/>
				</clipPath>
				<path class="st24" d="M129.9,51.6c-2.2-0.3-3.3-0.5-5.5-0.7c-0.5-0.1-0.9-0.2-1.2-0.5c-0.3-0.3-0.5-0.7-0.4-1.3
					c0-0.3,0.1-0.7,0.2-1.1c0.1-0.4,0.2-0.8,0.3-1.2c0.2,0,0.3,0,0.5,0c0,0.3,0.2,0.5,0.4,0.6c0.2,0.1,0.5,0.2,0.8,0.3
					c1.7,0.2,2.6,0.3,4.3,0.6c0-1.1-0.2-2.1-0.6-2.8c-0.3-0.6-0.8-1.2-1.5-1.7c0.6-1.4,0.8-2.1,1.4-3.5c1,0.9,1.7,2,2,3.2
					c0.3,1.1,0.3,2.6,0,4.4C130.2,49.4,130.1,50.2,129.9,51.6"/>
			</g>
			<g>
				<defs>
					<rect id="SVGID_47_" x="0.4" y="3" width="215.6" height="211.9"/>
				</defs>
				<clipPath id="SVGID_48_">
					<use xlink:href="#SVGID_47_"  style="overflow:visible;"/>
				</clipPath>
				<path class="st25" d="M136.6,52.9c-3-0.6-4.5-0.9-7.6-1.3c0.2-1.2,0.3-1.9,0.5-3.1c2.6,0.4,3.9,0.6,6.5,1.1c0-0.5-0.1-1-0.2-1.4
					c-0.1-0.2-0.3-0.6-0.7-1.2c0.6-1,0.9-1.5,1.5-2.5c0.5,0.8,0.8,1.5,0.9,2.3c0.1,0.8,0,1.8-0.3,3.2
					C137,51.1,136.8,51.7,136.6,52.9 M136,54.8c-0.7,0.8-1.1,1.2-1.8,2.1c-0.6-0.5-0.9-0.7-1.5-1.2c-0.5,0.7-0.8,1-1.3,1.6
					c-0.8-0.6-1.2-0.9-2-1.5c0.6-0.8,0.9-1.2,1.6-2c0.7,0.5,1,0.7,1.6,1.1c0.5-0.7,0.8-1,1.3-1.7C134.8,53.9,135.2,54.2,136,54.8"/>
			</g>
			<g>
				<defs>
					<rect id="SVGID_49_" x="0.4" y="3" width="215.6" height="211.9"/>
				</defs>
				<clipPath id="SVGID_50_">
					<use xlink:href="#SVGID_49_"  style="overflow:visible;"/>
				</clipPath>
				<path class="st26" d="M147.1,55.7c-0.1,0.5-0.6,1-1.3,1.6c-0.8,0.6-1.6,1.1-2.4,1.4c-1,0.4-1.7,0.5-2.3,0.4
					c-0.7-0.2-1.4-0.5-2-1.1c-0.6-0.5-1.5-1.4-2.8-2.7c0.3-0.2,0.4-0.4,0.6-0.6c0.6,0.6,1.1,1,1.5,1.3s0.8,0.4,1.3,0.6
					c0.5,0.1,1.1,0.1,1.7,0s1.5-0.5,2.6-1.1c1.6-0.8,2.5-1.4,2.7-2c0.1-0.3,0.1-0.7-0.1-1.3c-0.1-0.6-0.4-1.2-0.7-1.7
					c0.6-1.1,0.9-1.7,1.5-2.8c0.4,0.7,0.7,1.4,0.8,2.2s0,1.6-0.2,2.4C147.7,53.7,147.5,54.4,147.1,55.7 M149.7,44.1
					c-0.9,0.8-1.3,1.2-2.2,2.1c-1-0.9-1.6-1.3-2.6-2.1c0.9-0.9,1.3-1.3,2.2-2.1C148.2,42.8,148.7,43.2,149.7,44.1"/>
			</g>
			<g>
				<defs>
					<rect id="SVGID_51_" x="0.4" y="3" width="215.6" height="211.9"/>
				</defs>
				<clipPath id="SVGID_52_">
					<use xlink:href="#SVGID_51_"  style="overflow:visible;"/>
				</clipPath>
				<path class="st27" d="M153.7,57.5c-2.9-1-4.4-1.5-7.4-2.3c0.3-1.2,0.5-1.8,0.9-3c2.6,0.7,3.8,1.1,6.3,1.9c0.1-0.5,0.1-1-0.1-1.4
					c-0.1-0.2-0.2-0.7-0.5-1.3c0.7-0.9,1.1-1.4,1.8-2.3c0.4,0.8,0.6,1.6,0.6,2.4c0,0.8-0.2,1.8-0.7,3.1
					C154.3,55.8,154.1,56.4,153.7,57.5 M152.9,59.4c-0.8,0.7-1.2,1.1-2,1.8c-0.5-0.6-0.8-0.8-1.3-1.4c-0.6,0.6-0.9,0.9-1.5,1.5
					c-0.7-0.7-1.1-1.1-1.8-1.8c0.7-0.7,1.1-1.1,1.8-1.8c0.6,0.5,0.9,0.8,1.5,1.3c0.6-0.6,0.9-0.9,1.5-1.5
					C151.9,58.3,152.2,58.7,152.9,59.4"/>
			</g>
		</g>
		<text transform="matrix(1 0 0 1 96.5117 79.5664)" class="st28 st29 st30"> </text>
		<text transform="matrix(1 0 0 1 113.3923 79.5664)" class="st28 st29 st31">ﻰﻠﻋ</text>
	</g>
</g>
<g id="Layer_2">
	<circle class="st32" cx="40.5" cy="115" r="3.8"/>
	<circle class="st32" cx="175.9" cy="115" r="3.8"/>
	<path class="st32" d="M108.1,197.3c-49.2,0-89.1-40-89-89.2s40-89.1,89.2-89c49.2,0,89.1,39.9,89,89.1
		C197.3,157.4,157.4,197.3,108.1,197.3z M108.2,22.8c-47.2,0-85.4,38.2-85.5,85.4c0,47.2,38.2,85.4,85.4,85.5s85.4-38.2,85.5-85.4
		c0,0,0,0,0,0C193.5,61.1,155.4,22.9,108.2,22.8z"/>
	<path class="st33" d="M93.8,71.8l-3.4,0.1c-1,0-1.9,0.1-2.7,0.1v-1.4c0.9,0.1,2,0.1,3.4,0.2c1.3,0,2.8,0,4.5,0s3.2,0,4.6,0
		s2.5-0.1,3.4-0.2V72l-1.4-0.1h-1.4c-0.5,0-1,0-1.5,0h-4l-0.9,1l-0.7,0.8c-0.2,0.3-0.5,0.6-0.7,0.8l-0.6,0.7
		c-0.2,0.2-0.4,0.5-0.6,0.7s-0.4,0.4-0.6,0.7h7.4h0.8h0.7c-0.4-0.5-0.8-0.9-1.2-1.4s-0.8-0.8-1.2-1.2l0.9-0.7
		c0.3,0.3,0.7,0.7,1.2,1.1s0.9,0.9,1.3,1.4s0.8,1,1.2,1.4s0.7,0.9,1,1.2l-1.1,0.8c-0.1-0.2-0.3-0.4-0.5-0.7s-0.4-0.6-0.7-0.9
		c-0.2,0-0.5,0-0.7,0h-1h-1.3h-1.8v3.2c1.2,0,2.3,0,3.4,0s1.9-0.1,2.6-0.1v1.4c-0.7,0-1.5-0.1-2.6-0.1s-2.1,0-3.4,0v3.7
		c1.8,0,3.3,0,4.7,0s2.5-0.1,3.5-0.1V87c-1-0.1-2.3-0.1-3.7-0.1s-3.1,0-5.1,0s-3.6,0-5.1,0s-2.7,0.1-3.8,0.1v-1.5
		c1,0.1,2.1,0.1,3.5,0.1s2.9,0,4.7,0v-3.6c-1.3,0-2.5,0-3.6,0s-2,0.1-2.7,0.1v-1.4c0.7,0.1,1.6,0.1,2.7,0.1s2.3,0,3.6,0v-3.2h-2
		c-0.6,0-1,0-1.5,0.1s-0.8,0.1-1.2,0.1l-1.1,0.2c0-0.2-0.1-0.5-0.2-0.7c-0.1-0.2-0.2-0.4-0.4-0.6c0.2-0.1,0.4-0.1,0.6-0.2
		c0.3-0.1,0.5-0.3,0.8-0.5c0.3-0.3,0.7-0.6,1-0.9c0.4-0.4,0.8-0.9,1.4-1.5c0.3-0.4,0.6-0.7,0.8-0.9C93.5,72.4,93.7,72.1,93.8,71.8z"
		/>
	<path class="st33" d="M127,79c0.2,0.1,0.3,0.2,0.3,0.2s-0.1,0.2-0.3,0.3c-0.1,0.1-0.3,0.2-0.3,0.3c-0.2,0.2-0.3,0.3-0.4,0.5
		c-0.3,0.4-0.6,0.8-1,1.2c-0.4,0.4-0.8,0.8-1.3,1.2c-0.5,0.4-0.9,0.8-1.4,1.1c-0.5,0.3-1,0.6-1.5,0.9c-0.6,0.3-1.3,0.6-1.9,0.9
		c-0.7,0.3-1.5,0.6-2.3,0.8s-1.7,0.5-2.6,0.7s-1.8,0.4-2.8,0.5c0-0.3-0.1-0.5-0.2-0.8c-0.1-0.3-0.3-0.6-0.5-0.8c2,0,4.1-0.4,6-1
		c1.7-0.5,3.2-1.2,4.7-2.2c0.5-0.3,1-0.7,1.5-1.1c0.4-0.3,0.8-0.7,1.2-1.1c0.3-0.4,0.6-0.7,0.8-1.2c0.2-0.4,0.4-0.9,0.6-1.4
		C126,78.6,126.5,78.8,127,79L127,79z M116.7,73.6c-0.2,0.1-0.4,0.3-0.5,0.6c-0.2,0.2-0.3,0.5-0.4,0.6l-0.8,1.3
		c-0.2,0.4-0.5,0.8-0.8,1.2s-0.5,0.8-0.8,1.1s-0.6,0.8-0.9,1.2c-0.1-0.2-0.3-0.4-0.4-0.5c-0.2-0.2-0.5-0.3-0.7-0.4
		c0.5-0.4,0.9-0.8,1.3-1.2c0.9-1,1.6-2.1,2.2-3.3c0.3-0.6,0.6-1.3,0.8-1.9c0.3,0.2,0.5,0.3,0.7,0.4c0.2,0.1,0.4,0.2,0.6,0.3
		c0.2,0.1,0.2,0.1,0.2,0.2S117,73.4,116.7,73.6z M119.4,81.3c0.1-0.3,0.1-0.7,0.1-1c0-0.3,0-0.7,0-1.2V71c0-0.5,0-0.9,0-1.2
		s0-0.5-0.1-0.8c0.3,0.1,0.6,0.1,0.8,0.2c0.2,0,0.4,0,0.7,0c0.4,0,0.4,0.1,0.1,0.4c-0.1,0.2-0.1,0.4-0.1,0.6v8.8c0,0.5,0,0.9,0,1.2
		s0.1,0.7,0.1,1L119.4,81.3z M128.5,78.2c-0.3-0.5-0.7-0.9-1.1-1.4c-0.4-0.5-0.9-0.9-1.4-1.3s-1-0.8-1.5-1.2s-1-0.8-1.4-1.1l0.9-0.9
		c1,0.8,2,1.6,2.9,2.4s1.8,1.7,2.7,2.6L128.5,78.2z"/>
	<path class="st32" d="M82.8,134.1v5.4H55.3v-2.1l15.7-16.5c3.7-4,5.4-7.3,5.4-10.7c0-4-2.3-6.2-6.2-6.2c-4.3,0-6.8,2.6-7.5,8
		l-0.1,0.7h-5.9l0.1-0.8c0.6-8.1,5.8-13.1,13.4-13.1s12.5,4.6,12.5,11.7c0,4.6-2.7,9.4-8.1,14.7l-9.4,9.2L82.8,134.1z"/>
	<polygon class="st32" points="108.8,99.1 108.7,139.5 102.5,139.5 102.5,106 93.8,112.2 93.8,106 103.3,99.1 	"/>
	<path class="st33" d="M140,104.8c-3.5,0-6.5,0-8.8,0.1c-2.3,0.1-4.2,0.2-5.7,0.3v-3l2.6,0.2c0.9,0,2,0.1,3.2,0.1s2.6,0,4.3,0.1h6
		h6.1c1.6,0,2.9,0,4-0.1s2-0.1,2.8-0.1l2.4-0.2v3l-2.4-0.2c-0.8-0.1-1.7-0.1-2.8-0.1s-2.3,0-3.8-0.1h-5.4c0.2,4.2-0.1,8.4-0.7,12.5
		c2.6,0,4.8,0,6.7,0s3.5,0,4.9-0.1s2.6-0.1,3.6-0.1s1.9-0.1,2.7-0.2v3.1c-0.8-0.1-1.6-0.1-2.6-0.2s-2-0.1-3.3-0.1s-2.8-0.1-4.6-0.1
		s-3.9,0-6.4,0c0.8,1.9,1.7,3.8,2.8,5.5c1.2,1.8,2.5,3.5,4,5.1c1.5,1.6,3.2,3.1,4.9,4.4c1.7,1.3,3.6,2.3,5.6,3.1
		c-1.3,0.6-2.2,1.7-2.8,3c-4.1-2.8-7.8-6.2-11-10c-2.4-2.9-4.3-6.3-5.5-9.9c-0.6,2.1-1.3,4.2-2.3,6.2c-1,1.9-2.2,3.7-3.6,5.3
		c-1.5,1.7-3.2,3.3-4.9,4.7c-2.1,1.6-4.2,3.1-6.4,4.4c-0.3-0.5-0.6-1-1-1.4c-0.5-0.5-1.1-0.9-1.7-1.3c2.2-1,4.3-2.2,6.3-3.6
		c1.8-1.2,3.5-2.6,5-4.2c1.4-1.5,2.6-3.2,3.6-5.1c1-1.9,1.8-4,2.4-6.1c-2.2,0-4.2,0-5.9,0s-3.2,0-4.5,0.1c-1.3,0.1-2.4,0.1-3.4,0.1
		s-1.8,0.1-2.6,0.2v-3.2c0.8,0.1,1.6,0.1,2.5,0.2s2,0.1,3.3,0.1c1.3,0,2.8,0.1,4.6,0.1s3.9,0,6.4,0C139.9,113.2,140.2,109,140,104.8
		z"/>
	<path class="st33" d="M84.1,47.3c-0.6,0.1-1.2,0.4-1.7,0.7c0-0.3-0.1-0.6-0.3-0.9c-0.1-0.3-0.3-0.5-0.6-0.7
		c0.3-0.2,0.6-0.4,0.8-0.7c0.3-0.5,0.6-1,0.8-1.6c0.3-0.8,0.6-1.6,0.8-2.5c0.3-1,0.5-2.1,0.7-3.3c0.3,0.2,0.6,0.3,0.9,0.4
		c0.3,0.1,0.6,0.1,0.9,0.2c0.2,0,0.4,0.1,0.4,0.2s0,0.3-0.3,0.4c-0.1,0.1-0.3,0.2-0.3,0.3c-0.2,0.3-0.3,0.6-0.5,0.9
		c-0.2,0.5-0.5,1.1-0.8,2l-1.4,3.5l3.7-0.9c0.3-0.8,0.6-1.5,0.8-2.1c0.2-0.4,0.3-0.9,0.4-1.4c0.3,0.2,0.6,0.3,0.9,0.5
		c0.3,0.1,0.6,0.2,0.8,0.3c0.2,0.1,0.3,0.2,0.3,0.3s-0.1,0.2-0.3,0.3s-0.2,0.1-0.3,0.3c-0.3,0.4-0.5,0.8-0.7,1.2
		c-0.3,0.6-0.8,1.5-1.4,2.7s-1.3,2.7-2.3,4.6l5.3-1.8c-0.1,0.4,0,0.9,0.2,1.3l-5,1.6c-0.5,0.2-0.9,0.3-1.3,0.5
		c-0.3,0.1-0.6,0.3-0.9,0.5c-0.2-0.5-0.4-1-0.8-1.5c0.4-0.2,0.7-0.4,1-0.8c0.3-0.4,0.5-0.8,0.8-1.2c0.4-0.8,0.7-1.5,1-2.2
		s0.6-1.3,0.9-1.9L84.1,47.3z M92.1,55.5c-1.8,0.7-3.4,1.3-4.8,1.8c-1,0.4-2,0.8-3,1.3c-0.1-0.3-0.2-0.6-0.4-0.9
		c-0.2-0.3-0.4-0.6-0.6-0.8c1.3-0.3,2.7-0.7,4.1-1.1c1.5-0.5,2.9-1,4.3-1.7c0,0.2,0.1,0.4,0.1,0.7C91.9,55.1,92,55.3,92.1,55.5
		L92.1,55.5z M96.4,43.5c-0.7,0.9-1.4,1.7-2.2,2.5c-1,0.9-2,1.8-3.1,2.6c-0.2-0.2-0.3-0.5-0.6-0.6c-0.3-0.2-0.6-0.4-0.9-0.5
		c1-0.6,2-1.2,2.9-1.9c0.7-0.6,1.4-1.3,2.1-2c0.6-0.7,1.1-1.4,1.5-2.2c0.4-0.8,0.8-1.7,1.2-2.6l-4.5,0.8c-0.8,0.1-1.4,0.3-1.9,0.4
		c-0.4,0.1-0.8,0.2-1.2,0.4l-0.3-1.7c0.7,0,1.3-0.1,2-0.2c0.9-0.1,1.9-0.3,3-0.5s2.3-0.4,3.1-0.6c0.7-0.1,1.3-0.3,1.9-0.5
		c-0.2,0.5-0.4,1.1-0.6,1.6s-0.4,1-0.6,1.5s-0.4,0.9-0.7,1.4s-0.4,0.8-0.7,1.1c1.2,0.4,2.3,0.9,3.3,1.3s2,0.9,2.9,1.3l-0.8,1.5
		c-1-0.6-2-1.2-3-1.7C98.5,44.4,97.4,43.9,96.4,43.5L96.4,43.5z M96.4,49.7c-0.6,0.1-1,0.2-1.4,0.3l-1.1,0.3l-0.9,0.2
		c-0.3,0.1-0.6,0.2-0.9,0.3l-0.3-1.7l1.1-0.1l1.1-0.1c0.4,0,0.9-0.1,1.4-0.2l1.8-0.3l1.8-0.3l1.3-0.3c0.4-0.1,0.7-0.2,1-0.3l1-0.3
		l0.3,1.7l-1,0c-0.3,0-0.6,0.1-1,0.1s-0.7,0.1-1.2,0.2l-1.6,0.3l1.1,6l2-0.4l1.4-0.3c0.4-0.1,0.8-0.2,1.2-0.3l1.2-0.3l0.3,1.7
		l-1.4,0.1l-1.4,0.2l-1.7,0.3l-2.2,0.4l-2.4,0.5l-1.7,0.4c-0.5,0.1-0.9,0.2-1.3,0.3l-1.3,0.4l-0.3-1.7l1.3-0.1l1.3-0.2l1.4-0.2
		l2-0.4L96.4,49.7z"/>
	<path class="st33" d="M115.5,44.9c-0.3-0.1-0.7-0.1-1-0.2l-1.1-0.2l-1-0.1l-0.6-0.1l0.3-1.6c0.4,0.1,0.8,0.2,1.2,0.3
		c0.5,0.1,1,0.2,1.5,0.3s0.9,0.1,1.4,0.2s0.9,0.1,1.2,0.1c-0.2,0.4-0.3,0.8-0.4,1.2c-0.1,0.5-0.2,1-0.3,1.7l-1.1,6.2
		c0.4,0.3,0.9,0.6,1.2,0.9c1.7,1.3,3.7,2.2,5.8,2.6c3,0.7,6.1,1,9.2,0.9c-0.2,0.3-0.4,0.6-0.6,0.9c-0.2,0.4-0.3,0.7-0.4,1.1
		c-1.7-0.2-3.1-0.4-4.4-0.7s-2.4-0.4-3.3-0.6s-1.8-0.4-2.5-0.7s-1.4-0.5-1.9-0.8c-0.5-0.3-1.1-0.6-1.6-0.9c-0.5-0.3-1-0.7-1.4-1.1
		c-0.3-0.2-0.6-0.5-1-0.6c-0.3-0.1-0.7-0.2-1-0.1c-0.4,0.1-0.8,0.3-1.2,0.6c-0.5,0.3-1,0.7-1.7,1.3c-0.2-0.3-0.3-0.6-0.6-0.9
		c-0.2-0.2-0.4-0.4-0.6-0.6c0.9-0.6,1.9-1.2,2.9-1.6c0.5-0.2,1-0.4,1.6-0.4L115.5,44.9z M116.8,41.5c-0.5-0.9-1-1.8-1.6-2.7
		c-0.5-0.7-1.1-1.4-1.7-2l1.2-1c0.7,0.8,1.4,1.6,2,2.4s1.2,1.6,1.6,2.3L116.8,41.5z M130.3,41.9c0.9,0.2,1.6,0.3,2.2,0.3l1.4,0.1
		l-0.3,1.5c-0.4-0.1-0.8-0.2-1.3-0.3c-0.5-0.1-1.2-0.3-2.2-0.4l-1.8,10.6c-0.1,0.4-0.2,0.8-0.4,1.2c-0.2,0.3-0.5,0.5-0.8,0.6
		c-0.5,0.1-0.9,0.2-1.4,0.2c-0.8,0-1.5-0.1-2.3-0.2c0-0.3,0-0.7,0-1c-0.1-0.4-0.2-0.7-0.4-1.1c0.6,0.2,1.3,0.4,1.9,0.6
		c0.4,0.1,0.7,0.1,1.1,0.1c0.2,0,0.4-0.1,0.6-0.3c0.1-0.2,0.2-0.5,0.2-0.8l1.8-10.2l-4.1-0.7c-1.4-0.2-2.5-0.4-3.4-0.5l-1.9-0.2
		l0.3-1.5c0.4,0.1,1,0.2,1.8,0.4s1.9,0.4,3.3,0.6l4.1,0.7l0.3-1.5c0.1-0.8,0.2-1.4,0.3-1.7s0.1-0.7,0.1-0.9c0.6,0.2,1.2,0.4,1.8,0.5
		c0.3,0,0.4,0.1,0.4,0.2s-0.1,0.2-0.3,0.3c-0.2,0.1-0.3,0.2-0.4,0.4c-0.1,0.2-0.2,0.3-0.2,0.5L130.3,41.9z M122.8,49.8
		c-0.2-0.4-0.3-0.9-0.5-1.5s-0.4-1-0.7-1.6s-0.5-1-0.8-1.5s-0.5-1-0.8-1.4l1.4-0.7c0.2,0.4,0.5,0.9,0.8,1.4s0.5,1,0.8,1.5
		s0.5,1,0.8,1.6s0.5,1,0.7,1.5L122.8,49.8z"/>
	<path class="st33" d="M82.3,163.4c0.4-0.6,0.8-1.1,1.1-1.8c0.3-0.5,0.6-1,0.8-1.6c0.2,0.2,0.4,0.3,0.6,0.5l0.7,0.4
		c0.2,0.1,0.2,0.3-0.1,0.4c-0.3,0.2-0.5,0.4-0.8,0.6c-0.5,0.5-1,1.1-1.4,1.7c0.6,0.2,1.2,0.4,1.8,0.6s1.1,0.3,1.6,0.4
		c-0.1,0.2-0.3,0.5-0.4,0.8c-0.1,0.3-0.2,0.6-0.3,0.8l-3.1,8.7l-0.2,0.7c-0.1,0.2-0.1,0.4-0.2,0.6s-0.1,0.4-0.2,0.6
		s-0.1,0.5-0.2,0.8l-1.2-0.4l0.6-1.7l-3.9-1.4l-0.6,1.8l-1.3-0.4c0.1-0.3,0.2-0.5,0.3-0.7s0.2-0.4,0.3-0.6l0.2-0.6
		c0.1-0.2,0.2-0.4,0.3-0.7l3.1-8.9c0.1-0.3,0.2-0.6,0.3-0.9s0.1-0.6,0.2-0.8c0.3,0.1,0.6,0.3,0.9,0.4L82.3,163.4z M79.4,169.3
		l-1.5,4.2l3.9,1.4l1.5-4.2L79.4,169.3z M83.6,169.8l1.5-4.2l-3.9-1.4l-1.5,4.2L83.6,169.8z M89.5,166.8l-0.6,0.6
		c-0.2,0.2-0.5,0.5-0.7,0.7s-0.5,0.5-0.8,0.7l-0.8,0.7c-0.1-0.2-0.3-0.3-0.4-0.5c-0.2-0.2-0.3-0.3-0.5-0.4c0.5-0.4,0.9-0.7,1.3-1
		c0.4-0.4,0.8-0.7,1.2-1.2c0.5-0.5,0.9-1.1,1.3-1.6c0.4-0.6,0.9-1.4,1.4-2.2c0.3,0.4,0.7,0.7,1.2,0.9c0.2,0.1,0.2,0.2,0.2,0.2
		s-0.2,0.2-0.4,0.2c-0.1,0-0.1,0.1-0.2,0.1c-0.1,0.1-0.2,0.2-0.3,0.3c-0.1,0.1-0.3,0.3-0.5,0.6s-0.4,0.6-0.8,0.9l2.9,1
		c0.3,0.1,0.7,0.2,1.1,0.3s0.7,0.2,1,0.2c-0.1,0.3-0.3,0.6-0.4,0.9s-0.2,0.6-0.4,0.9l-3.5,9.2c-0.1,0.3-0.3,0.6-0.5,0.8
		c-0.2,0.2-0.5,0.4-0.8,0.5c-0.5,0.1-0.9,0.1-1.4,0c-0.7-0.1-1.4-0.3-2.1-0.6c0-0.2,0.1-0.3,0.1-0.4c0-0.1,0-0.2,0-0.4
		c0-0.1,0-0.2,0-0.4s-0.1-0.3-0.1-0.5c0.6,0.3,1.2,0.5,1.8,0.7c0.4,0.1,0.7,0.2,1.1,0.1c0.3-0.1,0.6-0.3,0.7-0.6
		c0.2-0.4,0.4-0.9,0.6-1.3l3-8.3L89.5,166.8z M88.1,174.8c0-0.4,0-0.8-0.1-1.2s-0.1-0.9-0.1-1.3s-0.1-0.8-0.2-1.2
		c-0.1-0.3-0.1-0.7-0.2-1l1.2-0.3c0.1,0.3,0.1,0.7,0.2,1.1s0.1,0.8,0.2,1.2s0.1,0.9,0.1,1.3s0.1,0.9,0.1,1.2L88.1,174.8z"/>
	<path class="st33" d="M102.4,179.4c-0.3,0.6-0.6,1.2-0.9,1.8c-0.3,0.5-0.6,1-1,1.5l-1.2-0.5c0.5-0.4,0.9-0.9,1.2-1.4
		c0.4-0.6,0.6-1.2,0.8-1.9L102.4,179.4z M103.9,167.1c-0.1-0.3-0.3-0.5-0.4-0.7c-0.2-0.2-0.4-0.5-0.6-0.9l1-0.5
		c0.1,0.2,0.3,0.4,0.4,0.5c0.1,0.2,0.2,0.3,0.3,0.5s0.2,0.3,0.2,0.5s0.2,0.4,0.2,0.6h1.4h1h0.8c0.2,0,0.4,0,0.6-0.1v1.2
		c-0.6-0.1-1.2-0.1-2-0.2s-1.7-0.1-2.8-0.1c-0.6,0-1.1,0-1.5,0s-0.9,0-1.2,0h-1c-0.3,0-0.6,0-0.9,0.1v-1.2c0.5,0.1,1.2,0.1,1.9,0.2
		C102,167.1,102.9,167.1,103.9,167.1L103.9,167.1z M104.6,177.3c0,0.2,0,0.4-0.1,0.6c-0.1,0.2-0.2,0.3-0.3,0.4
		c-0.2,0.1-0.5,0.2-0.7,0.2c-0.4,0.1-0.8,0.1-1.2,0.1c-0.1-0.2-0.1-0.4-0.2-0.6c-0.1-0.2-0.3-0.5-0.5-0.6c0.5,0.2,1.1,0.2,1.6,0.1
		c0.3-0.1,0.4-0.4,0.4-0.9v-0.6l-1.6,0.2l-2.1,0.4c0-0.2,0-0.4-0.1-0.6c-0.1-0.2-0.1-0.4-0.2-0.6c0.8,0,1.6-0.1,2.2-0.2l1.8-0.2
		v-0.9l1.6-1h-2.1h-1.6c-0.4,0-0.8,0-1.2,0.1v-1l0.8,0.1h0.8c0.3,0,0.6,0,0.9,0h1.2h1.2h0.9h0.8h0.8v0.5l-0.4,0.1
		c-0.1,0-0.2,0.1-0.3,0.1c-0.1,0.1-0.2,0.1-0.3,0.2l-0.4,0.3l-1.5,1.2v0.3c0.5-0.1,1-0.1,1.5-0.2l1.6-0.3c-0.1,0.2-0.1,0.3-0.1,0.5
		c0,0.2,0,0.4,0,0.5l-1.7,0.2c-0.5,0-0.9,0.1-1.3,0.2L104.6,177.3z M107.5,171.6l-0.6-0.1h-0.7h-0.9h-1.1h-1.4H102h-0.6h-0.5
		c0.1-0.5,0.1-1,0.1-1.5c0-0.3,0-0.5,0-0.8c0-0.2,0-0.5-0.1-0.7c0.4,0.1,0.9,0.1,1.4,0.1s1.2,0.1,2,0.1s1.4,0,1.9,0s1,0,1.4-0.1
		c0,0.3,0,0.5-0.1,0.7s0,0.5,0,0.8s0,0.5,0,0.7S107.4,171.4,107.5,171.6L107.5,171.6z M106.4,169.5l-4.3-0.1v1.3l4.3,0.1
		L106.4,169.5z M105.4,182.6c-0.1-0.6-0.2-1.2-0.4-1.7s-0.3-1.2-0.6-1.9l0.9-0.3c0.5,1.1,0.9,2.3,1.2,3.5L105.4,182.6z M110.7,169.7
		c-0.5,0-0.9,0-1.3,0.1c-0.5,0-0.9,0.1-1.3,0.2v-1.1c0.4,0,0.8,0.1,1.2,0.1c0.5,0,1,0,1.4,0c0-0.4,0-0.8,0-1.1s0-0.6,0-0.9
		s0-0.5-0.1-0.8s-0.1-0.5-0.1-0.7l0.8,0.1c0.2,0,0.5,0,0.7,0.1c0.3,0,0.3,0.1,0.1,0.3c-0.2,0.3-0.3,0.6-0.3,1
		c-0.1,0.6-0.1,1.3-0.1,1.9c0.9-0.1,1.7-0.1,2.2-0.2s0.9-0.1,1.2-0.2c-0.2,0.5-0.3,1.1-0.5,1.6c-0.2,0.8-0.3,1.6-0.3,2.4
		c0,0.6-0.1,1-0.1,1.4c0,0.3,0,0.7,0,1c0,0.3,0.1,0.5,0.2,0.8c0.1,0.2,0.2,0.4,0.3,0.6c0.1,0.1,0.1,0.2,0.2,0.3
		c0.1,0.1,0.2,0.1,0.2,0c0.1-0.1,0.2-0.2,0.2-0.4c0.1-0.2,0.2-0.5,0.3-0.9c0.1,0.2,0.3,0.4,0.4,0.5c0.2,0.1,0.4,0.2,0.6,0.2
		c-0.2,0.5-0.5,1-0.7,1.4c-0.1,0.3-0.3,0.5-0.6,0.6c-0.2,0.1-0.4,0.1-0.5,0c-0.2-0.1-0.4-0.3-0.6-0.5c-0.4-0.4-0.7-1-0.8-1.6
		c-0.2-0.9-0.3-1.8-0.2-2.8c0-0.3,0-0.6,0-0.9s0-0.6,0.1-0.9s0.1-0.6,0.1-0.9s0.1-0.7,0.1-1.1l-1.8,0.1c0,0.2,0,0.5-0.1,0.9
		s-0.1,0.6-0.1,1s-0.1,0.7-0.2,1s-0.1,0.6-0.2,0.8l0.9,0.9c0.3,0.3,0.6,0.7,1,1.1l-0.8,0.7l-0.7-0.9c-0.2-0.3-0.5-0.5-0.7-0.8
		c-0.4,0.8-0.8,1.5-1.4,2.1c-0.7,0.8-1.4,1.5-2.3,2.1c-0.1-0.1-0.2-0.2-0.3-0.3l-0.3-0.2c-0.1-0.1-0.2-0.1-0.3-0.2
		c-0.1-0.1-0.3-0.1-0.4-0.2c1-0.4,1.9-1,2.7-1.8c0.6-0.7,1.2-1.5,1.5-2.4c-0.6-0.6-1.2-1.2-1.9-1.8l0.7-0.6c0.6,0.5,1.1,1,1.6,1.4
		c0.1-0.2,0.1-0.4,0.2-0.6c0-0.2,0.1-0.4,0.1-0.6c0-0.2,0-0.4,0.1-0.7S110.6,170,110.7,169.7L110.7,169.7z M109.9,182.5
		c-0.1-0.6-0.3-1.3-0.6-1.8c-0.3-0.6-0.6-1.1-0.9-1.6l1-0.4c0.4,0.6,0.7,1.1,1,1.7c0.3,0.6,0.5,1.1,0.8,1.8L109.9,182.5z
		 M115.1,182.5c-0.3-0.6-0.7-1.2-1.1-1.8c-0.4-0.6-0.9-1.2-1.5-1.8l0.8-0.7c0.5,0.6,1,1.1,1.5,1.7s0.9,1.2,1.4,1.9L115.1,182.5z"/>
	<path class="st33" d="M124.7,172.2c0.3,1.1,0.6,2,0.8,2.8c0.2,0.7,0.3,1.5,0.4,2.3c0.1,0.6,0.1,1.3,0.1,1.9c0,0.6-0.1,1.3-0.2,1.9
		c-0.2-0.1-0.5-0.2-0.8-0.3c-0.3,0-0.5,0-0.8,0c0.2-0.7,0.3-1.4,0.4-2.1c0-0.9,0-1.7-0.2-2.6c-0.2-1.2-0.5-2.4-0.9-3.5
		c-0.4-1.4-0.9-3-1.6-5c0.2,0,0.5-0.1,0.9-0.2l1.7-0.4c0.7-0.2,1.4-0.4,2.3-0.7l2.8-0.9c-0.4-1-0.6-1.7-0.8-2.1
		c-0.2-0.4-0.3-0.7-0.5-1.1l0.8-0.1c0.2,0,0.4-0.1,0.7-0.1c0.1-0.1,0.3-0.1,0.4,0c0.1,0.1,0,0.2,0,0.4c0,0.1,0,0.1,0,0.2
		c0,0.1,0,0.3,0.1,0.4c0,0.2,0.1,0.4,0.2,0.8s0.3,0.8,0.4,1.3c1.6-0.5,2.8-0.9,3.7-1.2c0.6-0.2,1.2-0.4,1.8-0.7l0.4,1.3l-0.9,0.2
		c-0.4,0.1-0.9,0.2-1.4,0.4s-1.1,0.3-1.6,0.5l-1.6,0.5c0.4,1.1,0.9,2.2,1.4,3.2c0.4,0.8,0.9,1.7,1.5,2.4c0.1-0.2,0.1-0.4,0.2-0.6
		s0.1-0.4,0.1-0.6c0.1-0.3,0.1-0.7,0.1-1c0-0.4,0.1-0.7,0.1-1.1c0-0.4,0-0.8,0-1.1c0-0.4,0-0.7-0.1-1.1c0.3,0.1,0.5,0.1,0.7,0.1
		c0.2,0,0.4,0,0.6,0c0.3,0,0.4,0,0.5,0.1s0,0.2-0.2,0.4c-0.1,0.1-0.1,0.2-0.1,0.3c0,0.1-0.1,0.3-0.1,0.6c-0.1,0.3-0.1,0.6-0.2,1
		s-0.1,0.9-0.2,1.5c0,0.4-0.1,0.8-0.2,1.2c-0.1,0.4-0.2,0.9-0.4,1.3c0.9,1.2,2,2.1,3.2,2.8c0.2,0.1,0.3,0.1,0.5,0.1
		c0.1,0,0.2-0.1,0.3-0.2c0.1-0.2,0.1-0.5,0.1-0.7c0-0.3-0.1-0.8-0.2-1.4c0.2,0.1,0.5,0.3,0.7,0.3c0.2,0.1,0.5,0.1,0.7,0.1
		c0,0.6,0,1.3-0.1,1.9c0,0.4-0.1,0.7-0.3,1.1c-0.1,0.2-0.3,0.4-0.6,0.4c-0.3,0-0.6,0-0.8-0.1c-0.3-0.1-0.7-0.3-1-0.5
		c-0.4-0.2-0.7-0.4-1.1-0.7c-0.4-0.2-0.7-0.5-1-0.8c-0.3-0.3-0.6-0.6-0.9-0.9c-0.4,0.9-0.8,1.9-1.2,2.7c-0.4,0.8-0.9,1.6-1.4,2.4
		c-0.2-0.1-0.4-0.2-0.7-0.3c-0.3-0.1-0.6-0.1-0.9-0.1c0.7-0.8,1.3-1.6,1.8-2.6c0.6-1,1-2.1,1.4-3.1c-0.7-1-1.4-2.1-2-3.2
		c-0.6-1.2-1.1-2.3-1.6-3.6l-6.5,2c0.2,0.5,0.3,1,0.5,1.5l0.4,1.3l2.2-0.7c0.5-0.2,1-0.3,1.5-0.5c0.4-0.1,0.7-0.3,1.1-0.5l1.5,6.1
		c0.2,0.6,0.1,1.3-0.4,1.8c-0.7,0.6-1.6,0.9-2.5,1c-0.1-0.2-0.2-0.4-0.3-0.6c-0.1-0.2-0.3-0.4-0.5-0.6c0.6-0.1,1.1-0.1,1.5-0.2
		c0.3,0,0.6-0.1,0.8-0.3c0.2-0.1,0.3-0.2,0.3-0.4c0-0.2,0-0.4,0-0.6l-1.2-4.8L124.7,172.2z M134.2,163.9c-0.4-0.3-0.8-0.6-1.3-0.8
		c-0.5-0.3-1.1-0.5-1.6-0.8l0.6-1c0.5,0.2,1.1,0.5,1.6,0.7c0.5,0.3,1,0.5,1.3,0.8L134.2,163.9z"/>
</g>
</svg>
