<?xml version="1.0" encoding="utf-8"?>
<!-- Generator: Adobe Illustrator 23.0.4, SVG Export Plug-In . SVG Version: 6.00 Build 0)  -->
<svg version="1.1" xmlns="http://www.w3.org/2000/svg" xmlns:xlink="http://www.w3.org/1999/xlink" x="0px" y="0px"
	 viewBox="0 0 216.4 216.4" style="enable-background:new 0 0 216.4 216.4;" xml:space="preserve">
<style type="text/css">
	.st0{display:none;}
	.st1{display:inline;}
	.st2{clip-path:url(#SVGID_2_);fill:#373535;}
	.st3{fill:#373535;}
	.st4{font-family:'Graphik-Bold';}
	.st5{font-size:14.1169px;}
	.st6{font-size:14.117px;}
	.st7{font-size:14.1171px;}
	.st8{font-family:'Archer-Bold';}
	.st9{font-size:20.1671px;}
	.st10{letter-spacing:1;}
	.st11{font-size:13.1087px;}
	.st12{font-size:13.1088px;}
	.st13{font-size:13.1086px;}
	.st14{font-size:13.1085px;}
</style>
<g id="Aged_21_days" class="st0">
	<g class="st1">
		<g>
			<path d="M55.2,81.6h1l2.9-8h-1.3v-1.8h6.5v1.8h-1.3l2.9,8h1v1.8h-4.4v-1.7h1.3l-0.6-1.9h-4.3l-0.6,1.9h1.4v1.7h-4.4L55.2,81.6
				L55.2,81.6z M62.7,78.1L61,73.5l-1.6,4.5H62.7z"/>
			<path d="M73.4,81.6h1.4v-8h-2.1v1.8h-1.9v-3.5h10v3.5H79v-1.8h-2.1v8h1.4v1.8h-4.8L73.4,81.6L73.4,81.6z"/>
			<path d="M94.1,81.6h1.3v-8h-1.3v-1.8h4.8v1.8h-1.5v8h3.2v-1.6h1.9v3.4h-8.3L94.1,81.6L94.1,81.6z"/>
			<path d="M107.9,81.6h1.3v-8h-1.3v-1.8h8.6v3.3h-1.9v-1.5h-3.4v3.1h3.5v1.7h-3.5v3.2h3.4V80h1.9v3.3h-8.6
				C107.9,83.3,107.9,81.6,107.9,81.6z"/>
			<path d="M121.5,81.6h1l2.9-8h-1.3v-1.8h6.5v1.8h-1.3l2.9,8h1v1.8h-4.4v-1.7h1.3l-0.6-1.9h-4.3l-0.6,1.9h1.4v1.7h-4.4
				C121.5,83.3,121.5,81.6,121.5,81.6z M129,78.1l-1.6-4.5l-1.6,4.5H129z"/>
			<path d="M138,80.9c0-0.8,0.5-1.4,1.2-1.4c0.8,0,1.3,0.6,1.3,1.1c0,0.3-0.1,0.5-0.2,0.7c0.4,0.3,1.1,0.5,1.8,0.5
				c1.3,0,2.1-0.6,2.1-1.6c0-0.9-1-1.4-2.1-1.8c-2.1-0.8-3.6-1.4-3.6-3.6c0-1.8,1.5-3.3,3.8-3.3c2.1,0,3.8,1.1,3.8,2.5
				c0,0.8-0.5,1.3-1.2,1.3c-0.8,0-1.3-0.6-1.3-1.2c0-0.3,0.1-0.4,0.1-0.5c-0.3-0.2-0.8-0.3-1.5-0.3c-1.1,0-1.8,0.6-1.8,1.4
				c0,0.9,1,1.4,2.1,1.8c2.1,0.7,3.6,1.4,3.6,3.6c0,2.2-1.7,3.4-4.1,3.4C139.8,83.5,138,82.2,138,80.9z"/>
			<path d="M153.9,81.6h1.4v-8h-2.1v1.8h-1.9v-3.5h10v3.5h-1.9v-1.8h-2.1v8h1.4v1.8h-4.8L153.9,81.6L153.9,81.6z"/>
		</g>
		<g>
			<circle cx="44" cy="108.1" r="3.9"/>
			<circle cx="172.5" cy="108.1" r="3.9"/>
		</g>
		<path d="M108.2,199.2c-50.3,0-91.1-40.9-91.1-91.2c0-50.3,41-91.2,91.2-91.2s91.2,40.9,91.1,91.2
			C199.4,158.4,158.5,199.2,108.2,199.2z M108.3,20.7c-48.2,0-87.4,39.2-87.5,87.4c0,48.2,39.2,87.4,87.3,87.4s87.4-39.2,87.5-87.4
			C195.7,59.9,156.5,20.7,108.3,20.7z"/>
		<g>
			<path d="M105.5,139.8v7.3H67.8l0-2.9l21.4-22.6c5.1-5.4,7.4-10,7.4-14.7c0-5.4-3.1-8.5-8.5-8.5c-5.9,0-9.3,3.6-10.2,10.9
				l-0.1,0.9h-8l0.1-1.1c0.8-11.1,7.9-18,18.3-18s17.1,6.3,17.1,16c0,6.3-3.6,12.8-11.1,20.1l-12.9,12.5L105.5,139.8L105.5,139.8z"
				/>
			<polygon points="141.1,91.8 141,147.1 132.5,147.1 132.5,101.2 120.6,109.8 120.6,101.2 133.6,91.8 			"/>
		</g>
		<g>
			<path d="M68.2,44.7l5.5-3.2l13.3,12.2l-4.5,2.6L80.2,54l-4.9,2.8L76,60l-4,2.3L68.2,44.7z M74.4,53.4l3.3-1.9l-4.9-4.8L74.4,53.4
				z"/>
			<path d="M89.3,44.1l0-0.2c-0.8-5.2,2.4-9.2,7.5-10c4-0.6,7.8,0.6,8.9,5l-4.8,0.8c-0.5-1.5-1.6-2.2-3.4-1.9
				c-2.4,0.4-3.6,2.5-3.1,5.5l0,0.2c0.4,2.8,1.8,4.7,4.7,4.3c2.4-0.4,3.1-1.7,3-3.1L98.9,45l-0.5-3.4l8-1.2l0.3,2.1
				c0.7,4.3-1.6,8-7.1,8.9C93.8,52.3,90.1,49.2,89.3,44.1z"/>
			<path d="M116.1,33.4l11.7,2.1l-0.7,3.7l-6.8-1.2l-0.5,2.9l5.5,1l-0.6,3.5l-5.5-1l-0.6,3.1l7.2,1.3l-0.7,3.7l-12-2.2L116.1,33.4z"
				/>
			<path d="M139.4,39.6l5.4,3.1c5.3,3,6.4,7.2,3.8,11.9l-0.1,0.2c-2.7,4.6-7.1,5.8-12.3,2.8l-5.4-3.1L139.4,39.6z M138,54.2
				c2.5,1.5,4.4,0.8,6-2l0.1-0.2c1.6-2.8,1.2-4.7-1.4-6.2l-0.9-0.5l-4.8,8.3L138,54.2z"/>
		</g>
		<g>
			<path d="M77.3,162.2l4.8,2.2c4.7,2.1,6.1,5.6,4.2,9.7l-0.1,0.1c-1.9,4.1-5.4,5.6-10.1,3.4l-4.8-2.2L77.3,162.2z M77.3,174.7
				c2.3,1,3.8,0.3,4.9-2.2l0.1-0.1c1.1-2.5,0.6-4.1-1.7-5.1l-0.8-0.4l-3.3,7.4L77.3,174.7z"/>
			<path d="M98.8,169.5l5.4,0.6l3,15l-4.4-0.5l-0.5-2.8l-4.8-0.5l-1.1,2.6l-3.9-0.4L98.8,169.5z M98.6,178.5l3.2,0.4l-1-5.7
				L98.6,178.5z"/>
			<path d="M118.4,177.8l-6.1-7.4l4.5-0.8l3.3,4.4l1.6-5.3l3.9-0.7l-3,9l1.1,6.1l-4.1,0.7L118.4,177.8z"/>
			<path d="M134.7,175.4l3.6-1.8c0.6,0.9,1.4,1.4,2.9,0.7c1.1-0.5,1.4-1.4,1-2.1c-0.4-0.8-1-0.8-2.7-0.2c-3.9,1.4-5.7,0.9-7-1.7
				c-1.2-2.4-0.1-5,3-6.6c3.1-1.6,5.6-1.1,7.2,1.5l-3.5,1.7c-0.6-0.9-1.4-1.1-2.4-0.6c-1,0.5-1.3,1.2-1,1.9c0.4,0.7,0.9,0.9,2.7,0.3
				c3.5-1.3,5.6-1.3,7,1.6c1.2,2.4,0.3,5.3-3.1,6.9C138.8,178.7,136.2,178.1,134.7,175.4z"/>
		</g>
	</g>
</g>
<g id="nld">
	<g>
		<g>
			<defs>
				<rect id="SVGID_1_" x="-1.8" y="0" width="220" height="216.3"/>
			</defs>
			<clipPath id="SVGID_2_">
				<use xlink:href="#SVGID_1_"  style="overflow:visible;"/>
			</clipPath>
			<path class="st2" d="M108.3,199.3c-50.7,0-91.9-41.2-91.9-91.9c0-50.7,41.3-92,92-92c50.7,0,91.9,41.3,91.9,92
				C200.3,158,159,199.3,108.3,199.3 M108.5,19.2c-48.6,0-88.2,39.6-88.2,88.2c0,48.6,39.5,88.1,88.1,88.1
				c48.6,0,88.2-39.5,88.2-88.1C196.6,58.7,157.1,19.2,108.5,19.2"/>
			<path class="st2" d="M47.5,105.5c0,2.2-1.8,3.9-3.9,3.9c-2.2,0-3.9-1.8-3.9-3.9c0-2.2,1.8-3.9,3.9-3.9
				C45.8,101.6,47.5,103.4,47.5,105.5"/>
			<path class="st2" d="M177.1,105.5c0,2.2-1.8,3.9-3.9,3.9c-2.2,0-3.9-1.8-3.9-3.9c0-2.2,1.8-3.9,3.9-3.9
				C175.4,101.6,177.1,103.4,177.1,105.5"/>
			<path class="st2" d="M105.7,137.5v7.4H67.6l0-2.9l21.6-22.8c5.1-5.5,7.5-10,7.5-14.8c0-5.5-3.1-8.6-8.6-8.6c-6,0-9.4,3.6-10.3,11
				l-0.1,0.9h-8.1l0.1-1.1c0.9-11.2,8-18.1,18.4-18.1s17.3,6.3,17.3,16.1c0,6.3-3.7,12.9-11.1,20.3l-13,12.7H105.7z"/>
			<polygon class="st2" points="141.5,89.1 141.4,144.9 132.8,144.9 132.8,98.6 120.8,107.3 120.8,98.6 134,89.1 			"/>
		</g>
		<text transform="matrix(1.0951 -0.1267 0.1149 0.9934 90.8497 49.1337)" class="st3 st4 st5">T</text>
		<text transform="matrix(1.1022 -2.138163e-02 1.939101e-02 0.9998 101.3476 47.9668)" class="st3 st4 st6">E</text>
		<text transform="matrix(1.0983 9.540925e-02 -8.655683e-02 0.9962 111.799 47.7474)" class="st3 st4 st7">N</text>
		<text transform="matrix(1.0894 0.1693 -0.1536 0.9881 123.5866 48.9102)" class="st3 st4 st5"> </text>
		<text transform="matrix(1 0 0 1 66.3667 77.0483)"><tspan x="0" y="0" class="st3 st8 st9 st10">M</tspan><tspan x="19" y="0" class="st3 st8 st9 st10">I</tspan><tspan x="27.6" y="0" class="st3 st8 st9 st10">N</tspan><tspan x="44.2" y="0" class="st3 st8 st9 st10">S</tspan><tspan x="56.6" y="0" class="st3 st8 st9 st10">TE</tspan><tspan x="84" y="0" class="st3 st8 st9"> </tspan></text>
		<text transform="matrix(0.99 0.4851 -0.44 0.898 46.2409 160.4492)" class="st3 st4 st11">D</text>
		<text transform="matrix(1.0283 0.3973 -0.3604 0.9328 56.4266 165.4142)" class="st3 st4 st12">A</text>
		<text transform="matrix(1.0598 0.3034 -0.2752 0.9614 67.0703 169.5109)" class="st3 st4 st11">G</text>
		<text transform="matrix(1.082 0.2113 -0.1917 0.9815 79.0543 172.8379)" class="st3 st4 st13">E</text>
		<text transform="matrix(1.0961 0.1182 -0.1072 0.9942 88.8016 174.7473)" class="st3 st4 st14">N</text>
		<text transform="matrix(1.1012 5.230802e-02 -4.746563e-02 0.9989 100.7757 175.8885)" class="st3 st4 st14"> </text>
		<text transform="matrix(1.1023 -1.382090e-02 1.253465e-02 0.9999 104.4171 176.1628)" class="st3 st4 st11">G</text>
		<text transform="matrix(1.0973 -0.1061 9.626691e-02 0.9954 116.8448 175.9057)" class="st3 st4 st11">E</text>
		<text transform="matrix(1.0854 -0.1926 0.1748 0.9846 126.6492 174.9457)" class="st3 st4 st11">R</text>
		<text transform="matrix(1.0707 -0.2625 0.2381 0.9712 137.4204 172.9223)" class="st3 st4 st11">I</text>
		<text transform="matrix(1.0557 -0.3174 0.2879 0.9576 143.0797 171.5418)" class="st3 st4 st11">J</text>
		<text transform="matrix(1.031 -0.3903 0.3541 0.9352 150.581 169.2969)" class="st3 st4 st12">P</text>
		<text transform="matrix(0.9973 -0.4699 0.4262 0.9046 160.3198 165.5613)" class="st3 st4 st12">T</text>
	</g>
</g>
</svg>
