<?xml version="1.0" encoding="utf-8"?>
<!-- Generator: Adobe Illustrator 23.0.1, SVG Export Plug-In . SVG Version: 6.00 Build 0)  -->
<svg version="1.1" id="Layer_1" xmlns="http://www.w3.org/2000/svg" xmlns:xlink="http://www.w3.org/1999/xlink" x="0px" y="0px"
	 viewBox="0 0 750 1331.7" style="enable-background:new 0 0 750 1331.7;" xml:space="preserve">
<title>05</title>
<path d="M487.9,396.9H482v-2.8h5.2v-2.6H482v-2.7h6v-2.7h-9.1v13.6h9.1L487.9,396.9z M467.9,395.2c-0.4,1.2-1.6,2-2.8,1.9
	c-2.2,0-3.3-1.6-3.3-4.2s1.2-4.4,3.3-4.4c1.3-0.1,2.4,0.9,2.6,2.1l3-1.5c-0.9-2.2-3.1-3.6-5.5-3.4c-4.2,0-6.6,2.5-6.6,7.1
	s2.5,7.1,6.2,7.1c3,0,4.6-1,5.8-3.1L467.9,395.2z M443.5,392.6c0.4-1.3,0.8-2.5,1.1-3.9h0.1c0.2,1.3,0.6,2.6,1,3.9l0.6,1.5H443
	L443.5,392.6z M448.3,399.6h3.4l-5-13.6h-3.9l-4.9,13.6h3.3l1-2.8h5.1L448.3,399.6z M422.7,386v13.6h8.4v-2.7h-5.3V386H422.7z
	 M407.7,399.6v-4.4h2c2.3,0.2,4.4-1.5,4.6-3.8c0-0.3,0-0.5,0-0.8c0-3-1.5-4.6-4.9-4.6h-4.8v13.6L407.7,399.6L407.7,399.6z
	 M407.7,388.6h1.6c1.3,0,1.9,0.7,1.9,2.1s-0.6,1.9-1.9,1.9h-1.6V388.6z M378.2,399.6c3.9,0,6.8-1.9,6.8-6.9c0-4.8-2.9-6.6-6.6-6.6
	h-5v13.6h4.8L378.2,399.6L378.2,399.6z M376.5,396.9v-8.3h1.5c2.2,0,3.7,0.9,3.7,4.2c0,3.2-1.4,4.2-3.9,4.2h-1.3L376.5,396.9
	L376.5,396.9z M354.8,386.1h-2.9v13.5h3.1v-5.4c0-1,0-2-0.1-3.1h0.1c0.4,0.7,0.8,1.4,1.3,2l4.8,6.5h2.9V386h-3.1v5.5
	c0,1.7,0.1,2.9,0.1,2.9h-0.1c-0.3-0.6-0.7-1.3-1.1-1.8L354.8,386.1z M335.9,392.6c0.5-1.3,0.8-2.5,1.1-3.9h0.1
	c0.3,1.3,0.6,2.6,1,3.9l0.6,1.5h-3.3L335.9,392.6z M340.6,399.6h3.4l-5-13.5h-3.9l-5,13.5h3.3l1-2.8h5.2L340.6,399.6z M312,396.9h-6
	v-2.8h5.3v-2.6H306v-2.7h6v-2.7h-9.1v13.6h9.1V396.9z M286.2,386.1v13.5h8.4v-2.7h-5.3V386L286.2,386.1z M271.2,399.6v-4.4h2
	c2.3,0.2,4.4-1.5,4.6-3.8l0,0c0-0.3,0-0.5,0-0.8c0-3-1.5-4.6-4.9-4.6H268v13.6L271.2,399.6L271.2,399.6z M271.2,388.6h1.6
	c1.3,0,1.9,0.7,1.9,2.1s-0.6,1.9-1.9,1.9h-1.6V388.6z M253,388.5c2.1,0,3.2,1.6,3.2,4.3c0,2.7-1,4.3-3.2,4.3s-3.2-1.6-3.2-4.3
	C249.8,390.1,250.8,388.5,253,388.5 M253,399.9c4,0,6.5-2.5,6.5-7.1c0-4.5-2.4-7.1-6.5-7.1s-6.4,2.5-6.4,7.1S249,399.9,253,399.9
	 M238.6,396.9h-5.9v-2.8h5.2v-2.6h-5.2v-2.7h6v-2.7h-9.1v13.6h9.1L238.6,396.9z M214.5,399.6v-4.4h2c2.3,0.2,4.4-1.5,4.6-3.8l0,0
	c0-0.3,0-0.5,0-0.8c0-3-1.5-4.6-4.9-4.6h-4.8v13.6L214.5,399.6L214.5,399.6z M214.5,388.6h1.6c1.3,0,1.9,0.7,1.9,2.1
	s-0.6,1.9-1.9,1.9h-1.6V388.6z M186.2,399.6v-5h5V392h-5v-3.3h5.7V386H183v13.6H186.2z M168,388.5c2.1,0,3.2,1.6,3.2,4.3
	c0,2.7-1,4.3-3.2,4.3s-3.2-1.6-3.2-4.3S165.8,388.5,168,388.5 M168,399.9c4,0,6.5-2.5,6.5-7.1c0-4.5-2.4-7.1-6.5-7.1
	c-4,0-6.4,2.5-6.4,7.1S163.9,399.9,168,399.9"/>
<path d="M476.8,364.3h-6v-2.8h5.3V359h-5.3v-2.7h6v-2.7h-9.1v13.6h9.1V364.3z M448.7,364c0.7,2.4,2.5,3.3,5.2,3.3
	c2.9,0,5.3-1.1,5.3-4c0-2.6-1.5-3.6-4.3-4.5c-1.6-0.5-2.3-0.9-2.3-1.8s0.7-1.3,1.6-1.3c1-0.1,1.9,0.7,2,1.7l0,0l3.1-0.8
	c-0.3-2.6-2.3-3.5-5.1-3.5c-2.4,0-4.8,1-4.8,4.1c0,2.3,1.3,3.5,4.4,4.5c1.8,0.6,2.3,1,2.3,1.8s-0.8,1.3-1.8,1.3
	c-1.3,0-2.4-0.9-2.5-2.2L448.7,364z M437.4,367h3.1v-13.5h-3.1V367z M422,363.9l1.9-3.1c0.4-0.7,0.8-1.3,1-2.1h0.1
	c-0.1,0.8-0.1,1.5-0.1,2.3v6h3.1v-13.5h-3.1l-2.6,4.6c-0.4,0.6-0.7,1.3-1,2h-0.1c-0.2-0.7-0.6-1.4-1-2l-2.6-4.6h-3.2v13.6h3.1v-6
	c0-0.8,0-1.5-0.1-2.3h0.1c0.3,0.7,0.6,1.4,1,2.1l1.9,3.1L422,363.9z M399.4,356c2.1,0,3.2,1.6,3.2,4.3c0,2.7-1,4.3-3.2,4.3
	s-3.2-1.6-3.2-4.3C396.2,357.6,397.3,356,399.4,356 M399.4,367.4c4,0,6.5-2.5,6.5-7.1c0-4.5-2.4-7.1-6.5-7.1c-4,0-6.4,2.5-6.4,7.1
	S395.4,367.4,399.4,367.4 M377.9,356.1h2c1.3,0,1.9,0.6,1.9,1.8c0,1.2-0.7,1.8-1.9,1.8h-2V356.1z M385.8,367.1
	c-0.4-0.4-0.6-0.9-0.8-1.5l-0.7-2.5c-0.2-1.1-1.1-1.9-2.3-2l0,0c1.7-0.1,3.1-1.5,3-3.2l0,0c0-0.1,0-0.1,0-0.2c0-3-1.9-4.2-4.9-4.2
	h-5.3v13.6h3.1v-4.9h1.3c1,0,1.6,0.2,1.8,1.4l0.5,2.1c0.1,0.5,0.3,1,0.7,1.4L385.8,367.1L385.8,367.1z M359.8,367.1v-4.4h2
	c2.3,0.2,4.4-1.5,4.6-3.8c0-0.3,0-0.5,0-0.8c0-3-1.5-4.6-4.9-4.6h-4.8v13.6L359.8,367.1L359.8,367.1z M359.8,356.1h1.6
	c1.3,0,1.9,0.7,1.9,2.1s-0.5,2-1.9,2h-1.6V356.1z M336.8,364.3h-6v-2.8h5.3V359h-5.3v-2.7h6v-2.7h-9.1v13.6h9.1V364.3z M315.6,353.4
	v8.1c0,2-0.5,3.1-2.5,3.1s-2.5-1.2-2.5-3.1v-8.2h-3.1v9c0,3.7,2.6,4.8,5.6,4.8s5.6-1.2,5.6-4.8v-9L315.6,353.4z M292.8,356
	c2.1,0,3.2,1.6,3.2,4.3c0,2.7-1,4.3-3.2,4.3s-3.2-1.6-3.2-4.3C289.6,357.6,290.6,356,292.8,356 M297.6,368.2
	c-1.3,0.2-2.6-0.2-3.6-0.9c3.2-0.5,5.2-2.9,5.2-7c0-4.6-2.4-7.1-6.5-7.1c-4,0-6.4,2.5-6.4,7.1c0,3.9,1.7,6.2,4.7,6.9
	c0.7,2.2,2.4,3.7,5.7,3.7L297.6,368.2z M274.6,367.1h3.1v-13.6h-3.1V367.1z M256.1,353.5h-2.9v13.6h3.1v-5.4c0-1,0-2-0.1-3.1h0.1
	c0.4,0.7,0.8,1.4,1.3,2l4.8,6.5h2.9v-13.6H262v5.5c0,1.7,0.1,2.9,0.1,2.9H262c-0.3-0.6-0.7-1.3-1.1-1.8L256.1,353.5z M241,353.5v8.1
	c0,2-0.5,3.1-2.5,3.1s-2.5-1.2-2.5-3.1v-8.2h-3.1v9c0,3.7,2.6,4.8,5.6,4.8s5.6-1.2,5.6-4.8v-9L241,353.5z M206.1,356.1h2
	c1.3,0,1.9,0.6,1.9,1.8c0,1.2-0.7,1.8-1.9,1.8h-2V356.1z M214,367.1c-0.4-0.4-0.6-0.9-0.8-1.5l-0.7-2.5c-0.2-1.1-1.1-1.9-2.3-2l0,0
	c1.7-0.1,3.1-1.5,3-3.2l0,0c0-0.1,0-0.1,0-0.2c0-3-1.9-4.2-4.9-4.2H203v13.6h3.1v-4.9h1.3c1,0,1.6,0.2,1.8,1.4l0.5,2.1
	c0.1,0.5,0.3,1,0.7,1.4L214,367.1L214,367.1z M190.8,353.5v8.1c0,2-0.5,3.1-2.5,3.1s-2.5-1.2-2.5-3.1v-8.2h-3.1v9
	c0,3.7,2.6,4.8,5.6,4.8s5.6-1.2,5.6-4.8v-9L190.8,353.5z M168,356c2.1,0,3.2,1.6,3.2,4.3c0,2.7-1,4.3-3.2,4.3s-3.2-1.6-3.2-4.3
	S165.9,356,168,356 M168,367.4c4,0,6.5-2.5,6.5-7.1c0-4.5-2.4-7.1-6.5-7.1c-4,0-6.4,2.5-6.4,7.1S164,367.4,168,367.4"/>
<path d="M323.4,986.5c0.7,2.4,2.5,3.3,5.2,3.3c2.9,0,5.3-1,5.3-4c0-2.6-1.5-3.6-4.3-4.5c-1.6-0.5-2.3-0.9-2.3-1.8
	c0-1,0.7-1.3,1.6-1.3c1-0.1,1.9,0.7,2,1.7l0,0l0,0l3.1-0.8c-0.3-2.6-2.3-3.5-5.2-3.5c-2.4,0-4.8,1-4.8,4.1c0,2.3,1.3,3.5,4.4,4.5
	c1.8,0.6,2.3,1,2.3,1.8s-0.8,1.3-1.8,1.3c-1.3,0-2.4-0.9-2.5-2.2L323.4,986.5z M308.5,978.7h2c1.3,0,1.9,0.6,1.9,1.8
	s-0.7,1.8-1.9,1.8h-2V978.7z M316.4,989.6c-0.4-0.4-0.6-0.9-0.8-1.5l-0.7-2.5c-0.2-1.1-1.1-1.9-2.3-2v-0.1c1.7-0.1,3.1-1.5,3-3.2
	l0,0c0-0.1,0-0.1,0-0.2c0-3-1.9-4.2-4.9-4.2h-5.4v13.6h3.1v-4.8h1.3c1,0,1.6,0.2,1.8,1.4l0.5,2.1c0.1,0.5,0.3,1,0.7,1.4H316.4z
	 M296.6,986.9h-6v-2.8h5.3v-2.6h-5.3v-2.8h6V976h-9.1v13.6h9.1V986.9z M270.7,976v13.6h8.4v-2.7h-5.3V976H270.7L270.7,976z M254,976
	v13.6h8.4v-2.7h-5.3V976H254L254,976z M245.2,986.9h-6v-2.8h5.3v-2.6h-5.3v-2.7h6v-2.7h-9.1v13.6h9.1V986.9z M218.8,976h-3.3
	l4.5,13.6h3.8l4.5-13.6H225l-2.2,7.3c-0.3,1.2-0.6,2.4-0.7,3.6H222c-0.1-1.2-0.4-2.4-0.8-3.6L218.8,976z M202.1,982.6
	c0.5-1.3,0.8-2.5,1.1-3.9h0.1c0.2,1.3,0.6,2.6,1,3.9l0.6,1.5h-3.4L202.1,982.6z M206.8,989.6h3.4l-5-13.6h-3.9l-4.9,13.6h3.3l1-2.8
	h5.2L206.8,989.6z M181.8,978.7h2.1c1.3,0,1.9,0.6,1.9,1.8s-0.7,1.8-1.9,1.8h-2.1V978.7z M189.7,989.6c-0.4-0.4-0.6-0.9-0.8-1.5
	l-0.7-2.5c-0.2-1.1-1.1-1.9-2.3-2v-0.1c1.7-0.1,3.1-1.5,3-3.2l0,0c0-0.1,0-0.1,0-0.2c0-3-1.9-4.2-4.9-4.2h-5.4v13.6h3.1v-4.8h1.3
	c1,0,1.6,0.2,1.8,1.4l0.5,2.1c0.1,0.5,0.3,1,0.7,1.4H189.7z M167,989.6v-10.9h3.8V976h-10.6v2.7h3.7v10.9L167,989.6L167,989.6z"/>
<path d="M452.9,943.5v13.6h8.4v-2.7H456v-10.9L452.9,943.5L452.9,943.5z M436.9,950.1c0.4-1.3,0.8-2.5,1.1-3.9h0.1
	c0.3,1.3,0.6,2.6,1,3.9l0.6,1.5h-3.3L436.9,950.1z M441.6,957.1h3.4l-5-13.6h-3.9l-4.9,13.6h3.3l1-2.8h5.2L441.6,957.1z
	 M414.3,943.5h-2.9v13.6h3.1v-5.4c0-1,0-2.1-0.1-3.1h0.1c0.4,0.7,0.8,1.4,1.3,2l4.8,6.5h2.9v-13.6h-3.1v5.5c0,1.7,0.1,2.9,0.1,2.9
	h-0.1c-0.3-0.6-0.7-1.3-1.1-1.8L414.3,943.5z M396.3,946c2.1,0,3.2,1.6,3.2,4.3s-1,4.3-3.2,4.3s-3.2-1.6-3.2-4.3
	C393.1,947.7,394.1,946,396.3,946 M396.3,957.4c4,0,6.5-2.5,6.5-7.1c0-4.5-2.4-7.1-6.5-7.1s-6.4,2.5-6.4,7.1
	C389.8,954.9,392.3,957.4,396.3,957.4 M378.1,957.1h3.1v-13.6h-3.1V957.1z M366.4,957.1v-10.9h3.8v-2.7h-10.6v2.7h3.7v10.9H366.4z
	 M346.3,950.1c0.5-1.3,0.8-2.5,1.1-3.9h0.1c0.2,1.3,0.6,2.6,1,3.9l0.6,1.5h-3.4L346.3,950.1z M351.1,957.1h3.4l-5-13.6h-3.9
	l-4.9,13.6h3.3l1-2.8h5.2L351.1,957.1z M323.7,943.5h-3v13.6h3.1v-5.4c0-1,0-2.1-0.1-3.1h0.1c0.4,0.7,0.8,1.4,1.3,2l4.8,6.5h2.9
	v-13.6h-3.1v5.5c0,1.7,0.1,2.9,0.1,2.9h-0.1c-0.3-0.6-0.7-1.3-1.1-1.8L323.7,943.5z M304.6,946.1h2c1.3,0,1.9,0.6,1.9,1.8
	s-0.7,1.8-1.9,1.8h-2V946.1z M312.5,957.1c-0.4-0.4-0.6-0.9-0.8-1.4l-0.7-2.6c-0.2-1.1-1.1-1.9-2.3-2l0,0c1.7-0.1,3.1-1.5,3-3.2l0,0
	c0-0.1,0-0.1,0-0.2c0-3-1.9-4.2-4.9-4.2h-5.3v13.6h3.1v-4.8h1.3c1,0,1.6,0.2,1.8,1.4l0.5,2.1c0.1,0.5,0.3,1,0.7,1.4L312.5,957.1z
	 M292.7,954.4h-6v-2.8h5.3V949h-5.3v-2.7h6v-2.7h-9.1v13.5h9.1V954.4z M271.9,957.1v-10.9h3.8v-2.7h-10.6v2.7h3.7v10.9H271.9z
	 M248.1,943.5h-3v13.6h3.1v-5.4c0-1,0-2.1-0.1-3.1h0.1c0.4,0.7,0.8,1.4,1.3,2l4.8,6.5h2.9v-13.6H254v5.5c0,1.7,0.1,2.9,0.1,2.9H254
	c-0.3-0.6-0.7-1.3-1.1-1.8L248.1,943.5z M232.6,957.1h3.1v-13.6h-3.1V957.1z M205.5,946.1h2c1.3,0,1.9,0.6,1.9,1.8s-0.7,1.8-1.9,1.8
	h-2V946.1z M213.4,957.1c-0.4-0.4-0.6-0.9-0.8-1.4l-0.7-2.5c-0.2-1.1-1.1-1.9-2.3-2l0,0c1.7-0.1,3.1-1.5,3-3.2l0,0
	c0-0.1,0-0.1,0-0.2c0-3-1.9-4.2-4.9-4.2h-5.3v13.5h3.1v-4.8h1.3c1,0,1.6,0.2,1.8,1.4l0.5,2.1c0.1,0.5,0.3,1,0.7,1.4L213.4,957.1z
	 M190.2,943.5v8.1c0,2-0.5,3.1-2.5,3.1s-2.5-1.2-2.5-3.1v-8.2h-3.1v9c0,3.7,2.6,4.8,5.6,4.8s5.6-1.2,5.6-4.8v-9L190.2,943.5z
	 M167.4,946c2.1,0,3.2,1.6,3.2,4.3s-1,4.3-3.2,4.3s-3.2-1.6-3.2-4.3C164.2,947.7,165.2,946,167.4,946 M167.4,957.4
	c4,0,6.5-2.5,6.5-7.1c0-4.5-2.4-7.1-6.5-7.1s-6.4,2.5-6.4,7.1S163.3,957.4,167.4,957.4"/>
<path d="M454.1,924.6v-5.1h5V917h-5v-3.2h5.7V911H451v13.6H454.1z M435.9,913.5c2.1,0,3.2,1.6,3.2,4.3s-1,4.3-3.2,4.3
	s-3.2-1.6-3.2-4.3S433.7,913.5,435.9,913.5 M435.9,924.9c4,0,6.5-2.5,6.5-7.1c0-4.5-2.4-7.1-6.5-7.1s-6.4,2.5-6.4,7.1
	S431.9,924.9,435.9,924.9 M410.5,921.9h-6v-2.8h5.3v-2.6h-5.3v-2.7h6v-2.7h-9.1v13.6h9.1V921.9z M382.9,911H380v13.6h3.1v-5.4
	c0-1,0-2-0.1-3.1h0.1c0.4,0.7,0.8,1.4,1.3,2l4.8,6.5h2.9V911H389v5.5c0,1.7,0.1,2.9,0.1,2.9H389c-0.3-0.6-0.7-1.3-1.1-1.8L382.9,911
	z M364.9,913.5c2.1,0,3.2,1.6,3.2,4.3s-1,4.3-3.2,4.3s-3.2-1.6-3.2-4.3S362.7,913.5,364.9,913.5 M364.9,924.9c4,0,6.5-2.5,6.5-7.1
	c0-4.5-2.4-7.1-6.5-7.1s-6.4,2.5-6.4,7.1S360.8,924.9,364.9,924.9 M332.9,921.5l1.9-3.1c0.4-0.7,0.8-1.4,1-2.1h0.1
	c-0.1,0.8-0.1,1.5-0.1,2.3v6h3.1V911h-3.1l-2.6,4.6c-0.4,0.6-0.7,1.3-1,2h-0.1c-0.2-0.7-0.6-1.4-1-2l-2.6-4.6h-3.2v13.6h3.1v-6.1
	c0-0.8,0-1.5-0.1-2.3h0.1c0.3,0.7,0.6,1.4,1,2.1l1.9,3.1L332.9,921.5z M310.3,913.5c2.1,0,3.2,1.6,3.2,4.3s-1,4.3-3.2,4.3
	s-3.2-1.6-3.2-4.3S308.2,913.5,310.3,913.5 M310.3,924.9c4,0,6.5-2.5,6.5-7.1c0-4.5-2.4-7.1-6.5-7.1c-4,0-6.4,2.5-6.4,7.1
	S306.3,924.9,310.3,924.9 M288.8,913.7h2c1.3,0,1.9,0.6,1.9,1.8s-0.7,1.8-1.9,1.8h-2V913.7z M296.6,924.6c-0.4-0.4-0.6-0.9-0.8-1.5
	l-0.7-2.5c-0.2-1.1-1.1-1.9-2.3-2v-0.1c1.7-0.1,3.1-1.5,3-3.2l0,0c0-0.1,0-0.1,0-0.2c0-3-1.9-4.2-4.9-4.2h-5.4v13.6h3.1v-4.8h1.3
	c1,0,1.6,0.2,1.8,1.4l0.5,2.1c0.1,0.5,0.3,1,0.7,1.4H296.6z M271.5,924.6v-5.1h5V917h-5v-3.2h5.7V911h-8.9v13.6H271.5z M248.6,921.9
	h-6v-2.8h5.3v-2.6h-5.3v-2.7h6v-2.7h-9.1v13.6h9.1V921.9z M227.8,924.6v-10.9h3.8V911H221v2.7h3.7v10.9L227.8,924.6L227.8,924.6z
	 M208,913.5c2.1,0,3.2,1.6,3.2,4.3s-1,4.3-3.2,4.3s-3.2-1.6-3.2-4.3S205.8,913.5,208,913.5 M208,924.9c4,0,6.5-2.5,6.5-7.1
	c0-4.5-2.4-7.1-6.5-7.1s-6.4,2.5-6.4,7.1S203.9,924.9,208,924.9 M190.2,911v8.1c0,2-0.5,3.1-2.5,3.1s-2.5-1.2-2.5-3.1v-8.2h-3.1v9
	c0,3.7,2.6,4.8,5.6,4.8s5.6-1.2,5.6-4.8v-9L190.2,911z M167.3,913.5c2.1,0,3.2,1.6,3.2,4.3s-1,4.3-3.2,4.3s-3.2-1.6-3.2-4.3
	S165.2,913.5,167.3,913.5 M172.2,925.8c-1.3,0.2-2.5-0.2-3.6-0.9c3.2-0.5,5.2-2.9,5.2-7c0-4.6-2.4-7.1-6.5-7.1c-4,0-6.4,2.5-6.4,7.1
	c0,3.9,1.7,6.2,4.7,6.9c0.7,2.2,2.3,3.7,5.7,3.7L172.2,925.8z"/>
<g>
	<path d="M488.8,783c0,1.7,1.4,3.1,3.1,3.1s3.1-1.4,3.1-3.1c0-1.7-1.4-3.1-3.1-3.1S488.8,781.3,488.8,783 M479.4,770.2
		c-0.5-1.6-2.5-2.8-4.8-2.8c-5.2,0-8.1,3.7-8.1,9.8s3.2,9.2,7.2,9.2c2.7,0,4.9-0.9,5.7-3.6l0.6,3.1h4v-26.2h-4.6V770.2z
		 M479.4,778.5c0.2,2.2-1.5,4.1-3.7,4.3l0,0h-0.2c-2.6,0-4.3-2.1-4.3-5.7c0-4.5,2.1-6.1,4.3-6.1c2-0.1,3.8,1.5,3.9,3.5l0,0
		c0,0.2,0,0.3,0,0.5L479.4,778.5z M451.5,767.8h-3.9v18.1h4.6v-10.1c0-3.4,1.8-4.5,3.6-4.5c1.9,0,2.7,1.3,2.7,3.4V786h4.7v-12.8
		c0-4-2.5-5.7-5.4-5.7c-2.6-0.2-5,1.4-5.8,3.9L451.5,767.8z M438.1,785.9h4.6v-18.1H438L438.1,785.9z M437.5,762.2
		c0,1.5,1.2,2.7,2.7,2.7l0,0c0.1,0,0.1,0,0.2,0c1.5-0.1,2.7-1.4,2.7-2.9c-0.1-1.5-1.4-2.7-2.9-2.7
		C438.7,759.5,437.5,760.7,437.5,762.2 M422.5,771.4c-0.5-2.9-2.4-4-4.8-4c-2.5-0.2-4.9,1.5-5.6,3.9l-0.6-3.5h-3.9v18.1h4.7v-10.1
		c0-3.3,1.6-4.5,3.4-4.5c1.9,0,2.6,1.3,2.6,3.4V786h4.7v-10.1c0-3.3,1.6-4.5,3.3-4.5c1.9,0,2.6,1.3,2.6,3.4V786h4.6v-12.9
		c0-4-2.3-5.6-5.2-5.6C425.7,767.3,423.3,768.9,422.5,771.4 M396.7,767.4c-4.5-0.2-6.5,2.1-7.2,5.3l-0.6-4.9h-4v18.1h4.7v-8.5
		c-0.2-2.5,1.6-4.7,4.1-5l0,0c0.2,0,0.4,0,0.6,0c0.6,0,1.3,0.1,1.9,0.2L396.7,767.4z M376.1,785.9h4v-18.1h-4.7v10
		c0,3.5-1.7,5-3.6,5c-1.9,0-2.7-1.2-2.7-3.5v-11.5h-4.6v12.7c0,4.2,2.2,5.9,5.4,5.9s4.9-1.3,5.6-3.8L376.1,785.9z M352.6,771.1
		c2.7,0,4,1.8,4,5.7s-1.3,5.9-4,5.9s-4-1.9-4-5.9S350,771.1,352.6,771.1 M352.6,786.4c5.2,0,8.6-3.4,8.6-9.6c0-6.1-3.4-9.3-8.6-9.3
		s-8.6,3.2-8.6,9.3C344.1,782.9,347.5,786.4,352.6,786.4 M330.2,767.8h-5.1l6.7,19.1c-0.9,2.4-1.9,3.2-3.6,3.2
		c-0.8,0-1.6-0.2-2.4-0.6l-0.6,4.1c1,0.3,2,0.4,3,0.4c3.6,0,6-1,8-6.6l7-19.6h-5l-2.7,8.8c-0.6,1.9-1,3.8-1.3,5.8H334
		c-0.3-2-0.7-3.9-1.3-5.8L330.2,767.8z M305.5,767.8h-4.4l-2.1,7.9c-0.5,2.2-0.9,4.5-1.1,6.7h-0.2c-0.2-2.3-0.6-4.5-1.1-6.7
		l-2.1-7.9h-4.8l5,18.1h5.5l1.8-7.1c0.5-1.9,0.8-3.9,1-5.8h0.2c0.2,2,0.5,3.9,1,5.8l2,7.2h5.6l4.8-18.1h-4.7l-2,7.9
		c-0.5,2.2-0.9,4.4-1,6.7h-0.1c-0.2-2.3-0.6-4.5-1.2-6.7L305.5,767.8z M279.9,771.1c2.7,0,4,1.8,4,5.7s-1.3,5.9-4,5.9
		s-3.9-1.9-3.9-5.9S277.3,771.1,279.9,771.1 M279.9,786.4c5.2,0,8.6-3.4,8.6-9.6c0-6.1-3.4-9.3-8.6-9.3s-8.6,3.2-8.6,9.3
		S274.7,786.4,279.9,786.4 M269.7,781.9c-0.4,0.2-0.9,0.3-1.4,0.3c-0.8,0.1-1.5-0.5-1.6-1.3c0-0.1,0-0.2,0-0.3v-20.8h-4.6v22.1
		c0,3.1,2.2,4.4,4.7,4.4c0.9,0,1.9-0.2,2.7-0.4L269.7,781.9z M245.6,783.3c0.6,1.7,2.3,3.1,5.4,3.1c4.9,0,7.7-4.2,7.7-9.9
		c0-5.8-2.6-9-7-9c-2.6-0.2-5,1.4-5.8,3.8v-11.5h-4.7v26.1h3.2L245.6,783.3z M245.9,775.7c0-2.9,2-4.6,4.2-4.6c2.5,0,4,1.8,4,5.7
		c0,4.2-2,6.1-4.4,6.1c-1.7,0-3.8-1-3.8-4.3V775.7z M229.4,781.3c-0.9,0.7-2,1-3.1,1c-1.5,0-2.3-0.7-2.3-2.6v-8.3h5.4v-3.6H224v-4.4
		l-4.7,0.6v3.8h-2.7v3.6h2.7v9.3c0,3.9,2.2,5.6,5.7,5.6c1.8,0,3.6-0.3,5.2-1.1L229.4,781.3z M213.5,773.2c0-4.1-2.7-5.8-6.9-5.8
		c-3.9,0-7.2,1.6-7.4,5.5l4.6,0.8c0.1-1.7,1-2.7,2.6-2.7s2.5,0.9,2.5,2.7v1.9c-7.1-0.4-10.3,1.8-10.3,5.9c0,3.1,2.2,4.9,5.4,4.9
		c2.4,0,4.4-0.8,5.3-3c0.5,2,1.9,2.9,4.2,2.9c0.9,0.1,1.8-0.1,2.6-0.6v-3.4c-0.3,0.2-0.7,0.3-1.1,0.3c-0.8,0-1.3-0.4-1.3-1.7
		L213.5,773.2z M208.9,780.3c0,1.9-1.8,2.7-3.3,2.7c-1.1,0.1-2.2-0.7-2.3-1.8c0-0.1,0-0.2,0-0.2c0-1.8,1.6-2.9,5.6-2.7V780.3z
		 M184.4,759.7h-4.7v26.1h4.7v-10.1c0-3.5,1.8-4.5,3.6-4.5s2.7,1.3,2.7,3.4v11.2h4.7v-12.7c0-4-2.5-5.7-5.4-5.7
		c-2.5-0.2-4.9,1.4-5.6,3.9V759.7z M176.1,781.3c-0.9,0.7-2,1-3.1,1c-1.5,0-2.3-0.7-2.3-2.6v-8.3h5.4v-3.6h-5.3v-4.4l-4.6,0.6v3.8
		h-2.6v3.6h2.6v9.3c0,3.9,2.2,5.6,5.7,5.6c1.8,0,3.6-0.3,5.2-1.1L176.1,781.3z"/>
</g>
<g>
	<path d="M471.3,737.7c0.6,3.4,3.2,4.6,7.5,4.6s7.5-1.5,7.5-5.5c0-3.1-1.7-4.9-5.2-5.7l-2.5-0.6c-1.4-0.3-2-0.9-2-1.9
		s0.9-1.8,2.4-1.8c1.7,0,2.6,0.6,2.7,2.1l4.4-0.6c-0.3-3.5-2.8-5-6.9-5c-3.6,0-7.2,1.3-7.2,5.7c0,2.7,1.4,4.5,4.6,5.3l2.7,0.6
		c1.8,0.5,2.5,1,2.5,2.2s-1.2,1.8-2.9,1.8c-1.7,0-3.3-0.8-3.6-2.8L471.3,737.7z M457.9,730.9c0.3-2.5,1.6-4,3.8-4
		c1.7-0.1,3.2,1.3,3.2,3l0,0c0,0.1,0,0.2,0,0.4s0,0.4,0,0.7h-7V730.9z M462,738.8c-2.6,0-4-2.1-4.2-5h11.3c0.2-0.8,0.3-1.6,0.3-2.4
		c0-4.6-2.5-7.9-7.5-7.9c-5.3,0-8.6,3.5-8.6,9.7c0,5.9,3.4,9.3,8.5,9.3c3.5,0,6.7-1.3,7.6-4.9l-4-1.3
		C465.1,737.8,463.6,738.9,462,738.8 M447.3,735.9c-0.5,2.1-1.6,2.8-3.2,2.8c-2.5,0-4.1-2.3-4.1-5.8c0-3.6,1.4-5.8,4-5.8
		c1.8,0,2.8,1.1,3.1,3.2l4-1c-0.2-3.6-2.9-5.8-7-5.8c-5.2,0-8.6,3.5-8.6,9.5s3.4,9.4,8.5,9.4c3.7,0,6.8-1.6,7.4-5.2L447.3,735.9z
		 M420.4,723.8h-3.9v18.1h4.7v-10.1c0-3.4,1.8-4.5,3.6-4.5c1.9,0,2.6,1.3,2.6,3.4V742h4.7v-12.8c0-4-2.5-5.7-5.4-5.7
		c-2.6-0.2-5,1.4-5.8,3.9L420.4,723.8z M401.3,730.9c0.3-2.5,1.6-4,3.8-4c1.7-0.1,3.2,1.3,3.2,3l0,0c0,0.1,0,0.2,0,0.4s0,0.4,0,0.7
		L401.3,730.9z M405.4,738.7c-2.6,0-4-2.1-4.2-5h11.3c0.2-0.8,0.3-1.6,0.3-2.4c0-4.6-2.5-7.9-7.5-7.9c-5.3,0-8.6,3.5-8.6,9.7
		c0,5.9,3.4,9.3,8.5,9.3c3.5,0,6.7-1.3,7.6-4.9l-4-1.3C408.5,737.7,407,738.8,405.4,738.7 M388.5,741.8h4.7v-18h-4.7V741.8z
		 M387.9,718.2c0,1.5,1.2,2.7,2.7,2.7l0,0h0.2c1.5-0.1,2.7-1.4,2.7-2.9c-0.1-1.5-1.4-2.7-2.9-2.7C389,715.4,387.8,716.7,387.9,718.2
		 M385.7,723.4c-4.5-0.2-6.5,2.2-7.2,5.3l-0.6-4.9h-4v18.1h4.7v-8.6c-0.2-2.5,1.6-4.7,4.2-5c0.2,0,0.4,0,0.6,0
		c0.6,0,1.3,0.1,1.9,0.2L385.7,723.4z M358.8,730.9c0.3-2.5,1.6-4,3.8-4c1.7-0.1,3.2,1.3,3.2,3l0,0c0,0.1,0,0.2,0,0.4s0,0.4,0,0.7
		L358.8,730.9z M362.8,738.7c-2.6,0-4-2.1-4.2-5h11.3c0.2-0.8,0.3-1.6,0.3-2.4c0-4.6-2.5-7.9-7.5-7.9c-5.3,0-8.6,3.5-8.6,9.7
		c0,5.9,3.4,9.3,8.5,9.3c3.5,0,6.7-1.3,7.6-4.9l-4-1.3C365.9,737.7,364.4,738.9,362.8,738.7 M338.9,739.5c0.6,1.5,2.3,2.9,5.1,2.9
		c4.9,0,7.8-4.2,7.8-9.9s-2.6-9-7-9c-2.6-0.2-5.1,1.4-5.9,3.9l-0.6-3.5h-3.9v26h4.7L338.9,739.5z M338.9,731.8c0-3.1,2-4.7,4.2-4.7
		c2.5,0,4,1.8,4,5.7c0,4.2-2,6.1-4.4,6.1c-1.7,0-3.8-1.1-3.8-4.3V731.8z M326.6,741.9h5.2l-5.9-9.2l5.6-8.9h-5l-1.8,3
		c-0.7,1.1-1.2,2.3-1.6,3.5h-0.2c-0.4-1.2-1-2.4-1.6-3.5l-1.7-3h-5.4l5.5,9l-5.9,9h5l2.2-3.6c0.7-1,1.2-2.1,1.6-3.2h0.2
		c0,0,0,0.9,1.5,3.2L326.6,741.9z M301.4,730.9c0.3-2.5,1.6-4,3.8-4c1.7-0.1,3.2,1.3,3.2,3l0,0c0,0.1,0,0.2,0,0.4s0,0.4,0,0.7
		L301.4,730.9z M305.5,738.7c-2.6,0-4-2.1-4.2-5h11.3c0.2-0.8,0.3-1.6,0.3-2.4c0-4.6-2.5-7.9-7.5-7.9c-5.3,0-8.6,3.5-8.6,9.7
		c0,5.9,3.4,9.3,8.5,9.3c3.5,0,6.7-1.3,7.6-4.9l-4-1.3C308.6,737.7,307.1,738.9,305.5,738.7 M278.7,727.4v14.4h4.6v-14.4h4.6v-3.6
		h-4.6v-1.4c0-2.3,1-3,2.7-3c1.1,0,2.1,0.3,3,0.8l0.7-3.9c-1.3-0.6-2.7-0.8-4.2-0.8c-3.7,0-6.9,1.8-6.9,6.8v1.6h-2.7v3.6
		L278.7,727.4z M266,727.1c2.7,0,4,1.8,4,5.7s-1.3,5.9-4,5.9s-4-1.9-4-5.9S263.3,727.1,266,727.1 M266,742.3c5.2,0,8.6-3.4,8.6-9.6
		c0-6.1-3.4-9.3-8.6-9.3s-8.6,3.2-8.6,9.3C257.4,738.9,260.8,742.3,266,742.3 M231.9,737.7c0.6,3.4,3.2,4.6,7.5,4.6s7.5-1.5,7.5-5.5
		c0-3.1-1.7-4.9-5.2-5.7l-2.5-0.6c-1.5-0.3-2-0.9-2-1.9s0.9-1.8,2.4-1.8c1.7,0,2.6,0.6,2.7,2.1l4.4-0.6c-0.3-3.5-2.8-5-6.9-5
		c-3.6,0-7.2,1.3-7.2,5.7c0,2.7,1.4,4.5,4.6,5.3l2.7,0.6c1.8,0.5,2.5,1,2.5,2.2s-1.2,1.8-2.9,1.8c-1.8,0-3.3-0.8-3.6-2.8
		L231.9,737.7z M224.2,726.2c-0.5-1.6-2.5-2.8-4.8-2.8c-5.2,0-8.1,3.7-8.1,9.8s3.2,9.2,7.2,9.2c2.7,0,4.9-0.9,5.7-3.6l0.6,3.1h4.2
		v-26.1h-4.7L224.2,726.2z M224.2,734.5c0.1,2.2-1.5,4.1-3.7,4.3l0,0h-0.2c-2.6,0-4.3-2.1-4.3-5.7c0-4.5,2.1-6.1,4.3-6.1
		c2-0.1,3.8,1.5,3.9,3.5l0,0c0,0.2,0,0.3,0,0.5V734.5z M196.2,723.8h-3.9v18.1h4.7v-10.1c0-3.4,1.8-4.5,3.6-4.5s2.7,1.3,2.7,3.4V742
		h4.6v-12.8c0-4-2.5-5.7-5.4-5.7c-2.6-0.2-5,1.4-5.8,3.9L196.2,723.8z M182.9,741.9h4.7v-18.1h-4.7V741.9z M182.4,718.2
		c0,1.5,1.2,2.7,2.7,2.7l0,0h0.2c1.5-0.1,2.7-1.4,2.7-2.9c-0.1-1.5-1.4-2.7-2.9-2.7C183.5,715.5,182.3,716.7,182.4,718.2
		 M173.2,732.2l6.6-8.4h-5.5l-5.1,6.8h-1v-14.9h-4.6v26.1h4.6v-7.7h1.1l5.5,7.7h5.5L173.2,732.2z"/>
</g>
<g>
	<path d="M454.6,686.9c0.3-2.5,1.6-4,3.8-4c1.7-0.1,3.2,1.3,3.2,3l0,0c0,0.1,0,0.2,0,0.4s0,0.4,0,0.7L454.6,686.9z M458.6,694.8
		c-2.6,0-4-2.1-4.2-5.1h11.3c0.2-0.8,0.3-1.6,0.3-2.4c0-4.6-2.5-7.9-7.5-7.9c-5.3,0-8.6,3.5-8.6,9.7c0,5.9,3.4,9.3,8.5,9.3
		c3.5,0,6.7-1.3,7.6-4.9l-4-1.3C461.8,693.7,460.3,694.9,458.6,694.8 M432.7,693.7c0.6,3.4,3.1,4.6,7.5,4.6s7.5-1.5,7.5-5.5
		c0-3.1-1.7-4.9-5.2-5.7l-2.5-0.6c-1.4-0.3-2-0.9-2-1.9s0.9-1.8,2.4-1.8c1.7,0,2.6,0.6,2.7,2.1l4.4-0.6c-0.3-3.5-2.8-5-6.9-5
		c-3.6,0-7.2,1.3-7.2,5.7c0,2.7,1.4,4.5,4.6,5.3l2.7,0.6c1.8,0.5,2.5,1,2.5,2.2s-1.2,1.8-2.9,1.8s-3.3-0.8-3.6-2.8L432.7,693.7z
		 M419.4,686.9c0.3-2.5,1.6-4,3.8-4c1.7-0.1,3.2,1.3,3.2,3l0,0c0,0.1,0,0.2,0,0.4s0,0.4,0,0.7L419.4,686.9z M423.4,694.7
		c-2.6,0-4-2.1-4.2-5.1h11.3c0.2-0.8,0.3-1.6,0.3-2.4c0-4.6-2.5-7.9-7.5-7.9c-5.3,0-8.6,3.5-8.6,9.7c0,5.9,3.4,9.3,8.5,9.3
		c3.5,0,6.7-1.3,7.6-4.9l-4-1.3C426.5,693.7,425,694.9,423.4,694.7 M400.4,671.7h-4.7v26.1h4.7v-10.1c0-3.5,1.8-4.5,3.6-4.5
		c1.9,0,2.7,1.3,2.7,3.4v11.2h4.6v-12.9c0-4-2.5-5.7-5.4-5.7c-2.5-0.2-4.9,1.4-5.6,3.9L400.4,671.7L400.4,671.7z M392.1,693.3
		c-0.9,0.7-2,1-3.1,1c-1.5,0-2.3-0.7-2.3-2.6v-8.3h5.4v-3.6h-5.4v-4.4l-4.6,0.5v3.8h-2.7v3.6h2.7v9.3c0,3.9,2.2,5.6,5.7,5.6
		c1.8,0,3.6-0.3,5.2-1.1L392.1,693.3z M355,693.7c0.6,3.4,3.2,4.6,7.5,4.6s7.5-1.5,7.5-5.5c0-3.1-1.7-4.9-5.2-5.7l-2.5-0.6
		c-1.4-0.3-2-0.9-2-1.9s0.9-1.8,2.4-1.8c1.7,0,2.6,0.6,2.7,2.1l4.4-0.6c-0.3-3.5-2.8-5-6.9-5c-3.6,0-7.2,1.3-7.2,5.7
		c0,2.7,1.4,4.5,4.6,5.3l2.7,0.6c1.8,0.5,2.5,1,2.5,2.2s-1.2,1.8-2.9,1.8s-3.3-0.8-3.6-2.8L355,693.7z M355.6,675.3
		c0-2.4-1.5-4-3.5-4c-1.5-0.2-2.9,0.9-3.1,2.4l0,0c0,0.1,0,0.3,0,0.4c0,1.5,1.2,2.7,2.6,2.7c0.2,0,0.4,0,0.7-0.1
		c0,1.8-1.4,2.7-3.5,2.9v2C352.7,681.5,355.5,679.8,355.6,675.3 M346.2,693.3c-0.9,0.7-2,1-3.1,1c-1.4,0-2.3-0.7-2.3-2.6v-8.3h5.4
		v-3.6h-5.4v-4.4l-4.7,0.5v3.8h-2.7v3.6h2.6v9.3c0,3.9,2.2,5.6,5.7,5.6c1.8,0.1,3.6-0.3,5.2-1.1L346.2,693.3z M326.3,697.9h4.7v-18
		h-4.7V697.9z M325.7,674.2c0,1.5,1.2,2.7,2.7,2.7l0,0h0.2c1.5-0.1,2.7-1.4,2.7-2.9c-0.1-1.5-1.4-2.7-2.9-2.7
		C326.9,671.4,325.7,672.7,325.7,674.2 M315.3,695c0,1.7,1.4,3.1,3.1,3.1s3.1-1.4,3.1-3.1s-1.4-3.1-3.1-3.1
		C316.7,691.8,315.3,693.2,315.3,695 M304.4,695c0,1.7,1.4,3.1,3.1,3.1s3.1-1.4,3.1-3.1s-1.4-3.1-3.1-3.1
		C305.8,691.8,304.4,693.2,304.4,695 M293.4,695c0,1.7,1.4,3.1,3.1,3.1s3.1-1.4,3.1-3.1s-1.4-3.1-3.1-3.1
		C294.8,691.8,293.4,693.2,293.4,695 M289.1,693.2c-0.9,0.7-2,1-3.1,1c-1.5,0-2.3-0.7-2.3-2.6v-8.3h5.4v-3.5h-5.4v-4.4l-4.7,0.5v3.8
		h-2.7v3.6h2.6v9.3c0,3.9,2.2,5.6,5.7,5.6c1.8,0.1,3.6-0.3,5.2-1.1L289.1,693.2z M263.1,671.7h-4.7v26.1h4.7v-10.1
		c0-3.5,1.8-4.5,3.6-4.5c1.9,0,2.7,1.3,2.7,3.4v11.2h4.7V685c0-4-2.5-5.7-5.4-5.7c-2.5-0.2-4.9,1.4-5.6,3.9L263.1,671.7z M243,685.7
		c0-1.7,1.4-3.1,3.1-3.1s3.1,1.4,3.1,3.1c0,1.7-1.4,3.1-3.1,3.1S243,687.4,243,685.7 M241.4,700.7c0-1.3,1.2-2,3.1-2h4.3
		c1.8,0,2.5,0.6,2.5,1.8c0,1.7-1.7,2.4-5.4,2.4C243.1,702.9,241.4,702.2,241.4,700.7 M246,679.3c-4.6,0-7.8,2.2-7.8,6.4
		c-0.2,2.4,1.4,4.7,3.7,5.5c-1.7,0.3-2.9,1.7-2.9,3.4c-0.1,1.6,1.2,3,2.8,3.1c-3.1,0.2-4.7,1.6-4.7,3.8c0,3.6,4,4.6,8.3,4.6
		c5.1,0,10.3-1.3,10.3-6.3c0-3.2-2.3-5.2-6.4-5.2h-4.9c-1,0-1.6-0.5-1.6-1.3c0-0.7,0.4-1.3,1-1.6c0.7,0.2,1.5,0.3,2.2,0.3
		c4.4,0,8-2.1,8-6.2c0-1.1-0.2-2.3-0.8-3.2c1.6-0.4,2.9-1.7,3.2-3.4l-3.8-1.3c-0.1,1.1-0.6,2-1.4,2.7
		C249.6,679.7,247.8,679.3,246,679.3 M231,697.9h4v-18.1h-4.7v10c0,3.5-1.7,5-3.6,5s-2.7-1.2-2.7-3.5v-11.5h-4.6v12.7
		c0,4.2,2.2,5.9,5.4,5.9s4.9-1.3,5.6-3.8L231,697.9z M207.5,683.1c2.7,0,4,1.8,4,5.7s-1.3,5.9-4,5.9s-3.9-1.9-3.9-5.9
		S204.9,683.1,207.5,683.1 M207.5,698.3c5.2,0,8.6-3.4,8.6-9.6c0-6.1-3.4-9.3-8.6-9.3c-5.2,0-8.6,3.2-8.6,9.3
		C199,694.8,202.4,698.3,207.5,698.3 M184.6,671.7h-4.7v26.1h4.7v-10.1c0-3.5,1.8-4.5,3.6-4.5s2.7,1.3,2.7,3.4v11.2h4.6v-12.9
		c0-4-2.5-5.7-5.4-5.7c-2.5-0.2-4.9,1.4-5.6,3.9L184.6,671.7L184.6,671.7z M176.3,693.3c-0.9,0.7-2,1-3.1,1c-1.4,0-2.3-0.7-2.3-2.6
		v-8.3h5.4v-3.6h-5.4v-4.4l-4.6,0.6v3.8h-2.7v3.6h2.7v9.3c0,3.9,2.2,5.6,5.7,5.6c1.8,0,3.6-0.3,5.2-1.1L176.3,693.3z"/>
</g>
<g>
	<path d="M430.4,638.2c-0.5-1.6-2.5-2.8-4.8-2.8c-5.2,0-8.1,3.7-8.1,9.8s3.2,9.2,7.2,9.2c2.7,0,4.9-0.9,5.7-3.6l0.6,3.1h4.1v-26.1
		h-4.7V638.2L430.4,638.2z M430.4,646.5c0.1,2.2-1.5,4.1-3.7,4.3l0,0h-0.2c-2.6,0-4.3-2.1-4.3-5.7c0-4.5,2.1-6.1,4.3-6.1
		c2-0.1,3.8,1.5,3.9,3.5l0,0c0,0.2,0,0.3,0,0.5L430.4,646.5z M402.5,635.8h-3.9v18.1h4.7v-10.1c0-3.4,1.8-4.5,3.6-4.5
		c1.8,0,2.7,1.3,2.7,3.4V654h4.6v-12.8c0-4-2.5-5.7-5.4-5.7c-2.6-0.2-5,1.4-5.8,3.9L402.5,635.8z M386.4,639.1c2.7,0,4,1.8,4,5.7
		s-1.3,5.9-4,5.9s-4-1.9-4-5.9S383.8,639.1,386.4,639.1 M386.4,654.3c5.2,0,8.6-3.4,8.6-9.6c0-6.1-3.4-9.4-8.6-9.4s-8.6,3.2-8.6,9.4
		S381.2,654.3,386.4,654.3 M371.8,647.9c-0.5,2.1-1.6,2.8-3.2,2.8c-2.5,0-4.1-2.3-4.1-5.8c0-3.6,1.4-5.8,4-5.8
		c1.8,0,2.8,1.1,3.1,3.1l4-1c-0.2-3.6-2.9-5.8-7-5.8c-5.2,0-8.6,3.5-8.6,9.5s3.4,9.4,8.5,9.4c3.7,0,6.8-1.6,7.4-5.2L371.8,647.9z
		 M346,642.9c0.3-2.5,1.7-4,3.8-4c1.7-0.1,3.2,1.3,3.2,3l0,0c0,0.1,0,0.2,0,0.4s0,0.5,0,0.7L346,642.9z M350.1,650.7
		c-2.6,0-4-2.1-4.2-5h11.3c0.2-0.8,0.3-1.6,0.3-2.4c0-4.6-2.5-7.9-7.5-7.9c-5.3,0-8.6,3.5-8.6,9.7c0,5.9,3.4,9.3,8.5,9.3
		c3.5,0,6.7-1.3,7.6-4.9l-4-1.3C353.2,649.7,351.7,650.9,350.1,650.7 M324.1,649.7c0.6,3.4,3.1,4.6,7.5,4.6c4.4,0,7.5-1.5,7.5-5.5
		c0-3.1-1.7-4.9-5.2-5.7l-2.5-0.6c-1.4-0.3-2-0.9-2-1.9s0.9-1.8,2.4-1.8c1.7,0,2.6,0.6,2.7,2.1l4.4-0.6c-0.3-3.5-2.8-5-6.9-5
		c-3.6,0-7.2,1.3-7.2,5.7c0,2.7,1.4,4.5,4.6,5.3l2.7,0.6c1.8,0.5,2.5,1,2.5,2.2s-1.2,1.8-2.9,1.8c-1.7,0-3.3-0.8-3.6-2.8
		L324.1,649.7z M312.3,641.2c0-4.1-2.7-5.8-6.9-5.8c-3.9,0-7.2,1.6-7.4,5.5l4.6,0.8c0.1-1.7,1-2.7,2.6-2.7c1.6,0,2.5,0.9,2.5,2.7
		v1.9c-7.1-0.4-10.3,1.8-10.3,5.9c0,3.1,2.1,4.9,5.4,4.9c2.4,0,4.4-0.8,5.3-3c0.5,2,1.9,2.9,4.2,2.9c0.9,0.1,1.8-0.1,2.6-0.6v-3.6
		c-0.3,0.2-0.7,0.3-1,0.3c-0.8,0-1.3-0.4-1.3-1.7L312.3,641.2z M307.6,648.3c0,1.9-1.8,2.7-3.3,2.7c-1.1,0.1-2.2-0.7-2.3-1.8
		c0-0.1,0-0.2,0-0.2c0-1.8,1.6-2.9,5.6-2.7L307.6,648.3z M286.9,649.3c-0.9,0.7-2,1-3.1,1c-1.4,0-2.3-0.7-2.3-2.6v-8.3h5.4v-3.6
		h-5.3v-4.4L277,632v3.8h-2.7v3.6h2.6v9.3c0,3.9,2.2,5.6,5.7,5.6c1.8,0,3.6-0.3,5.2-1.1L286.9,649.3z M267.5,653.9h4v-18.1h-4.7v10
		c0,3.5-1.7,5-3.6,5c-1.9,0-2.7-1.2-2.7-3.5v-11.5h-4.6v12.7c0,4.2,2.2,5.9,5.4,5.9s4.9-1.3,5.6-3.8L267.5,653.9z M244.1,639.1
		c2.7,0,4,1.8,4,5.7s-1.3,5.9-4,5.9s-4-1.9-4-5.9S241.5,639.1,244.1,639.1 M244.1,654.3c5.2,0,8.6-3.4,8.6-9.6s-3.4-9.3-8.6-9.3
		s-8.6,3.2-8.6,9.3C235.5,650.8,238.9,654.3,244.1,654.3 M221.2,627.7h-4.6v26.1h4.6v-10.1c0-3.5,1.8-4.5,3.6-4.5
		c1.8,0,2.7,1.3,2.7,3.4v11.2h4.7V641c0-4-2.5-5.7-5.4-5.7c-2.5-0.2-4.9,1.4-5.6,3.9L221.2,627.7z M212.9,649.3c-0.9,0.7-2,1-3.1,1
		c-1.4,0-2.3-0.7-2.3-2.6v-8.3h5.4v-3.6h-5.4v-4.4l-4.7,0.6v3.8h-2.7v3.6h2.6v9.3c0,3.9,2.2,5.6,5.7,5.6c1.8,0,3.6-0.3,5.2-1.1
		L212.9,649.3z M193,653.9h4.7v-18.1H193V653.9z M192.5,630.2c0,1.5,1.2,2.7,2.7,2.7l0,0h0.2c1.5-0.1,2.7-1.4,2.7-2.9
		c-0.1-1.5-1.4-2.7-2.9-2.7C193.6,627.4,192.4,628.7,192.5,630.2 M179.3,635.8h-4.4l-2.1,7.9c-0.5,2.2-0.9,4.5-1,6.7h-0.2
		c-0.2-2.3-0.6-4.5-1.1-6.7l-2.1-7.9h-4.8l5,18.1h5.5l1.8-7.1c0.5-1.9,0.8-3.9,1-5.8h0.2c0.2,2,0.5,3.9,1,5.8l1.9,7.2h5.6l4.8-18.1
		h-4.7l-2,7.9c-0.5,2.2-0.9,4.4-1,6.7h-0.2c-0.2-2.3-0.6-4.5-1.2-6.7L179.3,635.8z"/>
</g>
<g>
	<path d="M475,605.7c0.6,3.4,3.1,4.6,7.5,4.6c4.4,0,7.5-1.5,7.5-5.5c0-3.1-1.7-4.9-5.2-5.7l-2.5-0.6c-1.4-0.3-2-0.9-2-1.9
		s0.9-1.8,2.4-1.8c1.7,0,2.6,0.6,2.7,2.2l4.4-0.6c-0.3-3.5-2.8-5-6.9-5c-3.6,0-7.2,1.3-7.2,5.7c0,2.7,1.4,4.5,4.6,5.3l2.7,0.6
		c1.8,0.5,2.5,1,2.5,2.2s-1.2,1.8-2.9,1.8s-3.3-0.8-3.6-2.8L475,605.7z M461.7,598.9c0.3-2.5,1.6-4,3.8-4c1.7-0.1,3.2,1.3,3.2,3l0,0
		c0,0.1,0,0.2,0,0.4s0,0.4,0,0.7L461.7,598.9z M465.7,606.7c-2.6,0-4-2.1-4.2-5h11.3c0.2-0.8,0.3-1.6,0.3-2.4c0-4.6-2.5-7.9-7.5-7.9
		c-5.3,0-8.6,3.5-8.6,9.7c0,5.9,3.4,9.3,8.5,9.3c3.5,0,6.7-1.3,7.6-4.9l-4-1.3C468.8,605.7,467.3,606.8,465.7,606.7 M442.6,595.3
		c-0.5-2.9-2.4-3.9-4.8-3.9c-2.5-0.2-4.9,1.5-5.6,3.9l-0.6-3.5h-3.9v18.1h4.6v-10.1c0-3.3,1.6-4.5,3.4-4.5c1.9,0,2.6,1.3,2.6,3.4
		V610h4.7v-10.1c0-3.3,1.6-4.5,3.3-4.5c1.7,0,2.6,1.3,2.6,3.4V610h4.7v-12.9c0-4-2.3-5.6-5.2-5.6
		C445.8,591.2,443.5,592.8,442.6,595.3 M415.7,595.1c2.7,0,4,1.8,4,5.7s-1.3,5.9-4,5.9s-4-1.9-4-5.9S413,595.1,415.7,595.1
		 M415.7,610.3c5.2,0,8.6-3.4,8.6-9.6c0-6.1-3.4-9.3-8.6-9.3s-8.6,3.2-8.6,9.3S410.5,610.3,415.7,610.3 M392.7,583.7H388v26.1h4.7
		v-10.1c0-3.5,1.8-4.5,3.6-4.5c1.8,0,2.7,1.3,2.7,3.4v11.2h4.6V597c0-4-2.5-5.7-5.4-5.7c-2.5-0.2-4.9,1.4-5.6,3.9L392.7,583.7
		L392.7,583.7z M377.1,591.4c-4.5-0.2-6.5,2.1-7.2,5.3l-0.6-4.9h-4v18.1h4.7v-8.6c-0.2-2.5,1.6-4.7,4.2-5c0.2,0,0.4,0,0.6,0
		c0.6,0,1.3,0.1,1.9,0.2L377.1,591.4z M355.9,609.9h4.6v-18.1h-4.6V609.9z M355.3,586.2c0,1.5,1.2,2.7,2.7,2.7l0,0h0.2
		c1.5-0.1,2.7-1.4,2.7-2.9s-1.4-2.7-2.9-2.7C356.5,583.4,355.3,584.7,355.3,586.2 M340.8,598.9c0.3-2.5,1.6-4,3.8-4
		c1.7-0.1,3.2,1.3,3.2,3l0,0c0,0.1,0,0.2,0,0.4s0,0.4,0,0.7h-7V598.9z M344.8,606.7c-2.6,0-4-2.1-4.2-5h11.3
		c0.2-0.8,0.3-1.6,0.3-2.4c0-4.6-2.5-7.9-7.5-7.9c-5.3,0-8.6,3.5-8.6,9.7c0,5.9,3.4,9.3,8.5,9.3c3.5,0,6.7-1.3,7.6-4.9l-4-1.3
		C347.9,605.7,346.4,606.9,344.8,606.7 M321.8,583.7h-4.7v26.1h4.7v-10.1c0-3.5,1.8-4.5,3.6-4.5c1.9,0,2.7,1.3,2.7,3.4v11.2h4.6V597
		c0-4-2.5-5.7-5.4-5.7c-2.5-0.2-4.9,1.4-5.6,3.9L321.8,583.7L321.8,583.7z M313.5,605.3c-0.9,0.7-2,1-3.1,1c-1.4,0-2.3-0.7-2.3-2.6
		v-8.3h5.4v-3.6h-5.3v-4.3l-4.6,0.6v3.8h-2.7v3.6h2.6v9.3c0,3.9,2.2,5.6,5.7,5.6c1.8,0,3.6-0.3,5.2-1.1L313.5,605.3z M282.6,595.1
		c2.7,0,4,1.8,4,5.7s-1.3,5.9-4,5.9s-4-1.9-4-5.9S280,595.1,282.6,595.1 M282.6,610.3c5.2,0,8.6-3.4,8.6-9.6c0-6.1-3.4-9.3-8.6-9.3
		s-8.6,3.2-8.6,9.3S277.4,610.3,282.6,610.3 M271.8,605.3c-0.9,0.7-2,1-3.1,1c-1.4,0-2.3-0.7-2.3-2.6v-8.3h5.4v-3.6h-5.4v-4.3
		l-4.6,0.6v3.8h-2.7v3.6h2.6v9.3c0,3.9,2.2,5.6,5.7,5.6c1.8,0,3.6-0.3,5.2-1.1L271.8,605.3z M245,591.8h-3.9v18.1h4.6v-10.1
		c0-3.4,1.8-4.5,3.6-4.5s2.7,1.3,2.7,3.4V610h4.7v-12.8c0-4-2.5-5.7-5.4-5.7c-2.6-0.2-5,1.4-5.8,3.9L245,591.8z M231.7,609.9h4.6
		v-18.1h-4.7L231.7,609.9z M231.1,586.2c0,1.5,1.2,2.7,2.7,2.7l0,0h0.2c1.5-0.1,2.7-1.4,2.7-2.9c-0.1-1.5-1.4-2.7-2.9-2.7
		C232.3,583.5,231.1,584.7,231.1,586.2 M214.7,609.9h4v-18.1h-4.6v10c0,3.5-1.7,5-3.6,5c-1.8,0-2.7-1.2-2.7-3.5v-11.5h-4.7v12.7
		c0,4.2,2.2,5.9,5.4,5.9s4.9-1.3,5.6-3.8L214.7,609.9z M191.2,595.1c2.7,0,4,1.8,4,5.7s-1.3,5.9-4,5.9s-3.9-1.9-3.9-5.9
		S188.6,595.1,191.2,595.1 M191.2,610.3c5.2,0,8.6-3.4,8.6-9.6s-3.4-9.3-8.6-9.3c-5.2,0-8.6,3.2-8.6,9.3S186.1,610.3,191.2,610.3
		 M168.7,591.8h-5.1l6.7,19.1c-0.9,2.4-1.9,3.2-3.6,3.2c-0.8,0-1.6-0.2-2.3-0.6l-0.7,4.1c1,0.3,2,0.4,3,0.4c3.6,0,6-1,8-6.6l7-19.6
		h-4.9l-2.7,8.8c-0.6,1.9-1,3.8-1.3,5.8h-0.2c-0.3-2-0.7-3.9-1.3-5.8L168.7,591.8z"/>
</g>
<g>
	<path d="M488.7,554.9c0.3-2.5,1.6-4,3.8-4c1.7-0.1,3.2,1.3,3.2,3l0,0c0,0.1,0,0.2,0,0.4s0,0.4,0,0.7L488.7,554.9z M492.7,562.7
		c-2.6,0-4-2.1-4.2-5h11.3c0.2-0.8,0.3-1.6,0.3-2.4c0-4.6-2.5-7.9-7.5-7.9c-5.3,0-8.6,3.5-8.6,9.7c0,5.9,3.4,9.3,8.5,9.3
		c3.5,0,6.7-1.3,7.6-4.9l-4-1.3C495.9,561.7,494.4,562.9,492.7,562.7 M481.9,561.3c-0.9,0.7-2,1-3.1,1c-1.4,0-2.3-0.7-2.3-2.6v-8.3
		h5.4v-3.6h-5.4v-4.4l-4.6,0.6v3.8h-2.7v3.6h2.6v9.3c0,3.9,2.2,5.6,5.7,5.6c1.8,0,3.6-0.3,5.2-1.1L481.9,561.3z M462,565.9h4.7
		v-18.1H462V565.9z M461.4,542.2c0,1.5,1.2,2.7,2.7,2.7h0.2c1.5-0.1,2.7-1.3,2.7-2.9c-0.1-1.5-1.3-2.7-2.9-2.7
		C462.6,539.4,461.4,540.6,461.4,542.2 M448.1,565.8h5.2l6.4-18.1h-4.8l-2.7,8.8c-0.6,1.9-1,3.9-1.3,5.8h-0.2
		c-0.3-2-0.7-3.9-1.3-5.8l-2.7-8.8h-5L448.1,565.8z M428,547.8h-3.9v18.1h4.6v-10.1c0-3.4,1.8-4.5,3.6-4.5c1.9,0,2.7,1.3,2.7,3.4
		V566h4.6v-12.8c0-4-2.5-5.7-5.4-5.7c-2.6-0.2-5,1.4-5.8,3.9L428,547.8z M414.6,565.9h4.7v-18.1h-4.7V565.9z M414.1,542.2
		c0,1.5,1.2,2.7,2.7,2.7l0,0h0.2c1.5-0.1,2.7-1.4,2.7-2.9c-0.1-1.5-1.4-2.7-2.9-2.7C415.2,539.4,414,540.7,414.1,542.2 M391.6,547.8
		h-5.1l6.7,19.1c-0.9,2.4-1.9,3.2-3.6,3.2c-0.8,0-1.6-0.2-2.3-0.6l-0.6,4.1c1,0.3,2,0.4,3,0.4c3.6,0,6-1,8-6.6l7-19.6h-4.9l-2.7,8.8
		c-0.6,1.9-1,3.8-1.3,5.8h-0.2c-0.3-2-0.7-3.9-1.3-5.8L391.6,547.8z M386.2,561.9c-0.4,0.2-0.9,0.3-1.4,0.3
		c-0.8,0.1-1.5-0.5-1.6-1.3c0-0.1,0-0.2,0-0.3v-20.8h-4.7v22.1c0,3.1,2.2,4.4,4.7,4.4c0.9,0,1.8-0.2,2.7-0.4L386.2,561.9z
		 M375.7,561.9c-0.4,0.2-0.9,0.3-1.4,0.3c-0.8,0.1-1.5-0.5-1.6-1.3c0-0.1,0-0.2,0-0.3v-20.8H368v22.1c0,3.1,2.2,4.4,4.7,4.4
		c0.9,0,1.8-0.2,2.7-0.4L375.7,561.9z M363,553.2c0-4.1-2.7-5.8-6.9-5.8c-3.9,0-7.2,1.7-7.4,5.5l4.6,0.8c0.1-1.7,1-2.7,2.6-2.7
		s2.5,0.9,2.5,2.7v1.9c-7.1-0.4-10.3,1.8-10.3,5.9c0,3.1,2.2,4.9,5.4,4.9c2.4,0,4.4-0.8,5.3-3c0.5,2,1.9,2.9,4.1,2.9
		c0.9,0.1,1.8-0.1,2.7-0.5v-3.4c-0.3,0.2-0.7,0.3-1.1,0.3c-0.8,0-1.3-0.4-1.3-1.7L363,553.2z M358.4,560.3c0,1.9-1.8,2.7-3.3,2.7
		c-1.1,0.1-2.2-0.7-2.3-1.8c0-0.1,0-0.2,0-0.2c0-1.8,1.6-2.9,5.6-2.7L358.4,560.3z M340.7,565.9h4.1v-18.1h-4.7v10
		c0,3.5-1.7,5-3.6,5s-2.7-1.2-2.7-3.5v-11.5h-4.6v12.7c0,4.2,2.2,5.9,5.4,5.9c3.2,0,4.9-1.3,5.6-3.8L340.7,565.9z M325.8,561.3
		c-0.9,0.7-2,1-3.1,1c-1.5,0-2.3-0.7-2.3-2.6v-8.3h5.4v-3.6h-5.4v-4.4l-4.7,0.6v3.8H313v3.6h2.6v9.3c0,3.9,2.2,5.6,5.7,5.6
		c1.8,0.1,3.6-0.3,5.2-1.1L325.8,561.3z M308.1,559.9c-0.5,2.1-1.6,2.8-3.2,2.8c-2.5,0-4.1-2.3-4.1-5.8s1.4-5.8,4-5.8
		c1.8,0,2.8,1.1,3.1,3.1l4-1c-0.2-3.6-2.9-5.8-7-5.8c-5.2,0-8.6,3.5-8.6,9.5s3.4,9.4,8.5,9.4c3.7,0,6.8-1.6,7.4-5.3L308.1,559.9z
		 M292.1,553.2c0-4.1-2.7-5.8-6.9-5.8c-3.9,0-7.2,1.7-7.4,5.5l4.6,0.8c0.1-1.7,1-2.7,2.6-2.7s2.5,0.9,2.5,2.7v1.9
		c-7.1-0.4-10.3,1.8-10.3,5.9c0,3.1,2.1,4.9,5.4,4.9c2.4,0,4.4-0.8,5.3-3c0.5,2,1.9,2.9,4.2,2.9c0.9,0.1,1.8-0.1,2.6-0.5v-3.4
		c-0.3,0.2-0.7,0.3-1.1,0.3c-0.8,0-1.3-0.4-1.3-1.7L292.1,553.2z M287.5,560.3c0,1.9-1.8,2.7-3.3,2.7c-1.1,0.1-2.2-0.7-2.3-1.8
		c0-0.1,0-0.2,0-0.2c0-1.8,1.6-2.9,5.6-2.7L287.5,560.3z M255.6,554.9c0.3-2.5,1.6-4,3.8-4c1.7-0.1,3.2,1.3,3.2,3l0,0
		c0,0.1,0,0.2,0,0.4s0,0.4,0,0.7L255.6,554.9z M259.6,562.7c-2.6,0-4-2.1-4.2-5h11.3c0.2-0.8,0.3-1.6,0.3-2.4c0-4.6-2.5-7.9-7.5-7.9
		c-5.3,0-8.6,3.5-8.6,9.7c0,5.9,3.4,9.3,8.5,9.3c3.5,0,6.7-1.3,7.6-4.9l-4-1.3C262.8,561.7,261.3,562.9,259.6,562.7 M249.4,561.9
		c-0.4,0.2-0.9,0.3-1.4,0.3c-0.8,0.1-1.5-0.5-1.6-1.3c0-0.1,0-0.2,0-0.3v-20.9h-4.6v22.1c0,3.1,2.2,4.4,4.7,4.4
		c0.9,0,1.8-0.2,2.7-0.4L249.4,561.9z M225.6,563.4c0.6,1.5,2.3,2.9,5.1,2.9c4.9,0,7.7-4.2,7.7-9.9s-2.6-9-7-9
		c-2.6-0.2-5.1,1.4-5.9,3.9l-0.6-3.5h-4v26h4.7V563.4z M225.6,555.8c0-3.1,2-4.7,4.2-4.7c2.5,0,4,1.8,4,5.7c0,4.2-2,6.1-4.4,6.1
		c-1.7,0-3.8-1.1-3.8-4.3V555.8z M208.8,551.1c2.7,0,4,1.8,4,5.7s-1.3,5.9-4,5.9s-4-1.9-4-5.9S206.1,551.1,208.8,551.1 M208.8,566.3
		c5.2,0,8.6-3.4,8.6-9.6c0-6.1-3.4-9.3-8.6-9.3c-5.2,0-8.6,3.2-8.6,9.3S203.6,566.4,208.8,566.3 M186.2,555c0.3-2.5,1.6-4,3.8-4
		c1.7-0.1,3.2,1.3,3.2,3l0,0c0,0.1,0,0.2,0,0.4s0,0.4,0,0.7L186.2,555z M190.3,562.8c-2.6,0-4-2.1-4.2-5h11.2
		c0.2-0.8,0.3-1.6,0.3-2.4c0-4.6-2.5-7.9-7.5-7.9c-5.3,0-8.6,3.5-8.6,9.7c0,5.9,3.4,9.3,8.5,9.3c3.5,0,6.7-1.3,7.6-4.9l-4-1.3
		C193.3,561.8,191.8,562.9,190.3,562.8 M168.4,565.9v-7.8h3.5c5,0,7.8-2.9,7.8-7.7s-2.4-7.6-8.3-7.6h-7.8v23L168.4,565.9
		L168.4,565.9z M168.4,546.9h3c2.5,0,3.7,1.2,3.7,3.8c0,2.3-1,3.6-3.7,3.6h-2.9L168.4,546.9z"/>
</g>
<path d="M181.5,491.8c0,5.1,3.1,8.4,7.4,8.4c3.6,0,6.5-1.9,6.5-6s-3.4-6.2-6.9-5.6c0-3.7,2.9-5.4,7.3-5.8v-4.3
	C187.4,478.5,181.5,482.2,181.5,491.8 M163.6,491.6c0,5.1,3.1,8.4,7.4,8.4c3.6,0,6.5-1.9,6.5-6s-3.4-6.2-6.9-5.6
	c0-3.7,2.9-5.4,7.3-5.8v-4.2C169.5,478.5,163.6,482.2,163.6,491.6"/>
<path d="M177.9,837.8c0-5.1-3.1-8.4-7.4-8.4c-3.6,0-6.5,1.9-6.5,6s3.4,6.2,6.9,5.6c0,3.7-2.9,5.4-7.3,5.8v4.2
	C172,851,177.9,847.3,177.9,837.8 M195.8,837.8c0-5.1-3.1-8.4-7.4-8.4c-3.6,0-6.5,1.9-6.5,6s3.4,6.2,6.9,5.6c0,3.7-2.9,5.4-7.3,5.8
	v4.2C189.9,851,195.8,847.3,195.8,837.8"/>
</svg>
