<?xml version="1.0" encoding="utf-8"?>
<!-- Generator: Adobe Illustrator 22.1.0, SVG Export Plug-In . SVG Version: 6.00 Build 0)  -->
<svg version="1.1" id="Layer_1" xmlns="http://www.w3.org/2000/svg" xmlns:xlink="http://www.w3.org/1999/xlink" x="0px" y="0px"
	 width="750px" height="1331.7px" viewBox="0 0 750 1331.7" style="enable-background:new 0 0 750 1331.7;" xml:space="preserve">
<style type="text/css">
	.st0{fill:#FFFFFF;}
</style>
<title>02</title>
<g>
	<path class="st0" d="M386.1,1019.9c0,1.1,0.8,1.9,1.9,1.9s1.9-0.9,1.9-1.9c0-1.1-0.8-1.9-1.9-1.9
		C387,1018,386.1,1018.8,386.1,1019.9 M375.6,1014.4c0.2-1.8,1.2-3,2.8-3c1.5,0,2.4,1.1,2.4,2.5c0,0.2,0,0.3,0,0.5H375.6z
		 M378.5,1019.9c-1.9,0-2.9-1.5-3-3.7h7.6c0.1-0.4,0.2-1,0.2-1.6c0-3-1.7-5.2-4.8-5.2c-3.4,0-5.6,2.4-5.6,6.4c0,3.9,2.2,6.2,5.5,6.2
		c2.3,0,4.4-0.8,4.9-3.3l-2.4-0.7C380.5,1019.4,379.7,1019.9,378.5,1019.9 M368.8,1017.9c-0.4,1.4-1.2,1.9-2.3,1.9
		c-1.8,0-3-1.7-3-4.1s1-4.1,2.9-4.1c1.3,0,2,0.8,2.2,2.2l2.4-0.5c-0.2-2.4-1.9-3.8-4.5-3.8c-3.4,0-5.6,2.4-5.6,6.4s2.2,6.2,5.4,6.2
		c2.4,0,4.4-1,4.8-3.4L368.8,1017.9z M350.4,1009.7h-2.2v12h2.7v-6.8c0-2.5,1.3-3.2,2.6-3.2c1.4,0,1.9,0.9,1.9,2.3v7.6h2.7v-8.5
		c0-2.6-1.7-3.7-3.6-3.7c-1.8,0-3.2,0.8-3.8,2.6L350.4,1009.7z M344.3,1013.2c0-2.7-1.9-3.8-4.4-3.8c-2.4,0-4.6,1-4.8,3.6l2.6,0.4
		c0.1-1.2,0.8-1.9,1.9-1.9c1.2,0,1.9,0.6,1.9,1.9v1.3c-4.8-0.2-6.9,1.3-6.9,3.9c0,2,1.5,3.3,3.6,3.3c1.6,0,2.9-0.5,3.5-2
		c0.3,1.3,1.2,1.9,2.6,1.9c0.6,0,1.1-0.1,1.5-0.3v-2c-0.2,0.1-0.4,0.1-0.7,0.1c-0.5,0-0.9-0.2-0.9-1.1L344.3,1013.2L344.3,1013.2z
		 M341.6,1018c0,1.3-1.3,2-2.5,2c-1.1,0-1.7-0.7-1.7-1.6c0-1.3,1.2-2,4.2-2V1018z M333,1019c-0.7,0.5-1.2,0.7-2,0.7
		c-1,0-1.5-0.5-1.5-1.8v-6.1h3.6v-2.1h-3.6v-2.9l-2.7,0.3v2.5H325v2.1h1.7v6.6c0,2.4,1.4,3.5,3.6,3.5c1.2,0,2.3-0.2,3.2-0.7
		L333,1019z M314.2,1019c0.4,2.2,2,3,4.8,3c2.7,0,4.8-1,4.8-3.6c0-2.1-1.2-3.2-3.4-3.7l-1.7-0.4c-1.1-0.3-1.5-0.7-1.5-1.5
		c0-0.9,0.7-1.4,1.8-1.4c1.2,0,1.9,0.5,2,1.6l2.6-0.3c-0.2-2.3-1.8-3.3-4.5-3.3c-2.3,0-4.6,0.9-4.6,3.7c0,1.8,0.9,2.9,3,3.4l1.8,0.4
		c1.3,0.3,1.8,0.8,1.8,1.7c0,1-0.9,1.4-2.1,1.4c-1.3,0-2.3-0.6-2.5-1.9L314.2,1019z M309.1,1021.7h2.7v-12h-2.7V1021.7z
		 M308.7,1005.9c0,1,0.8,1.7,1.7,1.7c1,0,1.8-0.7,1.8-1.7c0-1.1-0.8-1.7-1.8-1.7C309.5,1004.2,308.7,1004.9,308.7,1005.9
		 M302.8,1011.3c-0.3-1.1-1.6-1.9-3.1-1.9c-3.4,0-5.4,2.4-5.4,6.5c0,4,2.2,6.1,4.7,6.1c1.7,0,3.2-0.6,3.8-2.4l0.3,2.1h2.4v-17.3
		h-2.7L302.8,1011.3L302.8,1011.3z M302.8,1016.8c0,2-1.5,3-2.8,3c-1.8,0-3-1.4-3-4c0-3.2,1.4-4.3,3.1-4.3c1.3,0,2.7,0.8,2.7,2.9
		L302.8,1016.8L302.8,1016.8z M285.4,1013.2c0-2.7-1.9-3.8-4.4-3.8c-2.4,0-4.6,1-4.8,3.6l2.6,0.4c0.1-1.2,0.8-1.9,1.9-1.9
		c1.2,0,1.9,0.6,1.9,1.9v1.3c-4.8-0.2-6.9,1.3-6.9,3.9c0,2,1.5,3.3,3.6,3.3c1.6,0,2.9-0.5,3.5-2c0.3,1.3,1.2,1.9,2.6,1.9
		c0.6,0,1.1-0.1,1.5-0.3v-2c-0.2,0.1-0.4,0.1-0.7,0.1c-0.5,0-0.9-0.2-0.9-1.1L285.4,1013.2L285.4,1013.2z M282.7,1018
		c0,1.3-1.3,2-2.5,2c-1.1,0-1.7-0.7-1.7-1.6c0-1.3,1.2-2,4.2-2V1018z M260.2,1012.1c-0.3-1.9-1.6-2.6-3.2-2.6
		c-1.7,0-3.1,0.8-3.7,2.6l-0.3-2.3h-2.2v12h2.7v-6.8c0-2.3,1.2-3.2,2.5-3.2c1.3,0,1.9,0.9,1.9,2.3v7.6h2.7v-6.8
		c0-2.3,1.2-3.2,2.5-3.2s1.8,0.9,1.8,2.3v7.6h2.7v-8.6c0-2.6-1.5-3.7-3.5-3.7C262.3,1009.4,260.8,1010.2,260.2,1012.1 M242.3,1011.6
		c1.9,0,2.9,1.3,2.9,4c0,2.9-1,4.2-2.9,4.2s-2.9-1.4-2.9-4.2C239.4,1012.9,240.4,1011.6,242.3,1011.6 M242.3,1022
		c3.4,0,5.6-2.3,5.6-6.4s-2.2-6.2-5.6-6.2c-3.4,0-5.6,2.2-5.6,6.2S239,1022,242.3,1022 M235.8,1009.4c-2.9-0.2-4.2,1.4-4.7,3.5
		l-0.3-3.3h-2.3v12h2.7v-5.9c0-2.4,1.6-3.5,3.2-3.5c0.4,0,0.8,0.1,1.2,0.2L235.8,1009.4z M221.1,1011.8v9.9h2.7v-9.9h3.1v-2.1h-3.1
		v-1.1c0-1.6,0.7-2.2,1.8-2.2c0.8,0,1.3,0.2,2,0.5l0.4-2.3c-0.7-0.3-1.6-0.5-2.6-0.5c-2.3,0-4.4,1.1-4.4,4.3v1.2h-1.7v2.1
		L221.1,1011.8L221.1,1011.8z"/>
	<path class="st0" d="M514.6,985.6c-0.7,0.5-1.2,0.7-2,0.7c-1,0-1.5-0.5-1.5-1.8v-6.1h3.6v-2.1h-3.6v-2.9l-2.7,0.3v2.5h-1.7v2.1h1.7
		v6.6c0,2.4,1.4,3.5,3.6,3.5c1.2,0,2.3-0.2,3.2-0.7L514.6,985.6z M495.9,985.6c0.4,2.2,2,3,4.8,3c2.7,0,4.8-1,4.8-3.6
		c0-2.1-1.2-3.2-3.4-3.7l-1.7-0.4c-1.1-0.3-1.5-0.7-1.5-1.5c0-0.9,0.7-1.4,1.8-1.4c1.2,0,1.9,0.5,2,1.6l2.6-0.3
		c-0.2-2.3-1.8-3.3-4.5-3.3c-2.3,0-4.6,0.9-4.6,3.7c0,1.8,0.9,2.9,3,3.4l1.8,0.4c1.3,0.3,1.8,0.8,1.8,1.7c0,1-0.9,1.4-2.1,1.4
		c-1.3,0-2.3-0.6-2.5-1.9L495.9,985.6z M490.7,988.3h2.7v-12h-2.7V988.3z M490.3,972.6c0,1,0.8,1.7,1.7,1.7c1,0,1.8-0.7,1.8-1.7
		c0-1.1-0.8-1.7-1.8-1.7C491.1,970.9,490.3,971.5,490.3,972.6 M488.5,976.1c-2.9-0.2-4.2,1.4-4.7,3.5l-0.3-3.3h-2.3v12h2.7v-5.9
		c0-2.4,1.6-3.5,3.2-3.5c0.4,0,0.8,0.1,1.2,0.2L488.5,976.1z M475.2,988.3h2.3v-12h-2.7v6.9c0,2.3-1.3,3.4-2.6,3.4
		c-1.4,0-2-0.8-2-2.5v-7.8h-2.7v8.3c0,2.8,1.5,3.9,3.6,3.9c2,0,3.2-0.8,3.7-2.5L475.2,988.3z M459.4,978.3c1.9,0,2.9,1.3,2.9,4
		c0,2.9-1,4.2-2.9,4.2s-2.9-1.4-2.9-4.2C456.5,979.6,457.5,978.3,459.4,978.3 M459.4,988.7c3.4,0,5.6-2.3,5.6-6.4
		c0-4.1-2.2-6.2-5.6-6.2s-5.6,2.2-5.6,6.2C453.8,986.4,456,988.7,459.4,988.7 M452.1,985.6c-0.7,0.5-1.2,0.7-2,0.7
		c-1,0-1.5-0.5-1.5-1.8v-6.1h3.6v-2.1h-3.6v-2.9l-2.7,0.3v2.5h-1.7v2.1h1.7v6.6c0,2.4,1.4,3.5,3.6,3.5c1.2,0,2.3-0.2,3.2-0.7
		L452.1,985.6z M435.9,979.9c0-2.7-1.9-3.8-4.4-3.8c-2.4,0-4.6,1-4.8,3.6l2.6,0.4c0.1-1.2,0.8-1.9,1.9-1.9c1.2,0,1.9,0.6,1.9,1.9
		v1.3c-4.8-0.2-6.9,1.3-6.9,3.9c0,2,1.5,3.3,3.6,3.3c1.6,0,2.9-0.5,3.5-2c0.3,1.3,1.2,1.9,2.6,1.9c0.6,0,1.1-0.1,1.5-0.3v-2
		c-0.2,0.1-0.4,0.1-0.7,0.1c-0.5,0-0.9-0.2-0.9-1.1L435.9,979.9L435.9,979.9z M433.2,984.7c0,1.3-1.3,2-2.5,2
		c-1.1,0-1.7-0.7-1.7-1.6c0-1.3,1.2-2,4.2-2V984.7z M409.3,985.6c0.4,2.2,2,3,4.8,3c2.7,0,4.8-1,4.8-3.6c0-2.1-1.2-3.2-3.4-3.7
		l-1.7-0.4c-1.1-0.3-1.5-0.7-1.5-1.5c0-0.9,0.7-1.4,1.8-1.4c1.2,0,1.9,0.5,2,1.6l2.6-0.3c-0.2-2.3-1.8-3.3-4.5-3.3
		c-2.3,0-4.6,0.9-4.6,3.7c0,1.8,0.9,2.9,3,3.4l1.8,0.4c1.3,0.3,1.8,0.8,1.8,1.7c0,1-0.9,1.4-2.1,1.4c-1.3,0-2.3-0.6-2.5-1.9
		L409.3,985.6z M406.5,979.9c0-2.7-1.9-3.8-4.4-3.8c-2.4,0-4.6,1-4.8,3.6l2.6,0.4c0.1-1.2,0.8-1.9,1.9-1.9c1.2,0,1.9,0.6,1.9,1.9
		v1.3c-4.8-0.2-6.9,1.3-6.9,3.9c0,2,1.5,3.3,3.6,3.3c1.6,0,2.9-0.5,3.5-2c0.3,1.3,1.2,1.9,2.6,1.9c0.6,0,1.1-0.1,1.5-0.3v-2
		c-0.2,0.1-0.4,0.1-0.7,0.1c-0.5,0-0.9-0.2-0.9-1.1L406.5,979.9L406.5,979.9z M403.8,984.7c0,1.3-1.3,2-2.5,2
		c-1.1,0-1.7-0.7-1.7-1.6c0-1.3,1.2-2,4.2-2V984.7z M389.4,985.6c-0.7,0.5-1.2,0.7-2,0.7c-1,0-1.5-0.5-1.5-1.8v-6.1h3.6v-2.1h-3.6
		v-2.9l-2.7,0.3v2.5h-1.7v2.1h1.7v6.6c0,2.4,1.4,3.5,3.6,3.5c1.2,0,2.3-0.2,3.2-0.7L389.4,985.6z M374.6,978.3c1.9,0,2.9,1.3,2.9,4
		c0,2.9-1,4.2-2.9,4.2s-2.9-1.4-2.9-4.2C371.7,979.6,372.6,978.3,374.6,978.3 M374.6,988.7c3.4,0,5.6-2.3,5.6-6.4
		c0-4.1-2.2-6.2-5.6-6.2s-5.6,2.2-5.6,6.2C369,986.4,371.2,988.7,374.6,988.7 M358.5,976.4h-2.2v12h2.7v-6.8c0-2.5,1.3-3.2,2.6-3.2
		c1.4,0,1.9,0.9,1.9,2.3v7.6h2.7v-8.5c0-2.6-1.7-3.7-3.6-3.7c-1.8,0-3.2,0.8-3.8,2.6L358.5,976.4z M347,987.3c0-1.5-0.9-2.5-2.1-2.5
		c-1.1,0-1.9,0.6-1.9,1.7c0,1.1,0.9,1.8,2,1.6c0,1.2-0.9,1.8-2.2,1.9v1.2C345.3,991.3,347,990.1,347,987.3 M336.9,978
		c-0.3-1.1-1.6-1.9-3.1-1.9c-3.4,0-5.4,2.4-5.4,6.5c0,4,2.2,6.1,4.7,6.1c1.7,0,3.2-0.6,3.8-2.4l0.3,2.1h2.4V971h-2.7L336.9,978
		L336.9,978z M336.9,983.5c0,2-1.5,3-2.8,3c-1.8,0-3-1.4-3-4c0-3.2,1.4-4.3,3.1-4.3c1.3,0,2.7,0.8,2.7,2.9L336.9,983.5L336.9,983.5z
		 M326.9,986.1c-0.3,0.1-0.5,0.1-0.9,0.1c-0.6,0-1.1-0.3-1.1-1V971h-2.7v14.8c0,1.9,1.3,2.7,2.9,2.7c0.5,0,1-0.1,1.6-0.2
		L326.9,986.1z M316.5,988.3h2.3v-12h-2.7v6.9c0,2.3-1.3,3.4-2.6,3.4c-1.4,0-2-0.8-2-2.5v-7.8h-2.7v8.3c0,2.8,1.5,3.9,3.6,3.9
		c2,0,3.2-0.8,3.7-2.5L316.5,988.3z M300.7,978.3c1.9,0,2.9,1.3,2.9,4c0,2.9-1,4.2-2.9,4.2s-2.9-1.4-2.9-4.2
		C297.8,979.6,298.7,978.3,300.7,978.3 M300.7,988.7c3.4,0,5.6-2.3,5.6-6.4c0-4.1-2.2-6.2-5.6-6.2s-5.6,2.2-5.6,6.2
		C295.1,986.4,297.3,988.7,300.7,988.7 M286.5,976.4h-2.6l-1.5,5.7c-0.6,2.4-0.7,4.3-0.7,4.3h-0.1c0,0-0.2-1.9-0.8-4.3l-1.5-5.7
		h-2.8l3.3,12h3.2l1.3-5.2c0.6-2.2,0.7-3.8,0.7-3.8h0.1c0,0,0.1,1.7,0.7,3.8l1.4,5.2h3.2l3.2-12h-2.7l-1.4,5.8
		c-0.6,2.4-0.7,4.3-0.7,4.3h-0.1c0,0-0.1-1.9-0.8-4.3L286.5,976.4z M269.7,986.1c-0.3,0.1-0.5,0.1-0.9,0.1c-0.6,0-1.1-0.3-1.1-1V971
		H265v14.8c0,1.9,1.3,2.7,2.9,2.7c0.5,0,1-0.1,1.6-0.2L269.7,986.1z M261.4,979.9c0-2.7-1.9-3.8-4.4-3.8c-2.4,0-4.6,1-4.8,3.6
		l2.6,0.4c0.1-1.2,0.8-1.9,1.9-1.9c1.2,0,1.9,0.6,1.9,1.9v1.3c-4.8-0.2-6.9,1.3-6.9,3.9c0,2,1.5,3.3,3.6,3.3c1.6,0,2.9-0.5,3.5-2
		c0.3,1.3,1.2,1.9,2.6,1.9c0.6,0,1.1-0.1,1.5-0.3v-2c-0.2,0.1-0.4,0.1-0.7,0.1c-0.5,0-0.9-0.2-0.9-1.1L261.4,979.9L261.4,979.9z
		 M258.7,984.7c0,1.3-1.3,2-2.5,2c-1.1,0-1.7-0.7-1.7-1.6c0-1.3,1.2-2,4.2-2V984.7z M247.8,984.6c-0.4,1.4-1.2,1.9-2.3,1.9
		c-1.8,0-3-1.7-3-4.1s1-4.1,2.9-4.1c1.3,0,2,0.8,2.2,2.2l2.4-0.5c-0.2-2.4-1.9-3.8-4.5-3.8c-3.4,0-5.6,2.4-5.6,6.4s2.2,6.2,5.4,6.2
		c2.4,0,4.4-1,4.8-3.4L247.8,984.6z M232.3,978.3c1.9,0,2.9,1.3,2.9,4c0,2.9-1,4.2-2.9,4.2s-2.9-1.4-2.9-4.2
		C229.4,979.6,230.4,978.3,232.3,978.3 M232.3,988.7c3.4,0,5.6-2.3,5.6-6.4c0-4.1-2.2-6.2-5.6-6.2c-3.4,0-5.6,2.2-5.6,6.2
		C226.8,986.4,229,988.7,232.3,988.7 M225.3,986.1c-0.3,0.1-0.5,0.1-0.9,0.1c-0.6,0-1.1-0.3-1.1-1V971h-2.7v14.8
		c0,1.9,1.3,2.7,2.9,2.7c0.5,0,1-0.1,1.6-0.2L225.3,986.1z"/>
	<path class="st0" d="M489.8,946.5c0-2.7-1.9-3.8-4.4-3.8c-2.4,0-4.6,1-4.8,3.6l2.6,0.4c0.1-1.2,0.8-1.9,1.9-1.9
		c1.2,0,1.9,0.6,1.9,1.9v1.3c-4.8-0.2-6.9,1.3-6.9,3.9c0,2,1.5,3.3,3.6,3.3c1.6,0,2.9-0.5,3.5-2c0.3,1.3,1.2,1.9,2.6,1.9
		c0.6,0,1.1-0.1,1.5-0.3v-2c-0.2,0.1-0.4,0.1-0.7,0.1c-0.5,0-0.9-0.2-0.9-1.1L489.8,946.5L489.8,946.5z M487.1,951.3
		c0,1.3-1.3,2-2.5,2c-1.1,0-1.7-0.7-1.7-1.6c0-1.3,1.2-2,4.2-2V951.3z M463.1,952.3c0.4,2.2,2,3,4.8,3c2.7,0,4.8-1,4.8-3.6
		c0-2.1-1.2-3.2-3.4-3.7l-1.7-0.4c-1.1-0.3-1.5-0.7-1.5-1.5c0-0.9,0.7-1.4,1.8-1.4c1.2,0,1.9,0.5,2,1.6l2.6-0.3
		c-0.2-2.3-1.8-3.3-4.5-3.3c-2.3,0-4.6,0.9-4.6,3.7c0,1.8,0.9,2.9,3,3.4l1.8,0.4c1.3,0.3,1.8,0.8,1.8,1.7c0,1-0.9,1.4-2.1,1.4
		c-1.3,0-2.3-0.6-2.5-1.9L463.1,952.3z M460.4,946.5c0-2.7-1.9-3.8-4.4-3.8c-2.4,0-4.6,1-4.8,3.6l2.6,0.4c0.1-1.2,0.8-1.9,1.9-1.9
		c1.2,0,1.9,0.6,1.9,1.9v1.3c-4.8-0.2-6.9,1.3-6.9,3.9c0,2,1.5,3.3,3.6,3.3c1.6,0,2.9-0.5,3.5-2c0.3,1.3,1.2,1.9,2.6,1.9
		c0.6,0,1.1-0.1,1.5-0.3v-2c-0.2,0.1-0.4,0.1-0.7,0.1c-0.5,0-0.9-0.2-0.9-1.1L460.4,946.5L460.4,946.5z M457.7,951.3
		c0,1.3-1.3,2-2.5,2c-1.1,0-1.7-0.7-1.7-1.6c0-1.3,1.2-2,4.2-2V951.3z M443.3,952.3c-0.7,0.5-1.2,0.7-2,0.7c-1,0-1.5-0.5-1.5-1.8
		v-6.1h3.6V943h-3.6v-2.9l-2.7,0.3v2.5h-1.7v2.1h1.7v6.6c0,2.4,1.4,3.5,3.6,3.5c1.2,0,2.3-0.2,3.2-0.7L443.3,952.3z M430.5,955h2.7
		v-12h-2.7V955z M430.1,939.2c0,1,0.8,1.7,1.7,1.7c1,0,1.8-0.7,1.8-1.7c0-1.1-0.8-1.7-1.8-1.7C430.9,937.5,430.1,938.2,430.1,939.2
		 M417.4,945.1v9.9h2.7v-9.9h3.1V943h-3.1v-1.1c0-1.6,0.7-2.2,1.8-2.2c0.8,0,1.3,0.2,2,0.5l0.4-2.3c-0.7-0.3-1.6-0.5-2.6-0.5
		c-2.3,0-4.4,1.1-4.4,4.3v1.2h-1.7v2.1L417.4,945.1L417.4,945.1z M408.7,944.9c1.9,0,2.9,1.3,2.9,4c0,2.9-1,4.2-2.9,4.2
		s-2.9-1.4-2.9-4.2C405.8,946.2,406.8,944.9,408.7,944.9 M408.7,955.3c3.4,0,5.6-2.3,5.6-6.4s-2.2-6.2-5.6-6.2s-5.6,2.2-5.6,6.2
		S405.3,955.3,408.7,955.3 M387.6,947.8c0.2-1.8,1.2-3,2.8-3c1.5,0,2.4,1.1,2.4,2.5c0,0.2,0,0.3,0,0.5H387.6z M390.5,953.2
		c-1.9,0-2.9-1.5-3-3.7h7.6c0.1-0.4,0.2-1,0.2-1.6c0-3-1.7-5.2-4.8-5.2c-3.4,0-5.6,2.4-5.6,6.4c0,3.9,2.2,6.2,5.5,6.2
		c2.3,0,4.4-0.8,4.9-3.3l-2.4-0.7C392.6,952.7,391.7,953.2,390.5,953.2 M384,942.8c-2.9-0.2-4.2,1.4-4.7,3.5L379,943h-2.3v12h2.7
		v-5.9c0-2.4,1.6-3.5,3.2-3.5c0.4,0,0.8,0.1,1.2,0.2L384,942.8z M368.3,944.9c1.9,0,2.9,1.3,2.9,4c0,2.9-1,4.2-2.9,4.2
		s-2.9-1.4-2.9-4.2C365.4,946.2,366.3,944.9,368.3,944.9 M368.3,955.3c3.4,0,5.6-2.3,5.6-6.4s-2.2-6.2-5.6-6.2s-5.6,2.2-5.6,6.2
		S364.9,955.3,368.3,955.3 M352.7,945.4c-0.3-1.9-1.6-2.6-3.2-2.6s-3.1,0.8-3.7,2.6l-0.3-2.3h-2.2v12h2.7v-6.8
		c0-2.3,1.2-3.2,2.5-3.2s1.9,0.9,1.9,2.3v7.6h2.7v-6.8c0-2.3,1.2-3.2,2.5-3.2s1.8,0.9,1.8,2.3v7.6h2.7v-8.6c0-2.6-1.5-3.7-3.5-3.7
		C354.8,942.7,353.3,943.5,352.7,945.4 M326.9,947.8c0.2-1.8,1.2-3,2.8-3c1.5,0,2.4,1.1,2.4,2.5c0,0.2,0,0.3,0,0.5H326.9z
		 M329.8,953.2c-1.9,0-2.9-1.5-3-3.7h7.6c0.1-0.4,0.2-1,0.2-1.6c0-3-1.7-5.2-4.8-5.2c-3.4,0-5.6,2.4-5.6,6.4c0,3.9,2.2,6.2,5.5,6.2
		c2.3,0,4.4-0.8,4.9-3.3l-2.4-0.7C331.9,952.7,331,953.2,329.8,953.2 M320.2,951.2c-0.4,1.4-1.2,1.9-2.3,1.9c-1.8,0-3-1.7-3-4.1
		c0-2.5,1-4.1,2.9-4.1c1.3,0,2,0.8,2.2,2.2l2.4-0.5c-0.2-2.4-1.9-3.8-4.5-3.8c-3.4,0-5.6,2.4-5.6,6.4s2.2,6.2,5.4,6.2
		c2.4,0,4.4-1,4.8-3.4L320.2,951.2z M301.8,943h-2.2v12h2.7v-6.8c0-2.5,1.3-3.2,2.6-3.2c1.4,0,1.9,0.9,1.9,2.3v7.6h2.7v-8.5
		c0-2.6-1.7-3.7-3.6-3.7c-1.8,0-3.2,0.8-3.8,2.6L301.8,943z M289,947.8c0.2-1.8,1.2-3,2.8-3c1.5,0,2.4,1.1,2.4,2.5
		c0,0.2,0,0.3,0,0.5H289z M291.9,953.2c-1.9,0-2.9-1.5-3-3.7h7.6c0.1-0.4,0.2-1,0.2-1.6c0-3-1.7-5.2-4.8-5.2c-3.4,0-5.6,2.4-5.6,6.4
		c0,3.9,2.2,6.2,5.5,6.2c2.3,0,4.4-0.8,4.9-3.3l-2.4-0.7C294,952.7,293.1,953.2,291.9,953.2 M280.8,955h2.7v-12h-2.7V955z
		 M280.4,939.2c0,1,0.8,1.7,1.7,1.7c1,0,1.8-0.7,1.8-1.7c0-1.1-0.8-1.7-1.8-1.7C281.2,937.5,280.4,938.2,280.4,939.2 M278.6,942.8
		c-2.9-0.2-4.2,1.4-4.7,3.5l-0.3-3.3h-2.3v12h2.7v-5.9c0-2.4,1.6-3.5,3.2-3.5c0.4,0,0.8,0.1,1.2,0.2L278.6,942.8z M260.7,947.8
		c0.2-1.8,1.2-3,2.8-3c1.5,0,2.4,1.1,2.4,2.5c0,0.2,0,0.3,0,0.5H260.7z M263.6,953.2c-1.9,0-2.9-1.5-3-3.7h7.6
		c0.1-0.4,0.2-1,0.2-1.6c0-3-1.7-5.2-4.8-5.2c-3.4,0-5.6,2.4-5.6,6.4c0,3.9,2.2,6.2,5.5,6.2c2.3,0,4.4-0.8,4.9-3.3l-2.4-0.7
		C265.6,952.7,264.8,953.2,263.6,953.2 M247.4,953.4c0.4,1,1.5,1.9,3.3,1.9c3.3,0,5.2-2.8,5.2-6.6s-1.8-6-4.7-6
		c-1.6,0-3.2,0.6-4,2.6L247,943h-2.3v17.2h2.7V953.4z M247.4,948.3c0-2.1,1.4-3.3,3-3.3c1.7,0,2.8,1.3,2.8,4c0,3-1.4,4.4-3.1,4.4
		c-1.2,0-2.7-0.8-2.7-3V948.3z M239.7,955h3l-3.9-6.1l3.8-5.9h-3l-1.3,2.3c-1,1.7-1,2.2-1,2.2h-0.1c0,0-0.1-0.5-1.1-2.2l-1.3-2.2
		h-3.1l3.7,6l-3.9,6h2.9l1.6-2.6c1-1.6,1-2,1-2h0.1c0,0,0,0.5,1,2L239.7,955z M222.7,947.8c0.2-1.8,1.2-3,2.8-3
		c1.5,0,2.4,1.1,2.4,2.5c0,0.2,0,0.3,0,0.5H222.7z M225.6,953.2c-1.9,0-2.9-1.5-3-3.7h7.6c0.1-0.4,0.2-1,0.2-1.6
		c0-3-1.7-5.2-4.8-5.2c-3.4,0-5.6,2.4-5.6,6.4c0,3.9,2.2,6.2,5.5,6.2c2.3,0,4.4-0.8,4.9-3.3l-2.4-0.7
		C227.7,952.7,226.8,953.2,225.6,953.2"/>
	<path class="st0" d="M485,909.7h-2.2v12h2.7v-6.8c0-2.5,1.3-3.2,2.6-3.2c1.4,0,1.9,0.9,1.9,2.3v7.6h2.7v-8.5c0-2.6-1.7-3.7-3.6-3.7
		c-1.8,0-3.2,0.8-3.8,2.6L485,909.7z M478.9,913.2c0-2.7-1.9-3.8-4.4-3.8c-2.4,0-4.6,1-4.8,3.6l2.6,0.4c0.1-1.2,0.8-1.9,1.9-1.9
		c1.2,0,1.9,0.6,1.9,1.9v1.3c-4.8-0.2-6.9,1.3-6.9,3.9c0,2,1.5,3.3,3.6,3.3c1.6,0,2.9-0.5,3.5-2c0.3,1.3,1.2,1.9,2.6,1.9
		c0.6,0,1.1-0.1,1.5-0.3v-2c-0.2,0.1-0.4,0.1-0.7,0.1c-0.5,0-0.9-0.2-0.9-1.1L478.9,913.2L478.9,913.2z M476.2,918
		c0,1.3-1.3,2-2.5,2c-1.1,0-1.7-0.7-1.7-1.6c0-1.3,1.2-2,4.2-2V918z M465.4,917.9c-0.4,1.4-1.2,1.9-2.3,1.9c-1.8,0-3-1.7-3-4.1
		s1-4.1,2.9-4.1c1.3,0,2,0.8,2.2,2.2l2.4-0.5c-0.2-2.4-1.9-3.8-4.5-3.8c-3.4,0-5.6,2.4-5.6,6.4s2.2,6.2,5.4,6.2c2.4,0,4.4-1,4.8-3.4
		L465.4,917.9z M446.6,921.7h2.3v-12h-2.7v6.9c0,2.3-1.3,3.4-2.6,3.4c-1.4,0-2-0.8-2-2.5v-7.8H439v8.3c0,2.8,1.5,3.9,3.6,3.9
		c2,0,3.2-0.8,3.7-2.5L446.6,921.7z M430.8,911.6c1.9,0,2.9,1.3,2.9,4c0,2.9-1,4.2-2.9,4.2s-2.9-1.4-2.9-4.2
		C427.9,912.9,428.9,911.6,430.8,911.6 M430.8,922c3.4,0,5.6-2.3,5.6-6.4s-2.2-6.2-5.6-6.2s-5.6,2.2-5.6,6.2S427.4,922,430.8,922
		 M415.7,909.7h-3l4.4,12.7c-0.6,1.8-1.3,2.4-2.5,2.4c-0.6,0-1.1-0.1-1.6-0.4l-0.3,2.4c0.6,0.2,1.3,0.3,1.9,0.3
		c2.2,0,3.8-0.8,5.1-4.4l4.5-13h-2.9l-1.9,6.2c-0.7,2.3-0.9,3.8-0.9,3.8h-0.1c0,0-0.2-1.5-0.9-3.8L415.7,909.7z M400.2,911.6
		c1.9,0,2.9,1.3,2.9,4c0,2.9-1,4.2-2.9,4.2s-2.9-1.4-2.9-4.2C397.3,912.9,398.3,911.6,400.2,911.6 M400.2,922c3.4,0,5.6-2.3,5.6-6.4
		s-2.2-6.2-5.6-6.2s-5.6,2.2-5.6,6.2S396.8,922,400.2,922 M383.1,918.9c0.4,2.2,2,3,4.8,3c2.7,0,4.8-1,4.8-3.6
		c0-2.1-1.2-3.2-3.4-3.7l-1.7-0.4c-1.1-0.3-1.5-0.7-1.5-1.5c0-0.9,0.7-1.4,1.8-1.4c1.2,0,1.9,0.5,2,1.6l2.6-0.3
		c-0.2-2.3-1.8-3.3-4.5-3.3c-2.3,0-4.6,0.9-4.6,3.7c0,1.8,0.9,2.9,3,3.4l1.8,0.4c1.3,0.3,1.8,0.8,1.8,1.7c0,1-0.9,1.4-2.1,1.4
		c-1.3,0-2.3-0.6-2.5-1.9L383.1,918.9z M372.7,921.7h2.3v-12h-2.7v6.9c0,2.3-1.3,3.4-2.6,3.4c-1.4,0-2-0.8-2-2.5v-7.8H365v8.3
		c0,2.8,1.5,3.9,3.6,3.9c2,0,3.2-0.8,3.7-2.5L372.7,921.7z M356.8,911.6c1.9,0,2.9,1.3,2.9,4c0,2.9-1,4.2-2.9,4.2s-2.9-1.4-2.9-4.2
		C353.9,912.9,354.9,911.6,356.8,911.6 M356.8,922c3.4,0,5.6-2.3,5.6-6.4s-2.2-6.2-5.6-6.2s-5.6,2.2-5.6,6.2S353.5,922,356.8,922
		 M341.7,909.7h-3l4.4,12.7c-0.6,1.8-1.3,2.4-2.5,2.4c-0.6,0-1.1-0.1-1.6-0.4l-0.3,2.4c0.6,0.2,1.3,0.3,1.9,0.3
		c2.2,0,3.8-0.8,5.1-4.4l4.5-13h-2.9l-1.9,6.2c-0.7,2.3-0.9,3.8-0.9,3.8h-0.1c0,0-0.2-1.5-0.9-3.8L341.7,909.7z M323.9,904.3h-2.7
		v17.3h2.7v-6.8c0-2.4,1.3-3.2,2.6-3.2c1.4,0,1.9,0.9,1.9,2.3v7.6h2.7V913c0-2.6-1.7-3.7-3.6-3.7c-1.8,0-3.1,0.8-3.7,2.6v-7.6H323.9
		z M318.5,919c-0.7,0.5-1.2,0.7-2,0.7c-1,0-1.5-0.5-1.5-1.8v-6.1h3.6v-2.1H315v-2.9l-2.7,0.3v2.5h-1.7v2.1h1.7v6.6
		c0,2.4,1.4,3.5,3.6,3.5c1.2,0,2.3-0.2,3.2-0.7L318.5,919z M305.7,921.7h2.7v-12h-2.7V921.7z M305.3,905.9c0,1,0.8,1.7,1.7,1.7
		c1,0,1.8-0.7,1.8-1.7c0-1.1-0.8-1.7-1.8-1.7C306.1,904.2,305.3,904.8,305.3,905.9 M296.4,909.7h-2.6l-1.5,5.7
		c-0.6,2.4-0.7,4.3-0.7,4.3h-0.1c0,0-0.2-1.9-0.8-4.3l-1.5-5.7h-2.8l3.3,12h3.2l1.3-5.2c0.6-2.2,0.7-3.8,0.7-3.8h0.1
		c0,0,0.1,1.7,0.7,3.8l1.4,5.2h3.2l3.2-12H301l-1.4,5.8c-0.6,2.4-0.7,4.3-0.7,4.3h-0.1c0,0-0.1-1.9-0.8-4.3L296.4,909.7z
		 M275.8,911.3c-0.3-1.1-1.6-1.9-3.1-1.9c-3.4,0-5.4,2.4-5.4,6.5c0,4,2.2,6.1,4.7,6.1c1.7,0,3.2-0.6,3.8-2.4l0.3,2.1h2.4v-17.3h-2.7
		L275.8,911.3L275.8,911.3z M275.9,916.8c0,2-1.5,3-2.8,3c-1.8,0-3-1.4-3-4c0-3.2,1.4-4.3,3.1-4.3c1.3,0,2.7,0.8,2.7,2.9
		L275.9,916.8L275.9,916.8z M265.8,919.4c-0.3,0.1-0.5,0.1-0.9,0.1c-0.6,0-1.1-0.3-1.1-1v-14.1h-2.7v14.8c0,1.9,1.3,2.7,2.9,2.7
		c0.5,0,1-0.1,1.6-0.2L265.8,919.4z M259.2,909.4c-2.9-0.2-4.2,1.4-4.7,3.5l-0.3-3.3h-2.3v12h2.7v-5.9c0-2.4,1.6-3.5,3.2-3.5
		c0.4,0,0.8,0.1,1.2,0.2L259.2,909.4z M243.4,911.6c1.9,0,2.9,1.3,2.9,4c0,2.9-1,4.2-2.9,4.2s-2.9-1.4-2.9-4.2
		C240.5,912.9,241.5,911.6,243.4,911.6 M243.4,922c3.4,0,5.6-2.3,5.6-6.4s-2.2-6.2-5.6-6.2c-3.4,0-5.6,2.2-5.6,6.2
		S240.1,922,243.4,922 M229.3,909.7h-2.6l-1.5,5.7c-0.6,2.4-0.7,4.3-0.7,4.3h-0.1c0,0-0.2-1.9-0.8-4.3l-1.5-5.7h-2.8l3.3,12h3.2
		l1.3-5.2c0.6-2.2,0.7-3.8,0.7-3.8h0.1c0,0,0.1,1.7,0.7,3.8l1.4,5.2h3.2l3.2-12h-2.7l-1.4,5.8c-0.6,2.4-0.7,4.3-0.7,4.3h-0.1
		c0,0-0.1-1.9-0.8-4.3L229.3,909.7z"/>
	<path class="st0" d="M483.3,876.1c-2.9-0.2-4.2,1.4-4.7,3.5l-0.3-3.3H476v12h2.7v-5.9c0-2.4,1.6-3.5,3.2-3.5c0.4,0,0.8,0.1,1.2,0.2
		L483.3,876.1z M470,888.3h2.3v-12h-2.7v6.9c0,2.3-1.3,3.4-2.6,3.4c-1.4,0-2-0.8-2-2.5v-7.8h-2.7v8.3c0,2.8,1.5,3.9,3.6,3.9
		c2,0,3.2-0.8,3.7-2.5L470,888.3z M454.2,878.2c1.9,0,2.9,1.3,2.9,4c0,2.9-1,4.2-2.9,4.2s-2.9-1.4-2.9-4.2
		C451.3,879.6,452.3,878.2,454.2,878.2 M454.2,888.6c3.4,0,5.6-2.3,5.6-6.4s-2.2-6.2-5.6-6.2s-5.6,2.2-5.6,6.2
		S450.8,888.6,454.2,888.6 M432.9,880.3c0-1.5,0.8-2.3,2.3-2.3s2.4,0.8,2.4,2.3s-0.9,2.3-2.4,2.3
		C433.7,882.6,432.9,881.6,432.9,880.3 M431.9,890.3c0-1.1,0.9-1.6,2.3-1.6h2.7c1.3,0,1.8,0.5,1.8,1.4c0,1.3-1.4,1.8-3.8,1.8
		C433.1,891.9,431.9,891.5,431.9,890.3 M435.2,876.1c-3,0-5,1.5-5,4.3c0,1.8,0.9,3,2.4,3.6c-1.3,0.4-1.9,1.2-1.9,2.2
		s0.6,1.8,1.8,1.9c-2,0.2-3.1,1.1-3.1,2.6c0,2.4,2.6,3.1,5.4,3.1c3.2,0,6.6-0.9,6.6-4.1c0-2.1-1.5-3.4-4.2-3.4h-3.1
		c-0.8,0-1.2-0.3-1.2-0.9c0-0.5,0.2-0.9,0.7-1.2c0.3,0.1,0.9,0.2,1.5,0.2c2.8,0,5.1-1.3,5.1-4.1c0-0.9-0.2-1.6-0.5-2.2
		c1-0.2,1.9-1,2.1-2.2l-2.3-0.8c-0.2,0.9-0.4,1.5-0.9,1.8C437.7,876.3,436.6,876.1,435.2,876.1 M419.7,876.3h-2.2v12h2.7v-6.8
		c0-2.5,1.3-3.2,2.6-3.2c1.4,0,1.9,0.9,1.9,2.3v7.6h2.7v-8.5c0-2.6-1.7-3.7-3.6-3.7c-1.8,0-3.2,0.8-3.8,2.6L419.7,876.3z
		 M411.2,888.3h2.7v-12h-2.7V888.3z M410.8,872.6c0,1,0.8,1.7,1.7,1.7c1,0,1.8-0.7,1.8-1.7c0-1.1-0.8-1.7-1.8-1.7
		C411.6,870.8,410.8,871.5,410.8,872.6 M409,876.1c-2.9-0.2-4.2,1.4-4.7,3.5l-0.3-3.3h-2.3v12h2.7v-5.9c0-2.4,1.6-3.5,3.2-3.5
		c0.4,0,0.8,0.1,1.2,0.2L409,876.1z M397.7,879.8c0-2.7-1.9-3.8-4.4-3.8c-2.4,0-4.6,1-4.8,3.6l2.6,0.4c0.1-1.2,0.8-1.9,1.9-1.9
		c1.2,0,1.9,0.6,1.9,1.9v1.3c-4.8-0.2-6.9,1.3-6.9,3.9c0,2,1.5,3.3,3.6,3.3c1.6,0,2.9-0.5,3.5-2c0.3,1.3,1.2,1.9,2.6,1.9
		c0.6,0,1.1-0.1,1.5-0.3v-2c-0.2,0.1-0.4,0.1-0.7,0.1c-0.5,0-0.9-0.2-0.9-1.1L397.7,879.8L397.7,879.8z M395,884.7
		c0,1.3-1.3,2-2.5,2c-1.1,0-1.7-0.7-1.7-1.6c0-1.3,1.2-2,4.2-2V884.7z M378.3,871h-2.7v17.3h2.7v-6.8c0-2.4,1.3-3.2,2.6-3.2
		c1.4,0,1.9,0.9,1.9,2.3v7.6h2.7v-8.5c0-2.6-1.7-3.7-3.6-3.7c-1.8,0-3.1,0.8-3.7,2.6V871H378.3z M363.3,885.6c0.4,2.2,2,3,4.8,3
		c2.7,0,4.8-1,4.8-3.6c0-2.1-1.2-3.2-3.4-3.7l-1.7-0.4c-1.1-0.3-1.5-0.7-1.5-1.5c0-0.9,0.7-1.4,1.8-1.4c1.2,0,1.9,0.5,2,1.6l2.6-0.3
		c-0.2-2.3-1.8-3.3-4.5-3.3c-2.3,0-4.6,0.9-4.6,3.7c0,1.8,0.9,2.9,3,3.4l1.8,0.4c1.3,0.3,1.8,0.8,1.8,1.7c0,1-0.9,1.4-2.1,1.4
		c-1.3,0-2.3-0.6-2.5-1.9L363.3,885.6z M348.3,876.3h-3l4.4,12.7c-0.6,1.8-1.3,2.4-2.5,2.4c-0.6,0-1.1-0.1-1.6-0.4l-0.3,2.4
		c0.6,0.2,1.3,0.3,1.9,0.3c2.2,0,3.8-0.8,5.1-4.4l4.5-13H354l-1.9,6.2c-0.7,2.3-0.9,3.8-0.9,3.8h-0.1c0,0-0.2-1.5-0.9-3.8
		L348.3,876.3z M344.8,886c-0.3,0.1-0.5,0.1-0.9,0.1c-0.6,0-1.1-0.3-1.1-1V871h-2.7v14.8c0,1.9,1.3,2.7,2.9,2.7c0.5,0,1-0.1,1.6-0.2
		L344.8,886z M329.1,876.3h-2.2v12h2.7v-6.8c0-2.5,1.3-3.2,2.6-3.2c1.4,0,1.9,0.9,1.9,2.3v7.6h2.7v-8.5c0-2.6-1.7-3.7-3.6-3.7
		c-1.8,0-3.2,0.8-3.8,2.6L329.1,876.3z M316.4,881.1c0.2-1.8,1.2-3,2.8-3c1.5,0,2.4,1.1,2.4,2.5c0,0.2,0,0.3,0,0.5H316.4z
		 M319.3,886.5c-1.9,0-2.9-1.5-3-3.7h7.6c0.1-0.4,0.2-1,0.2-1.6c0-3-1.7-5.2-4.8-5.2c-3.4,0-5.6,2.4-5.6,6.4c0,3.9,2.2,6.2,5.5,6.2
		c2.3,0,4.4-0.8,4.9-3.3l-2.4-0.7C321.3,886,320.5,886.5,319.3,886.5 M303.1,886.7c0.4,1,1.5,1.9,3.3,1.9c3.3,0,5.2-2.8,5.2-6.6
		s-1.8-6-4.7-6c-1.6,0-3.2,0.6-4,2.6l-0.3-2.3h-2.3v17.2h2.7L303.1,886.7L303.1,886.7z M303.1,881.6c0-2.1,1.4-3.3,3-3.3
		c1.7,0,2.8,1.3,2.8,4c0,3-1.4,4.4-3.1,4.4c-1.2,0-2.7-0.8-2.7-3L303.1,881.6L303.1,881.6z M290.5,875.2c2.7,0,4.1,2.1,4.1,5.5
		s-1.4,5.5-4.1,5.5s-4.1-2.1-4.1-5.5S287.8,875.2,290.5,875.2 M290.5,888.6c4.3,0,7-2.9,7-7.9c0-5.1-2.7-8-7-8s-7,2.9-7,8
		C283.5,885.8,286.2,888.6,290.5,888.6 M271,886.6c0,1.1,0.8,1.9,1.9,1.9s1.9-0.9,1.9-1.9c0-1.1-0.8-1.9-1.9-1.9
		C271.8,884.6,271,885.5,271,886.6 M260.2,878.7c-0.3-1.9-1.6-2.6-3.2-2.6c-1.7,0-3.1,0.8-3.7,2.6l-0.3-2.3h-2.2v12h2.7v-6.8
		c0-2.3,1.2-3.2,2.5-3.2c1.3,0,1.9,0.9,1.9,2.3v7.6h2.7v-6.8c0-2.3,1.2-3.2,2.5-3.2s1.8,0.9,1.8,2.3v7.6h2.7v-8.6
		c0-2.6-1.5-3.7-3.5-3.7C262.3,876.1,260.8,876.8,260.2,878.7 M242.3,878.2c1.9,0,2.9,1.3,2.9,4c0,2.9-1,4.2-2.9,4.2
		s-2.9-1.4-2.9-4.2C239.4,879.6,240.4,878.2,242.3,878.2 M242.3,888.6c3.4,0,5.6-2.3,5.6-6.4s-2.2-6.2-5.6-6.2
		c-3.4,0-5.6,2.2-5.6,6.2S239,888.6,242.3,888.6 M235.8,876.1c-2.9-0.2-4.2,1.4-4.7,3.5l-0.3-3.3h-2.3v12h2.7v-5.9
		c0-2.4,1.6-3.5,3.2-3.5c0.4,0,0.8,0.1,1.2,0.2L235.8,876.1z M221.1,878.5v9.9h2.7v-9.9h3.1v-2.1h-3.1v-1.1c0-1.6,0.7-2.2,1.8-2.2
		c0.8,0,1.3,0.2,2,0.5l0.4-2.3c-0.7-0.3-1.6-0.5-2.6-0.5c-2.3,0-4.4,1.1-4.4,4.3v1.2h-1.7v2.1L221.1,878.5L221.1,878.5z"/>
	<path class="st0" d="M462.5,847.7c0.2-1.8,1.2-3,2.8-3c1.5,0,2.4,1.1,2.4,2.5c0,0.2,0,0.3,0,0.5H462.5z M465.4,853.2
		c-1.9,0-2.9-1.5-3-3.7h7.6c0.1-0.4,0.2-1,0.2-1.6c0-3-1.7-5.2-4.8-5.2c-3.4,0-5.6,2.4-5.6,6.4c0,3.9,2.2,6.2,5.5,6.2
		c2.3,0,4.4-0.8,4.9-3.3l-2.4-0.7C467.4,852.7,466.6,853.2,465.4,853.2 M449.8,845.4c-0.3-1.9-1.6-2.6-3.2-2.6s-3.1,0.8-3.7,2.6
		l-0.3-2.3h-2.2v12h2.7v-6.8c0-2.3,1.2-3.2,2.5-3.2s1.9,0.9,1.9,2.3v7.6h2.7v-6.8c0-2.3,1.2-3.2,2.5-3.2s1.8,0.9,1.8,2.3v7.6h2.7
		v-8.6c0-2.6-1.5-3.7-3.5-3.7C451.9,842.7,450.4,843.5,449.8,845.4 M431.9,844.9c1.9,0,2.9,1.3,2.9,4c0,2.9-1,4.2-2.9,4.2
		s-2.9-1.4-2.9-4.2C429,846.2,430,844.9,431.9,844.9 M431.9,855.3c3.4,0,5.6-2.3,5.6-6.4s-2.2-6.2-5.6-6.2s-5.6,2.2-5.6,6.2
		S428.5,855.3,431.9,855.3 M422.3,851.2c-0.4,1.4-1.2,1.9-2.3,1.9c-1.8,0-3-1.7-3-4.1s1-4.1,2.9-4.1c1.3,0,2,0.8,2.2,2.2l2.4-0.5
		c-0.2-2.4-1.9-3.8-4.5-3.8c-3.4,0-5.6,2.4-5.6,6.4s2.2,6.2,5.4,6.2c2.4,0,4.4-1,4.8-3.4L422.3,851.2z M403.5,855h2.3v-12h-2.7v6.9
		c0,2.3-1.3,3.4-2.6,3.4c-1.4,0-2-0.8-2-2.5V843h-2.7v8.3c0,2.8,1.5,3.9,3.6,3.9c2,0,3.2-0.8,3.7-2.5L403.5,855z M387.7,844.9
		c1.9,0,2.9,1.3,2.9,4c0,2.9-1,4.2-2.9,4.2s-2.9-1.4-2.9-4.2C384.7,846.2,385.7,844.9,387.7,844.9 M387.7,855.3
		c3.4,0,5.6-2.3,5.6-6.4s-2.2-6.2-5.6-6.2s-5.6,2.2-5.6,6.2S384.3,855.3,387.7,855.3 M372.5,843h-3l4.4,12.7
		c-0.6,1.8-1.3,2.4-2.5,2.4c-0.6,0-1.1-0.1-1.6-0.4l-0.3,2.4c0.6,0.2,1.3,0.3,1.9,0.3c2.2,0,3.8-0.8,5.1-4.4l4.5-13h-2.9l-1.9,6.2
		c-0.7,2.3-0.9,3.8-0.9,3.8h-0.1c0,0-0.2-1.5-0.9-3.8L372.5,843z M363.3,842.7c-2.9-0.2-4.2,1.4-4.7,3.5l-0.3-3.3H356v12h2.7V849
		c0-2.4,1.6-3.5,3.2-3.5c0.4,0,0.8,0.1,1.2,0.2L363.3,842.7z M345.3,847.7c0.2-1.8,1.2-3,2.8-3c1.5,0,2.4,1.1,2.4,2.5
		c0,0.2,0,0.3,0,0.5H345.3z M348.2,853.2c-1.9,0-2.9-1.5-3-3.7h7.6c0.1-0.4,0.2-1,0.2-1.6c0-3-1.7-5.2-4.8-5.2
		c-3.4,0-5.6,2.4-5.6,6.4c0,3.9,2.2,6.2,5.5,6.2c2.3,0,4.4-0.8,4.9-3.3l-2.4-0.7C350.3,852.7,349.4,853.2,348.2,853.2 M334.3,855
		h3.1l4.2-12h-2.8l-1.9,6.2c-0.7,2.2-0.9,3.8-0.9,3.8h-0.1c0,0-0.2-1.7-0.9-3.8l-1.9-6.2h-2.9L334.3,855z M321.3,847.7
		c0.2-1.8,1.2-3,2.8-3c1.5,0,2.4,1.1,2.4,2.5c0,0.2,0,0.3,0,0.5H321.3z M324.3,853.2c-1.9,0-2.9-1.5-3-3.7h7.6
		c0.1-0.4,0.2-1,0.2-1.6c0-3-1.7-5.2-4.8-5.2c-3.4,0-5.6,2.4-5.6,6.4c0,3.9,2.2,6.2,5.5,6.2c2.3,0,4.4-0.8,4.9-3.3l-2.4-0.7
		C326.3,852.7,325.4,853.2,324.3,853.2 M317.7,842.7c-2.9-0.2-4.2,1.4-4.7,3.5l-0.3-3.3h-2.3v12h2.7V849c0-2.4,1.6-3.5,3.2-3.5
		c0.4,0,0.8,0.1,1.2,0.2L317.7,842.7z M299.8,847.7c0.2-1.8,1.2-3,2.8-3c1.5,0,2.4,1.1,2.4,2.5c0,0.2,0,0.3,0,0.5H299.8z
		 M302.7,853.2c-1.9,0-2.9-1.5-3-3.7h7.6c0.1-0.4,0.2-1,0.2-1.6c0-3-1.7-5.2-4.8-5.2c-3.4,0-5.6,2.4-5.6,6.4c0,3.9,2.2,6.2,5.5,6.2
		c2.3,0,4.4-0.8,4.9-3.3l-2.4-0.7C304.8,852.7,303.9,853.2,302.7,853.2 M287.2,837.7h-2.7V855h2.7v-6.8c0-2.4,1.3-3.2,2.6-3.2
		c1.4,0,1.9,0.9,1.9,2.3v7.6h2.7v-8.5c0-2.6-1.7-3.7-3.6-3.7c-1.8,0-3.1,0.8-3.7,2.6v-7.6H287.2z M275.1,843h-2.6l-1.5,5.7
		c-0.6,2.4-0.7,4.3-0.7,4.3h-0.1c0,0-0.2-1.9-0.8-4.3l-1.5-5.7h-2.8l3.3,12h3.2l1.3-5.2c0.6-2.2,0.7-3.8,0.7-3.8h0.1
		c0,0,0.1,1.7,0.7,3.8l1.4,5.2h3.2l3.2-12h-2.7l-1.4,5.8c-0.6,2.4-0.7,4.3-0.7,4.3h-0.1c0,0-0.1-1.9-0.8-4.3L275.1,843z
		 M254.6,844.6c-0.3-1.1-1.6-1.9-3.1-1.9c-3.4,0-5.4,2.4-5.4,6.5c0,4,2.2,6.1,4.7,6.1c1.7,0,3.2-0.6,3.8-2.4l0.3,2.1h2.4v-17.3h-2.7
		L254.6,844.6L254.6,844.6z M254.6,850.1c0,2-1.5,3-2.8,3c-1.8,0-3-1.4-3-4c0-3.2,1.4-4.3,3.1-4.3c1.3,0,2.7,0.8,2.7,2.9V850.1z
		 M235.6,843h-2.2v12h2.7v-6.8c0-2.5,1.3-3.2,2.6-3.2c1.4,0,1.9,0.9,1.9,2.3v7.6h2.7v-8.5c0-2.6-1.7-3.7-3.6-3.7
		c-1.8,0-3.2,0.8-3.8,2.6L235.6,843z M229.5,846.5c0-2.7-1.9-3.8-4.4-3.8c-2.4,0-4.6,1-4.8,3.6l2.6,0.4c0.1-1.2,0.8-1.9,1.9-1.9
		c1.2,0,1.9,0.6,1.9,1.9v1.3c-4.8-0.2-6.9,1.3-6.9,3.9c0,2,1.5,3.3,3.6,3.3c1.6,0,2.9-0.5,3.5-2c0.3,1.3,1.2,1.9,2.6,1.9
		c0.6,0,1.1-0.1,1.5-0.3v-2c-0.2,0.1-0.4,0.1-0.7,0.1c-0.5,0-0.9-0.2-0.9-1.1L229.5,846.5L229.5,846.5z M226.8,851.3
		c0,1.3-1.3,2-2.5,2c-1.1,0-1.7-0.7-1.7-1.6c0-1.3,1.2-2,4.2-2V851.3z"/>
	<path class="st0" d="M483.8,814.4c0.2-1.8,1.2-3,2.8-3c1.5,0,2.4,1.1,2.4,2.5c0,0.2,0,0.3,0,0.5H483.8z M486.7,819.8
		c-1.9,0-2.9-1.5-3-3.7h7.6c0.1-0.4,0.2-1,0.2-1.6c0-3-1.7-5.2-4.8-5.2c-3.4,0-5.6,2.4-5.6,6.4c0,3.9,2.2,6.2,5.5,6.2
		c2.3,0,4.4-0.8,4.9-3.3l-2.4-0.7C488.8,819.4,487.9,819.8,486.7,819.8 M480.2,809.4c-2.9-0.2-4.2,1.4-4.7,3.5l-0.3-3.3h-2.3v12h2.7
		v-5.9c0-2.4,1.6-3.5,3.2-3.5c0.4,0,0.8,0.1,1.2,0.2L480.2,809.4z M468.9,813.2c0-2.7-1.9-3.8-4.4-3.8c-2.4,0-4.6,1-4.8,3.6l2.6,0.4
		c0.1-1.2,0.8-1.9,1.9-1.9c1.2,0,1.9,0.6,1.9,1.9v1.3c-4.8-0.2-6.9,1.3-6.9,3.9c0,2,1.5,3.3,3.6,3.3c1.6,0,2.9-0.5,3.5-2
		c0.3,1.3,1.2,1.9,2.6,1.9c0.6,0,1.1-0.1,1.5-0.3v-2c-0.2,0.1-0.4,0.1-0.7,0.1c-0.5,0-0.9-0.2-0.9-1.1L468.9,813.2L468.9,813.2z
		 M466.2,818c0,1.3-1.3,2-2.5,2c-1.1,0-1.7-0.7-1.7-1.6c0-1.3,1.2-2,4.2-2V818z M448.6,821.6h2.3v-12h-2.7v6.9
		c0,2.3-1.3,3.4-2.6,3.4c-1.4,0-2-0.8-2-2.5v-7.8h-2.7v8.3c0,2.8,1.5,3.9,3.6,3.9c2,0,3.2-0.8,3.7-2.5L448.6,821.6z M432.7,811.6
		c1.9,0,2.9,1.3,2.9,4c0,2.9-1,4.2-2.9,4.2s-2.9-1.4-2.9-4.2C429.8,812.9,430.8,811.6,432.7,811.6 M432.7,822c3.4,0,5.6-2.3,5.6-6.4
		s-2.2-6.2-5.6-6.2s-5.6,2.2-5.6,6.2S429.3,822,432.7,822 M417.6,809.7h-3l4.4,12.7c-0.6,1.8-1.3,2.4-2.5,2.4
		c-0.6,0-1.1-0.1-1.6-0.4l-0.3,2.4c0.6,0.2,1.3,0.3,1.9,0.3c2.2,0,3.8-0.8,5.1-4.4l4.5-13h-2.9l-1.9,6.2c-0.7,2.3-0.9,3.8-0.9,3.8
		h-0.1c0,0-0.2-1.5-0.9-3.8L417.6,809.7z M408.3,809.4c-2.9-0.2-4.2,1.4-4.7,3.5l-0.3-3.3H401v12h2.7v-5.9c0-2.4,1.6-3.5,3.2-3.5
		c0.4,0,0.8,0.1,1.2,0.2L408.3,809.4z M390.4,814.4c0.2-1.8,1.2-3,2.8-3c1.5,0,2.4,1.1,2.4,2.5c0,0.2,0,0.3,0,0.5H390.4z
		 M393.3,819.8c-1.9,0-2.9-1.5-3-3.7h7.6c0.1-0.4,0.2-1,0.2-1.6c0-3-1.7-5.2-4.8-5.2c-3.4,0-5.6,2.4-5.6,6.4c0,3.9,2.2,6.2,5.5,6.2
		c2.3,0,4.4-0.8,4.9-3.3l-2.4-0.7C395.4,819.4,394.5,819.8,393.3,819.8 M379.4,821.6h3.1l4.2-12h-2.8l-1.9,6.2
		c-0.7,2.2-0.9,3.8-0.9,3.8H381c0,0-0.2-1.7-0.9-3.8l-1.9-6.2h-2.9L379.4,821.6z M366.4,814.4c0.2-1.8,1.2-3,2.8-3
		c1.5,0,2.4,1.1,2.4,2.5c0,0.2,0,0.3,0,0.5H366.4z M369.3,819.8c-1.9,0-2.9-1.5-3-3.7h7.6c0.1-0.4,0.2-1,0.2-1.6
		c0-3-1.7-5.2-4.8-5.2c-3.4,0-5.6,2.4-5.6,6.4c0,3.9,2.2,6.2,5.5,6.2c2.3,0,4.4-0.8,4.9-3.3l-2.4-0.7
		C371.4,819.4,370.5,819.8,369.3,819.8 M356.1,811.6c1.9,0,2.9,1.3,2.9,4c0,2.9-1,4.2-2.9,4.2s-2.9-1.4-2.9-4.2
		C353.2,812.9,354.2,811.6,356.1,811.6 M356.1,822c3.4,0,5.6-2.3,5.6-6.4s-2.2-6.2-5.6-6.2s-5.6,2.2-5.6,6.2S352.7,822,356.1,822
		 M340.6,804.3h-2.7v17.3h2.7v-6.8c0-2.4,1.3-3.2,2.6-3.2c1.4,0,1.9,0.9,1.9,2.3v7.6h2.7V813c0-2.6-1.7-3.7-3.6-3.7
		c-1.8,0-3.1,0.8-3.7,2.6v-7.6H340.6z M328.5,809.7h-2.6l-1.5,5.7c-0.6,2.4-0.7,4.3-0.7,4.3h-0.1c0,0-0.2-1.9-0.8-4.3l-1.5-5.7h-2.8
		l3.3,12h3.2l1.3-5.2c0.6-2.2,0.7-3.8,0.7-3.8h0.1c0,0,0.1,1.7,0.7,3.8l1.4,5.2h3.2l3.2-12h-2.7l-1.4,5.8c-0.6,2.4-0.7,4.3-0.7,4.3
		h-0.1c0,0-0.1-1.9-0.8-4.3L328.5,809.7z M310.8,820.6c0-1.5-0.9-2.5-2.1-2.5c-1.1,0-1.9,0.6-1.9,1.7c0,1.1,0.9,1.8,2,1.6
		c0,1.2-0.9,1.8-2.2,1.9v1.2C309.1,824.6,310.8,823.4,310.8,820.6 M303.7,818.9c-0.7,0.5-1.2,0.7-2,0.7c-1,0-1.5-0.5-1.5-1.8v-6.1
		h3.6v-2.1h-3.6v-2.9l-2.7,0.3v2.5h-1.7v2.1h1.7v6.6c0,2.4,1.4,3.5,3.6,3.5c1.2,0,2.3-0.2,3.2-0.7L303.7,818.9z M292.4,817.9
		c-0.4,1.4-1.2,1.9-2.3,1.9c-1.8,0-3-1.7-3-4.1c0-2.5,1-4.1,2.9-4.1c1.3,0,2,0.8,2.2,2.2l2.4-0.5c-0.2-2.4-1.9-3.8-4.5-3.8
		c-3.4,0-5.6,2.4-5.6,6.4s2.2,6.2,5.4,6.2c2.4,0,4.4-1,4.8-3.4L292.4,817.9z M274.7,814.4c0.2-1.8,1.2-3,2.8-3
		c1.5,0,2.4,1.1,2.4,2.5c0,0.2,0,0.3,0,0.5H274.7z M277.6,819.8c-1.9,0-2.9-1.5-3-3.7h7.6c0.1-0.4,0.2-1,0.2-1.6
		c0-3-1.7-5.2-4.8-5.2c-3.4,0-5.6,2.4-5.6,6.4c0,3.9,2.2,6.2,5.5,6.2c2.3,0,4.4-0.8,4.9-3.3l-2.4-0.7
		C279.7,819.4,278.8,819.8,277.6,819.8 M261.6,809.7h-2.2v12h2.7v-6.8c0-2.5,1.3-3.2,2.6-3.2c1.4,0,1.9,0.9,1.9,2.3v7.6h2.7v-8.5
		c0-2.6-1.7-3.7-3.6-3.7c-1.8,0-3.2,0.8-3.8,2.6L261.6,809.7z M248.1,809.7h-2.2v12h2.7v-6.8c0-2.5,1.3-3.2,2.6-3.2
		c1.4,0,1.9,0.9,1.9,2.3v7.6h2.7v-8.5c0-2.6-1.7-3.7-3.6-3.7c-1.8,0-3.2,0.8-3.8,2.6L248.1,809.7z M237.6,811.6c1.9,0,2.9,1.3,2.9,4
		c0,2.9-1,4.2-2.9,4.2s-2.9-1.4-2.9-4.2C234.7,812.9,235.6,811.6,237.6,811.6 M237.6,822c3.4,0,5.6-2.3,5.6-6.4s-2.2-6.2-5.6-6.2
		c-3.4,0-5.6,2.2-5.6,6.2S234.2,822,237.6,822 M227.9,817.9c-0.4,1.4-1.2,1.9-2.3,1.9c-1.8,0-3-1.7-3-4.1c0-2.5,1-4.1,2.9-4.1
		c1.3,0,2,0.8,2.2,2.2l2.4-0.5c-0.2-2.4-1.9-3.8-4.5-3.8c-3.4,0-5.6,2.4-5.6,6.4s2.2,6.2,5.4,6.2c2.4,0,4.4-1,4.8-3.4L227.9,817.9z"
		/>
	<path class="st0" d="M480.6,778.2c1.9,0,2.9,1.3,2.9,4c0,2.9-1,4.2-2.9,4.2s-2.9-1.4-2.9-4.2C477.7,779.5,478.7,778.2,480.6,778.2
		 M480.6,788.6c3.4,0,5.6-2.3,5.6-6.4c0-4.1-2.2-6.2-5.6-6.2s-5.6,2.2-5.6,6.2C475.1,786.3,477.3,788.6,480.6,788.6 M473.3,785.6
		c-0.7,0.5-1.2,0.7-2,0.7c-1,0-1.5-0.5-1.5-1.8v-6.1h3.6v-2.1h-3.6v-2.9l-2.7,0.3v2.5h-1.7v2.1h1.7v6.6c0,2.4,1.4,3.5,3.6,3.5
		c1.2,0,2.3-0.2,3.2-0.7L473.3,785.6z M450.5,781.1c0.2-1.8,1.2-3,2.8-3c1.5,0,2.4,1.1,2.4,2.5c0,0.2,0,0.3,0,0.5H450.5z
		 M453.4,786.5c-1.9,0-2.9-1.5-3-3.7h7.6c0.1-0.4,0.2-1,0.2-1.6c0-3-1.7-5.2-4.8-5.2c-3.4,0-5.6,2.4-5.6,6.4c0,3.9,2.2,6.2,5.5,6.2
		c2.3,0,4.4-0.8,4.9-3.3l-2.4-0.7C455.5,786,454.6,786.5,453.4,786.5 M443.8,784.5c-0.4,1.4-1.2,1.9-2.3,1.9c-1.8,0-3-1.7-3-4.1
		s1-4.1,2.9-4.1c1.3,0,2,0.8,2.2,2.2l2.4-0.5c-0.2-2.4-1.9-3.8-4.5-3.8c-3.4,0-5.6,2.4-5.6,6.4s2.2,6.2,5.4,6.2c2.4,0,4.4-1,4.8-3.4
		L443.8,784.5z M425.4,776.3h-2.2v12h2.7v-6.8c0-2.5,1.3-3.2,2.6-3.2c1.4,0,1.9,0.9,1.9,2.3v7.6h2.7v-8.5c0-2.6-1.7-3.7-3.6-3.7
		c-1.8,0-3.2,0.8-3.8,2.6L425.4,776.3z M419.3,779.8c0-2.7-1.9-3.8-4.4-3.8c-2.4,0-4.6,1-4.8,3.6l2.6,0.4c0.1-1.2,0.8-1.9,1.9-1.9
		s1.9,0.6,1.9,1.9v1.3c-4.8-0.2-6.9,1.3-6.9,3.9c0,2,1.5,3.3,3.6,3.3c1.6,0,2.9-0.5,3.5-2c0.3,1.3,1.2,1.9,2.6,1.9
		c0.6,0,1.1-0.1,1.5-0.3v-2c-0.2,0.1-0.4,0.1-0.7,0.1c-0.5,0-0.9-0.2-0.9-1.1L419.3,779.8L419.3,779.8z M416.6,784.6
		c0,1.3-1.3,2-2.5,2c-1.1,0-1.7-0.7-1.7-1.6c0-1.3,1.2-2,4.2-2V784.6z M399.9,771h-2.7v17.3h2.7v-6.8c0-2.4,1.3-3.2,2.6-3.2
		c1.4,0,1.9,0.9,1.9,2.3v7.6h2.7v-8.5c0-2.6-1.7-3.7-3.6-3.7c-1.8,0-3.1,0.8-3.7,2.6V771H399.9z M392.3,784.5
		c-0.4,1.4-1.2,1.9-2.3,1.9c-1.8,0-3-1.7-3-4.1s1-4.1,2.9-4.1c1.3,0,2,0.8,2.2,2.2l2.4-0.5c-0.2-2.4-1.9-3.8-4.5-3.8
		c-3.4,0-5.6,2.4-5.6,6.4s2.2,6.2,5.4,6.2c2.4,0,4.4-1,4.8-3.4L392.3,784.5z M375.5,779.8c0-2.7-1.9-3.8-4.4-3.8
		c-2.4,0-4.6,1-4.8,3.6l2.6,0.4c0.1-1.2,0.8-1.9,1.9-1.9s1.9,0.6,1.9,1.9v1.3c-4.8-0.2-6.9,1.3-6.9,3.9c0,2,1.5,3.3,3.6,3.3
		c1.6,0,2.9-0.5,3.5-2c0.3,1.3,1.2,1.9,2.6,1.9c0.6,0,1.1-0.1,1.5-0.3v-2c-0.2,0.1-0.4,0.1-0.7,0.1c-0.5,0-0.9-0.2-0.9-1.1
		L375.5,779.8L375.5,779.8z M372.8,784.6c0,1.3-1.3,2-2.5,2c-1.1,0-1.7-0.7-1.7-1.6c0-1.3,1.2-2,4.2-2V784.6z M348.9,785.6
		c0.4,2.2,2,3,4.8,3c2.7,0,4.8-1,4.8-3.6c0-2.1-1.2-3.2-3.4-3.7l-1.7-0.4c-1.1-0.3-1.5-0.7-1.5-1.5c0-0.9,0.7-1.4,1.8-1.4
		c1.2,0,1.9,0.5,2,1.6l2.6-0.3c-0.2-2.3-1.8-3.3-4.5-3.3c-2.3,0-4.6,0.9-4.6,3.7c0,1.8,0.9,2.9,3,3.4l1.8,0.4
		c1.3,0.3,1.8,0.8,1.8,1.7c0,1-0.9,1.4-2.1,1.4c-1.3,0-2.3-0.6-2.5-1.9L348.9,785.6z M343.7,788.3h2.7v-12h-2.7V788.3z M343.3,772.5
		c0,1,0.8,1.7,1.7,1.7c1,0,1.8-0.7,1.8-1.7c0-1.1-0.8-1.7-1.8-1.7C344.1,770.8,343.3,771.5,343.3,772.5 M326.8,776.3h-2.2v12h2.7
		v-6.8c0-2.5,1.3-3.2,2.6-3.2c1.4,0,1.9,0.9,1.9,2.3v7.6h2.7v-8.5c0-2.6-1.7-3.7-3.6-3.7c-1.8,0-3.2,0.8-3.8,2.6L326.8,776.3z
		 M316.2,778.2c1.9,0,2.9,1.3,2.9,4c0,2.9-1,4.2-2.9,4.2s-2.9-1.4-2.9-4.2C313.3,779.5,314.3,778.2,316.2,778.2 M316.2,788.6
		c3.4,0,5.6-2.3,5.6-6.4c0-4.1-2.2-6.2-5.6-6.2s-5.6,2.2-5.6,6.2C310.6,786.3,312.8,788.6,316.2,788.6 M305.1,788.3h2.7v-12h-2.7
		V788.3z M304.7,772.5c0,1,0.8,1.7,1.7,1.7c1,0,1.8-0.7,1.8-1.7c0-1.1-0.8-1.7-1.8-1.7C305.5,770.8,304.7,771.5,304.7,772.5
		 M302.4,785.6c-0.7,0.5-1.2,0.7-2,0.7c-1,0-1.5-0.5-1.5-1.8v-6.1h3.6v-2.1h-3.6v-2.9l-2.7,0.3v2.5h-1.7v2.1h1.7v6.6
		c0,2.4,1.4,3.5,3.6,3.5c1.2,0,2.3-0.2,3.2-0.7L302.4,785.6z M291.1,784.5c-0.4,1.4-1.2,1.9-2.3,1.9c-1.8,0-3-1.7-3-4.1
		s1-4.1,2.9-4.1c1.3,0,2,0.8,2.2,2.2l2.4-0.5c-0.2-2.4-1.9-3.8-4.5-3.8c-3.4,0-5.6,2.4-5.6,6.4s2.2,6.2,5.4,6.2c2.4,0,4.4-1,4.8-3.4
		L291.1,784.5z M280,779.8c0-2.7-1.9-3.8-4.4-3.8c-2.4,0-4.6,1-4.8,3.6l2.6,0.4c0.1-1.2,0.8-1.9,1.9-1.9s1.9,0.6,1.9,1.9v1.3
		c-4.8-0.2-6.9,1.3-6.9,3.9c0,2,1.5,3.3,3.6,3.3c1.6,0,2.9-0.5,3.5-2c0.3,1.3,1.2,1.9,2.6,1.9c0.6,0,1.1-0.1,1.5-0.3v-2
		c-0.2,0.1-0.4,0.1-0.7,0.1c-0.5,0-0.9-0.2-0.9-1.1L280,779.8L280,779.8z M277.3,784.6c0,1.3-1.3,2-2.5,2c-1.1,0-1.7-0.7-1.7-1.6
		c0-1.3,1.2-2,4.2-2V784.6z M269.4,776.1c-2.9-0.2-4.2,1.4-4.7,3.5l-0.3-3.3H262v12h2.7v-5.9c0-2.4,1.6-3.5,3.2-3.5
		c0.4,0,0.8,0.1,1.2,0.2L269.4,776.1z M251.5,781.1c0.2-1.8,1.2-3,2.8-3c1.5,0,2.4,1.1,2.4,2.5c0,0.2,0,0.3,0,0.5H251.5z
		 M254.4,786.5c-1.9,0-2.9-1.5-3-3.7h7.6c0.1-0.4,0.2-1,0.2-1.6c0-3-1.7-5.2-4.8-5.2c-3.4,0-5.6,2.4-5.6,6.4c0,3.9,2.2,6.2,5.5,6.2
		c2.3,0,4.4-0.8,4.9-3.3l-2.4-0.7C256.4,786,255.6,786.5,254.4,786.5 M247,785.6c-0.7,0.5-1.2,0.7-2,0.7c-1,0-1.5-0.5-1.5-1.8v-6.1
		h3.6v-2.1h-3.6v-2.9l-2.7,0.3v2.5H239v2.1h1.7v6.6c0,2.4,1.4,3.5,3.6,3.5c1.2,0,2.3-0.2,3.2-0.7L247,785.6z M229.3,776.3h-2.2v12
		h2.7v-6.8c0-2.5,1.3-3.2,2.6-3.2c1.4,0,1.9,0.9,1.9,2.3v7.6h2.7v-8.5c0-2.6-1.7-3.7-3.6-3.7c-1.8,0-3.2,0.8-3.8,2.6L229.3,776.3z
		 M220.8,788.3h2.7v-12h-2.7V788.3z M220.4,772.5c0,1,0.8,1.7,1.7,1.7c1,0,1.8-0.7,1.8-1.7c0-1.1-0.8-1.7-1.8-1.7
		C221.2,770.8,220.4,771.5,220.4,772.5"/>
	<path class="st0" d="M490.4,743h-3l4.4,12.7c-0.6,1.8-1.3,2.4-2.5,2.4c-0.6,0-1.1-0.1-1.6-0.4l-0.3,2.4c0.6,0.2,1.3,0.3,1.9,0.3
		c2.2,0,3.8-0.8,5.1-4.4l4.5-13H496l-1.9,6.2c-0.7,2.3-0.9,3.8-0.9,3.8h-0.1c0,0-0.2-1.5-0.9-3.8L490.4,743z M486.9,742.7
		c-2.9-0.2-4.2,1.4-4.7,3.5l-0.3-3.3h-2.3v12h2.7V749c0-2.4,1.6-3.5,3.2-3.5c0.4,0,0.8,0.1,1.2,0.2L486.9,742.7z M468.9,747.7
		c0.2-1.8,1.2-3,2.8-3c1.5,0,2.4,1.1,2.4,2.5c0,0.2,0,0.3,0,0.5H468.9z M471.9,753.1c-1.9,0-2.9-1.5-3-3.7h7.6
		c0.1-0.4,0.2-1,0.2-1.6c0-3-1.7-5.2-4.8-5.2c-3.4,0-5.6,2.4-5.6,6.4c0,3.9,2.2,6.2,5.5,6.2c2.3,0,4.4-0.8,4.9-3.3l-2.4-0.7
		C473.9,752.7,473,753.1,471.9,753.1 M457.9,755h3.1l4.2-12h-2.8l-1.9,6.2c-0.7,2.2-0.9,3.8-0.9,3.8h-0.1c0,0-0.2-1.7-0.9-3.8
		l-1.9-6.2h-2.9L457.9,755z M445,747.7c0.2-1.8,1.2-3,2.8-3c1.5,0,2.4,1.1,2.4,2.5c0,0.2,0,0.3,0,0.5H445z M447.9,753.1
		c-1.9,0-2.9-1.5-3-3.7h7.6c0.1-0.4,0.2-1,0.2-1.6c0-3-1.7-5.2-4.8-5.2c-3.4,0-5.6,2.4-5.6,6.4c0,3.9,2.2,6.2,5.5,6.2
		c2.3,0,4.4-0.8,4.9-3.3l-2.4-0.7C449.9,752.7,449.1,753.1,447.9,753.1 M426.8,747.7c0.2-1.8,1.2-3,2.8-3c1.5,0,2.4,1.1,2.4,2.5
		c0,0.2,0,0.3,0,0.5H426.8z M429.7,753.1c-1.9,0-2.9-1.5-3-3.7h7.6c0.1-0.4,0.2-1,0.2-1.6c0-3-1.7-5.2-4.8-5.2
		c-3.4,0-5.6,2.4-5.6,6.4c0,3.9,2.2,6.2,5.5,6.2c2.3,0,4.4-0.8,4.9-3.3l-2.4-0.7C431.7,752.7,430.9,753.1,429.7,753.1 M423.1,742.7
		c-2.9-0.2-4.2,1.4-4.7,3.5l-0.3-3.3h-2.3v12h2.7V749c0-2.4,1.6-3.5,3.2-3.5c0.4,0,0.8,0.1,1.2,0.2L423.1,742.7z M405.2,747.7
		c0.2-1.8,1.2-3,2.8-3c1.5,0,2.4,1.1,2.4,2.5c0,0.2,0,0.3,0,0.5H405.2z M408.1,753.1c-1.9,0-2.9-1.5-3-3.7h7.6
		c0.1-0.4,0.2-1,0.2-1.6c0-3-1.7-5.2-4.8-5.2c-3.4,0-5.6,2.4-5.6,6.4c0,3.9,2.2,6.2,5.5,6.2c2.3,0,4.4-0.8,4.9-3.3l-2.4-0.7
		C410.2,752.7,409.3,753.1,408.1,753.1 M392.6,737.6h-2.7V755h2.7v-6.8c0-2.4,1.3-3.2,2.6-3.2c1.4,0,1.9,0.9,1.9,2.3v7.6h2.7v-8.5
		c0-2.6-1.7-3.7-3.6-3.7c-1.8,0-3.1,0.8-3.7,2.6v-7.7H392.6z M378.9,739.7h-3.2l-2.3,9.2c-0.5,2.3-0.8,4.2-0.8,4.2h-0.1
		c0,0-0.2-1.9-0.8-4.2l-2.2-9.2h-2.9l3.8,15.3h3.9l2.1-8.5c0.6-2.3,0.7-4.2,0.7-4.2h0.1c0,0,0.1,1.9,0.6,4.2l2.1,8.5h4l3.8-15.3
		h-2.8l-2.2,9.2c-0.5,2.3-0.8,4.2-0.8,4.2h-0.1c0,0-0.2-1.9-0.8-4.2L378.9,739.7z M354.9,753.2c0,1.1,0.8,1.9,1.9,1.9
		s1.9-0.9,1.9-1.9c0-1.1-0.8-1.9-1.9-1.9C355.7,751.3,354.9,752.1,354.9,753.2 M343.6,743h-2.2v12h2.7v-6.8c0-2.5,1.3-3.2,2.6-3.2
		c1.4,0,1.9,0.9,1.9,2.3v7.6h2.7v-8.5c0-2.6-1.7-3.7-3.6-3.7c-1.8,0-3.2,0.8-3.8,2.6L343.6,743z M335.1,755h2.7v-12h-2.7V755z
		 M334.7,739.2c0,1,0.8,1.7,1.7,1.7c1,0,1.8-0.7,1.8-1.7c0-1.1-0.8-1.7-1.8-1.7C335.5,737.5,334.7,738.1,334.7,739.2 M323.5,755h2.3
		v-12h-2.7v6.9c0,2.3-1.3,3.4-2.6,3.4c-1.4,0-2-0.8-2-2.5V743h-2.7v8.3c0,2.8,1.5,3.9,3.6,3.9c2,0,3.2-0.8,3.7-2.5L323.5,755z
		 M307.6,744.9c1.9,0,2.9,1.3,2.9,4c0,2.9-1,4.2-2.9,4.2s-2.9-1.4-2.9-4.2C304.7,746.2,305.7,744.9,307.6,744.9 M307.6,755.3
		c3.4,0,5.6-2.3,5.6-6.4c0-4.1-2.2-6.2-5.6-6.2s-5.6,2.2-5.6,6.2C302,753,304.2,755.3,307.6,755.3 M292.5,743h-3l4.4,12.7
		c-0.6,1.8-1.3,2.4-2.5,2.4c-0.6,0-1.1-0.1-1.6-0.4l-0.3,2.4c0.6,0.2,1.3,0.3,1.9,0.3c2.2,0,3.8-0.8,5.1-4.4l4.5-13h-2.9l-1.9,6.2
		c-0.7,2.3-0.9,3.8-0.9,3.8h-0.1c0,0-0.2-1.5-0.9-3.8L292.5,743z M273.1,752.2c0.4,2.2,2,3,4.8,3c2.7,0,4.8-1,4.8-3.6
		c0-2.1-1.2-3.2-3.4-3.7l-1.7-0.4c-1.1-0.3-1.5-0.7-1.5-1.5c0-0.9,0.7-1.4,1.8-1.4c1.2,0,1.9,0.5,2,1.6l2.6-0.3
		c-0.2-2.3-1.8-3.3-4.5-3.3c-2.3,0-4.6,0.9-4.6,3.7c0,1.8,0.9,2.9,3,3.4l1.8,0.4c1.3,0.3,1.8,0.8,1.8,1.7c0,1-0.9,1.4-2.1,1.4
		c-1.3,0-2.3-0.6-2.5-1.9L273.1,752.2z M265.1,743h-2.6l-1.5,5.7c-0.6,2.4-0.7,4.3-0.7,4.3h-0.1c0,0-0.2-1.9-0.8-4.3l-1.5-5.7h-2.8
		l3.3,12h3.2l1.3-5.2c0.6-2.2,0.7-3.8,0.7-3.8h0.1c0,0,0.1,1.7,0.7,3.8l1.4,5.2h3.2l3.2-12h-2.7l-1.4,5.8c-0.6,2.4-0.7,4.3-0.7,4.3
		h-0.1c0,0-0.1-1.9-0.8-4.3L265.1,743z M252.9,746.5c0-2.7-1.9-3.8-4.4-3.8c-2.4,0-4.6,1-4.8,3.6l2.6,0.4c0.1-1.2,0.8-1.9,1.9-1.9
		c1.2,0,1.9,0.6,1.9,1.9v1.3c-4.8-0.2-6.9,1.3-6.9,3.9c0,2,1.5,3.3,3.6,3.3c1.6,0,2.9-0.5,3.5-2c0.3,1.3,1.2,1.9,2.6,1.9
		c0.6,0,1.1-0.1,1.5-0.3v-2c-0.2,0.1-0.4,0.1-0.7,0.1c-0.5,0-0.9-0.2-0.9-1.1L252.9,746.5L252.9,746.5z M250.2,751.3
		c0,1.3-1.3,2-2.5,2c-1.1,0-1.7-0.7-1.7-1.6c0-1.3,1.2-2,4.2-2V751.3z M242.2,742.7c-2.9-0.2-4.2,1.4-4.7,3.5l-0.3-3.3h-2.3v12h2.7
		V749c0-2.4,1.6-3.5,3.2-3.5c0.4,0,0.8,0.1,1.2,0.2L242.2,742.7z M228.5,744.6c-0.3-1.1-1.6-1.9-3.1-1.9c-3.4,0-5.4,2.4-5.4,6.5
		c0,4,2.2,6.1,4.7,6.1c1.7,0,3.2-0.6,3.8-2.4l0.3,2.1h2.4v-17.3h-2.7V744.6z M228.5,750.1c0,2-1.5,3-2.8,3c-1.8,0-3-1.4-3-4
		c0-3.2,1.4-4.3,3.1-4.3c1.3,0,2.7,0.8,2.7,2.9V750.1z"/>
	<path class="st0" d="M464.2,709.6h-3l4.4,12.7c-0.6,1.8-1.3,2.4-2.5,2.4c-0.6,0-1.1-0.1-1.6-0.4l-0.3,2.4c0.6,0.2,1.3,0.3,1.9,0.3
		c2.2,0,3.8-0.8,5.1-4.4l4.5-13h-2.9l-1.9,6.2c-0.7,2.3-0.9,3.8-0.9,3.8h0c0,0-0.2-1.5-0.9-3.8L464.2,709.6z M460.7,719.3
		c-0.3,0.1-0.5,0.1-0.9,0.1c-0.6,0-1.1-0.3-1.1-1v-14.1H456v14.8c0,1.9,1.3,2.7,2.9,2.7c0.5,0,1-0.1,1.6-0.2L460.7,719.3z
		 M449.4,715.2l4.6-5.6h-3.2l-3.7,4.6h-0.6v-10h-2.7v17.3h2.7v-5.2h0.7l3.9,5.2h3.3L449.4,715.2z M439,717.9
		c-0.4,1.4-1.2,1.9-2.3,1.9c-1.8,0-3-1.7-3-4.1c0-2.5,1-4.1,2.9-4.1c1.3,0,2,0.8,2.2,2.2l2.4-0.5c-0.2-2.4-1.9-3.8-4.5-3.8
		c-3.4,0-5.6,2.4-5.6,6.4s2.2,6.2,5.4,6.2c2.4,0,4.4-1,4.8-3.4L439,717.9z M425.5,721.6h2.7v-12h-2.7V721.6z M425.1,705.9
		c0,1,0.8,1.7,1.7,1.7c1,0,1.8-0.7,1.8-1.7c0-1.1-0.8-1.7-1.8-1.7C425.9,704.1,425.1,704.8,425.1,705.9 M419.6,721.6h2.3v-12h-2.7
		v6.9c0,2.3-1.3,3.4-2.6,3.4c-1.4,0-2-0.8-2-2.5v-7.8H412v8.3c0,2.8,1.5,3.9,3.6,3.9c2,0,3.2-0.8,3.7-2.5L419.6,721.6z M406,711.2
		c-0.4-1-1.7-1.8-3.3-1.8c-3.4,0-5.3,2.4-5.3,6.5c0,4,2.2,6.1,4.7,6.1c1.7,0,3.2-0.6,3.8-2.4v7.3h2.7v-17.2h-1.9L406,711.2z
		 M405.9,716.8c0,2-1.5,3-2.8,3c-1.8,0-3-1.4-3-4c0-3.2,1.4-4.3,3.1-4.3c1.3,0,2.7,0.8,2.7,2.9L405.9,716.8L405.9,716.8z
		 M389.7,718.9c-0.7,0.5-1.2,0.7-2,0.7c-1,0-1.5-0.5-1.5-1.8v-6.1h3.6v-2.1h-3.6v-2.9l-2.7,0.3v2.5h-1.7v2.1h1.7v6.6
		c0,2.4,1.4,3.5,3.6,3.5c1.2,0,2.3-0.2,3.2-0.7L389.7,718.9z M379.3,713.1c0-2.7-1.9-3.8-4.4-3.8c-2.4,0-4.6,1-4.8,3.6l2.6,0.4
		c0.1-1.2,0.8-1.9,1.9-1.9c1.2,0,1.9,0.6,1.9,1.9v1.3c-4.8-0.2-6.9,1.3-6.9,3.9c0,2,1.5,3.3,3.6,3.3c1.6,0,2.9-0.5,3.5-2
		c0.3,1.3,1.2,1.9,2.6,1.9c0.6,0,1.1-0.1,1.5-0.3v-2c-0.2,0.1-0.4,0.1-0.7,0.1c-0.5,0-0.9-0.2-0.9-1.1L379.3,713.1L379.3,713.1z
		 M376.6,718c0,1.3-1.3,2-2.5,2c-1.1,0-1.7-0.7-1.7-1.6c0-1.3,1.2-2,4.2-2V718z M359.9,704.3h-2.7v17.3h2.7v-6.8
		c0-2.4,1.3-3.2,2.6-3.2c1.4,0,1.9,0.9,1.9,2.3v7.6h2.7V713c0-2.6-1.7-3.7-3.6-3.7c-1.8,0-3.1,0.8-3.7,2.6v-7.6H359.9z M354.5,718.9
		c-0.7,0.5-1.2,0.7-2,0.7c-1,0-1.5-0.5-1.5-1.8v-6.1h3.6v-2.1H351v-2.9l-2.7,0.3v2.5h-1.7v2.1h1.7v6.6c0,2.4,1.4,3.5,3.6,3.5
		c1.2,0,2.3-0.2,3.2-0.7L354.5,718.9z M331.7,714.4c0.2-1.8,1.2-3,2.8-3c1.5,0,2.4,1.1,2.4,2.5c0,0.2,0,0.3,0,0.5H331.7z
		 M334.7,719.8c-1.9,0-2.9-1.5-3-3.7h7.6c0.1-0.4,0.2-1,0.2-1.6c0-3-1.7-5.2-4.8-5.2c-3.4,0-5.6,2.4-5.6,6.4c0,3.9,2.2,6.2,5.5,6.2
		c2.3,0,4.4-0.8,4.9-3.3l-2.4-0.7C336.7,719.3,335.8,719.8,334.7,719.8 M319.1,712c-0.3-1.9-1.6-2.6-3.2-2.6s-3.1,0.8-3.7,2.6
		l-0.3-2.3h-2.2v12h2.7v-6.8c0-2.3,1.2-3.2,2.5-3.2s1.9,0.9,1.9,2.3v7.6h2.7v-6.8c0-2.3,1.2-3.2,2.5-3.2s1.8,0.9,1.8,2.3v7.6h2.7
		V713c0-2.6-1.5-3.7-3.5-3.7C321.2,709.4,319.7,710.1,319.1,712 M301.2,711.5c1.9,0,2.9,1.3,2.9,4c0,2.9-1,4.2-2.9,4.2
		s-2.9-1.4-2.9-4.2C298.3,712.9,299.3,711.5,301.2,711.5 M301.2,721.9c3.4,0,5.6-2.3,5.6-6.4s-2.2-6.2-5.6-6.2s-5.6,2.2-5.6,6.2
		S297.8,721.9,301.2,721.9 M291.6,717.9c-0.4,1.4-1.2,1.9-2.3,1.9c-1.8,0-3-1.7-3-4.1c0-2.5,1-4.1,2.9-4.1c1.3,0,2,0.8,2.2,2.2
		l2.4-0.5c-0.2-2.4-1.9-3.8-4.5-3.8c-3.4,0-5.6,2.4-5.6,6.4s2.2,6.2,5.4,6.2c2.4,0,4.4-1,4.8-3.4L291.6,717.9z M282.1,719.3
		c-0.3,0.1-0.5,0.1-0.9,0.1c-0.6,0-1.1-0.3-1.1-1v-14.1h-2.7v14.8c0,1.9,1.3,2.7,2.9,2.7c0.5,0,1-0.1,1.6-0.2L282.1,719.3z
		 M267.1,714.4c0.2-1.8,1.2-3,2.8-3c1.5,0,2.4,1.1,2.4,2.5c0,0.2,0,0.3,0,0.5H267.1z M270,719.8c-1.9,0-2.9-1.5-3-3.7h7.6
		c0.1-0.4,0.2-1,0.2-1.6c0-3-1.7-5.2-4.8-5.2c-3.4,0-5.6,2.4-5.6,6.4c0,3.9,2.2,6.2,5.5,6.2c2.3,0,4.4-0.8,4.9-3.3l-2.4-0.7
		C272.1,719.3,271.2,719.8,270,719.8 M255.8,709.6h-2.6l-1.5,5.7c-0.6,2.4-0.7,4.3-0.7,4.3h-0.1c0,0-0.2-1.9-0.8-4.3l-1.5-5.7h-2.8
		l3.3,12h3.2l1.3-5.2c0.6-2.2,0.7-3.8,0.7-3.8h0.1c0,0,0.1,1.7,0.7,3.8l1.4,5.2h3.2l3.2-12h-2.7l-1.4,5.8c-0.6,2.4-0.7,4.3-0.7,4.3
		H258c0,0-0.1-1.9-0.8-4.3L255.8,709.6z M234.2,711.8v9.9h2.7v-9.9h3.1v-2.1h-3v-1.1c0-1.6,0.7-2.2,1.8-2.2c0.8,0,1.3,0.2,2,0.5
		l0.4-2.3c-0.7-0.3-1.6-0.5-2.6-0.5c-2.3,0-4.4,1.1-4.4,4.3v1.2h-1.7v2.1L234.2,711.8L234.2,711.8z M225.6,711.5
		c1.9,0,2.9,1.3,2.9,4c0,2.9-1,4.2-2.9,4.2s-2.9-1.4-2.9-4.2C222.7,712.9,223.7,711.5,225.6,711.5 M225.6,721.9
		c3.4,0,5.6-2.3,5.6-6.4s-2.2-6.2-5.6-6.2c-3.4,0-5.6,2.2-5.6,6.2S222.2,721.9,225.6,721.9"/>
	<path class="st0" d="M465.1,685.6c0.4,2.2,2,3,4.8,3c2.7,0,4.8-1,4.8-3.6c0-2.1-1.2-3.2-3.4-3.7l-1.7-0.4c-1.1-0.3-1.5-0.7-1.5-1.5
		c0-0.9,0.7-1.4,1.8-1.4c1.2,0,1.9,0.5,2,1.6l2.6-0.3c-0.2-2.3-1.8-3.3-4.5-3.3c-2.3,0-4.6,0.9-4.6,3.7c0,1.8,0.9,2.9,3,3.4l1.8,0.4
		c1.3,0.3,1.8,0.8,1.8,1.7c0,1-0.9,1.4-2.1,1.4c-1.3,0-2.3-0.6-2.5-1.9L465.1,685.6z M454,685.6c0.4,2.2,2,3,4.8,3
		c2.7,0,4.8-1,4.8-3.6c0-2.1-1.2-3.2-3.4-3.7l-1.7-0.4c-1.1-0.3-1.5-0.7-1.5-1.5c0-0.9,0.7-1.4,1.8-1.4c1.2,0,1.9,0.5,2,1.6l2.6-0.3
		c-0.2-2.3-1.8-3.3-4.5-3.3c-2.3,0-4.6,0.9-4.6,3.7c0,1.8,0.9,2.9,3,3.4l1.8,0.4c1.3,0.3,1.8,0.8,1.8,1.7c0,1-0.9,1.4-2.1,1.4
		c-1.3,0-2.3-0.6-2.5-1.9L454,685.6z M444.6,681c0.2-1.8,1.2-3,2.8-3c1.5,0,2.4,1.1,2.4,2.5c0,0.2,0,0.3,0,0.5H444.6z M447.6,686.5
		c-1.9,0-2.9-1.5-3-3.7h7.6c0.1-0.4,0.2-1,0.2-1.6c0-3-1.7-5.2-4.8-5.2c-3.4,0-5.6,2.4-5.6,6.4c0,3.9,2.2,6.2,5.5,6.2
		c2.3,0,4.4-0.8,4.9-3.3l-2.4-0.7C449.6,686,448.7,686.5,447.6,686.5 M431.5,676.3h-2.2v12h2.7v-6.8c0-2.5,1.3-3.2,2.6-3.2
		c1.4,0,1.9,0.9,1.9,2.3v7.6h2.7v-8.5c0-2.6-1.7-3.7-3.6-3.7c-1.8,0-3.2,0.8-3.8,2.6L431.5,676.3z M418.1,676.3h-2.2v12h2.7v-6.8
		c0-2.5,1.3-3.2,2.6-3.2c1.4,0,1.9,0.9,1.9,2.3v7.6h2.7v-8.5c0-2.6-1.7-3.7-3.6-3.7c-1.8,0-3.2,0.8-3.8,2.6L418.1,676.3z M405.3,681
		c0.2-1.8,1.2-3,2.8-3c1.5,0,2.4,1.1,2.4,2.5c0,0.2,0,0.3,0,0.5H405.3z M408.2,686.5c-1.9,0-2.9-1.5-3-3.7h7.6
		c0.1-0.4,0.2-1,0.2-1.6c0-3-1.7-5.2-4.8-5.2c-3.4,0-5.6,2.4-5.6,6.4c0,3.9,2.2,6.2,5.5,6.2c2.3,0,4.4-0.8,4.9-3.3l-2.4-0.7
		C410.3,686,409.4,686.5,408.2,686.5 M392.1,686.7c0.4,1,1.5,1.9,3.3,1.9c3.3,0,5.2-2.8,5.2-6.6s-1.8-6-4.7-6c-1.6,0-3.2,0.6-4,2.6
		l-0.3-2.3h-2.3v17.2h2.7L392.1,686.7L392.1,686.7z M392,681.5c0-2.1,1.4-3.3,3-3.3c1.7,0,2.8,1.3,2.8,4c0,3-1.4,4.4-3.1,4.4
		c-1.2,0-2.7-0.8-2.7-3L392,681.5L392,681.5z M381,678.2c1.9,0,2.9,1.3,2.9,4c0,2.9-1,4.2-2.9,4.2s-2.9-1.4-2.9-4.2
		C378.1,679.5,379,678.2,381,678.2 M381,688.6c3.4,0,5.6-2.3,5.6-6.4s-2.2-6.2-5.6-6.2s-5.6,2.2-5.6,6.2S377.6,688.6,381,688.6
		 M364.1,677.9c-0.3-1.1-1.6-1.9-3.1-1.9c-3.4,0-5.4,2.4-5.4,6.5c0,4,2.2,6.1,4.7,6.1c1.7,0,3.2-0.6,3.8-2.4l0.3,2.1h2.4V671h-2.7
		L364.1,677.9L364.1,677.9z M364.1,683.4c0,2-1.5,3-2.8,3c-1.8,0-3-1.4-3-4c0-3.2,1.4-4.3,3.1-4.3c1.3,0,2.7,0.8,2.7,2.9
		L364.1,683.4L364.1,683.4z M345.2,676.3H343v12h2.7v-6.8c0-2.5,1.3-3.2,2.6-3.2c1.4,0,1.9,0.9,1.9,2.3v7.6h2.7v-8.5
		c0-2.6-1.7-3.7-3.6-3.7c-1.8,0-3.2,0.8-3.8,2.6L345.2,676.3z M339,679.8c0-2.7-1.9-3.8-4.4-3.8c-2.4,0-4.6,1-4.8,3.6l2.6,0.4
		c0.1-1.2,0.8-1.9,1.9-1.9c1.2,0,1.9,0.6,1.9,1.9v1.3c-4.8-0.2-6.9,1.3-6.9,3.9c0,2,1.5,3.3,3.6,3.3c1.6,0,2.9-0.5,3.5-2
		c0.3,1.3,1.2,1.9,2.6,1.9c0.6,0,1.1-0.1,1.5-0.3v-2c-0.2,0.1-0.4,0.1-0.7,0.1c-0.5,0-0.9-0.2-0.9-1.1L339,679.8L339,679.8z
		 M336.3,684.6c0,1.3-1.3,2-2.5,2c-1.1,0-1.7-0.7-1.7-1.6c0-1.3,1.2-2,4.2-2V684.6z M313.9,671h-2.7v17.3h2.7v-6.8
		c0-2.4,1.3-3.2,2.6-3.2c1.4,0,1.9,0.9,1.9,2.3v7.6h2.7v-8.5c0-2.6-1.7-3.7-3.6-3.7c-1.8,0-3.1,0.8-3.7,2.6V671H313.9z M308.5,685.6
		c-0.7,0.5-1.2,0.7-2,0.7c-1,0-1.5-0.5-1.5-1.8v-6.1h3.6v-2.1H305v-2.9l-2.7,0.3v2.5h-1.7v2.1h1.7v6.6c0,2.4,1.4,3.5,3.6,3.5
		c1.2,0,2.3-0.2,3.2-0.7L308.5,685.6z M291.3,678.7c-0.3-1.9-1.6-2.6-3.2-2.6s-3.1,0.8-3.7,2.6l-0.3-2.3h-2.2v12h2.7v-6.8
		c0-2.3,1.2-3.2,2.5-3.2s1.9,0.9,1.9,2.3v7.6h2.7v-6.8c0-2.3,1.2-3.2,2.5-3.2s1.8,0.9,1.8,2.3v7.6h2.7v-8.6c0-2.6-1.5-3.7-3.5-3.7
		C293.4,676,291.9,676.8,291.3,678.7 M279.6,676c-2.9-0.2-4.2,1.4-4.7,3.5l-0.3-3.3h-2.3v12h2.7v-5.9c0-2.4,1.6-3.5,3.2-3.5
		c0.4,0,0.8,0.1,1.2,0.2L279.6,676z M268.3,679.8c0-2.7-1.9-3.8-4.4-3.8c-2.4,0-4.6,1-4.8,3.6l2.6,0.4c0.1-1.2,0.8-1.9,1.9-1.9
		c1.2,0,1.9,0.6,1.9,1.9v1.3c-4.8-0.2-6.9,1.3-6.9,3.9c0,2,1.5,3.3,3.6,3.3c1.6,0,2.9-0.5,3.5-2c0.3,1.3,1.2,1.9,2.6,1.9
		c0.6,0,1.1-0.1,1.5-0.3v-2c-0.2,0.1-0.4,0.1-0.7,0.1c-0.5,0-0.9-0.2-0.9-1.1L268.3,679.8L268.3,679.8z M265.6,684.6
		c0,1.3-1.3,2-2.5,2c-1.1,0-1.7-0.7-1.7-1.6c0-1.3,1.2-2,4.2-2V684.6z M250.2,676.3h-2.6L246,682c-0.6,2.4-0.7,4.3-0.7,4.3h-0.1
		c0,0-0.2-1.9-0.8-4.3l-1.5-5.7h-2.8l3.3,12h3.2l1.3-5.2c0.6-2.2,0.7-3.8,0.7-3.8h0.1c0,0,0.1,1.7,0.7,3.8l1.4,5.2h3.2l3.2-12h-2.7
		l-1.4,5.8c-0.6,2.4-0.7,4.3-0.7,4.3h-0.1c0,0-0.1-1.9-0.8-4.3L250.2,676.3z M225.3,679.3c0.8-2.4,1.2-4.1,1.2-4.1h0.1
		c0,0,0.3,1.7,1.2,4.1l1,2.9h-4.5L225.3,679.3z M230.9,688.3h3l-5.5-15.3h-3.6l-5.5,15.3h2.9l1.3-3.8h6.1L230.9,688.3z"/>
	<path class="st0" d="M519.9,589.9c0,2.1,1.7,3.9,3.9,3.9c2.3,0,4-1.7,4-3.9c0-2.3-1.7-4-4-4C521.6,585.8,519.9,587.5,519.9,589.9
		 M515,587.9h-11v-4.6h9.7V578H504v-4.2h11v-5.6h-17.4v25.3H515V587.9z M478.5,573.7h3.5c2.1,0,3.3,1.1,3.3,3.1c0,2.2-1.2,3-3.3,3
		h-3.4v-6.1H478.5z M493.2,593.5c-0.9-0.9-1.2-1.7-1.5-2.8l-1.3-4.6c-0.6-2.2-1.8-3.1-4.1-3.5v-0.1c3.3-0.4,5.5-2.4,5.5-6.4
		c0-6-3.8-7.9-9.4-7.9H472v25.3h6.4V585h2.2c1.8,0,2.5,0.3,3,2.2l0.9,3.6c0.3,1.1,0.6,2.1,1.4,2.7H493.2z M466.7,587.9h-11v-4.6h9.7
		V578h-9.7v-4.2h11v-5.6h-17.4v25.3h17.4V587.9z M427.4,593.5v-10.1h9v10.1h6.4v-25.3h-6.4v9.7h-9v-9.7H421v25.3H427.4z
		 M406.1,587.9h-11v-4.6h9.7V578h-9.7v-4.2h11v-5.6h-17.4v25.3h17.4V587.9z M370.8,587.8l3.1-4.8c1.2-1.9,1.9-3.7,1.9-3.7h0.2
		c0,0-0.3,1.4-0.3,4.2v10.1h6.4v-25.3h-6.4l-4.4,7.5c-1.6,2.7-2,4-2,4h-0.2c0,0-0.4-1.2-2-4l-4.4-7.5h-6.4v25.3h6.4v-10.1
		c0-2.8-0.3-4.2-0.3-4.2h0.2c0,0,0.7,1.8,1.9,3.7l3.1,4.8H370.8z M339.4,573.4c3.7,0,5.5,2.9,5.5,7.5s-1.8,7.5-5.5,7.5
		s-5.5-2.8-5.5-7.5C333.9,576.3,335.7,573.4,339.4,573.4 M339.4,594c7.6,0,12.2-4.7,12.2-13.1c0-8.5-4.6-13.2-12.2-13.2
		s-12.2,4.7-12.2,13.2C327.2,589.3,331.8,594,339.4,594 M319,584.8c-0.9,2.3-2.7,3.5-4.7,3.5c-4,0-5.9-2.7-5.9-7.3
		c0-4.7,2.2-7.6,5.8-7.6c2.7,0,3.8,1.5,4.5,3.9l6.3-3.1c-1.8-4.1-5.2-6.5-10.6-6.5c-7.9,0-12.5,4.7-12.5,13.1s4.8,13.2,11.8,13.2
		c5.8,0,8.8-2,11.1-6L319,584.8z M283.2,568.2v25.3h15.9v-5.6h-9.5v-19.7H283.2z M277.9,587.9h-11v-4.6h9.7V578h-9.7v-4.2h11v-5.6
		h-17.4v25.3h17.4V587.9z M242.1,568.2h-7.8l-2.7,13.3c-0.7,3.4-1.1,7.2-1.1,7.2h-0.2c0,0-0.4-3.7-1.1-7.3l-2.6-13.3h-6.8l5.2,25.3
		h9.1l2.8-11.6c0.8-3.5,1-7.3,1-7.3h0.2c0,0,0.2,3.8,0.9,7.2l2.6,11.7h9.4l5.2-25.3h-6.6l-2.5,13.3c-0.6,3.4-1,7.2-1,7.2h-0.2
		c0,0-0.4-3.7-1.2-7.3L242.1,568.2z"/>
	<path class="st0" d="M532.5,546.4h-11v-4.6h9.7v-5.4h-9.7v-4.2h11v-5.6h-17.4V552h17.4V546.4z M496,532.1h3.5
		c2.1,0,3.3,1.1,3.3,3.1c0,2.2-1.2,3-3.3,3H496V532.1z M510.8,552c-0.9-0.9-1.2-1.7-1.5-2.8l-1.3-4.6c-0.6-2.2-1.8-3.1-4.1-3.5V541
		c3.3-0.4,5.5-2.4,5.5-6.4c0-6-3.8-7.9-9.4-7.9h-10.4V552h6.4v-8.5h2.2c1.8,0,2.5,0.3,3,2.2l0.9,3.6c0.3,1.1,0.6,2.1,1.4,2.7H510.8z
		 M485.1,527.6c0-3-1.8-5-4.4-5c-2.1,0-3.9,1.2-3.9,3.6c0,2.5,2.1,3.7,4.1,3.4c0,2.1-1.7,3.1-4.3,3.3v2.5
		C481.5,535.4,485.1,533.3,485.1,527.6 M466.3,526.7v14.9c0,3.4-0.6,5.6-4.2,5.6c-3.7,0-4.3-2.2-4.3-5.5v-15h-6.4v16.8
		c0,6.9,4.9,9,10.7,9c5.8,0,10.7-2.1,10.7-9v-16.8H466.3z M434.9,531.9c3.7,0,5.5,2.9,5.5,7.5s-1.8,7.5-5.5,7.5s-5.5-2.8-5.5-7.5
		C429.4,534.8,431.2,531.9,434.9,531.9 M434.9,552.5c7.6,0,12.2-4.7,12.2-13.1c0-8.5-4.6-13.2-12.2-13.2s-12.2,4.7-12.2,13.2
		C422.7,547.8,427.2,552.5,434.9,552.5 M405.8,526.7h-7.3l8.8,17.3v8h6.4v-8l8.2-17.3H415l-2.6,5.4c-1.7,3.4-1.9,5.8-1.9,5.8h-0.2
		c0,0-0.3-2.3-2-5.8L405.8,526.7z M378.2,548.3c0,2.1,1.7,3.9,3.9,3.9c2.3,0,4-1.7,4-3.9c0-2.3-1.7-4-4-4
		C379.9,544.3,378.2,546,378.2,548.3 M358.7,539.9c1.4-4.1,2.1-7.3,2.1-7.3h0.2c0,0,0.5,3.2,2,7.4l0.7,1.9H358L358.7,539.9z
		 M367.2,552h6.9l-9.2-25.3H357l-9.2,25.3h6.7l1.6-4.7h9.3L367.2,552z M331.6,532.1h3.5c2.1,0,3.3,1.1,3.3,3.1c0,2.2-1.2,3-3.3,3
		h-3.4v-6.1H331.6z M346.4,552c-0.9-0.9-1.2-1.7-1.5-2.8l-1.3-4.6c-0.6-2.2-1.8-3.1-4.1-3.5V541c3.3-0.4,5.5-2.4,5.5-6.4
		c0-6-3.8-7.9-9.4-7.9h-10.4V552h6.4v-8.5h2.2c1.8,0,2.5,0.3,3,2.2l0.9,3.6c0.3,1.1,0.6,2.1,1.4,2.7H346.4z M308,531.9
		c3.7,0,5.5,2.9,5.5,7.5s-1.8,7.5-5.5,7.5s-5.5-2.8-5.5-7.5C302.5,534.8,304.3,531.9,308,531.9 M308,552.5c7.6,0,12.2-4.7,12.2-13.1
		c0-8.5-4.6-13.2-12.2-13.2s-12.2,4.7-12.2,13.2C295.8,547.8,300.4,552.5,308,552.5 M268.8,539.9c1.4-4.1,2.1-7.3,2.1-7.3h0.2
		c0,0,0.5,3.2,2,7.4l0.7,1.9h-5.6L268.8,539.9z M277.3,552h6.9l-9.2-25.3h-7.9l-9.2,25.3h6.7l1.6-4.7h9.3L277.3,552z M247.8,552h6.4
		v-25.3h-6.4V552z M244.2,552l-8.6-13.1l7.7-12.2H236l-5.9,9.7h-1.4v-9.7h-6.4V552h6.4v-10.1h1.4l6.4,10.1H244.2z"/>
	<path class="st0" d="M316.5,491.1h-6.7v-3.2h5.9V485h-5.9v-3h6.7v-3.1h-10.2v15.3h10.2V491.1z M291.5,490.7
		c0.8,2.7,2.8,3.7,5.8,3.7c3.2,0,5.9-1.2,5.9-4.5c0-2.9-1.6-4-4.8-5c-1.8-0.5-2.6-1-2.6-2s0.8-1.4,1.8-1.4c1.1,0,2.1,0.6,2.2,1.9
		l3.5-0.9c-0.3-2.9-2.6-4-5.8-4c-2.7,0-5.4,1.1-5.4,4.6c0,2.6,1.5,3.9,5,5.1c2,0.6,2.5,1.1,2.5,2.1s-0.9,1.5-2,1.5
		c-1.5,0-2.6-1-2.9-2.5L291.5,490.7z M285.4,494.1h3.5v-15.3h-3.5V494.1z M274.6,490.6l2.1-3.5c0.8-1.3,1.1-2.3,1.1-2.3h0.1
		c0,0-0.1,0.9-0.1,2.6v6.8h3.5v-15.3h-3.5L275,484c-0.9,1.5-1.1,2.2-1.1,2.2h-0.1c0,0-0.2-0.7-1.1-2.2l-2.9-5.2h-3.6v15.3h3.5v-6.8
		c0-1.7-0.2-2.6-0.2-2.6h0.1c0,0,0.4,1.1,1.2,2.3l2.1,3.5h1.7V490.6z M255.9,481.7c2.4,0,3.6,1.8,3.6,4.9c0,3-1.2,4.8-3.6,4.8
		s-3.6-1.8-3.6-4.8C252.3,483.5,253.5,481.7,255.9,481.7 M255.9,494.5c4.5,0,7.3-2.8,7.3-7.9s-2.7-8-7.3-8s-7.2,2.8-7.2,8
		C248.7,491.6,251.4,494.5,255.9,494.5 M238.3,481.9h2.3c1.5,0,2.2,0.7,2.2,2c0,1.5-0.8,2-2.2,2h-2.3V481.9z M247.2,494.1
		c-0.5-0.5-0.7-1-0.9-1.6l-0.8-2.9c-0.4-1.4-1.1-2-2.5-2.2v-0.1c2-0.2,3.3-1.5,3.3-3.8c0-3.4-2.1-4.7-5.5-4.7h-6v15.3h3.5v-5.4h1.5
		c1.2,0,1.8,0.2,2.1,1.5l0.6,2.3c0.2,0.6,0.3,1.2,0.8,1.6L247.2,494.1L247.2,494.1z M224.5,494.1v-4.9h2.3c3.3,0,5.2-1.9,5.2-5.2
		c0-3.4-1.6-5.2-5.5-5.2H221v15.3L224.5,494.1L224.5,494.1z M224.5,481.8h1.8c1.5,0,2.2,0.8,2.2,2.3c0,1.4-0.6,2.2-2.2,2.2h-1.8
		V481.8z"/>
	<path class="st0" d="M363.6,394.5h-5.8v-2.7h5.1v-2.5h-5.1v-2.6h5.8V384h-8.8v13.1h8.8V394.5z M338.7,384v13.1h8.1v-2.6h-5.1V384
		H338.7z M324.2,397.1v-4.2h1.9c2.8,0,4.5-1.7,4.5-4.4c0-2.9-1.4-4.4-4.8-4.4h-4.7v13.1h3.1V397.1z M324.2,386.6h1.6
		c1.3,0,1.8,0.6,1.8,2c0,1.2-0.5,1.9-1.8,1.9h-1.6V386.6z M306.7,386.5c2.1,0,3.1,1.6,3.1,4.2s-1,4.2-3.1,4.2s-3.1-1.6-3.1-4.2
		C303.6,388,304.7,386.5,306.7,386.5 M306.7,397.4c3.9,0,6.2-2.4,6.2-6.8s-2.4-6.8-6.2-6.8c-3.9,0-6.2,2.4-6.2,6.8
		S302.8,397.4,306.7,397.4 M292.8,394.5H287v-2.7h5.1v-2.5H287v-2.6h5.8V384H284v13.1h8.8V394.5z M269.6,397.1v-4.2h1.9
		c2.8,0,4.5-1.7,4.5-4.4c0-2.9-1.4-4.4-4.8-4.4h-4.7v13.1h3.1V397.1z M269.6,386.6h1.6c1.3,0,1.8,0.6,1.8,2c0,1.2-0.5,1.9-1.8,1.9
		h-1.6V386.6z M242.4,397.1v-4.8h4.8v-2.5h-4.8v-3.1h5.5V384h-8.5v13.1H242.4z M224.9,386.5c2.1,0,3.1,1.6,3.1,4.2s-1,4.2-3.1,4.2
		s-3.1-1.6-3.1-4.2C221.8,388,222.8,386.5,224.9,386.5 M224.9,397.4c3.9,0,6.2-2.4,6.2-6.8s-2.4-6.8-6.2-6.8c-3.9,0-6.2,2.4-6.2,6.8
		S221,397.4,224.9,397.4"/>
	<path class="st0" d="M522.3,363.2h-5.8v-2.7h5.1V358h-5.1v-2.6h5.8v-2.6h-8.8v13.1h8.8V363.2z M495.2,362.9c0.7,2.4,2.4,3.2,5,3.2
		c2.8,0,5.1-1,5.1-3.9c0-2.5-1.4-3.4-4.2-4.3c-1.5-0.5-2.2-0.8-2.2-1.7c0-0.8,0.7-1.2,1.5-1.2c0.9,0,1.8,0.5,1.9,1.7l3-0.8
		c-0.3-2.5-2.3-3.4-5-3.4c-2.3,0-4.6,1-4.6,3.9c0,2.2,1.2,3.4,4.2,4.3c1.7,0.5,2.2,0.9,2.2,1.8s-0.7,1.3-1.7,1.3
		c-1.2,0-2.2-0.8-2.4-2.1L495.2,362.9z M484.3,365.8h3v-13.1h-3V365.8z M469.5,362.8l1.8-3c0.7-1.1,1-2,1-2h0.1c0,0-0.1,0.7-0.1,2.2
		v5.8h3v-13.1h-3l-2.5,4.4c-0.7,1.3-0.9,1.9-0.9,1.9h-0.1c0,0-0.2-0.6-0.9-1.9l-2.5-4.4h-3.1v13.1h3V360c0-1.5-0.1-2.2-0.1-2.2h0.1
		c0,0,0.3,0.9,1,2l1.8,3H469.5z M447.7,355.2c2.1,0,3.1,1.6,3.1,4.2s-1,4.2-3.1,4.2s-3.1-1.6-3.1-4.2
		C444.7,356.7,445.7,355.2,447.7,355.2 M447.7,366.1c3.9,0,6.2-2.4,6.2-6.8s-2.4-6.8-6.2-6.8c-3.9,0-6.2,2.4-6.2,6.8
		S443.9,366.1,447.7,366.1 M427,355.3h1.9c1.2,0,1.9,0.6,1.9,1.7c0,1.2-0.7,1.7-1.9,1.7H427V355.3z M434.6,365.8
		c-0.4-0.4-0.6-0.9-0.7-1.4l-0.7-2.4c-0.3-1.2-1-1.7-2.2-1.9l0,0c1.7-0.2,2.9-1.3,2.9-3.3c0-2.9-1.8-4-4.8-4H424v13.1h3v-4.6h1.3
		c1,0,1.5,0.2,1.8,1.3l0.5,2c0.1,0.6,0.3,1,0.7,1.4h3.3V365.8z M409.5,365.8v-4.2h1.9c2.8,0,4.5-1.7,4.5-4.4c0-2.9-1.4-4.4-4.8-4.4
		h-4.7v13.1h3.1V365.8z M409.5,355.3h1.6c1.3,0,1.8,0.6,1.8,2c0,1.2-0.5,1.9-1.8,1.9h-1.6V355.3z M387.5,363.2h-5.8v-2.7h5.1V358
		h-5.1v-2.6h5.8v-2.6h-8.8v13.1h8.8V363.2z M367,352.8v7.8c0,1.9-0.5,3-2.4,3s-2.4-1.1-2.4-3v-7.9h-3v8.7c0,3.5,2.5,4.6,5.4,4.6
		s5.4-1.1,5.4-4.6v-8.7h-3V352.8z M345,355.2c2.1,0,3.1,1.6,3.1,4.2s-1,4.2-3.1,4.2s-3.1-1.6-3.1-4.2C342,356.7,343,355.2,345,355.2
		 M349.7,366.9c-1.2,0.1-2.6-0.2-3.4-0.9c3.1-0.5,5-2.8,5-6.7c0-4.4-2.4-6.8-6.2-6.8c-3.9,0-6.2,2.4-6.2,6.8c0,3.7,1.7,6,4.5,6.6
		c0.7,2.1,2.3,3.6,5.5,3.6L349.7,366.9z M327.5,365.8h3v-13.1h-3V365.8z M309.7,352.8h-2.8v13.1h3v-5.2c0-1.9-0.1-3-0.1-3h0.1
		c0,0,0.4,0.8,1.2,1.9l4.6,6.2h2.8v-13.1h-3v5.3c0,1.7,0.1,2.8,0.1,2.8h-0.1c0,0-0.4-0.8-1.1-1.8L309.7,352.8z M295.1,352.8v7.8
		c0,1.9-0.5,3-2.4,3s-2.4-1.1-2.4-3v-7.9h-3v8.7c0,3.5,2.5,4.6,5.4,4.6s5.4-1.1,5.4-4.6v-8.7h-3V352.8z M261.6,355.3h1.9
		c1.2,0,1.9,0.6,1.9,1.7c0,1.2-0.7,1.7-1.9,1.7h-1.9V355.3z M269.2,365.8c-0.4-0.4-0.6-0.9-0.7-1.4l-0.7-2.4c-0.3-1.2-1-1.7-2.2-1.9
		l0,0c1.7-0.2,2.9-1.3,2.9-3.3c0-2.9-1.8-4-4.8-4h-5.2v13.1h3v-4.6h1.3c1,0,1.5,0.2,1.8,1.3l0.5,2c0.1,0.6,0.3,1,0.7,1.4h3.4V365.8z
		 M246.8,352.8v7.8c0,1.9-0.5,3-2.4,3s-2.4-1.1-2.4-3v-7.9h-3v8.7c0,3.5,2.5,4.6,5.4,4.6s5.4-1.1,5.4-4.6v-8.7h-3V352.8z
		 M224.9,355.2c2.1,0,3.1,1.6,3.1,4.2s-1,4.2-3.1,4.2s-3.1-1.6-3.1-4.2C221.8,356.7,222.8,355.2,224.9,355.2 M224.9,366.1
		c3.9,0,6.2-2.4,6.2-6.8s-2.4-6.8-6.2-6.8c-3.9,0-6.2,2.4-6.2,6.8S221,366.1,224.9,366.1"/>
</g>
</svg>
