<?xml version="1.0" encoding="utf-8"?>
<!-- Generator: Adobe Illustrator 23.0.1, SVG Export Plug-In . SVG Version: 6.00 Build 0)  -->
<svg version="1.1" id="Layer_1" xmlns="http://www.w3.org/2000/svg" xmlns:xlink="http://www.w3.org/1999/xlink" x="0px" y="0px"
	 viewBox="0 0 750 1331.7" style="enable-background:new 0 0 750 1331.7;" xml:space="preserve">
<title>03</title>
<g>
	<path d="M308.5,625.4v-20.2h13.6v4.5h-8.5v4.4h7.4v4.3h-7.4v7.1L308.5,625.4L308.5,625.4z"/>
	<path d="M334.4,619.9l4.3,1.5c-0.9,3.2-3.8,4.4-6.9,4.4c-4.6,0-7.9-3-7.9-8.1c0-5.5,3-8.6,7.9-8.6c4.6,0,6.8,3,6.8,7.1
		c0,0.7-0.1,1.3-0.2,2.1h-9.6c0.1,2.2,1.1,3.6,3,3.6C332.9,621.9,333.8,621.6,334.4,619.9z M333.7,615.7c0-0.2,0-0.3,0-0.5
		c0-1.3-0.7-2.3-2.2-2.3s-2.5,1.2-2.7,2.7L333.7,615.7L333.7,615.7z"/>
	<path d="M351.2,619.9l4.3,1.5c-0.9,3.2-3.8,4.4-6.9,4.4c-4.6,0-7.9-3-7.9-8.1c0-5.5,3-8.6,7.9-8.6c4.6,0,6.8,3,6.8,7.1
		c0,0.7-0.1,1.3-0.2,2.1h-9.6c0.1,2.2,1.1,3.6,3,3.6C349.7,621.9,350.7,621.6,351.2,619.9z M350.6,615.7c0-0.2,0-0.3,0-0.5
		c0-1.3-0.7-2.3-2.2-2.3s-2.5,1.2-2.7,2.7L350.6,615.7L350.6,615.7z"/>
	<path d="M365.8,625.3c-0.9,0.3-1.9,0.5-2.9,0.5c-2.4,0-4.7-1.1-4.7-4.3v-19h5.1v17.4c0,1,0.7,1.3,1.5,1.3c0.4,0,0.9-0.1,1.3-0.2
		L365.8,625.3z"/>
	<path d="M387.6,624.8c-1.4,0.7-3.2,1.1-5.2,1.1c-3.2,0-5.4-1.5-5.4-5.3v-7h-2.3v-3.9h2.3v-3.4l5.1-0.6v3.9h4.7v3.9h-4.7v5.9
		c0,1.6,0.7,2.2,1.9,2.2c1,0,1.9-0.4,2.8-1L387.6,624.8z"/>
	<path d="M395.3,612.6c0.9-2.4,2.6-3.4,5-3.4s4.6,1.4,4.6,5v11.2h-5.1v-9.2c0-1.7-0.3-2.8-1.9-2.8c-1.3,0-2.6,0.7-2.6,3.4v8.6h-5.1
		v-22.9h5.1V612.6z"/>
	<path d="M418.2,619.9l4.3,1.5c-0.9,3.2-3.8,4.4-6.9,4.4c-4.6,0-7.8-3-7.8-8.1c0-5.5,3-8.6,7.9-8.6c4.6,0,6.8,3,6.8,7.1
		c0,0.7-0.1,1.3-0.2,2.1h-9.6c0.1,2.2,1.1,3.6,3,3.6C416.8,621.9,417.7,621.6,418.2,619.9z M417.6,615.7c0-0.2,0-0.3,0-0.5
		c0-1.3-0.7-2.3-2.2-2.3s-2.5,1.2-2.7,2.7L417.6,615.7L417.6,615.7z"/>
</g>
<g>
	<path d="M293.8,655.3l4.3,1.5c-0.9,3.2-3.8,4.4-6.9,4.4c-4.6,0-7.9-3-7.9-8.1c0-5.5,3-8.6,7.9-8.6c4.6,0,6.8,3,6.8,7.1
		c0,0.7-0.1,1.3-0.2,2.1h-9.6c0.1,2.2,1.1,3.6,3,3.6C292.3,657.3,293.3,656.9,293.8,655.3z M293.2,651c0-0.2,0-0.3,0-0.5
		c0-1.3-0.7-2.3-2.2-2.3s-2.5,1.2-2.7,2.7L293.2,651L293.2,651z"/>
	<path d="M320.4,644.5c2.6,0,4.5,1.4,4.5,5v11.2h-5.1v-9.2c0-1.7-0.4-2.8-1.9-2.8c-1.3,0-2.3,0.7-2.3,3.4v8.6h-5.1v-9.2
		c0-1.7-0.3-2.8-1.9-2.8c-1.3,0-2.3,0.8-2.3,3.4v8.6h-5.1v-15.8h4.4l0.6,3.1c0.9-2.4,2.4-3.4,4.9-3.4c1.9,0,3.7,0.8,4.1,3.5
		C316,645.7,317.9,644.5,320.4,644.5z"/>
	<path d="M332.4,660.8h-3.6v-22.9h5.1v10c0.9-2.4,2.9-3.3,5.1-3.3c3.9,0,6.1,2.9,6.1,7.9c0,5.3-2.5,8.7-6.8,8.7
		c-2.7,0-4.2-1.2-4.7-2.7L332.4,660.8z M333.8,654.1c0,2.6,1.5,3.4,2.8,3.4c1.8,0,3.4-1.5,3.4-4.6s-1.2-4.3-3.1-4.3
		c-1.5,0-3.1,1.2-3.1,3.5L333.8,654.1L333.8,654.1z"/>
	<path d="M359.1,650.2c-0.7-0.2-1.1-0.3-1.9-0.3c-1.6,0-3.9,0.6-3.9,3.9v7h-5.1V645h4.4l0.6,4.4c0.7-2.7,2.1-5,6.5-4.7L359.1,650.2z
		"/>
	<path d="M374.8,655.6c0,1,0.4,1.4,1.1,1.4c0.4,0,0.7-0.1,1-0.3v3.6c-0.7,0.5-1.7,0.7-2.9,0.7c-2.1,0-3.4-0.8-3.9-2.5
		c-0.7,2-2.4,2.6-4.6,2.6c-2.8,0-4.6-1.6-4.6-4.4c0-3.5,2.9-5.4,8.8-5.1v-1.3c0-1.2-0.4-2-1.5-2s-1.6,0.9-1.7,2.2l-5.1-1
		c0.2-3.4,3.1-5.1,6.9-5.1c4.3,0,6.4,1.9,6.4,5.3v5.9H374.8z M369.8,654.3c-2.9-0.1-3.8,0.7-3.8,1.9c0,0.8,0.6,1.3,1.5,1.3
		c1,0,2.3-0.4,2.3-1.9V654.3z"/>
	<path d="M393.2,656.4c-0.6,3.2-3.4,4.8-6.9,4.8c-4.7,0-7.8-3-7.8-8.3s3.1-8.4,7.8-8.4c3.9,0,6.4,2.1,6.6,5.3l-4.3,1.3
		c-0.2-1.6-0.9-2.6-2.4-2.6c-1.9,0-2.9,1.6-2.9,4.3c0,2.9,1.1,4.5,2.9,4.5c1.1,0,1.9-0.5,2.3-2.3L393.2,656.4z"/>
	<path d="M405.2,655.3l4.3,1.5c-0.9,3.2-3.8,4.4-6.9,4.4c-4.6,0-7.8-3-7.8-8.1c0-5.5,3-8.6,7.9-8.6c4.6,0,6.8,3,6.8,7.1
		c0,0.7-0.1,1.3-0.2,2.1h-9.6c0.1,2.2,1.1,3.6,3,3.6C403.8,657.3,404.7,656.9,405.2,655.3z M404.6,651c0-0.2,0-0.3,0-0.5
		c0-1.3-0.7-2.3-2.2-2.3s-2.5,1.2-2.7,2.7L404.6,651L404.6,651z"/>
	<path d="M419.2,652.8c0-5.4,3.1-8.3,7.8-8.3c4.7,0,7.8,2.9,7.8,8.3c0,5.3-3.1,8.4-7.8,8.4C422.3,661.2,419.2,658.2,419.2,652.8z
		 M424.2,652.8c0,3.1,0.9,4.4,2.8,4.4s2.8-1.3,2.8-4.4c0-2.9-0.9-4.3-2.8-4.3C425.1,648.6,424.2,650,424.2,652.8z"/>
	<path d="M436.2,648.8v-3.9h2.3v-1c0-4.7,2.9-6.4,6.7-6.4c1.6,0,2.9,0.2,4,0.8l-0.7,4.2c-0.8-0.4-1.6-0.7-2.8-0.7
		c-1.3,0-2.2,0.4-2.2,2.2v0.8h4v3.9h-4v11.9h-5.1v-11.9h-2.2V648.8z"/>
</g>
<g>
	<path d="M305.6,695.4c-1.4,0.7-3.2,1.1-5.2,1.1c-3.2,0-5.4-1.5-5.4-5.3v-7h-2.3v-3.9h2.3v-3.4l5.1-0.6v3.9h4.7v3.9h-4.7v5.9
		c0,1.6,0.7,2.2,1.9,2.2c1,0,1.9-0.4,2.8-1L305.6,695.4z"/>
	<path d="M313.3,683.3c0.9-2.4,2.6-3.4,5-3.4s4.6,1.4,4.6,5v11.2h-5.1v-9.2c0-1.7-0.3-2.8-1.9-2.8c-1.3,0-2.6,0.7-2.6,3.4v8.6h-5.1
		v-22.9h5.1V683.3z"/>
	<path d="M329.3,672.6c1.8,0,3.1,0.9,3.1,2.8c0,1.9-1.3,2.8-3.1,2.8c-1.6,0-3-1-3-2.8S327.7,672.6,329.3,672.6z M331.9,680.2V696
		h-5.1v-15.8H331.9z"/>
	<path d="M338.6,690.6c0.4,1.7,1.6,2.3,2.9,2.3c1.1,0,1.9-0.4,1.9-1.1c0-0.8-0.6-1.1-1.9-1.4l-2.3-0.5c-2.7-0.7-4.1-2.3-4.1-4.8
		c0-4.1,3.3-5.2,6.7-5.2c3.9,0,6.2,1.4,6.4,4.5l-4.7,0.7c-0.2-1.2-0.8-1.5-2-1.5c-0.8,0-1.4,0.4-1.4,1c0,0.7,0.5,1,1.3,1.2l2.3,0.4
		c3.4,0.7,4.8,2.6,4.8,5.2c0,3.6-3,5-7,5s-6.4-1.1-7-4.1L338.6,690.6z"/>
	<path d="M364.2,703h-5.1v-22.8h4.4l0.7,3.1c0.9-2.5,2.9-3.4,5.2-3.4c3.9,0,6.1,2.9,6.1,7.9c0,5.3-2.5,8.7-6.8,8.7
		c-2.4,0-4-1.2-4.4-2.5v9H364.2z M364.2,689.5c0,2.6,1.5,3.4,2.8,3.4c1.8,0,3.4-1.5,3.4-4.6s-1.2-4.3-3.1-4.3
		c-1.5,0-3.1,1.2-3.1,3.6L364.2,689.5L364.2,689.5z"/>
	<path d="M385.7,695.9c-0.9,0.3-1.9,0.5-2.9,0.5c-2.4,0-4.7-1.1-4.7-4.3v-19h5.1v17.4c0,1,0.7,1.3,1.5,1.3c0.4,0,0.9-0.1,1.3-0.2
		L385.7,695.9z"/>
	<path d="M401.4,690.9c0,1,0.4,1.4,1.1,1.4c0.4,0,0.7-0.1,1-0.3v3.6c-0.7,0.5-1.7,0.7-2.9,0.7c-2.1,0-3.4-0.8-3.9-2.5
		c-0.7,2-2.4,2.6-4.6,2.6c-2.8,0-4.6-1.6-4.6-4.4c0-3.5,2.9-5.4,8.8-5.1v-1.3c0-1.2-0.4-2-1.5-2s-1.6,0.9-1.7,2.2l-5.1-1
		c0.2-3.4,3.1-5.1,6.9-5.1c4.2,0,6.4,1.9,6.4,5.3v5.9H401.4z M396.4,689.7c-2.9-0.1-3.8,0.7-3.8,1.9c0,0.8,0.6,1.3,1.5,1.3
		c1,0,2.3-0.4,2.3-1.9V689.7z"/>
	<path d="M419.8,691.7c-0.6,3.2-3.4,4.8-6.9,4.8c-4.7,0-7.8-3-7.8-8.3s3.1-8.4,7.8-8.4c3.9,0,6.4,2.1,6.6,5.3l-4.3,1.3
		c-0.2-1.6-0.9-2.6-2.4-2.6c-1.9,0-2.9,1.6-2.9,4.3c0,2.9,1.1,4.5,2.9,4.5c1.1,0,1.9-0.5,2.3-2.3L419.8,691.7z"/>
	<path d="M431.8,690.6l4.3,1.5c-0.9,3.2-3.8,4.4-6.9,4.4c-4.6,0-7.8-3-7.8-8.1c0-5.5,3-8.6,7.9-8.6c4.6,0,6.8,3,6.8,7.1
		c0,0.7-0.1,1.3-0.2,2.1h-9.6c0.1,2.2,1.1,3.6,3,3.6C430.3,692.6,431.3,692.2,431.8,690.6z M431.2,686.3c0-0.2,0-0.3,0-0.5
		c0-1.3-0.7-2.3-2.2-2.3s-2.5,1.2-2.7,2.7L431.2,686.3L431.2,686.3z"/>
</g>
<g>
	<path d="M394.3,249.2v-16.1h6.1c4.2,0,5.9,1.9,5.9,5.6c0,3.5-2.1,5.6-5.5,5.6h-2.3v5h-4.2V249.2z M398.5,240.9h1.8
		c1.4,0,2-0.7,2-2.1c0-1.6-0.6-2.3-2-2.3h-1.8V240.9z"/>
	<path d="M424.7,249.2h-11.1v-16.1h11.1v3.6h-7v2.7h6.2v3.4h-6.2v2.9h7V249.2z"/>
	<path d="M431.6,241.2c0-5.4,2.9-8.4,7.8-8.4s7.8,3,7.8,8.4s-2.9,8.4-7.8,8.4S431.6,246.6,431.6,241.2z M435.8,241.2
		c0,3,1.1,4.8,3.5,4.8s3.5-1.8,3.5-4.8s-1.2-4.8-3.5-4.8C437,236.4,435.8,238.3,435.8,241.2z"/>
	<path d="M454.6,249.2v-16.1h6.1c4.2,0,5.9,1.9,5.9,5.6c0,3.5-2.1,5.6-5.5,5.6h-2.3v5h-4.2V249.2z M458.8,240.9h1.8
		c1.4,0,2-0.7,2-2.1c0-1.6-0.6-2.3-2-2.3h-1.8V240.9z"/>
	<path d="M478,233.1v12.6h6v3.6h-10.1v-16.1h4.1V233.1z"/>
	<path d="M502.4,249.2h-11.1v-16.1h11.1v3.6h-7v2.7h6.2v3.4h-6.2v2.9h7V249.2z"/>
</g>
<g>
	<path d="M388.8,281.4v-13.9h-4.7v-2.2H396v2.2h-4.7v13.9H388.8z"/>
	<path d="M410.3,277h-6.6l-1.5,4.4h-2.6l5.9-16.1h3.3l5.8,16.1h-2.7L410.3,277z M403.4,262.9V261h7.2v1.9H403.4z M404.5,274.9h5.1
		l-1.2-3.6c-0.9-2.5-1.3-4.2-1.3-4.2H407c0,0-0.4,1.7-1.3,4.2L404.5,274.9z"/>
	<path d="M430.5,274.5c1,1.4,1.8,3.1,1.8,3.1h0.1c0,0-0.1-1.7-0.1-3.8v-8.5h2.5v16.1h-2.5l-6.4-9.2c-1-1.5-1.9-3.1-1.9-3.1h-0.1
		c0,0,0.2,1.7,0.2,3.8v8.5h-2.5v-16.1h2.6L430.5,274.5z"/>
	<path d="M456.5,273.1v8.3h-2l-0.3-2.1c-0.7,1.6-2.6,2.4-4.4,2.4c-4.1,0-7-2.9-7-8.3s3-8.5,7.5-8.5c3.1,0,5,1.3,6.1,3.9L454,270
		c-0.7-1.9-2.1-2.9-3.8-2.9c-2.8,0-4.8,2.2-4.8,6.3c0,3.6,1.5,6.2,4.6,6.2c2.2,0,4-1,4-3.2v-1.2h-3.9V273h6.4V273.1z"/>
	<path d="M473.6,277H467l-1.5,4.4h-2.6l5.9-16.1h3.3l5.8,16.1h-2.7L473.6,277z M467.7,274.9h5.2l-1.2-3.6c-0.9-2.5-1.3-4.2-1.3-4.2
		h-0.1c0,0-0.4,1.7-1.3,4.2L467.7,274.9z"/>
	<path d="M486.2,281.4v-13.9h-4.7v-2.2h11.9v2.2h-4.7v13.9H486.2z"/>
	<path d="M507.7,277h-6.6l-1.5,4.4H497l5.9-16.1h3.3l5.8,16.1h-2.7L507.7,277z M501.8,274.9h5.2l-1.2-3.6c-0.9-2.5-1.3-4.2-1.3-4.2
		h-0.1c0,0-0.4,1.7-1.3,4.2L501.8,274.9z"/>
</g>
<g>
	<path d="M237.1,1036.1V1020h6.1c4.2,0,5.9,1.9,5.9,5.6c0,3.5-2.1,5.6-5.5,5.6h-2.3v5L237.1,1036.1L237.1,1036.1z M241.2,1027.8h1.8
		c1.4,0,2-0.7,2-2.1c0-1.6-0.6-2.3-2-2.3h-1.8V1027.8z"/>
	<path d="M260.4,1020v12.6h6v3.6h-10.1V1020H260.4z"/>
	<path d="M283.2,1033.1h-5.9l-1,3H272l5.8-16.1h5l5.9,16.1h-4.4L283.2,1033.1z M278.4,1029.7h3.6l-0.4-1.2c-1-2.7-1.3-4.7-1.3-4.7
		h-0.1c0,0-0.4,2.1-1.3,4.7L278.4,1029.7z"/>
	<path d="M308.9,1032.6c-1.5,2.5-3.4,3.8-7.1,3.8c-4.4,0-7.5-3.1-7.5-8.4s2.9-8.4,8-8.4c3.5,0,5.6,1.6,6.7,4.2l-4,1.9
		c-0.4-1.5-1.1-2.5-2.8-2.5c-2.3,0-3.7,1.8-3.7,4.8s1.3,4.7,3.8,4.7c1.3,0,2.4-0.7,3-2.2L308.9,1032.6z"/>
	<path d="M327,1036.1h-11.1V1020H327v3.6h-7v2.7h6.2v3.4H320v2.9h7V1036.1z"/>
</g>
<g>
	<path d="M234.8,1062.2c0.6,2.5,0.9,4.4,0.9,4.4h0.1c0,0,0.2-1.9,0.8-4.3l2.5-10.1h2.5l-4.2,16.1H234l-2.5-9.5
		c-0.7-2.5-0.7-4.3-0.7-4.3h-0.1c0,0-0.1,1.8-0.7,4.3l-2.4,9.5H224l-4.2-16.1h2.7l2.5,10.1c0.6,2.5,0.8,4.4,0.8,4.4h0.1
		c0,0,0.2-1.9,0.8-4.4l2.6-10.1h2.9L234.8,1062.2z"/>
	<path d="M248.8,1068.3v-16.1h2.5v6.8h7.7v-6.8h2.5v16.1H259v-7.1h-7.7v7.1H248.8z"/>
	<path d="M280.3,1068.3h-9.9v-16.1h9.9v2.2h-7.4v4.8h6.6v2.2h-6.6v4.8h7.4V1068.3z"/>
	<path d="M297.3,1061.4c1,1.4,1.8,3.1,1.8,3.1h0.1c0,0-0.1-1.7-0.1-3.8v-8.5h2.5v16.1h-2.5l-6.4-9.2c-1-1.5-1.9-3.1-1.9-3.1h-0.1
		c0,0,0.2,1.7,0.2,3.8v8.5h-2.5v-16.1h2.6L297.3,1061.4z"/>
	<path d="M322.5,1052.1v10.8c0,4.2-3.1,5.6-6.2,5.6c-3.2,0-6.2-1.4-6.2-5.6v-10.8h2.5v10.2c0,2.9,1.3,4.2,3.7,4.2
		c2.3,0,3.7-1.3,3.7-4.1v-10.2L322.5,1052.1L322.5,1052.1z"/>
	<path d="M339.4,1063.9h-6.6l-1.5,4.4h-2.6l5.9-16.1h3.3l5.8,16.1H341L339.4,1063.9z M333.5,1061.8h5.2l-1.2-3.6
		c-0.9-2.5-1.3-4.2-1.3-4.2H336c0,0-0.4,1.7-1.3,4.2L333.5,1061.8z"/>
</g>
</svg>
