<?xml version="1.0" encoding="utf-8"?>
<!-- Generator: Adobe Illustrator 22.1.0, SVG Export Plug-In . SVG Version: 6.00 Build 0)  -->
<svg version="1.1" id="Layer_1" xmlns="http://www.w3.org/2000/svg" xmlns:xlink="http://www.w3.org/1999/xlink" x="0px" y="0px"
	 width="750px" height="1331.7px" viewBox="0 0 750 1331.7" style="enable-background:new 0 0 750 1331.7;" xml:space="preserve">
<title>03</title>
<g id="_03">
	<path d="M426.4,686.5c0-1.5,1.2-2.7,2.7-2.7c1.1-0.1,2.1,0.7,2.2,1.8c0,0.1,0,0.3,0,0.5s0,0.3,0,0.5L426.4,686.5L426.4,686.5z
		 M429.3,692.8c-1.9,0-3-1.4-3-3.6h9.6c0.1-0.7,0.2-1.4,0.2-2.1c0-4.1-2.2-7.1-6.8-7.1c-4.9,0-7.9,3.1-7.9,8.6
		c0,5.1,3.2,8.1,7.9,8.1c3.1,0,6-1.2,6.9-4.4l-4.3-1.5C431.6,692,430.6,692.9,429.3,692.8 M415.3,690.5c-0.4,1.8-1.2,2.3-2.3,2.3
		c-1.9,0-3-1.6-3-4.5c0-2.7,1-4.3,2.9-4.3c1.5,0,2.2,1,2.4,2.6l4.2-1.3c-0.2-3.2-2.7-5.3-6.6-5.3c-4.7,0-7.9,3.1-7.9,8.4
		s3.1,8.3,7.9,8.3c3.5,0,6.2-1.6,6.9-4.8L415.3,690.5z M401.4,685.5c0-3.5-2.2-5.4-6.4-5.4c-3.9,0-6.7,1.7-6.9,5.1l5.1,1
		c0.1-1.4,0.6-2.2,1.7-2.2s1.5,0.8,1.5,2v1.3c-6-0.3-8.9,1.5-8.9,5.1c0,2.8,1.8,4.4,4.6,4.4c2.2,0,3.9-0.6,4.6-2.6
		c0.6,1.7,1.9,2.5,4,2.5c1,0.1,2-0.2,2.9-0.7v-3.7c-0.3,0.2-0.7,0.3-1,0.3c-0.7,0-1.1-0.4-1.1-1.4L401.4,685.5z M396.4,691.3
		c0,1.4-1.2,1.9-2.3,1.9c-0.7,0.1-1.4-0.4-1.5-1.2c0-0.1,0-0.1,0-0.2c0-1.2,0.9-2,3.8-1.9V691.3z M386,692c-0.4,0.2-0.8,0.2-1.3,0.2
		c-0.8,0-1.5-0.3-1.5-1.3v-17.5h-5.1v19c0,3.2,2.3,4.3,4.7,4.3c1,0,2-0.2,2.9-0.5L386,692z M364.2,694.3c0.4,1.3,2,2.5,4.4,2.5
		c4.3,0,6.8-3.4,6.8-8.7c0-5-2.2-7.9-6.1-7.9c-2.3-0.2-4.5,1.2-5.2,3.4l-0.6-3.1h-4.4v22.8h5.1L364.2,694.3L364.2,694.3z
		 M364.2,687.8c0-2.4,1.6-3.6,3.1-3.6c1.9,0,3.1,1.2,3.1,4.3s-1.5,4.6-3.4,4.6c-1.2,0-2.8-0.8-2.8-3.4L364.2,687.8L364.2,687.8z
		 M334.4,692.7c0.7,3,3,4.1,7,4.1s7-1.4,7-5c0-2.7-1.4-4.5-4.8-5.2l-2.3-0.5c-0.9-0.2-1.3-0.5-1.3-1.2s0.6-1,1.5-1
		c1.1,0,1.8,0.3,2,1.5l4.7-0.7c-0.2-3.1-2.5-4.5-6.5-4.5c-3.4,0-6.7,1.1-6.7,5.3c0,2.5,1.3,4,4.1,4.8l2.3,0.5
		c1.3,0.3,1.9,0.6,1.9,1.4s-0.8,1.1-1.9,1.1c-1.4,0.1-2.8-0.9-3-2.3L334.4,692.7z M326.8,696.4h5.1v-16h-5.2L326.8,696.4z
		 M326.3,675.8c0,1.5,1.2,2.8,2.7,2.8l0,0h0.3c1.8,0,3.1-1,3.1-2.8c0-1.6-1.2-2.8-2.8-2.9c-0.1,0-0.2,0-0.3,0c-1.5-0.1-2.9,1-3,2.5
		l0,0C326.3,675.5,326.3,675.7,326.3,675.8 M313.2,673.5h-5.1v23h5.1v-8.6c0-2.7,1.3-3.4,2.6-3.4c1.6,0,1.9,1.1,1.9,2.8v9.2h4.9
		v-11.3c0-3.6-2.2-5-4.6-5c-2.3-0.2-4.3,1.2-5,3.4L313.2,673.5z M304.7,691.5c-0.8,0.6-1.8,1-2.8,1c-1.2,0-1.9-0.5-1.9-2.2v-5.9h4.7
		v-3.9H300v-4l-5.1,0.6v3.4h-2.3v3.9h2.3v7c0,3.8,2.2,5.3,5.4,5.3c1.8,0.1,3.6-0.3,5.2-1.1L304.7,691.5z"/>
	<path d="M438.6,649v12h5.1v-12h4v-4h-4v-0.8c0-1.8,0.9-2.2,2.2-2.2c1,0,1.9,0.2,2.8,0.7l0.7-4.2c-1.3-0.6-2.7-0.8-4.1-0.8
		c-3.7,0-6.7,1.7-6.7,6.4v1h-2.3v4h2.3V649z M427,648.7c1.9,0,2.8,1.4,2.8,4.3c0,3-0.9,4.4-2.8,4.4s-2.8-1.4-2.8-4.4
		C424.2,650.1,425.1,648.7,427,648.7 M427,661.3c4.7,0,7.8-3,7.8-8.4s-3.1-8.3-7.8-8.3s-7.8,2.9-7.8,8.3S422.3,661.3,427,661.3
		 M399.8,651.2c0-1.5,1.2-2.7,2.7-2.8c1.1-0.1,2.1,0.7,2.2,1.8c0,0.2,0,0.3,0,0.5s0,0.3,0,0.5H399.8z M402.7,657.4
		c-1.9,0-3-1.4-3-3.6h9.6c0.1-0.7,0.2-1.4,0.2-2.1c0-4.1-2.2-7.1-6.8-7.1c-4.9,0-7.9,3.1-7.9,8.6c0,5.1,3.2,8.1,7.9,8.1
		c3.1,0,6-1.2,6.9-4.4l-4.3-1.5C405,656.7,403.9,657.5,402.7,657.4 M388.7,655.1c-0.4,1.8-1.2,2.3-2.3,2.3c-1.9,0-3-1.6-3-4.5
		c0-2.7,1-4.3,2.9-4.3c1.5,0,2.2,1,2.4,2.6l4.3-1.3c-0.2-3.2-2.8-5.3-6.6-5.3c-4.7,0-7.9,3.1-7.9,8.4s3.1,8.3,7.9,8.3
		c3.5,0,6.2-1.6,6.9-4.8L388.7,655.1z M374.8,650.1c0-3.5-2.2-5.3-6.4-5.3c-3.9,0-6.7,1.7-6.9,5.1l5.1,1c0.1-1.4,0.6-2.2,1.7-2.2
		s1.5,0.8,1.5,2v1.3c-6-0.3-8.9,1.5-8.9,5.1c0,2.8,1.8,4.4,4.6,4.4c2.2,0,3.9-0.6,4.6-2.6c0.6,1.7,1.9,2.5,4,2.5
		c1,0.1,2-0.2,2.9-0.7V657c-0.3,0.2-0.7,0.2-1,0.3c-0.7,0-1.1-0.4-1.1-1.4L374.8,650.1z M369.8,655.9c0,1.5-1.2,1.9-2.3,1.9
		c-0.7,0.1-1.4-0.4-1.5-1.2c0-0.1,0-0.1,0-0.2c0-1.2,0.9-2,3.8-1.9V655.9z M359.7,644.7c-4.4-0.3-5.8,2-6.5,4.7l-0.6-4.4h-4.4v16
		h5.1v-7c0-3.3,2.3-3.9,4-3.9c0.7,0,1.3,0.1,1.9,0.3L359.7,644.7z M333.5,658.6c0.5,1.5,2,2.7,4.7,2.7c4.3,0,6.8-3.4,6.8-8.7
		c0-5-2.2-7.9-6.1-7.9c-2.3-0.2-4.4,1.1-5.1,3.3v-10h-5.1v23h3.6L333.5,658.6z M333.7,652.2c-0.1-1.8,1.2-3.3,2.9-3.5l0,0h0.1
		c1.9,0,3.1,1.2,3.1,4.3s-1.5,4.6-3.4,4.6c-1.2,0-2.8-0.8-2.8-3.4L333.7,652.2z M315,648.1c-0.1-2.1-1.9-3.6-4-3.5h-0.1
		c-2.2-0.2-4.3,1.3-4.9,3.4l-0.6-3.1H301v16h5.1v-8.6c0-2.7,1-3.4,2.3-3.4c1.6,0,1.9,1.1,1.9,2.8v9.2h5.1v-8.6c0-2.6,1-3.4,2.3-3.4
		c1.5,0,1.9,1.1,1.9,2.8v9.2h5v-11.2c0-3.6-1.9-5-4.5-5c-2.3-0.1-4.4,1.3-5.2,3.5 M288.1,651.3c0-1.5,1.2-2.7,2.7-2.8
		c1.1-0.1,2.1,0.7,2.2,1.8c0,0.2,0,0.3,0,0.5s0,0.3,0,0.5H288.1z M291,657.5c-1.9,0-3-1.4-3-3.6h9.7c0.1-0.7,0.2-1.4,0.2-2.1
		c0-4.1-2.2-7.1-6.8-7.1c-4.9,0-7.9,3.1-7.9,8.6c0,5.1,3.2,8.1,7.9,8.1c3.1,0,6-1.2,6.9-4.4l-4.3-1.5
		C293.3,656.7,292.3,657.6,291,657.5"/>
	<path d="M412.8,615.8c0-1.5,1.2-2.7,2.7-2.8c1.1-0.1,2.1,0.7,2.2,1.8c0,0.2,0,0.3,0,0.5s0,0.3,0,0.5H412.8z M415.7,622
		c-1.9,0-3-1.4-3-3.6h9.6c0.1-0.7,0.2-1.4,0.2-2.1c0-4.1-2.2-7.1-6.8-7.1c-4.9,0-7.9,3.1-7.9,8.6c0,5.1,3.2,8.1,7.9,8.1
		c3.1,0,6-1.2,6.9-4.4l-4.3-1.6C418,621.2,416.9,622.1,415.7,622 M395.2,602.6h-5.1v22.9h5.1V617c0-2.6,1.3-3.4,2.6-3.4
		c1.6,0,1.9,1.1,1.9,2.8v9.2h5.1v-11.3c0-3.6-2.2-5-4.6-5c-2.3-0.2-4.3,1.2-5,3.4V602.6z M386.7,620.6c-0.8,0.6-1.8,1-2.8,1
		c-1.2,0-1.9-0.5-1.9-2.2v-5.9h4.7v-3.9H382v-4l-5.1,0.6v3.4h-2.3v3.9h2.3v7c0,3.8,2.2,5.3,5.4,5.3c1.8,0.1,3.6-0.3,5.2-1.1
		L386.7,620.6z M366,621.1c-0.4,0.2-0.8,0.2-1.3,0.2c-0.8,0-1.5-0.3-1.5-1.3v-17.5h-5.1v19c0,3.2,2.3,4.3,4.7,4.3
		c1,0,1.9-0.2,2.9-0.5L366,621.1z M345.7,615.8c0-1.5,1.2-2.7,2.7-2.8c1.1-0.1,2.1,0.7,2.2,1.8c0,0.2,0,0.3,0,0.5s0,0.3,0,0.5H345.7
		z M348.6,622c-1.9,0-3-1.4-3-3.6h9.6c0.1-0.7,0.2-1.4,0.2-2.1c0-4.1-2.2-7.1-6.8-7.1c-4.9,0-7.9,3.1-7.9,8.6c0,5.1,3.2,8.1,7.9,8.1
		c3.1,0,6-1.2,6.9-4.4l-4.3-1.6C350.9,621.2,349.8,622.1,348.6,622 M328.8,615.8c0-1.5,1.2-2.7,2.7-2.8c1.1-0.1,2.1,0.7,2.2,1.8
		c0,0.2,0,0.3,0,0.5s0,0.3,0,0.5H328.8z M331.7,622c-1.9,0-3-1.4-3-3.6h9.6c0.1-0.7,0.2-1.4,0.2-2.1c0-4.1-2.2-7.1-6.8-7.1
		c-4.9,0-7.9,3.1-7.9,8.6c0,5.1,3.2,8.1,7.9,8.1c3.1,0,6-1.2,6.9-4.4l-4.3-1.6C334,621.2,333,622.1,331.7,622 M313.6,625.5v-7.1h7.4
		v-4.3h-7.4v-4.4h8.5v-4.5h-13.6v20.2L313.6,625.5z"/>
	<path d="M175.3,978.6c-2,0.3-4,0.8-6,1.4l-0.1-0.1c1.6-1.3,3.1-2.7,4.4-4.2l1.1-1.2l2.2,4L175.3,978.6z M180.5,968l-2.6-4.9
		l-14.2,16.2l3,5.5l21.3-3.3l-2.6-4.7l-3.9,0.7l-3.6-6.5L180.5,968z M176.5,1000.8l9.8-6.8c2.2-1.5,3.9-2.2,5.6,0.2s0.5,3.8-1.7,5.3
		l-9.8,6.8l2.9,4.2l11-7.7c4.5-3.1,3.7-7.3,1.1-11.1s-6.3-6-10.8-2.9l-11,7.7L176.5,1000.8z M198.3,1027.9l3.2,3.5l15-13.6l-3.5-3.8
		l-5.3,4.8c-1.1,1-2.2,2.1-3.2,3.2l-0.1-0.1c0.4-1,0.6-2.1,0.8-3.2l2-11.1l-3.1-3.4l-15,13.6l3.5,3.8l5.5-5c1.9-1.7,3-2.9,3-2.9
		l0.1,0.1c-0.3,0.9-0.6,1.8-0.7,2.7L198.3,1027.9z M218.7,1025.4l6.9,5.4l-2.2,2.9l-6.1-4.8l-2.6,3.4l6.1,4.8l-2.1,2.7l-6.9-5.4
		l-2.8,3.5l11,8.6l12.4-16l-11-8.6L218.7,1025.4z M249.6,1039.9l-3.6,7.2l-6.4-3.2l3.6-7.2l-4.6-2.3l-9,18.1l4.6,2.3l3.5-6.9
		l6.4,3.2l-3.5,6.9l4.6,2.3l9-18.1L249.6,1039.9z M267.8,1066.2l6.2,0.8l3.6-10.3c0.9-2.7,1.6-5.6,1.6-5.6h0.1c0,0-0.1,3,0.1,5.9
		l0.6,10.8l5.4,0.7L284,1048l-7.2-1l-3.4,8.9c-0.7,1.8-1.2,3.7-1.6,5.7h-0.1c0.1-1.9,0.1-3.9,0-5.8l-0.8-9.5l-7.5-1l-6.9,19.5
		l5.2,0.7l3.4-10.3c0.9-2.6,1.6-5.6,1.6-5.6h0.1c0,0-0.1,3,0.1,5.9L267.8,1066.2z M313.5,1053c-0.6-2.4-3-3.8-5.4-3.2
		s-3.8,3-3.2,5.4c0.6,2.4,3,3.8,5.4,3.2l0,0C312.7,1057.8,314.1,1055.4,313.5,1053 M327.4,1041.3l7.6-4.5l1.9,3.1l-6.6,3.9l2.2,3.7
		l6.6-3.9l1.7,2.9l-7.6,4.5l2.3,3.8l12-7.1l-10.3-17.4l-12,7.1L327.4,1041.3z M349.4,1029.7c-0.7-1.6-0.2-3.4,1.1-4.6
		c2.4-2.1,5-1.4,7.4,1.4s2.6,5.7,0.4,7.6c-1.6,1.4-3.1,1-4.7,0l-2.2,5.1c3.2,1.5,6.5,1.3,9.8-1.5c4.8-4.1,5.2-9.4,0.8-14.5
		s-9.8-5.5-14-1.9c-3.5,3-4.3,5.8-3.7,9.4L349.4,1029.7z M373.3,1009.6c1,1.7,2.2,3.4,3.4,5l-0.1,0.1c-1.8-1-3.6-1.9-5.5-2.6
		l-1.5-0.6l2.9-3.4L373.3,1009.6z M361.5,1008.6l-3.6,4.2l20.2,7.4l4-4.8l-10.7-18.7l-3.5,4.1l2.1,3.4l-4.8,5.7L361.5,1008.6z
		 M397.2,994.4l-16.9-11.2l-7,10.6l3.7,2.5l4.2-6.3l13.1,8.7L397.2,994.4z M388,969.7l5.5,3l-1.4,2.6c-2.1,3.8-1.1,7.3,2.8,9.4
		c4.1,2.2,7.2,1.5,9.7-3.1l3.6-6.7l-17.8-9.7L388,969.7z M402,977.4l-1.1,2c-0.8,1.5-2,1.8-3.7,0.8c-1.5-0.8-1.9-1.9-1-3.5l1.1-2
		L402,977.4z"/>
	<path d="M574.7,339.5c2-0.2,4-0.6,6-1.1l0.1,0.1c-1.6,1.2-3.2,2.5-4.6,4l-1.1,1.2l-2-4L574.7,339.5z M568.9,349.9l2.4,5l15-15.5
		l-2.7-5.7l-21.4,2.2l2.3,4.9l4-0.5l3.2,6.7L568.9,349.9z M558.8,330.4l13.6-8l2.8,4.7l3.8-2.3l-8-13.8l-3.8,2.3l2.7,4.6l-13.6,8
		L558.8,330.4z M553.5,304.7c1.9-0.6,3.9-1.3,5.7-2.1l0.1,0.1c-1.4,1.5-2.7,3.1-3.8,4.8l-0.9,1.4l-2.6-3.6L553.5,304.7z M549.7,316
		l3.2,4.5l12-17.9l-3.7-5.1l-20.7,6l3.2,4.4l3.8-1.2l4.4,6L549.7,316z M539.3,286.3l-2.9,2.8l2.8,2.9l-0.3,0.3c-1,1-2.5,1.2-4.4-0.7
		c-2.5-2.6-1.2-5.4,1.2-7.7c3.7-3.5,6.4-2.2,7.6-0.9s1.3,2.9,0.2,4.7l5.2,1.9c1.4-3.2,0.8-6.7-2.1-9.7c-4.4-4.6-9.7-4.6-14.6,0.1
		c-5.2,5-4.9,10-1.2,13.8c1.7,1.8,3.7,2.7,5.7,2.2l-1,2.1l2.1,2.2l7.9-7.6L539.3,286.3z M520.7,258.8l-3.9-2.8l-11.7,16.5l4.2,3
		l4.1-5.9c0.9-1.2,1.7-2.5,2.4-3.8l0.1,0.1c-0.1,1.1-0.2,2.2-0.1,3.2l0.4,11.3l3.8,2.7l11.6-16.5l-4.2-3l-4.3,6
		c-1.5,2.1-2.3,3.5-2.3,3.5l-0.1-0.1c0.1-0.9,0.2-1.9,0.1-2.8L520.7,258.8z M492.7,256.7c1.3-1.6,2.5-3.2,3.7-4.9h0.1
		c-0.4,2-0.6,4-0.6,6.1v1.6l-4.2-1.6L492.7,256.7z M495.5,268.1l5.1,2l0.5-21.5l-5.9-2.3L481,262.5l5,2l2.5-3.1l7,2.7V268.1z
		 M474.5,261.8l2.4-15.6l5.4,0.9l0.7-4.4l-15.8-2.5l-0.7,4.4l5.3,0.8l-2.5,15.6L474.5,261.8z M439.8,252.4c0.4,2.4,2.6,4.1,5.1,3.7
		s4.1-2.6,3.7-5.1c-0.4-2.4-2.6-4.1-5.1-3.7l0,0C441.1,247.8,439.5,250,439.8,252.4 M424.8,262.9l-7.9,3.8l-1.6-3.3l7-3.3l-1.9-3.9
		l-7,3.3l-1.5-3l7.9-3.8l-1.9-4l-12.6,6l8.7,18.2l12.6-6L424.8,262.9z M387.2,267.3l12,16.3l10.3-7.5l-2.6-3.6l-6.1,4.5l-9.3-12.7
		L387.2,267.3z M387.8,294.2l-4.4-4.4l2.1-2c3.1-3,3.1-6.7,0-9.8c-3.3-3.3-6.5-3.5-10.2,0.2l-5.4,5.3l14.2,14.4L387.8,294.2z
		 M376.6,282.9l1.6-1.6c1.2-1.2,2.4-1.1,3.8,0.3c1.2,1.2,1.2,2.4,0,3.6l-1.6,1.6L376.6,282.9z M361.4,300.4c1.8-2.4,4.5-2.1,7.5,0.1
		s3.9,4.8,2.1,7.1s-4.5,2.1-7.4-0.1S359.6,302.7,361.4,300.4 M374.5,310.4c3.7-4.9,3-10-2.4-14.1s-10.6-3.5-14.3,1.3s-3,10,2.5,14.2
		S370.8,315.2,374.5,310.4 M361.7,320l-4.5,7.5l-3.1-1.9l4-6.6l-3.7-2.2l-4,6.6l-2.9-1.7l4.5-7.5l-3.8-2.3l-7.2,11.9l17.3,10.4
		l7.2-12L361.7,320z M351.4,348.2l-5.6-2.7l1.3-2.6c1.9-3.9,0.7-7.4-3.3-9.3c-4.2-2-7.3-1.1-9.6,3.6L331,344l18.2,8.8L351.4,348.2z
		 M337.1,341.2l1-2c0.8-1.6,1.9-1.9,3.7-1c1.6,0.8,2,1.8,1.2,3.4l-1,2L337.1,341.2z"/>
	<rect x="498.9" y="236.3" transform="matrix(0.3679 -0.9299 0.9299 0.3679 90.8534 618.501)" width="3" height="12.3"/>
</g>
</svg>
