<?xml version="1.0" encoding="utf-8"?>
<!-- Generator: Adobe Illustrator 23.0.1, SVG Export Plug-In . SVG Version: 6.00 Build 0)  -->
<svg version="1.1" id="Layer_1" xmlns="http://www.w3.org/2000/svg" xmlns:xlink="http://www.w3.org/1999/xlink" x="0px" y="0px"
	 viewBox="0 0 750 1331.7" style="enable-background:new 0 0 750 1331.7;" xml:space="preserve">
<style type="text/css">
	.st0{fill:#FFFFFF;}
</style>
<g>
	<path d="M413.5,683.2c0.1-1.6,1.2-2.8,2.7-2.8s2.2,1,2.2,2.3c0,0.2,0,0.3,0,0.5H413.5z M416.4,689.5c-2,0-3-1.4-3.1-3.6h9.8
		c0.1-0.7,0.2-1.4,0.2-2.1c0-4.2-2.3-7.2-7-7.2c-5,0-8,3.1-8,8.7c0,5.2,3.3,8.2,8,8.2c3.2,0,6.2-1.2,7.1-4.4l-4.4-1.6
		C418.5,689.1,417.5,689.5,416.4,689.5 M402.2,687.2c-0.4,1.8-1.2,2.4-2.3,2.4c-1.9,0-3-1.6-3-4.5c0-2.7,1-4.4,3-4.4
		c1.5,0,2.2,1,2.4,2.6l4.3-1.3c-0.2-3.2-2.8-5.4-6.7-5.4c-4.8,0-8,3.1-8,8.5s3.2,8.4,8,8.4c3.5,0,6.4-1.6,7-4.9L402.2,687.2z
		 M388,682c0-3.6-2.2-5.5-6.5-5.5c-4,0-6.8,1.7-7.1,5.2l5.2,1c0.1-1.4,0.6-2.3,1.7-2.3c1.2,0,1.5,0.8,1.5,2.1v1.4
		c-6.1-0.3-9,1.6-9,5.2c0,2.8,1.9,4.5,4.7,4.5c2.3,0,4-0.6,4.7-2.6c0.6,1.7,1.9,2.5,4,2.5c1.2,0,2.2-0.2,2.9-0.7v-3.7
		c-0.3,0.1-0.7,0.3-1,0.3c-0.7,0-1.2-0.4-1.2-1.5L388,682L388,682z M382.9,688c0,1.5-1.3,1.9-2.3,1.9c-0.9,0-1.5-0.6-1.5-1.4
		c0-1.2,0.9-2.1,3.8-2V688z M372.3,688.6c-0.4,0.2-0.9,0.2-1.3,0.2c-0.8,0-1.5-0.3-1.5-1.4v-17.8h-5.2V689c0,3.2,2.3,4.3,4.8,4.3
		c1,0,2-0.2,2.9-0.5L372.3,688.6z M350.1,691c0.4,1.4,2.1,2.5,4.5,2.5c4.4,0,6.9-3.5,6.9-8.9c0-5.1-2.2-8.1-6.2-8.1
		c-2.3,0-4.3,0.9-5.3,3.5l-0.7-3.1h-4.5v23.2h5.2V691H350.1z M350,684.4c0-2.5,1.6-3.7,3.1-3.7c1.9,0,3.1,1.3,3.1,4.4
		c0,3.2-1.6,4.7-3.4,4.7c-1.3,0-2.8-0.8-2.8-3.5L350,684.4L350,684.4z M319.8,689.3c0.7,3.1,3.1,4.2,7.2,4.2s7.1-1.4,7.1-5.1
		c0-2.7-1.5-4.6-4.9-5.3l-2.3-0.5c-0.9-0.2-1.4-0.5-1.4-1.2s0.6-1,1.5-1c1.2,0,1.8,0.3,2,1.5l4.8-0.7c-0.2-3.2-2.6-4.6-6.6-4.6
		c-3.4,0-6.8,1.2-6.8,5.3c0,2.5,1.4,4.1,4.2,4.9l2.4,0.6c1.3,0.3,1.9,0.6,1.9,1.4c0,0.7-0.8,1.1-1.9,1.1c-1.4,0-2.6-0.6-3-2.3
		L319.8,689.3z M312,693.1h5.2V677H312V693.1z M311.5,672.1c0,1.9,1.4,2.9,3.1,2.9c1.8,0,3.2-1,3.2-2.9c0-2-1.4-2.9-3.2-2.9
		C312.9,669.2,311.5,670.1,311.5,672.1 M298.2,669.7H293v23.4h5.2v-8.8c0-2.7,1.3-3.4,2.7-3.4c1.6,0,2,1.1,2,2.8v9.4h5.2v-11.4
		c0-3.7-2.3-5.1-4.7-5.1c-2.5,0-4.2,1-5.1,3.5v-10.4H298.2z M289.5,688.1c-0.9,0.7-1.9,1-2.9,1c-1.3,0-1.9-0.5-1.9-2.2v-6h4.8v-4
		h-4.8v-4l-5.2,0.6v3.4h-2.4v4h2.3v7.2c0,3.9,2.2,5.4,5.5,5.4c2.1,0,3.8-0.3,5.3-1.1L289.5,688.1z"/>
	<path d="M425.9,644.9v12.2h5.2v-12.2h4.1v-4h-4.1v-0.8c0-1.9,0.9-2.3,2.2-2.3c1.2,0,2,0.2,2.8,0.7l0.7-4.3
		c-1.2-0.6-2.5-0.8-4.1-0.8c-3.8,0-6.8,1.7-6.8,6.5v1h-2.4v4L425.9,644.9L425.9,644.9z M414.1,644.7c1.9,0,2.9,1.4,2.9,4.3
		c0,3.1-0.9,4.5-2.9,4.5s-2.9-1.4-2.9-4.5C411.3,646.1,412.2,644.7,414.1,644.7 M414.1,657.5c4.8,0,8-3.1,8-8.5c0-5.5-3.2-8.4-8-8.4
		s-8,2.9-8,8.4C406.2,654.4,409.3,657.5,414.1,657.5 M386.4,647.1c0.1-1.6,1.2-2.8,2.7-2.8s2.2,1,2.2,2.3c0,0.2,0,0.3,0,0.5H386.4z
		 M389.3,653.5c-2,0-3-1.4-3.1-3.6h9.8c0.1-0.7,0.2-1.4,0.2-2.1c0-4.2-2.3-7.2-7-7.2c-5,0-8,3.1-8,8.7c0,5.2,3.3,8.2,8,8.2
		c3.2,0,6.2-1.2,7.1-4.4l-4.4-1.6C391.4,653.1,390.4,653.5,389.3,653.5 M375.1,651.1c-0.4,1.8-1.2,2.4-2.3,2.4c-1.9,0-3-1.6-3-4.5
		c0-2.7,1-4.4,3-4.4c1.5,0,2.2,1,2.4,2.6l4.3-1.3c-0.2-3.2-2.8-5.4-6.7-5.4c-4.8,0-8,3.1-8,8.5s3.2,8.4,8,8.4c3.5,0,6.4-1.6,7-4.9
		L375.1,651.1z M360.9,646c0-3.6-2.2-5.5-6.5-5.5c-4,0-6.8,1.7-7.1,5.2l5.2,1c0.1-1.4,0.6-2.3,1.7-2.3c1.2,0,1.5,0.8,1.5,2.1v1.4
		c-6.1-0.4-9,1.6-9,5.2c0,2.8,1.9,4.5,4.7,4.5c2.3,0,4-0.6,4.7-2.6c0.6,1.7,1.9,2.5,4,2.5c1.2,0,2.2-0.2,2.9-0.7v-3.7
		c-0.3,0.1-0.7,0.3-1,0.3c-0.7,0-1.2-0.4-1.2-1.5L360.9,646L360.9,646z M355.8,651.9c0,1.5-1.3,1.9-2.3,1.9c-0.9,0-1.5-0.6-1.5-1.4
		c0-1.2,0.9-2.1,3.9-2v1.5H355.8z M345.5,640.6c-4.5-0.3-5.9,2-6.6,4.8l-0.6-4.5h-4.5V657h5.2v-7.1c0-3.4,2.3-4,4-4
		c0.8,0,1.3,0.1,2,0.3L345.5,640.6z M319,654.7c0.5,1.5,2,2.8,4.8,2.8c4.4,0,6.9-3.5,6.9-8.9c0-5.1-2.2-8.1-6.2-8.1
		c-2.3,0-4.3,0.9-5.2,3.4v-10.2h-5.2v23.4h3.7L319,654.7z M319.1,648.2c0-2.3,1.6-3.5,3.1-3.5c1.9,0,3.1,1.3,3.1,4.4
		c0,3.2-1.6,4.7-3.4,4.7c-1.3,0-2.8-0.8-2.8-3.5L319.1,648.2L319.1,648.2z M300.1,644.1c-0.4-2.7-2.2-3.5-4.2-3.5
		c-2.5,0-4.1,1.1-5,3.5l-0.6-3.1h-4.5v16.1h5.2v-8.7c0-2.7,1-3.5,2.3-3.5c1.6,0,2,1.1,2,2.8v9.4h5.2v-8.8c0-2.7,1-3.4,2.3-3.4
		c1.6,0,2,1.1,2,2.8v9.4h5.2v-11.4c0-3.7-2-5.1-4.6-5.1C302.9,640.5,301,641.7,300.1,644.1 M272.8,647.1c0.1-1.6,1.2-2.8,2.7-2.8
		s2.2,1,2.2,2.3c0,0.2,0,0.3,0,0.5H272.8z M275.7,653.5c-2,0-3-1.4-3.1-3.6h9.8c0.1-0.7,0.2-1.4,0.2-2.1c0-4.2-2.3-7.2-7-7.2
		c-5,0-8,3.1-8,8.7c0,5.2,3.3,8.2,8,8.2c3.2,0,6.2-1.2,7.1-4.4l-4.4-1.6C277.8,653.1,276.8,653.5,275.7,653.5"/>
	<path d="M399.6,611.1c0.1-1.6,1.2-2.8,2.7-2.8s2.2,1,2.2,2.3c0,0.2,0,0.3,0,0.5H399.6z M402.6,617.5c-2,0-3-1.4-3.1-3.6h9.8
		c0.1-0.7,0.2-1.4,0.2-2.1c0-4.2-2.3-7.2-7-7.2c-5,0-8,3.1-8,8.7c0,5.2,3.3,8.2,8,8.2c3.2,0,6.2-1.2,7.1-4.4l-4.4-1.6
		C404.6,617.1,403.6,617.5,402.6,617.5 M381.7,597.7h-5.2v23.4h5.2v-8.8c0-2.7,1.3-3.4,2.7-3.4c1.6,0,2,1.1,2,2.8v9.4h5.2v-11.4
		c0-3.7-2.3-5.1-4.7-5.1c-2.5,0-4.2,1-5.1,3.5v-10.4H381.7z M373,616c-0.9,0.7-1.9,1-2.9,1c-1.3,0-1.9-0.5-1.9-2.2v-6h4.8v-4h-4.8
		v-4l-5.2,0.6v3.4h-2.4v4h2.3v7.2c0,3.9,2.2,5.4,5.5,5.4c2.1,0,3.8-0.3,5.3-1.1L373,616z M352,616.6c-0.4,0.2-0.9,0.2-1.3,0.2
		c-0.8,0-1.5-0.3-1.5-1.4v-17.8H344V617c0,3.2,2.3,4.3,4.8,4.3c1,0,2-0.2,2.9-0.5L352,616.6z M331.3,611.1c0.1-1.6,1.2-2.8,2.7-2.8
		s2.2,1,2.2,2.3c0,0.2,0,0.3,0,0.5H331.3z M334.2,617.5c-2,0-3-1.4-3.1-3.6h9.8c0.1-0.7,0.2-1.4,0.2-2.1c0-4.2-2.3-7.2-7-7.2
		c-5,0-8,3.1-8,8.7c0,5.2,3.3,8.2,8,8.2c3.2,0,6.2-1.2,7.1-4.4l-4.4-1.6C336.3,617.1,335.3,617.5,334.2,617.5 M314.1,611.1
		c0.1-1.6,1.2-2.8,2.7-2.8s2.2,1,2.2,2.3c0,0.2,0,0.3,0,0.5H314.1z M317,617.5c-2,0-3-1.4-3.1-3.6h9.8c0.1-0.7,0.2-1.4,0.2-2.1
		c0-4.2-2.3-7.2-7-7.2c-5,0-8,3.1-8,8.7c0,5.2,3.3,8.2,8,8.2c3.2,0,6.2-1.2,7.1-4.4l-4.4-1.6C319.1,617.1,318.1,617.5,317,617.5
		 M298.6,621v-7.2h7.6v-4.3h-7.6V605h8.6v-4.5h-13.9v20.6L298.6,621L298.6,621z"/>
</g>
<title>03</title>
<g>
	<g>
		<path class="st0" d="M301.3,323.2v-16.1h6.1c4.2,0,5.9,1.9,5.9,5.6c0,3.5-2.1,5.6-5.5,5.6h-2.3v5L301.3,323.2L301.3,323.2z
			 M305.5,314.9h1.8c1.4,0,2-0.7,2-2.1c0-1.6-0.6-2.3-2-2.3h-1.8V314.9z"/>
		<path class="st0" d="M331.7,323.2h-11.1v-16.1h11.1v3.6h-7v2.7h6.2v3.4h-6.2v2.9h7V323.2z"/>
		<path class="st0" d="M338.6,315.2c0-5.4,2.9-8.4,7.8-8.4s7.8,3,7.8,8.4c0,5.4-2.9,8.4-7.8,8.4S338.6,320.6,338.6,315.2z
			 M342.8,315.2c0,3,1.1,4.8,3.5,4.8s3.5-1.8,3.5-4.8s-1.2-4.8-3.5-4.8S342.8,312.3,342.8,315.2z"/>
		<path class="st0" d="M361.6,323.2v-16.1h6.1c4.2,0,5.9,1.9,5.9,5.6c0,3.5-2.1,5.6-5.5,5.6h-2.3v5L361.6,323.2L361.6,323.2z
			 M365.8,314.9h1.8c1.4,0,2-0.7,2-2.1c0-1.6-0.6-2.3-2-2.3h-1.8V314.9z"/>
		<path class="st0" d="M385,307.1v12.6h6v3.6h-10.1v-16.1h4.1V307.1z"/>
		<path class="st0" d="M409.4,323.2h-11.1v-16.1h11.1v3.6h-7v2.7h6.2v3.4h-6.2v2.9h7V323.2z"/>
	</g>
	<g>
		<path class="st0" d="M295.8,355.4v-13.9h-4.7v-2.2H303v2.2h-4.7v13.9H295.8z"/>
		<path class="st0" d="M317.3,351h-6.6l-1.5,4.4h-2.6l5.9-16.1h3.3l5.8,16.1h-2.7L317.3,351z M310.4,336.9V335h7.2v1.9H310.4z
			 M311.5,348.9h5.1l-1.2-3.6c-0.9-2.5-1.3-4.2-1.3-4.2H314c0,0-0.4,1.7-1.3,4.2L311.5,348.9z"/>
		<path class="st0" d="M337.5,348.5c1,1.4,1.8,3.1,1.8,3.1h0.1c0,0-0.1-1.7-0.1-3.8v-8.5h2.5v16.1h-2.5l-6.4-9.2
			c-1-1.5-1.9-3.1-1.9-3.1h-0.1c0,0,0.2,1.7,0.2,3.8v8.5h-2.5v-16.1h2.6L337.5,348.5z"/>
		<path class="st0" d="M363.5,347.1v8.3h-2l-0.3-2.1c-0.7,1.6-2.6,2.4-4.4,2.4c-4.1,0-7-2.9-7-8.3s3-8.5,7.5-8.5
			c3.1,0,5,1.3,6.1,3.9L361,344c-0.7-1.9-2.1-2.9-3.8-2.9c-2.8,0-4.8,2.2-4.8,6.3c0,3.6,1.5,6.2,4.6,6.2c2.2,0,4-1,4-3.2v-1.2h-3.9
			V347h6.4L363.5,347.1L363.5,347.1z"/>
		<path class="st0" d="M380.6,351H374l-1.5,4.4h-2.6l5.9-16.1h3.3l5.8,16.1h-2.7L380.6,351z M374.7,348.9h5.2l-1.2-3.6
			c-0.9-2.5-1.3-4.2-1.3-4.2h-0.1c0,0-0.4,1.7-1.3,4.2L374.7,348.9z"/>
		<path class="st0" d="M393.2,355.4v-13.9h-4.7v-2.2h11.9v2.2h-4.7v13.9H393.2z"/>
		<path class="st0" d="M414.7,351h-6.6l-1.5,4.4H404l5.9-16.1h3.3l5.8,16.1h-2.7L414.7,351z M408.8,348.9h5.2l-1.2-3.6
			c-0.9-2.5-1.3-4.2-1.3-4.2h-0.1c0,0-0.4,1.7-1.3,4.2L408.8,348.9z"/>
	</g>
</g>
<g>
	<g>
		<path class="st0" d="M308.1,950.1V934h6.1c4.2,0,5.9,1.9,5.9,5.6c0,3.5-2.1,5.6-5.5,5.6h-2.3v5L308.1,950.1L308.1,950.1z
			 M312.2,941.8h1.8c1.4,0,2-0.7,2-2.1c0-1.6-0.6-2.3-2-2.3h-1.8V941.8z"/>
		<path class="st0" d="M331.4,934v12.6h6v3.6h-10.1V934H331.4z"/>
		<path class="st0" d="M354.2,947.1h-5.9l-1,3H343l5.8-16.1h5l5.9,16.1h-4.4L354.2,947.1z M349.4,943.7h3.6l-0.4-1.2
			c-1-2.7-1.3-4.7-1.3-4.7h-0.1c0,0-0.4,2.1-1.3,4.7L349.4,943.7z"/>
		<path class="st0" d="M379.9,946.6c-1.5,2.5-3.4,3.8-7.1,3.8c-4.4,0-7.5-3.1-7.5-8.4s2.9-8.4,8-8.4c3.5,0,5.6,1.6,6.7,4.2l-4,1.9
			c-0.4-1.5-1.1-2.5-2.8-2.5c-2.3,0-3.7,1.8-3.7,4.8s1.3,4.7,3.8,4.7c1.3,0,2.4-0.7,3-2.2L379.9,946.6z"/>
		<path class="st0" d="M398,950.1h-11.1V934H398v3.6h-7v2.7h6.2v3.4H391v2.9h7V950.1z"/>
	</g>
	<g>
		<path class="st0" d="M305.8,976.2c0.6,2.5,0.9,4.4,0.9,4.4h0.1c0,0,0.2-1.9,0.8-4.3l2.5-10.1h2.5l-4.2,16.1H305l-2.5-9.5
			c-0.7-2.5-0.7-4.3-0.7-4.3h-0.1c0,0-0.1,1.8-0.7,4.3l-2.4,9.5H295l-4.2-16.1h2.7l2.5,10.1c0.6,2.5,0.8,4.4,0.8,4.4h0.1
			c0,0,0.2-1.9,0.8-4.4l2.6-10.1h2.9L305.8,976.2z"/>
		<path class="st0" d="M319.8,982.3v-16.1h2.5v6.8h7.7v-6.8h2.5v16.1H330v-7.1h-7.7v7.1H319.8z"/>
		<path class="st0" d="M351.3,982.3h-9.9v-16.1h9.9v2.2h-7.4v4.8h6.6v2.2h-6.6v4.8h7.4V982.3z"/>
		<path class="st0" d="M368.3,975.4c1,1.4,1.8,3.1,1.8,3.1h0.1c0,0-0.1-1.7-0.1-3.8v-8.5h2.5v16.1h-2.5l-6.4-9.2
			c-1-1.5-1.9-3.1-1.9-3.1h-0.1c0,0,0.2,1.7,0.2,3.8v8.5h-2.5v-16.1h2.6L368.3,975.4z"/>
		<path class="st0" d="M393.5,966.1v10.8c0,4.2-3.1,5.6-6.2,5.6c-3.2,0-6.2-1.4-6.2-5.6v-10.8h2.5v10.2c0,2.9,1.3,4.2,3.7,4.2
			c2.3,0,3.7-1.3,3.7-4.1v-10.2L393.5,966.1L393.5,966.1z"/>
		<path class="st0" d="M410.4,977.9h-6.6l-1.5,4.4h-2.6l5.9-16.1h3.3l5.8,16.1H412L410.4,977.9z M404.5,975.8h5.2l-1.2-3.6
			c-0.9-2.5-1.3-4.2-1.3-4.2H407c0,0-0.4,1.7-1.3,4.2L404.5,975.8z"/>
	</g>
</g>
</svg>
