<?xml version="1.0" encoding="utf-8"?>
<!-- Generator: Adobe Illustrator 22.1.0, SVG Export Plug-In . SVG Version: 6.00 Build 0)  -->
<svg version="1.1" id="Layer_1" xmlns="http://www.w3.org/2000/svg" xmlns:xlink="http://www.w3.org/1999/xlink" x="0px" y="0px"
	 width="750px" height="1331.7px" viewBox="0 0 750 1331.7" style="enable-background:new 0 0 750 1331.7;" xml:space="preserve">
<style type="text/css">
	.st0{fill:#FFFFFF;}
</style>
<title>04</title>
<g>
	<path class="st0" d="M321.7,984.2c0,1.1,0.8,1.9,1.9,1.9s1.9-0.9,1.9-1.9c0-1.1-0.8-1.9-1.9-1.9S321.7,983.1,321.7,984.2
		 M309.5,983.2c0.4,2.2,2,3,4.8,3c2.7,0,4.8-1,4.8-3.6c0-2.1-1.2-3.2-3.4-3.7l-1.7-0.4c-1.1-0.3-1.5-0.7-1.5-1.5
		c0-0.9,0.7-1.4,1.8-1.4c1.2,0,1.9,0.5,2,1.6l2.6-0.3c-0.2-2.3-1.8-3.3-4.4-3.3c-2.3,0-4.6,0.9-4.6,3.7c0,1.8,0.9,2.9,3,3.4l1.8,0.4
		c1.3,0.3,1.8,0.8,1.8,1.7c0,1-0.9,1.4-2.1,1.4c-1.3,0-2.3-0.6-2.5-1.9L309.5,983.2z M300.1,978.7c0.2-1.8,1.2-2.9,2.8-2.9
		c1.5,0,2.4,1.1,2.4,2.5c0,0.2,0,0.3,0,0.5L300.1,978.7L300.1,978.7z M303,984.1c-1.9,0-2.9-1.5-3-3.6h7.6c0.1-0.4,0.2-1,0.2-1.6
		c0-3-1.7-5.2-4.8-5.2c-3.4,0-5.6,2.4-5.6,6.4c0,3.9,2.2,6.1,5.5,6.1c2.3,0,4.3-0.8,4.9-3.3l-2.4-0.7
		C305.1,983.7,304.2,984.1,303,984.1 M286,983.2c0.4,2.2,2,3,4.8,3c2.7,0,4.8-1,4.8-3.6c0-2.1-1.2-3.2-3.4-3.7l-1.7-0.4
		c-1.1-0.3-1.5-0.7-1.5-1.5c0-0.9,0.7-1.4,1.8-1.4c1.2,0,1.9,0.5,2,1.6l2.6-0.3c-0.2-2.3-1.8-3.3-4.4-3.3c-2.3,0-4.6,0.9-4.6,3.7
		c0,1.8,0.9,2.9,3,3.4l1.8,0.4c1.3,0.3,1.8,0.8,1.8,1.7c0,1-0.9,1.4-2.1,1.4c-1.3,0-2.3-0.6-2.5-1.9L286,983.2z M276,974h-2.2v12
		h2.7v-6.7c0-2.5,1.3-3.2,2.6-3.2c1.4,0,1.9,0.9,1.9,2.3v7.6h2.7v-8.5c0-2.6-1.7-3.7-3.6-3.7c-1.8,0-3.2,0.8-3.8,2.6L276,974z
		 M263.2,978.7c0.2-1.8,1.2-2.9,2.8-2.9c1.5,0,2.4,1.1,2.4,2.5c0,0.2,0,0.3,0,0.5L263.2,978.7L263.2,978.7z M266.1,984.1
		c-1.9,0-2.9-1.5-3-3.6h7.6c0.1-0.4,0.2-1,0.2-1.6c0-3-1.7-5.2-4.8-5.2c-3.4,0-5.6,2.4-5.6,6.4c0,3.9,2.2,6.1,5.5,6.1
		c2.3,0,4.3-0.8,4.9-3.3l-2.4-0.7C268.2,983.7,267.3,984.1,266.1,984.1 M249.1,983.2c0.4,2.2,2,3,4.8,3c2.7,0,4.8-1,4.8-3.6
		c0-2.1-1.2-3.2-3.4-3.7l-1.7-0.4c-1.1-0.3-1.5-0.7-1.5-1.5c0-0.9,0.7-1.4,1.8-1.4c1.2,0,1.9,0.5,2,1.6l2.6-0.3
		c-0.2-2.3-1.8-3.3-4.4-3.3c-2.3,0-4.6,0.9-4.6,3.7c0,1.8,0.9,2.9,3,3.4l1.8,0.4c1.3,0.3,1.8,0.8,1.8,1.7c0,1-0.9,1.4-2.1,1.4
		c-1.3,0-2.3-0.6-2.5-1.9L249.1,983.2z M234,978.7c0.2-1.8,1.2-2.9,2.8-2.9c1.5,0,2.4,1.1,2.4,2.5c0,0.2,0,0.3,0,0.5L234,978.7
		L234,978.7z M236.9,984.1c-1.9,0-2.9-1.5-3-3.6h7.6c0.1-0.4,0.2-1,0.2-1.6c0-3-1.7-5.2-4.8-5.2c-3.4,0-5.6,2.4-5.6,6.4
		c0,3.9,2.2,6.1,5.5,6.1c2.3,0,4.3-0.8,4.9-3.3l-2.4-0.7C239,983.7,238.1,984.1,236.9,984.1 M221.5,968.7h-2.7V986h2.7v-6.8
		c0-2.4,1.3-3.2,2.6-3.2c1.4,0,1.9,0.9,1.9,2.3v7.6h2.7v-8.5c0-2.6-1.7-3.7-3.6-3.7c-1.8,0-3.1,0.8-3.6,2.6L221.5,968.7L221.5,968.7
		z M216.1,983.3c-0.7,0.5-1.2,0.7-2,0.7c-1,0-1.5-0.5-1.5-1.8v-6h3.6V974h-3.5v-2.9l-2.7,0.3v2.5h-1.7v2.1h1.7v6.6
		c0,2.4,1.4,3.5,3.6,3.5c1.2,0,2.3-0.2,3.2-0.7L216.1,983.3z"/>
	<path class="st0" d="M532.4,950c0.4,2.2,2,3,4.8,3c2.7,0,4.8-1,4.8-3.6c0-2.1-1.2-3.2-3.4-3.7l-1.7-0.4c-1.1-0.3-1.5-0.7-1.5-1.5
		c0-0.9,0.7-1.4,1.8-1.4c1.2,0,1.9,0.5,2,1.6l2.6-0.3c-0.2-2.3-1.8-3.3-4.4-3.3c-2.3,0-4.6,0.9-4.6,3.7c0,1.8,0.9,2.9,3,3.4l1.8,0.4
		c1.3,0.3,1.8,0.8,1.8,1.7c0,1-0.9,1.4-2.1,1.4c-1.3,0-2.3-0.6-2.5-1.9L532.4,950z M523.1,945.5c0.2-1.8,1.2-2.9,2.8-2.9
		c1.5,0,2.4,1.1,2.4,2.5c0,0.2,0,0.3,0,0.5L523.1,945.5L523.1,945.5z M526,950.9c-1.9,0-2.9-1.5-3-3.6h7.6c0.1-0.4,0.2-1,0.2-1.6
		c0-3-1.7-5.2-4.8-5.2c-3.4,0-5.6,2.4-5.6,6.4c0,3.9,2.2,6.1,5.5,6.1c2.3,0,4.3-0.8,4.9-3.3l-2.4-0.7
		C528,950.5,527.1,950.9,526,950.9 M518.6,950c-0.7,0.5-1.2,0.7-2,0.7c-1,0-1.5-0.5-1.5-1.8v-6h3.6v-2.1h-3.5v-2.9l-2.7,0.3v2.5
		h-1.7v2.1h1.7v6.6c0,2.4,1.4,3.5,3.6,3.5c1.2,0,2.3-0.2,3.2-0.7L518.6,950z M505.9,952.7h2.7v-11.9h-2.7V952.7z M505.5,937
		c0,1,0.8,1.7,1.7,1.7c1,0,1.8-0.7,1.8-1.7c0-1.1-0.8-1.7-1.8-1.7C506.3,935.3,505.5,936,505.5,937 M494.7,940.8h-2.2v11.9h2.7V946
		c0-2.5,1.3-3.2,2.6-3.2c1.4,0,1.9,0.9,1.9,2.3v7.6h2.7v-8.5c0-2.6-1.7-3.7-3.6-3.7c-1.8,0-3.2,0.8-3.8,2.6L494.7,940.8z
		 M481.8,944.7c0-1.5,0.8-2.3,2.3-2.3c1.4,0,2.4,0.7,2.4,2.3c0,1.5-0.9,2.3-2.4,2.3C482.6,947,481.8,946.1,481.8,944.7 M480.8,954.7
		c0-1.1,0.9-1.6,2.3-1.6h2.7c1.3,0,1.8,0.5,1.8,1.4c0,1.3-1.4,1.8-3.8,1.8C482,956.3,480.8,955.9,480.8,954.7 M484,940.5
		c-3,0-5,1.5-5,4.2c0,1.8,0.9,2.9,2.4,3.6c-1.3,0.4-1.9,1.2-1.9,2.2s0.6,1.8,1.8,1.9c-2,0.2-3.1,1.1-3.1,2.6c0,2.4,2.6,3.1,5.3,3.1
		c3.2,0,6.6-0.9,6.6-4.1c0-2.1-1.5-3.4-4.2-3.4h-3.1c-0.7,0-1.2-0.3-1.2-0.9c0-0.5,0.2-0.9,0.7-1.2c0.3,0.1,0.9,0.2,1.5,0.2
		c2.8,0,5.1-1.3,5.1-4.1c0-0.9-0.2-1.6-0.5-2.2c1-0.2,1.9-1,2.1-2.2l-2.2-0.8c-0.2,0.9-0.4,1.4-0.9,1.8
		C486.6,940.8,485.4,940.5,484,940.5 M473.5,952.7h2.7v-11.9h-2.7V952.7z M473.1,937c0,1,0.8,1.7,1.7,1.7c1,0,1.8-0.7,1.8-1.7
		c0-1.1-0.8-1.7-1.8-1.7C473.9,935.3,473.1,936,473.1,937 M461.5,942.4c-0.3-1.1-1.6-1.9-3.1-1.9c-3.4,0-5.3,2.4-5.3,6.5
		c0,4,2.2,6,4.7,6c1.7,0,3.2-0.6,3.8-2.4l0.3,2.1h2.4v-17.3h-2.7L461.5,942.4L461.5,942.4z M461.5,947.9c0,2-1.5,3-2.8,3
		c-1.8,0-3-1.4-3-4c0-3.2,1.4-4.3,3-4.3c1.3,0,2.7,0.8,2.7,2.8L461.5,947.9L461.5,947.9z M442.6,940.8h-2.2v11.9h2.7V946
		c0-2.5,1.3-3.2,2.6-3.2c1.4,0,1.9,0.9,1.9,2.3v7.6h2.7v-8.5c0-2.6-1.7-3.7-3.6-3.7c-1.8,0-3.2,0.8-3.8,2.6L442.6,940.8z
		 M436.5,944.3c0-2.7-1.9-3.8-4.4-3.8c-2.4,0-4.6,1-4.8,3.5l2.6,0.4c0.1-1.2,0.8-1.9,1.9-1.9c1.2,0,1.9,0.6,1.9,1.9v1.3
		c-4.8-0.2-6.9,1.3-6.9,3.9c0,2,1.4,3.3,3.5,3.3c1.6,0,2.9-0.5,3.5-2c0.3,1.3,1.2,1.9,2.6,1.9c0.6,0,1.1-0.1,1.5-0.3v-2
		c-0.2,0.1-0.4,0.1-0.7,0.1c-0.5,0-0.9-0.2-0.9-1.1v-5.2H436.5z M433.8,949.1c0,1.3-1.3,2-2.5,2c-1.1,0-1.7-0.7-1.7-1.6
		c0-1.3,1.2-2,4.2-2V949.1z M411.6,945.5c0.2-1.8,1.2-2.9,2.8-2.9c1.5,0,2.4,1.1,2.4,2.5c0,0.2,0,0.3,0,0.5L411.6,945.5L411.6,945.5
		z M414.5,950.9c-1.9,0-2.9-1.5-3-3.6h7.6c0.1-0.4,0.2-1,0.2-1.6c0-3-1.7-5.2-4.8-5.2c-3.4,0-5.6,2.4-5.6,6.4c0,3.9,2.2,6.1,5.5,6.1
		c2.3,0,4.3-0.8,4.9-3.3l-2.4-0.7C416.6,950.5,415.7,950.9,414.5,950.9 M400.7,952.7h3.1l4.2-11.9h-2.8l-1.9,6.2
		c-0.7,2.1-0.9,3.8-0.9,3.8h-0.1c0,0-0.2-1.7-0.9-3.8l-1.9-6.2h-2.9L400.7,952.7z M391.8,952.7h2.7v-11.9h-2.7V952.7z M391.5,937
		c0,1,0.8,1.7,1.7,1.7c1,0,1.8-0.7,1.8-1.7c0-1.1-0.8-1.7-1.8-1.7S391.5,936,391.5,937 M389.3,950.5c-0.3,0.1-0.5,0.1-0.9,0.1
		c-0.6,0-1.1-0.3-1.1-1v-14.1h-2.7v14.7c0,1.9,1.3,2.7,2.9,2.7c0.5,0,1-0.1,1.6-0.2L389.3,950.5z M381,944.3c0-2.7-1.9-3.8-4.4-3.8
		c-2.4,0-4.6,1-4.8,3.5l2.6,0.4c0.1-1.2,0.8-1.9,1.9-1.9c1.2,0,1.9,0.6,1.9,1.9v1.3c-4.8-0.2-6.9,1.3-6.9,3.9c0,2,1.4,3.3,3.5,3.3
		c1.6,0,2.9-0.5,3.5-2c0.3,1.3,1.2,1.9,2.6,1.9c0.6,0,1.1-0.1,1.5-0.3v-2c-0.2,0.1-0.4,0.1-0.7,0.1c-0.5,0-0.9-0.2-0.9-1.1v-5.2H381
		z M378.3,949.1c0,1.3-1.3,2-2.5,2c-1.1,0-1.7-0.7-1.7-1.6c0-1.3,1.2-2,4.2-2V949.1z M354.4,950c0.4,2.2,2,3,4.8,3
		c2.7,0,4.8-1,4.8-3.6c0-2.1-1.2-3.2-3.4-3.7l-1.7-0.4c-1.1-0.3-1.5-0.7-1.5-1.5c0-0.9,0.7-1.4,1.8-1.4c1.2,0,1.9,0.5,2,1.6l2.6-0.3
		c-0.2-2.3-1.8-3.3-4.4-3.3c-2.3,0-4.6,0.9-4.6,3.7c0,1.8,0.9,2.9,3,3.4l1.8,0.4c1.3,0.3,1.8,0.8,1.8,1.7c0,1-0.9,1.4-2.1,1.4
		c-1.3,0-2.3-0.6-2.5-1.9L354.4,950z M345,945.5c0.2-1.8,1.2-2.9,2.8-2.9c1.5,0,2.4,1.1,2.4,2.5c0,0.2,0,0.3,0,0.5L345,945.5
		L345,945.5z M347.9,950.9c-1.9,0-2.9-1.5-3-3.6h7.6c0.1-0.4,0.2-1,0.2-1.6c0-3-1.7-5.2-4.8-5.2c-3.4,0-5.6,2.4-5.6,6.4
		c0,3.9,2.2,6.1,5.5,6.1c2.3,0,4.3-0.8,4.9-3.3l-2.4-0.7C350,950.5,349.1,950.9,347.9,950.9 M332.4,943.1c-0.3-1.9-1.6-2.6-3.2-2.6
		s-3.1,0.7-3.7,2.6l-0.3-2.3H323v11.9h2.7V946c0-2.3,1.2-3.2,2.5-3.2s1.9,0.9,1.9,2.3v7.6h2.7V946c0-2.3,1.2-3.2,2.5-3.2
		s1.8,0.9,1.8,2.3v7.6h2.7v-8.6c0-2.6-1.5-3.6-3.5-3.6C334.5,940.5,333,941.3,332.4,943.1 M314.6,942.7c1.9,0,2.9,1.3,2.9,4
		c0,2.8-1,4.2-2.9,4.2s-2.9-1.4-2.9-4.2C311.7,944,312.7,942.7,314.6,942.7 M314.6,953c3.4,0,5.6-2.3,5.6-6.3c0-4.1-2.2-6.2-5.6-6.2
		s-5.6,2.1-5.6,6.2C309,950.8,311.2,953,314.6,953 M305,949c-0.4,1.4-1.2,1.9-2.3,1.9c-1.8,0-3-1.7-3-4.1s1-4.1,2.9-4.1
		c1.3,0,2,0.7,2.2,2.2l2.4-0.5c-0.2-2.4-1.9-3.8-4.5-3.8c-3.4,0-5.6,2.4-5.6,6.3c0,4,2.2,6.2,5.4,6.2c2.4,0,4.4-1,4.8-3.4L305,949z
		 M281.7,940.8h-3l4.4,12.6c-0.6,1.8-1.3,2.4-2.5,2.4c-0.6,0-1.1-0.1-1.6-0.4l-0.3,2.4c0.6,0.2,1.3,0.3,1.9,0.3c2.2,0,3.8-0.8,5-4.4
		l4.5-12.9h-2.8l-1.9,6.2c-0.7,2.3-0.9,3.8-0.9,3.8h-0.1c0,0-0.2-1.4-0.9-3.8L281.7,940.8z M278.2,940.5c-2.8-0.2-4.2,1.4-4.7,3.5
		l-0.3-3.3h-2.3v11.9h2.7v-5.8c0-2.4,1.6-3.5,3.2-3.5c0.4,0,0.8,0.1,1.2,0.2L278.2,940.5z M260.4,945.5c0.2-1.8,1.2-2.9,2.8-2.9
		c1.5,0,2.4,1.1,2.4,2.5c0,0.2,0,0.3,0,0.5L260.4,945.5L260.4,945.5z M263.2,950.9c-1.9,0-2.9-1.5-3-3.6h7.6c0.1-0.4,0.2-1,0.2-1.6
		c0-3-1.7-5.2-4.8-5.2c-3.4,0-5.6,2.4-5.6,6.4c0,3.9,2.2,6.1,5.5,6.1c2.3,0,4.3-0.8,4.9-3.3l-2.4-0.7
		C265.3,950.5,264.4,950.9,263.2,950.9 M247.2,940.8H245v11.9h2.7V946c0-2.5,1.3-3.2,2.6-3.2c1.4,0,1.9,0.9,1.9,2.3v7.6h2.7v-8.5
		c0-2.6-1.7-3.7-3.6-3.7c-1.8,0-3.2,0.8-3.8,2.6L247.2,940.8z M234.5,945.5c0.2-1.8,1.2-2.9,2.8-2.9c1.5,0,2.4,1.1,2.4,2.5
		c0,0.2,0,0.3,0,0.5L234.5,945.5L234.5,945.5z M237.4,950.9c-1.9,0-2.9-1.5-3-3.6h7.6c0.1-0.4,0.2-1,0.2-1.6c0-3-1.7-5.2-4.8-5.2
		c-3.4,0-5.6,2.4-5.6,6.4c0,3.9,2.2,6.1,5.5,6.1c2.3,0,4.3-0.8,4.9-3.3l-2.4-0.7C239.5,950.5,238.6,950.9,237.4,950.9 M227.8,949
		c-0.4,1.4-1.2,1.9-2.3,1.9c-1.8,0-3-1.7-3-4.1s1-4.1,2.9-4.1c1.3,0,2,0.7,2.2,2.2l2.4-0.5c-0.2-2.4-1.9-3.8-4.5-3.8
		c-3.4,0-5.6,2.4-5.6,6.3c0,4,2.2,6.2,5.4,6.2c2.4,0,4.4-1,4.8-3.4L227.8,949z M208.5,950c0.4,2.2,2,3,4.8,3c2.7,0,4.8-1,4.8-3.6
		c0-2.1-1.2-3.2-3.4-3.7l-1.7-0.4c-1.1-0.3-1.5-0.7-1.5-1.5c0-0.9,0.7-1.4,1.8-1.4c1.2,0,1.9,0.5,2,1.6l2.6-0.3
		c-0.2-2.3-1.8-3.3-4.4-3.3c-2.3,0-4.6,0.9-4.6,3.7c0,1.8,0.9,2.9,3,3.4l1.8,0.4c1.3,0.3,1.8,0.8,1.8,1.7c0,1-0.9,1.4-2.1,1.4
		c-1.3,0-2.3-0.6-2.5-1.9L208.5,950z"/>
	<path class="st0" d="M497.2,912.3c0.2-1.8,1.2-2.9,2.8-2.9c1.5,0,2.4,1.1,2.4,2.5c0,0.2,0,0.3,0,0.5L497.2,912.3L497.2,912.3z
		 M500.1,917.7c-1.9,0-2.9-1.5-3-3.6h7.6c0.1-0.4,0.2-1,0.2-1.6c0-3-1.7-5.2-4.8-5.2c-3.4,0-5.6,2.4-5.6,6.4c0,3.9,2.2,6.1,5.5,6.1
		c2.3,0,4.3-0.8,4.9-3.3l-2.4-0.7C502.1,917.2,501.3,917.7,500.1,917.7 M484.6,902.2h-2.7v17.3h2.7v-6.8c0-2.4,1.3-3.2,2.6-3.2
		c1.4,0,1.9,0.9,1.9,2.3v7.6h2.7V911c0-2.6-1.7-3.7-3.6-3.7c-1.8,0-3.1,0.8-3.6,2.6V902.2z M479.2,916.8c-0.7,0.5-1.2,0.7-2,0.7
		c-1,0-1.5-0.5-1.5-1.8v-6h3.6v-2.1h-3.5v-2.9L473,905v2.5h-1.7v2.1h1.7v6.6c0,2.4,1.4,3.5,3.6,3.5c1.2,0,2.3-0.2,3.2-0.7
		L479.2,916.8z M456.5,912.3c0.2-1.8,1.2-2.9,2.8-2.9c1.5,0,2.4,1.1,2.4,2.5c0,0.2,0,0.3,0,0.5L456.5,912.3L456.5,912.3z
		 M459.4,917.7c-1.9,0-2.9-1.5-3-3.6h7.6c0.1-0.4,0.2-1,0.2-1.6c0-3-1.7-5.2-4.8-5.2c-3.4,0-5.6,2.4-5.6,6.4c0,3.9,2.2,6.1,5.5,6.1
		c2.3,0,4.3-0.8,4.9-3.3l-2.4-0.7C461.5,917.2,460.6,917.7,459.4,917.7 M452.9,907.3c-2.8-0.2-4.2,1.4-4.7,3.5l-0.3-3.3h-2.3v11.9
		h2.7v-5.8c0-2.4,1.6-3.5,3.2-3.5c0.4,0,0.8,0.1,1.2,0.2L452.9,907.3z M435.1,912.3c0.2-1.8,1.2-2.9,2.8-2.9c1.5,0,2.4,1.1,2.4,2.5
		c0,0.2,0,0.3,0,0.5L435.1,912.3L435.1,912.3z M438,917.7c-1.9,0-2.9-1.5-3-3.6h7.6c0.1-0.4,0.2-1,0.2-1.6c0-3-1.7-5.2-4.8-5.2
		c-3.4,0-5.6,2.4-5.6,6.4c0,3.9,2.2,6.1,5.5,6.1c2.3,0,4.3-0.8,4.9-3.3l-2.4-0.7C440,917.2,439.2,917.7,438,917.7 M422.5,902.2h-2.7
		v17.3h2.7v-6.8c0-2.4,1.3-3.2,2.6-3.2c1.4,0,1.9,0.9,1.9,2.3v7.6h2.7V911c0-2.6-1.7-3.7-3.6-3.7c-1.8,0-3.1,0.8-3.6,2.6V902.2z
		 M408.8,904.3h-3.2l-2.3,9.1c-0.5,2.3-0.7,4.2-0.7,4.2h-0.1c0,0-0.2-1.9-0.8-4.2l-2.2-9.1h-2.9l3.7,15.2h3.9l2.1-8.5
		c0.6-2.3,0.7-4.2,0.7-4.2h0.1c0,0,0.1,1.9,0.6,4.2l2.1,8.5h4l3.7-15.2h-2.8l-2.2,9.2c-0.5,2.2-0.7,4.2-0.7,4.2h-0.1
		c0,0-0.2-1.9-0.8-4.2L408.8,904.3z M384.9,917.8c0,1.1,0.8,1.9,1.9,1.9s1.9-0.9,1.9-1.9c0-1.1-0.8-1.9-1.9-1.9
		C385.7,915.8,384.9,916.7,384.9,917.8 M381.7,916.8c-0.7,0.5-1.2,0.7-2,0.7c-1,0-1.5-0.5-1.5-1.8v-6h3.6v-2.1h-3.5v-2.9l-2.7,0.3
		v2.5h-1.7v2.1h1.7v6.6c0,2.4,1.4,3.5,3.6,3.5c1.2,0,2.3-0.2,3.2-0.7L381.7,916.8z M364,907.6h-2.2v11.9h2.7v-6.7
		c0-2.5,1.3-3.2,2.6-3.2c1.4,0,1.9,0.9,1.9,2.3v7.6h2.7V911c0-2.6-1.7-3.7-3.6-3.7c-1.8,0-3.2,0.8-3.8,2.6L364,907.6z M351.3,912.3
		c0.2-1.8,1.2-2.9,2.8-2.9c1.5,0,2.4,1.1,2.4,2.5c0,0.2,0,0.3,0,0.5L351.3,912.3L351.3,912.3z M354.2,917.7c-1.9,0-2.9-1.5-3-3.6
		h7.6c0.1-0.4,0.2-1,0.2-1.6c0-3-1.7-5.2-4.8-5.2c-3.4,0-5.6,2.4-5.6,6.4c0,3.9,2.2,6.1,5.5,6.1c2.3,0,4.3-0.8,4.9-3.3l-2.4-0.7
		C356.3,917.2,355.4,917.7,354.2,917.7 M338.7,909.9c-0.3-1.9-1.6-2.6-3.2-2.6s-3.1,0.7-3.7,2.6l-0.3-2.3h-2.2v11.9h2.7v-6.7
		c0-2.3,1.2-3.2,2.5-3.2s1.9,0.9,1.9,2.3v7.6h2.7v-6.8c0-2.3,1.2-3.2,2.5-3.2s1.8,0.9,1.8,2.3v7.6h2.7v-8.6c0-2.6-1.5-3.6-3.5-3.6
		C340.8,907.3,339.3,908,338.7,909.9 M320.9,909.5c1.9,0,2.9,1.3,2.9,4c0,2.8-1,4.2-2.9,4.2s-2.9-1.4-2.9-4.2
		C318,910.8,319,909.5,320.9,909.5 M320.9,919.8c3.4,0,5.6-2.3,5.6-6.3c0-4.1-2.2-6.2-5.6-6.2s-5.6,2.1-5.6,6.2
		C315.3,917.5,317.5,919.8,320.9,919.8 M305.4,909.9c-0.3-1.9-1.6-2.6-3.2-2.6s-3.1,0.7-3.7,2.6l-0.3-2.3H296v11.9h2.7v-6.7
		c0-2.3,1.2-3.2,2.5-3.2s1.9,0.9,1.9,2.3v7.6h2.7v-6.8c0-2.3,1.2-3.2,2.5-3.2s1.8,0.9,1.8,2.3v7.6h2.7v-8.6c0-2.6-1.5-3.6-3.5-3.6
		C307.5,907.3,306,908,305.4,909.9 M279.7,912.3c0.2-1.8,1.2-2.9,2.8-2.9c1.5,0,2.4,1.1,2.4,2.5c0,0.2,0,0.3,0,0.5L279.7,912.3
		L279.7,912.3z M282.6,917.7c-1.9,0-2.9-1.5-3-3.6h7.6c0.1-0.4,0.2-1,0.2-1.6c0-3-1.7-5.2-4.8-5.2c-3.4,0-5.6,2.4-5.6,6.4
		c0,3.9,2.2,6.1,5.5,6.1c2.3,0,4.3-0.8,4.9-3.3l-2.4-0.7C284.6,917.2,283.8,917.7,282.6,917.7 M267.1,902.2h-2.7v17.3h2.7v-6.8
		c0-2.4,1.3-3.2,2.6-3.2c1.4,0,1.9,0.9,1.9,2.3v7.6h2.7V911c0-2.6-1.7-3.7-3.6-3.7c-1.8,0-3.1,0.8-3.6,2.6V902.2z M261.7,916.8
		c-0.7,0.5-1.2,0.7-2,0.7c-1,0-1.5-0.5-1.5-1.8v-6h3.6v-2.1h-3.5v-2.9l-2.7,0.3v2.5h-1.7v2.1h1.7v6.6c0,2.4,1.4,3.5,3.6,3.5
		c1.2,0,2.3-0.2,3.2-0.7L261.7,916.8z M243.3,909.2c-0.3-1.1-1.6-1.9-3.1-1.9c-3.4,0-5.3,2.4-5.3,6.5c0,4,2.2,6,4.7,6
		c1.7,0,3.2-0.6,3.8-2.4l0.3,2.1h2.4v-17.3h-2.7L243.3,909.2L243.3,909.2z M243.3,914.7c0,2-1.5,3-2.8,3c-1.8,0-3-1.4-3-4
		c0-3.2,1.4-4.3,3-4.3c1.3,0,2.7,0.8,2.7,2.8v2.5H243.3z M224.4,907.6h-2.2v11.9h2.7v-6.7c0-2.5,1.3-3.2,2.6-3.2
		c1.4,0,1.9,0.9,1.9,2.3v7.6h2.7V911c0-2.6-1.7-3.7-3.6-3.7c-1.8,0-3.2,0.8-3.8,2.6L224.4,907.6z M218.3,911.1
		c0-2.7-1.9-3.8-4.4-3.8c-2.4,0-4.6,1-4.8,3.5l2.6,0.4c0.1-1.2,0.8-1.9,1.9-1.9s1.9,0.6,1.9,1.9v1.3c-4.8-0.2-6.9,1.3-6.9,3.9
		c0,2,1.4,3.3,3.5,3.3c1.6,0,2.9-0.5,3.5-2c0.3,1.3,1.2,1.9,2.6,1.9c0.6,0,1.1-0.1,1.5-0.3v-2c-0.2,0.1-0.4,0.1-0.7,0.1
		c-0.5,0-0.9-0.2-0.9-1.1v-5.2H218.3z M215.6,915.9c0,1.3-1.3,2-2.5,2c-1.1,0-1.7-0.7-1.7-1.6c0-1.3,1.2-2,4.2-2V915.9z"/>
	<path class="st0" d="M498.4,883.6c-0.7,0.5-1.2,0.7-2,0.7c-1,0-1.5-0.5-1.5-1.8v-6h3.6v-2.1H495v-2.9l-2.7,0.3v2.5h-1.7v2.1h1.7
		v6.6c0,2.4,1.4,3.5,3.6,3.5c1.2,0,2.3-0.2,3.2-0.7L498.4,883.6z M480.8,874.3h-2.2v11.9h2.7v-6.7c0-2.5,1.3-3.2,2.6-3.2
		c1.4,0,1.9,0.9,1.9,2.3v7.6h2.7v-8.5c0-2.6-1.7-3.7-3.6-3.7c-1.8,0-3.2,0.8-3.8,2.6L480.8,874.3z M468,879.1
		c0.2-1.8,1.2-2.9,2.8-2.9c1.5,0,2.4,1.1,2.4,2.5c0,0.2,0,0.3,0,0.5L468,879.1L468,879.1z M470.9,884.5c-1.9,0-2.9-1.5-3-3.6h7.6
		c0.1-0.4,0.2-1,0.2-1.6c0-3-1.7-5.2-4.8-5.2c-3.4,0-5.6,2.4-5.6,6.4c0,3.9,2.2,6.1,5.5,6.1c2.3,0,4.3-0.8,4.9-3.3l-2.4-0.7
		C473,884,472.1,884.5,470.9,884.5 M455.4,876.7c-0.3-1.9-1.6-2.6-3.2-2.6c-1.7,0-3.1,0.7-3.7,2.6l-0.3-2.3H446v11.9h2.7v-6.7
		c0-2.3,1.2-3.2,2.5-3.2s1.9,0.9,1.9,2.3v7.6h2.7v-6.8c0-2.3,1.2-3.2,2.5-3.2s1.8,0.9,1.8,2.3v7.6h2.7v-8.6c0-2.6-1.5-3.6-3.5-3.6
		C457.5,874.1,456,874.8,455.4,876.7 M434.8,874.3h-2.2v11.9h2.7v-6.7c0-2.5,1.3-3.2,2.6-3.2c1.4,0,1.9,0.9,1.9,2.3v7.6h2.7v-8.5
		c0-2.6-1.7-3.7-3.6-3.7c-1.8,0-3.2,0.8-3.8,2.6L434.8,874.3z M424.2,876.2c1.9,0,2.9,1.3,2.9,4c0,2.8-1,4.2-2.9,4.2
		s-2.9-1.4-2.9-4.2C421.3,877.6,422.3,876.2,424.2,876.2 M424.2,886.6c3.4,0,5.6-2.3,5.6-6.3c0-4.1-2.2-6.2-5.6-6.2
		s-5.6,2.1-5.6,6.2C418.7,884.3,420.9,886.6,424.2,886.6 M417.7,874.1c-2.8-0.2-4.2,1.4-4.7,3.5l-0.3-3.3h-2.3v11.9h2.7v-5.8
		c0-2.4,1.6-3.5,3.2-3.5c0.4,0,0.8,0.1,1.2,0.2L417.7,874.1z M404.1,886.3h2.7v-11.9h-2.7V886.3z M403.7,870.6c0,1,0.8,1.7,1.7,1.7
		c1,0,1.8-0.7,1.8-1.7c0-1.1-0.8-1.7-1.8-1.7C404.5,868.9,403.7,869.5,403.7,870.6 M394.9,886.3h3.1l4.2-11.9h-2.8l-1.9,6.2
		c-0.7,2.1-0.9,3.8-0.9,3.8h-0.1c0,0-0.2-1.7-0.9-3.8l-1.9-6.2h-2.9L394.9,886.3z M381.3,874.3h-2.2v11.9h2.7v-6.7
		c0-2.5,1.3-3.2,2.6-3.2c1.4,0,1.9,0.9,1.9,2.3v7.6h2.7v-8.5c0-2.6-1.7-3.7-3.6-3.7c-1.8,0-3.2,0.8-3.8,2.6L381.3,874.3z
		 M368.6,879.1c0.2-1.8,1.2-2.9,2.8-2.9c1.5,0,2.4,1.1,2.4,2.5c0,0.2,0,0.3,0,0.5L368.6,879.1L368.6,879.1z M371.5,884.5
		c-1.9,0-2.9-1.5-3-3.6h7.6c0.1-0.4,0.2-1,0.2-1.6c0-3-1.7-5.2-4.8-5.2c-3.4,0-5.6,2.4-5.6,6.4c0,3.9,2.2,6.1,5.5,6.1
		c2.3,0,4.3-0.8,4.9-3.3l-2.4-0.7C373.6,884,372.7,884.5,371.5,884.5 M350.5,879.1c0.2-1.8,1.2-2.9,2.8-2.9c1.5,0,2.4,1.1,2.4,2.5
		c0,0.2,0,0.3,0,0.5L350.5,879.1L350.5,879.1z M353.4,884.5c-1.9,0-2.9-1.5-3-3.6h7.6c0.1-0.4,0.2-1,0.2-1.6c0-3-1.7-5.2-4.8-5.2
		c-3.4,0-5.6,2.4-5.6,6.4c0,3.9,2.2,6.1,5.5,6.1c2.3,0,4.3-0.8,4.9-3.3l-2.4-0.7C355.4,884,354.6,884.5,353.4,884.5 M337.9,869h-2.7
		v17.3h2.7v-6.8c0-2.4,1.3-3.2,2.6-3.2c1.4,0,1.9,0.9,1.9,2.3v7.6h2.7v-8.5c0-2.6-1.7-3.7-3.6-3.7c-1.8,0-3.1,0.8-3.6,2.6V869z
		 M332.5,883.6c-0.7,0.5-1.2,0.7-2,0.7c-1,0-1.5-0.5-1.5-1.8v-6h3.6v-2.1H329v-2.9l-2.7,0.3v2.5h-1.7v2.1h1.7v6.6
		c0,2.4,1.4,3.5,3.6,3.5c1.2,0,2.3-0.2,3.2-0.7L332.5,883.6z M309.2,874.3H307v11.9h2.7v-6.7c0-2.5,1.3-3.2,2.6-3.2
		c1.4,0,1.9,0.9,1.9,2.3v7.6h2.7v-8.5c0-2.6-1.7-3.7-3.6-3.7c-1.8,0-3.2,0.8-3.8,2.6L309.2,874.3z M300.7,886.3h2.7v-11.9h-2.7
		V886.3z M300.3,870.6c0,1,0.8,1.7,1.7,1.7c1,0,1.8-0.7,1.8-1.7c0-1.1-0.8-1.7-1.8-1.7C301.1,868.9,300.3,869.5,300.3,870.6
		 M287.6,876.5v9.8h2.7v-9.8h3v-2.1h-3v-1.1c0-1.6,0.7-2.1,1.8-2.1c0.8,0,1.3,0.2,2,0.5l0.4-2.3c-0.7-0.3-1.6-0.5-2.6-0.5
		c-2.3,0-4.3,1.1-4.3,4.3v1.2h-1.7v2.1L287.6,876.5L287.6,876.5z M284.8,884c-0.3,0.1-0.5,0.1-0.9,0.1c-0.6,0-1.1-0.3-1.1-1V869
		h-2.7v14.7c0,1.9,1.3,2.7,2.9,2.7c0.5,0,1-0.1,1.6-0.2L284.8,884z M269.8,879.1c0.2-1.8,1.2-2.9,2.8-2.9c1.5,0,2.4,1.1,2.4,2.5
		c0,0.2,0,0.3,0,0.5L269.8,879.1L269.8,879.1z M272.7,884.5c-1.9,0-2.9-1.5-3-3.6h7.6c0.1-0.4,0.2-1,0.2-1.6c0-3-1.7-5.2-4.8-5.2
		c-3.4,0-5.6,2.4-5.6,6.4c0,3.9,2.2,6.1,5.5,6.1c2.3,0,4.3-0.8,4.9-3.3l-2.4-0.7C274.8,884,273.9,884.5,272.7,884.5 M255.7,883.6
		c0.4,2.2,2,3,4.8,3c2.7,0,4.8-1,4.8-3.6c0-2.1-1.2-3.2-3.4-3.7l-1.7-0.4c-1.1-0.3-1.5-0.7-1.5-1.5c0-0.9,0.7-1.4,1.8-1.4
		c1.2,0,1.9,0.5,2,1.6l2.6-0.3c-0.2-2.3-1.8-3.3-4.4-3.3c-2.3,0-4.6,0.9-4.6,3.7c0,1.8,0.9,2.9,3,3.4l1.8,0.4
		c1.3,0.3,1.8,0.8,1.8,1.7c0,1-0.9,1.4-2.1,1.4c-1.3,0-2.3-0.6-2.5-1.9L255.7,883.6z M255.1,874.1c-2.8-0.2-4.2,1.4-4.7,3.5
		l-0.3-3.3h-2.3v11.9h2.7v-5.8c0-2.4,1.6-3.5,3.2-3.5c0.4,0,0.8,0.1,1.2,0.2L255.1,874.1z M241.8,886.3h2.3v-11.9h-2.7v6.8
		c0,2.3-1.3,3.4-2.6,3.4c-1.4,0-2-0.8-2-2.5v-7.8h-2.7v8.3c0,2.8,1.4,3.9,3.6,3.9c2,0,3.2-0.8,3.7-2.5L241.8,886.3z M226,876.2
		c1.9,0,2.9,1.3,2.9,4c0,2.8-1,4.2-2.9,4.2s-2.9-1.4-2.9-4.2C223.1,877.6,224.1,876.2,226,876.2 M226,886.6c3.4,0,5.6-2.3,5.6-6.3
		c0-4.1-2.2-6.2-5.6-6.2c-3.4,0-5.6,2.1-5.6,6.2C220.5,884.3,222.7,886.6,226,886.6 M211,874.3h-3l4.4,12.6
		c-0.6,1.8-1.3,2.4-2.5,2.4c-0.6,0-1.1-0.1-1.6-0.4l-0.3,2.4c0.6,0.2,1.3,0.3,1.9,0.3c2.2,0,3.8-0.8,5-4.4l4.5-12.9h-2.8l-1.9,6.2
		c-0.7,2.3-0.9,3.8-0.9,3.8h-0.1c0,0-0.2-1.4-0.9-3.8L211,874.3z"/>
	<path class="st0" d="M504.3,845.9c0.2-1.8,1.2-2.9,2.8-2.9c1.5,0,2.4,1.1,2.4,2.5c0,0.2,0,0.3,0,0.5L504.3,845.9L504.3,845.9z
		 M507.2,851.3c-1.9,0-2.9-1.5-3-3.6h7.6c0.1-0.4,0.2-1,0.2-1.6c0-3-1.7-5.2-4.8-5.2c-3.4,0-5.6,2.4-5.6,6.4c0,3.9,2.2,6.1,5.5,6.1
		c2.3,0,4.3-0.8,4.9-3.3l-2.4-0.7C509.2,850.8,508.4,851.3,507.2,851.3 M490.1,850.4c0.4,2.2,2,3,4.8,3c2.7,0,4.8-1,4.8-3.6
		c0-2.1-1.2-3.2-3.4-3.7l-1.7-0.4c-1.1-0.3-1.5-0.7-1.5-1.5c0-0.9,0.7-1.4,1.8-1.4c1.2,0,1.9,0.5,2,1.6l2.6-0.3
		c-0.2-2.3-1.8-3.3-4.4-3.3c-2.3,0-4.6,0.9-4.6,3.7c0,1.8,0.9,2.9,3,3.4l1.8,0.4c1.3,0.3,1.8,0.8,1.8,1.7c0,1-0.9,1.4-2.1,1.4
		c-1.3,0-2.3-0.6-2.5-1.9L490.1,850.4z M489.5,840.9c-2.8-0.2-4.2,1.4-4.7,3.5l-0.3-3.3h-2.3V853h2.7v-5.8c0-2.4,1.6-3.5,3.2-3.5
		c0.4,0,0.8,0.1,1.2,0.2L489.5,840.9z M471.6,845.9c0.2-1.8,1.2-2.9,2.8-2.9c1.5,0,2.4,1.1,2.4,2.5c0,0.2,0,0.3,0,0.5L471.6,845.9
		L471.6,845.9z M474.5,851.3c-1.9,0-2.9-1.5-3-3.6h7.6c0.1-0.4,0.2-1,0.2-1.6c0-3-1.7-5.2-4.8-5.2c-3.4,0-5.6,2.4-5.6,6.4
		c0,3.9,2.2,6.1,5.5,6.1c2.3,0,4.3-0.8,4.9-3.3l-2.4-0.7C476.6,850.8,475.7,851.3,474.5,851.3 M459,843.5c-0.3-1.9-1.6-2.6-3.2-2.6
		c-1.7,0-3.1,0.7-3.7,2.6l-0.3-2.3h-2.2v11.9h2.7v-6.7c0-2.3,1.2-3.2,2.5-3.2s1.9,0.9,1.9,2.3v7.6h2.7v-6.8c0-2.3,1.2-3.2,2.5-3.2
		s1.8,0.9,1.8,2.3v7.6h2.7v-8.6c0-2.6-1.5-3.6-3.5-3.6C461.1,840.8,459.6,841.6,459,843.5 M438.8,843.5c-0.3-1.9-1.6-2.6-3.2-2.6
		c-1.7,0-3.1,0.7-3.7,2.6l-0.3-2.3h-2.2v11.9h2.7v-6.7c0-2.3,1.2-3.2,2.5-3.2s1.9,0.9,1.9,2.3v7.6h2.7v-6.8c0-2.3,1.2-3.2,2.5-3.2
		s1.8,0.9,1.8,2.3v7.6h2.7v-8.6c0-2.6-1.5-3.6-3.5-3.6C440.9,840.8,439.4,841.6,438.8,843.5 M423.1,853.1h2.7v-11.9h-2.7V853.1z
		 M422.7,837.4c0,1,0.8,1.7,1.7,1.7c1,0,1.8-0.7,1.8-1.7c0-1.1-0.8-1.7-1.8-1.7C423.5,835.6,422.7,836.3,422.7,837.4 M409,843
		c1.9,0,2.9,1.3,2.9,4c0,2.8-1,4.2-2.9,4.2s-2.9-1.4-2.9-4.2C406.1,844.3,407.1,843,409,843 M409,853.4c3.4,0,5.6-2.3,5.6-6.3
		c0-4.1-2.2-6.2-5.6-6.2s-5.6,2.1-5.6,6.2C403.5,851.1,405.7,853.4,409,853.4 M401.7,850.4c-0.7,0.5-1.2,0.7-2,0.7
		c-1,0-1.5-0.5-1.5-1.8v-6h3.6v-2.1h-3.5v-2.9l-2.7,0.3v2.5h-1.7v2.1h1.7v6.6c0,2.4,1.4,3.5,3.6,3.5c1.2,0,2.3-0.2,3.2-0.7
		L401.7,850.4z M379,845.9c0.2-1.8,1.2-2.9,2.8-2.9c1.5,0,2.4,1.1,2.4,2.5c0,0.2,0,0.3,0,0.5L379,845.9L379,845.9z M381.9,851.3
		c-1.9,0-2.9-1.5-3-3.6h7.6c0.1-0.4,0.2-1,0.2-1.6c0-3-1.7-5.2-4.8-5.2c-3.4,0-5.6,2.4-5.6,6.4c0,3.9,2.2,6.1,5.5,6.1
		c2.3,0,4.3-0.8,4.9-3.3l-2.4-0.7C384,850.8,383.1,851.3,381.9,851.3 M369.8,843.2v9.8h2.7v-9.8h3v-2.1h-3V840
		c0-1.6,0.7-2.1,1.8-2.1c0.8,0,1.3,0.2,2,0.5l0.4-2.3c-0.7-0.3-1.6-0.5-2.6-0.5c-2.3,0-4.3,1.1-4.3,4.3v1.2H368v2.1H369.8z
		 M365.6,844.6c0-2.7-1.9-3.8-4.4-3.8c-2.4,0-4.6,1-4.8,3.5l2.6,0.4c0.1-1.2,0.8-1.9,1.9-1.9c1.2,0,1.9,0.6,1.9,1.9v1.3
		c-4.8-0.2-6.9,1.3-6.9,3.9c0,2,1.4,3.3,3.5,3.3c1.6,0,2.9-0.5,3.5-2c0.3,1.3,1.2,1.9,2.6,1.9c0.6,0,1.1-0.1,1.5-0.3v-2
		c-0.2,0.1-0.4,0.1-0.7,0.1c-0.5,0-0.9-0.2-0.9-1.1v-5.2H365.6z M362.9,849.4c0,1.3-1.3,2-2.5,2c-1.1,0-1.7-0.7-1.7-1.6
		c0-1.3,1.2-2,4.2-2V849.4z M344.5,850.4c0.4,2.2,2,3,4.8,3c2.7,0,4.8-1,4.8-3.6c0-2.1-1.2-3.2-3.4-3.7l-1.7-0.4
		c-1.1-0.3-1.5-0.7-1.5-1.5c0-0.9,0.7-1.4,1.8-1.4c1.2,0,1.9,0.5,2,1.6l2.6-0.3c-0.2-2.3-1.8-3.3-4.4-3.3c-2.3,0-4.6,0.9-4.6,3.7
		c0,1.8,0.9,2.9,3,3.4l1.8,0.4c1.3,0.3,1.8,0.8,1.8,1.7c0,1-0.9,1.4-2.1,1.4c-1.3,0-2.3-0.6-2.5-1.9L344.5,850.4z M333.7,842.7
		c-0.3-1.1-1.6-1.9-3.1-1.9c-3.4,0-5.3,2.4-5.3,6.5c0,4,2.2,6,4.7,6c1.7,0,3.2-0.6,3.8-2.4l0.3,2.1h2.4v-17.3h-2.7L333.7,842.7
		L333.7,842.7z M333.7,848.2c0,2-1.5,3-2.8,3c-1.8,0-3-1.4-3-4c0-3.2,1.4-4.3,3-4.3c1.3,0,2.7,0.8,2.7,2.8L333.7,848.2L333.7,848.2z
		 M314.8,841.1h-2.2V853h2.7v-6.7c0-2.5,1.3-3.2,2.6-3.2c1.4,0,1.9,0.9,1.9,2.3v7.6h2.7v-8.5c0-2.6-1.7-3.7-3.6-3.7
		c-1.8,0-3.2,0.8-3.8,2.6L314.8,841.1z M308.7,844.6c0-2.7-1.9-3.8-4.4-3.8c-2.4,0-4.6,1-4.8,3.5l2.6,0.4c0.1-1.2,0.8-1.9,1.9-1.9
		c1.2,0,1.9,0.6,1.9,1.9v1.3c-4.8-0.2-6.9,1.3-6.9,3.9c0,2,1.4,3.3,3.5,3.3c1.6,0,2.9-0.5,3.5-2c0.3,1.3,1.2,1.9,2.6,1.9
		c0.6,0,1.1-0.1,1.5-0.3v-2c-0.2,0.1-0.4,0.1-0.7,0.1c-0.5,0-0.9-0.2-0.9-1.1v-5.2H308.7z M306,849.4c0,1.3-1.3,2-2.5,2
		c-1.1,0-1.7-0.7-1.7-1.6c0-1.3,1.2-2,4.2-2V849.4z M283.9,841.1h-3l4.4,12.6c-0.6,1.8-1.3,2.4-2.5,2.4c-0.6,0-1.1-0.1-1.6-0.4
		l-0.3,2.4c0.6,0.2,1.3,0.3,1.9,0.3c2.2,0,3.8-0.8,5-4.4l4.5-12.9h-2.8l-1.9,6.2c-0.7,2.3-0.9,3.8-0.9,3.8h-0.1c0,0-0.2-1.4-0.9-3.8
		L283.9,841.1z M270.3,850.4c0.4,2.2,2,3,4.8,3c2.7,0,4.8-1,4.8-3.6c0-2.1-1.2-3.2-3.4-3.7l-1.7-0.4c-1.1-0.3-1.5-0.7-1.5-1.5
		c0-0.9,0.7-1.4,1.8-1.4c1.2,0,1.9,0.5,2,1.6l2.6-0.3c-0.2-2.3-1.8-3.3-4.4-3.3c-2.3,0-4.6,0.9-4.6,3.7c0,1.8,0.9,2.9,3,3.4l1.8,0.4
		c1.3,0.3,1.8,0.8,1.8,1.7c0,1-0.9,1.4-2.1,1.4c-1.3,0-2.3-0.6-2.5-1.9L270.3,850.4z M267.6,844.6c0-2.7-1.9-3.8-4.4-3.8
		c-2.4,0-4.6,1-4.8,3.5l2.6,0.4c0.1-1.2,0.8-1.9,1.9-1.9c1.2,0,1.9,0.6,1.9,1.9v1.3c-4.8-0.2-6.9,1.3-6.9,3.9c0,2,1.4,3.3,3.5,3.3
		c1.6,0,2.9-0.5,3.5-2c0.3,1.3,1.2,1.9,2.6,1.9c0.6,0,1.1-0.1,1.5-0.3v-2c-0.2,0.1-0.4,0.1-0.7,0.1c-0.5,0-0.9-0.2-0.9-1.1v-5.2
		H267.6z M264.9,849.4c0,1.3-1.3,2-2.5,2c-1.1,0-1.7-0.7-1.7-1.6c0-1.3,1.2-2,4.2-2V849.4z M248.4,845.9c0.2-1.8,1.2-2.9,2.8-2.9
		c1.5,0,2.4,1.1,2.4,2.5c0,0.2,0,0.3,0,0.5L248.4,845.9L248.4,845.9z M251.3,851.3c-1.9,0-2.9-1.5-3-3.6h7.6c0.1-0.4,0.2-1,0.2-1.6
		c0-3-1.7-5.2-4.8-5.2c-3.4,0-5.6,2.4-5.6,6.4c0,3.9,2.2,6.1,5.5,6.1c2.3,0,4.3-0.8,4.9-3.3l-2.4-0.7
		C253.3,850.8,252.4,851.3,251.3,851.3 M228.5,850.4c0.4,2.2,2,3,4.8,3c2.7,0,4.8-1,4.8-3.6c0-2.1-1.2-3.2-3.4-3.7l-1.7-0.4
		c-1.1-0.3-1.5-0.7-1.5-1.5c0-0.9,0.7-1.4,1.8-1.4c1.2,0,1.9,0.5,2,1.6l2.6-0.3c-0.2-2.3-1.8-3.3-4.4-3.3c-2.3,0-4.6,0.9-4.6,3.7
		c0,1.8,0.9,2.9,3,3.4l1.8,0.4c1.3,0.3,1.8,0.8,1.8,1.7c0,1-0.9,1.4-2.1,1.4c-1.3,0-2.3-0.6-2.5-1.9L228.5,850.4z M228.5,838
		c0-1.5-0.9-2.5-2.1-2.5c-1.1,0-1.9,0.6-1.9,1.7s0.9,1.8,2,1.6c0,1.2-0.9,1.8-2.2,1.9v1.2C226.8,841.9,228.5,840.7,228.5,838
		 M222.4,850.4c-0.7,0.5-1.2,0.7-2,0.7c-1,0-1.5-0.5-1.5-1.8v-6h3.6v-2.1H219v-2.9l-2.7,0.3v2.5h-1.7v2.1h1.7v6.6
		c0,2.4,1.4,3.5,3.6,3.5c1.2,0,2.3-0.2,3.2-0.7L222.4,850.4z M209.6,853.1h2.7v-11.9h-2.7V853.1z M209.2,837.4c0,1,0.8,1.7,1.7,1.7
		c1,0,1.8-0.7,1.8-1.7c0-1.1-0.8-1.7-1.8-1.7C210,835.6,209.2,836.3,209.2,837.4"/>
	<path class="st0" d="M491.3,812.6c0.2-1.8,1.2-2.9,2.8-2.9c1.5,0,2.4,1.1,2.4,2.5c0,0.2,0,0.3,0,0.5L491.3,812.6L491.3,812.6z
		 M494.2,818c-1.9,0-2.9-1.5-3-3.6h7.6c0.1-0.4,0.2-1,0.2-1.6c0-3-1.7-5.2-4.8-5.2c-3.4,0-5.6,2.4-5.6,6.4c0,3.9,2.2,6.1,5.5,6.1
		c2.3,0,4.3-0.8,4.9-3.3l-2.4-0.7C496.2,817.6,495.4,818,494.2,818 M487.7,807.6c-2.8-0.2-4.2,1.4-4.7,3.5l-0.3-3.3h-2.3v11.9h2.7
		V814c0-2.4,1.6-3.5,3.2-3.5c0.4,0,0.8,0.1,1.2,0.2L487.7,807.6z M469.8,812.6c0.2-1.8,1.2-2.9,2.8-2.9c1.5,0,2.4,1.1,2.4,2.5
		c0,0.2,0,0.3,0,0.5L469.8,812.6L469.8,812.6z M472.7,818c-1.9,0-2.9-1.5-3-3.6h7.6c0.1-0.4,0.2-1,0.2-1.6c0-3-1.7-5.2-4.8-5.2
		c-3.4,0-5.6,2.4-5.6,6.4c0,3.9,2.2,6.1,5.5,6.1c2.3,0,4.3-0.8,4.9-3.3l-2.4-0.7C474.8,817.6,473.9,818,472.7,818 M457.2,802.6h-2.7
		v17.3h2.7v-6.8c0-2.4,1.3-3.2,2.6-3.2c1.4,0,1.9,0.9,1.9,2.3v7.6h2.7v-8.5c0-2.6-1.7-3.7-3.6-3.7c-1.8,0-3.1,0.8-3.6,2.6V802.6z
		 M443.6,804.6h-3.2l-2.3,9.1c-0.5,2.3-0.7,4.2-0.7,4.2h-0.1c0,0-0.2-1.9-0.8-4.2l-2.2-9.1h-2.9l3.7,15.2h3.9l2.1-8.5
		c0.6-2.3,0.7-4.2,0.7-4.2h0.1c0,0,0.1,1.9,0.6,4.2l2.1,8.5h4l3.7-15.2h-2.8l-2.2,9.2c-0.5,2.2-0.7,4.2-0.7,4.2h-0.1
		c0,0-0.2-1.9-0.8-4.2L443.6,804.6z M419.7,818.1c0,1.1,0.8,1.9,1.9,1.9s1.9-0.9,1.9-1.9c0-1.1-0.8-1.9-1.9-1.9
		C420.5,816.2,419.7,817,419.7,818.1 M407.4,817.1c0.4,2.2,2,3,4.8,3c2.7,0,4.8-1,4.8-3.6c0-2.1-1.2-3.2-3.4-3.7l-1.7-0.4
		c-1.1-0.3-1.5-0.7-1.5-1.5c0-0.9,0.7-1.4,1.8-1.4c1.2,0,1.9,0.5,2,1.6l2.6-0.3c-0.2-2.3-1.8-3.3-4.4-3.3c-2.3,0-4.6,0.9-4.6,3.7
		c0,1.8,0.9,2.9,3,3.4l1.8,0.4c1.3,0.3,1.8,0.8,1.8,1.7c0,1-0.9,1.4-2.1,1.4c-1.3,0-2.3-0.6-2.5-1.9L407.4,817.1z M398,812.6
		c0.2-1.8,1.2-2.9,2.8-2.9c1.5,0,2.4,1.1,2.4,2.5c0,0.2,0,0.3,0,0.5L398,812.6L398,812.6z M400.9,818c-1.9,0-2.9-1.5-3-3.6h7.6
		c0.1-0.4,0.2-1,0.2-1.6c0-3-1.7-5.2-4.8-5.2c-3.4,0-5.6,2.4-5.6,6.4c0,3.9,2.2,6.1,5.5,6.1c2.3,0,4.3-0.8,4.9-3.3l-2.4-0.7
		C403,817.6,402.1,818,400.9,818 M391.3,816.1c-0.4,1.4-1.2,1.9-2.3,1.9c-1.8,0-3-1.7-3-4.1c0-2.5,1-4.1,2.9-4.1
		c1.3,0,2,0.7,2.2,2.2l2.4-0.5c-0.2-2.4-1.9-3.8-4.5-3.8c-3.4,0-5.6,2.4-5.6,6.3c0,4,2.2,6.2,5.4,6.2c2.4,0,4.4-1,4.8-3.4
		L391.3,816.1z M373,807.9h-2.2v11.9h2.7v-6.7c0-2.5,1.3-3.2,2.6-3.2c1.4,0,1.9,0.9,1.9,2.3v7.6h2.7v-8.5c0-2.6-1.7-3.7-3.6-3.7
		c-1.8,0-3.2,0.8-3.8,2.6L373,807.9z M360.3,812.6c0.2-1.8,1.2-2.9,2.8-2.9c1.5,0,2.4,1.1,2.4,2.5c0,0.2,0,0.3,0,0.5L360.3,812.6
		L360.3,812.6z M363.2,818c-1.9,0-2.9-1.5-3-3.6h7.6c0.1-0.4,0.2-1,0.2-1.6c0-3-1.7-5.2-4.8-5.2c-3.4,0-5.6,2.4-5.6,6.4
		c0,3.9,2.2,6.1,5.5,6.1c2.3,0,4.3-0.8,4.9-3.3l-2.4-0.7C365.2,817.6,364.4,818,363.2,818 M352.1,819.8h2.7v-11.9h-2.7V819.8z
		 M351.7,804.1c0,1,0.8,1.7,1.7,1.7c1,0,1.8-0.7,1.8-1.7c0-1.1-0.8-1.7-1.8-1.7C352.5,802.4,351.7,803.1,351.7,804.1 M349.9,807.6
		c-2.8-0.2-4.2,1.4-4.7,3.5l-0.3-3.3h-2.3v11.9h2.7V814c0-2.4,1.6-3.5,3.2-3.5c0.4,0,0.8,0.1,1.2,0.2L349.9,807.6z M332.1,812.6
		c0.2-1.8,1.2-2.9,2.8-2.9c1.5,0,2.4,1.1,2.4,2.5c0,0.2,0,0.3,0,0.5L332.1,812.6L332.1,812.6z M334.9,818c-1.9,0-2.9-1.5-3-3.6h7.6
		c0.1-0.4,0.2-1,0.2-1.6c0-3-1.7-5.2-4.8-5.2c-3.4,0-5.6,2.4-5.6,6.4c0,3.9,2.2,6.1,5.5,6.1c2.3,0,4.3-0.8,4.9-3.3l-2.4-0.7
		C337,817.6,336.1,818,334.9,818 M318.9,818.3c0.4,1,1.5,1.9,3.3,1.9c3.3,0,5.2-2.8,5.2-6.6s-1.8-6-4.7-6c-1.6,0-3.2,0.6-4,2.6
		l-0.3-2.3h-2.2v17.2h2.7V818.3z M318.8,813.1c0-2.1,1.4-3.3,2.9-3.3c1.7,0,2.8,1.3,2.8,4c0,2.9-1.4,4.3-3.1,4.3
		c-1.2,0-2.7-0.8-2.7-3v-2H318.8z M311.2,819.8h3l-3.9-6.1l3.7-5.9h-3l-1.3,2.2c-1,1.7-1,2.1-1,2.1h-0.1c0,0-0.1-0.5-1.1-2.2
		l-1.3-2.2h-3.1l3.7,5.9l-3.9,6h2.9l1.6-2.6c1-1.6,1-2,1-2h0.1c0,0,0,0.5,1,2L311.2,819.8z M294.2,812.6c0.2-1.8,1.2-2.9,2.8-2.9
		c1.5,0,2.4,1.1,2.4,2.5c0,0.2,0,0.3,0,0.5L294.2,812.6L294.2,812.6z M297.1,818c-1.9,0-2.9-1.5-3-3.6h7.6c0.1-0.4,0.2-1,0.2-1.6
		c0-3-1.7-5.2-4.8-5.2c-3.4,0-5.6,2.4-5.6,6.4c0,3.9,2.2,6.1,5.5,6.1c2.3,0,4.3-0.8,4.9-3.3l-2.4-0.7
		C299.1,817.6,298.3,818,297.1,818 M276.1,812.6c0.2-1.8,1.2-2.9,2.8-2.9c1.5,0,2.4,1.1,2.4,2.5c0,0.2,0,0.3,0,0.5L276.1,812.6
		L276.1,812.6z M279,818c-1.9,0-2.9-1.5-3-3.6h7.6c0.1-0.4,0.2-1,0.2-1.6c0-3-1.7-5.2-4.8-5.2c-3.4,0-5.6,2.4-5.6,6.4
		c0,3.9,2.2,6.1,5.5,6.1c2.3,0,4.3-0.8,4.9-3.3l-2.4-0.7C281,817.6,280.1,818,279,818 M261.9,817.1c0.4,2.2,2,3,4.8,3
		c2.7,0,4.8-1,4.8-3.6c0-2.1-1.2-3.2-3.4-3.7l-1.7-0.4c-1.1-0.3-1.5-0.7-1.5-1.5c0-0.9,0.7-1.4,1.8-1.4c1.2,0,1.9,0.5,2,1.6l2.6-0.3
		c-0.2-2.3-1.8-3.3-4.4-3.3c-2.3,0-4.6,0.9-4.6,3.7c0,1.8,0.9,2.9,3,3.4l1.8,0.4c1.3,0.3,1.8,0.8,1.8,1.7c0,1-0.9,1.4-2.1,1.4
		c-1.3,0-2.3-0.6-2.5-1.9L261.9,817.1z M261.3,807.6c-2.8-0.2-4.2,1.4-4.7,3.5l-0.3-3.3H254v11.9h2.7V814c0-2.4,1.6-3.5,3.2-3.5
		c0.4,0,0.8,0.1,1.2,0.2L261.3,807.6z M243.4,812.6c0.2-1.8,1.2-2.9,2.8-2.9c1.5,0,2.4,1.1,2.4,2.5c0,0.2,0,0.3,0,0.5L243.4,812.6
		L243.4,812.6z M246.3,818c-1.9,0-2.9-1.5-3-3.6h7.6c0.1-0.4,0.2-1,0.2-1.6c0-3-1.7-5.2-4.8-5.2c-3.4,0-5.6,2.4-5.6,6.4
		c0,3.9,2.2,6.1,5.5,6.1c2.3,0,4.3-0.8,4.9-3.3l-2.4-0.7C248.4,817.6,247.5,818,246.3,818 M232.4,819.8h3.1l4.2-11.9h-2.8l-1.9,6.2
		c-0.7,2.1-0.9,3.8-0.9,3.8H234c0,0-0.2-1.7-0.9-3.8l-1.9-6.2h-2.9L232.4,819.8z M223.6,819.8h2.7v-11.9h-2.7V819.8z M223.2,804.1
		c0,1,0.8,1.7,1.7,1.7c1,0,1.8-0.7,1.8-1.7c0-1.1-0.8-1.7-1.8-1.7C224,802.4,223.2,803.1,223.2,804.1 M217.3,809.5
		c-0.3-1.1-1.6-1.9-3.1-1.9c-3.4,0-5.3,2.4-5.3,6.5c0,4,2.2,6,4.7,6c1.7,0,3.2-0.6,3.8-2.4l0.3,2.1h2.4v-17.3h-2.7L217.3,809.5
		L217.3,809.5z M217.4,815c0,2-1.5,3-2.8,3c-1.8,0-3-1.4-3-4c0-3.2,1.4-4.3,3-4.3c1.3,0,2.7,0.8,2.7,2.8v2.5H217.4z"/>
	<path class="st0" d="M497.2,776.3c-0.3-1.1-1.6-1.9-3.1-1.9c-3.4,0-5.3,2.4-5.3,6.5c0,4,2.2,6,4.7,6c1.7,0,3.2-0.6,3.8-2.4l0.3,2.1
		h2.4v-17.3h-2.7L497.2,776.3L497.2,776.3z M497.2,781.8c0,2-1.5,3-2.8,3c-1.8,0-3-1.4-3-4c0-3.2,1.4-4.3,3-4.3
		c1.3,0,2.7,0.8,2.7,2.8L497.2,781.8L497.2,781.8z M478.3,774.7h-2.2v11.9h2.7v-6.7c0-2.5,1.3-3.2,2.6-3.2c1.4,0,1.9,0.9,1.9,2.3
		v7.6h2.7v-8.5c0-2.6-1.7-3.7-3.6-3.7c-1.8,0-3.2,0.8-3.8,2.6L478.3,774.7z M472.2,778.2c0-2.7-1.9-3.8-4.4-3.8
		c-2.4,0-4.6,1-4.8,3.5l2.6,0.4c0.1-1.2,0.8-1.9,1.9-1.9c1.2,0,1.9,0.6,1.9,1.9v1.3c-4.8-0.2-6.9,1.3-6.9,3.9c0,2,1.4,3.3,3.5,3.3
		c1.6,0,2.9-0.5,3.5-2c0.3,1.3,1.2,1.9,2.6,1.9c0.6,0,1.1-0.1,1.5-0.3v-2c-0.2,0.1-0.4,0.1-0.7,0.1c-0.5,0-0.9-0.2-0.9-1.1v-5.2
		H472.2z M469.5,783c0,1.3-1.3,2-2.5,2c-1.1,0-1.7-0.7-1.7-1.6c0-1.3,1.2-2,4.2-2V783z M447.1,769.4h-2.7v17.3h2.7v-6.8
		c0-2.4,1.3-3.2,2.6-3.2c1.4,0,1.9,0.9,1.9,2.3v7.6h2.7v-8.5c0-2.6-1.7-3.7-3.6-3.7c-1.8,0-3.1,0.8-3.6,2.6V769.4z M439.6,782.9
		c-0.4,1.4-1.2,1.9-2.3,1.9c-1.8,0-3-1.7-3-4.1c0-2.5,1-4.1,2.9-4.1c1.3,0,2,0.7,2.2,2.2l2.4-0.5c-0.2-2.4-1.9-3.8-4.5-3.8
		c-3.4,0-5.6,2.4-5.6,6.3s2.2,6.2,5.4,6.2c2.4,0,4.4-1,4.8-3.4L439.6,782.9z M426.2,786.6h2.7v-11.9h-2.7V786.6z M425.8,770.9
		c0,1,0.8,1.7,1.7,1.7c1,0,1.8-0.7,1.8-1.7c0-1.1-0.8-1.7-1.8-1.7C426.6,769.2,425.8,769.8,425.8,770.9 M424,774.4
		c-2.8-0.2-4.2,1.4-4.7,3.5l-0.3-3.3h-2.3v11.9h2.7v-5.8c0-2.4,1.6-3.5,3.2-3.5c0.4,0,0.8,0.1,1.2,0.2L424,774.4z M402.6,776.6
		c1.9,0,2.9,1.3,2.9,4c0,2.8-1,4.2-2.9,4.2s-2.9-1.4-2.9-4.2C399.7,777.9,400.7,776.6,402.6,776.6 M402.6,786.9
		c3.4,0,5.6-2.3,5.6-6.3c0-4.1-2.2-6.2-5.6-6.2s-5.6,2.1-5.6,6.2C397.1,784.7,399.3,786.9,402.6,786.9 M395.3,783.9
		c-0.7,0.5-1.2,0.7-2,0.7c-1,0-1.5-0.5-1.5-1.8v-6h3.6v-2.1h-3.5v-2.9l-2.7,0.3v2.5h-1.7v2.1h1.7v6.6c0,2.4,1.4,3.5,3.6,3.5
		c1.2,0,2.3-0.2,3.2-0.7L395.3,783.9z M371.8,785c0.4,1,1.5,1.9,3.3,1.9c3.3,0,5.2-2.8,5.2-6.6s-1.8-6-4.7-6c-1.6,0-3.2,0.6-4,2.6
		l-0.3-2.3h-2.2v17.2h2.7V785z M371.8,779.9c0-2.1,1.4-3.3,2.9-3.3c1.7,0,2.8,1.3,2.8,4c0,2.9-1.4,4.3-3.1,4.3c-1.2,0-2.7-0.8-2.7-3
		v-2H371.8z M363.2,786.6h2.3v-11.9h-2.7v6.8c0,2.3-1.3,3.4-2.6,3.4c-1.4,0-2-0.8-2-2.5v-7.8h-2.7v8.3c0,2.8,1.4,3.9,3.6,3.9
		c2,0,3.2-0.8,3.7-2.5L363.2,786.6z M344.2,786.6h2.3v-11.9h-2.7v6.8c0,2.3-1.3,3.4-2.6,3.4c-1.4,0-2-0.8-2-2.5v-7.8h-2.7v8.3
		c0,2.8,1.4,3.9,3.6,3.9c2,0,3.2-0.8,3.7-2.5L344.2,786.6z M328.4,776.6c1.9,0,2.9,1.3,2.9,4c0,2.8-1,4.2-2.9,4.2s-2.9-1.4-2.9-4.2
		C325.5,777.9,326.5,776.6,328.4,776.6 M328.4,786.9c3.4,0,5.6-2.3,5.6-6.3c0-4.1-2.2-6.2-5.6-6.2s-5.6,2.1-5.6,6.2
		C322.9,784.7,325.1,786.9,328.4,786.9 M313.3,774.7h-3l4.4,12.6c-0.6,1.8-1.3,2.4-2.5,2.4c-0.6,0-1.1-0.1-1.6-0.4l-0.3,2.4
		c0.6,0.2,1.3,0.3,1.9,0.3c2.2,0,3.8-0.8,5-4.4l4.5-12.9H319l-1.9,6.2c-0.7,2.3-0.9,3.8-0.9,3.8h-0.1c0,0-0.2-1.4-0.9-3.8
		L313.3,774.7z M295.1,774.7h-2.2v11.9h2.7v-6.7c0-2.5,1.3-3.2,2.6-3.2c1.4,0,1.9,0.9,1.9,2.3v7.6h2.7v-8.5c0-2.6-1.7-3.7-3.6-3.7
		c-1.8,0-3.2,0.8-3.8,2.6L295.1,774.7z M282.4,779.4c0.2-1.8,1.2-2.9,2.8-2.9c1.5,0,2.4,1.1,2.4,2.5c0,0.2,0,0.3,0,0.5L282.4,779.4
		L282.4,779.4z M285.3,784.8c-1.9,0-2.9-1.5-3-3.6h7.6c0.1-0.4,0.2-1,0.2-1.6c0-3-1.7-5.2-4.8-5.2c-3.4,0-5.6,2.4-5.6,6.4
		c0,3.9,2.2,6.1,5.5,6.1c2.3,0,4.3-0.8,4.9-3.3l-2.4-0.7C287.3,784.3,286.5,784.8,285.3,784.8 M269.2,785c0.4,1,1.5,1.9,3.3,1.9
		c3.3,0,5.2-2.8,5.2-6.6s-1.8-6-4.7-6c-1.6,0-3.2,0.6-4,2.6l-0.3-2.3h-2.2v17.2h2.7V785z M269.2,779.9c0-2.1,1.4-3.3,2.9-3.3
		c1.7,0,2.8,1.3,2.8,4c0,2.9-1.4,4.3-3.1,4.3c-1.2,0-2.7-0.8-2.7-3v-2H269.2z M258.1,776.6c1.9,0,2.9,1.3,2.9,4c0,2.8-1,4.2-2.9,4.2
		s-2.9-1.4-2.9-4.2C255.2,777.9,256.2,776.6,258.1,776.6 M258.1,786.9c3.4,0,5.6-2.3,5.6-6.3c0-4.1-2.2-6.2-5.6-6.2
		s-5.6,2.1-5.6,6.2C252.6,784.7,254.8,786.9,258.1,786.9 M245.1,784.3c-0.3,0.1-0.5,0.1-0.9,0.1c-0.6,0-1.1-0.3-1.1-1v-14.1h-2.7
		V784c0,1.9,1.3,2.7,2.9,2.7c0.5,0,1-0.1,1.6-0.2L245.1,784.3z M238.1,784.3c-0.3,0.1-0.5,0.1-0.9,0.1c-0.6,0-1.1-0.3-1.1-1v-14.1
		h-2.7V784c0,1.9,1.3,2.7,2.9,2.7c0.5,0,1-0.1,1.6-0.2L238.1,784.3z M227.4,786.6h2.7v-11.9h-2.7V786.6z M227,770.9
		c0,1,0.8,1.7,1.7,1.7c1,0,1.8-0.7,1.8-1.7c0-1.1-0.8-1.7-1.8-1.7C227.8,769.2,227,769.8,227,770.9 M218.1,774.7h-2.6l-1.5,5.7
		c-0.6,2.4-0.7,4.3-0.7,4.3h-0.1c0,0-0.2-1.9-0.8-4.3l-1.5-5.7h-2.8l3.3,11.9h3.2l1.3-5.2c0.6-2.2,0.7-3.8,0.7-3.8h0.1
		c0,0,0.1,1.7,0.7,3.8l1.4,5.2h3.2l3.2-11.9h-2.7l-1.4,5.7c-0.6,2.4-0.7,4.2-0.7,4.2h-0.1c0,0-0.1-1.9-0.8-4.3L218.1,774.7z"/>
	<path class="st0" d="M509.6,736.1h-2.7v17.3h2.7v-6.8c0-2.4,1.3-3.2,2.6-3.2c1.4,0,1.9,0.9,1.9,2.3v7.6h2.7v-8.5
		c0-2.6-1.7-3.7-3.6-3.7c-1.8,0-3.1,0.8-3.6,2.6L509.6,736.1L509.6,736.1z M502.1,749.6c-0.4,1.4-1.2,1.9-2.3,1.9
		c-1.8,0-3-1.7-3-4.1c0-2.5,1-4.1,2.9-4.1c1.3,0,2,0.7,2.2,2.2l2.4-0.5c-0.2-2.4-1.9-3.8-4.5-3.8c-3.4,0-5.6,2.4-5.6,6.3
		c0,4,2.2,6.2,5.4,6.2c2.4,0,4.4-1,4.8-3.4L502.1,749.6z M491,744.9c0-2.7-1.9-3.8-4.4-3.8c-2.4,0-4.6,1-4.8,3.5l2.6,0.4
		c0.1-1.2,0.8-1.9,1.9-1.9s1.9,0.6,1.9,1.9v1.3c-4.8-0.2-6.9,1.3-6.9,3.9c0,2,1.4,3.3,3.5,3.3c1.6,0,2.9-0.5,3.5-2
		c0.3,1.3,1.2,1.9,2.6,1.9c0.6,0,1.1-0.1,1.5-0.3v-2c-0.2,0.1-0.4,0.1-0.7,0.1c-0.5,0-0.9-0.2-0.9-1.1v-5.2H491z M488.4,749.8
		c0,1.3-1.3,2-2.5,2c-1.1,0-1.7-0.7-1.7-1.6c0-1.3,1.2-2,4.2-2V749.8z M471.8,746.2c0.2-1.8,1.2-2.9,2.8-2.9c1.5,0,2.4,1.1,2.4,2.5
		c0,0.2,0,0.3,0,0.5L471.8,746.2L471.8,746.2z M474.7,751.6c-1.9,0-2.9-1.5-3-3.6h7.6c0.1-0.4,0.2-1,0.2-1.6c0-3-1.7-5.2-4.8-5.2
		c-3.4,0-5.6,2.4-5.6,6.4c0,3.9,2.2,6.1,5.5,6.1c2.3,0,4.3-0.8,4.9-3.3l-2.4-0.7C476.7,751.1,475.9,751.6,474.7,751.6 M468.2,741.2
		c-2.8-0.2-4.2,1.4-4.7,3.5l-0.3-3.3h-2.3v11.9h2.7v-5.8c0-2.4,1.6-3.5,3.2-3.5c0.4,0,0.8,0.1,1.2,0.2L468.2,741.2z M444.7,741.5h-3
		l4.4,12.6c-0.6,1.8-1.3,2.4-2.5,2.4c-0.6,0-1.1-0.1-1.6-0.4l-0.3,2.4c0.6,0.2,1.3,0.3,1.9,0.3c2.2,0,3.8-0.8,5-4.4l4.5-12.9h-2.8
		l-1.9,6.2c-0.7,2.3-0.9,3.8-0.9,3.8h-0.1c0,0-0.2-1.4-0.9-3.8L444.7,741.5z M431.1,750.7c0.4,2.2,2,3,4.8,3c2.7,0,4.8-1,4.8-3.6
		c0-2.1-1.2-3.2-3.4-3.7l-1.7-0.4c-1.1-0.3-1.5-0.7-1.5-1.5c0-0.9,0.7-1.4,1.8-1.4c1.2,0,1.9,0.5,2,1.6l2.6-0.3
		c-0.2-2.3-1.8-3.3-4.4-3.3c-2.3,0-4.6,0.9-4.6,3.7c0,1.8,0.9,2.9,3,3.4l1.8,0.4c1.3,0.3,1.8,0.8,1.8,1.7c0,1-0.9,1.4-2.1,1.4
		c-1.3,0-2.3-0.6-2.5-1.9L431.1,750.7z M428.4,744.9c0-2.7-1.9-3.8-4.4-3.8c-2.4,0-4.6,1-4.8,3.5l2.6,0.4c0.1-1.2,0.8-1.9,1.9-1.9
		c1.2,0,1.9,0.6,1.9,1.9v1.3c-4.8-0.2-6.9,1.3-6.9,3.9c0,2,1.4,3.3,3.5,3.3c1.6,0,2.9-0.5,3.5-2c0.3,1.3,1.2,1.9,2.6,1.9
		c0.6,0,1.1-0.1,1.5-0.3v-2c-0.2,0.1-0.4,0.1-0.7,0.1c-0.5,0-0.9-0.2-0.9-1.1v-5.2H428.4z M425.7,749.8c0,1.3-1.3,2-2.5,2
		c-1.1,0-1.7-0.7-1.7-1.6c0-1.3,1.2-2,4.2-2V749.8z M409.2,746.2c0.2-1.8,1.2-2.9,2.8-2.9c1.5,0,2.4,1.1,2.4,2.5c0,0.2,0,0.3,0,0.5
		L409.2,746.2L409.2,746.2z M412.1,751.6c-1.9,0-2.9-1.5-3-3.6h7.6c0.1-0.4,0.2-1,0.2-1.6c0-3-1.7-5.2-4.8-5.2
		c-3.4,0-5.6,2.4-5.6,6.4c0,3.9,2.2,6.1,5.5,6.1c2.3,0,4.3-0.8,4.9-3.3l-2.4-0.7C414.1,751.1,413.2,751.6,412.1,751.6 M390.3,741.5
		h-2.2v11.9h2.7v-6.7c0-2.5,1.3-3.2,2.6-3.2c1.4,0,1.9,0.9,1.9,2.3v7.6h2.7v-8.5c0-2.6-1.7-3.7-3.6-3.7c-1.8,0-3.2,0.8-3.8,2.6
		L390.3,741.5z M381.9,753.4h2.7v-11.9h-2.7V753.4z M381.5,737.7c0,1,0.8,1.7,1.7,1.7c1,0,1.8-0.7,1.8-1.7c0-1.1-0.8-1.7-1.8-1.7
		C382.3,736,381.5,736.6,381.5,737.7 M371.2,736.1h-2.7v17.3h2.7v-6.8c0-2.4,1.3-3.2,2.6-3.2c1.4,0,1.9,0.9,1.9,2.3v7.6h2.7v-8.5
		c0-2.6-1.7-3.7-3.6-3.7c-1.8,0-3.1,0.8-3.6,2.6V736.1z M365.8,750.7c-0.7,0.5-1.2,0.7-2,0.7c-1,0-1.5-0.5-1.5-1.8v-6h3.6v-2.1h-3.5
		v-2.9l-2.7,0.3v2.5H358v2.1h1.7v6.6c0,2.4,1.4,3.5,3.6,3.5c1.2,0,2.3-0.2,3.2-0.7L365.8,750.7z M353.1,753.4h2.7v-11.9h-2.7V753.4z
		 M352.7,737.7c0,1,0.8,1.7,1.7,1.7c1,0,1.8-0.7,1.8-1.7c0-1.1-0.8-1.7-1.8-1.7C353.5,736,352.7,736.6,352.7,737.7 M343.8,741.5
		h-2.6l-1.5,5.7c-0.6,2.4-0.7,4.3-0.7,4.3h-0.1c0,0-0.2-1.9-0.8-4.3l-1.5-5.7h-2.8l3.3,11.9h3.2l1.3-5.2c0.6-2.2,0.7-3.8,0.7-3.8
		h0.1c0,0,0.1,1.7,0.7,3.8l1.4,5.2h3.2l3.2-11.9h-2.7l-1.4,5.7c-0.6,2.4-0.7,4.2-0.7,4.2H346c0,0-0.1-1.9-0.8-4.3L343.8,741.5z
		 M317.4,750.7c0.4,2.2,2,3,4.8,3c2.7,0,4.8-1,4.8-3.6c0-2.1-1.2-3.2-3.4-3.7l-1.7-0.4c-1.1-0.3-1.5-0.7-1.5-1.5
		c0-0.9,0.7-1.4,1.8-1.4c1.2,0,1.9,0.5,2,1.6l2.6-0.3c-0.2-2.3-1.8-3.3-4.4-3.3c-2.3,0-4.6,0.9-4.6,3.7c0,1.8,0.9,2.9,3,3.4l1.8,0.4
		c1.3,0.3,1.8,0.8,1.8,1.7c0,1-0.9,1.4-2.1,1.4c-1.3,0-2.3-0.6-2.5-1.9L317.4,750.7z M308,746.2c0.2-1.8,1.2-2.9,2.8-2.9
		c1.5,0,2.4,1.1,2.4,2.5c0,0.2,0,0.3,0,0.5L308,746.2L308,746.2z M310.9,751.6c-1.9,0-2.9-1.5-3-3.6h7.6c0.1-0.4,0.2-1,0.2-1.6
		c0-3-1.7-5.2-4.8-5.2c-3.4,0-5.6,2.4-5.6,6.4c0,3.9,2.2,6.1,5.5,6.1c2.3,0,4.3-0.8,4.9-3.3l-2.4-0.7
		C313,751.1,312.1,751.6,310.9,751.6 M294.8,751.8c0.4,1,1.5,1.9,3.3,1.9c3.3,0,5.2-2.8,5.2-6.6s-1.8-6-4.7-6c-1.6,0-3.2,0.6-4,2.6
		l-0.3-2.3h-2.2v17.2h2.7V751.8z M294.8,746.7c0-2.1,1.4-3.3,2.9-3.3c1.7,0,2.8,1.3,2.8,4c0,2.9-1.4,4.3-3.1,4.3
		c-1.2,0-2.7-0.8-2.7-3v-2H294.8z M288.2,744.9c0-2.7-1.9-3.8-4.4-3.8c-2.4,0-4.6,1-4.8,3.5l2.6,0.4c0.1-1.2,0.8-1.9,1.9-1.9
		s1.9,0.6,1.9,1.9v1.3c-4.8-0.2-6.9,1.3-6.9,3.9c0,2,1.4,3.3,3.5,3.3c1.6,0,2.9-0.5,3.5-2c0.3,1.3,1.2,1.9,2.6,1.9
		c0.6,0,1.1-0.1,1.5-0.3v-2c-0.2,0.1-0.4,0.1-0.7,0.1c-0.5,0-0.9-0.2-0.9-1.1v-5.2H288.2z M285.5,749.8c0,1.3-1.3,2-2.5,2
		c-1.1,0-1.7-0.7-1.7-1.6c0-1.3,1.2-2,4.2-2V749.8z M274.7,749.6c-0.4,1.4-1.2,1.9-2.3,1.9c-1.8,0-3-1.7-3-4.1c0-2.5,1-4.1,2.9-4.1
		c1.3,0,2,0.7,2.2,2.2l2.4-0.5c-0.2-2.4-1.9-3.8-4.5-3.8c-3.4,0-5.6,2.4-5.6,6.3c0,4,2.2,6.2,5.4,6.2c2.4,0,4.4-1,4.8-3.4
		L274.7,749.6z M255.4,750.7c0.4,2.2,2,3,4.8,3c2.7,0,4.8-1,4.8-3.6c0-2.1-1.2-3.2-3.4-3.7l-1.7-0.4c-1.1-0.3-1.5-0.7-1.5-1.5
		c0-0.9,0.7-1.4,1.8-1.4c1.2,0,1.9,0.5,2,1.6l2.6-0.3c-0.2-2.3-1.8-3.3-4.4-3.3c-2.3,0-4.6,0.9-4.6,3.7c0,1.8,0.9,2.9,3,3.4l1.8,0.4
		c1.3,0.3,1.8,0.8,1.8,1.7c0,1-0.9,1.4-2.1,1.4c-1.3,0-2.3-0.6-2.5-1.9L255.4,750.7z M250.2,743.1c-0.3-1.1-1.6-1.9-3.1-1.9
		c-3.4,0-5.3,2.4-5.3,6.5c0,4,2.2,6,4.7,6c1.7,0,3.2-0.6,3.8-2.4l0.3,2.1h2.4v-17.3h-2.7L250.2,743.1L250.2,743.1z M250.3,748.6
		c0,2-1.5,3-2.8,3c-1.8,0-3-1.4-3-4c0-3.2,1.4-4.3,3-4.3c1.3,0,2.7,0.8,2.7,2.8v2.5H250.3z M231.4,741.5h-2.2v11.9h2.7v-6.7
		c0-2.5,1.3-3.2,2.6-3.2c1.4,0,1.9,0.9,1.9,2.3v7.6h2.7v-8.5c0-2.6-1.7-3.7-3.6-3.7c-1.8,0-3.2,0.8-3.8,2.6L231.4,741.5z
		 M225.3,744.9c0-2.7-1.9-3.8-4.4-3.8c-2.4,0-4.6,1-4.8,3.5l2.6,0.4c0.1-1.2,0.8-1.9,1.9-1.9s1.9,0.6,1.9,1.9v1.3
		c-4.8-0.2-6.9,1.3-6.9,3.9c0,2,1.4,3.3,3.5,3.3c1.6,0,2.9-0.5,3.5-2c0.3,1.3,1.2,1.9,2.6,1.9c0.6,0,1.1-0.1,1.5-0.3v-2
		c-0.2,0.1-0.4,0.1-0.7,0.1c-0.5,0-0.9-0.2-0.9-1.1v-5.2H225.3z M222.6,749.8c0,1.3-1.3,2-2.5,2c-1.1,0-1.7-0.7-1.7-1.6
		c0-1.3,1.2-2,4.2-2V749.8z M214.1,751.1c-0.3,0.1-0.5,0.1-0.9,0.1c-0.6,0-1.1-0.3-1.1-1v-14.1h-2.7v14.7c0,1.9,1.3,2.7,2.9,2.7
		c0.5,0,1-0.1,1.6-0.2L214.1,751.1z"/>
	<path class="st0" d="M478.7,712.2c0-1.5,0.8-2.3,2.3-2.3c1.4,0,2.4,0.7,2.4,2.3c0,1.5-0.9,2.3-2.4,2.3
		C479.5,714.4,478.7,713.5,478.7,712.2 M477.7,722.1c0-1.1,0.9-1.6,2.3-1.6h2.7c1.3,0,1.8,0.5,1.8,1.4c0,1.3-1.4,1.8-3.8,1.8
		C478.9,723.8,477.7,723.3,477.7,722.1 M481,708c-3,0-5,1.5-5,4.2c0,1.8,0.9,2.9,2.4,3.6c-1.3,0.4-1.9,1.2-1.9,2.2s0.6,1.8,1.8,1.9
		c-2,0.2-3.1,1.1-3.1,2.6c0,2.4,2.6,3.1,5.3,3.1c3.2,0,6.6-0.9,6.6-4.1c0-2.1-1.5-3.4-4.2-3.4h-3.1c-0.7,0-1.2-0.3-1.2-0.9
		c0-0.5,0.2-0.9,0.7-1.2c0.3,0.1,0.9,0.2,1.5,0.2c2.8,0,5.1-1.3,5.1-4.1c0-0.9-0.2-1.6-0.5-2.2c1-0.2,1.9-1,2.1-2.2l-2.2-0.8
		c-0.2,0.9-0.4,1.4-0.9,1.8C483.5,708.2,482.4,708,481,708 M465.5,708.2h-2.2v11.9h2.7v-6.7c0-2.5,1.3-3.2,2.6-3.2
		c1.4,0,1.9,0.9,1.9,2.3v7.6h2.7v-8.5c0-2.6-1.7-3.7-3.6-3.7c-1.8,0-3.2,0.8-3.8,2.6L465.5,708.2z M457.1,720.2h2.7v-11.9h-2.7
		V720.2z M456.7,704.5c0,1,0.8,1.7,1.7,1.7c1,0,1.8-0.7,1.8-1.7c0-1.1-0.8-1.7-1.8-1.7C457.5,702.8,456.7,703.4,456.7,704.5
		 M445.9,708.2h-2.2v11.9h2.7v-6.7c0-2.5,1.3-3.2,2.6-3.2c1.4,0,1.9,0.9,1.9,2.3v7.6h2.7v-8.5c0-2.6-1.7-3.7-3.6-3.7
		c-1.8,0-3.2,0.8-3.8,2.6L445.9,708.2z M432.5,708.2h-2.2v11.9h2.7v-6.7c0-2.5,1.3-3.2,2.6-3.2c1.4,0,1.9,0.9,1.9,2.3v7.6h2.7v-8.5
		c0-2.6-1.7-3.7-3.6-3.7c-1.8,0-3.2,0.8-3.8,2.6L432.5,708.2z M424.4,720.2h2.3v-11.9H424v6.8c0,2.3-1.3,3.4-2.6,3.4
		c-1.4,0-2-0.8-2-2.5v-7.8h-2.7v8.3c0,2.8,1.4,3.9,3.6,3.9c2,0,3.2-0.8,3.7-2.5L424.4,720.2z M414.3,717.5c-0.7,0.5-1.2,0.7-2,0.7
		c-1,0-1.5-0.5-1.5-1.8v-6h3.6v-2.1h-3.5v-2.9l-2.7,0.3v2.5h-1.7v2.1h1.7v6.6c0,2.4,1.4,3.5,3.6,3.5c1.2,0,2.3-0.2,3.2-0.7
		L414.3,717.5z M395.6,717.5c0.4,2.2,2,3,4.8,3c2.7,0,4.8-1,4.8-3.6c0-2.1-1.2-3.2-3.4-3.7l-1.7-0.4c-1.1-0.3-1.5-0.7-1.5-1.5
		c0-0.9,0.7-1.4,1.8-1.4c1.2,0,1.9,0.5,2,1.6l2.6-0.3c-0.2-2.3-1.8-3.3-4.4-3.3c-2.3,0-4.6,0.9-4.6,3.7c0,1.8,0.9,2.9,3,3.4l1.8,0.4
		c1.3,0.3,1.8,0.8,1.8,1.7c0,1-0.9,1.4-2.1,1.4c-1.3,0-2.3-0.6-2.5-1.9L395.6,717.5z M383.7,710.4v9.8h2.7v-9.8h3v-2.1h-3v-1.1
		c0-1.6,0.7-2.1,1.8-2.1c0.8,0,1.3,0.2,2,0.5l0.4-2.3c-0.7-0.3-1.6-0.5-2.6-0.5c-2.3,0-4.3,1.1-4.3,4.3v1.2H382v2.1L383.7,710.4
		L383.7,710.4z M375.1,710.1c1.9,0,2.9,1.3,2.9,4c0,2.8-1,4.2-2.9,4.2s-2.9-1.4-2.9-4.2C372.2,711.4,373.2,710.1,375.1,710.1
		 M375.1,720.5c3.4,0,5.6-2.3,5.6-6.3c0-4.1-2.2-6.2-5.6-6.2s-5.6,2.1-5.6,6.2C369.5,718.2,371.7,720.5,375.1,720.5 M354.1,713
		c0.2-1.8,1.2-2.9,2.8-2.9c1.5,0,2.4,1.1,2.4,2.5c0,0.2,0,0.3,0,0.5L354.1,713L354.1,713z M357,718.4c-1.9,0-2.9-1.5-3-3.6h7.6
		c0.1-0.4,0.2-1,0.2-1.6c0-3-1.7-5.2-4.8-5.2c-3.4,0-5.6,2.4-5.6,6.4c0,3.9,2.2,6.1,5.5,6.1c2.3,0,4.3-0.8,4.9-3.3l-2.4-0.7
		C359,717.9,358.2,718.4,357,718.4 M342,712.2c0-1.5,0.8-2.3,2.3-2.3c1.4,0,2.4,0.7,2.4,2.3c0,1.5-0.9,2.3-2.4,2.3
		C342.8,714.4,342,713.5,342,712.2 M340.9,722.1c0-1.1,0.9-1.6,2.3-1.6h2.7c1.3,0,1.8,0.5,1.8,1.4c0,1.3-1.4,1.8-3.8,1.8
		C342.2,723.8,340.9,723.3,340.9,722.1 M344.2,708c-3,0-5,1.5-5,4.2c0,1.8,0.9,2.9,2.4,3.6c-1.3,0.4-1.9,1.2-1.9,2.2
		s0.6,1.8,1.8,1.9c-2,0.2-3.1,1.1-3.1,2.6c0,2.4,2.6,3.1,5.3,3.1c3.2,0,6.6-0.9,6.6-4.1c0-2.1-1.5-3.4-4.2-3.4H343
		c-0.7,0-1.2-0.3-1.2-0.9c0-0.5,0.2-0.9,0.7-1.2c0.3,0.1,0.9,0.2,1.5,0.2c2.8,0,5.1-1.3,5.1-4.1c0-0.9-0.2-1.6-0.5-2.2
		c1-0.2,1.9-1,2.1-2.2l-2.2-0.8c-0.2,0.9-0.4,1.4-0.9,1.8C346.8,708.2,345.6,708,344.2,708 M328.8,708.2h-2.2v11.9h2.7v-6.7
		c0-2.5,1.3-3.2,2.6-3.2c1.4,0,1.9,0.9,1.9,2.3v7.6h2.7v-8.5c0-2.6-1.7-3.7-3.6-3.7c-1.8,0-3.2,0.8-3.8,2.6L328.8,708.2z
		 M322.7,711.7c0-2.7-1.9-3.8-4.4-3.8c-2.4,0-4.6,1-4.8,3.5l2.6,0.4c0.1-1.2,0.8-1.9,1.9-1.9c1.2,0,1.9,0.6,1.9,1.9v1.3
		c-4.8-0.2-6.9,1.3-6.9,3.9c0,2,1.4,3.3,3.5,3.3c1.6,0,2.9-0.5,3.5-2c0.3,1.3,1.2,1.9,2.6,1.9c0.6,0,1.1-0.1,1.5-0.3v-2
		c-0.2,0.1-0.4,0.1-0.7,0.1c-0.5,0-0.9-0.2-0.9-1.1v-5.2H322.7z M320,716.5c0,1.3-1.3,2-2.5,2c-1.1,0-1.7-0.7-1.7-1.6
		c0-1.3,1.2-2,4.2-2V716.5z M312.1,708c-2.8-0.2-4.2,1.4-4.7,3.5l-0.3-3.3h-2.3v11.9h2.7v-5.8c0-2.4,1.6-3.5,3.2-3.5
		c0.4,0,0.8,0.1,1.2,0.2L312.1,708z M294.2,716.4c-0.4,1.4-1.2,1.9-2.3,1.9c-1.8,0-3-1.7-3-4.1c0-2.5,1-4.1,2.9-4.1
		c1.3,0,2,0.7,2.2,2.2l2.4-0.5c-0.2-2.4-1.9-3.8-4.5-3.8c-3.4,0-5.6,2.4-5.6,6.3c0,4,2.2,6.2,5.4,6.2c2.4,0,4.4-1,4.8-3.4
		L294.2,716.4z M280.8,720.2h2.7v-11.9h-2.7V720.2z M280.4,704.5c0,1,0.8,1.7,1.7,1.7c1,0,1.8-0.7,1.8-1.7c0-1.1-0.8-1.7-1.8-1.7
		C281.2,702.8,280.4,703.4,280.4,704.5 M269.5,718.6c0.4,1,1.5,1.9,3.3,1.9c3.3,0,5.2-2.8,5.2-6.6s-1.8-6-4.7-6
		c-1.6,0-3.2,0.6-4,2.6l-0.3-2.3h-2.2v17.2h2.7V718.6z M269.5,713.5c0-2.1,1.4-3.3,2.9-3.3c1.7,0,2.8,1.3,2.8,4
		c0,2.9-1.4,4.3-3.1,4.3c-1.2,0-2.7-0.8-2.7-3v-2H269.5z M256.3,713c0.2-1.8,1.2-2.9,2.8-2.9c1.5,0,2.4,1.1,2.4,2.5
		c0,0.2,0,0.3,0,0.5L256.3,713L256.3,713z M259.2,718.4c-1.9,0-2.9-1.5-3-3.6h7.6c0.1-0.4,0.2-1,0.2-1.6c0-3-1.7-5.2-4.8-5.2
		c-3.4,0-5.6,2.4-5.6,6.4c0,3.9,2.2,6.1,5.5,6.1c2.3,0,4.3-0.8,4.9-3.3l-2.4-0.7C261.2,717.9,260.4,718.4,259.2,718.4 M246.5,708
		c-2.8-0.2-4.2,1.4-4.7,3.5l-0.3-3.3h-2.3v11.9h2.7v-5.8c0-2.4,1.6-3.5,3.2-3.5c0.4,0,0.8,0.1,1.2,0.2L246.5,708z M233.2,720.2h2.3
		v-11.9h-2.7v6.8c0,2.3-1.3,3.4-2.6,3.4c-1.4,0-2-0.8-2-2.5v-7.8h-2.7v8.3c0,2.8,1.4,3.9,3.6,3.9c2,0,3.2-0.8,3.7-2.5L233.2,720.2z
		 M215.9,707.1c2.7,0,4.1,2.1,4.1,5.5s-1.4,5.5-4.1,5.5s-4.1-2.1-4.1-5.5C211.9,709.2,213.2,707.1,215.9,707.1 M215.9,720.5
		c4.3,0,7-2.8,7-7.9c0-5.1-2.7-7.9-7-7.9s-7,2.8-7,7.9C209,717.6,211.6,720.5,215.9,720.5"/>
	<path class="st0" d="M324.1,620.2h-11v-4.5h9.6v-5.4h-9.6v-4.2h11v-5.6h-17.4v25.2h17.4V620.2z M281.8,620.2c1.5,4.5,4.9,6,9.8,6
		c5.6,0,10.1-2,10.1-7.6c0-4.9-2.5-6.7-8.3-8.5c-2.8-0.8-3.9-1.5-3.9-2.9s1.2-1.9,2.5-1.9c1.5,0,3.1,0.8,3.3,2.9l6.4-1.7
		c-0.6-4.8-4.5-6.5-9.9-6.5c-4.6,0-9.2,1.9-9.2,7.8c0,4.2,2.1,6.6,8.5,8.5c3,0.9,3.9,1.5,3.9,3s-1.3,2.1-3,2.1
		c-2.3,0-4.1-1.6-4.5-3.9L281.8,620.2z M267,605.7c3.7,0,5.5,2.9,5.5,7.5s-1.8,7.5-5.5,7.5s-5.5-2.8-5.5-7.5
		C261.5,608.6,263.3,605.7,267,605.7 M267,626.3c7.6,0,12.2-4.7,12.2-13.1c0-8.5-4.5-13.1-12.2-13.1s-12.2,4.7-12.2,13.1
		C254.9,621.6,259.4,626.3,267,626.3 M236.4,600.5v25.2h15.8v-5.6h-9.4v-19.7L236.4,600.5L236.4,600.5z M226.8,617.1
		c-0.9,2.3-2.7,3.5-4.7,3.5c-3.9,0-5.9-2.7-5.9-7.3c0-4.7,2.2-7.5,5.7-7.5c2.7,0,3.8,1.5,4.5,3.9l6.3-3c-1.8-4.1-5.1-6.5-10.5-6.5
		c-7.9,0-12.5,4.7-12.5,13.1c0,8.4,4.8,13.2,11.7,13.2c5.8,0,8.8-2,11.1-6L226.8,617.1z"/>
	<path class="st0" d="M432.5,570.7v5.1h5v0.5c0,1.7-1.1,3.3-4.5,3.3c-4.5,0-5.9-3.6-5.9-7.7c0-6.3,3.6-7.7,5.7-7.7
		c2.2,0,3.7,1.3,4.5,3.9l6.3-3c-1.7-4.1-5.4-6.5-10.5-6.5c-7.9,0-12.5,4.8-12.5,13.2c0,9,4.8,13,11.3,13c3.1,0,5.6-1,6.9-3.2
		l1.1,2.7h3.8v-13.6H432.5z M398.6,559.1h-6v25.2h6.4v-8.9c0-3.7-0.3-5.6-0.3-5.6h0.2c0,0,0.6,1.3,2.2,3.4l8.6,11.2h5.7v-25.2H409
		v9.2c0,3.2,0.1,5.2,0.1,5.2h-0.2c0,0-0.5-1.1-1.9-3L398.6,559.1z M379.9,584.3h6.4v-25.2h-6.4V584.3z M358.1,584.3v-10h8.9v10h6.4
		v-25.2H367v9.6h-8.9v-9.6h-6.4v25.2H358.1z M341.1,584.3v-19.7h6.9V559h-20v5.6h6.7v19.7H341.1z M310.7,559.1h-7.3l8.7,17.2v8h6.4
		v-8l8.2-17.2H320l-2.6,5.4c-1.7,3.4-1.9,5.8-1.9,5.8h-0.2c0,0-0.3-2.3-2-5.8L310.7,559.1z M288.1,564.5h3.5c2.1,0,3.3,1.1,3.3,3
		c0,2.2-1.2,3-3.3,3h-3.4v-6H288.1z M302.8,584.3c-0.9-0.9-1.2-1.7-1.5-2.7L300,577c-0.6-2.2-1.8-3.1-4.1-3.5v-0.1
		c3.3-0.4,5.4-2.4,5.4-6.3c0-6-3.8-7.9-9.4-7.9h-10.3v25.2h6.4V576h2.2c1.8,0,2.5,0.3,3,2.2l0.9,3.6c0.3,1.1,0.6,2.1,1.4,2.7h7.3
		V584.3z M276.3,578.8h-11v-4.5h9.6v-5.4h-9.6v-4.2h11v-5.6h-17.4v25.2h17.4V578.8z M237.9,559.1H231l8.3,25.2h7.7l8.3-25.2h-6.8
		l-3.8,12.8c-1,3.3-1.3,6.8-1.3,6.8h-0.2c0,0-0.3-3.4-1.4-6.8L237.9,559.1z M228.4,578.8h-11v-4.5h9.6v-5.4h-9.6v-4.2h11v-5.6H211
		v25.2h17.4V578.8z"/>
	<path class="st0" d="M305,523.7h-6.7v-3.2h5.9v-2.9h-5.9v-3h6.7v-3h-10.2v15.2H305V523.7z M280.1,523.3c0.8,2.7,2.8,3.7,5.8,3.7
		c3.2,0,5.9-1.2,5.9-4.5c0-2.9-1.6-4-4.8-5c-1.8-0.5-2.6-1-2.6-2s0.8-1.4,1.8-1.4c1.1,0,2.1,0.6,2.2,1.9l3.5-0.9
		c-0.3-2.9-2.6-4-5.8-4c-2.7,0-5.3,1.1-5.3,4.6c0,2.6,1.4,3.9,4.9,5c2,0.6,2.5,1.1,2.5,2.1s-0.9,1.5-2,1.5c-1.4,0-2.6-1-2.8-2.5
		L280.1,523.3z M274,526.7h3.5v-15.2H274V526.7z M263.3,523.2l2.1-3.5c0.8-1.3,1.1-2.3,1.1-2.3h0.1c0,0-0.1,0.9-0.1,2.6v6.7h3.5
		v-15.2h-3.5l-2.9,5.1c-0.9,1.5-1.1,2.2-1.1,2.2h-0.1c0,0-0.2-0.7-1.1-2.2l-2.9-5.1h-3.6v15.2h3.5V520c0-1.7-0.2-2.6-0.2-2.6h0.1
		c0,0,0.4,1.1,1.2,2.3l2.1,3.5H263.3z M244.6,514.3c2.4,0,3.6,1.8,3.6,4.9c0,3-1.2,4.8-3.6,4.8s-3.6-1.8-3.6-4.8
		S242.2,514.3,244.6,514.3 M244.6,527c4.5,0,7.2-2.8,7.2-7.9c0-5.1-2.7-7.9-7.2-7.9s-7.2,2.8-7.2,7.9
		C237.4,524.2,240.1,527,244.6,527 M227.1,514.5h2.2c1.4,0,2.2,0.7,2.2,2c0,1.4-0.8,2-2.2,2h-2.2V514.5z M235.9,526.7
		c-0.5-0.5-0.7-1-0.9-1.6l-0.8-2.8c-0.4-1.4-1.1-2-2.5-2.2V520c2-0.2,3.3-1.5,3.3-3.8c0-3.4-2.1-4.7-5.5-4.7h-6v15.2h3.5v-5.4h1.5
		c1.2,0,1.8,0.2,2.1,1.5l0.6,2.3c0.2,0.6,0.3,1.2,0.8,1.6L235.9,526.7L235.9,526.7z M213.3,526.7v-4.9h2.2c3.3,0,5.2-1.9,5.2-5.2
		c0-3.4-1.6-5.1-5.5-5.1h-5.4v15.2L213.3,526.7L213.3,526.7z M213.3,514.4h1.8c1.5,0,2.1,0.7,2.1,2.3c0,1.4-0.6,2.2-2.1,2.2h-1.8
		V514.4z"/>
	<path class="st0" d="M337.9,394.2h-5.7v-2.7h5V389h-5v-2.6h5.7v-2.6h-8.7v13h8.7V394.2z M318.8,392.6c-0.6,1.3-1.5,1.9-2.7,1.9
		c-2.1,0-3.2-1.5-3.2-4.1s1.2-4.2,3.2-4.2c1.4,0,2.1,0.8,2.5,2.1l2.9-1.4c-1-2.1-2.6-3.3-5.3-3.3c-4,0-6.4,2.4-6.4,6.8
		s2.4,6.8,6,6.8c2.9,0,4.4-1,5.6-3L318.8,392.6z M295.3,390.1c0.7-2.1,1.1-3.7,1.1-3.7h0.1c0,0,0.3,1.6,1,3.7l0.5,1.5h-3.2
		L295.3,390.1z M299.9,396.8h3.2l-4.8-13h-3.7l-4.7,13h3.1l0.9-2.7h4.9L299.9,396.8z M275.3,383.8v13h8.1v-2.6h-5.1v-10.4H275.3z
		 M260.9,396.8v-4.2h1.9c2.8,0,4.4-1.7,4.4-4.4c0-2.9-1.4-4.4-4.7-4.4h-4.6v13H260.9z M260.9,386.3h1.5c1.3,0,1.8,0.6,1.8,2
		c0,1.2-0.5,1.9-1.8,1.9h-1.5V386.3z M233.8,396.8V392h4.8v-2.5h-4.8v-3.1h5.5v-2.6h-8.5v13H233.8z M216.4,386.2
		c2.1,0,3.1,1.6,3.1,4.2s-1,4.1-3.1,4.1s-3.1-1.6-3.1-4.1C213.3,387.8,214.3,386.2,216.4,386.2 M216.4,397.1c3.9,0,6.2-2.4,6.2-6.8
		s-2.3-6.8-6.2-6.8s-6.2,2.4-6.2,6.8S212.5,397.1,216.4,397.1"/>
	<path class="st0" d="M512.7,363H507v-2.7h5v-2.5h-5v-2.6h5.7v-2.6H504v13h8.7V363z M485.7,362.7c0.7,2.3,2.4,3.2,5,3.2
		c2.8,0,5.1-1,5.1-3.9c0-2.5-1.4-3.4-4.1-4.3c-1.5-0.5-2.2-0.8-2.2-1.7c0-0.8,0.7-1.2,1.5-1.2c0.9,0,1.8,0.5,1.9,1.7l3-0.8
		c-0.3-2.5-2.3-3.4-4.9-3.4c-2.3,0-4.6,1-4.6,3.9c0,2.2,1.2,3.4,4.2,4.3c1.7,0.5,2.2,0.9,2.2,1.8s-0.7,1.3-1.7,1.3
		c-1.2,0-2.2-0.8-2.4-2.1L485.7,362.7z M474.9,365.6h3v-13h-3V365.6z M460.1,362.6l1.8-3c0.7-1.1,1-2,1-2h0.1c0,0-0.1,0.7-0.1,2.2
		v5.8h3v-13h-3l-2.5,4.4c-0.7,1.3-0.9,1.9-0.9,1.9h-0.1c0,0-0.2-0.6-0.9-1.9l-2.5-4.4h-3.1v13h3v-5.8c0-1.5-0.1-2.2-0.1-2.2h0.1
		c0,0,0.3,0.9,1,2l1.8,3H460.1z M438.4,355c2.1,0,3.1,1.6,3.1,4.2s-1,4.1-3.1,4.1s-3.1-1.6-3.1-4.1C435.4,356.6,436.4,355,438.4,355
		 M438.4,365.9c3.9,0,6.2-2.4,6.2-6.8s-2.3-6.8-6.2-6.8c-3.9,0-6.2,2.4-6.2,6.8C432.3,363.5,434.6,365.9,438.4,365.9 M417.8,355.1
		h1.9c1.2,0,1.9,0.6,1.9,1.7c0,1.2-0.7,1.7-1.9,1.7h-1.9V355.1z M425.3,365.6c-0.4-0.4-0.6-0.9-0.7-1.4l-0.7-2.4
		c-0.3-1.2-1-1.7-2.2-1.9l0,0c1.7-0.2,2.9-1.3,2.9-3.3c0-2.9-1.8-4-4.7-4h-5.1v13h3V361h1.3c1,0,1.5,0.2,1.8,1.3l0.5,1.9
		c0.1,0.6,0.3,1,0.7,1.3h3.2V365.6z M400.4,365.6v-4.2h1.9c2.8,0,4.4-1.7,4.4-4.4c0-2.9-1.4-4.4-4.7-4.4h-4.6v13H400.4z
		 M400.4,355.1h1.5c1.3,0,1.8,0.6,1.8,2c0,1.2-0.5,1.9-1.8,1.9h-1.5V355.1z M378.4,363h-5.7v-2.7h5v-2.5h-5v-2.6h5.7v-2.6h-8.7v13
		h8.7V363z M358,352.6v7.8c0,1.9-0.5,3-2.4,3s-2.4-1.1-2.4-3v-7.8h-3v8.7c0,3.5,2.5,4.6,5.4,4.6s5.4-1.1,5.4-4.6v-8.7H358z
		 M336.1,355c2.1,0,3.1,1.6,3.1,4.2s-1,4.1-3.1,4.1s-3.1-1.6-3.1-4.1C333,356.6,334.1,355,336.1,355 M340.8,366.7
		c-1.2,0.1-2.6-0.2-3.4-0.9c3.1-0.5,5-2.8,5-6.7c0-4.4-2.3-6.8-6.2-6.8c-3.9,0-6.2,2.4-6.2,6.8c0,3.7,1.7,6,4.5,6.6
		c0.7,2.1,2.3,3.6,5.5,3.6L340.8,366.7z M318.7,365.6h3v-13h-3V365.6z M300.9,352.6h-2.8v13h3v-5.2c0-1.9-0.1-2.9-0.1-2.9h0.1
		c0,0,0.4,0.8,1.2,1.9l4.6,6.2h2.7v-13h-3v5.3c0,1.7,0.1,2.8,0.1,2.8h-0.1c0,0-0.4-0.8-1.1-1.7L300.9,352.6z M286.4,352.6v7.8
		c0,1.9-0.5,3-2.4,3s-2.4-1.1-2.4-3v-7.8h-3v8.7c0,3.5,2.5,4.6,5.4,4.6s5.4-1.1,5.4-4.6v-8.7H286.4z M252.9,355.1h1.9
		c1.2,0,1.9,0.6,1.9,1.7c0,1.2-0.7,1.7-1.9,1.7h-1.9V355.1z M260.5,365.6c-0.4-0.4-0.6-0.9-0.7-1.4l-0.7-2.4c-0.3-1.2-1-1.7-2.2-1.9
		l0,0c1.7-0.2,2.9-1.3,2.9-3.3c0-2.9-1.8-4-4.7-4H250v13h3V361h1.3c1,0,1.5,0.2,1.8,1.3l0.5,1.9c0.1,0.6,0.3,1,0.7,1.3h3.2V365.6z
		 M238.2,352.6v7.8c0,1.9-0.5,3-2.4,3s-2.4-1.1-2.4-3v-7.8h-3v8.7c0,3.5,2.5,4.6,5.4,4.6s5.4-1.1,5.4-4.6v-8.7H238.2z M216.4,355
		c2.1,0,3.1,1.6,3.1,4.2s-1,4.1-3.1,4.1s-3.1-1.6-3.1-4.1C213.3,356.6,214.3,355,216.4,355 M216.4,365.9c3.9,0,6.2-2.4,6.2-6.8
		s-2.3-6.8-6.2-6.8s-6.2,2.4-6.2,6.8S212.5,365.9,216.4,365.9"/>
</g>
</svg>
