<?xml version="1.0" encoding="utf-8"?>
<!-- Generator: Adobe Illustrator 23.0.1, SVG Export Plug-In . SVG Version: 6.00 Build 0)  -->
<svg version="1.1" id="Layer_1" xmlns="http://www.w3.org/2000/svg" xmlns:xlink="http://www.w3.org/1999/xlink" x="0px" y="0px"
	 viewBox="0 0 750 1331.7" style="enable-background:new 0 0 750 1331.7;" xml:space="preserve">
<style type="text/css">
	.st0{fill:#231F20;}
</style>
<title>01</title>
<g>
	<g>
		<g>
			<path class="st0" d="M317.3,962.6c0.7,2.3,2.3,3.1,4.9,3.1c2.7,0,5-1,5-3.8c0-2.5-1.4-3.4-4.1-4.2c-1.5-0.5-2.2-0.8-2.2-1.7
				c0-0.8,0.7-1.2,1.5-1.2c0.9,0,1.7,0.5,1.8,1.6l2.9-0.7c-0.3-2.4-2.2-3.3-4.8-3.3c-2.2,0-4.5,1-4.5,3.8c0,2.2,1.2,3.3,4.1,4.2
				c1.7,0.5,2.1,0.9,2.1,1.7c0,0.9-0.7,1.3-1.7,1.3c-1.2,0-2.1-0.8-2.4-2.1L317.3,962.6z M303.2,955.2h1.9c1.2,0,1.8,0.6,1.8,1.7
				c0,1.2-0.7,1.7-1.8,1.7h-1.9V955.2z M310.7,965.5c-0.4-0.4-0.6-0.9-0.7-1.4l-0.7-2.4c-0.3-1.2-1-1.7-2.1-1.9l0,0
				c1.6-0.2,2.8-1.2,2.8-3.2c0-2.9-1.8-3.9-4.6-3.9h-5v12.8h3V961h1.3c1,0,1.5,0.2,1.7,1.3l0.5,1.9c0.1,0.5,0.3,1,0.7,1.3H310.7
				L310.7,965.5z M292,962.9h-5.6v-2.7h4.9v-2.5h-4.9v-2.5h5.6v-2.6h-8.6v12.8h8.6V962.9z M267.7,952.7v12.8h7.9v-2.6h-5v-10.2
				H267.7z M251.9,952.7v12.8h7.9v-2.6h-5v-10.2H251.9z M243.7,962.9h-5.6v-2.7h4.9v-2.5h-4.9v-2.5h5.6v-2.6h-8.6v12.8h8.6V962.9z
				 M218.8,952.7h-3.1l4.2,12.8h3.6l4.2-12.8h-3.1l-2.1,6.9c-0.5,1.8-0.7,3.4-0.7,3.4h-0.1c0,0-0.2-1.6-0.7-3.4L218.8,952.7z
				 M203.1,958.9c0.7-2.1,1-3.6,1-3.6h0.1c0,0,0.3,1.5,1,3.6l0.5,1.4h-3.1L203.1,958.9z M207.6,965.5h3.2l-4.7-12.8h-3.6l-4.6,12.8
				h3.1l0.9-2.7h4.8L207.6,965.5z M184.1,955.2h1.9c1.2,0,1.8,0.6,1.8,1.7c0,1.2-0.7,1.7-1.8,1.7h-1.9V955.2z M191.5,965.5
				c-0.4-0.4-0.6-0.9-0.7-1.4l-0.7-2.4c-0.3-1.2-1-1.7-2.1-1.9l0,0c1.6-0.2,2.8-1.2,2.8-3.2c0-2.9-1.8-3.9-4.6-3.9h-5v12.8h2.9V961
				h1.3c1,0,1.5,0.2,1.7,1.3l0.5,1.9c0.1,0.5,0.3,1,0.7,1.3H191.5L191.5,965.5z M170.1,965.5v-10.2h3.6v-2.6h-10v2.6h3.5v10.2H170.1
				z"/>
		</g>
	</g>
	<g>
		<g>
			<path class="st0" d="M439,922.2V935h7.9v-2.6h-5v-10.2H439z M424,928.4c0.7-2.1,1-3.6,1-3.6h0.1c0,0,0.3,1.5,1,3.6l0.5,1.4h-3.1
				L424,928.4z M428.4,934.9h3.2l-4.7-12.8h-3.6l-4.6,12.8h3.1l0.9-2.7h4.8L428.4,934.9z M402.7,922.2h-2.8V935h3v-5.1
				c0-1.8-0.1-2.9-0.1-2.9h0.1c0,0,0.4,0.8,1.2,1.9l4.5,6.1h2.7v-12.8h-3v5.2c0,1.6,0.1,2.7,0.1,2.7h-0.1c0,0-0.3-0.7-1.1-1.7
				L402.7,922.2z M385.8,924.5c2,0,3,1.5,3,4.1c0,2.5-1,4.1-3,4.1s-3-1.5-3-4.1C382.8,926.1,383.8,924.5,385.8,924.5 M385.8,935.2
				c3.8,0,6.1-2.4,6.1-6.6c0-4.3-2.3-6.7-6.1-6.7c-3.8,0-6.1,2.4-6.1,6.7C379.7,932.8,382,935.2,385.8,935.2 M368.7,934.9h2.9v-12.8
				h-2.9V934.9z M357.7,934.9v-10.2h3.6v-2.6h-10v2.6h3.5v10.2H357.7z M338.8,928.4c0.7-2.1,1-3.6,1-3.6h0.1c0,0,0.3,1.5,1,3.6
				l0.5,1.4h-3.1L338.8,928.4z M343.3,934.9h3.2l-4.7-12.8h-3.6l-4.6,12.8h3.1l0.9-2.7h4.8L343.3,934.9z M317.5,922.2h-2.8V935h3
				v-5.1c0-1.8-0.1-2.9-0.1-2.9h0.1c0,0,0.4,0.8,1.2,1.9l4.5,6.1h2.7v-12.8h-3v5.2c0,1.6,0.1,2.7,0.1,2.7h-0.1c0,0-0.3-0.7-1.1-1.7
				L317.5,922.2z M299.6,924.7h1.9c1.2,0,1.8,0.6,1.8,1.7c0,1.2-0.7,1.7-1.8,1.7h-1.9V924.7z M307,934.9c-0.4-0.4-0.6-0.9-0.7-1.4
				l-0.7-2.4c-0.3-1.2-1-1.7-2.1-1.9l0,0c1.6-0.2,2.8-1.2,2.8-3.2c0-2.9-1.8-3.9-4.6-3.9h-5v12.8h3v-4.5h1.3c1,0,1.5,0.2,1.7,1.3
				l0.5,1.9c0.1,0.5,0.3,1,0.7,1.3L307,934.9L307,934.9z M288.3,932.4h-5.6v-2.7h4.9v-2.5h-4.9v-2.5h5.6v-2.6h-8.6v12.8h8.6V932.4z
				 M268.8,934.9v-10.2h3.6v-2.6h-10v2.6h3.5v10.2H268.8z M246.4,922.2h-2.8V935h3v-5.1c0-1.8-0.1-2.9-0.1-2.9h0.1
				c0,0,0.4,0.8,1.2,1.9l4.5,6.1h2.7v-12.8h-3v5.2c0,1.6,0.1,2.7,0.1,2.7H252c0,0-0.3-0.7-1.1-1.7L246.4,922.2z M231.8,934.9h2.9
				v-12.8h-2.9V934.9z M206.3,924.7h1.9c1.2,0,1.8,0.6,1.8,1.7c0,1.2-0.7,1.7-1.8,1.7h-1.9L206.3,924.7L206.3,924.7z M213.7,934.9
				c-0.4-0.4-0.6-0.9-0.7-1.4l-0.7-2.4c-0.3-1.2-1-1.7-2.1-1.9l0,0c1.6-0.2,2.8-1.2,2.8-3.2c0-2.9-1.8-3.9-4.6-3.9h-5v12.8h3v-4.5
				h1.3c1,0,1.5,0.2,1.7,1.3l0.5,1.9c0.1,0.5,0.3,1,0.7,1.3L213.7,934.9L213.7,934.9z M191.9,922.2v7.7c0,1.8-0.5,2.9-2.3,2.9
				c-1.8,0-2.3-1.1-2.3-2.9v-7.7h-3v8.5c0,3.4,2.5,4.5,5.3,4.5c2.8,0,5.3-1.1,5.3-4.5v-8.5H191.9z M170.5,924.5c2,0,3,1.5,3,4.1
				c0,2.5-1,4.1-3,4.1s-3-1.5-3-4.1C167.5,926.1,168.5,924.5,170.5,924.5 M170.5,935.2c3.8,0,6.1-2.4,6.1-6.6c0-4.3-2.3-6.7-6.1-6.7
				c-3.8,0-6.1,2.4-6.1,6.7C164.4,932.8,166.7,935.2,170.5,935.2"/>
		</g>
	</g>
	<g>
		<g>
			<path class="st0" d="M440.2,904.4v-4.7h4.7v-2.5h-4.7v-3.1h5.4v-2.6h-8.4v12.8L440.2,904.4L440.2,904.4z M423,894
				c2,0,3,1.5,3,4.1c0,2.5-1,4.1-3,4.1s-3-1.5-3-4.1S421,894,423,894 M423,904.6c3.8,0,6.1-2.4,6.1-6.6c0-4.3-2.3-6.7-6.1-6.7
				c-3.8,0-6.1,2.4-6.1,6.7C417,902.3,419.3,904.6,423,904.6 M399.2,901.8h-5.6v-2.7h4.9v-2.5h-4.9v-2.5h5.6v-2.6h-8.6v12.8h8.6
				V901.8z M373.2,891.6h-2.8v12.8h2.9v-5.1c0-1.8-0.1-2.9-0.1-2.9h0.1c0,0,0.4,0.8,1.2,1.9l4.5,6.1h2.7v-12.8h-2.9v5.2
				c0,1.6,0.1,2.7,0.1,2.7h-0.1c0,0-0.3-0.7-1.1-1.7L373.2,891.6z M356.2,894c2,0,3,1.5,3,4.1c0,2.5-1,4.1-3,4.1s-3-1.5-3-4.1
				S354.2,894,356.2,894 M356.2,904.6c3.8,0,6.1-2.4,6.1-6.6c0-4.3-2.3-6.7-6.1-6.7c-3.8,0-6.1,2.4-6.1,6.7
				C350.2,902.3,352.5,904.6,356.2,904.6 M326.1,901.4l1.8-2.9c0.7-1.1,1-2,1-2h0.1c0,0-0.1,0.7-0.1,2.2v5.7h2.9v-12.8h-2.9
				l-2.4,4.3c-0.7,1.3-0.9,1.9-0.9,1.9h-0.1c0,0-0.2-0.6-0.9-1.9l-2.4-4.3h-3v12.8h3v-5.7c0-1.5-0.1-2.2-0.1-2.2h0.1
				c0,0,0.3,0.9,1,2l1.8,2.9H326.1z M304.9,894c2,0,3,1.5,3,4.1c0,2.5-1,4.1-3,4.1s-3-1.5-3-4.1S302.9,894,304.9,894 M304.9,904.6
				c3.8,0,6.1-2.4,6.1-6.6c0-4.3-2.3-6.7-6.1-6.7c-3.8,0-6.1,2.4-6.1,6.7C298.9,902.3,301.1,904.6,304.9,904.6 M284.7,894.1h1.9
				c1.2,0,1.8,0.6,1.8,1.7c0,1.2-0.7,1.7-1.8,1.7h-1.9V894.1z M292.1,904.4c-0.4-0.4-0.6-0.9-0.7-1.4l-0.7-2.4
				c-0.3-1.2-1-1.7-2.1-1.9l0,0c1.6-0.2,2.8-1.2,2.8-3.2c0-2.9-1.8-3.9-4.6-3.9h-5v12.8h3v-4.5h1.3c1,0,1.5,0.2,1.7,1.3l0.5,1.9
				c0.1,0.5,0.3,1,0.7,1.3L292.1,904.4L292.1,904.4z M268.4,904.4v-4.7h4.7v-2.5h-4.7v-3.1h5.4v-2.6h-8.3v12.8L268.4,904.4
				L268.4,904.4z M246.8,901.8h-5.6v-2.7h4.9v-2.5h-4.9v-2.5h5.6v-2.6h-8.6v12.8h8.6V901.8z M227.3,904.4v-10.2h3.6v-2.6h-10v2.6
				h3.5v10.2H227.3z M208.6,894c2,0,3,1.5,3,4.1c0,2.5-1,4.1-3,4.1s-3-1.5-3-4.1S206.6,894,208.6,894 M208.6,904.6
				c3.8,0,6.1-2.4,6.1-6.6c0-4.3-2.3-6.7-6.1-6.7s-6.1,2.4-6.1,6.7C202.6,902.3,204.8,904.6,208.6,904.6 M191.9,891.6v7.7
				c0,1.8-0.5,2.9-2.3,2.9c-1.8,0-2.3-1.1-2.3-2.9v-7.7h-2.9v8.5c0,3.4,2.5,4.5,5.3,4.5c2.8,0,5.3-1.1,5.3-4.5v-8.5H191.9z
				 M170.5,894c2,0,3,1.5,3,4.1c0,2.5-1,4.1-3,4.1s-3-1.5-3-4.1S168.5,894,170.5,894 M175,905.4c-1.2,0.1-2.5-0.2-3.4-0.9
				c3.1-0.5,4.9-2.8,4.9-6.6c0-4.3-2.3-6.7-6.1-6.7c-3.8,0-6.1,2.4-6.1,6.7c0,3.6,1.6,5.9,4.4,6.5c0.7,2.1,2.2,3.5,5.4,3.5
				L175,905.4z"/>
		</g>
	</g>
</g>
<g>
	<path d="M168.3,419v22.4h-4.6V419H168.3z"/>
	<path d="M171.7,427.4v-3.5h2.6v-1.5c0-4.9,3.1-6.6,6.7-6.6c1.6,0,2.9,0.3,4.1,0.8l-0.7,3.8c-0.9-0.5-1.7-0.8-2.9-0.8
		c-1.6,0-2.6,0.7-2.6,2.9v1.4h4.5v3.5h-4.5v14h-4.6v-14L171.7,427.4L171.7,427.4z"/>
	<path d="M198.9,419v22.4h-4.6V419H198.9z"/>
	<path d="M226,436.4c0,1.3,0.5,1.6,1.3,1.6c0.4,0,0.7-0.1,1.1-0.3v3.3c-0.6,0.4-1.5,0.5-2.5,0.5c-2.2,0-3.5-0.8-4-2.8
		c-0.8,2.2-2.8,2.9-5.1,2.9c-3.1,0-5.2-1.8-5.2-4.8c0-3.9,3.1-6.1,10-5.7v-1.9c0-1.7-0.8-2.6-2.4-2.6s-2.4,1-2.5,2.7l-4.4-0.8
		c0.3-3.7,3.5-5.3,7.2-5.3c4,0,6.7,1.7,6.7,5.7v7.5L226,436.4L226,436.4z M221.5,433.9c-4-0.1-5.5,0.9-5.5,2.7c0,1.2,0.8,2,2.2,2
		c1.5,0,3.2-0.8,3.2-2.6v-2.1H221.5z"/>
	<path d="M251.7,423.4c2.9,0,5.1,1.6,5.1,5.4v12.5h-4.5v-10.9c0-2-0.7-3.3-2.5-3.3c-1.7,0-3.2,1.1-3.2,4.3v9.8H242v-10.9
		c0-2-0.6-3.3-2.5-3.3c-1.7,0-3.3,1.1-3.3,4.3v9.8h-4.5v-17.6h3.8l0.5,3.4c1-2.7,2.9-3.8,5.4-3.8c2.3,0,4.2,1,4.7,3.8
		C247,424.6,249.2,423.4,251.7,423.4z"/>
	<path d="M281.5,424.6c0.8-0.7,1-1.3,1.3-2.7l3.6,1.2c-0.2,1.7-1.6,2.8-3.1,3.3c0.5,0.8,0.8,1.9,0.8,3.2c0,4.1-3.5,6.1-7.8,6.1
		c-0.8,0-1.7-0.1-2.2-0.3c-0.7,0.4-0.9,1-0.9,1.6c0,0.8,0.5,1.2,1.6,1.2h4.7c4,0,6.2,2,6.2,5.1c0,4.9-5.1,6.2-10,6.2
		c-4.2,0-8-1-8-4.5c0-2.1,1.5-3.5,4.6-3.7c-1.7-0.2-2.7-1.5-2.7-3c0-1.4,0.8-2.8,2.8-3.3c-2.3-0.9-3.6-2.6-3.6-5.3
		c0-4,3-6.2,7.6-6.2C278.5,423.4,280.2,423.8,281.5,424.6z M276.3,446.3c3.6,0,5.2-0.6,5.2-2.3c0-1.1-0.6-1.7-2.4-1.7H275
		c-1.8,0-3,0.6-3,1.9C271.9,445.7,273.6,446.3,276.3,446.3z M276.5,432.6c1.9,0,3.1-1.1,3.1-3c0-2.1-1.1-3.1-3.1-3c-1.9,0-3,1.1-3,3
		C273.5,431.4,274.5,432.6,276.5,432.6z"/>
	<path d="M286.9,432.5c0-6,3.3-9.1,8.3-9.1s8.3,3.2,8.3,9.1c0,6-3.3,9.3-8.3,9.3S286.9,438.5,286.9,432.5z M291.4,432.6
		c0,3.9,1.3,5.7,3.8,5.7c2.6,0,3.9-1.9,3.9-5.7c0-3.8-1.3-5.5-3.9-5.5C292.7,427.1,291.4,428.8,291.4,432.6z"/>
	<path d="M309.7,415.7c1.6,0,2.9,1,2.9,2.7s-1.3,2.7-2.9,2.7c-1.5,0-2.8-1-2.8-2.7C306.9,416.6,308.2,415.7,309.7,415.7z M312,423.8
		v17.6h-4.5v-17.6H312z"/>
	<path d="M321.3,427.2c1-2.6,2.9-3.8,5.6-3.8c2.8,0,5.2,1.6,5.2,5.5v12.5h-4.5v-10.9c0-2-0.7-3.3-2.6-3.3c-1.8,0-3.5,1-3.5,4.3v9.8
		H317v-17.6h3.8L321.3,427.2z"/>
	<path d="M348.5,424.6c0.8-0.7,1-1.3,1.3-2.7l3.6,1.2c-0.2,1.7-1.6,2.8-3.1,3.3c0.5,0.8,0.8,1.9,0.8,3.2c0,4.1-3.5,6.1-7.8,6.1
		c-0.8,0-1.7-0.1-2.2-0.3c-0.7,0.4-1,1-1,1.6c0,0.8,0.5,1.2,1.6,1.2h4.7c4,0,6.2,2,6.2,5.1c0,4.9-5.1,6.2-10,6.2c-4.2,0-8-1-8-4.5
		c0-2.1,1.5-3.5,4.6-3.7c-1.7-0.2-2.7-1.5-2.7-3c0-1.4,0.8-2.8,2.8-3.3c-2.3-0.9-3.6-2.6-3.6-5.3c0-4,3-6.2,7.6-6.2
		C345.5,423.4,347.2,423.8,348.5,424.6z M343.3,446.3c3.6,0,5.2-0.6,5.2-2.3c0-1.1-0.6-1.7-2.4-1.7H342c-1.8,0-3,0.6-3,1.9
		C338.9,445.7,340.6,446.3,343.3,446.3z M343.4,432.6c1.9,0,3.1-1.1,3.1-3c0-2.1-1.1-3.1-3.1-3c-1.9,0-3,1.1-3,3
		C340.4,431.4,341.5,432.6,343.4,432.6z"/>
	<path d="M375.2,440.7c-1.4,0.7-3.1,1.1-5,1.1c-3.4,0-5.5-1.6-5.5-5.4v-9h-2.5v-3.5h2.6v-3.7l4.5-0.5v4.3h5.2v3.5h-5.2v8.1
		c0,1.9,0.8,2.5,2.2,2.5c1.1,0,2-0.3,3-1L375.2,440.7z"/>
	<path d="M377,432.5c0-6,3.3-9.1,8.3-9.1s8.3,3.2,8.3,9.1c0,6-3.3,9.3-8.3,9.3S377,438.5,377,432.5z M381.5,432.6
		c0,3.9,1.3,5.7,3.8,5.7c2.6,0,3.9-1.9,3.9-5.7c0-3.8-1.3-5.5-3.9-5.5S381.5,428.8,381.5,432.6z"/>
	<path d="M416.9,440.7c-1.4,0.7-3.1,1.1-5,1.1c-3.4,0-5.5-1.6-5.5-5.4v-9h-2.5v-3.5h2.6v-3.7l4.5-0.5v4.3h5.2v3.5H411v8.1
		c0,1.9,0.8,2.5,2.2,2.5c1.1,0,2-0.3,3-1L416.9,440.7z"/>
	<path d="M430.9,428.5c-0.6-0.2-1.1-0.2-1.8-0.2c-2.2,0-4.6,1.3-4.6,4.8v8.3H420v-17.6h3.9l0.5,4.8c0.7-3.1,2.6-5.4,7-5.2
		L430.9,428.5z"/>
	<path d="M447.4,436.4c0,1.3,0.5,1.6,1.3,1.6c0.4,0,0.7-0.1,1.1-0.3v3.3c-0.6,0.4-1.5,0.5-2.5,0.5c-2.2,0-3.5-0.8-4-2.8
		c-0.8,2.2-2.8,2.9-5.1,2.9c-3.1,0-5.2-1.8-5.2-4.8c0-3.9,3.1-6.1,10-5.7v-1.9c0-1.7-0.8-2.6-2.4-2.6s-2.4,1-2.5,2.7l-4.4-0.8
		c0.3-3.7,3.5-5.3,7.2-5.3c4,0,6.7,1.7,6.7,5.7v7.5L447.4,436.4L447.4,436.4z M442.9,433.9c-4-0.1-5.5,0.9-5.5,2.7
		c0,1.2,0.8,2,2.2,2c1.5,0,3.2-0.8,3.2-2.6L442.9,433.9L442.9,433.9z"/>
	<path d="M450,423.8h4.8l2.6,8.5c0.9,3,1.3,5.7,1.3,5.7h0.2c0,0,0.3-2.7,1.3-5.7l2.7-8.5h4.7l-6.2,17.6h-5.1L450,423.8z"/>
	<path d="M480.5,435.8l3.9,1.3c-0.8,3.5-4,4.8-7.4,4.8c-4.9,0-8.2-3.3-8.2-9c0-6,3.2-9.4,8.4-9.4c4.8,0,7.3,3.2,7.3,7.7
		c0,0.8-0.1,1.7-0.3,2.4h-11c0.1,2.9,1.5,4.9,4,4.9C478.7,438.3,479.9,437.7,480.5,435.8z M480,430.7c0-0.3,0-0.4,0-0.6
		c0-1.9-1.1-3.3-3.1-3.3c-2.1,0-3.4,1.5-3.7,3.9H480z"/>
	<path d="M495.3,441.3c-1,0.3-1.8,0.4-2.7,0.4c-2.4,0-4.6-1.2-4.6-4.3V416h4.5v20.2c0,1.1,0.7,1.6,1.6,1.6c0.5,0,0.9-0.1,1.3-0.3
		L495.3,441.3z"/>
	<path d="M520.6,436.4c0,1.3,0.5,1.6,1.3,1.6c0.4,0,0.7-0.1,1.1-0.3v3.3c-0.6,0.4-1.5,0.5-2.5,0.5c-2.2,0-3.5-0.8-4-2.8
		c-0.8,2.2-2.8,2.9-5.1,2.9c-3.1,0-5.2-1.8-5.2-4.8c0-3.9,3.1-6.1,10-5.7v-1.9c0-1.7-0.8-2.6-2.4-2.6c-1.6,0-2.4,1-2.5,2.7l-4.4-0.8
		c0.3-3.7,3.5-5.3,7.2-5.3c4,0,6.7,1.7,6.7,5.7v7.5L520.6,436.4L520.6,436.4z M516,433.9c-4-0.1-5.5,0.9-5.5,2.7c0,1.2,0.8,2,2.2,2
		c1.5,0,3.2-0.8,3.2-2.6L516,433.9L516,433.9z"/>
	<path d="M533.1,441.3c-1,0.3-1.8,0.4-2.7,0.4c-2.4,0-4.6-1.2-4.6-4.3V416h4.5v20.2c0,1.1,0.7,1.6,1.6,1.6c0.5,0,0.9-0.1,1.3-0.3
		L533.1,441.3z"/>
	<path d="M543.7,441.3c-1,0.3-1.8,0.4-2.7,0.4c-2.4,0-4.6-1.2-4.6-4.3V416h4.5v20.2c0,1.1,0.7,1.6,1.6,1.6c0.5,0,0.9-0.1,1.3-0.3
		L543.7,441.3z"/>
</g>
<g>
	<path d="M176.7,481.7c-1.4,0.7-3.1,1.1-5,1.1c-3.4,0-5.5-1.6-5.5-5.4v-9h-2.5v-3.5h2.6v-3.7l4.5-0.5v4.3h5.2v3.5h-5.2v8.1
		c0,1.9,0.8,2.5,2.2,2.5c1.1,0,2-0.3,3-1L176.7,481.7z"/>
	<path d="M184.3,468.2c0.9-2.5,2.7-3.8,5.4-3.8c2.8,0,5.2,1.6,5.2,5.5v12.5h-4.5v-10.9c0-2-0.7-3.3-2.6-3.3c-1.8,0-3.5,0.9-3.5,4.3
		v9.8h-4.5V457h4.5L184.3,468.2L184.3,468.2z"/>
	<path d="M213,477.4c0,1.3,0.5,1.6,1.3,1.6c0.4,0,0.7-0.1,1.1-0.3v3.3c-0.6,0.4-1.5,0.5-2.5,0.5c-2.2,0-3.5-0.8-4-2.8
		c-0.8,2.2-2.8,2.9-5.1,2.9c-3.1,0-5.2-1.8-5.2-4.8c0-3.9,3.1-6.1,10-5.7v-1.9c0-1.7-0.8-2.6-2.4-2.6s-2.4,1-2.5,2.7l-4.4-0.8
		c0.3-3.7,3.5-5.3,7.2-5.3c4,0,6.7,1.7,6.7,5.7v7.5L213,477.4L213,477.4z M208.5,474.9c-4-0.1-5.5,0.9-5.5,2.7c0,1.2,0.8,2,2.2,2
		c1.5,0,3.2-0.8,3.2-2.6v-2.1H208.5z"/>
	<path d="M229.5,481.7c-1.4,0.7-3.1,1.1-5,1.1c-3.4,0-5.5-1.6-5.5-5.4v-9h-2.5v-3.5h2.6v-3.7l4.5-0.5v4.3h5.2v3.5h-5.2v8.1
		c0,1.9,0.8,2.5,2.2,2.5c1.1,0,2-0.3,3-1L229.5,481.7z"/>
	<path d="M256.2,472.5c1,3.5,1.2,6.5,1.2,6.5h0.2c0,0,0.2-2.9,1-6.5l1.9-7.7h4.5l-4.6,17.6H255l-1.9-7c-0.8-3-1-5.6-1-5.6h-0.2
		c0,0-0.2,2.6-0.9,5.7l-1.7,6.9h-5.4l-4.9-17.6h4.6l2,7.7c0.9,3.5,1.1,6.5,1.1,6.5h0.2c0,0,0.2-3,1.1-6.5l2-7.7h4.3L256.2,472.5z"/>
	<path d="M281.1,477.4c0,1.3,0.5,1.6,1.3,1.6c0.4,0,0.7-0.1,1.1-0.3v3.3c-0.6,0.4-1.5,0.5-2.5,0.5c-2.2,0-3.5-0.8-4-2.8
		c-0.8,2.2-2.8,2.9-5.1,2.9c-3.1,0-5.2-1.8-5.2-4.8c0-3.9,3.1-6.1,10-5.7v-1.9c0-1.7-0.8-2.6-2.4-2.6s-2.4,1-2.5,2.7l-4.4-0.8
		c0.3-3.7,3.5-5.3,7.2-5.3c4,0,6.7,1.7,6.7,5.7v7.5L281.1,477.4L281.1,477.4z M276.5,474.9c-4-0.1-5.5,0.9-5.5,2.7
		c0,1.2,0.8,2,2.2,2c1.5,0,3.2-0.8,3.2-2.6L276.5,474.9L276.5,474.9z"/>
	<path d="M291.2,473.4c1,3.4,1.3,5.6,1.3,5.6h0.2c0,0,0.3-2.2,1.3-5.6l2.6-8.5h4.7l-6.8,19.1c-1.9,5.4-4.3,6.4-7.8,6.4
		c-0.9,0-2.1-0.2-2.9-0.4l0.6-4c0.7,0.4,1.4,0.6,2.3,0.6c1.7,0,2.7-0.8,3.5-3.1l-6.5-18.5h4.9L291.2,473.4z"/>
	<path d="M317.4,460v22.4h-4.6V460H317.4z"/>
	<path d="M346.4,472.5c1,3.5,1.2,6.5,1.2,6.5h0.2c0,0,0.2-2.9,1-6.5l1.9-7.7h4.5l-4.6,17.6h-5.4l-1.9-7c-0.8-3-1-5.6-1-5.6h-0.2
		c0,0-0.2,2.6-0.9,5.7l-1.7,6.9H334l-4.9-17.6h4.6l2,7.7c0.9,3.5,1.1,6.5,1.1,6.5h0.2c0,0,0.2-3,1.1-6.5l2-7.7h4.3L346.4,472.5z"/>
	<path d="M371.3,477.4c0,1.3,0.5,1.6,1.3,1.6c0.4,0,0.7-0.1,1.1-0.3v3.3c-0.6,0.4-1.5,0.5-2.5,0.5c-2.2,0-3.5-0.8-4-2.8
		c-0.8,2.2-2.8,2.9-5.1,2.9c-3.1,0-5.2-1.8-5.2-4.8c0-3.9,3.1-6.1,10-5.7v-1.9c0-1.7-0.8-2.6-2.4-2.6s-2.4,1-2.5,2.7l-4.4-0.8
		c0.3-3.7,3.5-5.3,7.2-5.3c4,0,6.7,1.7,6.7,5.7v7.5L371.3,477.4L371.3,477.4z M366.8,474.9c-4-0.1-5.5,0.9-5.5,2.7
		c0,1.2,0.8,2,2.2,2c1.5,0,3.2-0.8,3.2-2.6L366.8,474.9L366.8,474.9z"/>
	<path d="M381.2,468.2c0.9-2.6,2.9-3.8,5.6-3.8c2.8,0,5.2,1.6,5.2,5.5v12.5h-4.5v-10.9c0-2-0.7-3.3-2.6-3.3c-1.8,0-3.5,1-3.5,4.3
		v9.8h-4.5v-17.6h3.8L381.2,468.2z"/>
	<path d="M407.9,481.7c-1.4,0.7-3.1,1.1-5,1.1c-3.4,0-5.5-1.6-5.5-5.4v-9h-2.5v-3.5h2.6v-3.7l4.5-0.5v4.3h5.2v3.5H402v8.1
		c0,1.9,0.8,2.5,2.2,2.5c1.1,0,2-0.3,3-1L407.9,481.7z"/>
	<path d="M430.3,481.7c-1.4,0.7-3.1,1.1-5,1.1c-3.4,0-5.5-1.6-5.5-5.4v-9h-2.5v-3.5h2.6v-3.7l4.5-0.5v4.3h5.2v3.5h-5.2v8.1
		c0,1.9,0.8,2.5,2.2,2.5c1.1,0,2-0.3,3-1L430.3,481.7z"/>
	<path d="M432.1,473.5c0-6,3.3-9.1,8.3-9.1s8.3,3.2,8.3,9.1c0,6-3.3,9.3-8.3,9.3S432.1,479.5,432.1,473.5z M436.6,473.6
		c0,3.9,1.3,5.7,3.8,5.7c2.6,0,3.9-1.9,3.9-5.7c0-3.8-1.3-5.5-3.9-5.5C437.9,468.1,436.6,469.8,436.6,473.6z"/>
	<path d="M481.1,464.4c2.9,0,5.1,1.6,5.1,5.4v12.5h-4.5v-10.9c0-2-0.7-3.3-2.5-3.3c-1.7,0-3.2,1.1-3.2,4.3v9.8h-4.6v-10.9
		c0-2-0.6-3.3-2.5-3.3c-1.7,0-3.3,1.1-3.3,4.3v9.8H461v-17.6h3.8l0.5,3.4c1-2.7,2.9-3.8,5.4-3.8c2.3,0,4.2,1,4.7,3.8
		C476.3,465.6,478.6,464.4,481.1,464.4z"/>
	<path d="M504.2,477.4c0,1.3,0.5,1.6,1.3,1.6c0.4,0,0.7-0.1,1.1-0.3v3.3c-0.6,0.4-1.5,0.5-2.5,0.5c-2.2,0-3.5-0.8-4-2.8
		c-0.8,2.2-2.8,2.9-5.1,2.9c-3.1,0-5.2-1.8-5.2-4.8c0-3.9,3.1-6.1,10-5.7v-1.9c0-1.7-0.8-2.6-2.4-2.6s-2.4,1-2.5,2.7l-4.4-0.8
		c0.3-3.7,3.5-5.3,7.2-5.3c4,0,6.7,1.7,6.7,5.7v7.5L504.2,477.4L504.2,477.4z M499.6,474.9c-4-0.1-5.5,0.9-5.5,2.7
		c0,1.2,0.8,2,2.2,2c1.5,0,3.2-0.8,3.2-2.6L499.6,474.9L499.6,474.9z"/>
	<path d="M526,482.4h-5.4l-5.3-7.4h-1.1v7.4h-4.5V457h4.5v14.4h0.9l4.9-6.6h5.3L519,473L526,482.4z"/>
	<path d="M538.4,476.8l3.9,1.3c-0.8,3.5-4,4.8-7.4,4.8c-4.9,0-8.2-3.3-8.2-9c0-6,3.2-9.4,8.4-9.4c4.8,0,7.3,3.2,7.3,7.7
		c0,0.8-0.1,1.7-0.3,2.4h-11c0.1,2.9,1.5,4.9,4,4.9C536.7,479.3,537.8,478.7,538.4,476.8z M537.9,471.7c0-0.3,0-0.4,0-0.6
		c0-1.9-1.1-3.3-3.1-3.3c-2.1,0-3.4,1.5-3.7,3.9H537.9z"/>
</g>
<g>
	<path d="M176.7,522.7c-1.4,0.7-3.1,1.1-5,1.1c-3.4,0-5.5-1.6-5.5-5.4v-9h-2.5v-3.5h2.6v-3.7l4.5-0.5v4.3h5.2v3.5h-5.2v8.1
		c0,1.9,0.8,2.5,2.2,2.5c1.1,0,2-0.3,3-1L176.7,522.7z"/>
	<path d="M184.3,509.2c0.9-2.5,2.7-3.8,5.4-3.8c2.8,0,5.2,1.6,5.2,5.5v12.5h-4.5v-10.9c0-2-0.7-3.3-2.6-3.3c-1.8,0-3.5,0.9-3.5,4.3
		v9.8h-4.5V498h4.5V509.2z"/>
	<path d="M210.3,517.8l3.9,1.3c-0.8,3.5-4,4.8-7.4,4.8c-4.9,0-8.2-3.3-8.2-9c0-6,3.2-9.4,8.4-9.4c4.8,0,7.3,3.2,7.3,7.7
		c0,0.8-0.1,1.7-0.3,2.4h-11c0.1,2.9,1.5,4.9,4,4.9C208.6,520.3,209.7,519.7,210.3,517.8z M209.8,512.7c0-0.3,0-0.4,0-0.6
		c0-1.9-1.1-3.3-3.1-3.3c-2.1,0-3.4,1.5-3.7,3.9L209.8,512.7L209.8,512.7z"/>
	<path d="M246.6,505.4c2.9,0,5.1,1.6,5.1,5.4v12.5h-4.5v-10.9c0-2-0.7-3.3-2.5-3.3c-1.7,0-3.2,1.1-3.2,4.3v9.8h-4.6v-10.9
		c0-2-0.6-3.3-2.5-3.3c-1.7,0-3.3,1.1-3.3,4.3v9.8h-4.5v-17.6h3.8l0.5,3.4c1-2.7,2.9-3.8,5.4-3.8c2.3,0,4.2,1,4.7,3.8
		C241.9,506.6,244.1,505.4,246.6,505.4z"/>
	<path d="M255.4,514.5c0-6,3.3-9.1,8.3-9.1s8.3,3.2,8.3,9.1c0,6-3.3,9.3-8.3,9.3S255.4,520.5,255.4,514.5z M259.9,514.6
		c0,3.9,1.3,5.7,3.8,5.7c2.6,0,3.9-1.9,3.9-5.7s-1.3-5.5-3.9-5.5C261.2,509.1,259.9,510.8,259.9,514.6z"/>
	<path d="M278,518c0.3,1.9,1.7,2.7,3.5,2.7c1.6,0,2.8-0.6,2.8-1.8c0-1.1-0.7-1.7-2.4-2.2l-2.6-0.6c-3.1-0.8-4.5-2.5-4.5-5.1
		c0-4.3,3.5-5.5,7-5.5c4,0,6.4,1.4,6.7,4.9l-4.3,0.6c-0.2-1.5-1-2.1-2.7-2.1c-1.4,0-2.4,0.6-2.4,1.7c0,1,0.5,1.6,1.9,1.9l2.5,0.6
		c3.4,0.8,5.1,2.5,5.1,5.5c0,3.9-3.1,5.4-7.3,5.4c-4.2,0-6.7-1.2-7.3-4.5L278,518z"/>
	<path d="M303.5,522.7c-1.4,0.7-3.1,1.1-5,1.1c-3.4,0-5.5-1.6-5.5-5.4v-9h-2.5v-3.5h2.6v-3.7l4.5-0.5v4.3h5.2v3.5h-5.2v8.1
		c0,1.9,0.8,2.5,2.2,2.5c1.1,0,2-0.3,3-1L303.5,522.7z"/>
	<path d="M313.8,514.5c0-6,3.3-9.1,8.3-9.1s8.3,3.2,8.3,9.1c0,6-3.3,9.3-8.3,9.3S313.8,520.5,313.8,514.5z M318.3,514.6
		c0,3.9,1.3,5.7,3.8,5.7c2.6,0,3.9-1.9,3.9-5.7s-1.3-5.5-3.9-5.5C319.6,509.1,318.3,510.8,318.3,514.6z"/>
	<path d="M332.3,509.4v-3.5h2.6v-1.5c0-4.9,3.1-6.6,6.7-6.6c1.6,0,2.9,0.3,4.1,0.8l-0.7,3.8c-0.9-0.5-1.7-0.8-2.9-0.8
		c-1.6,0-2.6,0.7-2.6,2.9v1.4h4.5v3.5h-4.5v14H335v-14L332.3,509.4L332.3,509.4z"/>
	<path d="M365,517.8l3.9,1.3c-0.8,3.5-4,4.8-7.4,4.8c-4.9,0-8.2-3.3-8.2-9c0-6,3.2-9.4,8.4-9.4c4.8,0,7.3,3.2,7.3,7.7
		c0,0.8-0.1,1.7-0.3,2.4h-11c0.1,2.9,1.5,4.9,4,4.9C363.2,520.3,364.4,519.7,365,517.8z M364.5,512.7c0-0.3,0-0.4,0-0.6
		c0-1.9-1.1-3.3-3.1-3.3c-2.1,0-3.4,1.5-3.7,3.9L364.5,512.7L364.5,512.7z"/>
	<path d="M370.3,505.8h4.8l2.6,8.5c0.9,3,1.3,5.7,1.3,5.7h0.2c0,0,0.3-2.7,1.3-5.7l2.7-8.5h4.7l-6.2,17.6h-5.1L370.3,505.8z"/>
	<path d="M400.8,517.8l3.9,1.3c-0.8,3.5-4,4.8-7.4,4.8c-4.9,0-8.2-3.3-8.2-9c0-6,3.2-9.4,8.4-9.4c4.8,0,7.3,3.2,7.3,7.7
		c0,0.8-0.1,1.7-0.3,2.4h-11c0.1,2.9,1.5,4.9,4,4.9C399,520.3,400.2,519.7,400.8,517.8z M400.3,512.7c0-0.3,0-0.4,0-0.6
		c0-1.9-1.1-3.3-3.1-3.3c-2.1,0-3.4,1.5-3.7,3.9L400.3,512.7L400.3,512.7z"/>
	<path d="M419.6,510.5c-0.6-0.2-1.1-0.2-1.8-0.2c-2.2,0-4.6,1.3-4.6,4.8v8.3h-4.5v-17.6h3.9l0.5,4.8c0.7-3.1,2.6-5.4,7-5.2
		L419.6,510.5z"/>
	<path d="M428.2,514.4c1,3.4,1.3,5.6,1.3,5.6h0.2c0,0,0.3-2.2,1.3-5.6l2.6-8.5h4.7l-6.8,19.1c-1.9,5.4-4.3,6.4-7.8,6.4
		c-0.9,0-2.1-0.2-2.9-0.4l0.6-4c0.7,0.4,1.4,0.6,2.3,0.6c1.7,0,2.7-0.8,3.5-3.1l-6.5-18.5h4.9L428.2,514.4z"/>
</g>
<g>
	<path d="M183.7,546.4c2.9,0,5.1,1.6,5.1,5.4v12.5h-4.5v-10.9c0-2-0.7-3.3-2.5-3.3c-1.7,0-3.2,1.1-3.2,4.3v9.8H174v-10.9
		c0-2-0.6-3.3-2.5-3.3c-1.7,0-3.3,1.1-3.3,4.3v9.8h-4.5v-17.6h3.8l0.5,3.4c1-2.7,2.9-3.8,5.4-3.8c2.3,0,4.2,1,4.7,3.8
		C179,547.6,181.2,546.4,183.7,546.4z"/>
	<path d="M192.5,555.5c0-6,3.3-9.1,8.3-9.1s8.3,3.2,8.3,9.1c0,6-3.3,9.3-8.3,9.3S192.5,561.5,192.5,555.5z M196.9,555.6
		c0,3.9,1.3,5.7,3.8,5.7c2.6,0,3.9-1.9,3.9-5.7s-1.3-5.5-3.9-5.5C198.2,550.1,196.9,551.8,196.9,555.6z"/>
	<path d="M233,546.4c2.9,0,5.1,1.6,5.1,5.4v12.5h-4.5v-10.9c0-2-0.7-3.3-2.5-3.3c-1.7,0-3.2,1.1-3.2,4.3v9.8h-4.6v-10.9
		c0-2-0.6-3.3-2.5-3.3c-1.7,0-3.3,1.1-3.3,4.3v9.8H213v-17.6h3.8l0.5,3.4c1-2.7,2.9-3.8,5.4-3.8c2.3,0,4.2,1,4.7,3.8
		C228.3,547.6,230.5,546.4,233,546.4z"/>
	<path d="M253.6,558.8l3.9,1.3c-0.8,3.5-4,4.8-7.4,4.8c-4.9,0-8.2-3.3-8.2-9c0-6,3.2-9.4,8.4-9.4c4.8,0,7.3,3.2,7.3,7.7
		c0,0.8-0.1,1.7-0.3,2.4h-11c0.1,2.9,1.5,4.9,4,4.9C251.8,561.3,253,560.7,253.6,558.8z M253.1,553.7c0-0.3,0-0.4,0-0.6
		c0-1.9-1.1-3.3-3.1-3.3c-2.1,0-3.4,1.5-3.7,3.9L253.1,553.7L253.1,553.7z"/>
	<path d="M265.7,550.2c1-2.6,2.9-3.8,5.6-3.8c2.8,0,5.2,1.6,5.2,5.5v12.5H272v-10.9c0-2-0.7-3.3-2.6-3.3c-1.8,0-3.5,1-3.5,4.3v9.8
		h-4.5v-17.6h3.8L265.7,550.2z"/>
	<path d="M292.4,563.7c-1.4,0.7-3.1,1.1-5,1.1c-3.4,0-5.5-1.6-5.5-5.4v-9h-2.5v-3.5h2.6v-3.7l4.5-0.5v4.3h5.2v3.5h-5.2v8.1
		c0,1.9,0.8,2.5,2.2,2.5c1.1,0,2-0.3,3-1L292.4,563.7z"/>
	<path d="M308.9,542v22.4h-4.6V542H308.9z"/>
	<path d="M327.4,550.2c0.9-2.5,2.7-3.8,5.4-3.8c2.8,0,5.2,1.6,5.2,5.5v12.5h-4.5v-10.9c0-2-0.7-3.3-2.6-3.3c-1.8,0-3.5,0.9-3.5,4.3
		v9.8h-4.6V539h4.5v11.2H327.4z"/>
	<path d="M356,559.4c0,1.3,0.5,1.6,1.3,1.6c0.4,0,0.7-0.1,1.1-0.3v3.3c-0.6,0.4-1.5,0.5-2.5,0.5c-2.2,0-3.5-0.8-4-2.8
		c-0.8,2.2-2.8,2.9-5.1,2.9c-3.1,0-5.2-1.8-5.2-4.8c0-3.9,3.1-6.1,10-5.7v-1.9c0-1.7-0.8-2.6-2.4-2.6s-2.4,1-2.5,2.7l-4.4-0.8
		c0.3-3.7,3.5-5.3,7.2-5.3c4,0,6.7,1.7,6.7,5.7v7.5L356,559.4L356,559.4z M351.5,556.9c-4-0.1-5.5,0.9-5.5,2.7c0,1.2,0.8,2,2.2,2
		c1.5,0,3.2-0.8,3.2-2.6L351.5,556.9L351.5,556.9z"/>
	<path d="M358.6,546.8h4.8l2.6,8.5c0.9,3,1.3,5.7,1.3,5.7h0.2c0,0,0.3-2.7,1.3-5.7l2.7-8.5h4.7l-6.2,17.6h-5.2L358.6,546.8z"/>
	<path d="M389.1,558.8l3.9,1.3c-0.8,3.5-4,4.8-7.4,4.8c-4.9,0-8.2-3.3-8.2-9c0-6,3.2-9.4,8.4-9.4c4.8,0,7.3,3.2,7.3,7.7
		c0,0.8-0.1,1.7-0.3,2.4h-11c0.1,2.9,1.5,4.9,4,4.9C387.4,561.3,388.5,560.7,389.1,558.8z M388.7,553.7c0-0.3,0-0.4,0-0.6
		c0-1.9-1.1-3.3-3.1-3.3c-2.1,0-3.4,1.5-3.7,3.9L388.7,553.7L388.7,553.7z"/>
	<path d="M399.9,558.5c1.7,0,3.1,1.3,3.1,3.1c0,1.7-1.3,3-3.1,3c-1.7,0-3-1.3-3-3C396.9,559.8,398.3,558.5,399.9,558.5z"/>
</g>
<g>
	<path d="M178.3,605.4h-14.6V583h14.6v4h-10v5.2h8.8v3.9h-8.8v5.4h10V605.4z"/>
	<path d="M190.6,601.9c-1.4-2.3-1.5-3.1-1.5-3.1h-0.2c0,0-0.2,0.8-1.6,3.1l-2.1,3.5h-4.9l5.7-8.8l-5.4-8.8h5.2l1.6,2.9
		c1.4,2.6,1.6,3.4,1.6,3.4h0.2c0,0,0.2-0.8,1.6-3.4l1.7-2.9h4.9l-5.4,8.6l5.7,8.9h-5.1L190.6,601.9z"/>
	<path d="M205.2,613.1h-4.5v-25.3h3.8l0.6,3.4c1-2.8,3.4-3.8,5.8-3.8c4.3,0,6.8,3.2,6.8,8.8s-2.7,9.7-7.5,9.7
		c-2.7,0-4.4-1.3-4.9-2.8v10L205.2,613.1L205.2,613.1z M205.2,598.3c0,3.2,2,4.2,3.6,4.2c2.3,0,4.3-1.9,4.3-5.9
		c0-3.8-1.5-5.5-3.9-5.5c-2.1,0-4,1.6-4,4.6V598.3L205.2,598.3z"/>
	<path d="M232.1,599.8l3.9,1.3c-0.8,3.5-4,4.8-7.4,4.8c-4.9,0-8.2-3.3-8.2-9c0-6,3.2-9.4,8.4-9.4c4.8,0,7.3,3.2,7.3,7.7
		c0,0.8-0.1,1.7-0.3,2.4h-11c0.1,2.9,1.5,4.9,4,4.9C230.3,602.3,231.5,601.7,232.1,599.8z M231.6,594.7c0-0.3,0-0.4,0-0.6
		c0-1.9-1.1-3.3-3.1-3.3c-2.1,0-3.4,1.5-3.7,3.9L231.6,594.7L231.6,594.7z"/>
	<path d="M250.9,592.5c-0.6-0.2-1.1-0.2-1.8-0.2c-2.2,0-4.6,1.3-4.6,4.8v8.3H240v-17.6h3.9l0.5,4.8c0.7-3.1,2.6-5.4,7-5.2
		L250.9,592.5z"/>
	<path d="M256.6,579.7c1.6,0,2.9,1,2.9,2.7s-1.3,2.7-2.9,2.7c-1.5,0-2.8-1-2.8-2.7C253.8,580.6,255.1,579.7,256.6,579.7z
		 M258.9,587.8v17.6h-4.5v-17.6H258.9z"/>
	<path d="M274.5,599.8l3.9,1.3c-0.8,3.5-4,4.8-7.4,4.8c-4.9,0-8.2-3.3-8.2-9c0-6,3.2-9.4,8.4-9.4c4.8,0,7.3,3.2,7.3,7.7
		c0,0.8-0.1,1.7-0.3,2.4h-11c0.1,2.9,1.5,4.9,4,4.9C272.8,602.3,273.9,601.7,274.5,599.8z M274.1,594.7c0-0.3,0-0.4,0-0.6
		c0-1.9-1.1-3.3-3.1-3.3c-2.1,0-3.4,1.5-3.7,3.9L274.1,594.7L274.1,594.7z"/>
	<path d="M286.7,591.2c1-2.6,2.9-3.8,5.6-3.8c2.8,0,5.2,1.6,5.2,5.5v12.5H293v-10.9c0-2-0.7-3.3-2.6-3.3c-1.8,0-3.5,1-3.5,4.3v9.8
		h-4.5v-17.6h3.8L286.7,591.2z"/>
	<path d="M316.7,600.7c-0.6,3.5-3.6,5.1-7.2,5.1c-4.9,0-8.2-3.3-8.2-9.2s3.3-9.3,8.4-9.3c4,0,6.6,2.2,6.8,5.7l-3.9,1
		c-0.3-2-1.3-3.1-3-3.1c-2.5,0-3.9,2.2-3.9,5.6c0,3.5,1.5,5.7,4,5.7c1.6,0,2.7-0.7,3.1-2.7L316.7,600.7z"/>
	<path d="M322.3,579.7c1.6,0,2.9,1,2.9,2.7s-1.3,2.7-2.9,2.7c-1.5,0-2.8-1-2.8-2.7C319.5,580.6,320.8,579.7,322.3,579.7z
		 M324.6,587.8v17.6h-4.5v-17.6H324.6z"/>
	<path d="M333.9,591.2c1-2.6,2.9-3.8,5.6-3.8c2.8,0,5.2,1.6,5.2,5.5v12.5h-4.5v-10.9c0-2-0.7-3.3-2.6-3.3c-1.8,0-3.5,1-3.5,4.3v9.8
		h-4.5v-17.6h3.8L333.9,591.2z"/>
	<path d="M361.1,588.6c0.8-0.7,1-1.3,1.3-2.7l3.6,1.2c-0.2,1.7-1.6,2.8-3.1,3.3c0.5,0.8,0.8,1.9,0.8,3.2c0,4.1-3.5,6.1-7.8,6.1
		c-0.8,0-1.7-0.1-2.2-0.3c-0.7,0.4-1,1-1,1.6c0,0.8,0.5,1.2,1.6,1.2h4.7c4,0,6.2,2,6.2,5.1c0,4.9-5.1,6.2-10,6.2c-4.2,0-8-1-8-4.5
		c0-2.1,1.5-3.5,4.6-3.7c-1.7-0.2-2.7-1.5-2.7-3c0-1.4,0.8-2.8,2.8-3.3c-2.3-0.9-3.6-2.6-3.6-5.3c0-4,3-6.2,7.6-6.2
		C358.1,587.4,359.8,587.8,361.1,588.6z M355.9,610.3c3.6,0,5.2-0.6,5.2-2.3c0-1.1-0.6-1.7-2.4-1.7h-4.1c-1.8,0-3,0.6-3,1.9
		C351.5,609.7,353.2,610.3,355.9,610.3z M356.1,596.6c1.9,0,3.1-1.1,3.1-3c0-2.1-1.1-3.1-3.1-3c-1.9,0-3,1.1-3,3
		C353.1,595.4,354.1,596.6,356.1,596.6z"/>
	<path d="M390,600.4c0,1.3,0.5,1.6,1.3,1.6c0.4,0,0.7-0.1,1.1-0.3v3.3c-0.6,0.4-1.5,0.5-2.5,0.5c-2.2,0-3.5-0.8-4-2.8
		c-0.8,2.2-2.8,2.9-5.1,2.9c-3.1,0-5.2-1.8-5.2-4.8c0-3.9,3.1-6.1,10-5.7v-1.9c0-1.7-0.8-2.6-2.4-2.6s-2.4,1-2.5,2.7l-4.4-0.8
		c0.3-3.7,3.5-5.3,7.2-5.3c4,0,6.7,1.7,6.7,5.7v7.5L390,600.4L390,600.4z M385.5,597.9c-4-0.1-5.5,0.9-5.5,2.7c0,1.2,0.8,2,2.2,2
		c1.5,0,3.2-0.8,3.2-2.6L385.5,597.9L385.5,597.9z"/>
	<path d="M402.6,605.3c-1,0.3-1.8,0.4-2.7,0.4c-2.4,0-4.6-1.2-4.6-4.3V580h4.5v20.2c0,1.1,0.7,1.6,1.6,1.6c0.5,0,0.9-0.1,1.3-0.3
		L402.6,605.3z"/>
	<path d="M413.2,605.3c-1,0.3-1.8,0.4-2.7,0.4c-2.4,0-4.6-1.2-4.6-4.3V580h4.5v20.2c0,1.1,0.7,1.6,1.6,1.6c0.5,0,0.9-0.1,1.3-0.3
		L413.2,605.3z"/>
	<path d="M424.1,596.5c0-6,3.3-9.1,8.3-9.1s8.3,3.2,8.3,9.1c0,6-3.3,9.3-8.3,9.3S424.1,602.5,424.1,596.5z M428.6,596.6
		c0,3.9,1.3,5.7,3.8,5.7c2.6,0,3.9-1.9,3.9-5.7s-1.3-5.5-3.9-5.5C429.9,591.1,428.6,592.8,428.6,596.6z"/>
	<path d="M442.6,591.4v-3.5h2.6v-1.5c0-4.9,3.1-6.6,6.7-6.6c1.6,0,2.9,0.3,4.1,0.8l-0.7,3.8c-0.9-0.5-1.7-0.8-2.9-0.8
		c-1.6,0-2.6,0.7-2.6,2.9v1.4h4.5v3.5h-4.5v14h-4.6v-14L442.6,591.4L442.6,591.4z"/>
	<path d="M475.7,604.7c-1.4,0.7-3.1,1.1-5,1.1c-3.4,0-5.5-1.6-5.5-5.4v-9h-2.5v-3.5h2.6v-3.7l4.5-0.5v4.3h5.2v3.5h-5.2v8.1
		c0,1.9,0.8,2.5,2.2,2.5c1.1,0,2-0.3,3-1L475.7,604.7z"/>
	<path d="M483.3,591.2c0.9-2.5,2.7-3.8,5.4-3.8c2.8,0,5.2,1.6,5.2,5.5v12.5h-4.5v-10.9c0-2-0.7-3.3-2.6-3.3c-1.8,0-3.5,0.9-3.5,4.3
		v9.8h-4.5V580h4.5L483.3,591.2L483.3,591.2z"/>
	<path d="M509.4,599.8l3.9,1.3c-0.8,3.5-4,4.8-7.4,4.8c-4.9,0-8.2-3.3-8.2-9c0-6,3.2-9.4,8.4-9.4c4.8,0,7.3,3.2,7.3,7.7
		c0,0.8-0.1,1.7-0.3,2.4h-11c0.1,2.9,1.5,4.9,4,4.9C507.6,602.3,508.8,601.7,509.4,599.8z M508.9,594.7c0-0.3,0-0.4,0-0.6
		c0-1.9-1.1-3.3-3.1-3.3c-2.1,0-3.4,1.5-3.7,3.9L508.9,594.7L508.9,594.7z"/>
</g>
<g>
	<path d="M166.8,646.4h-3.1V621h4.5v11.1c1-2.7,3.2-3.7,5.7-3.7c4.3,0,6.8,3.2,6.8,8.8s-2.7,9.7-7.5,9.7c-3,0-4.7-1.3-5.2-3
		L166.8,646.4z M168.2,639.3c0,3.2,2,4.2,3.6,4.2c2.3,0,4.3-1.9,4.3-5.9c0-3.8-1.5-5.5-3.9-5.5c-2.1,0-4,1.6-4,4.4V639.3
		L168.2,639.3z"/>
	<path d="M195.1,640.8l3.9,1.3c-0.8,3.5-4,4.8-7.4,4.8c-4.9,0-8.2-3.3-8.2-9c0-6,3.2-9.4,8.4-9.4c4.8,0,7.3,3.2,7.3,7.7
		c0,0.8-0.1,1.7-0.3,2.4h-11c0.1,2.9,1.5,4.9,4,4.9C193.3,643.3,194.5,642.7,195.1,640.8z M194.6,635.7c0-0.3,0-0.4,0-0.6
		c0-1.9-1.1-3.3-3.1-3.3c-2.1,0-3.4,1.5-3.7,3.9L194.6,635.7L194.6,635.7z"/>
	<path d="M205,641c0.3,1.9,1.7,2.7,3.5,2.7c1.6,0,2.8-0.6,2.8-1.8c0-1.1-0.7-1.7-2.4-2.2l-2.6-0.6c-3.1-0.8-4.5-2.5-4.5-5.1
		c0-4.3,3.5-5.5,7-5.5c4,0,6.4,1.4,6.7,4.9l-4.3,0.6c-0.2-1.5-1-2.1-2.7-2.1c-1.4,0-2.4,0.6-2.4,1.7c0,1,0.5,1.6,1.9,1.9l2.5,0.6
		c3.4,0.8,5.1,2.5,5.1,5.5c0,3.9-3.1,5.4-7.3,5.4c-4.2,0-6.7-1.2-7.3-4.5L205,641z"/>
	<path d="M230.5,645.7c-1.4,0.7-3.1,1.1-5,1.1c-3.4,0-5.5-1.6-5.5-5.4v-9h-2.5v-3.5h2.6v-3.7l4.5-0.5v4.3h5.2v3.5h-5.2v8.1
		c0,1.9,0.8,2.5,2.2,2.5c1.1,0,2-0.3,3-1L230.5,645.7z"/>
	<path d="M252.9,645.7c-1.4,0.7-3.1,1.1-5,1.1c-3.4,0-5.5-1.6-5.5-5.4v-9h-2.6v-3.5h2.6v-3.7l4.5-0.5v4.3h5.2v3.5h-5.2v8.1
		c0,1.9,0.8,2.5,2.2,2.5c1.1,0,2-0.3,3-1L252.9,645.7z"/>
	<path d="M260.5,632.2c0.9-2.5,2.7-3.8,5.4-3.8c2.8,0,5.2,1.6,5.2,5.5v12.5h-4.5v-10.9c0-2-0.7-3.3-2.6-3.3c-1.8,0-3.5,0.9-3.5,4.3
		v9.8H256V621h4.5V632.2z"/>
	<path d="M278.2,620.7c1.6,0,2.9,1,2.9,2.7s-1.3,2.7-2.9,2.7c-1.5,0-2.8-1-2.8-2.7C275.4,621.6,276.7,620.7,278.2,620.7z
		 M280.5,628.8v17.6H276v-17.6H280.5z"/>
	<path d="M289.9,632.2c1-2.6,2.9-3.8,5.6-3.8c2.8,0,5.2,1.6,5.2,5.5v12.5h-4.5v-10.9c0-2-0.7-3.3-2.6-3.3c-1.8,0-3.5,1-3.5,4.3v9.8
		h-4.5v-17.6h3.8L289.9,632.2z"/>
	<path d="M317,629.6c0.8-0.7,1-1.3,1.3-2.7l3.6,1.2c-0.2,1.7-1.6,2.8-3.1,3.3c0.5,0.8,0.8,1.9,0.8,3.2c0,4.1-3.5,6.1-7.8,6.1
		c-0.8,0-1.7-0.1-2.2-0.3c-0.7,0.4-1,1-1,1.6c0,0.8,0.5,1.2,1.6,1.2h4.7c4,0,6.2,2,6.2,5.1c0,4.9-5.1,6.2-10,6.2c-4.2,0-8-1-8-4.5
		c0-2.1,1.5-3.5,4.6-3.7c-1.7-0.2-2.7-1.5-2.7-3c0-1.4,0.8-2.8,2.8-3.3c-2.3-0.9-3.6-2.6-3.6-5.3c0-4,3-6.2,7.6-6.2
		C314,628.4,315.7,628.8,317,629.6z M311.8,651.3c3.6,0,5.2-0.6,5.2-2.3c0-1.1-0.6-1.7-2.4-1.7h-4.1c-1.8,0-3,0.6-3,1.9
		C307.5,650.7,309.1,651.3,311.8,651.3z M312,637.6c1.9,0,3.1-1.1,3.1-3c0-2.1-1.1-3.1-3.1-3c-1.9,0-3,1.1-3,3
		C309,636.4,310,637.6,312,637.6z"/>
	<path d="M326.1,641c0.3,1.9,1.7,2.7,3.5,2.7c1.6,0,2.8-0.6,2.8-1.8c0-1.1-0.7-1.7-2.4-2.2l-2.6-0.6c-3.1-0.8-4.5-2.5-4.5-5.1
		c0-4.3,3.5-5.5,7-5.5c4,0,6.4,1.4,6.7,4.9l-4.3,0.6c-0.2-1.5-1-2.1-2.7-2.1c-1.4,0-2.4,0.6-2.4,1.7c0,1,0.5,1.6,1.9,1.9l2.5,0.6
		c3.4,0.8,5.1,2.5,5.1,5.5c0,3.9-3.1,5.4-7.3,5.4c-4.2,0-6.7-1.2-7.3-4.5L326.1,641z"/>
	<path d="M359.9,645.7c-1.4,0.7-3.1,1.1-5,1.1c-3.4,0-5.5-1.6-5.5-5.4v-9h-2.6v-3.5h2.6v-3.7l4.5-0.5v4.3h5.2v3.5h-5.2v8.1
		c0,1.9,0.8,2.5,2.2,2.5c1.1,0,2-0.3,3-1L359.9,645.7z"/>
	<path d="M367.5,632.2c0.9-2.5,2.7-3.8,5.4-3.8c2.8,0,5.2,1.6,5.2,5.5v12.5h-4.5v-10.9c0-2-0.7-3.3-2.6-3.3c-1.8,0-3.5,0.9-3.5,4.3
		v9.8H363V621h4.5V632.2z"/>
	<path d="M393.6,640.8l3.9,1.3c-0.8,3.5-4,4.8-7.4,4.8c-4.9,0-8.2-3.3-8.2-9c0-6,3.2-9.4,8.4-9.4c4.8,0,7.3,3.2,7.3,7.7
		c0,0.8-0.1,1.7-0.3,2.4h-11c0.1,2.9,1.5,4.9,4,4.9C391.8,643.3,393,642.7,393.6,640.8z M393.1,635.7c0-0.3,0-0.4,0-0.6
		c0-1.9-1.1-3.3-3.1-3.3c-2.1,0-3.4,1.5-3.7,3.9L393.1,635.7L393.1,635.7z"/>
	<path d="M414.4,654.1h-4.6v-25.3h3.8l0.6,3.4c1-2.8,3.4-3.8,5.8-3.8c4.3,0,6.8,3.2,6.8,8.8s-2.7,9.7-7.5,9.7
		c-2.7,0-4.4-1.3-4.9-2.8L414.4,654.1L414.4,654.1z M414.4,639.3c0,3.2,2,4.2,3.6,4.2c2.3,0,4.3-1.9,4.3-5.9c0-3.8-1.5-5.5-3.9-5.5
		c-2.1,0-4,1.6-4,4.6V639.3z"/>
	<path d="M437.7,646.3c-1,0.3-1.8,0.4-2.7,0.4c-2.4,0-4.6-1.2-4.6-4.3V621h4.5v20.2c0,1.1,0.7,1.6,1.6,1.6c0.5,0,0.9-0.1,1.3-0.3
		L437.7,646.3z"/>
	<path d="M454.5,641.4c0,1.3,0.5,1.6,1.3,1.6c0.4,0,0.7-0.1,1.1-0.3v3.3c-0.6,0.4-1.5,0.5-2.5,0.5c-2.2,0-3.5-0.8-4-2.8
		c-0.8,2.2-2.8,2.9-5.1,2.9c-3.1,0-5.2-1.8-5.2-4.8c0-3.9,3.1-6.1,10-5.7v-1.9c0-1.7-0.8-2.6-2.4-2.6s-2.4,1-2.5,2.7l-4.4-0.8
		c0.3-3.7,3.5-5.3,7.2-5.3c4,0,6.7,1.7,6.7,5.7v7.5L454.5,641.4L454.5,641.4z M450,638.9c-4-0.1-5.5,0.9-5.5,2.7c0,1.2,0.8,2,2.2,2
		c1.5,0,3.2-0.8,3.2-2.6L450,638.9L450,638.9z"/>
	<path d="M474.4,641.7c-0.6,3.5-3.6,5.1-7.2,5.1c-4.9,0-8.2-3.3-8.2-9.2s3.3-9.3,8.4-9.3c4,0,6.6,2.2,6.8,5.7l-3.9,1
		c-0.3-2-1.3-3.1-3-3.1c-2.5,0-3.9,2.2-3.9,5.6c0,3.5,1.5,5.7,4,5.7c1.6,0,2.7-0.7,3.1-2.7L474.4,641.7z"/>
	<path d="M488.4,640.8l3.9,1.3c-0.8,3.5-4,4.8-7.4,4.8c-4.9,0-8.2-3.3-8.2-9c0-6,3.2-9.4,8.4-9.4c4.8,0,7.3,3.2,7.3,7.7
		c0,0.8-0.1,1.7-0.3,2.4h-11c0.1,2.9,1.5,4.9,4,4.9C486.6,643.3,487.8,642.7,488.4,640.8z M487.9,635.7c0-0.3,0-0.4,0-0.6
		c0-1.9-1.1-3.3-3.1-3.3c-2.1,0-3.4,1.5-3.7,3.9L487.9,635.7L487.9,635.7z"/>
	<path d="M509.2,632.2c0.9-2.5,2.7-3.8,5.4-3.8c2.8,0,5.2,1.6,5.2,5.5v12.5h-4.5v-10.9c0-2-0.7-3.3-2.6-3.3c-1.8,0-3.5,0.9-3.5,4.3
		v9.8h-4.5V621h4.5L509.2,632.2L509.2,632.2z"/>
	<path d="M537.8,641.4c0,1.3,0.5,1.6,1.3,1.6c0.4,0,0.7-0.1,1.1-0.3v3.3c-0.6,0.4-1.5,0.5-2.5,0.5c-2.2,0-3.5-0.8-4-2.8
		c-0.8,2.2-2.8,2.9-5.1,2.9c-3.1,0-5.2-1.8-5.2-4.8c0-3.9,3.1-6.1,10-5.7v-1.9c0-1.7-0.8-2.6-2.4-2.6c-1.6,0-2.4,1-2.5,2.7l-4.4-0.8
		c0.3-3.7,3.5-5.3,7.2-5.3c4,0,6.7,1.7,6.7,5.7v7.5L537.8,641.4L537.8,641.4z M533.3,638.9c-4-0.1-5.5,0.9-5.5,2.7
		c0,1.2,0.8,2,2.2,2c1.5,0,3.2-0.8,3.2-2.6L533.3,638.9L533.3,638.9z"/>
	<path d="M545.5,641c0.3,1.9,1.7,2.7,3.5,2.7c1.6,0,2.8-0.6,2.8-1.8c0-1.1-0.7-1.7-2.4-2.2l-2.6-0.6c-3.1-0.8-4.5-2.5-4.5-5.1
		c0-4.3,3.5-5.5,7-5.5c4,0,6.4,1.4,6.7,4.9l-4.3,0.6c-0.2-1.5-1-2.1-2.7-2.1c-1.4,0-2.4,0.6-2.4,1.7c0,1,0.5,1.6,1.9,1.9l2.5,0.6
		c3.4,0.8,5.1,2.5,5.1,5.5c0,3.9-3.1,5.4-7.3,5.4s-6.7-1.2-7.3-4.5L545.5,641z"/>
</g>
<g>
	<path d="M174.4,725.2c-0.7,2.4-2.4,3.7-5.4,3.7c-3.1,0-5.3-1.6-5.3-5.7v-12.3h4.5V722c0,2.2,0.8,3.4,2.7,3.4c1.8,0,3.5-1.5,3.5-4.9
		v-9.7h4.5v17.6H175L174.4,725.2z"/>
	<path d="M188.2,714.2c1-2.6,2.9-3.8,5.6-3.8c2.8,0,5.2,1.6,5.2,5.5v12.5h-4.5v-10.9c0-2-0.7-3.3-2.6-3.3c-1.8,0-3.5,1-3.5,4.3v9.8
		h-4.5v-17.6h3.8L188.2,714.2z"/>
	<path d="M214.5,722.8l3.9,1.3c-0.8,3.5-4,4.8-7.4,4.8c-4.9,0-8.2-3.3-8.2-9c0-6,3.2-9.4,8.4-9.4c4.8,0,7.3,3.2,7.3,7.7
		c0,0.8-0.1,1.7-0.3,2.4h-11c0.1,2.9,1.5,4.9,4,4.9C212.7,725.3,213.9,724.7,214.5,722.8z M214,717.7c0-0.3,0-0.4,0-0.6
		c0-1.9-1.1-3.3-3.1-3.3c-2.1,0-3.4,1.5-3.7,3.9L214,717.7L214,717.7z"/>
	<path d="M229.9,724.9c-1.4-2.3-1.5-3.1-1.5-3.1h-0.2c0,0-0.2,0.8-1.6,3.1l-2.1,3.5h-4.9l5.7-8.8l-5.4-8.8h5.2l1.6,2.9
		c1.4,2.6,1.6,3.4,1.6,3.4h0.2c0,0,0.2-0.8,1.6-3.4l1.7-2.9h4.9l-5.4,8.6l5.7,8.9h-5.1L229.9,724.9z"/>
	<path d="M244.4,736.1h-4.5v-25.3h3.8l0.6,3.4c1-2.8,3.4-3.8,5.8-3.8c4.3,0,6.8,3.2,6.8,8.8s-2.7,9.7-7.5,9.7
		c-2.7,0-4.4-1.3-4.9-2.8L244.4,736.1L244.4,736.1z M244.4,721.3c0,3.2,2,4.2,3.6,4.2c2.3,0,4.3-1.9,4.3-5.9c0-3.8-1.5-5.5-3.9-5.5
		c-2.1,0-4,1.6-4,4.6V721.3z"/>
	<path d="M271.3,722.8l3.9,1.3c-0.8,3.5-4,4.8-7.4,4.8c-4.9,0-8.2-3.3-8.2-9c0-6,3.2-9.4,8.4-9.4c4.8,0,7.3,3.2,7.3,7.7
		c0,0.8-0.1,1.7-0.3,2.4h-11c0.1,2.9,1.5,4.9,4,4.9C269.5,725.3,270.7,724.7,271.3,722.8z M270.8,717.7c0-0.3,0-0.4,0-0.6
		c0-1.9-1.1-3.3-3.1-3.3c-2.1,0-3.4,1.5-3.7,3.9L270.8,717.7L270.8,717.7z"/>
	<path d="M293.5,723.7c-0.6,3.5-3.6,5.1-7.2,5.1c-4.9,0-8.2-3.3-8.2-9.2s3.3-9.3,8.4-9.3c4,0,6.6,2.2,6.8,5.7l-3.9,1
		c-0.3-2-1.3-3.1-3-3.1c-2.5,0-3.9,2.2-3.9,5.6c0,3.5,1.5,5.7,4,5.7c1.6,0,2.7-0.7,3.1-2.7L293.5,723.7z"/>
	<path d="M307.8,727.7c-1.4,0.7-3.1,1.1-5,1.1c-3.4,0-5.5-1.6-5.5-5.4v-9h-2.5v-3.5h2.6v-3.7l4.5-0.5v4.3h5.2v3.5h-5.2v8.1
		c0,1.9,0.8,2.5,2.2,2.5c1.1,0,2-0.3,3-1L307.8,727.7z"/>
	<path d="M321.3,722.8l3.9,1.3c-0.8,3.5-4,4.8-7.4,4.8c-4.9,0-8.2-3.3-8.2-9c0-6,3.2-9.4,8.4-9.4c4.8,0,7.3,3.2,7.3,7.7
		c0,0.8-0.1,1.7-0.3,2.4h-11c0.1,2.9,1.5,4.9,4,4.9C319.5,725.3,320.7,724.7,321.3,722.8z M320.8,717.7c0-0.3,0-0.4,0-0.6
		c0-1.9-1.1-3.3-3.1-3.3c-2.1,0-3.4,1.5-3.7,3.9L320.8,717.7L320.8,717.7z"/>
	<path d="M340.5,703h4.5v25.4h-4l-0.5-3c-0.8,2.7-2.9,3.5-5.5,3.5c-3.8,0-7-3-7-8.9c0-6,2.8-9.5,7.8-9.5c2.2,0,4.1,1.1,4.6,2.7V703
		H340.5z M340.5,717.7c0-2.7-1.9-3.9-3.8-3.9c-2.2,0-4.2,1.6-4.2,6c0,3.6,1.6,5.6,4.1,5.6c1.8,0,3.8-1.4,3.8-4.1v-3.6H340.5z"/>
	<path d="M369,722.8l3.9,1.3c-0.8,3.5-4,4.8-7.4,4.8c-4.9,0-8.2-3.3-8.2-9c0-6,3.2-9.4,8.4-9.4c4.8,0,7.3,3.2,7.3,7.7
		c0,0.8-0.1,1.7-0.3,2.4h-11c0.1,2.9,1.5,4.9,4,4.9C367.2,725.3,368.4,724.7,369,722.8z M368.5,717.7c0-0.3,0-0.4,0-0.6
		c0-1.9-1.1-3.3-3.1-3.3c-2.1,0-3.4,1.5-3.7,3.9L368.5,717.7L368.5,717.7z"/>
	<path d="M384.4,724.9c-1.4-2.3-1.5-3.1-1.5-3.1h-0.2c0,0-0.2,0.8-1.6,3.1l-2.1,3.5h-4.9l5.7-8.8l-5.4-8.8h5.2l1.6,2.9
		c1.4,2.6,1.6,3.4,1.6,3.4h0.2c0,0,0.2-0.8,1.6-3.4l1.7-2.9h4.9l-5.4,8.6l5.7,8.9h-5.1L384.4,724.9z"/>
	<path d="M398.9,736.1h-4.5v-25.3h3.8l0.6,3.4c1-2.8,3.4-3.8,5.8-3.8c4.3,0,6.8,3.2,6.8,8.8s-2.7,9.7-7.5,9.7
		c-2.7,0-4.4-1.3-4.9-2.8L398.9,736.1L398.9,736.1z M398.9,721.3c0,3.2,2,4.2,3.6,4.2c2.3,0,4.3-1.9,4.3-5.9c0-3.8-1.5-5.5-3.9-5.5
		c-2.1,0-4,1.6-4,4.6V721.3z"/>
	<path d="M425.9,722.8l3.9,1.3c-0.8,3.5-4,4.8-7.4,4.8c-4.9,0-8.2-3.3-8.2-9c0-6,3.2-9.4,8.4-9.4c4.8,0,7.3,3.2,7.3,7.7
		c0,0.8-0.1,1.7-0.3,2.4h-11c0.1,2.9,1.5,4.9,4,4.9C424.1,725.3,425.2,724.7,425.9,722.8z M425.4,717.7c0-0.3,0-0.4,0-0.6
		c0-1.9-1.1-3.3-3.1-3.3c-2.1,0-3.4,1.5-3.7,3.9L425.4,717.7L425.4,717.7z"/>
	<path d="M444.7,715.5c-0.6-0.2-1.1-0.2-1.8-0.2c-2.2,0-4.6,1.3-4.6,4.8v8.3h-4.5v-17.6h3.9l0.5,4.8c0.7-3.1,2.6-5.4,7-5.2
		L444.7,715.5z"/>
	<path d="M450.4,702.7c1.6,0,2.9,1,2.9,2.7s-1.3,2.7-2.9,2.7c-1.5,0-2.8-1-2.8-2.7C447.6,703.6,448.9,702.7,450.4,702.7z
		 M452.7,710.8v17.6h-4.5v-17.6H452.7z"/>
	<path d="M468.3,722.8l3.9,1.3c-0.8,3.5-4,4.8-7.4,4.8c-4.9,0-8.2-3.3-8.2-9c0-6,3.2-9.4,8.4-9.4c4.8,0,7.3,3.2,7.3,7.7
		c0,0.8-0.1,1.7-0.3,2.4h-11c0.1,2.9,1.5,4.9,4,4.9C466.5,725.3,467.7,724.7,468.3,722.8z M467.8,717.7c0-0.3,0-0.4,0-0.6
		c0-1.9-1.1-3.3-3.1-3.3c-2.1,0-3.4,1.5-3.7,3.9L467.8,717.7L467.8,717.7z"/>
	<path d="M480.5,714.2c1-2.6,2.9-3.8,5.6-3.8c2.8,0,5.2,1.6,5.2,5.5v12.5h-4.5v-10.9c0-2-0.7-3.3-2.6-3.3c-1.8,0-3.5,1-3.5,4.3v9.8
		h-4.5v-17.6h3.8L480.5,714.2z"/>
	<path d="M510.4,723.7c-0.6,3.5-3.6,5.1-7.2,5.1c-4.9,0-8.2-3.3-8.2-9.2s3.3-9.3,8.4-9.3c4,0,6.6,2.2,6.8,5.7l-3.9,1
		c-0.3-2-1.3-3.1-3-3.1c-2.5,0-3.9,2.2-3.9,5.6c0,3.5,1.5,5.7,4,5.7c1.6,0,2.7-0.7,3.1-2.7L510.4,723.7z"/>
	<path d="M524.4,722.8l3.9,1.3c-0.8,3.5-4,4.8-7.4,4.8c-4.9,0-8.2-3.3-8.2-9c0-6,3.2-9.4,8.4-9.4c4.8,0,7.3,3.2,7.3,7.7
		c0,0.8-0.1,1.7-0.3,2.4h-11c0.1,2.9,1.5,4.9,4,4.9C522.6,725.3,523.8,724.7,524.4,722.8z M523.9,717.7c0-0.3,0-0.4,0-0.6
		c0-1.9-1.1-3.3-3.1-3.3c-2.1,0-3.4,1.5-3.7,3.9L523.9,717.7L523.9,717.7z"/>
	<path d="M534.3,723c0.3,1.9,1.7,2.7,3.5,2.7c1.6,0,2.8-0.6,2.8-1.8c0-1.1-0.7-1.7-2.4-2.2l-2.6-0.6c-3.1-0.8-4.5-2.5-4.5-5.1
		c0-4.3,3.5-5.5,7-5.5c4,0,6.4,1.4,6.7,4.9l-4.3,0.6c-0.2-1.5-1-2.1-2.7-2.1c-1.4,0-2.4,0.6-2.4,1.7c0,1,0.5,1.6,1.9,1.9l2.5,0.6
		c3.4,0.8,5.1,2.5,5.1,5.5c0,3.9-3.1,5.4-7.3,5.4s-6.7-1.2-7.3-4.5L534.3,723z"/>
</g>
<g>
	<path d="M178.1,764.4c0,1.3,0.5,1.6,1.3,1.6c0.4,0,0.7-0.1,1.1-0.3v3.3c-0.6,0.4-1.5,0.5-2.5,0.5c-2.2,0-3.5-0.8-4-2.8
		c-0.8,2.2-2.8,2.9-5.1,2.9c-3.1,0-5.2-1.8-5.2-4.8c0-3.9,3.1-6.1,10-5.7v-1.9c0-1.7-0.8-2.6-2.4-2.6s-2.4,1-2.5,2.7l-4.4-0.8
		c0.3-3.7,3.5-5.3,7.2-5.3c4,0,6.7,1.7,6.7,5.7v7.5L178.1,764.4L178.1,764.4z M173.6,761.9c-4-0.1-5.5,0.9-5.5,2.7
		c0,1.2,0.8,2,2.2,2c1.5,0,3.2-0.8,3.2-2.6L173.6,761.9L173.6,761.9z"/>
	<path d="M190.6,769.3c-1,0.3-1.8,0.4-2.7,0.4c-2.4,0-4.6-1.2-4.6-4.3V744h4.5v20.2c0,1.1,0.7,1.6,1.6,1.6c0.5,0,0.9-0.1,1.3-0.3
		L190.6,769.3z"/>
	<path d="M192.8,760.5c0-6,3.3-9.1,8.3-9.1s8.3,3.2,8.3,9.1s-3.3,9.3-8.3,9.3S192.8,766.5,192.8,760.5z M197.3,760.6
		c0,3.9,1.3,5.7,3.8,5.7c2.6,0,3.9-1.9,3.9-5.7s-1.3-5.5-3.9-5.5C198.6,755.1,197.3,756.8,197.3,760.6z"/>
	<path d="M217.6,755.2c1-2.6,2.9-3.8,5.6-3.8c2.8,0,5.2,1.6,5.2,5.5v12.5h-4.5v-10.9c0-2-0.7-3.3-2.6-3.3c-1.8,0-3.5,1-3.5,4.3v9.8
		h-4.5v-17.6h3.8L217.6,755.2z"/>
	<path d="M244.8,752.6c0.8-0.7,1-1.3,1.3-2.7l3.6,1.2c-0.2,1.7-1.6,2.8-3.1,3.3c0.5,0.8,0.8,1.9,0.8,3.2c0,4.1-3.5,6.1-7.8,6.1
		c-0.8,0-1.7-0.1-2.2-0.3c-0.7,0.4-1,1-1,1.6c0,0.8,0.5,1.2,1.6,1.2h4.7c4,0,6.2,2,6.2,5.1c0,4.9-5.1,6.2-10,6.2c-4.2,0-8-1-8-4.5
		c0-2.1,1.5-3.5,4.6-3.7c-1.7-0.2-2.7-1.5-2.7-3c0-1.4,0.8-2.8,2.8-3.3c-2.3-1-3.6-2.6-3.6-5.3c0-4,3-6.2,7.6-6.2
		C241.8,751.4,243.5,751.8,244.8,752.6z M239.6,774.3c3.6,0,5.2-0.6,5.2-2.3c0-1.1-0.6-1.7-2.4-1.7h-4.2c-1.8,0-3,0.6-3,1.9
		C235.2,773.7,236.9,774.3,239.6,774.3z M239.8,760.6c1.9,0,3.1-1.1,3.1-3c0-2.1-1.1-3.1-3.1-3c-1.9,0-3,1.1-3,3
		C236.8,759.4,237.8,760.6,239.8,760.6z"/>
	<path d="M274.9,768.7c-1.4,0.7-3.1,1.1-5,1.1c-3.4,0-5.5-1.6-5.5-5.4v-9h-2.5v-3.5h2.6v-3.7l4.5-0.5v4.3h5.2v3.5H269v8.1
		c0,1.9,0.8,2.5,2.2,2.5c1.1,0,2-0.3,3-1L274.9,768.7z"/>
	<path d="M282.5,755.2c0.9-2.5,2.7-3.8,5.4-3.8c2.8,0,5.2,1.6,5.2,5.5v12.5h-4.5v-10.9c0-2-0.7-3.3-2.6-3.3c-1.8,0-3.5,0.9-3.5,4.3
		v9.8H278V744h4.5V755.2z"/>
	<path d="M308.6,763.8l3.9,1.3c-0.8,3.5-4,4.8-7.4,4.8c-4.9,0-8.2-3.3-8.2-9c0-6,3.2-9.4,8.4-9.4c4.8,0,7.3,3.2,7.3,7.7
		c0,0.8-0.1,1.7-0.3,2.4h-11c0.1,2.9,1.5,4.9,4,4.9C306.8,766.3,308,765.7,308.6,763.8z M308.1,758.7c0-0.3,0-0.4,0-0.6
		c0-1.9-1.1-3.3-3.1-3.3c-2.1,0-3.4,1.5-3.7,3.9L308.1,758.7L308.1,758.7z"/>
	<path d="M340,759.5c1,3.5,1.2,6.5,1.2,6.5h0.2c0,0,0.2-2.9,1-6.5l1.9-7.7h4.5l-4.6,17.6h-5.4l-1.9-7c-0.8-3-1-5.6-1-5.6h-0.2
		c0,0-0.2,2.6-0.9,5.7l-1.7,6.9h-5.4l-4.9-17.6h4.6l2,7.7c0.9,3.5,1.1,6.5,1.1,6.5h0.2c0,0,0.2-3,1.1-6.5l2-7.7h4.3L340,759.5z"/>
	<path d="M364.9,764.4c0,1.3,0.5,1.6,1.3,1.6c0.4,0,0.7-0.1,1.1-0.3v3.3c-0.6,0.4-1.5,0.5-2.5,0.5c-2.2,0-3.5-0.8-4-2.8
		c-0.8,2.2-2.8,2.9-5.1,2.9c-3.1,0-5.2-1.8-5.2-4.8c0-3.9,3.1-6.1,10-5.7v-1.9c0-1.7-0.8-2.6-2.4-2.6s-2.4,1-2.5,2.7l-4.4-0.8
		c0.3-3.7,3.5-5.3,7.2-5.3c4,0,6.7,1.7,6.7,5.7v7.5L364.9,764.4L364.9,764.4z M360.3,761.9c-4-0.1-5.5,0.9-5.5,2.7
		c0,1.2,0.8,2,2.2,2c1.5,0,3.2-0.8,3.2-2.6L360.3,761.9L360.3,761.9z"/>
	<path d="M375,760.4c1,3.4,1.3,5.6,1.3,5.6h0.2c0,0,0.3-2.2,1.3-5.6l2.6-8.5h4.7l-6.8,19.1c-1.9,5.4-4.3,6.4-7.8,6.4
		c-0.9,0-2.1-0.2-2.9-0.4l0.6-4c0.7,0.4,1.4,0.6,2.3,0.6c1.7,0,2.7-0.8,3.5-3.1l-6.5-18.5h4.9L375,760.4z"/>
	<path d="M388.5,763.5c1.7,0,3.1,1.3,3.1,3.1c0,1.7-1.3,3-3.1,3c-1.7,0-3-1.3-3-3C385.5,764.8,386.8,763.5,388.5,763.5z"/>
</g>
<g>
	<path d="M176.7,686.7c-1.4,0.7-3.1,1.1-5,1.1c-3.4,0-5.5-1.6-5.5-5.4v-9h-2.5v-3.5h2.6v-3.7l4.5-0.5v4.3h5.2v3.5h-5.2v8.1
		c0,1.9,0.8,2.5,2.2,2.5c1.1,0,2-0.3,3-1L176.7,686.7z"/>
	<path d="M178.4,678.5c0-6,3.3-9.1,8.3-9.1s8.3,3.2,8.3,9.1s-3.3,9.3-8.3,9.3S178.4,684.5,178.4,678.5z M182.9,678.6
		c0,3.9,1.3,5.7,3.8,5.7c2.6,0,3.9-1.9,3.9-5.7s-1.3-5.5-3.9-5.5C184.2,673.1,182.9,674.8,182.9,678.6z"/>
	<path d="M206.2,678.5c0-6,3.3-9.1,8.3-9.1s8.3,3.2,8.3,9.1s-3.3,9.3-8.3,9.3C209.5,687.8,206.2,684.5,206.2,678.5z M210.7,678.6
		c0,3.9,1.3,5.7,3.8,5.7c2.6,0,3.9-1.9,3.9-5.7s-1.3-5.5-3.9-5.5C212,673.1,210.7,674.8,210.7,678.6z"/>
	<path d="M231.8,673.4v14h-4.6v-14h-2.6v-3.5h2.6v-1.4c0-4.8,3.2-6.3,6.2-6.3c1.6,0,2.3,0.2,3.5,0.7l-0.7,3.8
		c-0.8-0.5-1.4-0.7-2.2-0.7c-1.4,0-2.2,0.8-2.2,2.6v1.4h5.6v-1.5c0-4.9,3.3-6.6,6.7-6.6c1.4,0,2.8,0.3,4.1,0.7l-0.7,4.2
		c-0.9-0.6-1.7-0.9-2.8-0.9c-1.6,0-2.7,0.7-2.7,3v1.3h4.5v3.5H242v14h-4.6v-14h-5.6L231.8,673.4L231.8,673.4z"/>
	<path d="M259.2,681.8l3.9,1.3c-0.8,3.5-4,4.8-7.4,4.8c-4.9,0-8.2-3.3-8.2-9c0-6,3.2-9.4,8.4-9.4c4.8,0,7.3,3.2,7.3,7.7
		c0,0.8-0.1,1.7-0.3,2.4h-11c0.1,2.9,1.5,4.9,4,4.9C257.4,684.3,258.5,683.7,259.2,681.8z M258.7,676.7c0-0.3,0-0.4,0-0.6
		c0-1.9-1.1-3.3-3.1-3.3c-2.1,0-3.4,1.5-3.7,3.9L258.7,676.7L258.7,676.7z"/>
	<path d="M278,674.5c-0.6-0.2-1.1-0.2-1.8-0.2c-2.2,0-4.6,1.3-4.6,4.8v8.3h-4.5v-17.6h3.9l0.5,4.8c0.7-3.1,2.6-5.4,7-5.2L278,674.5z
		"/>
	<path d="M305,677.5c1,3.5,1.2,6.5,1.2,6.5h0.2c0,0,0.2-2.9,1-6.5l1.9-7.7h4.5l-4.6,17.6h-5.4l-1.9-7c-0.8-3-1-5.6-1-5.6h-0.2
		c0,0-0.2,2.6-0.9,5.7l-1.7,6.9h-5.4l-4.9-17.6h4.6l2,7.7c0.9,3.5,1.1,6.5,1.1,6.5h0.2c0,0,0.2-3,1.1-6.5l2-7.7h4.3L305,677.5z"/>
	<path d="M321.2,673.2c0.9-2.5,2.7-3.8,5.4-3.8c2.8,0,5.2,1.6,5.2,5.5v12.5h-4.5v-10.9c0-2-0.7-3.3-2.6-3.3c-1.8,0-3.5,0.9-3.5,4.3
		v9.8h-4.5V662h4.5V673.2z"/>
	<path d="M338.9,661.7c1.6,0,2.9,1,2.9,2.7s-1.3,2.7-2.9,2.7c-1.5,0-2.8-1-2.8-2.7C336.1,662.6,337.4,661.7,338.9,661.7z
		 M341.2,669.8v17.6h-4.5v-17.6H341.2z"/>
	<path d="M353.1,687.3c-1,0.3-1.8,0.4-2.7,0.4c-2.4,0-4.6-1.2-4.6-4.3V662h4.5v20.2c0,1.1,0.7,1.6,1.6,1.6c0.5,0,0.9-0.1,1.3-0.3
		L353.1,687.3z"/>
	<path d="M367,681.8l3.9,1.3c-0.8,3.5-4,4.8-7.4,4.8c-4.9,0-8.2-3.3-8.2-9c0-6,3.2-9.4,8.4-9.4c4.8,0,7.3,3.2,7.3,7.7
		c0,0.8-0.1,1.7-0.3,2.4h-11c0.1,2.9,1.5,4.9,4,4.9C365.3,684.3,366.4,683.7,367,681.8z M366.5,676.7c0-0.3,0-0.4,0-0.6
		c0-1.9-1.1-3.3-3.1-3.3c-2.1,0-3.4,1.5-3.7,3.9L366.5,676.7L366.5,676.7z"/>
	<path d="M381.2,673.4v-3.5h2.6v-1.3c0-5.2,3.9-6.8,7.3-6.8c2.1,0,3.8,0.5,5.2,1.3l-1.6,3.7c-0.9-0.6-2.1-1.1-3.4-1.1
		c-1.6,0-3.1,0.7-3.1,3.1v1.2h10.2v17.6h-4.6v-14h-5.6v14h-4.5v-14h-2.5V673.4z"/>
	<path d="M407.8,673.2c1-2.6,2.9-3.8,5.6-3.8c2.8,0,5.2,1.6,5.2,5.5v12.5h-4.4v-10.9c0-2-0.7-3.3-2.6-3.3c-1.8,0-3.5,1-3.5,4.3v9.8
		h-4.5v-17.6h3.8L407.8,673.2z"/>
	<path d="M434.8,662h4.5v25.4h-4l-0.5-3c-0.8,2.7-2.9,3.5-5.5,3.5c-3.8,0-7-3-7-8.9c0-6,2.8-9.5,7.8-9.5c2.2,0,4.1,1.1,4.6,2.7V662
		H434.8z M434.9,676.7c0-2.7-1.9-3.9-3.8-3.9c-2.2,0-4.2,1.6-4.2,6c0,3.6,1.6,5.6,4.1,5.6c1.8,0,3.8-1.4,3.8-4.1v-3.6H434.9z"/>
	<path d="M446.6,661.7c1.6,0,2.9,1,2.9,2.7s-1.3,2.7-2.9,2.7c-1.5,0-2.8-1-2.8-2.7C443.8,662.6,445.1,661.7,446.6,661.7z
		 M448.9,669.8v17.6h-4.5v-17.6H448.9z"/>
	<path d="M458.2,673.2c1-2.6,2.9-3.8,5.6-3.8c2.8,0,5.2,1.6,5.2,5.5v12.5h-4.5v-10.9c0-2-0.7-3.3-2.6-3.3c-1.8,0-3.5,1-3.5,4.3v9.8
		h-4.5v-17.6h3.8L458.2,673.2z"/>
	<path d="M485.4,670.6c0.8-0.7,1-1.3,1.3-2.7l3.6,1.2c-0.2,1.7-1.6,2.8-3.1,3.3c0.5,0.8,0.8,1.9,0.8,3.2c0,4.1-3.5,6.1-7.8,6.1
		c-0.8,0-1.7-0.1-2.2-0.3c-0.7,0.4-0.9,1-0.9,1.6c0,0.8,0.5,1.2,1.6,1.2h4.7c4,0,6.2,2,6.2,5.1c0,4.9-5.1,6.2-10,6.2
		c-4.2,0-8-1-8-4.5c0-2.1,1.5-3.5,4.6-3.7c-1.7-0.2-2.7-1.5-2.7-3c0-1.4,0.8-2.8,2.8-3.3c-2.3-1-3.6-2.6-3.6-5.3c0-4,3-6.2,7.6-6.2
		C482.4,669.4,484.1,669.8,485.4,670.6z M480.2,692.3c3.6,0,5.2-0.6,5.2-2.3c0-1.1-0.6-1.7-2.4-1.7h-4.1c-1.8,0-3,0.6-3,1.9
		C475.8,691.7,477.5,692.3,480.2,692.3z M480.4,678.6c1.9,0,3.1-1.1,3.1-3c0-2.1-1.1-3.1-3.1-3c-1.9,0-3,1.1-3,3
		C477.3,677.4,478.4,678.6,480.4,678.6z"/>
</g>
<g>
	<g>
		<path class="st0" d="M177.2,822.7c0-4.8-2.9-7.9-6.9-7.9c-3.4,0-6.2,1.8-6.2,5.6s3.2,5.8,6.5,5.3c0,3.5-2.7,5.1-6.9,5.4v4
			C171.6,835.1,177.2,831.6,177.2,822.7 M193.9,822.7c0-4.8-2.9-7.9-6.9-7.9c-3.4,0-6.2,1.8-6.2,5.6s3.2,5.8,6.5,5.3
			c0,3.5-2.7,5.1-6.9,5.4v4C188.4,835.1,193.9,831.6,193.9,822.7"/>
	</g>
</g>
<g>
	<g>
		<path class="st0" d="M180.5,364c0,4.8,2.9,7.9,6.9,7.9c3.4,0,6.2-1.8,6.2-5.6s-3.2-5.8-6.5-5.3c0-3.5,2.7-5.1,6.9-5.4v-4
			C186.1,351.6,180.5,355.1,180.5,364 M163.7,364c0,4.8,2.9,7.9,6.9,7.9c3.4,0,6.2-1.8,6.2-5.6s-3.2-5.8-6.5-5.3
			c0-3.5,2.7-5.1,6.9-5.4v-4C169.3,351.6,163.7,355.1,163.7,364"/>
	</g>
</g>
</svg>
