<svg id="Layer_1" data-name="Layer 1" xmlns="http://www.w3.org/2000/svg" xmlns:xlink="http://www.w3.org/1999/xlink" viewBox="0 0 1024 765"><defs><style>.cls-1{fill:none;}.cls-2{clip-path:url(#clip-path);}.cls-3{fill:#ad4053;}</style><clipPath id="clip-path"><rect class="cls-1" y="263.26" width="1024" height="501.74"/></clipPath></defs><title>SFF1693_Foodservice Trade Presenter_Texture_BG</title><g class="cls-2"><path class="cls-3" d="M1024,263.26c-.15,0-.3.05-.45.05a29.72,29.72,0,0,0-8.79,1.75c-3,1-47.42.15-52.79,1.32-2.26.5-4.53,1.15-6,2.51-3,2.93-6.77,3.42-10.55,3.58a8,8,0,0,0-4.61,1.62c-3.76,2.75-20.78,3.57-24.85,2.77-4.75-.94-9.78-2-14.67,1.06-2.7,1.68-5.85,2.51-8.64,4.45-2.22,1.56-6,1.51-9,2.29-3.47.88-51.87,21.39-54.58,21.12-1.29-.14-2.51.61-3.76,1.05-5.59,2-11.46,2.37-17.33,2.55-1.85.06-13.56.89-16.46,2s-6.49,1-9.76,1.61a11.73,11.73,0,0,0-5.39,2.11A13.38,13.38,0,0,1,765.54,318c-2.92-.38-26.09,2.72-27.51,3.46-5.59,2.88-36.18,27.25-39.18,27.26-3.81,0-22.6,3.73-23,3.59-2.73-1.13-11.33,1.93-12.95,2.05-2.4.19-21.57,2.16-26.52,3.68-3.39,1-6.9,2.22-10.66,1.72a8.6,8.6,0,0,0-4.19.66c-4.72,2.31-10.1,2.39-14.9,4.36-2.43-1.41-12.1,1.47-13.48,4.14-1,1.88-19.37,4.46-23.89,7.26a17,17,0,0,1-2.85,1.54,82.32,82.32,0,0,1-9,3,31.6,31.6,0,0,0-7.76,2.75c-4.59,1.74-8.35,2.13-12.44.36-2-.84-3.25-.76-4.26.94-.79,1.34-1.61,1.23-3.11,1.36-2,.17-4.48-.07-6.35,2-1.2,1.33-3.62,1.75-5.71,1.59a12.88,12.88,0,0,0-9.17,2.69c-.64.49-8.21,1.11-8.74,1-3.62-.8-16.86-2.65-19.13.51a2.48,2.48,0,0,1-2.74.88c-4.65-1.54-2.86,1.49-7.61,1.37-4.13-.09-30.93-2.58-34.59-.43-2.22,1.31-4.23,2.23-7.12,1.3-2.69-.87-5.34,1.43-8.19,1.6l-73.31,6.61-.36-.21c-1.16-.76-7.77-5-9.47-5.28-2.24-.37-10.86-4.25-12.13-5.36-2.37-2.09-15.59-4.44-17.66-4.58-.73-.05-12.19-3.87-14.69-5.72s-16-7.51-19-9.72a3.37,3.37,0,0,0-2.34-.89c-.63.05-16.23-3.73-19.8-5.72-1.4-.79-9-2.57-10.59-3.57l-1-.32a21.76,21.76,0,0,0-10.81-.12,8.06,8.06,0,0,1-5.69-.26,6.51,6.51,0,0,0-2.83-.5c-2.83-.09-4.86-1.38-6.83-3.22-1.43-1.35-3.58-1.37-5.45-1.77-2.08-.44-14.39-4.15-15.57-5.9-.33-.49-1.24-.61-1.85-1-1.85-1.31-10.76-3.57-14.59-3.26a6.56,6.56,0,0,1-3.89-.51c-3-1.77-6.35-1.49-9.6-1.68-1.94-.12-12.82-3.11-15.82-2.8-5.17.54-15.47-3-17.94-3.33-1.69-.22-11.11.66-13.09-2.19-1.07-1.54-2.8-2.54-3.7-4.29-.63-1.2-26.25-6.62-28.81-8.8-1.52-1.28-8.94-2-10.67-2.53-2.91-.92-6-1.24-8.76-2.68a2.9,2.9,0,0,0-2.11-.22c-2.85,1.21-5.84.11-8.73.45a5.55,5.55,0,0,1-2.79-.6c-1.26-.57-8.44-3.81-10.16-3.84-2.26,0-11.36-2.62-12.78-3.54-2.67-1.72-16-2.1-18.1-1.94A91.08,91.08,0,0,1,0,307.55V503.77l.61.52V765H1023.39V446.58l.61-.15Z"/></g></svg>