<?xml version="1.0" encoding="utf-8"?>
<!-- Generator: Adobe Illustrator 23.0.1, SVG Export Plug-In . SVG Version: 6.00 Build 0)  -->
<svg version="1.1" id="Layer_1" xmlns="http://www.w3.org/2000/svg" xmlns:xlink="http://www.w3.org/1999/xlink" x="0px" y="0px"
	 viewBox="0 0 161.98 161.98" style="enable-background:new 0 0 161.98 161.98;" xml:space="preserve">
<style type="text/css">
	.st0{fill:#FFFFFF;}
</style>
<rect x="23.72" y="23.72" transform="matrix(0.7071 -0.7071 0.7071 0.7071 -33.5475 80.9909)" width="114.54" height="114.54"/>
<path class="st0" d="M138.49,79.96v-0.02c0-1.9,1.54-3.5,3.48-3.5c1.96,0,3.48,1.58,3.48,3.48v0.02c0,1.9-1.54,3.5-3.48,3.5
	C140.01,83.45,138.49,81.87,138.49,79.96z M145.05,79.94v-0.02c0-1.7-1.32-3.1-3.08-3.1c-1.74,0-3.08,1.42-3.08,3.12v0.02
	c0,1.7,1.32,3.1,3.08,3.1C143.71,83.07,145.05,81.65,145.05,79.94z M140.45,78.04h1.76c0.9,0,1.54,0.38,1.54,1.24
	c0,0.58-0.3,0.98-0.76,1.16l0.88,1.28h-1.2l-0.74-1.1h-0.44v1.1h-1.04V78.04z M142.15,79.8c0.36,0,0.56-0.18,0.56-0.44
	c0-0.28-0.2-0.44-0.56-0.44h-0.66v0.88H142.15z"/>
<path class="st0" d="M27.36,73.65c0,4.66,2.55,7.51,6.09,7.51c1.62,0,3.23-0.64,4.62-1.99c-1.39,3.34-4.43,4.96-7.63,4.96
	c-4.43,0-8.23-3.19-8.23-8.49c0-6.01,4.39-9.5,10.48-9.05C29.09,66.74,27.36,69.9,27.36,73.65z M38.2,66.84l-0.15,6.17
	c-0.68-2.52-2.26-5.54-4.56-6.39L38.2,66.84z"/>
<path class="st0" d="M44.18,73.24c0,4.85,2.44,7.96,6.16,7.96c1.73,0,3.49-0.6,4.92-1.95c-1.5,3.31-4.58,4.88-7.74,4.88
	c-4.7,0-8.34-3.83-8.34-8.6c0-4.88,3.27-9.01,9.17-8.98C45.91,66.74,44.18,69.59,44.18,73.24z M55.67,72.04h-9.84l5.83-0.98
	c-0.15-2.58-1.17-4.33-2.56-4.5C52.93,66.51,55.6,69.22,55.67,72.04z"/>
<path class="st0" d="M89.95,73.24c0,4.85,2.44,7.96,6.16,7.96c1.73,0,3.49-0.6,4.92-1.95c-1.5,3.31-4.58,4.88-7.74,4.88
	c-4.7,0-8.34-3.83-8.34-8.6c0-4.88,3.27-9.01,9.17-8.98C91.68,66.74,89.95,69.59,89.95,73.24z M101.44,72.04H91.6l5.83-0.98
	c-0.15-2.58-1.17-4.33-2.56-4.5C98.7,66.51,101.37,69.22,101.44,72.04z"/>
<path class="st0" d="M62.1,74.33c0,3.08,0.04,6.35,0.23,9.43h-5.18c0.15-2.97,0.19-5.93,0.19-9.13c0-2.85-0.04-5.97-0.23-7.51
	c1.43,0,3.46-0.08,5.22-0.56C62.17,68.13,62.1,71.4,62.1,74.33z M68.37,70.83c-1.31-0.64-4.47-0.34-5.48,1.05
	c0.53-2.63,3-5.33,5.48-5.33V70.83z"/>
<path class="st0" d="M75.09,66.93c0.79,2.74,3.49,9.39,4.81,11.98l-2.63,5.22c-1.5-3.79-6.39-14.35-8.23-17.2H75.09z M86.66,66.93
	c-1.09,1.05-2.67,3.79-6.05,10.33c2.29-5.63,1.39-8.83,0.41-10.33H86.66z"/>
<path class="st0" d="M107.84,74.33c0,3.08,0.04,6.35,0.23,9.43h-5.18c0.15-2.97,0.19-5.93,0.19-9.13c0-2.85-0.04-5.97-0.23-7.51
	c1.43,0,3.46-0.08,5.22-0.56C107.91,68.13,107.84,71.4,107.84,74.33z M120.23,73.61c0,2.37,0,7.36,0.15,10.14h-5.18
	c0.15-2.18,0.23-6.24,0.23-10.03c0-2.82-1.2-4.47-3.42-4.47c-1.13,0-2.44,0.56-3.49,1.77c1.01-2.67,3.27-4.47,6.01-4.47
	C118.17,66.55,120.23,68.66,120.23,73.61z"/>
<path class="st0" d="M130.79,74.4c-3.01,0.04-4.24,1.77-4.24,4.17c0,2.18,1.13,3.34,2.82,3.34c0.75,0,1.62-0.26,2.22-0.79
	c-0.86,1.92-2.67,2.97-4.66,2.97c-2.89,0-4.85-1.84-4.85-4.7C122.07,75.42,126.32,73.2,130.79,74.4z M137.06,73.65
	c0,3.57,0,7.02,0.11,10.1h-5.11c0.11-2.25,0.19-6.87,0.19-10.18c0-3.16-1.46-4.92-4.21-4.92c-1.54,0-3.12,0.68-4.47,2.1
	c1.35-2.74,4.39-4.21,7.06-4.21C134.43,66.55,137.06,68.92,137.06,73.65z"/>
<g>
	
		<rect x="67.6" y="112.94" transform="matrix(0.7071 -0.7071 0.7071 0.7071 -65.6131 94.2729)" class="st0" width="26.79" height="26.79"/>
	<path d="M80.69,134.76c-5.71,0-8.69-4.19-8.69-8.33c0-5.41,3.65-8.9,9.68-8.9c0.32,0,0.5,0.01,0.5,0.01
		c-3.33,0.5-4.33,4.16-4.33,7.01c0,4.1,2.37,6.85,5.91,6.85c2.91,0,4.86-1.81,4.86-1.81C87.61,132.49,84.37,134.76,80.69,134.76z"/>
	<path d="M82.44,117.53c2.26,0.04,6.19,0.45,6.19,0.45l-0.19,7.16C87.95,122.54,84.75,118.23,82.44,117.53z"/>
</g>
<path class="st0" d="M30.73,90.64h2.78c1.63,0,2.61,0.96,2.61,2.36v0.02c0,1.58-1.23,2.4-2.76,2.4h-1.14v2.04h-1.5V90.64z
	 M33.42,94.08c0.75,0,1.19-0.45,1.19-1.03v-0.02c0-0.67-0.47-1.03-1.22-1.03h-1.16v2.08H33.42z"/>
<path class="st0" d="M39.09,94.53v-3.89h1.5v3.86c0,1.11,0.56,1.68,1.47,1.68c0.92,0,1.47-0.55,1.47-1.64v-3.9h1.5v3.85
	c0,2.06-1.16,3.08-2.99,3.08S39.09,96.54,39.09,94.53z"/>
<path class="st0" d="M48.51,90.64h3.12c0.87,0,1.54,0.24,1.99,0.69c0.38,0.38,0.58,0.92,0.58,1.56v0.02c0,1.1-0.59,1.79-1.46,2.11
	l1.66,2.43h-1.75l-1.46-2.18h-1.18v2.18h-1.5V90.64z M51.53,93.95c0.73,0,1.15-0.39,1.15-0.96v-0.02c0-0.64-0.45-0.97-1.18-0.97
	h-1.49v1.96H51.53z"/>
<path class="st0" d="M57.51,90.64h5.14v1.33H59v1.38h3.21v1.33H59v1.43h3.7v1.33h-5.19V90.64z"/>
<path class="st0" d="M70.86,90.64h5.19V92h-3.69v1.45h3.25v1.36h-3.25v2.64h-1.5V90.64z"/>
<path class="st0" d="M79.2,90.64h3.12c0.87,0,1.54,0.24,1.99,0.69c0.38,0.38,0.58,0.92,0.58,1.56v0.02c0,1.1-0.59,1.79-1.46,2.11
	l1.66,2.43h-1.75l-1.46-2.18H80.7v2.18h-1.5V90.64z M82.22,93.95c0.73,0,1.15-0.39,1.15-0.96v-0.02c0-0.64-0.45-0.97-1.18-0.97H80.7
	v1.96H82.22z"/>
<path class="st0" d="M88.19,90.64h5.14v1.33h-3.65v1.38h3.21v1.33h-3.21v1.43h3.7v1.33h-5.19V90.64z"/>
<path class="st0" d="M96.67,90.64h5.14v1.33h-3.65v1.38h3.21v1.33h-3.21v1.43h3.7v1.33h-5.19V90.64z"/>
<path class="st0" d="M105.15,90.64h2.66c2.14,0,3.62,1.47,3.62,3.39v0.02c0,1.92-1.48,3.41-3.62,3.41h-2.66V90.64z M107.81,96.1
	c1.23,0,2.05-0.83,2.05-2.04v-0.02c0-1.21-0.83-2.05-2.05-2.05h-1.16v4.11H107.81z"/>
<path class="st0" d="M113.73,94.07v-0.02c0-1.94,1.53-3.53,3.63-3.53s3.61,1.57,3.61,3.51v0.02c0,1.94-1.53,3.53-3.63,3.53
	C115.24,97.57,113.73,96,113.73,94.07z M119.41,94.07v-0.02c0-1.17-0.86-2.14-2.06-2.14c-1.21,0-2.04,0.95-2.04,2.12v0.02
	c0,1.17,0.86,2.14,2.06,2.14S119.41,95.23,119.41,94.07z"/>
<path class="st0" d="M123.68,90.64h1.62l1.79,2.88l1.79-2.88h1.62v6.81H129V93l-1.92,2.91h-0.04l-1.9-2.88v4.42h-1.47V90.64z"/>
</svg>
