<?xml version="1.0" encoding="utf-8"?>
<!-- Generator: Adobe Illustrator 23.0.1, SVG Export Plug-In . SVG Version: 6.00 Build 0)  -->
<svg version="1.1" id="Layer_1" xmlns="http://www.w3.org/2000/svg" xmlns:xlink="http://www.w3.org/1999/xlink" x="0px" y="0px"
	 viewBox="0 0 283.46 283.46" style="enable-background:new 0 0 283.46 283.46;" xml:space="preserve">
<style type="text/css">
	.st0{fill-rule:evenodd;clip-rule:evenodd;}
</style>
<g>
	<path d="M91.17,197.25v10h3.82v-22.31h-3.82v8.45h-7.13v-8.45h-3.82v22.31h3.82v-10H91.17z M101.84,202.66h6.75l1.17,4.6h4.16
		l-6.45-22.31h-4.41l-6.52,22.31h4.03L101.84,202.66z M105.21,189.99h0.05l2.27,8.82h-4.67L105.21,189.99z M119.43,184.95h-3.82
		v22.31h12.92v-4.04h-9.09V184.95z M134.28,202.66h6.75l1.17,4.6h4.16l-6.45-22.31h-4.41l-6.52,22.31H133L134.28,202.66z
		 M137.64,189.99h0.05l2.27,8.82h-4.67L137.64,189.99z M151.86,184.95h-3.82v22.31h12.92v-4.04h-9.09V184.95z M180.3,200.49h-0.05
		l-7.26-15.53h-4.03v22.31h3.56v-15.9h0.05l7.46,15.9h3.82v-22.31h-3.57V200.49z M199.77,203.31h-9.63l9.58-14.69v-3.67h-13.99v3.95
		h9.2l-9.45,14.41v3.95h14.29V203.31z M250.43,139.91c0,61.22-49.8,111.02-111.02,111.02S28.39,201.13,28.39,139.91
		S78.19,28.89,139.41,28.89S250.43,78.7,250.43,139.91z M242.44,139.91c0-56.9-46.13-103.03-103.03-103.03S36.38,83.01,36.38,139.91
		c0,56.9,46.13,103.03,103.03,103.03S242.44,196.81,242.44,139.91z"/>
	<g>
		<path class="st0" d="M155.57,65.38c0.34,14.07,0.61,30.95,0.61,45.86c0,10.29-1.24,20.19,5.8,23.7c3.96,2,10.16,1.69,16.34,1.69
			c5.77,0,12.08-0.45,14.95-2.91c-1.7-4.27-8.93-7.39-12.51-2.9c-3.58-3.01-7.87-5.28-13.29-6.41c3.54-5.56,7.96-10.55,16.33-10.55
			c8.7,0,14.94,5.37,20.62,10.07c6.66,5.55,13.31,10.45,25.34,9.79c0.1,0.8-0.76,1.22-1.21,1.85c-3.55,4.58-7.18,10.09-9.93,15.58
			c-4.65-3.43-9.52-7.67-18.34-7.18c-7.58,0.41-14.02,3.81-21.07,5.8c-5.63,1.6-11.91,1.88-17.24-0.15
			c-1.66-0.65-3.81-2.02-4.91-1.83c-1.28,0.19-1.8,2.56-2.45,3.81c-1.93,3.97-4.74,8.21-7.47,11.16c-3.63,3.95-9.17,7.73-16.48,8.26
			c-12.54,0.93-21.2-4.83-22.01-15.89c-0.44-6.2,1.06-11.59,2.76-16.06c1.68-4.46,3.77-8.72,6.86-11.47
			c-2.86,10.06-3.11,23.39,4.58,27.97c6.57,3.92,20.44,2.65,24.89-2.61c2.57-3,1.79-8.79,1.68-14.35
			c-0.33-17.73-1.38-35.86-1.38-53.81c0-3.13-0.67-6.64-0.15-9.03c0.33-1.53,2.4-3.41,3.66-5.05
			C153.16,68.71,154.54,66.97,155.57,65.38"/>
		<path class="st0" d="M99.37,68.16c2.88,3.7,6.76,6.45,11.9,7.93c-0.69,1.97-1.51,3.76-2.27,5.65c-0.74,1.82-2.01,3.82-2.3,5.67
			c-0.4,2.39-0.07,5.47-0.16,8.26c-0.46,13.68-0.07,27.84-0.45,41.28c-0.42,15.26-8.4,25.52-22.76,27.37
			c-12.28,1.56-29.43-1.05-28.39-15.6c0.54-7.64,4.82-13.5,8.09-18.19c-1.5,8.11,0.05,14.43,4.57,18.05
			c7.92,6.29,26.88,3.76,30.56-4.14c1.52-3.33,0.75-10.42,0.75-15.58v-24.94c0-4.26,0.47-8.66,0-12.38
			c-0.53-4.33-3.47-7.15-5.48-10.09C95.38,76.99,97.78,72.94,99.37,68.16"/>
		<path class="st0" d="M144.11,132.35c-0.35-9.48-1.13-21.57-6.88-26.44c-2.74-2.33-12.57-5.81-11.45,2.28
			c-7.67-0.64-15.11-5.66-15.11-12.98c0-5.72,4.88-7.98,10.37-8.41c5.53-0.43,10.88,1.78,14.67,4.12c3.87,2.36,7.01,5.76,8.86,9.78
			C148.59,109.53,147.5,122.66,144.11,132.35"/>
	</g>
</g>
</svg>
