<?xml version="1.0" encoding="utf-8"?>
<!-- Generator: Adobe Illustrator 23.0.1, SVG Export Plug-In . SVG Version: 6.00 Build 0)  -->
<svg version="1.1" id="Layer_1" xmlns="http://www.w3.org/2000/svg" xmlns:xlink="http://www.w3.org/1999/xlink" x="0px" y="0px"
	 viewBox="0 0 283.46 283.46" style="enable-background:new 0 0 283.46 283.46;" xml:space="preserve">
<style type="text/css">
	.Arched_x0020_Green{fill:url(#SVGID_1_);stroke:#FFFFFF;stroke-width:0.25;stroke-miterlimit:1;}
</style>
<linearGradient id="SVGID_1_" gradientUnits="userSpaceOnUse" x1="0" y1="283.46" x2="0.7071" y2="282.7529">
	<stop  offset="0" style="stop-color:#20AC4B"/>
	<stop  offset="0.9831" style="stop-color:#19361A"/>
</linearGradient>
<g>
	<path d="M141.73,269.29c-70.34,0-127.56-57.22-127.56-127.56c0-70.34,57.22-127.56,127.56-127.56
		c70.34,0,127.56,57.22,127.56,127.56C269.29,212.06,212.07,269.29,141.73,269.29L141.73,269.29z M141.73,18.8
		C73.95,18.8,18.8,73.94,18.8,141.73c0,67.79,55.15,122.93,122.93,122.93c67.79,0,122.93-55.15,122.93-122.93
		C264.66,73.94,209.52,18.8,141.73,18.8L141.73,18.8z"/>
	<g>
		<path d="M74.9,189.59v-0.29c0-7.69,5.47-13.06,13.02-13.06c5.69,0,10.77,2.61,11.38,8.94h-5.76c-0.5-3-2.47-4.37-5.54-4.37
			c-4.44,0-7.05,3.33-7.05,8.55v0.29c0,4.94,2.11,8.48,7.12,8.48c4.29,0,6.05-2.47,6.15-5.4h-5.76v-4.22h11.48v2.72
			c0,6.83-4.36,11.38-12.02,11.38C79.55,202.61,74.9,197.17,74.9,189.59z"/>
		<path d="M107.7,176.64h9.16c6.05,0,9.87,2.47,9.87,7.76v0.14c0,3.86-2.25,5.9-5.26,6.8l6.76,10.88h-6.15l-6.12-9.87h-2.5v9.87
			h-5.76V176.64z M116.71,188.41c2.9,0,4.36-1.22,4.36-3.69v-0.14c0-2.61-1.57-3.51-4.36-3.51h-3.25v7.34H116.71z"/>
		<path d="M141.54,176.64h7.55l8.3,25.58h-6.04l-1.75-5.69h-9.27l-1.75,5.69h-5.44L141.54,176.64z M141.57,192.41h6.76l-3.36-11.05
			L141.57,192.41z"/>
		<path d="M162.32,194.2h5.55c0.25,2.29,1.22,4.19,5.01,4.19c2.54,0,4.22-1.39,4.22-3.4c0-2.04-1.07-2.75-4.83-3.33
			c-6.55-0.86-9.23-2.83-9.23-7.76c0-4.36,3.65-7.62,9.3-7.62c5.76,0,9.12,2.58,9.59,7.66h-5.33c-0.36-2.32-1.72-3.4-4.26-3.4
			c-2.54,0-3.83,1.18-3.83,2.9c0,1.82,0.82,2.68,4.76,3.26c6.19,0.79,9.37,2.47,9.37,7.76c0,4.54-3.72,8.16-9.77,8.16
			C165.86,202.61,162.64,199.32,162.32,194.2z"/>
		<path d="M188.25,194.2h5.54c0.25,2.29,1.21,4.19,5.01,4.19c2.54,0,4.22-1.39,4.22-3.4c0-2.04-1.07-2.75-4.83-3.33
			c-6.55-0.86-9.23-2.83-9.23-7.76c0-4.36,3.65-7.62,9.3-7.62c5.76,0,9.12,2.58,9.59,7.66h-5.33c-0.36-2.32-1.72-3.4-4.26-3.4
			c-2.54,0-3.83,1.18-3.83,2.9c0,1.82,0.82,2.68,4.76,3.26c6.19,0.79,9.37,2.47,9.37,7.76c0,4.54-3.72,8.16-9.77,8.16
			C191.79,202.61,188.57,199.32,188.25,194.2z"/>
		<path d="M106.21,213.04h16.42v4.54h-10.62v6.76h8.41v4.36h-8.41v9.91h-5.8V213.04z"/>
		<path d="M130.79,213.04h16.67v4.51h-10.91v5.97h8.73v4.22h-8.73v6.37h11.48v4.51h-17.24V213.04z"/>
		<path d="M155.47,213.04h8.37c8.98,0,13.42,4.87,13.42,12.52v0.29c0,7.66-4.47,12.77-13.45,12.77h-8.34V213.04z M163.62,234.12
			c5.15,0,7.58-2.9,7.58-8.19v-0.29c0-5.26-2.25-8.08-7.66-8.08h-2.29v16.56H163.62z"/>
	</g>
	<path d="M84.37,105.63l14.76,14.76C94.63,114.23,89.62,109.45,84.37,105.63z"/>
	<path d="M176.83,77.59l-0.81-0.81c-0.22,0.22-0.43,0.44-0.65,0.66l1.01,1.01C176.53,78.16,176.68,77.87,176.83,77.59z"/>
	<path d="M198.63,100.7l1.6,1.6c0.15-0.29,0.31-0.57,0.46-0.85l-1.32-1.32C199.12,100.32,198.88,100.51,198.63,100.7z"/>
	<path d="M178.26,74.92l-0.17-0.17c-0.23,0.21-0.44,0.43-0.67,0.64l0.37,0.37C177.95,75.48,178.11,75.2,178.26,74.92z"/>
	<path d="M201.73,98.38c-0.25,0.18-0.51,0.36-0.76,0.55l0.7,0.7c0.15-0.29,0.3-0.57,0.45-0.86L201.73,98.38z"/>
	<path d="M121.52,71.6l-0.05-0.05c0.07,0.5,0.12,0.99,0.18,1.49l0.8,0.8C122.14,73.09,121.84,72.36,121.52,71.6z"/>
	<path d="M250.08,160.64h-73.43c3.31-26.28,27.39-61.83,27.63-62.19l2.64-3.87l-3.91,2.57c-29,19.07-39.47,57.75-40.89,63.49h-6.21
		c1.18-6.21,8.07-35.15,37.42-58.88l-1.16-1.44c-21.69,17.54-31.32,37.94-35.44,50.22c5.33-45.64,24.01-76.71,24.21-77.04l3.53-5.78
		l-4.95,4.62c-32.6,30.43-39,80.5-39.82,88.3h-11.65c0.48-1.83,0.92-3.64,1.33-5.43c3.56-13.04,13.55-43.15,35.28-69.54l-1.43-1.18
		c-16.14,19.59-25.86,41.23-31.32,56.56c4.3-33.42-4.4-57.46-8.93-67.24l-2.65-5.71l0.9,6.24c0.06,0.41,5.57,40.26-5.92,83.01
		c-0.87-3.9-2.52-10.2-5.32-17.28c1.06-2.36,9.14-21.31,9.72-52.27l-1.85-0.04c-0.5,26.76-6.64,44.37-8.86,49.89
		c-5.03-11.86-13.27-25.35-26.4-33.44l-4.34-2.67l3.12,4.03c17.16,22.16,21.93,50.13,22.66,55.08h-8.55
		c3.62-9.08,1.75-21.75-5.48-36.8l-1.67,0.8c7.09,14.74,8.89,27.48,5.14,35.99H33.39v1.85h82.18l0.18,0.05
		c0.01-0.02,0.01-0.04,0.02-0.05h134.32V160.64z M200.1,101.49c-0.5,0.79-1.06,1.69-1.66,2.67l-0.74-0.74
		C198.48,102.76,199.28,102.12,200.1,101.49z M196.99,104.02l0.95,0.95c-0.34,0.56-0.69,1.14-1.05,1.75l-1.39-1.39
		C195.99,104.89,196.49,104.45,196.99,104.02z M194.81,105.96l1.58,1.58c-0.34,0.57-0.68,1.16-1.04,1.76l-1.98-1.98
		C193.85,106.86,194.33,106.41,194.81,105.96z M192.71,107.97l2.16,2.16c-0.34,0.58-0.68,1.17-1.02,1.78l-2.52-2.52
		C191.79,108.91,192.25,108.43,192.71,107.97z M190.69,110.05l2.69,2.69c-0.33,0.59-0.67,1.19-1,1.8l-3.02-3.02
		C189.8,111.03,190.24,110.54,190.69,110.05z M188.74,112.21l3.17,3.17c-0.33,0.59-0.66,1.2-0.99,1.81l-3.47-3.47
		C187.88,113.22,188.3,112.71,188.74,112.21z M186.86,114.44l3.61,3.61c-0.32,0.6-0.64,1.21-0.97,1.83l-3.88-3.88
		C186.03,115.48,186.44,114.96,186.86,114.44z M185.04,116.74l4.01,4.01c-0.32,0.61-0.63,1.23-0.95,1.85l-4.26-4.26
		C184.24,117.8,184.64,117.27,185.04,116.74z M183.29,119.09l4.37,4.37c-0.31,0.62-0.62,1.24-0.93,1.87l-4.6-4.6
		C182.51,120.19,182.9,119.64,183.29,119.09z M181.6,121.51l4.71,4.71c-0.3,0.63-0.61,1.26-0.91,1.9l-4.92-4.92
		C180.85,122.63,181.22,122.07,181.6,121.51z M179.97,123.99l5.01,5.01c-0.3,0.64-0.59,1.28-0.88,1.92l-5.21-5.21
		C179.24,125.14,179.6,124.56,179.97,123.99z M178.39,126.52l5.31,5.31c-0.29,0.65-0.57,1.29-0.85,1.95l-5.49-5.49
		C177.69,127.7,178.04,127.11,178.39,126.52z M176.87,129.12l5.58,5.58c-0.28,0.66-0.55,1.32-0.82,1.98l-5.75-5.75
		C176.2,130.32,176.53,129.72,176.87,129.12z M175.41,131.76l5.84,5.84c-0.27,0.67-0.53,1.34-0.79,2.01l-6.01-6.01
		C174.76,132.99,175.08,132.38,175.41,131.76z M174,134.46l6.1,6.1c-0.26,0.68-0.51,1.36-0.75,2.05l-6.27-6.27
		C173.38,135.72,173.68,135.09,174,134.46z M172.65,137.22l6.36,6.35c-0.24,0.7-0.48,1.4-0.71,2.09l-6.54-6.54
		C172.04,138.5,172.34,137.86,172.65,137.22z M171.35,140.03l6.63,6.63c-0.23,0.72-0.45,1.43-0.65,2.15l-6.83-6.83
		C170.77,141.34,171.06,140.69,171.35,140.03z M170.11,142.9l6.92,6.92c-0.21,0.74-0.41,1.47-0.59,2.21l-7.15-7.15
		C169.55,144.23,169.82,143.57,170.11,142.9z M168.91,145.81l7.27,7.27c-0.18,0.77-0.36,1.53-0.51,2.29l-7.54-7.54
		C168.38,147.17,168.64,146.5,168.91,145.81z M167.78,148.79l7.67,7.67c-0.15,0.8-0.29,1.6-0.42,2.39l-7.99-7.99
		C167.27,150.18,167.51,149.5,167.78,148.79z M166.69,151.82l8.17,8.17c-0.03,0.22-0.06,0.44-0.09,0.65h-2.06l-6.73-6.73
		C166.21,153.25,166.44,152.55,166.69,151.82z M165.68,154.91l5.74,5.74h-2.8l-3.59-3.59C165.21,156.39,165.43,155.68,165.68,154.91
		z M164.12,160.27c0.15-0.58,0.35-1.31,0.6-2.2l2.58,2.58h-2.8L164.12,160.27z M176.28,78.19c-0.39,0.77-0.82,1.63-1.27,2.55
		l-0.54-0.55C175.06,79.51,175.66,78.84,176.28,78.19z M173.85,80.89l0.73,0.73c-0.29,0.61-0.59,1.24-0.9,1.9l-1.12-1.12
		C172.99,81.89,173.42,81.39,173.85,80.89z M171.97,83.12l1.3,1.3c-0.29,0.62-0.58,1.26-0.87,1.93l-1.67-1.67
		C171.14,84.15,171.55,83.63,171.97,83.12z M170.16,85.41l1.84,1.84c-0.28,0.63-0.56,1.28-0.85,1.95l-2.2-2.2
		C169.34,86.47,169.75,85.94,170.16,85.41z M168.39,87.75l2.37,2.37c-0.27,0.64-0.55,1.3-0.82,1.98l-2.71-2.72
		C167.6,88.84,167.99,88.29,168.39,87.75z M166.69,90.16l2.87,2.87c-0.26,0.65-0.53,1.32-0.8,2l-3.2-3.2
		C165.93,91.27,166.3,90.71,166.69,90.16z M165.03,92.62l3.36,3.36c-0.26,0.66-0.51,1.34-0.77,2.03l-3.68-3.68
		C164.3,93.75,164.66,93.18,165.03,92.62z M163.44,95.13l3.82,3.82c-0.25,0.67-0.5,1.36-0.75,2.05l-4.13-4.13
		C162.73,96.29,163.08,95.71,163.44,95.13z M161.89,97.69l4.27,4.27c-0.24,0.68-0.48,1.37-0.72,2.08l-4.57-4.57
		C161.21,98.88,161.55,98.29,161.89,97.69z M160.4,100.32l4.71,4.71c-0.23,0.69-0.47,1.39-0.7,2.1l-5-4.99
		C159.74,101.52,160.07,100.92,160.4,100.32z M158.96,102.98l5.13,5.13c-0.23,0.7-0.45,1.41-0.67,2.13l-5.41-5.41
		C158.32,104.22,158.64,103.6,158.96,102.98z M157.57,105.71l5.53,5.53c-0.22,0.71-0.43,1.43-0.65,2.15l-5.8-5.8
		C156.96,106.96,157.26,106.33,157.57,105.71z M156.23,108.48l5.93,5.93c-0.21,0.72-0.41,1.45-0.62,2.18l-6.19-6.19
		C155.64,109.76,155.93,109.12,156.23,108.48z M154.95,111.3l6.31,6.31c-0.2,0.73-0.4,1.47-0.59,2.21l-6.57-6.57
		C154.38,112.6,154.66,111.95,154.95,111.3z M153.71,114.17l6.68,6.68c-0.19,0.74-0.38,1.49-0.56,2.24l-6.94-6.94
		C153.16,115.5,153.43,114.84,153.71,114.17z M152.52,117.09l7.05,7.05c-0.18,0.75-0.36,1.5-0.54,2.26l-7.3-7.3
		C151.99,118.44,152.25,117.77,152.52,117.09z M151.38,120.06l7.41,7.41c-0.17,0.76-0.34,1.52-0.51,2.29l-7.66-7.66
		C150.87,121.43,151.12,120.75,151.38,120.06z M150.29,123.08l7.77,7.77c-0.16,0.77-0.32,1.54-0.48,2.32l-8.01-8.01
		C149.8,124.47,150.04,123.78,150.29,123.08z M149.24,126.14l8.13,8.13c-0.15,0.78-0.3,1.56-0.45,2.35l-8.36-8.36
		C148.78,127.56,149.01,126.86,149.24,126.14z M148.24,129.26l8.48,8.48c-0.14,0.79-0.28,1.58-0.41,2.39l-8.72-8.72
		C147.8,130.7,148.02,129.98,148.24,129.26z M147.3,132.42l8.83,8.83c-0.13,0.8-0.26,1.61-0.38,2.42l-9.07-9.07
		C146.88,133.89,147.09,133.16,147.3,132.42z M146.4,135.64l9.19,9.19c-0.12,0.82-0.23,1.63-0.34,2.46l-9.43-9.43
		C146,137.12,146.2,136.38,146.4,135.64z M145.55,138.9l9.55,9.55c-0.1,0.83-0.21,1.66-0.3,2.5l-9.8-9.79
		C145.18,140.41,145.36,139.66,145.55,138.9z M144.76,142.21l9.92,9.92c-0.09,0.84-0.18,1.69-0.26,2.54l-10.16-10.16
		C144.41,143.75,144.58,142.99,144.76,142.21z M144.02,145.58l10.29,10.29c-0.08,0.86-0.15,1.71-0.22,2.58l-10.54-10.54
		C143.69,147.16,143.85,146.38,144.02,145.58z M143.33,149L154,159.67c-0.02,0.32-0.05,0.65-0.07,0.97h-1.76l-9.27-9.27
		C143.03,150.61,143.17,149.83,143.33,149z M142.7,152.49l8.16,8.16h-2.8l-5.75-5.75C142.43,154.15,142.56,153.34,142.7,152.49z
		 M142.14,156.04l4.61,4.61h-2.8l-2.14-2.15C141.9,157.78,142.01,156.96,142.14,156.04z M141.66,159.67l0.98,0.98h-1.09
		C141.58,160.36,141.62,160.04,141.66,159.67z M131.12,123.16l-7.26-7.26c0.06-0.89,0.11-1.77,0.16-2.64l7.06,7.06
		C131.11,121.26,131.12,122.2,131.12,123.16z M131.05,118.98l-6.95-6.95c0.05-0.9,0.09-1.8,0.12-2.68l6.7,6.7
		C130.97,117.01,131.02,117.98,131.05,118.98z M130.83,114.65l-6.56-6.56c0.03-0.92,0.06-1.83,0.08-2.72l6.25,6.25
		C130.69,112.61,130.77,113.62,130.83,114.65z M130.46,110.16l-6.08-6.08c0.02-0.94,0.03-1.86,0.04-2.76l5.68,5.68
		C130.23,108.04,130.35,109.09,130.46,110.16z M129.9,105.5l-5.48-5.48c0-0.96,0-1.89-0.01-2.81l4.99,4.99
		C129.58,103.27,129.75,104.38,129.9,105.5z M129.14,100.62l-4.73-4.73c-0.01-0.98-0.03-1.93-0.05-2.86l4.12,4.12
		C128.71,98.28,128.93,99.44,129.14,100.62z M128.12,95.5l-3.8-3.8c-0.03-1.01-0.07-1.97-0.11-2.91l3.04,3.04
		C127.55,93,127.84,94.22,128.12,95.5z M126.78,90.05l-2.63-2.63c-0.05-1.04-0.1-2.03-0.16-2.96l1.66,1.66
		C126.03,87.34,126.41,88.66,126.78,90.05z M125.03,84.18l-1.13-1.13c-0.07-0.95-0.13-1.84-0.2-2.66
		C124.13,81.54,124.57,82.81,125.03,84.18z M123.78,117.12l7.34,7.34c-0.01,0.91-0.02,1.83-0.05,2.75l-7.5-7.5
		C123.65,118.85,123.72,117.98,123.78,117.12z M123.47,120.93l7.56,7.56c-0.03,0.89-0.07,1.78-0.12,2.68l-7.68-7.68
		C123.32,122.63,123.4,121.78,123.47,120.93z M123.12,124.68l7.72,7.72c-0.06,0.86-0.12,1.73-0.19,2.61l-7.8-7.8
		C122.94,126.36,123.03,125.52,123.12,124.68z M122.7,128.38l7.83,7.83c-0.08,0.84-0.17,1.69-0.26,2.54l-7.88-7.88
		C122.5,130.03,122.6,129.2,122.7,128.38z M122.23,132.02l7.91,7.91c-0.1,0.82-0.21,1.65-0.32,2.48l-7.94-7.94
		C122.01,133.65,122.12,132.83,122.23,132.02z M121.71,135.61l7.95,7.95c-0.12,0.8-0.25,1.61-0.38,2.42l-7.96-7.96
		C121.46,137.21,121.59,136.41,121.71,135.61z M121.14,139.15l7.96,7.96c-0.13,0.78-0.28,1.58-0.43,2.37l-7.95-7.95
		C120.87,140.73,121.01,139.94,121.14,139.15z M120.52,142.64l7.94,7.94c-0.15,0.77-0.31,1.54-0.48,2.32l-7.92-7.92
		C120.22,144.2,120.37,143.41,120.52,142.64z M119.85,146.07l7.91,7.91c-0.06,0.28-0.13,0.56-0.19,0.84
		c-0.13,0.49-0.26,0.95-0.37,1.39l-7.83-7.83C119.53,147.61,119.69,146.84,119.85,146.07z M119.13,149.46l7.79,7.79
		c-0.22,0.88-0.41,1.63-0.55,2.25l-7.76-7.76C118.78,150.98,118.96,150.22,119.13,149.46z M118.36,152.8l7.76,7.76
		c-0.01,0.03-0.01,0.05-0.02,0.08h-2.7l-5.6-5.6C117.99,154.3,118.18,153.55,118.36,152.8z M117.54,156.09l4.55,4.55h-2.8
		l-2.34-2.34C117.15,157.56,117.35,156.83,117.54,156.09z M117.98,160.64h-1.69c0.13-0.44,0.26-0.88,0.38-1.31L117.98,160.64z
		 M86.07,108.89c6.05,4.71,10.86,10.62,14.68,16.77L89.7,114.61C88.56,112.69,87.36,110.77,86.07,108.89z M91.43,117.66l11.23,11.23
		c1.08,1.92,2.05,3.85,2.95,5.75l-11.25-11.25C93.45,121.49,92.48,119.57,91.43,117.66z M95.5,125.83l11.22,11.22
		c0.71,1.62,1.37,3.22,1.96,4.77l-11.1-11.1C96.93,129.11,96.24,127.48,95.5,125.83z M98.43,132.87l11.03,11.02
		c0.53,1.47,1,2.88,1.43,4.23l-10.86-10.86C99.53,135.84,99,134.37,98.43,132.87z M100.69,139.25l10.78,10.78
		c0.42,1.39,0.78,2.69,1.09,3.89l-10.6-10.6C101.57,142,101.15,140.65,100.69,139.25z M102.49,145.16L113,155.67
		c0.35,1.42,0.62,2.65,0.81,3.61l-10.3-10.3C103.21,147.77,102.87,146.49,102.49,145.16z M113.87,160.64h-2.8l-6.32-6.32
		c-0.23-1.1-0.5-2.3-0.81-3.61L113.87,160.64z M105.7,159.38c-0.14-0.87-0.34-2.02-0.61-3.42l4.68,4.68h-2.8L105.7,159.38z"/>
</g>
<g>
	<g>
		<g>
			<g>
				<g>
					<path d="M49.77,112.68l0.65-1.69l-10.51-4l-0.65,1.69l-1.72-0.65l2.08-5.46c1.12-2.95,3.7-4.56,6.46-3.51
						c2.99,1.14,3.79,3.92,2.58,7.1c-0.27,0.72-0.54,1.35-0.69,1.7l3.18,1.21l0.69-1.82l1.72,0.65l-2.07,5.44L49.77,112.68z
						 M45.33,101.02c-1.72-0.65-3.3,0.37-4.01,2.23l-0.69,1.8l5.64,2.15c0.16-0.35,0.4-0.92,0.74-1.83
						C47.78,103.36,47.15,101.71,45.33,101.02z"/>
					<path d="M55.78,97.68l0.71-1.16l-7.41-9.45l-0.87,1.41l-1.54-0.95l3.93-6.37l1.55,0.95l-0.88,1.43l11.77,2.39l0.73-1.18
						l1.56,0.96l-2.79,4.52l-1.54-0.95l0.9-1.47l-3.26-0.71l-3.1,5.02l2.1,2.6l0.95-1.54l1.54,0.95l-2.79,4.52L55.78,97.68z
						 M56.86,86.69l-6.78-1.41l4.3,5.43L56.86,86.69z"/>
					<path d="M66.6,79.45c-0.7-0.65-0.77-1.48-0.23-2.06c0.55-0.6,1.37-0.59,1.84-0.16c0.3,0.28,0.44,0.56,0.52,0.88
						c0.69-0.08,1.61-0.58,2.43-1.47c1.23-1.34,1.36-2.79,0.28-3.79c-1.04-0.95-2.44-0.4-3.95,0.37c-2.55,1.3-4.53,2.1-6.48,0.3
						c-1.72-1.58-1.75-4.14,0.21-6.26c1.77-1.92,4.19-2.47,5.41-1.35c0.68,0.63,0.69,1.43,0.19,1.97c-0.59,0.64-1.41,0.59-1.91,0.13
						c-0.27-0.25-0.36-0.48-0.42-0.72c-0.54,0.05-1.34,0.52-1.98,1.21c-1.12,1.22-1.15,2.56-0.23,3.4c1.05,0.97,2.41,0.4,4.05-0.41
						c2.44-1.24,4.43-2.03,6.37-0.25c2.01,1.85,1.75,4.51-0.24,6.66C70.48,80.06,67.78,80.54,66.6,79.45z"/>
					<path d="M81.73,66.31l1.56-1.17l-6.8-9.06l-2.67,2l1.43,1.91l-1.56,1.17l-2.49-3.33l10.11-7.58l2.49,3.32l-1.56,1.17
						l-1.43-1.91l-2.67,2l6.8,9.06l1.56-1.17l1.1,1.47l-4.78,3.58L81.73,66.31z"/>
					<path d="M94.48,53.65l-3.33-7.09l-1.6,0.75l-0.78-1.67l5.16-2.42l0.78,1.67l-1.7,0.8l3.27,6.97c1.07,2.28,2.76,2.89,4.74,1.97
						c2-0.93,2.66-2.57,1.58-4.86l-3.3-7.03l-1.71,0.8l-0.78-1.66l5.14-2.41l0.78,1.66l-1.62,0.76l3.3,7.03
						c1.57,3.35,0.43,5.99-2.59,7.41C98.75,57.77,96.03,56.94,94.48,53.65z"/>
					<path d="M113.51,49.34l1.77-0.42l-2.63-10.95l-1.77,0.42l-0.43-1.79l5.56-1.33c3.27-0.78,5.84,0.21,6.5,2.97
						c0.47,1.94-0.43,3.65-2,4.68l3.77,3.83l1.7-0.41l0.43,1.79l-3.07,0.74l-4.67-4.97c-0.28,0.09-0.56,0.18-0.85,0.25
						c-0.53,0.13-1.11,0.24-1.49,0.31l0.95,3.97l1.85-0.44l0.43,1.79l-5.63,1.35L113.51,49.34z M120.48,38.8
						c-0.41-1.7-2.01-2.23-4.15-1.71l-1.68,0.4l1.26,5.25c0.38-0.07,0.89-0.17,1.62-0.34C119.62,41.9,120.9,40.54,120.48,38.8z"/>
					<path d="M131.91,45.63l1.82-0.08l-0.5-11.26l-1.82,0.08l-0.08-1.84l10.96-0.49l0.17,3.91l-1.95,0.08l-0.09-2.09l-5.13,0.23
						l0.21,4.63l4.72-0.21l0.08,1.77l-4.72,0.21l0.22,4.9l5.13-0.23l-0.09-2.09l1.98-0.09l0.17,3.9l-10.99,0.49L131.91,45.63z"/>
					<path d="M160.42,46.87l1.76,0.46l2.85-10.88l-1.76-0.46l0.47-1.78l5.53,1.44c3.25,0.85,5.05,2.94,4.33,5.68
						c-0.51,1.93-2.1,3.01-3.97,3.18l1.51,5.15l1.69,0.44l-0.46,1.78l-3.05-0.8l-1.77-6.58c-0.29-0.05-0.58-0.11-0.87-0.18
						c-0.53-0.14-1.09-0.31-1.46-0.43l-1.03,3.95l1.84,0.48l-0.46,1.78l-5.6-1.46L160.42,46.87z M171.53,40.87
						c0.44-1.69-0.72-2.91-2.85-3.46l-1.67-0.44l-1.37,5.22c0.37,0.12,0.87,0.27,1.59,0.46C169.31,43.2,171.08,42.6,171.53,40.87z"
						/>
					<path d="M177.78,51.87l1.22,0.61l8.74-8.27l-1.49-0.74l0.81-1.63l6.72,3.33l-0.81,1.63l-1.51-0.75l-1.29,11.97l1.24,0.62
						l-0.82,1.65l-4.77-2.36l0.81-1.63l1.55,0.77l0.4-3.33l-5.29-2.62l-2.4,2.34l1.63,0.81l-0.81,1.63l-4.76-2.36L177.78,51.87z
						 M188.84,51.92l0.78-6.89l-5.01,4.8L188.84,51.92z"/>
					<path d="M196.52,62.2l1.57,1.16l6.66-9.07l-1.57-1.16l1.09-1.48l4.77,3.5l-1.09,1.48l-1.56-1.14l-6.66,9.07l1.55,1.14
						l-1.09,1.48l-4.77-3.51L196.52,62.2z"/>
					<path d="M207.66,69.45c0.68-0.67,1.51-0.7,2.07-0.13c0.57,0.58,0.52,1.4,0.07,1.85c-0.29,0.29-0.58,0.41-0.9,0.48
						c0.04,0.69,0.5,1.64,1.35,2.49c1.28,1.29,2.72,1.49,3.77,0.46c1-0.99,0.51-2.42-0.19-3.96c-1.17-2.61-1.88-4.62,0.01-6.48
						c1.66-1.64,4.21-1.55,6.24,0.5c1.84,1.86,2.27,4.3,1.09,5.46c-0.66,0.65-1.46,0.62-1.97,0.1c-0.61-0.61-0.52-1.43-0.04-1.91
						c0.26-0.26,0.5-0.33,0.74-0.38c-0.03-0.55-0.46-1.37-1.11-2.03c-1.17-1.18-2.5-1.27-3.38-0.39c-1.02,1-0.51,2.39,0.22,4.06
						c1.12,2.5,1.82,4.52-0.05,6.37c-1.94,1.91-4.58,1.53-6.64-0.55C206.86,73.3,206.51,70.58,207.66,69.45z"/>
					<path d="M218.49,82.89l1.02,1.5l9.32-6.32l-1.02-1.5l1.52-1.03l6.15,9.08l-3.23,2.19l-1.1-1.62l1.73-1.17L230,79.77l-3.83,2.6
						l2.65,3.91l-1.47,0.99l-2.65-3.91l-4.06,2.75l2.88,4.25l1.73-1.17l1.11,1.63l-3.23,2.19l-6.17-9.1L218.49,82.89z"/>
					<path d="M228.13,97.98l0.7,1.67l10.38-4.32l-0.7-1.67l1.69-0.71l2.15,5.17c2.04,4.9,0.66,9.03-3.46,10.74
						c-4.17,1.73-8.21,0.05-10.36-5.15l-2.1-5.04L228.13,97.98z M230.33,103.28c1.61,3.87,4.57,4.97,7.77,3.64
						c3.18-1.32,4.07-4.44,2.54-8.13L240,97.25l-10.38,4.32L230.33,103.28z"/>
				</g>
			</g>
		</g>
	</g>
</g>
</svg>
