<?xml version="1.0" encoding="utf-8"?>
<!-- Generator: Adobe Illustrator 23.0.1, SVG Export Plug-In . SVG Version: 6.00 Build 0)  -->
<svg version="1.1" id="EQ" xmlns="http://www.w3.org/2000/svg" xmlns:xlink="http://www.w3.org/1999/xlink" x="0px" y="0px"
	 viewBox="0 0 216.35 216.35" style="enable-background:new 0 0 216.35 216.35;" xml:space="preserve">
<style type="text/css">
	.st0{fill:none;}
	.st1{fill:url(#SVGID_1_);}
	.st2{fill:url(#SVGID_2_);}
	.st3{fill:url(#SVGID_3_);}
	.st4{fill:url(#SVGID_4_);}
	.st5{fill:#231F20;}
</style>
<g>
	<g>
		<g>
			<path class="st0" d="M108.26,19.44c-48.98,0-88.69,39.71-88.69,88.69c0,48.98,39.71,88.69,88.69,88.69s88.69-39.71,88.69-88.69
				C196.96,59.15,157.25,19.44,108.26,19.44z M169.85,169.73c-15.77,15.77-37.53,25.51-61.59,25.51c-24.06,0-45.82-9.75-61.59-25.51
				c-15.77-15.77-25.51-37.53-25.51-61.59c0-24.06,9.75-45.82,25.51-61.59c15.77-15.77,37.53-25.51,61.59-25.51
				c24.06,0,45.82,9.75,61.59,25.51c15.77,15.77,25.51,37.53,25.51,61.59C195.36,132.2,185.62,153.96,169.85,169.73z"/>
			<g>
				<path class="st0" d="M108.26,19.44c-48.98,0-88.69,39.71-88.69,88.69c0,48.98,39.71,88.69,88.69,88.69s88.69-39.71,88.69-88.69
					C196.96,59.15,157.25,19.44,108.26,19.44z M169.85,169.73c-15.77,15.77-37.53,25.51-61.59,25.51
					c-24.06,0-45.82-9.75-61.59-25.51c-15.77-15.77-25.51-37.53-25.51-61.59c0-24.06,9.75-45.82,25.51-61.59
					c15.77-15.77,37.53-25.51,61.59-25.51c24.06,0,45.82,9.75,61.59,25.51c15.77,15.77,25.51,37.53,25.51,61.59
					C195.36,132.2,185.62,153.96,169.85,169.73z"/>
				<linearGradient id="SVGID_1_" gradientUnits="userSpaceOnUse" x1="78.0038" y1="9.1728" x2="136.7932" y2="201.4643">
					<stop  offset="0" style="stop-color:#8B878D"/>
					<stop  offset="0.0542" style="stop-color:#928E94"/>
					<stop  offset="0.1327" style="stop-color:#A4A1A6"/>
					<stop  offset="0.2259" style="stop-color:#C2C1C3"/>
					<stop  offset="0.3297" style="stop-color:#EBECED"/>
					<stop  offset="0.3445" style="stop-color:#F2F3F3"/>
					<stop  offset="0.551" style="stop-color:#FFFFFF"/>
					<stop  offset="0.7382" style="stop-color:#D0D2D3"/>
					<stop  offset="0.7884" style="stop-color:#C7C8CA"/>
					<stop  offset="0.873" style="stop-color:#AEAEB0"/>
					<stop  offset="0.9811" style="stop-color:#878387"/>
					<stop  offset="1" style="stop-color:#7F7B7F"/>
				</linearGradient>
				<path class="st1" d="M169.85,46.54c-15.77-15.77-37.53-25.51-61.59-25.51c-24.06,0-45.82,9.75-61.59,25.51
					C30.9,62.31,21.16,84.08,21.15,108.14c0,24.06,9.75,45.82,25.51,61.59c15.77,15.77,37.53,25.51,61.59,25.51
					c24.06,0,45.82-9.75,61.59-25.51c15.77-15.77,25.51-37.53,25.51-61.59C195.36,84.08,185.62,62.31,169.85,46.54z"/>
				<linearGradient id="SVGID_2_" gradientUnits="userSpaceOnUse" x1="81.963" y1="16.4278" x2="134.8845" y2="200.9869">
					<stop  offset="0" style="stop-color:#6D6E70"/>
					<stop  offset="0.0669" style="stop-color:#77787A"/>
					<stop  offset="0.1798" style="stop-color:#919294"/>
					<stop  offset="0.3241" style="stop-color:#BBBDBF"/>
					<stop  offset="0.3247" style="stop-color:#BBBDBF"/>
					<stop  offset="0.5415" style="stop-color:#E6E7E8"/>
					<stop  offset="0.61" style="stop-color:#DCDDDF"/>
					<stop  offset="0.7253" style="stop-color:#C2C4C6"/>
					<stop  offset="0.7516" style="stop-color:#BBBDBF"/>
					<stop  offset="1" style="stop-color:#6D6E70"/>
				</linearGradient>
				<path class="st2" d="M108.26,16.97c-50.35,0-91.17,40.82-91.17,91.17c0,50.35,40.82,91.17,91.17,91.17
					c50.35,0,91.17-40.82,91.17-91.17C199.43,57.78,158.61,16.97,108.26,16.97z M108.26,196.83c-48.98,0-88.69-39.71-88.69-88.69
					c0-48.98,39.71-88.69,88.69-88.69s88.69,39.71,88.69,88.69C196.96,157.12,157.25,196.83,108.26,196.83z"/>
			</g>
		</g>
		<linearGradient id="SVGID_3_" gradientUnits="userSpaceOnUse" x1="78.0041" y1="9.1727" x2="136.7935" y2="201.4643">
			<stop  offset="0" style="stop-color:#8B878D"/>
			<stop  offset="0.0542" style="stop-color:#928E94"/>
			<stop  offset="0.1327" style="stop-color:#A4A1A6"/>
			<stop  offset="0.2259" style="stop-color:#C2C1C3"/>
			<stop  offset="0.3297" style="stop-color:#EBECED"/>
			<stop  offset="0.3445" style="stop-color:#F2F3F3"/>
			<stop  offset="0.551" style="stop-color:#FFFFFF"/>
			<stop  offset="0.7382" style="stop-color:#D0D2D3"/>
			<stop  offset="0.7884" style="stop-color:#C7C8CA"/>
			<stop  offset="0.873" style="stop-color:#AEAEB0"/>
			<stop  offset="0.9811" style="stop-color:#878387"/>
			<stop  offset="1" style="stop-color:#7F7B7F"/>
		</linearGradient>
		<path class="st3" d="M108.26,19.44c-48.98,0-88.69,39.71-88.69,88.69c0,48.98,39.71,88.69,88.69,88.69s88.69-39.71,88.69-88.69
			C196.96,59.15,157.25,19.44,108.26,19.44z M169.85,169.73c-15.77,15.77-37.53,25.51-61.59,25.51c-24.06,0-45.82-9.75-61.59-25.51
			c-15.77-15.77-25.51-37.53-25.51-61.59c0-24.06,9.75-45.82,25.51-61.59c15.77-15.77,37.53-25.51,61.59-25.51
			c24.06,0,45.82,9.75,61.59,25.51c15.77,15.77,25.51,37.53,25.51,61.59C195.36,132.2,185.62,153.96,169.85,169.73z"/>
		<linearGradient id="SVGID_4_" gradientUnits="userSpaceOnUse" x1="81.9633" y1="16.4277" x2="134.8848" y2="200.9868">
			<stop  offset="0" style="stop-color:#6D6E70"/>
			<stop  offset="0.0669" style="stop-color:#77787A"/>
			<stop  offset="0.1798" style="stop-color:#919294"/>
			<stop  offset="0.3241" style="stop-color:#BBBDBF"/>
			<stop  offset="0.3247" style="stop-color:#BBBDBF"/>
			<stop  offset="0.5415" style="stop-color:#E6E7E8"/>
			<stop  offset="0.61" style="stop-color:#DCDDDF"/>
			<stop  offset="0.7253" style="stop-color:#C2C4C6"/>
			<stop  offset="0.7516" style="stop-color:#BBBDBF"/>
			<stop  offset="1" style="stop-color:#6D6E70"/>
		</linearGradient>
		<path class="st4" d="M108.26,19.44c-48.98,0-88.69,39.71-88.69,88.69c0,48.98,39.71,88.69,88.69,88.69s88.69-39.71,88.69-88.69
			C196.96,59.15,157.25,19.44,108.26,19.44z M169.85,169.73c-15.77,15.77-37.53,25.51-61.59,25.51c-24.06,0-45.82-9.75-61.59-25.51
			c-15.77-15.77-25.51-37.53-25.51-61.59c0-24.06,9.75-45.82,25.51-61.59c15.77-15.77,37.53-25.51,61.59-25.51
			c24.06,0,45.82,9.75,61.59,25.51c15.77,15.77,25.51,37.53,25.51,61.59C195.36,132.2,185.62,153.96,169.85,169.73z"/>
	</g>
	<g>
		<g>
			<path class="st5" d="M35.8,123.44c-0.73,0.12-1.32-0.28-1.43-0.97c-0.11-0.68,0.32-1.19,0.89-1.29c0.18-0.03,0.33-0.02,0.5,0.02
				c0.15-0.36,0.19-0.83,0.1-1.36c-0.14-0.89-0.61-1.36-1.24-1.26c-0.62,0.1-0.86,0.76-1.05,1.73c-0.43,2.11-0.88,3.28-2.5,3.54
				c-1.55,0.25-2.92-0.88-3.24-2.87c-0.31-1.9,0.48-3.35,1.55-3.52c0.75-0.12,1.23,0.27,1.33,0.87c0.11,0.68-0.32,1.19-0.88,1.28
				c-0.13,0.02-0.24,0.01-0.34-0.02c-0.08,0.29-0.11,0.65-0.04,1.13c0.13,0.83,0.58,1.25,1.16,1.16c0.63-0.1,0.85-0.86,1.04-1.89
				c0.39-1.93,0.87-3.16,2.48-3.42c1.71-0.27,3.05,0.89,3.39,2.97C37.82,121.54,37.11,123.23,35.8,123.44z"/>
			<path class="st5" d="M34.85,113.88l-0.03-1.1l-6.06,0.16l0.03,1.1l-1.67,0.04l-0.19-7.5l2.86-0.07l0.05,1.86l-1.19,0.03
				l0.07,2.51l2.2-0.06l-0.07-2.76l1.51-0.04l0.07,2.76l2.34-0.06l-0.06-2.51l-1.24,0.03l-0.05-1.87l2.91-0.08l0.19,7.51
				L34.85,113.88z"/>
			<path class="st5" d="M34.77,103.74l0.12-1.09L28.87,102l-0.12,1.09l-1.66-0.18l0.47-4.36l1.66,0.18l-0.13,1.25l6.02,0.65
				l0.25-2.33l-1.45-0.16l0.2-1.83l3.11,0.33l-0.78,7.27L34.77,103.74z"/>
			<path class="st5" d="M35.96,94.13l0.26-1.07l-5.88-1.45l-0.26,1.07l-1.62-0.4l1.8-7.28l2.77,0.68l-0.44,1.8l-1.15-0.28l-0.6,2.44
				l2.14,0.53l0.66-2.68l1.47,0.36l-0.66,2.68l2.27,0.56l0.6-2.44l-1.21-0.3l0.45-1.82l2.83,0.7l-1.8,7.29L35.96,94.13z"/>
			<path class="st5" d="M42.09,80.54c-1.12,2.74-3.68,3.88-6.37,2.78c-2.62-1.07-3.75-3.83-2.66-6.5c0.87-2.13,2.51-3,3.6-2.55
				c0.67,0.28,1,0.92,0.71,1.62c-0.24,0.59-0.85,0.9-1.52,0.63c-0.12-0.05-0.23-0.12-0.31-0.19c-0.25,0.2-0.55,0.55-0.81,1.2
				c-0.62,1.52,0.05,3.15,1.74,3.84c1.64,0.67,3.29,0.03,3.96-1.6c0.42-1.02,0.26-2-0.07-2.93l1.7-0.54
				C42.65,77.56,42.7,79.06,42.09,80.54z"/>
			<path class="st5" d="M43.89,72.5l0.61-1.02l-5.24-3.12l-0.76,1.28l1.31,0.78l-0.92,1.55l-2.71-1.61l4.4-7.4l2.71,1.61l-0.92,1.55
				l-1.31-0.78l-0.77,1.29l5.24,3.12l0.61-1.02l1.44,0.85l-2.25,3.78L43.89,72.5z"/>
			<path class="st5" d="M48.57,65.02l0.69-0.86l-4.72-3.8l-0.69,0.86l-1.3-1.05l4.7-5.84l2.22,1.79l-1.16,1.45l-0.92-0.74
				l-1.58,1.96l1.71,1.38l1.73-2.15l1.18,0.95l-1.73,2.15l1.82,1.47l1.58-1.96l-0.97-0.78l1.17-1.46l2.27,1.83l-4.71,5.85
				L48.57,65.02z"/>
			<path class="st5" d="M55,57.23l0.81-0.75l-4.11-4.45l-0.81,0.75l-1.13-1.23l2.79-2.58c2.54-2.34,5.23-2.38,7.14-0.31
				c1.93,2.09,1.86,4.79-0.88,7.32l-2.68,2.47L55,57.23z M57.87,54.59c1.56-1.44,1.58-3.07,0.28-4.48c-1.33-1.44-2.95-1.3-4.46,0.09
				l-0.49,0.46l4.11,4.45L57.87,54.59z"/>
			<path class="st5" d="M66.56,45.06c-0.38-0.6-0.21-1.39,0.38-1.77c0.59-0.38,1.38-0.2,1.76,0.4c0.38,0.59,0.2,1.38-0.39,1.76
				C67.72,45.82,66.93,45.65,66.56,45.06z"/>
			<path class="st5" d="M80.87,41.85c-2.14,0.88-4.81,0.03-5.94-2.72c-1.09-2.66,0.04-5.39,2.74-6.51c2.13-0.88,3.9-0.34,4.35,0.76
				c0.27,0.66,0.04,1.33-0.66,1.62c-0.59,0.24-1.23,0.04-1.51-0.62c-0.04-0.11-0.07-0.22-0.09-0.32c-0.32-0.06-0.77-0.02-1.4,0.24
				c-1.53,0.63-2.23,2.25-1.52,3.98c0.72,1.76,2.36,2.36,3.79,1.78c0.71-0.29,1.22-0.76,1.53-1.31l-0.47-1.15l-1.9,0.78l-0.58-1.4
				l3.73-1.53l1.89,4.6l-1.72,0.71l-0.29-0.71C82.48,40.79,81.84,41.45,80.87,41.85z"/>
			<path class="st5" d="M91.41,38.27l-4.04,0.97l-0.39-1.62l1.07-0.26l-1.41-5.89l-1.07,0.26l-0.39-1.62l3.91-0.94
				c2.15-0.52,3.92,0.01,4.38,1.9c0.27,1.14-0.19,2.19-1.08,2.83l1.88,1.97l1.04-0.25l0.39,1.62l-2.4,0.58l-2.6-2.94
				c-0.15,0.04-0.3,0.09-0.45,0.12c-0.22,0.05-0.47,0.11-0.64,0.14l0.42,1.75l1-0.24L91.41,38.27z M91.45,31.66
				c-0.2-0.83-0.97-1.12-2.13-0.84L88.6,31l0.63,2.64c0.17-0.03,0.37-0.06,0.77-0.16C91.05,33.23,91.66,32.55,91.45,31.66z"/>
			<path class="st5" d="M101.31,36.6l-3.94,0.33l-0.14-1.67l0.88-0.07l1.59-6.21l-1.14,0.09l-0.14-1.67l6.21-0.51l0.14,1.67
				l-1.15,0.1l2.59,5.86l0.9-0.07l0.14,1.67l-4.04,0.33l-0.14-1.67l1.01-0.08l-0.52-1.3l-3.12,0.26l-0.3,1.37l1.04-0.09L101.31,36.6
				z M100.76,32.16l2.25-0.19l-1.4-3.19L100.76,32.16z"/>
			<path class="st5" d="M109.32,34.47l1.1,0.08l0.46-6.03l-1.1-0.08l0.13-1.67l3.79,0.29c3.44,0.26,5.3,2.21,5.09,5.01
				c-0.22,2.83-2.24,4.62-5.96,4.34l-3.63-0.28L109.32,34.47z M113.2,34.77c2.12,0.16,3.32-0.93,3.47-2.84
				c0.15-1.95-1.06-3.04-3.1-3.2l-0.67-0.05l-0.46,6.03L113.2,34.77z"/>
			<path class="st5" d="M121.01,35.61l1.07,0.25l1.35-5.9l-1.07-0.25l0.37-1.63l7.31,1.68l-0.64,2.78l-1.81-0.42l0.27-1.15
				l-2.45-0.56l-0.49,2.14l2.69,0.62l-0.34,1.47l-2.69-0.62l-0.52,2.28l2.45,0.56l0.28-1.21l1.82,0.42l-0.65,2.84l-7.32-1.68
				L121.01,35.61z"/>
			<path class="st5" d="M130.85,37.99l1.02,0.4l2.22-5.63l-1.02-0.4l0.61-1.55l3.53,1.39c3.21,1.27,4.42,3.67,3.39,6.29
				c-1.04,2.64-3.51,3.76-6.97,2.4l-3.39-1.33L130.85,37.99z M134.48,39.42c1.98,0.78,3.45,0.08,4.15-1.7
				c0.72-1.82-0.11-3.22-2.03-3.97l-0.62-0.25l-2.22,5.63L134.48,39.42z"/>
			<path class="st5" d="M146.82,43.08c0.37-0.61,1.16-0.79,1.76-0.43c0.6,0.37,0.78,1.15,0.41,1.76c-0.37,0.6-1.15,0.78-1.75,0.42
				S146.45,43.68,146.82,43.08z"/>
			<path class="st5" d="M155.79,54.25l-3.12-2.75l1.11-1.25l0.82,0.73l4.01-4.54l-0.82-0.73l1.11-1.25l3.02,2.67
				c1.66,1.47,2.24,3.22,0.96,4.68c-0.78,0.88-1.91,1.1-2.94,0.74l-0.53,2.67l0.8,0.71l-1.11,1.25l-1.85-1.64l0.92-3.82
				c-0.12-0.1-0.25-0.2-0.36-0.3c-0.17-0.15-0.36-0.32-0.48-0.44l-1.19,1.35L156.9,53L155.79,54.25z M161.23,50.49
				c0.57-0.64,0.36-1.44-0.53-2.22l-0.56-0.49l-1.8,2.03c0.12,0.12,0.26,0.27,0.57,0.54C159.71,51.06,160.62,51.18,161.23,50.49z"/>
			<path class="st5" d="M161.76,57.55l0.71,0.84l4.61-3.93l-0.71-0.84l1.27-1.08l4.86,5.7l-2.17,1.85l-1.2-1.41l0.9-0.77L168.4,56
				l-1.67,1.43l1.79,2.1l-1.15,0.98l-1.79-2.1l-1.78,1.52l1.63,1.91l0.95-0.81l1.21,1.42l-2.22,1.89l-4.87-5.71L161.76,57.55z"/>
			<path class="st5" d="M168.46,65.02c0.62-0.4,1.32-0.28,1.7,0.31c0.37,0.58,0.19,1.22-0.3,1.54c-0.16,0.1-0.29,0.15-0.46,0.18
				c0.01,0.38,0.16,0.83,0.46,1.29c0.49,0.76,1.11,1,1.65,0.65c0.53-0.34,0.48-1.04,0.26-2.01c-0.46-2.1-0.52-3.35,0.86-4.25
				c1.32-0.85,3.02-0.37,4.12,1.32c1.05,1.62,0.91,3.25,0,3.84c-0.64,0.41-1.23,0.25-1.57-0.26c-0.37-0.58-0.19-1.22,0.29-1.53
				c0.11-0.07,0.22-0.11,0.31-0.12c-0.04-0.3-0.16-0.64-0.43-1.05c-0.46-0.71-1.03-0.91-1.52-0.6c-0.54,0.35-0.43,1.13-0.19,2.15
				c0.43,1.92,0.48,3.24-0.88,4.13c-1.45,0.94-3.15,0.42-4.29-1.35C167.38,67.58,167.34,65.74,168.46,65.02z"/>
			<path class="st5" d="M173.19,73.39l0.47,0.99l5.48-2.58l-0.47-0.99l1.51-0.71l3.2,6.78l-2.58,1.22L180,76.41l1.07-0.51L180,73.63
				l-1.99,0.94l1.17,2.49l-1.37,0.65l-1.17-2.49l-2.12,1l1.07,2.27l1.12-0.53l0.8,1.69l-2.63,1.24l-3.2-6.79L173.19,73.39z"/>
			<path class="st5" d="M176.99,87.08l-1.22-3.97l1.6-0.49l0.32,1.05l5.79-1.77l-0.32-1.05l1.6-0.49l1.18,3.85
				c0.65,2.12,0.23,3.92-1.63,4.48c-1.12,0.34-2.2-0.06-2.89-0.91l-1.85,2l0.31,1.02l-1.6,0.49l-0.72-2.36l2.78-2.78
				c-0.05-0.15-0.11-0.3-0.15-0.45c-0.07-0.22-0.14-0.46-0.18-0.63l-1.72,0.53l0.3,0.98L176.99,87.08z M183.58,86.72
				c0.82-0.25,1.06-1.04,0.71-2.17l-0.22-0.71l-2.59,0.79c0.04,0.17,0.08,0.36,0.2,0.76C181.99,86.42,182.71,86.99,183.58,86.72z"/>
			<path class="st5" d="M186.35,92.2l-0.13-0.88l1.65-0.25l0.62,4.1l-1.65,0.25l-0.15-1.03l-4.26,2.53l4.81,1.16l-0.15-1.03
				l1.65-0.25l0.6,4l-1.65,0.25l-0.13-0.88l-8.19-2.18l-0.2-1.31L186.35,92.2z"/>
			<path class="st5" d="M181.73,104.09l0.02,1.1l6.06-0.1l-0.02-1.1l1.67-0.03l0.12,7.5l-2.86,0.05l-0.03-1.86l1.19-0.02l-0.04-2.51
				l-2.2,0.04l0.04,2.76l-1.51,0.02l-0.04-2.76l-2.34,0.04l0.04,2.51l1.24-0.02l0.03,1.87l-2.91,0.05l-0.12-7.51L181.73,104.09z"/>
			<path class="st5" d="M181.68,114.28l-0.16,1.09l5.99,0.88l0.16-1.09l1.65,0.24l-0.55,3.76c-0.5,3.42-2.57,5.14-5.35,4.73
				c-2.81-0.41-4.46-2.56-3.92-6.25l0.53-3.6L181.68,114.28z M181.12,118.14c-0.31,2.11,0.7,3.38,2.6,3.66
				c1.94,0.28,3.11-0.84,3.41-2.88l0.1-0.66l-5.99-0.88L181.12,118.14z"/>
		</g>
	</g>
	<g>
		<g>
			<path class="st5" d="M35.09,139.57l0.48,0.99l5.45-2.65l-0.48-0.99l1.5-0.73l3.23,6.64l-2.57,1.25l-0.82-1.68l1.07-0.52
				l-1.04-2.15l-2.15,1.04l1.19,2.44l-1.37,0.67l-1.19-2.44l-1.93,0.94l0.55,1.13l-1.5,0.73l-1.92-3.94L35.09,139.57z"/>
			<path class="st5" d="M41.98,146.68c2.29-1.54,5.16-1.08,6.78,1.33c1.62,2.41,0.92,5.22-1.36,6.75c-2.29,1.54-5.16,1.08-6.78-1.33
				C39.01,151.01,39.71,148.21,41.98,146.68z M46.24,153.01c1.48-1,1.89-2.67,1-4c-0.89-1.33-2.59-1.6-4.08-0.6
				c-1.48,1-1.89,2.67-0.99,4.01C43.05,153.74,44.74,154.01,46.24,153.01z"/>
			<path class="st5" d="M48.32,162.92l-2.8-3.07l1.23-1.13l0.74,0.81l4.47-4.09l-0.74-0.81l1.23-1.13l2.72,2.97
				c1.49,1.63,1.89,3.44,0.45,4.75c-0.86,0.79-2.01,0.89-3,0.42l-0.81,2.6l0.72,0.79l-1.23,1.13l-1.67-1.83l1.32-3.7
				c-0.11-0.12-0.22-0.22-0.33-0.34c-0.15-0.17-0.33-0.36-0.43-0.5l-1.33,1.21l0.69,0.76L48.32,162.92z M54.12,159.76
				c0.63-0.58,0.51-1.39-0.29-2.27l-0.5-0.55l-2,1.83c0.11,0.14,0.23,0.29,0.51,0.6C52.56,160.17,53.45,160.38,54.12,159.76z"/>
			<path class="st5" d="M58.27,170.11l0.89,0.65l3.58-4.89l-0.89-0.65l0.99-1.35l6.05,4.43l-1.69,2.31l-1.5-1.1l0.7-0.96l-2.03-1.49
				l-1.3,1.78l2.23,1.63l-0.9,1.22l-2.22-1.63l-1.38,1.89l2.03,1.49l0.73-1l1.51,1.11l-1.72,2.35l-6.06-4.44L58.27,170.11z"/>
			<path class="st5" d="M69.21,179.36l-3.49-1.86l0.79-1.47l0.78,0.42l4.7-4.35l-1.01-0.54l0.79-1.47l5.49,2.93l-0.79,1.47
				l-1.02-0.54l-1,6.33l0.79,0.42l-0.79,1.47l-3.58-1.91l0.79-1.47l0.89,0.48l0.27-1.38l-2.76-1.47l-1,0.99l0.92,0.49L69.21,179.36z
				 M71.15,175.33l1.99,1.06l0.56-3.44L71.15,175.33z"/>
			<path class="st5" d="M79.07,182.17l1.11,0.4l2.08-5.73l-1.4-0.51l-0.52,1.44l-1.69-0.61l1.07-2.97l8.1,2.93l-1.07,2.97
				l-1.69-0.61l0.52-1.44l-1.41-0.51l-2.08,5.73l1.11,0.4l-0.57,1.57l-4.14-1.5L79.07,182.17z"/>
			<path class="st5" d="M88.32,185.18l1.14,0.26l1.35-5.9l-1.14-0.26l0.37-1.63l4.26,0.98l-0.37,1.63l-1.14-0.26l-1.35,5.9
				l1.14,0.26l-0.37,1.63l-4.26-0.98L88.32,185.18z"/>
			<path class="st5" d="M104.81,189.38l-1.31-0.11l-4.13-6.37l-0.39,4.26l1.15,0.11l-0.15,1.67l-4.14-0.38l0.15-1.67l1.1,0.1
				l0.55-6.03l-1.1-0.1l0.15-1.67l2.76,0.25l3.81,5.92l0.35-3.86l-1.18-0.11l0.15-1.67l4.14,0.38l-0.15,1.67l-1.07-0.1
				L104.81,189.38z"/>
			<path class="st5" d="M113.41,189.34c-2.31,0.15-4.56-1.51-4.75-4.48c-0.18-2.86,1.76-5.09,4.68-5.28
				c2.29-0.15,3.79,0.93,3.87,2.11c0.05,0.71-0.39,1.27-1.15,1.32c-0.64,0.04-1.18-0.35-1.23-1.07c-0.01-0.11,0-0.23,0.02-0.33
				c-0.28-0.15-0.72-0.27-1.4-0.23c-1.65,0.11-2.83,1.41-2.71,3.28c0.12,1.9,1.48,3,3.02,2.9c0.77-0.05,1.4-0.33,1.87-0.75
				l-0.08-1.24l-2.05,0.13l-0.1-1.51l4.02-0.26l0.32,4.96l-1.85,0.12l-0.05-0.77C115.26,188.84,114.45,189.27,113.41,189.34z"/>
			<path class="st5" d="M131.27,186.58c-0.43-0.1-0.82-0.15-1.24-0.13c-0.72,0.02-1.6-0.04-2.63-0.6c-0.99-0.54-1.83-1.56-2.23-2.93
				c-0.78-2.65,0.53-5.25,3.31-6.06c2.78-0.82,5.25,0.69,6.02,3.33c0.64,2.18-0.21,4.06-1.69,5.05c0.17,0.01,0.35,0.03,0.51,0.06
				c0.46,0.1,0.79,0.14,1.17,0.03c0.34-0.1,0.68-0.27,1.08-0.84l1.39,1.15c-0.41,0.82-1.14,1.24-1.81,1.44
				C133.78,187.48,132.31,186.81,131.27,186.58z M132.48,180.79c-0.51-1.73-1.97-2.62-3.51-2.17c-1.53,0.45-2.31,1.99-1.79,3.73
				c0.26,0.89,0.79,1.58,1.47,1.95c0.61,0.34,1.32,0.43,2.06,0.22C132.22,184.07,132.99,182.52,132.48,180.79z"/>
			<path class="st5" d="M135.4,176.61l-0.72-1.51l3.75-1.78l0.72,1.51l-0.99,0.47l1.75,3.68c0.57,1.2,1.41,1.57,2.44,1.08
				c1.06-0.5,1.31-1.33,0.73-2.56l-1.76-3.7l-0.98,0.47l-0.72-1.51l3.68-1.75l0.72,1.51l-0.93,0.44l1.84,3.87
				c1.06,2.23,0.18,3.93-1.81,4.87c-2.01,0.96-3.9,0.55-4.94-1.64l-1.85-3.9L135.4,176.61z"/>
			<path class="st5" d="M152.65,176.15l-3.29,2.21l-0.93-1.39l0.74-0.49l-1.63-6.2l-0.95,0.64l-0.93-1.39l5.17-3.47l0.93,1.39
				l-0.96,0.65l5.12,3.86l0.75-0.5l0.93,1.39l-3.37,2.26l-0.93-1.39l0.84-0.57l-1.09-0.88l-2.6,1.74l0.4,1.35l0.87-0.58
				L152.65,176.15z M150.01,172.54l1.87-1.26l-2.78-2.11L150.01,172.54z"/>
			<path class="st5" d="M158.66,169.77l0.82-0.73l-4.04-4.51l-0.82,0.73l-1.11-1.24l3.26-2.93l1.12,1.24l-0.94,0.84l4.04,4.51
				l1.74-1.56l-0.97-1.08l1.37-1.23l2.09,2.33l-5.44,4.88L158.66,169.77z"/>
			<path class="st5" d="M165.93,162.95l0.78-0.87l-4.5-4.05l-0.78,0.87l-1.24-1.12l2.92-3.25l1.24,1.12l-0.78,0.87l4.5,4.05
				l0.78-0.87l1.24,1.12l-2.92,3.25L165.93,162.95z"/>
			<path class="st5" d="M172.16,155.54l0.68-0.97l-4.99-3.5l-0.85,1.22l1.25,0.88l-1.03,1.47l-2.58-1.81l4.94-7.05l2.58,1.81
				l-1.03,1.47l-1.25-0.88l-0.86,1.23l4.99,3.5l0.68-0.97l1.37,0.96l-2.52,3.6L172.16,155.54z"/>
			<path class="st5" d="M178.47,145.59l0.52-1.05l-1.72-0.86l-4.9,0.57l-0.42,0.84l-1.49-0.75l1.8-3.6l1.49,0.75l-0.4,0.79
				l3.05-0.28l-1.63-2.56l-0.4,0.79l-1.49-0.75l1.73-3.46l1.49,0.75l-0.42,0.84l2.49,4.25l1.73,0.86l0.52-1.05l1.49,0.75l-1.95,3.91
				L178.47,145.59z"/>
		</g>
	</g>
	<g>
		<defs>
			<path id="SVGID_5_" d="M127.32,106.59c6.6-1.88,11.38-3.73,14.36-5.16h0.01c-16.61,14.28-32.9,17.6-36.17,43.86
				c-6.3-1.75-12.18-3.52-22.37-1.59c-0.01-3.28,0.69-6.34,0.95-7.19c5.03-2.3,15.45-1.95,20.73-0.19
				c-0.91-0.65-1.81-1.21-2.68-1.73c-6.4-3.85-11.27-4.75-15.11-4.49c1.44-2.47,3.11-4.65,4.75-6.56c5.6-0.25,12.64,1.67,16.64,4.04
				c-0.66-0.75-1.32-1.43-1.96-2.05c-3.85-3.82-7.2-5.67-10.18-6.55c1.93-1.62,3.79-2.99,5.7-4.11c4.66,0.36,10.08,3.09,12.67,4.84
				c-1.06-1.52-2.12-2.77-3.18-3.85c-1.48-1.52-2.94-2.64-4.34-3.47c1.64-0.61,3.24-1.12,4.8-1.57c0,0,1.16-0.31,2.73-0.76
				c3.09,1.24,6.08,3.68,6.63,4.34c-0.7-1.73-1.53-3.08-2.39-4.15c-0.33-0.42-0.67-0.78-1.01-1.09c1.91-0.55,3.77-1.06,4.65-1.28
				c1.14-0.27,2.24-0.57,3.29-0.86c1.1,1.1,1.94,2.3,2.17,2.83C128.03,108.35,127.62,107.21,127.32,106.59 M108.19,170.07
				c34.35,0,62.2-27.88,62.2-62.24c0-34.36-27.85-62.23-62.2-62.23c-34.37,0-62.23,27.86-62.23,62.23
				c0,21.02,10.44,39.61,26.4,50.87c-1.7-4.7-2.33-10.64-1.19-18.19c0.16-1.12,0.36-2.26,0.6-3.44c0,0,0.45-1.99-1.23-3.65v-0.02
				c-1.92-2.14-5.8-4.82-13.69-6.93c0.21-0.45,1.53-3.42,4.12-7.41c5.29,0.41,12.65,2.69,16.59,6.51v-0.02
				c-2.27-5.81-7.79-10.44-11.96-12.68c1.66-1.97,3.59-3.99,5.8-5.94c4.28,1.22,10.02,4.73,13.07,9.17
				c-0.14-0.88-0.55-2.43-0.81-3.14c-1.84-5.27-4.89-8.09-7.62-9.78c2.08-1.47,4.35-2.88,6.82-4.15c3.64,2.06,7.9,6.03,9.7,10.69
				c0.07-0.86,0.08-1.69,0.01-2.43c-0.51-5.11-2.56-8.39-4.63-10.57c2.57-1.09,5.16-1.97,7.76-2.68c2.67,2.8,5.33,7.25,5.86,11.73
				c0.26-0.76,0.46-1.52,0.56-2.19c0.69-4.72-0.34-8.17-1.67-10.68c2.44-0.52,4.86-0.9,7.25-1.21c1.84,2.94,3.29,7.1,2.86,10.91
				h0.01c0.4-0.6,0.74-1.22,0.98-1.8c1.64-3.97,1.37-7.17,0.63-9.6c2.18-0.19,4.35-0.35,6.45-0.47c1.38,2.66,2.33,6.65,1.5,10.05
				c0.4-0.47,0.76-0.95,1.02-1.4c2.08-3.59,1.92-6.63,1.38-8.83c1.94-0.1,3.82-0.19,5.68-0.27c0.9,2.33,1.39,5.44,0.64,8.07
				c0.37-0.38,0.68-0.78,0.93-1.17c1.75-2.75,1.89-5.18,1.6-7.07c1.96-0.14,3.83-0.29,5.61-0.5c0.41,1.88,0.44,4.15-0.28,6.01
				c0.34-0.31,0.65-0.61,0.88-0.92c1.54-2.04,1.93-3.92,1.91-5.47c1.48-0.23,2.89-0.55,4.21-0.93c3.35-1.17,4.52-3,5.1-5.01
				c0.14-0.58,0.23-1.19,0.26-1.76c0.05-0.78,0-1.5-0.1-2.13c-0.27-1.64-1.11-3.18-2.59-4.06c0.33,0.74,0.52,1.52,0.52,2.38
				c0,3.06-2.49,5.56-5.56,5.56c-3.07,0-5.57-2.5-5.57-5.56v-0.04c0-1.19,0.45-2.14,0.45-2.14c0.54-1.34,1.5-2.56,2.73-3.37
				c1.27-0.83,2.84-1.36,4.43-1.43c0.4-0.02,0.78,0,1.18,0c4.19,0.3,8.78,3.54,9.45,9.85c0.55,5.13-2.26,9.43-2.26,9.43
				c-2.03,3.75-5.41,6.39-7.93,7.81c-3.18,1.8-10.12,4.56-20.86,7.21c-2.25,0.57-10.62,2.92-10.62,2.92
				c-9.37,2.59-20.22,7.72-28.18,19.41c-2.5,3.8-6.92,9.95-5.04,21.14c1.44,8.64,7.81,18.68,23.82,21.11
				C103.64,169.78,106.45,170.07,108.19,170.07 M108.26,41.93c36.56,0,66.19,29.64,66.19,66.21c0,36.57-29.64,66.21-66.19,66.21
				c-36.56,0-66.19-29.64-66.19-66.21C42.07,71.57,71.7,41.93,108.26,41.93"/>
		</defs>
		<linearGradient id="SVGID_6_" gradientUnits="userSpaceOnUse" x1="81.9634" y1="16.4277" x2="134.8849" y2="200.9867">
			<stop  offset="0" style="stop-color:#6D6E70"/>
			<stop  offset="0.0669" style="stop-color:#77787A"/>
			<stop  offset="0.1798" style="stop-color:#919294"/>
			<stop  offset="0.3241" style="stop-color:#BBBDBF"/>
			<stop  offset="0.3247" style="stop-color:#BBBDBF"/>
			<stop  offset="0.5415" style="stop-color:#E6E7E8"/>
			<stop  offset="0.61" style="stop-color:#DCDDDF"/>
			<stop  offset="0.7253" style="stop-color:#C2C4C6"/>
			<stop  offset="0.7516" style="stop-color:#BBBDBF"/>
			<stop  offset="1" style="stop-color:#6D6E70"/>
		</linearGradient>
		<use xlink:href="#SVGID_5_"  style="overflow:visible;fill:url(#SVGID_6_);"/>
		<clipPath id="SVGID_7_">
			<use xlink:href="#SVGID_5_"  style="overflow:visible;"/>
		</clipPath>
	</g>
	<path class="st5" d="M68.71,74.4H96.3v5.77H74.48v13.8v5.65l0.08,0.08l5.71-5.71h14.71v5.77h-20.5v13.77H96.3v5.77H68.71V74.4z
		 M143.62,119.54l-4.6-4.6c-4.2,3.7-9.69,5.95-15.72,5.95c-13.16,0-23.82-10.66-23.82-23.82c0-13.16,10.66-23.82,23.82-23.82
		s23.82,10.66,23.82,23.82c0,5.04-1.57,9.71-4.25,13.56l4.82,4.82L143.62,119.54z M134.98,110.91l-11.09-11.09l8.18,0.01l6.68,6.68
		c1.68-2.75,2.67-5.97,2.67-9.42c0-10-8.11-18.11-18.11-18.11s-18.11,8.11-18.11,18.11c0,10,8.11,18.11,18.11,18.11
		C127.75,115.19,131.83,113.57,134.98,110.91z M148.54,83.29c2.75,0,4.92-2.13,4.92-4.88c0-2.7-2.13-4.88-4.92-4.88
		c-2.77,0-4.94,2.2-4.94,4.9C143.6,81.18,145.79,83.29,148.54,83.29z M148.54,82.46c-2.26,0-4.04-1.6-4.04-4.02
		c0-2.39,1.69-4.06,4.04-4.06c2.33,0,4.02,1.65,4.02,4.04C152.55,80.81,150.8,82.46,148.54,82.46z M146.78,80.76h1.23v-1.78h0.42
		l1.05,1.78h1.3l-1.21-2c0.53-0.2,0.92-0.59,0.92-1.29v-0.02c0-1.01-0.73-1.49-1.91-1.49h-1.8V80.76z M148.01,78.15V76.9h0.53
		c0.46,0,0.75,0.15,0.75,0.62v0.02c0,0.42-0.26,0.62-0.75,0.62H148.01z"/>
	<g>
		<path class="st5" d="M68.81,135.35h2.78c0.13,1.15,0.61,2.1,2.51,2.1c1.27,0,2.11-0.7,2.11-1.7c0-1.02-0.54-1.38-2.42-1.67
			c-3.28-0.43-4.62-1.41-4.62-3.89c0-2.18,1.83-3.81,4.66-3.81c2.88,0,4.57,1.29,4.8,3.83h-2.67c-0.18-1.16-0.86-1.7-2.13-1.7
			c-1.27,0-1.92,0.59-1.92,1.45c0,0.91,0.41,1.34,2.38,1.63c3.1,0.39,4.69,1.24,4.69,3.89c0,2.27-1.86,4.08-4.89,4.08
			C70.58,139.56,68.97,137.91,68.81,135.35z"/>
		<path class="st5" d="M85.5,133.85l-4.23-7.29h3.19l2.6,4.91l2.54-4.91h2.81l-3.99,7.29v5.52H85.5V133.85z"/>
		<path class="st5" d="M94.74,135.35h2.78c0.13,1.15,0.61,2.1,2.51,2.1c1.27,0,2.11-0.7,2.11-1.7c0-1.02-0.54-1.38-2.42-1.67
			c-3.28-0.43-4.62-1.41-4.62-3.89c0-2.18,1.83-3.81,4.66-3.81c2.88,0,4.57,1.29,4.8,3.83h-2.67c-0.18-1.16-0.86-1.7-2.13-1.7
			c-1.27,0-1.92,0.59-1.92,1.45c0,0.91,0.41,1.34,2.38,1.63c3.1,0.39,4.69,1.24,4.69,3.89c0,2.27-1.86,4.08-4.89,4.08
			C96.51,139.56,94.9,137.91,94.74,135.35z"/>
		<path class="st5" d="M111.22,128.82h-3.46v-2.26h9.83v2.26h-3.46v10.55h-2.92V128.82z"/>
		<path class="st5" d="M121.46,126.56h8.35v2.26h-5.46v2.99h4.37v2.11h-4.37v3.19h5.75v2.26h-8.63V126.56z"/>
		<path class="st5" d="M134.18,126.56h3.83l2.99,7.97l2.95-7.97h3.76v12.8h-2.88v-8.99l-3.55,8.99h-0.95l-3.56-8.99v8.99h-2.6
			V126.56z"/>
	</g>
	<polygon class="st5" points="91.06,59.65 129.3,59.65 129.3,63.48 87.22,63.48 	"/>
	<polygon class="st5" points="125.46,154.85 87.22,154.85 87.22,151.02 129.3,151.02 	"/>
</g>
</svg>
