<?xml version="1.0" encoding="utf-8"?>
<!-- Generator: Adobe Illustrator 23.0.1, SVG Export Plug-In . SVG Version: 6.00 Build 0)  -->
<svg version="1.1" id="Layer_1" xmlns="http://www.w3.org/2000/svg" xmlns:xlink="http://www.w3.org/1999/xlink" x="0px" y="0px"
	 viewBox="0 0 56.69 56.69" style="enable-background:new 0 0 56.69 56.69;" xml:space="preserve">
<g>
	<path d="M45.39,11.3c-4.7-4.71-10.88-7.06-17.04-7.06C22.18,4.24,16,6.59,11.3,11.3C6.59,16,4.24,22.18,4.24,28.34
		c0,6.17,2.36,12.34,7.06,17.04c4.7,4.71,10.88,7.06,17.04,7.06s12.34-2.35,17.04-7.06c4.71-4.71,7.06-10.88,7.06-17.04
		C52.45,22.18,50.1,16,45.39,11.3z M44.63,44.63c-4.5,4.5-10.39,6.74-16.28,6.74c-5.9,0-11.78-2.25-16.28-6.74
		c-4.5-4.5-6.74-10.39-6.74-16.28c0-5.9,2.25-11.79,6.74-16.28c4.5-4.5,10.39-6.74,16.28-6.74s11.78,2.25,16.28,6.74
		c4.5,4.5,6.74,10.39,6.74,16.28C51.37,34.24,49.12,40.13,44.63,44.63z"/>
</g>
<g>
	<g>
		<polygon points="13.32,23.49 13.32,26.17 13.86,26.17 13.86,26.69 12.23,26.69 12.23,26.17 12.75,26.17 12.75,22.97 12.23,22.97 
			12.23,22.45 13.25,22.45 15.55,25.44 15.55,22.97 15.01,22.97 15.01,22.45 16.61,22.45 16.61,22.97 16.12,22.97 16.12,26.71 
			15.79,26.71 		"/>
		<path d="M17.16,24.57c0-1.24,0.9-2.2,2.17-2.2c1.25,0,2.14,0.96,2.14,2.2c0,1.24-0.9,2.2-2.17,2.2
			C18.05,26.77,17.16,25.81,17.16,24.57z M20.88,24.57c0-0.95-0.65-1.66-1.55-1.66c-0.91,0-1.56,0.7-1.56,1.66
			c0,0.95,0.65,1.66,1.56,1.66C20.23,26.23,20.88,25.53,20.88,24.57z"/>
		<path d="M23.36,26.17h0.39l1.18-3.2h-0.47v-0.52h2.13v0.52h-0.48l1.18,3.2h0.39v0.52h-1.51v-0.52h0.49l-0.32-0.9h-1.68l-0.32,0.9
			h0.51v0.52h-1.51V26.17z M26.18,24.79l-0.67-1.85l-0.67,1.85H26.18z"/>
		<path d="M28.07,26.17h0.51v-3.2h-0.51v-0.52h1.59c1.51,0,2.44,0.81,2.44,2.08c0,1.28-0.88,2.16-2.48,2.16h-1.55V26.17z
			 M29.7,26.17c1.19,0,1.81-0.66,1.81-1.64c0-0.98-0.72-1.55-1.86-1.55h-0.48v3.2H29.7z"/>
		<path d="M32.72,26.17h0.51v-3.2h-0.51v-0.52h1.59c1.51,0,2.44,0.81,2.44,2.08c0,1.28-0.88,2.16-2.48,2.16h-1.55V26.17z
			 M34.35,26.17c1.19,0,1.81-0.66,1.81-1.64c0-0.98-0.72-1.55-1.86-1.55h-0.48v3.2H34.35z"/>
		<polygon points="37.37,26.17 37.88,26.17 37.88,22.97 37.37,22.97 37.37,22.45 40.48,22.45 40.48,23.56 39.93,23.56 39.93,22.97 
			38.47,22.97 38.47,24.28 39.81,24.28 39.81,24.79 38.47,24.79 38.47,26.18 39.93,26.18 39.93,25.58 40.49,25.58 40.49,26.69 
			37.37,26.69 		"/>
		<path d="M41.13,26.17h0.51v-3.2h-0.51v-0.52h1.59c1.51,0,2.44,0.81,2.44,2.08c0,1.28-0.88,2.16-2.48,2.16h-1.55V26.17z
			 M42.76,26.17c1.19,0,1.81-0.66,1.81-1.64c0-0.98-0.72-1.55-1.86-1.55h-0.48v3.2H42.76z"/>
		<polygon points="9.49,29.83 10.82,29.83 10.82,31.59 12.34,31.59 12.34,29.83 13.66,29.83 13.66,34.44 12.34,34.44 12.34,32.62 
			10.82,32.62 10.82,34.44 9.49,34.44 		"/>
		<path d="M14.31,32.16v-0.05c0-1.41,1.06-2.35,2.44-2.35c1.41,0,2.44,0.88,2.44,2.31v0.05c0,1.42-0.97,2.39-2.46,2.39
			C15.23,34.51,14.31,33.55,14.31,32.16z M17.81,32.15v-0.05c0-0.82-0.41-1.3-1.06-1.3c-0.65,0-1.06,0.47-1.06,1.31v0.05
			c0,0.84,0.43,1.32,1.06,1.32C17.4,33.48,17.81,32.97,17.81,32.15z"/>
		<path d="M19.83,29.83h1.8c1.21,0,1.88,0.49,1.88,1.46v0.03c0,0.66-0.35,1.02-0.83,1.21l1.1,1.91h-1.39l-0.94-1.65h-0.31v1.65
			h-1.31V29.83z M21.57,31.93c0.45,0,0.66-0.19,0.66-0.56v-0.03c0-0.38-0.23-0.52-0.66-0.52h-0.43v1.11H21.57z"/>
		<polygon points="24.33,29.83 26.05,29.83 26.94,32.28 27.82,29.83 29.51,29.83 29.51,34.44 28.19,34.44 28.19,31.57 27.07,34.44 
			26.63,34.44 25.51,31.57 25.51,34.44 24.33,34.44 		"/>
		<path d="M30.16,32.16v-0.05c0-1.41,1.06-2.35,2.44-2.35c1.41,0,2.44,0.88,2.44,2.31v0.05c0,1.42-0.97,2.39-2.46,2.39
			C31.09,34.51,30.16,33.55,30.16,32.16z M33.66,32.15v-0.05c0-0.82-0.41-1.3-1.06-1.3s-1.06,0.47-1.06,1.31v0.05
			c0,0.84,0.43,1.32,1.06,1.32C33.26,33.48,33.66,32.97,33.66,32.15z"/>
		<polygon points="35.69,29.83 37.18,29.83 38.66,32.42 38.66,29.83 39.81,29.83 39.81,34.44 38.54,34.44 36.85,31.54 36.85,34.44 
			35.69,34.44 		"/>
		<polygon points="40.71,29.83 43.89,29.83 43.89,30.84 42.02,30.84 42.02,31.64 43.51,31.64 43.51,32.58 42.02,32.58 42.02,33.42 
			43.99,33.42 43.99,34.44 40.71,34.44 		"/>
		<path d="M44.39,32.97h1.26c0.03,0.33,0.18,0.6,0.73,0.6c0.38,0,0.59-0.19,0.59-0.46c0-0.28-0.17-0.36-0.73-0.45
			c-1.3-0.16-1.74-0.54-1.74-1.47c0-0.83,0.68-1.44,1.79-1.44c1.11,0,1.73,0.46,1.82,1.44h-1.23c-0.05-0.33-0.23-0.5-0.59-0.5
			c-0.35,0-0.54,0.16-0.54,0.39c0,0.26,0.14,0.38,0.72,0.45c1.17,0.13,1.77,0.43,1.77,1.43c0,0.85-0.67,1.53-1.86,1.53
			C45.08,34.51,44.43,33.97,44.39,32.97z"/>
		<path d="M23.06,36.2l-8.28,8.28c-0.18,0.18-0.18,0.47,0,0.65c0.18,0.18,0.47,0.18,0.65,0l8.28-8.28c0.18-0.18,0.18-0.47,0-0.65
			C23.53,36.02,23.24,36.02,23.06,36.2"/>
		<path d="M14.84,12.28l8.54,8.54c0.18,0.18,0.47,0.18,0.65,0c0.18-0.18,0.18-0.47,0-0.65l-8.54-8.54c-0.18-0.18-0.47-0.18-0.65,0
			C14.67,11.81,14.67,12.1,14.84,12.28"/>
		<path d="M33.12,36.98l8.03,8.03c0.18,0.18,0.47,0.18,0.65,0c0.18-0.18,0.18-0.47,0-0.65l-8.03-8.03c-0.18-0.18-0.47-0.18-0.65,0
			C32.94,36.51,32.94,36.8,33.12,36.98"/>
		<path d="M41.29,11.55l-8.77,8.77c-0.18,0.18-0.18,0.47,0,0.65c0.18,0.18,0.47,0.18,0.65,0l8.77-8.77c0.18-0.18,0.18-0.47,0-0.65
			C41.75,11.37,41.46,11.37,41.29,11.55"/>
	</g>
</g>
</svg>
