<?xml version="1.0" encoding="utf-8"?>
<!-- Generator: Adobe Illustrator 23.0.1, SVG Export Plug-In . SVG Version: 6.00 Build 0)  -->
<svg version="1.1" id="Cervena" xmlns="http://www.w3.org/2000/svg" xmlns:xlink="http://www.w3.org/1999/xlink" x="0px" y="0px"
	 viewBox="0 0 216.35 216.35" style="enable-background:new 0 0 216.35 216.35;" xml:space="preserve">
<style type="text/css">
	.st0{fill:#FFFFFF;}
</style>
<g>
	<rect x="34.62" y="34.43" transform="matrix(0.7071 -0.7071 0.7071 0.7071 -44.7111 108.2058)" width="147.28" height="147.28"/>
	<path class="st0" d="M182.2,106.75v-0.03c0-2.44,1.98-4.5,4.47-4.5c2.52,0,4.47,2.03,4.47,4.47v0.03c0,2.44-1.98,4.5-4.47,4.5
		C184.15,111.24,182.2,109.2,182.2,106.75z M190.63,106.72v-0.03c0-2.19-1.7-3.99-3.96-3.99c-2.24,0-3.96,1.83-3.96,4.01v0.03
		c0,2.19,1.7,3.99,3.96,3.99C188.91,110.75,190.63,108.92,190.63,106.72z M184.72,104.28h2.26c1.16,0,1.98,0.49,1.98,1.59
		c0,0.75-0.39,1.26-0.98,1.49l1.13,1.65h-1.54l-0.95-1.41h-0.57v1.41h-1.34V104.28z M186.91,106.54c0.46,0,0.72-0.23,0.72-0.57
		c0-0.36-0.26-0.57-0.72-0.57h-0.85v1.13C186.06,106.54,186.91,106.54,186.91,106.54z"/>
	<path class="st0" d="M39.3,98.63c0,5.99,3.28,9.66,7.83,9.66c2.08,0,4.15-0.82,5.94-2.56c-1.79,4.29-5.7,6.38-9.81,6.38
		c-5.7,0-10.58-4.1-10.58-10.92c0-7.73,5.64-12.22,13.48-11.64C41.53,89.75,39.3,93.81,39.3,98.63z M53.24,89.88l-0.19,7.93
		c-0.87-3.24-2.91-7.12-5.86-8.22L53.24,89.88z"/>
	<path class="st0" d="M60.93,98.11c0,6.24,3.14,10.24,7.92,10.24c2.22,0,4.49-0.77,6.33-2.51c-1.93,4.26-5.89,6.28-9.95,6.28
		c-6.04,0-10.72-4.92-10.72-11.06c0-6.28,4.2-11.59,11.79-11.55C63.15,89.75,60.93,93.41,60.93,98.11z M75.7,96.56H63.05l7.5-1.26
		c-0.19-3.32-1.5-5.57-3.29-5.79C72.18,89.45,75.61,92.94,75.7,96.56z"/>
	<path class="st0" d="M119.78,98.11c0,6.24,3.14,10.24,7.92,10.24c2.22,0,4.49-0.77,6.33-2.51c-1.93,4.26-5.89,6.28-9.95,6.28
		c-6.04,0-10.72-4.92-10.72-11.06c0-6.28,4.2-11.59,11.79-11.55C122.01,89.75,119.78,93.41,119.78,98.11z M134.56,96.56h-12.65
		l7.5-1.26c-0.19-3.32-1.5-5.57-3.29-5.79C131.03,89.45,134.47,92.94,134.56,96.56z"/>
	<path class="st0" d="M83.97,99.51c0,3.96,0.05,8.17,0.3,12.13h-6.66c0.19-3.82,0.24-7.63,0.24-11.74c0-3.66-0.05-7.68-0.3-9.66
		c1.84,0,4.45-0.1,6.71-0.72C84.06,91.54,83.97,95.74,83.97,99.51z M92.03,95.01c-1.68-0.82-5.75-0.44-7.05,1.35
		c0.68-3.38,3.86-6.85,7.05-6.85V95.01z"/>
	<path class="st0" d="M100.68,89.99c1.02,3.52,4.49,12.07,6.19,15.4l-3.38,6.71c-1.93-4.87-8.22-18.45-10.58-22.12
		C92.9,89.99,100.68,89.99,100.68,89.99z M115.55,89.99c-1.4,1.35-3.43,4.87-7.78,13.28c2.94-7.24,1.79-11.35,0.53-13.28H115.55z"/>
	<path class="st0" d="M142.79,99.51c0,3.96,0.05,8.17,0.3,12.13h-6.66c0.19-3.82,0.24-7.63,0.24-11.74c0-3.66-0.05-7.68-0.3-9.66
		c1.84,0,4.45-0.1,6.71-0.72C142.88,91.54,142.79,95.74,142.79,99.51z M158.72,98.58c0,3.05,0,9.46,0.19,13.04h-6.66
		c0.19-2.8,0.3-8.02,0.3-12.9c0-3.63-1.54-5.75-4.4-5.75c-1.45,0-3.14,0.72-4.49,2.28c1.3-3.43,4.2-5.75,7.73-5.75
		C156.07,89.5,158.72,92.22,158.72,98.58z"/>
	<path class="st0" d="M172.3,99.6c-3.87,0.05-5.45,2.28-5.45,5.36c0,2.8,1.45,4.29,3.63,4.29c0.96,0,2.08-0.33,2.85-1.02
		c-1.11,2.47-3.43,3.82-5.99,3.82c-3.72,0-6.24-2.37-6.24-6.04C161.09,100.91,166.55,98.06,172.3,99.6z M180.36,98.63
		c0,4.59,0,9.03,0.14,12.99h-6.57c0.14-2.89,0.24-8.83,0.24-13.09c0-4.06-1.88-6.33-5.41-6.33c-1.98,0-4.01,0.87-5.75,2.7
		c1.74-3.52,5.64-5.41,9.08-5.41C176.98,89.5,180.36,92.55,180.36,98.63z"/>
	<g>
		
			<rect x="91.04" y="149.15" transform="matrix(0.7071 -0.7071 0.7071 0.7071 -85.9374 125.2838)" class="st0" width="34.45" height="34.45"/>
		<path d="M107.88,177.21c-7.34,0-11.17-5.39-11.17-10.71c0-6.96,4.69-11.44,12.45-11.44c0.41,0,0.64,0.01,0.64,0.01
			c-4.28,0.64-5.57,5.35-5.57,9.01c0,5.27,3.05,8.81,7.6,8.81c3.74,0,6.25-2.33,6.25-2.33
			C116.77,174.29,112.61,177.21,107.88,177.21z"/>
		<path d="M110.13,155.06c2.91,0.05,7.96,0.58,7.96,0.58l-0.24,9.21C117.21,161.5,113.1,155.96,110.13,155.06z"/>
	</g>
	<path class="st0" d="M43.63,120.48h3.57c2.1,0,3.36,1.23,3.36,3.03v0.03c0,2.03-1.58,3.09-3.55,3.09h-1.47v2.62h-1.93v-8.77H43.63z
		 M47.09,124.9c0.96,0,1.53-0.58,1.53-1.32v-0.03c0-0.86-0.6-1.32-1.57-1.32h-1.49v2.67C45.56,124.9,47.09,124.9,47.09,124.9z"/>
	<path class="st0" d="M54.38,125.48v-5h1.93v4.96c0,1.43,0.72,2.16,1.89,2.16c1.18,0,1.89-0.71,1.89-2.11v-5.01h1.93v4.95
		c0,2.65-1.49,3.96-3.84,3.96C55.82,129.39,54.38,128.07,54.38,125.48z"/>
	<path class="st0" d="M66.5,120.48h4.01c1.12,0,1.98,0.31,2.56,0.89c0.49,0.49,0.75,1.18,0.75,2.01v0.03c0,1.41-0.76,2.3-1.88,2.71
		l2.13,3.12h-2.25l-1.88-2.8h-1.52v2.8H66.5C66.5,129.24,66.5,120.48,66.5,120.48z M70.38,124.74c0.94,0,1.48-0.5,1.48-1.23v-0.03
		c0-0.82-0.58-1.25-1.52-1.25h-1.92v2.52h1.95V124.74z"/>
	<path class="st0" d="M78.07,120.48h6.61v1.71h-4.69v1.77h4.13v1.71h-4.13v1.84h4.76v1.71h-6.67
		C78.07,129.23,78.07,120.48,78.07,120.48z"/>
	<path class="st0" d="M95.24,120.48h6.67v1.75h-4.74v1.86h4.18v1.75h-4.18v3.39h-1.93V120.48z"/>
	<path class="st0" d="M105.96,120.48h4.01c1.12,0,1.98,0.31,2.56,0.89c0.49,0.49,0.75,1.18,0.75,2.01v0.03
		c0,1.41-0.76,2.3-1.88,2.71l2.13,3.12h-2.25l-1.88-2.8h-1.52v2.8h-1.93V120.48z M109.84,124.74c0.94,0,1.48-0.5,1.48-1.23v-0.03
		c0-0.82-0.58-1.25-1.52-1.25h-1.92v2.52h1.95V124.74z"/>
	<path class="st0" d="M117.52,120.48h6.61v1.71h-4.69v1.77h4.13v1.71h-4.13v1.84h4.76v1.71h-6.67
		C117.52,129.23,117.52,120.48,117.52,120.48z"/>
	<path class="st0" d="M128.42,120.48h6.61v1.71h-4.69v1.77h4.13v1.71h-4.13v1.84h4.76v1.71h-6.67
		C128.42,129.23,128.42,120.48,128.42,120.48z"/>
	<path class="st0" d="M139.33,120.48h3.42c2.75,0,4.65,1.89,4.65,4.36v0.03c0,2.47-1.9,4.38-4.65,4.38h-3.42V120.48z M142.75,127.5
		c1.58,0,2.64-1.07,2.64-2.62v-0.03c0-1.56-1.07-2.64-2.64-2.64h-1.49v5.28H142.75z"/>
	<path class="st0" d="M150.36,124.89v-0.03c0-2.49,1.97-4.54,4.67-4.54s4.64,2.02,4.64,4.51v0.03c0,2.49-1.97,4.54-4.67,4.54
		C152.3,129.39,150.36,127.37,150.36,124.89z M157.67,124.89v-0.03c0-1.5-1.11-2.75-2.65-2.75c-1.56,0-2.62,1.22-2.62,2.73v0.03
		c0,1.5,1.11,2.75,2.65,2.75C156.59,127.62,157.67,126.38,157.67,124.89z"/>
	<path class="st0" d="M163.16,120.48h2.08l2.3,3.7l2.3-3.7h2.08v8.76H170v-5.72l-2.47,3.74h-0.05l-2.44-3.7v5.68h-1.89v-8.76H163.16
		z"/>
</g>
</svg>
