<?xml version="1.0" encoding="utf-8"?>
<!-- Generator: Adobe Illustrator 23.0.2, SVG Export Plug-In . SVG Version: 6.00 Build 0)  -->
<svg version="1.1" id="Layer_1" xmlns="http://www.w3.org/2000/svg" xmlns:xlink="http://www.w3.org/1999/xlink" x="0px" y="0px"
	 viewBox="0 0 283.5 283.5" style="enable-background:new 0 0 283.5 283.5;" xml:space="preserve">
<g>
	<g>
		<path d="M68.6,104.2H70l4-11.1h-1.8v-2.4h9v2.4h-1.8l4,11.1h1.4v2.4h-6.2v-2.4h1.9l-0.9-2.6h-6l-0.9,2.6h1.9v2.4h-6.1L68.6,104.2
			L68.6,104.2z M78.9,99.3L76.7,93l-2.2,6.3H78.9z"/>
		<path d="M94,104.2h2V93h-3v2.5h-2.6v-4.9h13.9v4.9h-2.6V93h-3v11.1h2v2.4H94L94,104.2L94,104.2z"/>
		<path d="M122.7,104.2h1.8V93.1h-1.8v-2.4h6.7v2.4h-2.1v11.1h4.4v-2.3h2.6v4.7h-11.6L122.7,104.2L122.7,104.2z"/>
		<path d="M141.9,104.2h1.8V93.1h-1.8v-2.4h11.9v4.6h-2.6v-2.1h-4.7v4.3h4.8v2.3h-4.8v4.5h4.8v-2.1h2.6v4.6h-12V104.2z"/>
		<path d="M160.9,104.2h1.4l4-11.1h-1.8v-2.4h9v2.4h-1.8l4,11.1h1.4v2.4H171v-2.4h1.9l-0.9-2.6h-6l-0.9,2.6h1.9v2.4h-6.1V104.2z
			 M171.2,99.3L169,93l-2.2,6.3H171.2z"/>
		<path d="M183.8,103.2c0-1.1,0.7-1.9,1.7-1.9c1.1,0,1.8,0.8,1.8,1.6c0,0.4-0.1,0.7-0.2,1c0.6,0.4,1.5,0.7,2.5,0.7
			c1.8,0,2.9-0.8,2.9-2.2c0-1.3-1.3-1.9-2.9-2.5c-3-1.1-5.1-2-5.1-5c0-2.5,2.1-4.5,5.3-4.5c3,0,5.3,1.5,5.3,3.5
			c0,1.1-0.7,1.8-1.6,1.8c-1.1,0-1.8-0.8-1.8-1.6c0-0.4,0.1-0.6,0.2-0.8c-0.4-0.3-1.1-0.5-2.1-0.5c-1.6,0-2.5,0.8-2.5,2
			c0,1.3,1.3,1.9,2.9,2.5c2.9,1,5,2,5,5c0,3-2.4,4.8-5.6,4.8C186.3,106.9,183.8,105.1,183.8,103.2z"/>
		<path d="M205.9,104.2h2V93h-3v2.5h-2.6v-4.9h13.9v4.9h-2.6V93h-3v11.1h2v2.4h-6.7L205.9,104.2L205.9,104.2z"/>
	</g>
	<g>
		<circle cx="53" cy="141.1" r="5.4"/>
		<circle cx="231.9" cy="141.1" r="5.4"/>
	</g>
	<path d="M142.3,268c-69.9,0-126.8-56.9-126.8-126.9c0-70,57-126.9,127-126.9s126.9,56.9,126.8,126.9
		C269.2,211.1,212.3,268,142.3,268z M142.5,19.4C75.4,19.4,20.8,74,20.8,141.1c0,67.1,54.5,121.6,121.6,121.6S264,208.2,264.1,141.1
		C264.1,74,209.6,19.4,142.5,19.4z"/>
	<g>
		<path d="M138.6,185.2v10.2H86.1l0-4.1l29.9-31.4c7.1-7.5,10.3-13.9,10.3-20.5c0-7.5-4.3-11.8-11.8-11.8c-8.3,0-13,5-14.2,15.2
			l-0.2,1.3H88.9l0.1-1.6c1.2-15.4,11-25.1,25.5-25.1s23.8,8.7,23.8,22.3c0,8.7-5,17.9-15.4,28l-18,17.5L138.6,185.2L138.6,185.2z"
			/>
		<polygon points="188,118.4 188,195.4 176.1,195.4 176.1,131.5 159.6,143.5 159.6,131.5 177.7,118.4 		"/>
	</g>
	<g>
		<path d="M86.7,52.9l7.7-4.4l18.5,16.9l-6.3,3.6l-3.3-3.2l-6.9,4l1.1,4.5L92,77.4L86.7,52.9z M95.2,65l4.6-2.6l-6.8-6.7L95.2,65z"
			/>
		<path d="M116,52l0-0.3c-1.1-7.2,3.4-12.9,10.5-14c5.6-0.9,10.9,0.9,12.3,6.9l-6.7,1.1c-0.7-2.2-2.3-3.1-4.8-2.7
			c-3.3,0.5-4.9,3.4-4.3,7.7l0,0.3c0.6,3.8,2.5,6.6,6.6,5.9c3.3-0.5,4.3-2.4,4.1-4.3l-4.4,0.7l-0.7-4.7l11.1-1.7l0.5,2.9
			c0.9,6-2.3,11.1-9.9,12.3C122.3,63.4,117.1,59.1,116,52z"/>
		<path d="M153.4,37.2l16.2,3l-0.9,5.2l-9.5-1.7l-0.7,4L166,49l-0.9,4.8l-7.6-1.4l-0.8,4.3l10.1,1.8l-0.9,5.2l-16.8-3.1L153.4,37.2z
			"/>
		<path d="M185.8,45.8l7.5,4.4c7.3,4.2,8.9,10.1,5.2,16.5l-0.1,0.2c-3.7,6.4-9.8,8.1-17.1,3.9l-7.5-4.3L185.8,45.8z M183.8,66.2
			c3.5,2,6.2,1.1,8.4-2.7l0.1-0.2c2.3-3.9,1.7-6.5-1.9-8.6l-1.3-0.8l-6.7,11.5L183.8,66.2z"/>
	</g>
	<g>
		<path d="M99.3,216.4l6.7,3c6.6,3,8.4,7.7,5.9,13.5l-0.1,0.2c-2.6,5.8-7.6,7.7-14.1,4.8l-6.7-3L99.3,216.4z M99.4,233.7
			c3.2,1.4,5.3,0.4,6.8-3l0.1-0.2c1.6-3.5,0.8-5.7-2.4-7.1l-1.2-0.5l-4.6,10.3L99.4,233.7z"/>
		<path d="M129.2,226.5l7.5,0.8l4.2,20.8l-6.1-0.7l-0.7-3.9l-6.7-0.7l-1.5,3.6l-5.4-0.6L129.2,226.5z M128.9,239.1l4.4,0.5l-1.3-8
			L128.9,239.1z"/>
		<path d="M156.6,238l-8.5-10.3l6.2-1.1l4.6,6.1l2.2-7.3l5.5-0.9l-4.2,12.5l1.5,8.5l-5.7,1L156.6,238z"/>
		<path d="M179.2,234.7l5-2.5c0.8,1.2,1.9,2,4,0.9c1.5-0.7,2-1.9,1.4-3c-0.6-1.1-1.4-1.1-3.7-0.3c-5.4,1.9-7.9,1.3-9.7-2.4
			c-1.6-3.3-0.1-7,4.2-9.2c4.4-2.2,7.7-1.6,10,2.1l-4.8,2.4c-0.8-1.2-1.9-1.5-3.3-0.8c-1.4,0.7-1.8,1.7-1.3,2.6
			c0.5,1,1.3,1.2,3.7,0.4c4.8-1.8,7.8-1.8,9.8,2.2c1.6,3.3,0.4,7.3-4.3,9.7C184.9,239.4,181.3,238.6,179.2,234.7z"/>
	</g>
</g>
</svg>
