<?xml version="1.0" encoding="utf-8"?>
<!-- Generator: Adobe Illustrator 23.0.1, SVG Export Plug-In . SVG Version: 6.00 Build 0)  -->
<svg version="1.1" id="Layer_1" xmlns="http://www.w3.org/2000/svg" xmlns:xlink="http://www.w3.org/1999/xlink" x="0px" y="0px"
	 viewBox="0 0 43 49.65" style="enable-background:new 0 0 43 49.65;" xml:space="preserve">
<style type="text/css">
	.st0{fill:#FFFFFF;}
</style>
<polygon points="21.5,0 0,12.41 0,37.24 21.5,49.65 43,37.24 43,12.41 "/>
<path class="st0" d="M25.93,29.39l-9.18,0.06l-1.08,3.34l0.59,1.19h-4.01l0.59-0.89l5.68-19.21l0.1-0.35l-0.17-0.33L18,12.34h6.18
	l-0.42,0.83l-0.17,0.34l0.12,0.36l6.52,19.14l0.04,0.1l0.06,0.09l0.49,0.77H26.5l0.67-1.27L25.93,29.39z M33.53,35.46l-1.9-2.98
	l-6.42-18.85l1.4-2.76H15.55l1.44,2.81l-5.56,18.79l-1.97,2.99h9.19l-1.37-2.78l0.62-1.87l6.95-0.03l0.68,1.83l-1.51,2.86H33.53z"/>
<path class="st0" d="M21.23,21.48l1.48,3.83H20L21.23,21.48z M21.07,16.54L17.75,26.9h7.32L21.07,16.54z"/>
</svg>
