<?xml version="1.0" encoding="utf-8"?>
<!-- Generator: Adobe Illustrator 23.0.2, SVG Export Plug-In . SVG Version: 6.00 Build 0)  -->
<svg version="1.1" id="Layer_1" xmlns="http://www.w3.org/2000/svg" xmlns:xlink="http://www.w3.org/1999/xlink" x="0px" y="0px"
	 viewBox="0 0 283.5 283.5" style="enable-background:new 0 0 283.5 283.5;" xml:space="preserve">
<style type="text/css">
	.st0{fill:#FFFFFF;}
</style>
<g>
	<g>
		<g>
			<g>
				<g>
					<path d="M49.8,112.7l0.7-1.7l-10.5-4l-0.7,1.7l-1.7-0.7l2.1-5.5c1.1-2.9,3.7-4.6,6.5-3.5c3,1.1,3.8,3.9,2.6,7.1
						c-0.3,0.7-0.5,1.3-0.7,1.7l3.2,1.2l0.7-1.8l1.7,0.7l-2.1,5.4L49.8,112.7z M45.3,101c-1.7-0.7-3.3,0.4-4,2.2l-0.7,1.8l5.6,2.2
						c0.2-0.3,0.4-0.9,0.7-1.8C47.8,103.4,47.2,101.7,45.3,101z"/>
					<path d="M55.8,97.7l0.7-1.2l-7.4-9.4l-0.9,1.4l-1.5-0.9l3.9-6.4l1.5,0.9l-0.9,1.4L63,85.9l0.7-1.2l1.6,1l-2.8,4.5L61,89.3
						l0.9-1.5l-3.3-0.7l-3.1,5l2.1,2.6l1-1.5l1.5,0.9l-2.8,4.5L55.8,97.7z M56.9,86.7l-6.8-1.4l4.3,5.4L56.9,86.7z"/>
					<path d="M66.6,79.4c-0.7-0.7-0.8-1.5-0.2-2.1c0.6-0.6,1.4-0.6,1.8-0.2c0.3,0.3,0.4,0.6,0.5,0.9c0.7-0.1,1.6-0.6,2.4-1.5
						c1.2-1.3,1.4-2.8,0.3-3.8c-1-0.9-2.4-0.4-3.9,0.4c-2.6,1.3-4.5,2.1-6.5,0.3c-1.7-1.6-1.8-4.1,0.2-6.3c1.8-1.9,4.2-2.5,5.4-1.3
						c0.7,0.6,0.7,1.4,0.2,2c-0.6,0.6-1.4,0.6-1.9,0.1c-0.3-0.2-0.4-0.5-0.4-0.7c-0.5,0.1-1.3,0.5-2,1.2c-1.1,1.2-1.2,2.6-0.2,3.4
						c1,1,2.4,0.4,4.1-0.4c2.4-1.2,4.4-2,6.4-0.2c2,1.8,1.8,4.5-0.2,6.7C70.5,80.1,67.8,80.5,66.6,79.4z"/>
					<path d="M81.7,66.3l1.6-1.2l-6.8-9.1l-2.7,2l1.4,1.9l-1.6,1.2l-2.5-3.3l10.1-7.6l2.5,3.3l-1.6,1.2l-1.4-1.9l-2.7,2l6.8,9.1
						l1.6-1.2l1.1,1.5l-4.8,3.6L81.7,66.3z"/>
					<path d="M94.5,53.7l-3.3-7.1l-1.6,0.8l-0.8-1.7l5.2-2.4l0.8,1.7L93,45.7l3.3,7c1.1,2.3,2.8,2.9,4.7,2c2-0.9,2.7-2.6,1.6-4.9
						l-3.3-7l-1.7,0.8l-0.8-1.7l5.1-2.4l0.8,1.7l-1.6,0.8l3.3,7c1.6,3.3,0.4,6-2.6,7.4C98.8,57.8,96,56.9,94.5,53.7z"/>
					<path d="M113.5,49.3l1.8-0.4l-2.6-11l-1.8,0.4l-0.4-1.8l5.6-1.3c3.3-0.8,5.8,0.2,6.5,3c0.5,1.9-0.4,3.7-2,4.7l3.8,3.8l1.7-0.4
						l0.4,1.8l-3.1,0.7l-4.7-5c-0.3,0.1-0.6,0.2-0.8,0.2c-0.5,0.1-1.1,0.2-1.5,0.3l0.9,4l1.8-0.4l0.4,1.8l-5.6,1.3L113.5,49.3z
						 M120.5,38.8c-0.4-1.7-2-2.2-4.2-1.7l-1.7,0.4l1.3,5.2c0.4-0.1,0.9-0.2,1.6-0.3C119.6,41.9,120.9,40.5,120.5,38.8z"/>
					<path d="M131.9,45.6l1.8-0.1l-0.5-11.3l-1.8,0.1l-0.1-1.8l11-0.5l0.2,3.9l-1.9,0.1l-0.1-2.1l-5.1,0.2l0.2,4.6l4.7-0.2l0.1,1.8
						l-4.7,0.2l0.2,4.9l5.1-0.2l-0.1-2.1l2-0.1L143,47l-11,0.5L131.9,45.6z"/>
					<path d="M160.4,46.9l1.8,0.5l2.9-10.9l-1.8-0.5l0.5-1.8l5.5,1.4c3.2,0.8,5.1,2.9,4.3,5.7c-0.5,1.9-2.1,3-4,3.2l1.5,5.2l1.7,0.4
						l-0.5,1.8l-3.1-0.8l-1.8-6.6c-0.3,0-0.6-0.1-0.9-0.2c-0.5-0.1-1.1-0.3-1.5-0.4l-1,4l1.8,0.5l-0.5,1.8l-5.6-1.5L160.4,46.9z
						 M171.5,40.9c0.4-1.7-0.7-2.9-2.9-3.5L167,37l-1.4,5.2c0.4,0.1,0.9,0.3,1.6,0.5C169.3,43.2,171.1,42.6,171.5,40.9z"/>
					<path d="M177.8,51.9l1.2,0.6l8.7-8.3l-1.5-0.7l0.8-1.6l6.7,3.3l-0.8,1.6l-1.5-0.8l-1.3,12l1.2,0.6l-0.8,1.7l-4.8-2.4l0.8-1.6
						l1.6,0.8l0.4-3.3l-5.3-2.6l-2.4,2.3l1.6,0.8l-0.8,1.6l-4.8-2.4L177.8,51.9z M188.8,51.9l0.8-6.9l-5,4.8L188.8,51.9z"/>
					<path d="M196.5,62.2l1.6,1.2l6.7-9.1l-1.6-1.2l1.1-1.5l4.8,3.5l-1.1,1.5l-1.6-1.1l-6.7,9.1l1.6,1.1l-1.1,1.5l-4.8-3.5
						L196.5,62.2z"/>
					<path d="M207.7,69.4c0.7-0.7,1.5-0.7,2.1-0.1c0.6,0.6,0.5,1.4,0.1,1.8c-0.3,0.3-0.6,0.4-0.9,0.5c0,0.7,0.5,1.6,1.4,2.5
						c1.3,1.3,2.7,1.5,3.8,0.5c1-1,0.5-2.4-0.2-4c-1.2-2.6-1.9-4.6,0-6.5c1.7-1.6,4.2-1.5,6.2,0.5c1.8,1.9,2.3,4.3,1.1,5.5
						c-0.7,0.7-1.5,0.6-2,0.1c-0.6-0.6-0.5-1.4,0-1.9c0.3-0.3,0.5-0.3,0.7-0.4c0-0.6-0.5-1.4-1.1-2c-1.2-1.2-2.5-1.3-3.4-0.4
						c-1,1-0.5,2.4,0.2,4.1c1.1,2.5,1.8,4.5-0.1,6.4c-1.9,1.9-4.6,1.5-6.6-0.6C206.9,73.3,206.5,70.6,207.7,69.4z"/>
					<path d="M218.5,82.9l1,1.5l9.3-6.3l-1-1.5l1.5-1l6.1,9.1l-3.2,2.2l-1.1-1.6l1.7-1.2l-2.9-4.3l-3.8,2.6l2.6,3.9l-1.5,1l-2.6-3.9
						l-4.1,2.8l2.9,4.2l1.7-1.2l1.1,1.6l-3.2,2.2l-6.2-9.1L218.5,82.9z"/>
					<path d="M228.1,98l0.7,1.7l10.4-4.3l-0.7-1.7l1.7-0.7l2.1,5.2c2,4.9,0.7,9-3.5,10.7c-4.2,1.7-8.2,0.1-10.4-5.2l-2.1-5L228.1,98
						z M230.3,103.3c1.6,3.9,4.6,5,7.8,3.6c3.2-1.3,4.1-4.4,2.5-8.1l-0.6-1.5l-10.4,4.3L230.3,103.3z"/>
				</g>
			</g>
		</g>
	</g>
</g>
<g>
	<polygon points="141.6,13.9 30,78.3 30,207.2 141.6,271.6 253.1,207.2 253.1,78.3 	"/>
	<g>
		<path class="st0" d="M116.2,168.4l-5.6,17.4h-4.9l28.7-88.2h14l28.6,88.2h-4.9l-5.6-17.4C150,168.4,122,168.4,116.2,168.4
			 M160.3,98.1l7-12.9h-0.4h-25.6h-25.6h-0.4l7,12.9l-27.2,86.2L86,198h42.2l-6.3-12.7l2.8-8.6l15.3-0.1h1.3h1.3l15.3,0.1l2.8,8.6
			l-6.3,12.7h42.2l-9-13.7L160.3,98.1z"/>
		<path class="st0" d="M141.3,155.3h-10.6l10.6-34.8l10.6,34.8H141.3z M137.7,102.3l-20,61.4h5.6c4.9,0,11.5,0,18,0h23.4l-19.9-61.4
			H137.7z"/>
	</g>
</g>
</svg>
