<?xml version="1.0" encoding="utf-8"?>
<!-- Generator: Adobe Illustrator 23.0.1, SVG Export Plug-In . SVG Version: 6.00 Build 0)  -->
<svg version="1.1" id="Layer_1" xmlns="http://www.w3.org/2000/svg" xmlns:xlink="http://www.w3.org/1999/xlink" x="0px" y="0px"
	 viewBox="0 0 56.69 56.69" style="enable-background:new 0 0 56.69 56.69;" xml:space="preserve">
<style type="text/css">
	.st0{fill:#FFFFFF;}
</style>
<g>
	<polygon points="28.35,1.42 5.03,14.88 5.03,41.81 28.35,55.28 51.67,41.81 51.67,14.88 	"/>
	<g>
		<path class="st0" d="M23.06,33.71l-1.18,3.64h-1.03l5.99-18.43h2.92l5.97,18.43h-1.03l-1.18-3.63
			C30.11,33.71,24.26,33.71,23.06,33.71 M32.26,19.01l1.46-2.7h-0.08h-5.35h-5.35h-0.08l1.46,2.7l-5.68,18.02l-1.89,2.87h8.81
			l-1.32-2.66l0.59-1.8l3.19-0.02l0.27,0l0.27,0l3.19,0.02l0.59,1.8l-1.32,2.66h8.81l-1.88-2.87L32.26,19.01z"/>
		<path class="st0" d="M28.29,30.97h-2.21l2.21-7.28l2.21,7.28H28.29z M27.55,19.9l-4.17,12.83h1.16c1.03,0,2.4,0,3.77,0l4.89,0
			L29.05,19.9H27.55z"/>
	</g>
</g>
</svg>
