<?xml version="1.0" encoding="utf-8"?>
<!-- Generator: Adobe Illustrator 23.0.1, SVG Export Plug-In . SVG Version: 6.00 Build 0)  -->
<svg version="1.1" id="Pasture_Raised" xmlns="http://www.w3.org/2000/svg" xmlns:xlink="http://www.w3.org/1999/xlink" x="0px"
	 y="0px" viewBox="0 0 216.35 216.35" style="enable-background:new 0 0 216.35 216.35;" xml:space="preserve">
<g>
	<g>
		<path d="M108.26,199.25c-50.27,0-91.17-40.9-91.17-91.17s40.9-91.17,91.17-91.17s91.17,40.9,91.17,91.17
			C199.43,158.34,158.53,199.25,108.26,199.25L108.26,199.25z M108.26,20.21c-48.44,0-87.86,39.41-87.86,87.86
			s39.42,87.86,87.86,87.86c48.45,0,87.86-39.42,87.86-87.86C196.12,59.62,156.71,20.21,108.26,20.21L108.26,20.21z"/>
		<g>
			<path d="M60.49,142.28v-0.21c0-5.5,3.91-9.33,9.31-9.33c4.07,0,7.7,1.87,8.13,6.39h-4.12c-0.36-2.14-1.77-3.12-3.96-3.12
				c-3.17,0-5.04,2.38-5.04,6.11v0.21c0,3.53,1.51,6.06,5.09,6.06c3.07,0,4.32-1.77,4.4-3.86h-4.12v-3.02h8.21v1.94
				c0,4.88-3.12,8.13-8.59,8.13C63.82,151.59,60.49,147.7,60.49,142.28z"/>
			<path d="M83.94,133.03h6.55c4.32,0,7.05,1.77,7.05,5.55v0.1c0,2.76-1.61,4.22-3.76,4.86l4.83,7.78h-4.4l-4.37-7.05h-1.79v7.05
				h-4.12C83.94,151.31,83.94,133.03,83.94,133.03z M90.38,141.44c2.07,0,3.12-0.87,3.12-2.64v-0.1c0-1.87-1.12-2.51-3.12-2.51
				h-2.32v5.25H90.38z"/>
			<path d="M108.12,133.03h5.4l5.93,18.28h-4.32l-1.25-4.07h-6.63l-1.25,4.07h-3.89L108.12,133.03z M108.15,144.3h4.83l-2.4-7.9
				L108.15,144.3z"/>
			<path d="M122.98,145.58h3.97c0.18,1.64,0.87,2.99,3.58,2.99c1.82,0,3.02-0.99,3.02-2.43c0-1.46-0.76-1.97-3.45-2.38
				c-4.68-0.61-6.6-2.02-6.6-5.55c0-3.12,2.61-5.45,6.65-5.45c4.12,0,6.52,1.84,6.85,5.47h-3.81c-0.26-1.66-1.23-2.43-3.04-2.43
				s-2.74,0.84-2.74,2.07c0,1.3,0.59,1.92,3.4,2.33c4.42,0.56,6.7,1.77,6.7,5.55c0,3.24-2.66,5.83-6.98,5.83
				C125.51,151.59,123.21,149.24,122.98,145.58z"/>
			<path d="M141.51,145.58h3.96c0.18,1.64,0.86,2.99,3.58,2.99c1.82,0,3.02-0.99,3.02-2.43c0-1.46-0.76-1.97-3.45-2.38
				c-4.68-0.61-6.6-2.02-6.6-5.55c0-3.12,2.61-5.45,6.65-5.45c4.12,0,6.52,1.84,6.85,5.47h-3.81c-0.26-1.66-1.23-2.43-3.04-2.43
				s-2.74,0.84-2.74,2.07c0,1.3,0.59,1.92,3.4,2.33c4.42,0.56,6.7,1.77,6.7,5.55c0,3.24-2.66,5.83-6.98,5.83
				C144.04,151.59,141.74,149.24,141.51,145.58z"/>
			<path d="M82.87,159.04h11.74v3.24h-7.59v4.83h6.01v3.12h-6.01v7.08h-4.15C82.87,177.32,82.87,159.04,82.87,159.04z"/>
			<path d="M100.44,159.04h11.91v3.22h-7.8v4.27h6.24v3.02h-6.24v4.55h8.21v3.22h-12.32L100.44,159.04L100.44,159.04z"/>
			<path d="M118.08,159.04h5.98c6.42,0,9.59,3.48,9.59,8.95v0.21c0,5.47-3.19,9.13-9.61,9.13h-5.96V159.04z M123.91,174.11
				c3.68,0,5.42-2.07,5.42-5.85v-0.21c0-3.76-1.61-5.78-5.47-5.78h-1.64v11.84H123.91z"/>
		</g>
		<path d="M67.26,82.27l10.55,10.55C74.6,88.42,71.02,85,67.26,82.27z"/>
		<path d="M133.35,62.23l-0.58-0.58c-0.16,0.16-0.31,0.31-0.46,0.47l0.72,0.72C133.13,62.64,133.24,62.43,133.35,62.23z"/>
		<path d="M148.93,78.75l1.14,1.14c0.11-0.21,0.22-0.41,0.33-0.61l-0.94-0.94C149.28,78.48,149.11,78.61,148.93,78.75z"/>
		<path d="M134.37,60.32l-0.12-0.12c-0.16,0.15-0.31,0.31-0.48,0.46l0.26,0.26C134.15,60.72,134.26,60.52,134.37,60.32z"/>
		<path d="M151.14,77.09c-0.18,0.13-0.36,0.26-0.54,0.39l0.5,0.5c0.11-0.21,0.21-0.41,0.32-0.61L151.14,77.09z"/>
		<path d="M93.82,57.95l-0.04-0.04c0.05,0.36,0.09,0.71,0.13,1.06l0.57,0.57C94.26,59.01,94.04,58.49,93.82,57.95z"/>
		<path d="M185.7,121.59h-52.48c2.37-18.78,19.58-44.19,19.75-44.45l1.89-2.77l-2.79,1.84c-20.73,13.63-28.21,41.28-29.23,45.38
			h-4.44c0.84-4.44,5.77-25.12,26.75-42.08l-0.83-1.03c-15.5,12.54-22.39,27.12-25.33,35.89c3.81-32.62,17.16-54.83,17.3-55.06
			l2.52-4.13l-3.54,3.3c-23.3,21.75-27.87,57.54-28.46,63.11h-8.33c0.34-1.31,0.66-2.6,0.95-3.88c2.54-9.32,9.68-30.84,25.22-49.7
			l-1.02-0.84c-11.54,14-18.48,29.47-22.39,40.43c3.07-23.89-3.14-41.07-6.38-48.06l-1.89-4.08l0.64,4.46
			c0.04,0.29,3.98,28.78-4.23,59.33c-0.62-2.79-1.8-7.29-3.8-12.35c0.76-1.69,6.53-15.23,6.95-37.36L91.2,69.5
			c-0.36,19.13-4.75,31.71-6.33,35.66c-3.6-8.48-9.48-18.12-18.87-23.9l-3.1-1.91l2.23,2.88c12.26,15.84,15.67,35.83,16.2,39.37
			h-6.11c2.59-6.49,1.25-15.55-3.92-26.3l-1.19,0.57c5.07,10.54,6.35,19.64,3.67,25.72H30.83v1.32h58.74l0.13,0.04
			c0.01-0.01,0.01-0.03,0.01-0.04h96L185.7,121.59L185.7,121.59z M149.98,79.31c-0.36,0.56-0.76,1.21-1.19,1.91l-0.53-0.53
			C148.82,80.22,149.39,79.76,149.98,79.31z M147.76,81.12l0.68,0.68c-0.24,0.4-0.49,0.81-0.75,1.25l-0.99-0.99
			C147.04,81.74,147.4,81.43,147.76,81.12z M146.2,82.51l1.13,1.13c-0.24,0.41-0.49,0.83-0.74,1.26l-1.42-1.42
			C145.51,83.15,145.86,82.83,146.2,82.51z M144.7,83.94l1.54,1.54c-0.24,0.41-0.49,0.84-0.73,1.27l-1.8-1.8
			C144.04,84.62,144.37,84.27,144.7,83.94z M143.25,85.43l1.92,1.92c-0.24,0.42-0.48,0.85-0.71,1.29l-2.16-2.16
			C142.62,86.13,142.93,85.78,143.25,85.43z M141.86,86.97l2.27,2.27c-0.24,0.42-0.47,0.86-0.71,1.29l-2.48-2.48
			C141.25,87.7,141.55,87.33,141.86,86.97z M140.52,88.57l2.58,2.58c-0.23,0.43-0.46,0.86-0.69,1.31l-2.77-2.77
			C139.92,89.31,140.22,88.94,140.52,88.57z M139.22,90.21l2.87,2.87c-0.23,0.44-0.45,0.88-0.68,1.32l-3.04-3.04
			C138.64,90.97,138.93,90.59,139.22,90.21z M137.96,91.89l3.12,3.12c-0.22,0.44-0.44,0.89-0.66,1.34l-3.29-3.29
			C137.41,92.68,137.69,92.29,137.96,91.89z M136.76,93.62l3.37,3.37c-0.21,0.45-0.44,0.9-0.65,1.36l-3.52-3.52
			C136.22,94.42,136.49,94.02,136.76,93.62z M135.59,95.39l3.58,3.58c-0.21,0.46-0.42,0.91-0.63,1.37l-3.72-3.72
			C135.07,96.22,135.33,95.8,135.59,95.39z M134.46,97.2l3.8,3.8c-0.21,0.46-0.41,0.92-0.61,1.39l-3.92-3.92
			C133.96,98.05,134.21,97.62,134.46,97.2z M133.38,99.06l3.99,3.99c-0.2,0.47-0.39,0.94-0.59,1.42l-4.11-4.11
			C132.9,99.92,133.13,99.49,133.38,99.06z M132.33,100.95l4.17,4.17c-0.19,0.48-0.38,0.96-0.56,1.44l-4.3-4.3
			C131.87,101.83,132.1,101.39,132.33,100.95z M131.32,102.88l4.36,4.36c-0.19,0.49-0.36,0.97-0.54,1.47l-4.48-4.48
			C130.88,103.78,131.1,103.33,131.32,102.88z M130.36,104.85l4.55,4.54c-0.17,0.5-0.34,1-0.51,1.49l-4.67-4.67
			C129.92,105.77,130.14,105.31,130.36,104.85z M129.43,106.86l4.74,4.74c-0.16,0.51-0.32,1.02-0.46,1.54l-4.88-4.88
			C129.02,107.8,129.22,107.33,129.43,106.86z M128.54,108.91l4.95,4.95c-0.15,0.53-0.29,1.05-0.42,1.58l-5.11-5.11
			C128.14,109.86,128.34,109.39,128.54,108.91z M127.69,110.99l5.2,5.2c-0.13,0.55-0.26,1.09-0.36,1.64l-5.39-5.39
			C127.31,111.96,127.49,111.48,127.69,110.99z M126.88,113.12l5.48,5.48c-0.11,0.57-0.21,1.14-0.3,1.71l-5.71-5.71
			C126.51,114.11,126.69,113.63,126.88,113.12z M126.1,115.29l5.84,5.84c-0.02,0.16-0.04,0.31-0.06,0.46h-1.47l-4.81-4.81
			C125.76,116.31,125.92,115.81,126.1,115.29z M125.38,117.49l4.1,4.1h-2l-2.57-2.57C125.04,118.55,125.2,118.04,125.38,117.49z
			 M124.26,121.33c0.11-0.41,0.25-0.94,0.43-1.57l1.84,1.84h-2L124.26,121.33z M132.95,62.66c-0.28,0.55-0.59,1.17-0.91,1.82
			l-0.39-0.39C132.08,63.6,132.51,63.12,132.95,62.66z M131.22,64.59l0.52,0.52c-0.21,0.44-0.42,0.89-0.64,1.36l-0.8-0.8
			C130.6,65.3,130.91,64.95,131.22,64.59z M129.87,66.18l0.93,0.93c-0.21,0.44-0.41,0.9-0.62,1.38l-1.19-1.19
			C129.28,66.92,129.57,66.55,129.87,66.18z M128.58,67.82l1.32,1.32c-0.2,0.45-0.4,0.91-0.61,1.39l-1.57-1.57
			C127.99,68.58,128.29,68.2,128.58,67.82z M127.32,69.49l1.69,1.69c-0.19,0.46-0.39,0.93-0.59,1.42l-1.94-1.94
			C126.75,70.27,127.03,69.88,127.32,69.49z M126.1,71.21l2.05,2.05c-0.19,0.46-0.38,0.94-0.57,1.43l-2.29-2.29
			C125.56,72.01,125.82,71.61,126.1,71.21z M124.91,72.97l2.4,2.4c-0.19,0.47-0.36,0.96-0.55,1.45l-2.63-2.63
			C124.39,73.78,124.65,73.37,124.91,72.97z M123.78,74.77l2.73,2.73c-0.18,0.48-0.36,0.97-0.54,1.47l-2.95-2.95
			C123.27,75.6,123.52,75.18,123.78,74.77z M122.67,76.6l3.05,3.05c-0.17,0.49-0.34,0.98-0.51,1.49l-3.27-3.27
			C122.18,77.45,122.43,77.03,122.67,76.6z M121.6,78.48l3.37,3.37c-0.16,0.49-0.34,0.99-0.5,1.5l-3.57-3.57
			C121.13,79.33,121.37,78.91,121.6,78.48z M120.58,80.38l3.67,3.67c-0.16,0.5-0.32,1.01-0.48,1.52l-3.87-3.87
			C120.12,81.26,120.35,80.82,120.58,80.38z M119.58,82.33l3.95,3.95c-0.16,0.51-0.31,1.02-0.46,1.54l-4.15-4.15
			C119.15,83.22,119.36,82.77,119.58,82.33z M118.62,84.31l4.24,4.24c-0.15,0.51-0.29,1.04-0.44,1.56L118,85.68
			C118.2,85.22,118.41,84.77,118.62,84.31z M117.71,86.32l4.51,4.51c-0.14,0.52-0.29,1.05-0.42,1.58l-4.7-4.7
			C117.3,87.25,117.5,86.79,117.71,86.32z M116.82,88.38l4.77,4.77c-0.14,0.53-0.27,1.06-0.4,1.6l-4.96-4.96
			C116.43,89.33,116.62,88.85,116.82,88.38z M115.97,90.46l5.04,5.04c-0.13,0.54-0.26,1.07-0.39,1.62l-5.22-5.22
			C115.59,91.43,115.78,90.95,115.97,90.46z M115.16,92.59l5.3,5.3c-0.12,0.54-0.24,1.09-0.36,1.64l-5.47-5.47
			C114.79,93.56,114.97,93.08,115.16,92.59z M114.38,94.74l5.55,5.55c-0.11,0.55-0.23,1.1-0.34,1.66l-5.73-5.73
			C114.03,95.74,114.2,95.24,114.38,94.74z M113.63,96.93l5.81,5.81c-0.11,0.56-0.21,1.11-0.32,1.68l-5.98-5.98
			C113.3,97.95,113.46,97.45,113.63,96.93z M112.91,99.16l6.06,6.06c-0.1,0.56-0.2,1.13-0.29,1.71l-6.23-6.23
			C112.6,100.19,112.76,99.68,112.91,99.16z M112.24,101.42l6.31,6.31c-0.09,0.57-0.19,1.15-0.27,1.73l-6.48-6.48
			C111.94,102.47,112.09,101.95,112.24,101.42z M111.6,103.72l6.57,6.57c-0.09,0.59-0.16,1.17-0.24,1.76l-6.74-6.74
			C111.31,104.78,111.46,104.25,111.6,103.72z M110.99,106.05l6.83,6.83c-0.07,0.59-0.15,1.19-0.21,1.79l-7-7
			C110.73,107.13,110.85,106.59,110.99,106.05z M110.43,108.42l7.09,7.09c-0.06,0.6-0.13,1.21-0.19,1.82l-7.26-7.26
			C110.18,109.52,110.3,108.97,110.43,108.42z M109.9,110.83l7.35,7.35c-0.06,0.61-0.11,1.22-0.16,1.84l-7.53-7.53
			C109.66,111.95,109.78,111.4,109.9,110.83z M109.4,113.27l7.63,7.63c-0.01,0.23-0.04,0.46-0.05,0.69h-1.26l-6.63-6.63
			C109.19,114.42,109.29,113.86,109.4,113.27z M108.95,115.76l5.83,5.83h-2l-4.11-4.11C108.76,116.95,108.85,116.37,108.95,115.76z
			 M108.55,118.3l3.29,3.29h-2l-1.53-1.54C108.38,119.55,108.46,118.96,108.55,118.3z M108.21,120.9l0.7,0.7h-0.78
			C108.15,121.39,108.18,121.16,108.21,120.9z M100.68,94.8l-5.19-5.19c0.04-0.64,0.08-1.27,0.11-1.89l5.05,5.05
			C100.67,93.44,100.68,94.12,100.68,94.8z M100.63,91.81l-4.97-4.97c0.04-0.64,0.06-1.29,0.09-1.92l4.79,4.79
			C100.57,90.41,100.61,91.1,100.63,91.81z M100.47,88.72l-4.69-4.69c0.02-0.66,0.04-1.31,0.06-1.94l4.47,4.47
			C100.37,87.26,100.43,87.98,100.47,88.72z M100.21,85.51l-4.35-4.35c0.01-0.67,0.02-1.33,0.03-1.97l4.06,4.06
			C100.04,83.99,100.13,84.74,100.21,85.51z M99.81,82.18l-3.92-3.92c0-0.69,0-1.35-0.01-2.01l3.57,3.57
			C99.58,80.59,99.7,81.38,99.81,82.18z M99.26,78.69l-3.38-3.38c-0.01-0.7-0.02-1.38-0.04-2.04l2.94,2.94
			C98.95,77.02,99.11,77.85,99.26,78.69z M98.53,75.03l-2.72-2.72c-0.02-0.72-0.05-1.41-0.08-2.08l2.17,2.17
			C98.13,73.24,98.33,74.12,98.53,75.03z M97.58,71.14l-1.88-1.88c-0.04-0.74-0.07-1.45-0.11-2.12l1.19,1.19
			C97.04,69.2,97.31,70.14,97.58,71.14z M96.32,66.94l-0.81-0.81c-0.05-0.68-0.09-1.32-0.14-1.9C95.68,65.05,96,65.96,96.32,66.94z
			 M95.43,90.48l5.25,5.25c-0.01,0.65-0.01,1.31-0.04,1.97l-5.36-5.36C95.34,91.72,95.39,91.1,95.43,90.48z M95.21,93.21l5.4,5.4
			c-0.02,0.64-0.05,1.27-0.09,1.92l-5.49-5.49C95.1,94.42,95.16,93.81,95.21,93.21z M94.96,95.89l5.52,5.52
			c-0.04,0.61-0.09,1.24-0.14,1.87l-5.57-5.57C94.83,97.09,94.89,96.49,94.96,95.89z M94.66,98.53l5.6,5.6
			c-0.06,0.6-0.12,1.21-0.19,1.82l-5.63-5.63C94.52,99.71,94.59,99.12,94.66,98.53z M94.32,101.13l5.65,5.65
			c-0.07,0.59-0.15,1.18-0.23,1.77l-5.68-5.68C94.17,102.3,94.24,101.71,94.32,101.13z M93.95,103.7l5.68,5.68
			c-0.09,0.57-0.18,1.15-0.27,1.73l-5.69-5.69C93.77,104.84,93.87,104.27,93.95,103.7z M93.54,106.23l5.69,5.69
			c-0.09,0.56-0.2,1.13-0.31,1.69l-5.68-5.68C93.35,107.36,93.45,106.79,93.54,106.23z M93.1,108.72l5.68,5.68
			c-0.11,0.55-0.22,1.1-0.34,1.66l-5.66-5.66C92.89,109.84,92.99,109.27,93.1,108.72z M92.62,111.18l5.65,5.65
			c-0.04,0.2-0.09,0.4-0.14,0.6c-0.09,0.35-0.19,0.68-0.26,0.99l-5.6-5.6C92.39,112.28,92.51,111.73,92.62,111.18z M92.11,113.6
			l5.57,5.57c-0.16,0.63-0.29,1.17-0.39,1.61l-5.55-5.55C91.86,114.69,91.99,114.14,92.11,113.6z M91.56,115.99l5.55,5.55
			c-0.01,0.02-0.01,0.04-0.01,0.06h-1.93l-4-4C91.29,117.06,91.43,116.52,91.56,115.99z M90.97,118.34l3.25,3.25h-2l-1.67-1.67
			C90.69,119.39,90.84,118.87,90.97,118.34z M91.29,121.59h-1.21c0.09-0.31,0.19-0.63,0.27-0.94L91.29,121.59z M68.48,84.6
			c4.32,3.37,7.76,7.59,10.49,11.99l-7.9-7.9C70.26,87.32,69.4,85.95,68.48,84.6z M72.31,90.87l8.03,8.03
			c0.77,1.37,1.47,2.75,2.11,4.11l-8.04-8.04C73.75,93.61,73.06,92.24,72.31,90.87z M75.22,96.71l8.02,8.02
			c0.51,1.16,0.98,2.3,1.4,3.41l-7.93-7.93C76.24,99.05,75.75,97.89,75.22,96.71z M77.31,101.74l7.88,7.88
			c0.38,1.05,0.71,2.06,1.02,3.02l-7.76-7.76C78.1,103.86,77.72,102.81,77.31,101.74z M78.93,106.3l7.7,7.7
			c0.3,0.99,0.56,1.92,0.78,2.78l-7.58-7.58C79.56,108.27,79.26,107.3,78.93,106.3z M80.21,110.53l7.51,7.51
			c0.25,1.01,0.44,1.89,0.58,2.58l-7.36-7.36C80.73,112.39,80.49,111.48,80.21,110.53z M88.35,121.59h-2l-4.52-4.52
			c-0.16-0.79-0.36-1.64-0.58-2.58L88.35,121.59z M82.51,120.69c-0.1-0.62-0.24-1.44-0.44-2.44l3.34,3.34h-2L82.51,120.69z"/>
	</g>
	<g>
		<g>
			<g>
				<g>
					<g>
						<path d="M42.69,87.43l0.46-1.2l-7.49-2.85l-0.46,1.2l-1.23-0.46l1.48-3.89c0.8-2.1,2.64-3.25,4.6-2.5
							c2.13,0.81,2.7,2.79,1.84,5.06c-0.19,0.51-0.38,0.96-0.49,1.21l2.27,0.86l0.49-1.3l1.23,0.46l-1.47,3.88L42.69,87.43z
							 M39.53,79.12c-1.23-0.46-2.35,0.26-2.86,1.59l-0.49,1.28l4.02,1.53c0.11-0.25,0.28-0.66,0.53-1.3
							C41.28,80.79,40.83,79.61,39.53,79.12z"/>
						<path d="M46.98,76.74l0.51-0.83l-5.28-6.73l-0.62,1l-1.1-0.68l2.8-4.54l1.1,0.68l-0.63,1.02l8.39,1.7l0.52-0.84l1.11,0.68
							l-1.99,3.22l-1.1-0.68l0.64-1.05l-2.32-0.51l-2.21,3.58l1.5,1.85l0.68-1.1l1.1,0.68l-1.99,3.22L46.98,76.74z M47.75,68.91
							l-4.83-1l3.06,3.87L47.75,68.91z"/>
						<path d="M54.69,63.75c-0.5-0.46-0.55-1.05-0.16-1.47c0.39-0.43,0.98-0.42,1.31-0.11c0.21,0.2,0.31,0.4,0.37,0.63
							c0.49-0.06,1.15-0.41,1.73-1.05c0.88-0.95,0.97-1.99,0.2-2.7c-0.74-0.68-1.74-0.28-2.81,0.26c-1.82,0.93-3.23,1.5-4.62,0.21
							c-1.23-1.13-1.25-2.95,0.15-4.46c1.26-1.37,2.99-1.76,3.85-0.96c0.48,0.45,0.49,1.02,0.14,1.4c-0.42,0.46-1,0.42-1.36,0.09
							c-0.19-0.18-0.26-0.34-0.3-0.51c-0.38,0.04-0.95,0.37-1.41,0.86c-0.8,0.87-0.82,1.82-0.16,2.42c0.75,0.69,1.72,0.28,2.89-0.29
							c1.74-0.88,3.16-1.45,4.54-0.18c1.43,1.32,1.25,3.21-0.17,4.74C57.45,64.19,55.53,64.53,54.69,63.75z"/>
						<path d="M65.46,54.39l1.11-0.83l-4.84-6.45l-1.9,1.42l1.02,1.36l-1.11,0.83l-1.77-2.37l7.2-5.4l1.77,2.37l-1.11,0.83
							l-1.02-1.36l-1.9,1.42l4.84,6.45l1.11-0.83l0.78,1.05l-3.41,2.55L65.46,54.39z"/>
						<path d="M74.55,45.37l-2.37-5.05l-1.14,0.53l-0.56-1.19l3.68-1.72l0.56,1.19L73.5,39.7l2.33,4.97
							c0.76,1.62,1.97,2.06,3.38,1.4c1.42-0.66,1.9-1.83,1.13-3.46l-2.35-5.01l-1.22,0.57l-0.56-1.18l3.66-1.72l0.56,1.18
							l-1.15,0.54L81.62,42c1.12,2.39,0.31,4.27-1.85,5.28C77.59,48.31,75.65,47.72,74.55,45.37z"/>
						<path d="M88.11,42.3l1.26-0.3l-1.87-7.8l-1.26,0.3l-0.31-1.28l3.96-0.95c2.33-0.56,4.16,0.15,4.63,2.12
							c0.33,1.38-0.31,2.6-1.42,3.33l2.69,2.73l1.21-0.29l0.31,1.28l-2.19,0.53l-3.33-3.54c-0.2,0.06-0.4,0.13-0.61,0.18
							c-0.38,0.09-0.79,0.17-1.06,0.22l0.68,2.83l1.32-0.31l0.31,1.28l-4.01,0.96L88.11,42.3z M93.07,34.79
							c-0.29-1.21-1.43-1.59-2.96-1.22l-1.2,0.28l0.9,3.74c0.27-0.05,0.63-0.12,1.15-0.24C92.46,37,93.37,36.03,93.07,34.79z"/>
						<path d="M101.21,39.66l1.3-0.06l-0.36-8.02l-1.3,0.06l-0.06-1.31l7.81-0.35l0.12,2.79l-1.39,0.06l-0.06-1.49l-3.65,0.16
							l0.15,3.3l3.36-0.15l0.06,1.26l-3.36,0.15l0.16,3.49l3.65-0.16l-0.06-1.49l1.41-0.06l0.12,2.78l-7.83,0.35L101.21,39.66z"/>
						<path d="M121.53,40.54l1.25,0.33l2.03-7.75l-1.25-0.33l0.33-1.27l3.94,1.03c2.32,0.61,3.6,2.09,3.08,4.05
							c-0.36,1.38-1.5,2.14-2.83,2.27l1.08,3.67l1.2,0.31l-0.33,1.27l-2.17-0.57l-1.26-4.69c-0.21-0.04-0.41-0.08-0.62-0.13
							c-0.38-0.1-0.78-0.22-1.04-0.31l-0.73,2.81l1.31,0.34l-0.33,1.27l-3.99-1.04L121.53,40.54z M129.44,36.27
							c0.31-1.2-0.51-2.07-2.03-2.47l-1.19-0.31l-0.98,3.72c0.26,0.09,0.62,0.19,1.13,0.33C127.86,37.93,129.12,37.5,129.44,36.27z"
							/>
						<path d="M133.89,44.1l0.87,0.43l6.23-5.89l-1.06-0.53l0.58-1.16l4.79,2.37l-0.58,1.16l-1.08-0.53l-0.92,8.53l0.88,0.44
							l-0.58,1.18l-3.4-1.68l0.58-1.16l1.1,0.55l0.28-2.37l-3.77-1.87l-1.71,1.67l1.16,0.58l-0.58,1.16l-3.39-1.68L133.89,44.1z
							 M141.77,44.14l0.56-4.91l-3.57,3.42L141.77,44.14z"/>
						<path d="M147.25,51.46l1.12,0.83l4.74-6.46L151.99,45l0.78-1.05l3.4,2.49l-0.78,1.05l-1.11-0.81l-4.74,6.46l1.1,0.81
							l-0.78,1.05l-3.4-2.5L147.25,51.46z"/>
						<path d="M155.18,56.63c0.48-0.48,1.08-0.5,1.47-0.09c0.41,0.41,0.37,1,0.05,1.32c-0.21,0.21-0.41,0.29-0.64,0.34
							c0.03,0.49,0.36,1.17,0.96,1.77c0.91,0.92,1.94,1.06,2.69,0.33c0.71-0.71,0.36-1.72-0.14-2.82c-0.83-1.86-1.34-3.29,0.01-4.62
							c1.18-1.17,3-1.1,4.45,0.36c1.31,1.33,1.62,3.06,0.78,3.89c-0.47,0.46-1.04,0.44-1.4,0.07c-0.43-0.43-0.37-1.02-0.03-1.36
							c0.19-0.19,0.36-0.24,0.53-0.27c-0.02-0.39-0.33-0.98-0.79-1.45c-0.83-0.84-1.78-0.9-2.41-0.28c-0.73,0.71-0.36,1.7,0.16,2.89
							c0.8,1.78,1.3,3.22-0.04,4.54c-1.38,1.36-3.26,1.09-4.73-0.39C154.61,59.37,154.36,57.43,155.18,56.63z"/>
						<path d="M162.9,66.2l0.73,1.07l6.64-4.5l-0.73-1.07l1.08-0.73l4.38,6.47L172.7,69l-0.78-1.15l1.23-0.83l-2.05-3.03l-2.73,1.85
							l1.89,2.79l-1.05,0.71l-1.89-2.79l-2.89,1.96l2.05,3.03l1.23-0.83l0.79,1.16l-2.3,1.56l-4.4-6.48L162.9,66.2z"/>
						<path d="M169.77,76.95l0.5,1.19l7.4-3.08l-0.5-1.19l1.2-0.51l1.53,3.68c1.45,3.49,0.47,6.43-2.47,7.65
							c-2.97,1.23-5.85,0.04-7.38-3.67l-1.5-3.59L169.77,76.95z M171.33,80.73c1.15,2.76,3.26,3.54,5.54,2.59
							c2.27-0.94,2.9-3.16,1.81-5.79l-0.46-1.1l-7.4,3.08L171.33,80.73z"/>
					</g>
				</g>
			</g>
		</g>
	</g>
</g>
</svg>
