<?xml version="1.0" encoding="utf-8"?>
<!-- Generator: Adobe Illustrator 23.0.1, SVG Export Plug-In . SVG Version: 6.00 Build 0)  -->
<svg version="1.1" id="Layer_1" xmlns="http://www.w3.org/2000/svg" xmlns:xlink="http://www.w3.org/1999/xlink" x="0px" y="0px"
	 viewBox="0 0 178 158.01" style="enable-background:new 0 0 178 158.01;" xml:space="preserve">
<style type="text/css">
	.st0{clip-path:url(#SVGID_2_);fill:#808285;}
	.st1{clip-path:url(#SVGID_2_);}
	.st2{clip-path:url(#SVGID_4_);}
	.st3{clip-path:url(#SVGID_6_);}
</style>
<g>
	<defs>
		<rect id="SVGID_1_" width="178" height="158.01"/>
	</defs>
	<clipPath id="SVGID_2_">
		<use xlink:href="#SVGID_1_"  style="overflow:visible;"/>
	</clipPath>
	<path class="st0" d="M171.55,61.65c-2.06-0.75-3.77-1.5-3.77-3.18c0-1.5,1.18-2.52,3.21-2.52c1.28,0,2.15,0.28,2.72,0.62
		c-0.13,0.25-0.22,0.46-0.22,0.97c0,1.02,0.81,2.08,2.25,2.08c1.19,0,2.08-0.84,2.08-2.31c0-2.46-2.96-4.43-6.79-4.43
		c-4.15,0-6.8,2.56-6.8,5.83c0,3.81,2.68,5.02,6.48,6.4c2.06,0.71,3.78,1.53,3.78,3.21c0,1.78-1.44,2.78-3.68,2.78
		c-1.34,0-2.5-0.34-3.24-0.87c0.18-0.37,0.28-0.75,0.28-1.24c0-1.01-0.88-2.03-2.25-2.03c-1.28,0-2.15,0.96-2.15,2.44
		c0,2.49,3.27,4.77,7.33,4.77c4.21,0,7.23-2.22,7.23-6.12C178,64.25,175.23,62.97,171.55,61.65 M127.95,63.06
		c-1.12,0-1.62-0.03-2-0.06v-6.58h1.9c2.84,0,4.61,1.03,4.61,3.18C132.47,61.75,130.6,63.06,127.95,63.06 M106.7,64.37l2.87-8.07
		l2.87,8.07H106.7z M159.8,56.42h2.55v-3.15h-5.58l-6.29,11.42l-6.3-11.42h-5.62v3.15h2.56l-0.66,14.22h-5.05l-3.15-5.58
		c2.24-0.91,3.86-2.93,3.86-5.59c0-4.18-3.37-6.21-8.08-6.21h-7.95v3.15h2.34v14.22h-4.12l-5.11-14.26h2.26v-3.12h-11.6v3.12h2.24
		l-5.12,14.26h-1.77v3.15h7.89v-3.13h-2.49l1.16-3.36h7.66l1.16,3.36h-2.37v3.13h16.32v-3.15h-2.56v-4.62
		c0.44,0.03,1.02,0.03,1.68,0.03c0.4,0,0.81-0.03,1.25-0.06l4.12,7.8h13.37v-3.15h-2.46l0.4-10.58l5.87,10.3h0.46l5.86-10.3
		l0.41,10.58h-2.46v3.15h8.42v-3.15h-2.44L159.8,56.42z M91.49,56.38h5.9v2.74h3.37v-5.86H85.63v3.15h2.34v14.22h-2.34v3.15h8.58
		v-3.15h-2.72v-5.36h6.06v-3.03h-6.06V56.38z"/>
	<path class="st1" d="M126.63,38.8c-1.12,0-1.62-0.03-2-0.07v-6.58h1.9c2.84,0,4.62,1.02,4.62,3.18
		C131.16,37.49,129.28,38.8,126.63,38.8 M149.74,32.15h2.56v9.74L142.2,29h-5.33v3.15h2.33v14.22h-5.11l-3.15-5.58
		c2.26-0.9,3.87-2.93,3.87-5.59c0-4.18-3.36-6.2-8.08-6.2h-7.95v3.15h2.34v14.22h-2.34v3.16h8.42v-3.16h-2.56v-4.61
		c0.43,0.03,1.03,0.03,1.69,0.03c0.4,0,0.81-0.03,1.24-0.06l4.12,7.8h13.5v-3.16h-2.55V35.36l11.19,14.26l1.9-0.07v-17.4h2.25V29
		h-8.23V32.15z M114,46.4h-6.12v-5.8h6.22v-2.99h-6.22v-5.5h6.09v2.75h3.37V29h-15.32v3.15h2.34v14.22h-2.34v3.16h15.35v-5.87H114
		V46.4z M85.63,32.15h2.34v14.22h-2.34v3.16h8.57v-3.16h-2.71v-5.36h6.05v-3.04h-6.05v-5.86h5.89v2.75h3.36V29H85.63V32.15z
		 M165.74,14.53c-1.12,0-1.62-0.03-1.99-0.06V7.89h1.9c2.83,0,4.62,1.03,4.62,3.18C170.27,13.22,168.4,14.53,165.74,14.53
		 M160.22,22.11h-2.64V19.4h-3.37v2.75h-6.12v-5.81h6.21v-2.99h-6.21V7.86h6.09v2.75h3.36V7.89h2.68V22.11z M170.05,16.53
		c2.24-0.91,3.87-2.93,3.87-5.59c0-4.18-3.37-6.2-8.09-6.2h-30.56v3.15h2.28l-4.41,11.26L128.7,7.89h2.15V4.74h-8.11v3.15h1.88
		l7.45,17.59h1.99l7.45-17.59h3.06v14.22h-2.34v3.15h24.07v-3.15h-2.55V17.5c0.43,0.03,1.03,0.03,1.68,0.03
		c0.39,0,0.81-0.03,1.25-0.06l4.12,7.79h4.74v-3.15h-2.34L170.05,16.53z M126.72,19.25h-3.4v2.9h-5.64V7.89h2.71V4.74h-8.58v3.15
		h2.34v14.22h-2.34v3.15h14.91V19.25z M110.2,22.11h-2.49V7.89h2.49V4.74h-8.51v3.15h2.5v14.22h-2.5v3.15h8.51V22.11z M93.05,25.64
		c4.2,0,7.23-2.22,7.23-6.12c0-3.8-2.78-5.08-6.45-6.39c-2.06-0.75-3.78-1.5-3.78-3.18c0-1.5,1.18-2.53,3.21-2.53
		c1.28,0,2.15,0.28,2.71,0.61c-0.12,0.26-0.21,0.47-0.21,0.97c0,1.03,0.8,2.09,2.24,2.09c1.18,0,2.09-0.84,2.09-2.31
		c0-2.46-2.96-4.43-6.8-4.43c-4.15,0-6.8,2.57-6.8,5.84c0,3.8,2.67,5.02,6.48,6.4c2.06,0.72,3.78,1.52,3.78,3.21
		c0,1.77-1.43,2.78-3.68,2.78c-1.35,0-2.5-0.35-3.25-0.88c0.19-0.37,0.28-0.75,0.28-1.24c0-1-0.87-2.03-2.25-2.03
		c-1.28,0-2.15,0.97-2.15,2.44C85.72,23.37,88.99,25.64,93.05,25.64"/>
	<path class="st1" d="M49.7,38.25c0.16,0.35,0.39,0.98,0.38,1.81c-0.12-0.3-0.59-0.96-1.21-1.57c-0.58,0.16-1.19,0.33-1.83,0.48
		c-0.49,0.12-1.53,0.4-2.59,0.71c0.19,0.17,0.38,0.37,0.56,0.6c0.48,0.6,0.94,1.35,1.33,2.31c-0.31-0.36-1.97-1.72-3.69-2.41
		c-0.87,0.25-1.52,0.42-1.52,0.42c-0.87,0.25-1.75,0.54-2.67,0.87c0.78,0.46,1.59,1.08,2.42,1.93c0.59,0.61,1.18,1.3,1.77,2.14
		c-1.44-0.97-4.45-2.49-7.04-2.69c-1.07,0.62-2.1,1.38-3.17,2.28c1.66,0.49,3.51,1.52,5.66,3.64c0.35,0.35,0.72,0.72,1.09,1.14
		c-2.22-1.32-6.14-2.38-9.25-2.25c-0.91,1.07-1.84,2.28-2.64,3.65c2.14-0.15,4.84,0.36,8.4,2.5c0.48,0.29,0.98,0.6,1.49,0.96
		c-2.94-0.98-8.73-1.17-11.53,0.11c-0.15,0.47-0.54,2.17-0.53,4c5.67-1.07,8.94-0.09,12.44,0.89c1.82-14.6,10.87-16.45,20.11-24.39
		h0C56.02,36.17,53.37,37.2,49.7,38.25"/>
	<path class="st1" d="M39.1,0C17.5,0,0,17.51,0,39.11c0,21.6,17.5,39.11,39.1,39.11c21.59,0,39.1-17.51,39.1-39.11
		C78.2,17.51,60.69,0,39.1,0 M39.06,73.55c-0.62,0-1.23-0.02-1.84-0.06c-0.33-0.05-0.69-0.11-1.06-0.17
		c-8.9-1.36-12.44-6.94-13.24-11.74c-1.04-6.22,1.41-9.64,2.8-11.76c4.43-6.5,10.46-9.36,15.67-10.8c0,0,4.66-1.31,5.91-1.62
		c5.97-1.47,9.83-3.01,11.6-4.01c1.4-0.79,3.28-2.26,4.41-4.34c0,0,1.56-2.39,1.25-5.24c-0.38-3.51-2.92-5.31-5.25-5.48
		c-0.22,0-0.44-0.01-0.66,0c-0.88,0.04-1.76,0.34-2.46,0.8c-0.68,0.45-1.22,1.13-1.52,1.87c0,0-0.25,0.53-0.25,1.19v0.02
		c0,1.7,1.39,3.09,3.1,3.09c1.71,0,3.09-1.39,3.09-3.09c0-0.48-0.11-0.91-0.29-1.33c0.83,0.49,1.29,1.35,1.44,2.26
		c0.05,0.35,0.08,0.75,0.05,1.18c-0.02,0.32-0.06,0.65-0.14,0.98c-0.32,1.12-0.97,2.13-2.84,2.79c-0.74,0.21-1.52,0.39-2.34,0.52
		c0.01,0.86-0.21,1.91-1.06,3.04c-0.13,0.17-0.3,0.34-0.49,0.51c0.4-1.04,0.38-2.3,0.16-3.34c-0.99,0.12-2.03,0.2-3.12,0.28
		c0.16,1.05,0.08,2.4-0.89,3.93c-0.14,0.22-0.31,0.44-0.52,0.65c0.42-1.46,0.15-3.19-0.35-4.48c-1.03,0.05-2.08,0.1-3.16,0.15
		c0.3,1.22,0.39,2.91-0.77,4.91c-0.15,0.25-0.35,0.52-0.57,0.78c0.46-1.89-0.07-4.11-0.83-5.59c-1.17,0.07-2.38,0.15-3.59,0.26
		c0.41,1.35,0.56,3.13-0.35,5.34c-0.14,0.32-0.32,0.66-0.55,1h-0.01c0.24-2.12-0.57-4.44-1.59-6.07c-1.33,0.17-2.67,0.38-4.03,0.67
		c0.74,1.39,1.31,3.31,0.93,5.94c-0.05,0.37-0.17,0.8-0.31,1.22c-0.29-2.49-1.77-4.97-3.26-6.52c-1.45,0.39-2.89,0.88-4.32,1.49
		c1.15,1.21,2.29,3.04,2.58,5.88c0.04,0.42,0.03,0.87-0.01,1.35c-1-2.59-3.37-4.8-5.39-5.95c-1.37,0.7-2.64,1.49-3.79,2.31
		c1.52,0.94,3.21,2.51,4.23,5.44c0.15,0.39,0.37,1.26,0.45,1.75c-1.69-2.47-4.89-4.42-7.27-5.1c-1.23,1.09-2.3,2.21-3.22,3.3
		c2.32,1.25,5.39,3.82,6.65,7.05v0.01c-2.19-2.12-6.28-3.39-9.23-3.62c-1.44,2.22-2.18,3.87-2.29,4.12
		c4.38,1.17,6.55,2.66,7.61,3.85v0.01c0.94,0.92,0.69,2.03,0.69,2.03c-0.14,0.65-0.24,1.29-0.33,1.91c-0.64,4.2-0.29,7.5,0.66,10.12
		c-8.88-6.26-14.68-16.6-14.68-28.29c0-19.11,15.49-34.6,34.6-34.6c19.1,0,34.59,15.49,34.59,34.6
		C73.65,58.04,58.16,73.55,39.06,73.55"/>
	<path class="st1" d="M159.08,31.58c0-1.54,1.21-2.72,2.72-2.72s2.72,1.19,2.72,2.72c0,1.52-1.21,2.71-2.72,2.71
		S159.08,33.1,159.08,31.58 M159.68,31.59c0,1.22,0.97,2.13,2.12,2.13c1.15,0,2.11-0.91,2.11-2.13c0-1.26-0.97-2.18-2.11-2.18
		C160.65,29.42,159.68,30.33,159.68,31.59 M160.79,32.32h0.26v-1.57h-0.26v-0.47h1.01c0.57,0,1.03,0.24,1.03,0.76
		c0,0.32-0.2,0.56-0.44,0.68l0.29,0.59h0.27v0.47h-0.65l-0.42-0.91h-0.3v0.44h0.26v0.47h-1.04V32.32z M161.78,31.43
		c0.3,0,0.45-0.12,0.45-0.33c0-0.23-0.17-0.33-0.47-0.33h-0.2v0.67H161.78z"/>
</g>
<polygon points="44.37,97.92 43.92,99.9 45.62,99.9 44.2,106.04 39.95,97.92 36.57,97.92 36.12,99.9 37.69,99.9 35.61,108.81 
	34.25,108.81 33.8,110.79 39.03,110.79 39.49,108.81 37.78,108.81 39.43,101.74 44.18,110.83 45.25,110.83 47.79,99.9 49.16,99.9 
	49.61,97.92 "/>
<g>
	<defs>
		<rect id="SVGID_3_" width="178" height="158.01"/>
	</defs>
	<clipPath id="SVGID_4_">
		<use xlink:href="#SVGID_3_"  style="overflow:visible;"/>
	</clipPath>
	<path class="st2" d="M50.33,107.23v0.14c0,0.96,0.78,1.8,2.4,1.8c0.86,0,1.76-0.19,2.83-0.76l-0.41,1.95
		c-0.9,0.43-1.64,0.59-2.91,0.59c-2.09,0-4.03-1.31-4.03-3.67c0-2.91,2.07-5.2,4.63-5.2c2.17,0,3.68,1.17,3.68,3.3
		c0,0.55-0.1,1.17-0.31,1.86H50.33z M50.57,105.74h3.83c0.06-0.22,0.08-0.41,0.08-0.59c0-0.84-0.55-1.33-1.58-1.33
		C51.82,103.83,50.98,104.57,50.57,105.74"/>
	<path class="st2" d="M58.9,104.02h-1.56l0.47-1.8h2.97l0.29,6.22l2.72-5.34h1.43l1.02,5.42c1.04-1.58,1.9-3.05,2.03-3.97
		c-0.45-0.14-0.88-0.57-0.88-1.21c0-0.7,0.57-1.27,1.27-1.27c0.92,0,1.54,0.66,1.54,1.76c0,1.27-1.1,3.5-3.73,7.12h-1.45L64,106.23
		l-2.68,4.71h-1.64L58.9,104.02z"/>
</g>
<polygon points="73.5,109.54 82.9,99.78 77.98,99.78 77.49,101.93 75.48,101.93 76.41,97.92 86.03,97.92 86.23,99.17 76.82,108.93 
	82.04,108.93 82.53,106.78 84.55,106.78 83.61,110.79 73.7,110.79 "/>
<g>
	<defs>
		<rect id="SVGID_5_" width="178" height="158.01"/>
	</defs>
	<clipPath id="SVGID_6_">
		<use xlink:href="#SVGID_5_"  style="overflow:visible;"/>
	</clipPath>
	<path class="st3" d="M87.87,107.23v0.14c0,0.96,0.78,1.8,2.4,1.8c0.86,0,1.76-0.19,2.83-0.76l-0.41,1.95
		c-0.9,0.43-1.64,0.59-2.91,0.59c-2.09,0-4.03-1.31-4.03-3.67c0-2.91,2.07-5.2,4.63-5.2c2.17,0,3.68,1.17,3.68,3.3
		c0,0.55-0.1,1.17-0.31,1.86H87.87z M88.1,105.74h3.83c0.06-0.22,0.08-0.41,0.08-0.59c0-0.84-0.55-1.33-1.58-1.33
		C89.36,103.83,88.51,104.57,88.1,105.74"/>
	<path class="st3" d="M95.08,107.62c0-2.95,1.97-5.55,4.46-5.55c1.13,0,2.05,0.94,2.4,1.91l0.59-1.76h1.99l-1.47,5.83
		c-0.1,0.37-0.16,0.7-0.16,0.92c0,0.35,0.14,0.53,0.43,0.53c0.26,0,0.67-0.21,1.1-1.41l0.86,0.33c-0.59,2.01-1.68,2.52-2.62,2.52
		c-1.11,0-1.76-0.76-1.76-1.94c-0.7,1.06-1.74,1.94-3.07,1.94C96.24,110.94,95.08,109.62,95.08,107.62 M101.57,105.78
		c0-1.11-0.55-1.82-1.68-1.82c-1.43,0-2.58,1.6-2.58,3.34c0,1.02,0.51,1.82,1.54,1.82C100.28,109.13,101.57,107.62,101.57,105.78"/>
	<path class="st3" d="M106.4,109.01c0-0.29,0.04-0.61,0.12-0.94l2.27-9.79h-1.6l0.47-1.8h3.71l-2.68,11.57
		c-0.08,0.35-0.14,0.62-0.14,0.84c0,0.43,0.14,0.61,0.45,0.61c0.35,0,0.72-0.21,1.15-1.41l0.86,0.33c-0.59,2.01-1.57,2.52-2.68,2.52
		C107.01,110.94,106.4,110.18,106.4,109.01"/>
	<path class="st3" d="M111.84,107.62c0-2.95,1.97-5.55,4.46-5.55c1.13,0,2.05,0.94,2.4,1.91l0.59-1.76h2l-1.47,5.83
		c-0.1,0.37-0.16,0.7-0.16,0.92c0,0.35,0.14,0.53,0.43,0.53c0.25,0,0.67-0.21,1.1-1.41l0.86,0.33c-0.59,2.01-1.68,2.52-2.62,2.52
		c-1.12,0-1.76-0.76-1.76-1.94c-0.7,1.06-1.74,1.94-3.07,1.94C112.99,110.94,111.84,109.62,111.84,107.62 M118.33,105.78
		c0-1.11-0.55-1.82-1.68-1.82c-1.43,0-2.58,1.6-2.58,3.34c0,1.02,0.51,1.82,1.54,1.82C117.04,109.13,118.33,107.62,118.33,105.78"/>
	<path class="st3" d="M128.57,109.05c0-0.31,0.04-0.64,0.14-0.98l0.65-2.31c0.08-0.25,0.1-0.49,0.1-0.7c0-0.74-0.45-1.19-1.17-1.19
		c-0.92,0-1.53,0.64-1.84,1.92l-1.25,5H123l1.7-6.76h-1.56l0.47-1.8h3.34l-0.43,1.97c0.59-1.09,1.76-2.13,2.91-2.13
		c1.23,0,2.25,0.88,2.25,2.56c0,0.43-0.06,0.9-0.21,1.43l-0.63,2.25c-0.06,0.23-0.1,0.43-0.1,0.61c0,0.39,0.16,0.59,0.45,0.59
		s0.66-0.22,1.1-1.41l0.86,0.33c-0.51,1.78-1.43,2.52-2.58,2.52C129.22,110.94,128.57,110.14,128.57,109.05"/>
	<path class="st3" d="M138.03,102.07c1.15,0,2.01,0.94,2.37,1.84l1.31-5.63h-1.58l0.47-1.8h3.67l-2.7,11.57
		c-0.1,0.41-0.16,0.7-0.16,0.92c0,0.35,0.14,0.53,0.43,0.53c0.25,0,0.66-0.22,1.1-1.41l0.86,0.33c-0.59,2.01-1.7,2.52-2.64,2.52
		c-1.12,0-1.76-0.76-1.76-1.94c-0.7,1.06-1.74,1.94-3.07,1.94c-1.6,0-2.76-1.33-2.76-3.32
		C133.58,104.67,135.55,102.07,138.03,102.07 M140.07,105.78c0-1.11-0.55-1.82-1.68-1.82c-1.43,0-2.58,1.6-2.58,3.34
		c0,1.02,0.51,1.82,1.54,1.82C138.78,109.13,140.07,107.62,140.07,105.78"/>
	<path class="st3" d="M47.82,146.76c0,7.35-5.11,11.25-13.3,11.25H19.5v-39.25h13.74c8.18,0,13.3,3.64,13.3,10.67
		c0,4.22-2.24,7.29-5.11,8.31C45.14,138.96,47.82,142.6,47.82,146.76 M33.18,135.25c4.54,0,6.97-1.73,6.97-5.43
		c0-3.71-2.43-5.31-6.97-5.31h-7.22v10.74H33.18z M25.96,152.26h8.44c4.47,0,6.9-2.24,6.9-5.75c0-3.58-2.43-5.75-6.9-5.75h-8.44
		V152.26z"/>
</g>
<polygon points="58.24,118.76 58.24,158.01 83.87,158.01 83.87,152.06 64.76,152.06 64.76,140.81 82.08,140.81 82.08,135 64.76,135 
	64.76,124.64 83.87,124.64 83.87,118.76 "/>
<polygon points="94.93,118.76 94.93,158.01 120.57,158.01 120.57,152.06 101.45,152.06 101.45,140.81 118.77,140.81 118.77,135 
	101.45,135 101.45,124.64 120.57,124.64 120.57,118.76 "/>
<polygon points="131.62,118.76 131.62,158.01 138.27,158.01 138.27,142.09 155.47,142.09 155.47,136.28 138.27,136.28 
	138.27,124.64 156.68,124.64 156.68,118.76 "/>
</svg>
