<?xml version="1.0" encoding="utf-8"?>
<!-- Generator: Adobe Illustrator 23.0.1, SVG Export Plug-In . SVG Version: 6.00 Build 0)  -->
<svg version="1.1" id="Layer_1" xmlns="http://www.w3.org/2000/svg" xmlns:xlink="http://www.w3.org/1999/xlink" x="0px" y="0px"
	 viewBox="0 0 176.71 156.95" style="enable-background:new 0 0 176.71 156.95;" xml:space="preserve">
<style type="text/css">
	.st0{clip-path:url(#SVGID_2_);fill:#808285;}
	.st1{clip-path:url(#SVGID_2_);}
	.st2{clip-path:url(#SVGID_4_);}
	.st3{clip-path:url(#SVGID_6_);}
	.st4{clip-path:url(#SVGID_8_);}
</style>
<g>
	<defs>
		<rect id="SVGID_1_" width="176.71" height="156.95"/>
	</defs>
	<clipPath id="SVGID_2_">
		<use xlink:href="#SVGID_1_"  style="overflow:visible;"/>
	</clipPath>
	<path class="st0" d="M170.3,61.21c-2.04-0.74-3.74-1.48-3.74-3.16c0-1.49,1.17-2.5,3.18-2.5c1.27,0,2.13,0.28,2.7,0.62
		c-0.13,0.25-0.22,0.46-0.22,0.96c0,1.02,0.81,2.07,2.23,2.07c1.18,0,2.07-0.83,2.07-2.29c0-2.45-2.94-4.39-6.74-4.39
		c-4.12,0-6.76,2.54-6.76,5.79c0,3.78,2.67,4.99,6.44,6.35c2.04,0.71,3.75,1.51,3.75,3.19c0,1.77-1.43,2.76-3.66,2.76
		c-1.33,0-2.48-0.34-3.22-0.86c0.18-0.37,0.28-0.74,0.28-1.24c0-1-0.87-2.02-2.23-2.02c-1.27,0-2.13,0.95-2.13,2.42
		c0,2.47,3.24,4.73,7.28,4.73c4.18,0,7.18-2.2,7.18-6.07C176.7,63.78,173.95,62.51,170.3,61.21 M127.02,62.6
		c-1.11,0-1.61-0.03-1.98-0.06v-6.54h1.89c2.82,0,4.58,1.02,4.58,3.16C131.51,61.3,129.65,62.6,127.02,62.6 M105.93,63.9l2.85-8.01
		l2.85,8.01H105.93z M158.63,56.01h2.53v-3.13h-5.54l-6.25,11.34l-6.26-11.34h-5.57v3.13h2.54l-0.65,14.12h-5.01l-3.13-5.54
		c2.22-0.9,3.84-2.91,3.84-5.54c0-4.15-3.35-6.16-8.02-6.16h-7.9v3.13h2.32v14.12h-4.1l-5.08-14.16h2.24v-3.09h-11.52v3.09h2.22
		l-5.08,14.16h-1.76v3.13h7.83v-3.1h-2.48l1.15-3.34h7.61l1.15,3.34h-2.35v3.1h16.2v-3.13h-2.54v-4.59
		c0.44,0.03,1.02,0.03,1.67,0.03c0.4,0,0.8-0.03,1.24-0.06l4.09,7.74h13.28v-3.13h-2.44l0.4-10.5l5.82,10.22h0.46l5.82-10.22
		l0.41,10.5h-2.45v3.13h8.36v-3.13h-2.42L158.63,56.01z M90.82,55.97h5.85v2.72h3.34v-5.82H85.01v3.13h2.32v14.12h-2.32v3.13h8.51
		v-3.13h-2.7V64.8h6.01V61.8h-6.01V55.97z"/>
	<path class="st1" d="M125.71,38.52c-1.12,0-1.61-0.03-1.98-0.07v-6.53h1.88c2.82,0,4.59,1.02,4.59,3.16
		C130.2,37.21,128.34,38.52,125.71,38.52 M148.65,31.92h2.54v9.67l-10.03-12.8h-5.29v3.13h2.32v14.12h-5.07l-3.13-5.54
		c2.24-0.9,3.84-2.91,3.84-5.55c0-4.15-3.34-6.16-8.02-6.16h-7.89v3.13h2.32v14.12h-2.32v3.13h8.36v-3.13h-2.54v-4.58
		c0.43,0.03,1.03,0.03,1.67,0.03c0.39,0,0.8-0.03,1.23-0.06l4.09,7.75h13.4v-3.13h-2.53V35.11l11.11,14.16l1.89-0.07V31.92h2.23
		v-3.13h-8.17V31.92z M113.17,46.07h-6.08v-5.76h6.17v-2.97h-6.17v-5.46h6.04v2.73h3.35v-5.83h-15.2v3.13h2.32v14.12h-2.32v3.13
		h15.24v-5.83h-3.35V46.07z M85.01,31.92h2.32v14.12h-2.32v3.13h8.51v-3.13h-2.69v-5.32h6v-3.01h-6v-5.82h5.85v2.73h3.34v-5.83
		H85.01V31.92z M164.53,14.42c-1.12,0-1.61-0.03-1.97-0.06V7.83h1.89c2.81,0,4.58,1.02,4.58,3.15
		C169.03,13.12,167.17,14.42,164.53,14.42 M159.06,21.95h-2.62v-2.69h-3.34v2.73h-6.08v-5.76h6.17v-2.97h-6.17V7.8h6.05v2.73h3.34
		v-2.7h2.66V21.95z M168.81,16.41c2.23-0.9,3.84-2.91,3.84-5.55c0-4.15-3.35-6.16-8.03-6.16h-30.34v3.13h2.26l-4.38,11.18
		l-4.4-11.18h2.13V4.71h-8.05v3.13h1.86l7.39,17.46h1.98l7.4-17.46h3.04v14.12h-2.32v3.13h23.89v-3.13h-2.53v-4.58
		c0.43,0.03,1.02,0.03,1.67,0.03c0.39,0,0.8-0.03,1.24-0.06l4.09,7.73h4.71v-3.13h-2.32L168.81,16.41z M125.79,19.11h-3.38v2.88
		h-5.6V7.83h2.69V4.71h-8.52v3.13h2.33v14.12h-2.33v3.13h14.8V19.11z M109.4,21.95h-2.48V7.83h2.48V4.71h-8.45v3.13h2.48v14.12
		h-2.48v3.13h8.45V21.95z M92.37,25.46c4.17,0,7.17-2.2,7.17-6.08c0-3.77-2.76-5.04-6.4-6.35c-2.05-0.74-3.75-1.49-3.75-3.15
		c0-1.49,1.17-2.51,3.19-2.51c1.27,0,2.13,0.28,2.7,0.61c-0.12,0.26-0.21,0.47-0.21,0.97c0,1.02,0.79,2.07,2.22,2.07
		c1.17,0,2.07-0.83,2.07-2.29c0-2.45-2.94-4.4-6.75-4.4c-4.12,0-6.75,2.55-6.75,5.79c0,3.77,2.65,4.98,6.44,6.35
		c2.05,0.71,3.75,1.51,3.75,3.19c0,1.76-1.42,2.76-3.65,2.76c-1.34,0-2.48-0.35-3.22-0.88c0.19-0.37,0.28-0.74,0.28-1.23
		c0-0.99-0.86-2.02-2.23-2.02c-1.27,0-2.13,0.96-2.13,2.42C85.1,23.2,88.35,25.46,92.37,25.46"/>
	<path class="st1" d="M49.34,37.97c0.16,0.34,0.39,0.97,0.38,1.79c-0.12-0.3-0.59-0.96-1.2-1.56c-0.58,0.16-1.19,0.33-1.82,0.48
		c-0.49,0.12-1.52,0.4-2.57,0.71c0.19,0.17,0.38,0.37,0.56,0.6c0.47,0.59,0.93,1.33,1.32,2.29c-0.31-0.36-1.96-1.71-3.66-2.39
		c-0.87,0.25-1.51,0.42-1.51,0.42c-0.86,0.25-1.74,0.53-2.65,0.87c0.78,0.46,1.58,1.08,2.4,1.91c0.59,0.6,1.17,1.29,1.76,2.13
		c-1.43-0.96-4.42-2.47-6.99-2.67c-1.06,0.62-2.08,1.37-3.15,2.27c1.65,0.49,3.49,1.51,5.62,3.62c0.35,0.34,0.72,0.72,1.08,1.13
		c-2.21-1.3-6.09-2.36-9.19-2.23c-0.91,1.06-1.83,2.26-2.62,3.62c2.12-0.14,4.81,0.35,8.34,2.48c0.48,0.29,0.97,0.59,1.48,0.95
		c-2.92-0.97-8.67-1.16-11.45,0.1c-0.14,0.47-0.53,2.16-0.52,3.97c5.62-1.07,8.87-0.09,12.35,0.88C39.1,44.83,48.09,43,57.27,35.12
		h0C55.62,35.91,52.98,36.93,49.34,37.97"/>
	<path class="st1" d="M38.81,0C17.38,0,0,17.38,0,38.82c0,21.44,17.38,38.82,38.81,38.82c21.44,0,38.81-17.38,38.81-38.82
		C77.63,17.38,60.25,0,38.81,0 M38.77,73.01c-0.62,0-1.22-0.02-1.82-0.06c-0.33-0.05-0.69-0.11-1.06-0.17
		c-8.83-1.35-12.35-6.89-13.15-11.65c-1.03-6.18,1.4-9.57,2.78-11.67c4.39-6.45,10.38-9.29,15.55-10.72c0,0,4.62-1.3,5.86-1.61
		c5.93-1.46,9.76-2.99,11.52-3.98c1.39-0.78,3.26-2.24,4.38-4.31c0,0,1.55-2.38,1.24-5.21c-0.37-3.48-2.9-5.27-5.22-5.44
		c-0.22,0-0.43-0.01-0.65,0c-0.88,0.04-1.74,0.34-2.44,0.79c-0.68,0.45-1.21,1.12-1.51,1.86c0,0-0.25,0.52-0.25,1.18v0.02
		c0,1.69,1.38,3.07,3.07,3.07c1.69,0,3.07-1.38,3.07-3.07c0-0.48-0.11-0.91-0.29-1.32c0.82,0.49,1.28,1.34,1.43,2.24
		c0.05,0.34,0.08,0.74,0.05,1.17c-0.02,0.31-0.06,0.65-0.14,0.97c-0.32,1.11-0.97,2.12-2.81,2.76c-0.73,0.21-1.51,0.39-2.33,0.52
		c0.01,0.86-0.2,1.9-1.06,3.02c-0.13,0.17-0.3,0.33-0.49,0.51c0.4-1.03,0.38-2.28,0.16-3.32c-0.99,0.12-2.01,0.2-3.1,0.28
		c0.16,1.04,0.08,2.38-0.88,3.9c-0.14,0.22-0.31,0.44-0.51,0.65c0.41-1.45,0.15-3.17-0.35-4.45c-1.02,0.05-2.06,0.1-3.13,0.15
		c0.3,1.21,0.39,2.89-0.76,4.87c-0.14,0.25-0.34,0.51-0.56,0.77c0.46-1.88-0.07-4.08-0.83-5.55c-1.16,0.07-2.36,0.15-3.56,0.26
		c0.41,1.34,0.56,3.11-0.35,5.3c-0.13,0.32-0.32,0.66-0.54,0.99h-0.01c0.24-2.11-0.57-4.41-1.58-6.03c-1.32,0.17-2.66,0.38-4,0.67
		c0.73,1.38,1.3,3.29,0.92,5.89c-0.05,0.37-0.17,0.79-0.31,1.21c-0.29-2.47-1.76-4.93-3.23-6.47c-1.44,0.39-2.87,0.88-4.29,1.48
		c1.14,1.2,2.28,3.01,2.56,5.83c0.03,0.41,0.03,0.87-0.01,1.34c-0.99-2.57-3.34-4.77-5.35-5.9c-1.36,0.7-2.62,1.48-3.77,2.29
		c1.51,0.93,3.19,2.49,4.2,5.4c0.14,0.39,0.37,1.25,0.45,1.74c-1.68-2.45-4.85-4.39-7.22-5.06c-1.22,1.08-2.28,2.19-3.2,3.28
		c2.3,1.24,5.35,3.79,6.6,7v0.01c-2.18-2.11-6.24-3.37-9.16-3.59c-1.43,2.2-2.16,3.84-2.28,4.09c4.35,1.16,6.5,2.64,7.56,3.82v0.01
		c0.93,0.92,0.68,2.01,0.68,2.01c-0.14,0.65-0.24,1.28-0.33,1.9c-0.63,4.17-0.28,7.45,0.66,10.04C10.18,60.52,4.42,50.26,4.42,38.65
		C4.42,19.69,19.8,4.3,38.77,4.3c18.96,0,34.34,15.38,34.34,34.35C73.11,57.62,57.74,73.01,38.77,73.01"/>
	<path class="st1" d="M157.92,31.35c0-1.52,1.2-2.7,2.7-2.7s2.7,1.18,2.7,2.7c0,1.51-1.2,2.69-2.7,2.69S157.92,32.86,157.92,31.35
		 M158.52,31.36c0,1.21,0.96,2.11,2.1,2.11c1.14,0,2.1-0.91,2.1-2.11c0-1.25-0.96-2.16-2.1-2.16
		C159.48,29.21,158.52,30.11,158.52,31.36 M159.62,32.09h0.26v-1.56h-0.26v-0.47h1c0.57,0,1.02,0.24,1.02,0.75
		c0,0.32-0.2,0.56-0.43,0.68l0.29,0.59h0.27v0.47h-0.64l-0.42-0.9h-0.3v0.44h0.26v0.47h-1.03V32.09z M160.6,31.2
		c0.3,0,0.45-0.12,0.45-0.33c0-0.23-0.17-0.33-0.47-0.33h-0.19v0.66H160.6z"/>
</g>
<polygon points="44.05,97.21 43.6,99.17 45.29,99.17 43.87,105.26 39.66,97.21 36.31,97.21 35.86,99.17 37.41,99.17 35.35,108.02 
	34,108.02 33.55,109.98 38.75,109.98 39.2,108.02 37.51,108.02 39.14,101 43.86,110.02 44.92,110.02 47.45,99.17 48.8,99.17 
	49.25,97.21 "/>
<g>
	<defs>
		<rect id="SVGID_3_" width="176.71" height="156.95"/>
	</defs>
	<clipPath id="SVGID_4_">
		<use xlink:href="#SVGID_3_"  style="overflow:visible;"/>
	</clipPath>
	<path class="st2" d="M49.97,106.45v0.14c0,0.95,0.78,1.79,2.39,1.79c0.85,0,1.75-0.19,2.81-0.76l-0.41,1.94
		c-0.89,0.43-1.63,0.58-2.89,0.58c-2.08,0-4-1.3-4-3.65c0-2.89,2.06-5.16,4.6-5.16c2.15,0,3.65,1.16,3.65,3.28
		c0,0.54-0.1,1.17-0.31,1.84H49.97z M50.2,104.97h3.8c0.06-0.21,0.08-0.41,0.08-0.58c0-0.83-0.54-1.32-1.57-1.32
		C51.44,103.07,50.61,103.81,50.2,104.97"/>
	<path class="st2" d="M58.47,103.27h-1.55l0.47-1.78h2.95l0.29,6.17l2.7-5.3h1.42l1.01,5.38c1.03-1.57,1.88-3.03,2.02-3.94
		c-0.45-0.13-0.87-0.56-0.87-1.2c0-0.7,0.56-1.26,1.26-1.26c0.91,0,1.53,0.66,1.53,1.75c0,1.26-1.09,3.47-3.71,7.06h-1.44
		l-1.01-4.68l-2.66,4.68h-1.63L58.47,103.27z"/>
</g>
<polygon points="72.97,108.74 82.3,99.05 77.41,99.05 76.92,101.19 74.93,101.19 75.86,97.21 85.41,97.21 85.6,98.45 76.26,108.14 
	81.45,108.14 81.93,106 83.93,106 83,109.98 73.16,109.98 "/>
<g>
	<defs>
		<rect id="SVGID_5_" width="176.71" height="156.95"/>
	</defs>
	<clipPath id="SVGID_6_">
		<use xlink:href="#SVGID_5_"  style="overflow:visible;"/>
	</clipPath>
	<path class="st3" d="M87.23,106.45v0.14c0,0.95,0.78,1.79,2.39,1.79c0.85,0,1.75-0.19,2.81-0.76l-0.41,1.94
		c-0.89,0.43-1.63,0.58-2.89,0.58c-2.08,0-4-1.3-4-3.65c0-2.89,2.06-5.16,4.6-5.16c2.15,0,3.65,1.16,3.65,3.28
		c0,0.54-0.1,1.17-0.31,1.84H87.23z M87.46,104.97h3.8c0.06-0.21,0.08-0.41,0.08-0.58c0-0.83-0.54-1.32-1.57-1.32
		C88.71,103.07,87.87,103.81,87.46,104.97"/>
	<path class="st3" d="M94.39,106.84c0-2.93,1.96-5.51,4.43-5.51c1.13,0,2.04,0.93,2.39,1.9l0.58-1.75h1.98l-1.45,5.78
		c-0.1,0.37-0.16,0.7-0.16,0.91c0,0.35,0.13,0.52,0.43,0.52c0.25,0,0.66-0.21,1.09-1.4l0.85,0.33c-0.58,2-1.67,2.5-2.6,2.5
		c-1.11,0-1.75-0.76-1.75-1.92c-0.7,1.05-1.73,1.92-3.05,1.92C95.54,110.14,94.39,108.82,94.39,106.84 M100.83,105.01
		c0-1.11-0.54-1.8-1.67-1.8c-1.42,0-2.56,1.59-2.56,3.32c0,1.01,0.5,1.8,1.53,1.8C99.55,108.33,100.83,106.84,100.83,105.01"/>
	<path class="st3" d="M105.63,108.22c0-0.29,0.04-0.6,0.12-0.93l2.25-9.72h-1.59l0.47-1.79h3.69l-2.66,11.49
		c-0.08,0.35-0.14,0.62-0.14,0.83c0,0.43,0.14,0.6,0.45,0.6c0.35,0,0.72-0.21,1.15-1.4l0.85,0.33c-0.58,2-1.55,2.5-2.66,2.5
		C106.23,110.14,105.63,109.38,105.63,108.22"/>
	<path class="st3" d="M111.02,106.84c0-2.93,1.96-5.51,4.42-5.51c1.13,0,2.04,0.93,2.39,1.9l0.58-1.75h1.98l-1.45,5.78
		c-0.1,0.37-0.16,0.7-0.16,0.91c0,0.35,0.14,0.52,0.43,0.52c0.25,0,0.66-0.21,1.09-1.4l0.86,0.33c-0.58,2-1.67,2.5-2.6,2.5
		c-1.11,0-1.75-0.76-1.75-1.92c-0.7,1.05-1.73,1.92-3.05,1.92C112.17,110.14,111.02,108.82,111.02,106.84 M117.47,105.01
		c0-1.11-0.54-1.8-1.67-1.8c-1.42,0-2.56,1.59-2.56,3.32c0,1.01,0.5,1.8,1.53,1.8C116.19,108.33,117.47,106.84,117.47,105.01"/>
	<path class="st3" d="M127.64,108.25c0-0.31,0.04-0.64,0.14-0.97l0.64-2.29c0.08-0.25,0.1-0.49,0.1-0.7c0-0.74-0.45-1.18-1.16-1.18
		c-0.91,0-1.51,0.64-1.83,1.9l-1.24,4.97h-2.18l1.69-6.72h-1.55l0.47-1.78h3.32l-0.43,1.96c0.58-1.09,1.75-2.11,2.89-2.11
		c1.22,0,2.23,0.87,2.23,2.54c0,0.43-0.06,0.89-0.21,1.42l-0.62,2.23c-0.06,0.23-0.1,0.43-0.1,0.6c0,0.39,0.15,0.58,0.45,0.58
		s0.66-0.21,1.09-1.4l0.85,0.33c-0.51,1.77-1.42,2.5-2.56,2.5C128.28,110.14,127.64,109.34,127.64,108.25"/>
	<path class="st3" d="M137.03,101.33c1.15,0,2,0.93,2.35,1.82l1.3-5.59h-1.57l0.46-1.79h3.65l-2.68,11.49
		c-0.1,0.41-0.15,0.7-0.15,0.91c0,0.35,0.14,0.52,0.43,0.52c0.25,0,0.66-0.21,1.09-1.4l0.85,0.33c-0.58,2-1.69,2.5-2.62,2.5
		c-1.11,0-1.75-0.76-1.75-1.92c-0.7,1.05-1.73,1.92-3.05,1.92c-1.59,0-2.74-1.32-2.74-3.3
		C132.61,103.91,134.57,101.33,137.03,101.33 M139.05,105.01c0-1.11-0.54-1.8-1.67-1.8c-1.42,0-2.56,1.59-2.56,3.32
		c0,1.01,0.5,1.8,1.53,1.8C137.77,108.33,139.05,106.84,139.05,105.01"/>
</g>
<polygon points="9.92,117.93 9.92,156.95 34.73,156.95 34.73,151.16 17.45,151.16 17.45,117.93 "/>
<path d="M58.58,123.88l5.95,18.12H52.58L58.58,123.88z M54.11,117.93l-13.54,39.02h7.08l3.17-9.66h15.47l3.23,9.66h7.82
	l-13.37-39.02H54.11z"/>
<polygon points="115.8,117.93 105.38,144.56 94.73,117.93 84.64,117.93 84.64,156.95 91.44,156.95 91.44,127.48 103.73,156.95 
	106.17,156.95 118.24,127.48 118.24,156.95 125.77,156.95 125.77,117.93 "/>
<g>
	<defs>
		<rect id="SVGID_7_" width="176.71" height="156.95"/>
	</defs>
	<clipPath id="SVGID_8_">
		<use xlink:href="#SVGID_7_"  style="overflow:visible;"/>
	</clipPath>
	<path class="st4" d="M152,151.76c5.04,0,7.36-2.18,7.36-6.22v-0.22c0-4.04-2.32-6.06-7.87-6.06h-6.8v12.5H152z M150.93,134.35
		c4.99,0,6.91-1.75,6.91-5.73v-0.22c0-3.71-2.21-5.29-7.02-5.29h-6.12v11.24H150.93z M137.33,117.93h14.5
		c8.33,0,13.26,3.06,13.26,10.15v0.22c0,3.88-1.81,6.93-6.4,8.3c5.49,1.15,8.1,4.04,8.1,9.22v0.22c0,7.26-4.99,10.92-13.88,10.92
		h-15.58V117.93z"/>
</g>
</svg>
