<?xml version="1.0" encoding="utf-8"?>
<!-- Generator: Adobe Illustrator 23.0.1, SVG Export Plug-In . SVG Version: 6.00 Build 0)  -->
<svg version="1.1" id="Layer_1" xmlns="http://www.w3.org/2000/svg" xmlns:xlink="http://www.w3.org/1999/xlink" x="0px" y="0px"
	 viewBox="0 0 183.74 112.22" style="enable-background:new 0 0 183.74 112.22;" xml:space="preserve">
<style type="text/css">
	.st0{clip-path:url(#SVGID_2_);}
	.st1{clip-path:url(#SVGID_2_);fill:#808285;}
</style>
<g>
	<defs>
		<rect id="SVGID_1_" x="0" y="0" width="183.74" height="112.22"/>
	</defs>
	<clipPath id="SVGID_2_">
		<use xlink:href="#SVGID_1_"  style="overflow:visible;"/>
	</clipPath>
	<path class="st0" d="M178.81,105.77c0.54,0,0.84-0.27,0.84-0.66c0-0.42-0.3-0.66-0.84-0.66h-0.99v1.31H178.81z M176.28,103.14h2.63
		c1.34,0,2.3,0.57,2.3,1.85c0,0.87-0.45,1.46-1.14,1.73l1.31,1.91h-1.79l-1.11-1.64h-0.66v1.64h-1.55V103.14z M183.14,105.98v-0.03
		c0-2.54-1.97-4.63-4.6-4.63c-2.6,0-4.6,2.12-4.6,4.66v0.03c0,2.54,1.97,4.63,4.6,4.63C181.14,110.63,183.14,108.51,183.14,105.98
		 M173.35,106.01v-0.03c0-2.84,2.3-5.23,5.19-5.23c2.93,0,5.2,2.36,5.2,5.2v0.03c0,2.84-2.3,5.23-5.2,5.23
		C175.62,111.2,173.35,108.84,173.35,106.01"/>
	<path class="st0" d="M23.83,86.44l-0.22,9.2c-1.01-3.75-3.37-8.25-6.81-9.52L23.83,86.44z M7.67,96.59c0,6.94,3.81,11.2,9.07,11.2
		c2.41,0,4.82-0.95,6.89-2.97c-2.07,4.99-6.61,7.39-11.37,7.39C5.66,112.22,0,107.46,0,99.56c0-8.96,6.55-14.17,15.62-13.5
		C10.25,86.29,7.67,90.99,7.67,96.59"/>
	<path class="st0" d="M49.88,94.19H35.21l8.69-1.47c-0.22-3.85-1.74-6.45-3.82-6.71C45.79,85.95,49.77,89.98,49.88,94.19
		 M32.75,95.98c0,7.22,3.64,11.87,9.18,11.87c2.58,0,5.21-0.9,7.34-2.91c-2.24,4.93-6.83,7.28-11.54,7.28
		c-7,0-12.43-5.71-12.43-12.82c0-7.28,4.87-13.44,13.66-13.39C35.32,86.29,32.75,90.54,32.75,95.98"/>
	<path class="st0" d="M118.13,94.19h-14.67l8.69-1.47c-0.22-3.85-1.74-6.45-3.82-6.71C114.04,85.95,118.01,89.98,118.13,94.19
		 M100.99,95.98c0,7.22,3.64,11.87,9.18,11.87c2.58,0,5.21-0.9,7.34-2.91c-2.24,4.93-6.83,7.28-11.54,7.28
		c-7,0-12.43-5.71-12.43-12.82c0-7.28,4.87-13.44,13.66-13.39C103.56,86.29,100.99,90.54,100.99,95.98"/>
	<path class="st0" d="M68.81,92.39c-1.96-0.95-6.66-0.5-8.18,1.57c0.78-3.92,4.48-7.95,8.18-7.95V92.39z M59.46,97.6
		c0,4.59,0.06,9.46,0.34,14.06h-7.73c0.22-4.43,0.28-8.85,0.28-13.61c0-4.26-0.06-8.9-0.34-11.2c2.13,0,5.15-0.11,7.78-0.84
		C59.57,88.36,59.46,93.23,59.46,97.6"/>
	<path class="st0" d="M96.08,86.57c-1.62,1.57-3.98,5.66-9.02,15.4c3.42-8.4,2.07-13.16,0.62-15.4H96.08z M78.84,86.57
		c1.18,4.09,5.21,14,7.17,17.86l-3.92,7.78c-2.24-5.66-9.52-21.39-12.26-25.65H78.84z"/>
	<path class="st0" d="M146.14,96.54c0,3.53,0,10.98,0.22,15.12h-7.73c0.22-3.25,0.34-9.3,0.34-14.95c0-4.2-1.79-6.66-5.1-6.66
		c-1.68,0-3.64,0.84-5.21,2.63c1.51-3.98,4.87-6.67,8.96-6.67C143.06,86.01,146.14,89.15,146.14,96.54 M127.66,97.6
		c0,4.59,0.06,9.46,0.34,14.06h-7.73c0.22-4.43,0.28-8.85,0.28-13.61c0-4.26-0.06-8.9-0.34-11.2c2.13,0,5.15-0.11,7.78-0.84
		C127.77,88.36,127.66,93.23,127.66,97.6"/>
	<path class="st0" d="M171.23,96.59c0,5.32,0,10.47,0.17,15.07h-7.62c0.17-3.36,0.28-10.25,0.28-15.18c0-4.7-2.18-7.34-6.27-7.34
		c-2.3,0-4.65,1.01-6.66,3.14c2.02-4.09,6.55-6.27,10.53-6.27C167.31,86.01,171.23,89.54,171.23,96.59 M161.88,97.71
		c-4.48,0.06-6.33,2.63-6.33,6.22c0,3.25,1.68,4.99,4.2,4.99c1.12,0,2.41-0.39,3.3-1.18c-1.29,2.86-3.98,4.42-6.94,4.42
		c-4.31,0-7.23-2.74-7.23-7C148.88,99.23,155.21,95.92,161.88,97.71"/>
	<path class="st0" d="M58.78,27.99c0.12,0.25,0.29,0.71,0.28,1.31c-0.09-0.22-0.43-0.7-0.88-1.15c-0.42,0.12-0.87,0.24-1.33,0.35
		c-0.36,0.09-1.11,0.29-1.88,0.52c0.14,0.13,0.28,0.27,0.41,0.44c0.35,0.43,0.68,0.98,0.97,1.68c-0.22-0.27-1.44-1.25-2.68-1.75
		c-0.64,0.18-1.1,0.31-1.1,0.31c-0.63,0.18-1.28,0.39-1.94,0.64c0.57,0.33,1.16,0.79,1.76,1.4c0.43,0.44,0.86,0.94,1.29,1.56
		c-1.05-0.71-3.24-1.81-5.13-1.96c-0.77,0.45-1.53,1-2.31,1.66c1.21,0.36,2.56,1.11,4.12,2.65c0.26,0.25,0.53,0.53,0.79,0.83
		c-1.62-0.96-4.47-1.73-6.74-1.63c-0.66,0.77-1.34,1.65-1.92,2.65c1.56-0.11,3.53,0.26,6.12,1.82c0.35,0.21,0.72,0.43,1.08,0.7
		c-2.14-0.71-6.36-0.85-8.39,0.08c-0.11,0.34-0.39,1.58-0.38,2.91c4.12-0.78,6.5-0.06,9.06,0.64c1.32-10.63,7.91-11.97,14.64-17.75
		h0C63.39,26.48,61.45,27.23,58.78,27.99"/>
	<path class="st0" d="M51.04,53.68c-0.45,0-0.9-0.01-1.34-0.04c-0.24-0.04-0.5-0.08-0.77-0.13c-6.48-0.99-9.06-5.05-9.64-8.54
		c-0.76-4.53,1.03-7.02,2.04-8.56c3.22-4.73,7.61-6.81,11.41-7.86c0,0,3.39-0.95,4.3-1.18c4.35-1.07,7.16-2.19,8.45-2.92
		c1.02-0.57,2.39-1.64,3.21-3.16c0,0,1.14-1.74,0.91-3.82c-0.27-2.55-2.13-3.87-3.82-3.99c-0.16,0-0.32-0.01-0.48,0
		c-0.64,0.03-1.28,0.25-1.79,0.58c-0.5,0.33-0.88,0.82-1.1,1.36c-0.01,0-0.18,0.38-0.18,0.87v0.01c0,1.24,1.01,2.25,2.25,2.25
		c1.24,0,2.25-1.01,2.25-2.25c0-0.35-0.08-0.66-0.21-0.97c0.6,0.36,0.94,0.98,1.05,1.64c0.04,0.25,0.06,0.54,0.04,0.86
		c-0.01,0.23-0.05,0.47-0.1,0.71c-0.24,0.81-0.71,1.55-2.06,2.03c-0.54,0.15-1.1,0.29-1.71,0.38c0.01,0.63-0.15,1.39-0.77,2.22
		c-0.1,0.13-0.22,0.25-0.36,0.37c0.29-0.76,0.28-1.67,0.12-2.43c-0.72,0.08-1.48,0.15-2.27,0.2c0.12,0.76,0.06,1.75-0.65,2.86
		c-0.1,0.16-0.23,0.32-0.38,0.48c0.3-1.06,0.11-2.32-0.26-3.26c-0.75,0.03-1.51,0.07-2.3,0.11c0.22,0.89,0.28,2.12-0.56,3.57
		c-0.11,0.18-0.25,0.38-0.41,0.57c0.33-1.38-0.05-2.99-0.61-4.07c-0.85,0.05-1.73,0.11-2.61,0.19c0.3,0.99,0.41,2.28-0.26,3.89
		c-0.1,0.23-0.24,0.48-0.4,0.73h0c0.18-1.54-0.41-3.23-1.16-4.42c-0.97,0.13-1.95,0.28-2.94,0.49c0.54,1.01,0.95,2.41,0.67,4.32
		c-0.04,0.27-0.12,0.58-0.23,0.89c-0.21-1.81-1.29-3.62-2.37-4.75c-1.05,0.29-2.1,0.64-3.14,1.08c0.84,0.88,1.67,2.21,1.88,4.28
		c0.03,0.3,0.02,0.64-0.01,0.99c-0.73-1.89-2.45-3.49-3.92-4.33c-1,0.51-1.92,1.08-2.76,1.68c1.1,0.68,2.34,1.82,3.08,3.96
		c0.1,0.29,0.27,0.92,0.33,1.27c-1.23-1.8-3.56-3.22-5.29-3.71c-0.89,0.79-1.67,1.61-2.35,2.4c1.69,0.91,3.92,2.78,4.84,5.13v0.01
		c-1.6-1.54-4.58-2.47-6.72-2.63c-1.05,1.61-1.58,2.82-1.67,3c3.19,0.85,4.76,1.94,5.54,2.8v0.01c0.68,0.67,0.5,1.48,0.5,1.48
		c-0.1,0.47-0.18,0.94-0.24,1.39c-0.46,3.06-0.21,5.46,0.48,7.36C30.07,44.53,25.85,37,25.85,28.5c0-13.91,11.28-25.18,25.19-25.18
		c13.91,0,25.18,11.28,25.18,25.18C76.21,42.4,64.94,53.68,51.04,53.68 M50.68,0c-15.72,0-28.5,12.79-28.5,28.5
		c0,15.72,12.79,28.51,28.5,28.51S79.18,44.22,79.18,28.5C79.18,12.79,66.39,0,50.68,0"/>
	<path class="st1" d="M148.03,45.81c-1.49-0.54-2.73-1.08-2.73-2.3c0-1.08,0.85-1.82,2.32-1.82c0.93,0,1.56,0.2,1.97,0.45
		c-0.09,0.18-0.16,0.34-0.16,0.7c0,0.74,0.59,1.51,1.63,1.51c0.86,0,1.51-0.61,1.51-1.67c0-1.78-2.14-3.2-4.91-3.2
		c-3,0-4.92,1.85-4.92,4.22c0,2.75,1.94,3.63,4.69,4.63c1.49,0.52,2.74,1.1,2.74,2.32c0,1.29-1.04,2.01-2.67,2.01
		c-0.97,0-1.81-0.25-2.35-0.63c0.13-0.27,0.21-0.54,0.21-0.9c0-0.73-0.63-1.47-1.63-1.47c-0.93,0-1.56,0.7-1.56,1.76
		c0,1.8,2.37,3.45,5.31,3.45c3.05,0,5.23-1.61,5.23-4.43C152.7,47.68,150.69,46.76,148.03,45.81 M116.48,46.82
		c-0.81,0-1.18-0.02-1.45-0.04v-4.76h1.38c2.05,0,3.34,0.75,3.34,2.3C119.75,45.88,118.39,46.82,116.48,46.82 M101.1,47.77
		l2.08-5.84l2.08,5.84H101.1z M139.52,42.02h1.85v-2.28h-4.04L132.78,48l-4.56-8.26h-4.07v2.28H126l-0.47,10.29h-3.66l-2.28-4.04
		c1.62-0.66,2.8-2.12,2.8-4.04c0-3.02-2.44-4.49-5.85-4.49h-5.76v2.28h1.69v10.29h-2.99l-3.7-10.32h1.63v-2.26h-8.4v2.26h1.62
		l-3.7,10.32h-1.28v2.28h5.71v-2.26h-1.81l0.84-2.43h5.55l0.84,2.43h-1.72v2.26h11.81v-2.28h-1.85v-3.34
		c0.32,0.02,0.74,0.02,1.22,0.02c0.29,0,0.58-0.02,0.9-0.04l2.98,5.64h9.68v-2.28h-1.78l0.29-7.66l4.25,7.45h0.34l4.24-7.45
		l0.3,7.66h-1.78v2.28h6.1v-2.28h-1.76L139.52,42.02z M90.09,41.99h4.27v1.98h2.44v-4.24H85.85v2.28h1.69v10.29h-1.69v2.28h6.21
		v-2.28h-1.96v-3.88h4.38v-2.19h-4.38V41.99z"/>
	<path class="st0" d="M115.52,29.27c-0.81,0-1.18-0.03-1.45-0.05v-4.76h1.38c2.05,0,3.34,0.74,3.34,2.3
		C118.79,28.32,117.44,29.27,115.52,29.27 M132.24,24.46h1.85v7.04l-7.31-9.33h-3.86v2.28h1.69v10.29h-3.7l-2.28-4.04
		c1.63-0.65,2.8-2.12,2.8-4.04c0-3.02-2.43-4.49-5.85-4.49h-5.75v2.28h1.69v10.29h-1.69v2.28h6.1v-2.28h-1.85v-3.34
		c0.31,0.02,0.75,0.02,1.22,0.02c0.29,0,0.58-0.02,0.9-0.04l2.98,5.64h9.77v-2.28h-1.85v-7.97l8.1,10.32l1.38-0.05V24.46h1.63v-2.28
		h-5.96V24.46z M106.37,34.77h-4.43v-4.2h4.5v-2.16h-4.5v-3.98h4.41v1.99h2.44v-4.25H97.7v2.28h1.69v10.29H97.7v2.28h11.11v-4.25
		h-2.44V34.77z M85.84,24.46h1.69v10.29h-1.69v2.28h6.2v-2.28h-1.96v-3.88h4.38v-2.2h-4.38v-4.24h4.26v1.99h2.43v-4.25H85.84V24.46z
		 M143.82,11.71c-0.81,0-1.17-0.02-1.44-0.04V6.91h1.37c2.05,0,3.34,0.75,3.34,2.3C147.1,10.76,145.74,11.71,143.82,11.71
		 M139.83,17.2h-1.91v-1.96h-2.44v1.99h-4.43v-4.2h4.5v-2.16h-4.5V6.88h4.41v1.99h2.43V6.91h1.94V17.2z M146.94,13.16
		c1.62-0.66,2.8-2.12,2.8-4.04c0-3.02-2.44-4.49-5.86-4.49h-22.12v2.28h1.65l-3.2,8.15l-3.21-8.15h1.56V4.63h-5.87v2.28h1.36
		l5.39,12.73h1.45l5.39-12.73h2.22V17.2h-1.69v2.28h17.42V17.2h-1.85v-3.34c0.31,0.02,0.74,0.02,1.22,0.02
		c0.29,0,0.58-0.02,0.9-0.04l2.98,5.64h3.43V17.2h-1.69L146.94,13.16z M115.58,15.12h-2.46v2.1h-4.08V6.91H111V4.63h-6.21v2.28h1.7
		V17.2h-1.7v2.28h10.79V15.12z M103.62,17.2h-1.81V6.91h1.81V4.63h-6.16v2.28h1.81V17.2h-1.81v2.28h6.16V17.2z M91.21,19.75
		c3.04,0,5.23-1.6,5.23-4.43c0-2.75-2.01-3.68-4.67-4.62c-1.49-0.54-2.73-1.09-2.73-2.3c0-1.08,0.85-1.83,2.32-1.83
		c0.92,0,1.55,0.2,1.96,0.44c-0.09,0.19-0.15,0.34-0.15,0.71c0,0.75,0.58,1.51,1.62,1.51c0.85,0,1.51-0.61,1.51-1.67
		c0-1.78-2.14-3.21-4.92-3.21c-3,0-4.92,1.85-4.92,4.22c0,2.75,1.94,3.63,4.69,4.63c1.49,0.52,2.73,1.1,2.73,2.32
		c0,1.28-1.04,2.01-2.66,2.01c-0.97,0-1.81-0.25-2.35-0.64c0.14-0.27,0.2-0.54,0.2-0.9c0-0.73-0.63-1.47-1.63-1.47
		c-0.92,0-1.55,0.7-1.55,1.77C85.91,18.1,88.28,19.75,91.21,19.75"/>
</g>
<path d="M142.5,24.05h0.29l0.07-1.49h-0.32v-0.38h0.85l0.56,1.28l0.55-1.28h0.85v0.38h-0.33l0.07,1.49h0.3v0.38h-0.99v-0.38h0.28
	l-0.04-1.25l-0.6,1.29h-0.2l-0.61-1.29l-0.04,1.25h0.29v0.38h-0.98V24.05z M140.63,24.05h0.31v-1.5h-0.46v0.37h-0.38v-0.73h2.12
	v0.73h-0.38v-0.37h-0.46v1.5h0.31v0.38h-1.06V24.05z"/>
</svg>
