<?xml version="1.0" encoding="utf-8"?>
<!-- Generator: Adobe Illustrator 23.0.1, SVG Export Plug-In . SVG Version: 6.00 Build 0)  -->
<svg version="1.1" id="Layer_1" xmlns="http://www.w3.org/2000/svg" xmlns:xlink="http://www.w3.org/1999/xlink" x="0px" y="0px"
	 viewBox="0 0 156.3 107.35" style="enable-background:new 0 0 156.3 107.35;" xml:space="preserve">
<style type="text/css">
	.st0{clip-path:url(#SVGID_2_);}
	.st1{clip-path:url(#SVGID_4_);}
	.st2{clip-path:url(#SVGID_4_);fill:#808285;}
</style>
<g>
	<defs>
		<rect id="SVGID_1_" width="156.3" height="107.35"/>
	</defs>
	<clipPath id="SVGID_2_">
		<use xlink:href="#SVGID_1_"  style="overflow:visible;"/>
	</clipPath>
	<path class="st0" d="M152.78,99.46c-0.86,2.93-3.93,4.83-7.82,4.83c-4.04,0-6.12-2.05-7.05-3.43l0.66-0.38h0.62
		c0.87,1.11,2.61,2.55,5.77,2.55c3.32,0,5.91-1.54,6.61-3.92c0.6-2.06-0.36-4.2-2.52-5.59c-1.35-0.87-2.89-1.53-4.66-2.3
		c-0.77-0.33-1.56-0.67-2.41-1.06c-3.95-1.81-4.86-4.73-4.39-6.86c0.52-2.36,2.92-4.75,7.13-4.75c4.38,0,6.37,2.05,7.61,3.84
		l-1.04,0.72c-1.14-1.63-2.8-3.3-6.57-3.3c-3.51,0-5.49,1.89-5.9,3.76c-0.46,2.1,0.95,4.19,3.68,5.44c0.84,0.38,1.63,0.72,2.39,1.05
		c1.83,0.79,3.4,1.47,4.84,2.4C152.38,94.16,153.54,96.85,152.78,99.46 M147.91,88.14c-0.25-0.1-0.53-0.22-0.83-0.34
		c-1.65-0.67-5.08-2.07-5.08-3.38c0-1.18,1.83-1.6,3.06-1.6c1.25,0,2.32,0.37,3.28,1.14l0.92,3.01l7.04-4.29l-0.29-0.56
		c-2.04-3.96-6.44-6.52-11.21-6.52c-5.31,0-10.66,2.8-10.66,9.05c0,2.44,1.06,4.51,3.25,6.33c1.73,1.38,3.87,2.51,6.52,3.46
		c2.81,0.99,4.49,2.21,4.49,3.27c0,2.24-3.03,2.35-3.63,2.35c-1.94,0-2.84-0.95-3.45-1.91l-0.61-3.66l-7.67,4.25l0.18,0.53
		c1.54,4.61,6.53,8.09,11.6,8.09c4.47,0,7.84-1.52,10.01-4.51c0.86-1.17,2.07-3.99,1.15-7.19
		C155.04,92.45,152.33,89.92,147.91,88.14"/>
	<path class="st0" d="M8.12,98.65l-1.52,4.68H5.27l7.7-23.7h3.76l7.67,23.7h-1.33l-1.51-4.68C17.18,98.65,9.65,98.65,8.12,98.65
		 M19.95,79.75l1.87-3.47h-0.1h-6.88H7.95h-0.1l1.87,3.47l-7.3,23.18L0,106.61h11.33l-1.69-3.43l0.76-2.31l4.1-0.02l0.34,0l0.34,0
		l4.1,0.02l0.76,2.31l-1.69,3.43h11.33l-2.43-3.69L19.95,79.75z"/>
	<path class="st0" d="M14.84,95.13H12l2.84-9.37l2.84,9.37H14.84z M13.89,80.89l-5.36,16.5l1.5,0c1.32,0,3.08,0,4.84,0l6.29,0
		l-5.34-16.5H13.89z"/>
</g>
<path d="M57.73,79.63h1.26v23.7h-1.46L43.85,81.65v21.69h-1.26v-23.7h1.48l13.66,21.64V79.63z M52.67,76.28l1.84,3.52l0,10.79
	l-7.98-14.31h-8.68l1.77,3.56v23.25l-1.78,3.52H48.7l-1.83-3.57V92.24l8.05,14.37h8.67l-1.76-3.56V79.8l1.78-3.52H52.67z"/>
<g>
	<defs>
		<rect id="SVGID_3_" width="156.3" height="107.35"/>
	</defs>
	<clipPath id="SVGID_4_">
		<use xlink:href="#SVGID_3_"  style="overflow:visible;"/>
	</clipPath>
	<path class="st1" d="M82.42,79.99c-4.8,0-7.13,2.26-7.13,6.9v9.28c0,4.53,2.21,6.56,7.18,6.56c4.96,0,7.07-1.96,7.07-6.54v-2.94
		h-4.68V92h5.94v4.2c0,5.25-2.73,7.8-8.34,7.8c-5.6,0-8.44-2.63-8.44-7.82V86.9c0-5.34,2.9-8.17,8.4-8.17
		c4.61,0,7.45,2.12,8.06,5.99H89.2C88.63,81.58,86.35,79.99,82.42,79.99 M82.27,75.59c-7.62,0-11.32,3.18-11.32,9.72v11.98
		c0,6.61,3.7,9.83,11.32,9.83c3.65,0,6.48-0.78,8.41-2.33c2.07-1.65,3.12-4.18,3.12-7.51v-7.97H81.51v8.4l3.44-1.77l1.54,0
		c-0.02,1.79-0.61,3.89-3.32,3.89h-1.6c-2.19,0-3.26-1.3-3.26-3.97V86.8c0-1.42,0.22-2.34,0.7-2.99c0.52-0.68,1.31-0.99,2.57-0.99
		h1.6c1.52,0,2.55,0.63,3.09,1.88l-0.88,2.65h8.41v-2.04C93.79,78.96,89.81,75.59,82.27,75.59"/>
	<path class="st1" d="M120.8,95.76V79.82h1.26v15.94c0,5.47-2.7,8.24-8.04,8.24c-5.41,0-8.04-2.69-8.04-8.24V79.82h1.26v15.94
		c0,4.83,2.09,6.98,6.77,6.98C118.71,102.74,120.8,100.59,120.8,95.76 M117.62,79.84v16.5c0,3.13-1.44,3.38-3.32,3.38h-0.56
		c-1.88,0-3.32-0.25-3.32-3.38v-16.5l1.75-3.56h-11.04l1.83,3.56v17.92c0,6.31,3.52,9.24,11.07,9.24c3.64,0,6.29-0.68,8.11-2.08
		c1.99-1.53,2.96-3.88,2.96-7.16V79.84l1.83-3.56h-11.04L117.62,79.84z"/>
	<path class="st1" d="M50.96,26.56c0.11,0.24,0.27,0.68,0.26,1.25c-0.09-0.21-0.41-0.67-0.83-1.09c-0.4,0.11-0.82,0.23-1.26,0.33
		c-0.34,0.09-1.05,0.28-1.79,0.49c0.13,0.12,0.26,0.26,0.39,0.42c0.33,0.41,0.65,0.93,0.92,1.59c-0.21-0.25-1.36-1.19-2.55-1.67
		c-0.6,0.17-1.05,0.29-1.05,0.29c-0.6,0.17-1.21,0.37-1.84,0.6c0.54,0.32,1.1,0.75,1.67,1.33c0.41,0.42,0.82,0.9,1.22,1.48
		c-0.99-0.67-3.08-1.72-4.87-1.86c-0.74,0.43-1.45,0.95-2.19,1.58c1.14,0.34,2.43,1.05,3.91,2.51c0.24,0.24,0.5,0.5,0.75,0.79
		c-1.54-0.91-4.24-1.64-6.39-1.55c-0.63,0.74-1.27,1.57-1.82,2.52c1.48-0.1,3.34,0.25,5.8,1.73c0.33,0.2,0.68,0.41,1.03,0.66
		c-2.03-0.67-6.03-0.81-7.96,0.07c-0.1,0.33-0.37,1.5-0.36,2.76c3.91-0.74,6.17-0.06,8.59,0.61c1.26-10.08,7.51-11.36,13.89-16.84h0
		C55.33,25.13,53.5,25.84,50.96,26.56"/>
	<path class="st1" d="M43.61,50.94c-0.43,0-0.85-0.01-1.27-0.04c-0.23-0.03-0.48-0.07-0.74-0.12c-6.15-0.94-8.6-4.79-9.15-8.11
		c-0.72-4.3,0.97-6.66,1.94-8.12c3.06-4.49,7.22-6.46,10.82-7.45c0,0,3.22-0.9,4.08-1.12c4.12-1.01,6.79-2.08,8.01-2.77
		c0.97-0.54,2.27-1.56,3.05-3c0,0,1.08-1.65,0.87-3.62c-0.26-2.42-2.02-3.67-3.63-3.78c-0.15,0-0.3-0.01-0.45,0
		c-0.61,0.03-1.21,0.23-1.7,0.55c-0.47,0.31-0.84,0.78-1.05,1.29c-0.01,0-0.17,0.36-0.17,0.82v0.01c0,1.17,0.96,2.14,2.14,2.14
		c1.18,0,2.14-0.96,2.14-2.14c0-0.33-0.08-0.63-0.2-0.92c0.57,0.34,0.89,0.93,1,1.56c0.04,0.24,0.06,0.52,0.04,0.82
		c-0.01,0.22-0.05,0.45-0.1,0.68c-0.22,0.77-0.67,1.47-1.96,1.92c-0.51,0.15-1.05,0.27-1.62,0.36c0.01,0.6-0.14,1.32-0.73,2.1
		c-0.09,0.12-0.21,0.23-0.34,0.35c0.28-0.72,0.27-1.59,0.11-2.31c-0.69,0.08-1.4,0.14-2.16,0.19c0.11,0.72,0.06,1.66-0.62,2.71
		c-0.1,0.15-0.22,0.3-0.36,0.45c0.29-1.01,0.1-2.2-0.24-3.1c-0.71,0.03-1.44,0.07-2.18,0.11c0.21,0.84,0.27,2.01-0.53,3.39
		c-0.1,0.17-0.24,0.36-0.39,0.54c0.32-1.31-0.05-2.84-0.57-3.86c-0.81,0.05-1.64,0.11-2.48,0.18c0.28,0.94,0.39,2.16-0.24,3.69
		c-0.09,0.22-0.22,0.46-0.38,0.69h0c0.16-1.46-0.4-3.06-1.1-4.19c-0.92,0.12-1.85,0.27-2.78,0.46c0.51,0.96,0.91,2.29,0.64,4.1
		c-0.04,0.26-0.12,0.55-0.22,0.84c-0.2-1.72-1.23-3.43-2.25-4.5c-1,0.27-2,0.61-2.98,1.03c0.8,0.84,1.58,2.1,1.78,4.06
		c0.03,0.29,0.02,0.6,0,0.93c-0.69-1.79-2.33-3.32-3.73-4.11c-0.95,0.49-1.82,1.03-2.62,1.59c1.05,0.65,2.22,1.73,2.93,3.76
		c0.1,0.27,0.26,0.87,0.31,1.21c-1.17-1.71-3.38-3.05-5.02-3.52c-0.85,0.75-1.59,1.53-2.23,2.28c1.6,0.86,3.72,2.64,4.59,4.87v0.01
		c-1.52-1.47-4.34-2.34-6.37-2.5c-1,1.53-1.5,2.67-1.58,2.85c3.03,0.81,4.52,1.84,5.26,2.66v0.01c0.65,0.64,0.47,1.4,0.47,1.4
		c-0.09,0.45-0.17,0.89-0.23,1.32c-0.44,2.9-0.2,5.18,0.46,6.99c-6.13-4.32-10.14-11.46-10.14-19.54c0-13.2,10.7-23.9,23.9-23.9
		c13.19,0,23.89,10.7,23.89,23.9C67.5,40.24,56.8,50.94,43.61,50.94 M43.27,0C28.35,0,16.22,12.14,16.22,27.05
		c0,14.91,12.13,27.05,27.05,27.05s27.05-12.14,27.05-27.05C70.32,12.14,58.18,0,43.27,0"/>
	<path class="st2" d="M135.66,43.47c-1.41-0.51-2.59-1.03-2.59-2.18c0-1.03,0.81-1.73,2.2-1.73c0.88,0,1.48,0.19,1.87,0.43
		c-0.09,0.17-0.15,0.32-0.15,0.67c0,0.7,0.56,1.43,1.54,1.43c0.82,0,1.43-0.58,1.43-1.59c0-1.69-2.03-3.04-4.66-3.04
		c-2.85,0-4.67,1.76-4.67,4c0,2.61,1.84,3.45,4.45,4.39c1.41,0.49,2.6,1.05,2.6,2.2c0,1.22-0.99,1.9-2.53,1.9
		c-0.92,0-1.71-0.23-2.23-0.6c0.13-0.25,0.2-0.51,0.2-0.85c0-0.69-0.6-1.4-1.54-1.4c-0.88,0-1.48,0.66-1.48,1.67
		c0,1.71,2.24,3.28,5.03,3.28c2.89,0,4.97-1.52,4.97-4.2C140.09,45.25,138.18,44.38,135.66,43.47 M105.71,44.44
		c-0.77,0-1.12-0.02-1.37-0.04v-4.52h1.31c1.95,0,3.17,0.71,3.17,2.18C108.82,43.54,107.53,44.44,105.71,44.44 M91.12,45.33
		l1.97-5.54l1.97,5.54H91.12z M127.58,39.88h1.75v-2.16h-3.83l-4.32,7.84l-4.33-7.84h-3.86v2.16h1.76l-0.45,9.77h-3.47l-2.16-3.84
		c1.54-0.62,2.65-2.01,2.65-3.83c0-2.87-2.32-4.26-5.55-4.26h-5.46v2.16h1.61v9.77h-2.83l-3.51-9.79h1.55v-2.14h-7.97v2.14h1.54
		l-3.51,9.79h-1.22v2.16h5.42v-2.15h-1.71l0.79-2.31h5.26l0.8,2.31h-1.63v2.15h11.21v-2.16h-1.76v-3.17c0.3,0.02,0.7,0.02,1.16,0.02
		c0.28,0,0.55-0.02,0.86-0.04l2.83,5.36h9.18v-2.16h-1.69l0.28-7.27l4.03,7.07h0.32l4.03-7.07l0.28,7.27h-1.69v2.16h5.78v-2.16
		h-1.67L127.58,39.88z M80.67,39.85h4.05v1.88h2.31v-4.02H76.65v2.16h1.6v9.77h-1.6v2.16h5.89v-2.16h-1.86v-3.68h4.16v-2.08h-4.16
		V39.85z"/>
	<path class="st1" d="M104.8,27.78c-0.77,0-1.11-0.02-1.37-0.05v-4.52h1.3c1.95,0,3.17,0.7,3.17,2.19
		C107.91,26.88,106.62,27.78,104.8,27.78 M120.67,23.22h1.76v6.68l-6.94-8.85h-3.66v2.17h1.6v9.76h-3.51l-2.17-3.83
		c1.55-0.62,2.66-2.01,2.66-3.84c0-2.87-2.31-4.26-5.55-4.26H99.4v2.17h1.61v9.76H99.4v2.17h5.79v-2.17h-1.76v-3.17
		c0.3,0.02,0.71,0.02,1.16,0.02c0.27,0,0.55-0.02,0.85-0.04l2.83,5.36h9.27v-2.17h-1.75v-7.56l7.69,9.79l1.31-0.05V23.22h1.54v-2.17
		h-5.65V23.22z M96.12,33h-4.2v-3.99h4.27v-2.05h-4.27v-3.77h4.18v1.89h2.31v-4.03H87.9v2.17h1.61v9.76H87.9v2.17h10.54v-4.03h-2.32
		V33z M76.64,23.22h1.61v9.76h-1.61v2.17h5.89v-2.17h-1.86V29.3h4.15v-2.08h-4.15v-4.03h4.05v1.89h2.31v-4.03H76.64V23.22z
		 M131.66,11.11c-0.77,0-1.11-0.02-1.37-0.04V6.55h1.3c1.94,0,3.17,0.71,3.17,2.18C134.77,10.21,133.49,11.11,131.66,11.11
		 M127.87,16.32h-1.82v-1.86h-2.31v1.89h-4.21v-3.99h4.27V10.3h-4.27V6.53h4.18v1.89h2.31V6.55h1.84V16.32z M134.62,12.49
		c1.54-0.62,2.66-2.01,2.66-3.84c0-2.87-2.32-4.26-5.56-4.26h-20.99v2.16h1.56l-3.03,7.73l-3.05-7.73h1.48V4.39h-5.57v2.16h1.29
		l5.12,12.08h1.37l5.12-12.08h2.1v9.77h-1.61v2.16h16.53v-2.16h-1.75v-3.17c0.3,0.02,0.71,0.02,1.16,0.02
		c0.27,0,0.55-0.02,0.86-0.04l2.82,5.35h3.26v-2.16h-1.61L134.62,12.49z M104.86,14.35h-2.34v1.99h-3.88V6.55h1.86V4.39h-5.89v2.16
		h1.61v9.77h-1.61v2.16h10.24V14.35z M93.51,16.32H91.8V6.55h1.71V4.39h-5.85v2.16h1.72v9.77h-1.72v2.16h5.85V16.32z M81.74,18.74
		c2.89,0,4.96-1.52,4.96-4.2c0-2.61-1.91-3.49-4.43-4.39c-1.42-0.51-2.59-1.03-2.59-2.18c0-1.03,0.81-1.74,2.21-1.74
		c0.88,0,1.48,0.19,1.86,0.42c-0.08,0.18-0.15,0.33-0.15,0.67c0,0.71,0.55,1.44,1.54,1.44c0.81,0,1.43-0.58,1.43-1.59
		c0-1.69-2.03-3.04-4.67-3.04c-2.85,0-4.67,1.76-4.67,4.01c0,2.61,1.84,3.44,4.45,4.39c1.42,0.49,2.59,1.05,2.59,2.2
		c0,1.22-0.98,1.91-2.52,1.91c-0.93,0-1.72-0.24-2.23-0.61c0.13-0.26,0.19-0.51,0.19-0.85c0-0.69-0.6-1.4-1.54-1.4
		c-0.88,0-1.47,0.67-1.47,1.68C76.7,17.18,78.95,18.74,81.74,18.74"/>
</g>
<path d="M130.41,22.82h0.28l0.07-1.42h-0.3v-0.36h0.81l0.54,1.21l0.53-1.21h0.81v0.36h-0.32l0.07,1.42h0.29v0.36h-0.94v-0.36h0.26
	l-0.04-1.19l-0.57,1.22h-0.19l-0.58-1.22l-0.04,1.19h0.27v0.36h-0.93V22.82z M128.64,22.82h0.3V21.4h-0.44v0.35h-0.36v-0.7h2.01v0.7
	h-0.37V21.4h-0.43v1.43h0.3v0.36h-1.01V22.82z"/>
</svg>
